G75*
%MOIN*%
%OFA0B0*%
%FSLAX25Y25*%
%IPPOS*%
%LPD*%
%AMOC8*
5,1,8,0,0,1.08239X$1,22.5*
%
%ADD10C,0.00500*%
%ADD11C,0.00300*%
%ADD12C,0.00800*%
%ADD13C,0.00200*%
%ADD14C,0.00400*%
D10*
X0065548Y0016583D02*
X0106887Y0016583D01*
X0106887Y0035087D01*
X0115548Y0035087D01*
X0115548Y0033513D01*
X0107280Y0033513D01*
X0106887Y0035087D02*
X0106887Y0052017D01*
X0065548Y0052017D01*
X0065548Y0040206D01*
X0073422Y0040206D01*
X0073422Y0028394D01*
X0065548Y0028394D01*
X0065548Y0040206D01*
X0078577Y0034300D02*
X0078580Y0034560D01*
X0078590Y0034820D01*
X0078606Y0035079D01*
X0078628Y0035338D01*
X0078657Y0035597D01*
X0078692Y0035854D01*
X0078733Y0036111D01*
X0078781Y0036367D01*
X0078834Y0036621D01*
X0078894Y0036874D01*
X0078961Y0037125D01*
X0079033Y0037375D01*
X0079112Y0037623D01*
X0079196Y0037869D01*
X0079287Y0038112D01*
X0079383Y0038354D01*
X0079486Y0038593D01*
X0079594Y0038829D01*
X0079708Y0039063D01*
X0079828Y0039294D01*
X0079953Y0039521D01*
X0080084Y0039746D01*
X0080220Y0039967D01*
X0080362Y0040185D01*
X0080509Y0040400D01*
X0080662Y0040610D01*
X0080819Y0040817D01*
X0080982Y0041020D01*
X0081149Y0041219D01*
X0081321Y0041414D01*
X0081498Y0041604D01*
X0081680Y0041790D01*
X0081866Y0041972D01*
X0082056Y0042149D01*
X0082251Y0042321D01*
X0082450Y0042488D01*
X0082653Y0042651D01*
X0082860Y0042808D01*
X0083070Y0042961D01*
X0083285Y0043108D01*
X0083503Y0043250D01*
X0083724Y0043386D01*
X0083949Y0043517D01*
X0084176Y0043642D01*
X0084407Y0043762D01*
X0084641Y0043876D01*
X0084877Y0043984D01*
X0085116Y0044087D01*
X0085358Y0044183D01*
X0085601Y0044274D01*
X0085847Y0044358D01*
X0086095Y0044437D01*
X0086345Y0044509D01*
X0086596Y0044576D01*
X0086849Y0044636D01*
X0087103Y0044689D01*
X0087359Y0044737D01*
X0087616Y0044778D01*
X0087873Y0044813D01*
X0088132Y0044842D01*
X0088391Y0044864D01*
X0088650Y0044880D01*
X0088910Y0044890D01*
X0089170Y0044893D01*
X0089430Y0044890D01*
X0089690Y0044880D01*
X0089949Y0044864D01*
X0090208Y0044842D01*
X0090467Y0044813D01*
X0090724Y0044778D01*
X0090981Y0044737D01*
X0091237Y0044689D01*
X0091491Y0044636D01*
X0091744Y0044576D01*
X0091995Y0044509D01*
X0092245Y0044437D01*
X0092493Y0044358D01*
X0092739Y0044274D01*
X0092982Y0044183D01*
X0093224Y0044087D01*
X0093463Y0043984D01*
X0093699Y0043876D01*
X0093933Y0043762D01*
X0094164Y0043642D01*
X0094391Y0043517D01*
X0094616Y0043386D01*
X0094837Y0043250D01*
X0095055Y0043108D01*
X0095270Y0042961D01*
X0095480Y0042808D01*
X0095687Y0042651D01*
X0095890Y0042488D01*
X0096089Y0042321D01*
X0096284Y0042149D01*
X0096474Y0041972D01*
X0096660Y0041790D01*
X0096842Y0041604D01*
X0097019Y0041414D01*
X0097191Y0041219D01*
X0097358Y0041020D01*
X0097521Y0040817D01*
X0097678Y0040610D01*
X0097831Y0040400D01*
X0097978Y0040185D01*
X0098120Y0039967D01*
X0098256Y0039746D01*
X0098387Y0039521D01*
X0098512Y0039294D01*
X0098632Y0039063D01*
X0098746Y0038829D01*
X0098854Y0038593D01*
X0098957Y0038354D01*
X0099053Y0038112D01*
X0099144Y0037869D01*
X0099228Y0037623D01*
X0099307Y0037375D01*
X0099379Y0037125D01*
X0099446Y0036874D01*
X0099506Y0036621D01*
X0099559Y0036367D01*
X0099607Y0036111D01*
X0099648Y0035854D01*
X0099683Y0035597D01*
X0099712Y0035338D01*
X0099734Y0035079D01*
X0099750Y0034820D01*
X0099760Y0034560D01*
X0099763Y0034300D01*
X0099760Y0034040D01*
X0099750Y0033780D01*
X0099734Y0033521D01*
X0099712Y0033262D01*
X0099683Y0033003D01*
X0099648Y0032746D01*
X0099607Y0032489D01*
X0099559Y0032233D01*
X0099506Y0031979D01*
X0099446Y0031726D01*
X0099379Y0031475D01*
X0099307Y0031225D01*
X0099228Y0030977D01*
X0099144Y0030731D01*
X0099053Y0030488D01*
X0098957Y0030246D01*
X0098854Y0030007D01*
X0098746Y0029771D01*
X0098632Y0029537D01*
X0098512Y0029306D01*
X0098387Y0029079D01*
X0098256Y0028854D01*
X0098120Y0028633D01*
X0097978Y0028415D01*
X0097831Y0028200D01*
X0097678Y0027990D01*
X0097521Y0027783D01*
X0097358Y0027580D01*
X0097191Y0027381D01*
X0097019Y0027186D01*
X0096842Y0026996D01*
X0096660Y0026810D01*
X0096474Y0026628D01*
X0096284Y0026451D01*
X0096089Y0026279D01*
X0095890Y0026112D01*
X0095687Y0025949D01*
X0095480Y0025792D01*
X0095270Y0025639D01*
X0095055Y0025492D01*
X0094837Y0025350D01*
X0094616Y0025214D01*
X0094391Y0025083D01*
X0094164Y0024958D01*
X0093933Y0024838D01*
X0093699Y0024724D01*
X0093463Y0024616D01*
X0093224Y0024513D01*
X0092982Y0024417D01*
X0092739Y0024326D01*
X0092493Y0024242D01*
X0092245Y0024163D01*
X0091995Y0024091D01*
X0091744Y0024024D01*
X0091491Y0023964D01*
X0091237Y0023911D01*
X0090981Y0023863D01*
X0090724Y0023822D01*
X0090467Y0023787D01*
X0090208Y0023758D01*
X0089949Y0023736D01*
X0089690Y0023720D01*
X0089430Y0023710D01*
X0089170Y0023707D01*
X0088910Y0023710D01*
X0088650Y0023720D01*
X0088391Y0023736D01*
X0088132Y0023758D01*
X0087873Y0023787D01*
X0087616Y0023822D01*
X0087359Y0023863D01*
X0087103Y0023911D01*
X0086849Y0023964D01*
X0086596Y0024024D01*
X0086345Y0024091D01*
X0086095Y0024163D01*
X0085847Y0024242D01*
X0085601Y0024326D01*
X0085358Y0024417D01*
X0085116Y0024513D01*
X0084877Y0024616D01*
X0084641Y0024724D01*
X0084407Y0024838D01*
X0084176Y0024958D01*
X0083949Y0025083D01*
X0083724Y0025214D01*
X0083503Y0025350D01*
X0083285Y0025492D01*
X0083070Y0025639D01*
X0082860Y0025792D01*
X0082653Y0025949D01*
X0082450Y0026112D01*
X0082251Y0026279D01*
X0082056Y0026451D01*
X0081866Y0026628D01*
X0081680Y0026810D01*
X0081498Y0026996D01*
X0081321Y0027186D01*
X0081149Y0027381D01*
X0080982Y0027580D01*
X0080819Y0027783D01*
X0080662Y0027990D01*
X0080509Y0028200D01*
X0080362Y0028415D01*
X0080220Y0028633D01*
X0080084Y0028854D01*
X0079953Y0029079D01*
X0079828Y0029306D01*
X0079708Y0029537D01*
X0079594Y0029771D01*
X0079486Y0030007D01*
X0079383Y0030246D01*
X0079287Y0030488D01*
X0079196Y0030731D01*
X0079112Y0030977D01*
X0079033Y0031225D01*
X0078961Y0031475D01*
X0078894Y0031726D01*
X0078834Y0031979D01*
X0078781Y0032233D01*
X0078733Y0032489D01*
X0078692Y0032746D01*
X0078657Y0033003D01*
X0078628Y0033262D01*
X0078606Y0033521D01*
X0078590Y0033780D01*
X0078580Y0034040D01*
X0078577Y0034300D01*
X0076720Y0034300D02*
X0076724Y0034606D01*
X0076735Y0034911D01*
X0076754Y0035216D01*
X0076780Y0035520D01*
X0076814Y0035824D01*
X0076855Y0036127D01*
X0076903Y0036428D01*
X0076959Y0036729D01*
X0077023Y0037028D01*
X0077093Y0037325D01*
X0077171Y0037621D01*
X0077256Y0037914D01*
X0077348Y0038205D01*
X0077448Y0038494D01*
X0077554Y0038781D01*
X0077668Y0039064D01*
X0077788Y0039345D01*
X0077915Y0039623D01*
X0078049Y0039898D01*
X0078190Y0040169D01*
X0078337Y0040437D01*
X0078491Y0040701D01*
X0078652Y0040961D01*
X0078818Y0041217D01*
X0078991Y0041469D01*
X0079170Y0041716D01*
X0079355Y0041960D01*
X0079546Y0042198D01*
X0079743Y0042432D01*
X0079945Y0042661D01*
X0080153Y0042885D01*
X0080367Y0043103D01*
X0080585Y0043317D01*
X0080809Y0043525D01*
X0081038Y0043727D01*
X0081272Y0043924D01*
X0081510Y0044115D01*
X0081754Y0044300D01*
X0082001Y0044479D01*
X0082253Y0044652D01*
X0082509Y0044818D01*
X0082769Y0044979D01*
X0083033Y0045133D01*
X0083301Y0045280D01*
X0083572Y0045421D01*
X0083847Y0045555D01*
X0084125Y0045682D01*
X0084406Y0045802D01*
X0084689Y0045916D01*
X0084976Y0046022D01*
X0085265Y0046122D01*
X0085556Y0046214D01*
X0085849Y0046299D01*
X0086145Y0046377D01*
X0086442Y0046447D01*
X0086741Y0046511D01*
X0087042Y0046567D01*
X0087343Y0046615D01*
X0087646Y0046656D01*
X0087950Y0046690D01*
X0088254Y0046716D01*
X0088559Y0046735D01*
X0088864Y0046746D01*
X0089170Y0046750D01*
X0089476Y0046746D01*
X0089781Y0046735D01*
X0090086Y0046716D01*
X0090390Y0046690D01*
X0090694Y0046656D01*
X0090997Y0046615D01*
X0091298Y0046567D01*
X0091599Y0046511D01*
X0091898Y0046447D01*
X0092195Y0046377D01*
X0092491Y0046299D01*
X0092784Y0046214D01*
X0093075Y0046122D01*
X0093364Y0046022D01*
X0093651Y0045916D01*
X0093934Y0045802D01*
X0094215Y0045682D01*
X0094493Y0045555D01*
X0094768Y0045421D01*
X0095039Y0045280D01*
X0095307Y0045133D01*
X0095571Y0044979D01*
X0095831Y0044818D01*
X0096087Y0044652D01*
X0096339Y0044479D01*
X0096586Y0044300D01*
X0096830Y0044115D01*
X0097068Y0043924D01*
X0097302Y0043727D01*
X0097531Y0043525D01*
X0097755Y0043317D01*
X0097973Y0043103D01*
X0098187Y0042885D01*
X0098395Y0042661D01*
X0098597Y0042432D01*
X0098794Y0042198D01*
X0098985Y0041960D01*
X0099170Y0041716D01*
X0099349Y0041469D01*
X0099522Y0041217D01*
X0099688Y0040961D01*
X0099849Y0040701D01*
X0100003Y0040437D01*
X0100150Y0040169D01*
X0100291Y0039898D01*
X0100425Y0039623D01*
X0100552Y0039345D01*
X0100672Y0039064D01*
X0100786Y0038781D01*
X0100892Y0038494D01*
X0100992Y0038205D01*
X0101084Y0037914D01*
X0101169Y0037621D01*
X0101247Y0037325D01*
X0101317Y0037028D01*
X0101381Y0036729D01*
X0101437Y0036428D01*
X0101485Y0036127D01*
X0101526Y0035824D01*
X0101560Y0035520D01*
X0101586Y0035216D01*
X0101605Y0034911D01*
X0101616Y0034606D01*
X0101620Y0034300D01*
X0101616Y0033994D01*
X0101605Y0033689D01*
X0101586Y0033384D01*
X0101560Y0033080D01*
X0101526Y0032776D01*
X0101485Y0032473D01*
X0101437Y0032172D01*
X0101381Y0031871D01*
X0101317Y0031572D01*
X0101247Y0031275D01*
X0101169Y0030979D01*
X0101084Y0030686D01*
X0100992Y0030395D01*
X0100892Y0030106D01*
X0100786Y0029819D01*
X0100672Y0029536D01*
X0100552Y0029255D01*
X0100425Y0028977D01*
X0100291Y0028702D01*
X0100150Y0028431D01*
X0100003Y0028163D01*
X0099849Y0027899D01*
X0099688Y0027639D01*
X0099522Y0027383D01*
X0099349Y0027131D01*
X0099170Y0026884D01*
X0098985Y0026640D01*
X0098794Y0026402D01*
X0098597Y0026168D01*
X0098395Y0025939D01*
X0098187Y0025715D01*
X0097973Y0025497D01*
X0097755Y0025283D01*
X0097531Y0025075D01*
X0097302Y0024873D01*
X0097068Y0024676D01*
X0096830Y0024485D01*
X0096586Y0024300D01*
X0096339Y0024121D01*
X0096087Y0023948D01*
X0095831Y0023782D01*
X0095571Y0023621D01*
X0095307Y0023467D01*
X0095039Y0023320D01*
X0094768Y0023179D01*
X0094493Y0023045D01*
X0094215Y0022918D01*
X0093934Y0022798D01*
X0093651Y0022684D01*
X0093364Y0022578D01*
X0093075Y0022478D01*
X0092784Y0022386D01*
X0092491Y0022301D01*
X0092195Y0022223D01*
X0091898Y0022153D01*
X0091599Y0022089D01*
X0091298Y0022033D01*
X0090997Y0021985D01*
X0090694Y0021944D01*
X0090390Y0021910D01*
X0090086Y0021884D01*
X0089781Y0021865D01*
X0089476Y0021854D01*
X0089170Y0021850D01*
X0088864Y0021854D01*
X0088559Y0021865D01*
X0088254Y0021884D01*
X0087950Y0021910D01*
X0087646Y0021944D01*
X0087343Y0021985D01*
X0087042Y0022033D01*
X0086741Y0022089D01*
X0086442Y0022153D01*
X0086145Y0022223D01*
X0085849Y0022301D01*
X0085556Y0022386D01*
X0085265Y0022478D01*
X0084976Y0022578D01*
X0084689Y0022684D01*
X0084406Y0022798D01*
X0084125Y0022918D01*
X0083847Y0023045D01*
X0083572Y0023179D01*
X0083301Y0023320D01*
X0083033Y0023467D01*
X0082769Y0023621D01*
X0082509Y0023782D01*
X0082253Y0023948D01*
X0082001Y0024121D01*
X0081754Y0024300D01*
X0081510Y0024485D01*
X0081272Y0024676D01*
X0081038Y0024873D01*
X0080809Y0025075D01*
X0080585Y0025283D01*
X0080367Y0025497D01*
X0080153Y0025715D01*
X0079945Y0025939D01*
X0079743Y0026168D01*
X0079546Y0026402D01*
X0079355Y0026640D01*
X0079170Y0026884D01*
X0078991Y0027131D01*
X0078818Y0027383D01*
X0078652Y0027639D01*
X0078491Y0027899D01*
X0078337Y0028163D01*
X0078190Y0028431D01*
X0078049Y0028702D01*
X0077915Y0028977D01*
X0077788Y0029255D01*
X0077668Y0029536D01*
X0077554Y0029819D01*
X0077448Y0030106D01*
X0077348Y0030395D01*
X0077256Y0030686D01*
X0077171Y0030979D01*
X0077093Y0031275D01*
X0077023Y0031572D01*
X0076959Y0031871D01*
X0076903Y0032172D01*
X0076855Y0032473D01*
X0076814Y0032776D01*
X0076780Y0033080D01*
X0076754Y0033384D01*
X0076735Y0033689D01*
X0076724Y0033994D01*
X0076720Y0034300D01*
X0065548Y0028394D02*
X0065548Y0016583D01*
X0155383Y0077922D02*
X0156957Y0077922D01*
X0156957Y0086583D01*
X0173887Y0086583D01*
X0173887Y0127922D01*
X0162076Y0127922D01*
X0162076Y0120048D01*
X0150265Y0120048D01*
X0150265Y0127922D01*
X0162076Y0127922D01*
X0150265Y0127922D02*
X0138454Y0127922D01*
X0138454Y0086583D01*
X0156957Y0086583D01*
X0155383Y0086190D02*
X0155383Y0077922D01*
X0145577Y0104300D02*
X0145580Y0104560D01*
X0145590Y0104820D01*
X0145606Y0105079D01*
X0145628Y0105338D01*
X0145657Y0105597D01*
X0145692Y0105854D01*
X0145733Y0106111D01*
X0145781Y0106367D01*
X0145834Y0106621D01*
X0145894Y0106874D01*
X0145961Y0107125D01*
X0146033Y0107375D01*
X0146112Y0107623D01*
X0146196Y0107869D01*
X0146287Y0108112D01*
X0146383Y0108354D01*
X0146486Y0108593D01*
X0146594Y0108829D01*
X0146708Y0109063D01*
X0146828Y0109294D01*
X0146953Y0109521D01*
X0147084Y0109746D01*
X0147220Y0109967D01*
X0147362Y0110185D01*
X0147509Y0110400D01*
X0147662Y0110610D01*
X0147819Y0110817D01*
X0147982Y0111020D01*
X0148149Y0111219D01*
X0148321Y0111414D01*
X0148498Y0111604D01*
X0148680Y0111790D01*
X0148866Y0111972D01*
X0149056Y0112149D01*
X0149251Y0112321D01*
X0149450Y0112488D01*
X0149653Y0112651D01*
X0149860Y0112808D01*
X0150070Y0112961D01*
X0150285Y0113108D01*
X0150503Y0113250D01*
X0150724Y0113386D01*
X0150949Y0113517D01*
X0151176Y0113642D01*
X0151407Y0113762D01*
X0151641Y0113876D01*
X0151877Y0113984D01*
X0152116Y0114087D01*
X0152358Y0114183D01*
X0152601Y0114274D01*
X0152847Y0114358D01*
X0153095Y0114437D01*
X0153345Y0114509D01*
X0153596Y0114576D01*
X0153849Y0114636D01*
X0154103Y0114689D01*
X0154359Y0114737D01*
X0154616Y0114778D01*
X0154873Y0114813D01*
X0155132Y0114842D01*
X0155391Y0114864D01*
X0155650Y0114880D01*
X0155910Y0114890D01*
X0156170Y0114893D01*
X0156430Y0114890D01*
X0156690Y0114880D01*
X0156949Y0114864D01*
X0157208Y0114842D01*
X0157467Y0114813D01*
X0157724Y0114778D01*
X0157981Y0114737D01*
X0158237Y0114689D01*
X0158491Y0114636D01*
X0158744Y0114576D01*
X0158995Y0114509D01*
X0159245Y0114437D01*
X0159493Y0114358D01*
X0159739Y0114274D01*
X0159982Y0114183D01*
X0160224Y0114087D01*
X0160463Y0113984D01*
X0160699Y0113876D01*
X0160933Y0113762D01*
X0161164Y0113642D01*
X0161391Y0113517D01*
X0161616Y0113386D01*
X0161837Y0113250D01*
X0162055Y0113108D01*
X0162270Y0112961D01*
X0162480Y0112808D01*
X0162687Y0112651D01*
X0162890Y0112488D01*
X0163089Y0112321D01*
X0163284Y0112149D01*
X0163474Y0111972D01*
X0163660Y0111790D01*
X0163842Y0111604D01*
X0164019Y0111414D01*
X0164191Y0111219D01*
X0164358Y0111020D01*
X0164521Y0110817D01*
X0164678Y0110610D01*
X0164831Y0110400D01*
X0164978Y0110185D01*
X0165120Y0109967D01*
X0165256Y0109746D01*
X0165387Y0109521D01*
X0165512Y0109294D01*
X0165632Y0109063D01*
X0165746Y0108829D01*
X0165854Y0108593D01*
X0165957Y0108354D01*
X0166053Y0108112D01*
X0166144Y0107869D01*
X0166228Y0107623D01*
X0166307Y0107375D01*
X0166379Y0107125D01*
X0166446Y0106874D01*
X0166506Y0106621D01*
X0166559Y0106367D01*
X0166607Y0106111D01*
X0166648Y0105854D01*
X0166683Y0105597D01*
X0166712Y0105338D01*
X0166734Y0105079D01*
X0166750Y0104820D01*
X0166760Y0104560D01*
X0166763Y0104300D01*
X0166760Y0104040D01*
X0166750Y0103780D01*
X0166734Y0103521D01*
X0166712Y0103262D01*
X0166683Y0103003D01*
X0166648Y0102746D01*
X0166607Y0102489D01*
X0166559Y0102233D01*
X0166506Y0101979D01*
X0166446Y0101726D01*
X0166379Y0101475D01*
X0166307Y0101225D01*
X0166228Y0100977D01*
X0166144Y0100731D01*
X0166053Y0100488D01*
X0165957Y0100246D01*
X0165854Y0100007D01*
X0165746Y0099771D01*
X0165632Y0099537D01*
X0165512Y0099306D01*
X0165387Y0099079D01*
X0165256Y0098854D01*
X0165120Y0098633D01*
X0164978Y0098415D01*
X0164831Y0098200D01*
X0164678Y0097990D01*
X0164521Y0097783D01*
X0164358Y0097580D01*
X0164191Y0097381D01*
X0164019Y0097186D01*
X0163842Y0096996D01*
X0163660Y0096810D01*
X0163474Y0096628D01*
X0163284Y0096451D01*
X0163089Y0096279D01*
X0162890Y0096112D01*
X0162687Y0095949D01*
X0162480Y0095792D01*
X0162270Y0095639D01*
X0162055Y0095492D01*
X0161837Y0095350D01*
X0161616Y0095214D01*
X0161391Y0095083D01*
X0161164Y0094958D01*
X0160933Y0094838D01*
X0160699Y0094724D01*
X0160463Y0094616D01*
X0160224Y0094513D01*
X0159982Y0094417D01*
X0159739Y0094326D01*
X0159493Y0094242D01*
X0159245Y0094163D01*
X0158995Y0094091D01*
X0158744Y0094024D01*
X0158491Y0093964D01*
X0158237Y0093911D01*
X0157981Y0093863D01*
X0157724Y0093822D01*
X0157467Y0093787D01*
X0157208Y0093758D01*
X0156949Y0093736D01*
X0156690Y0093720D01*
X0156430Y0093710D01*
X0156170Y0093707D01*
X0155910Y0093710D01*
X0155650Y0093720D01*
X0155391Y0093736D01*
X0155132Y0093758D01*
X0154873Y0093787D01*
X0154616Y0093822D01*
X0154359Y0093863D01*
X0154103Y0093911D01*
X0153849Y0093964D01*
X0153596Y0094024D01*
X0153345Y0094091D01*
X0153095Y0094163D01*
X0152847Y0094242D01*
X0152601Y0094326D01*
X0152358Y0094417D01*
X0152116Y0094513D01*
X0151877Y0094616D01*
X0151641Y0094724D01*
X0151407Y0094838D01*
X0151176Y0094958D01*
X0150949Y0095083D01*
X0150724Y0095214D01*
X0150503Y0095350D01*
X0150285Y0095492D01*
X0150070Y0095639D01*
X0149860Y0095792D01*
X0149653Y0095949D01*
X0149450Y0096112D01*
X0149251Y0096279D01*
X0149056Y0096451D01*
X0148866Y0096628D01*
X0148680Y0096810D01*
X0148498Y0096996D01*
X0148321Y0097186D01*
X0148149Y0097381D01*
X0147982Y0097580D01*
X0147819Y0097783D01*
X0147662Y0097990D01*
X0147509Y0098200D01*
X0147362Y0098415D01*
X0147220Y0098633D01*
X0147084Y0098854D01*
X0146953Y0099079D01*
X0146828Y0099306D01*
X0146708Y0099537D01*
X0146594Y0099771D01*
X0146486Y0100007D01*
X0146383Y0100246D01*
X0146287Y0100488D01*
X0146196Y0100731D01*
X0146112Y0100977D01*
X0146033Y0101225D01*
X0145961Y0101475D01*
X0145894Y0101726D01*
X0145834Y0101979D01*
X0145781Y0102233D01*
X0145733Y0102489D01*
X0145692Y0102746D01*
X0145657Y0103003D01*
X0145628Y0103262D01*
X0145606Y0103521D01*
X0145590Y0103780D01*
X0145580Y0104040D01*
X0145577Y0104300D01*
X0143720Y0104300D02*
X0143724Y0104606D01*
X0143735Y0104911D01*
X0143754Y0105216D01*
X0143780Y0105520D01*
X0143814Y0105824D01*
X0143855Y0106127D01*
X0143903Y0106428D01*
X0143959Y0106729D01*
X0144023Y0107028D01*
X0144093Y0107325D01*
X0144171Y0107621D01*
X0144256Y0107914D01*
X0144348Y0108205D01*
X0144448Y0108494D01*
X0144554Y0108781D01*
X0144668Y0109064D01*
X0144788Y0109345D01*
X0144915Y0109623D01*
X0145049Y0109898D01*
X0145190Y0110169D01*
X0145337Y0110437D01*
X0145491Y0110701D01*
X0145652Y0110961D01*
X0145818Y0111217D01*
X0145991Y0111469D01*
X0146170Y0111716D01*
X0146355Y0111960D01*
X0146546Y0112198D01*
X0146743Y0112432D01*
X0146945Y0112661D01*
X0147153Y0112885D01*
X0147367Y0113103D01*
X0147585Y0113317D01*
X0147809Y0113525D01*
X0148038Y0113727D01*
X0148272Y0113924D01*
X0148510Y0114115D01*
X0148754Y0114300D01*
X0149001Y0114479D01*
X0149253Y0114652D01*
X0149509Y0114818D01*
X0149769Y0114979D01*
X0150033Y0115133D01*
X0150301Y0115280D01*
X0150572Y0115421D01*
X0150847Y0115555D01*
X0151125Y0115682D01*
X0151406Y0115802D01*
X0151689Y0115916D01*
X0151976Y0116022D01*
X0152265Y0116122D01*
X0152556Y0116214D01*
X0152849Y0116299D01*
X0153145Y0116377D01*
X0153442Y0116447D01*
X0153741Y0116511D01*
X0154042Y0116567D01*
X0154343Y0116615D01*
X0154646Y0116656D01*
X0154950Y0116690D01*
X0155254Y0116716D01*
X0155559Y0116735D01*
X0155864Y0116746D01*
X0156170Y0116750D01*
X0156476Y0116746D01*
X0156781Y0116735D01*
X0157086Y0116716D01*
X0157390Y0116690D01*
X0157694Y0116656D01*
X0157997Y0116615D01*
X0158298Y0116567D01*
X0158599Y0116511D01*
X0158898Y0116447D01*
X0159195Y0116377D01*
X0159491Y0116299D01*
X0159784Y0116214D01*
X0160075Y0116122D01*
X0160364Y0116022D01*
X0160651Y0115916D01*
X0160934Y0115802D01*
X0161215Y0115682D01*
X0161493Y0115555D01*
X0161768Y0115421D01*
X0162039Y0115280D01*
X0162307Y0115133D01*
X0162571Y0114979D01*
X0162831Y0114818D01*
X0163087Y0114652D01*
X0163339Y0114479D01*
X0163586Y0114300D01*
X0163830Y0114115D01*
X0164068Y0113924D01*
X0164302Y0113727D01*
X0164531Y0113525D01*
X0164755Y0113317D01*
X0164973Y0113103D01*
X0165187Y0112885D01*
X0165395Y0112661D01*
X0165597Y0112432D01*
X0165794Y0112198D01*
X0165985Y0111960D01*
X0166170Y0111716D01*
X0166349Y0111469D01*
X0166522Y0111217D01*
X0166688Y0110961D01*
X0166849Y0110701D01*
X0167003Y0110437D01*
X0167150Y0110169D01*
X0167291Y0109898D01*
X0167425Y0109623D01*
X0167552Y0109345D01*
X0167672Y0109064D01*
X0167786Y0108781D01*
X0167892Y0108494D01*
X0167992Y0108205D01*
X0168084Y0107914D01*
X0168169Y0107621D01*
X0168247Y0107325D01*
X0168317Y0107028D01*
X0168381Y0106729D01*
X0168437Y0106428D01*
X0168485Y0106127D01*
X0168526Y0105824D01*
X0168560Y0105520D01*
X0168586Y0105216D01*
X0168605Y0104911D01*
X0168616Y0104606D01*
X0168620Y0104300D01*
X0168616Y0103994D01*
X0168605Y0103689D01*
X0168586Y0103384D01*
X0168560Y0103080D01*
X0168526Y0102776D01*
X0168485Y0102473D01*
X0168437Y0102172D01*
X0168381Y0101871D01*
X0168317Y0101572D01*
X0168247Y0101275D01*
X0168169Y0100979D01*
X0168084Y0100686D01*
X0167992Y0100395D01*
X0167892Y0100106D01*
X0167786Y0099819D01*
X0167672Y0099536D01*
X0167552Y0099255D01*
X0167425Y0098977D01*
X0167291Y0098702D01*
X0167150Y0098431D01*
X0167003Y0098163D01*
X0166849Y0097899D01*
X0166688Y0097639D01*
X0166522Y0097383D01*
X0166349Y0097131D01*
X0166170Y0096884D01*
X0165985Y0096640D01*
X0165794Y0096402D01*
X0165597Y0096168D01*
X0165395Y0095939D01*
X0165187Y0095715D01*
X0164973Y0095497D01*
X0164755Y0095283D01*
X0164531Y0095075D01*
X0164302Y0094873D01*
X0164068Y0094676D01*
X0163830Y0094485D01*
X0163586Y0094300D01*
X0163339Y0094121D01*
X0163087Y0093948D01*
X0162831Y0093782D01*
X0162571Y0093621D01*
X0162307Y0093467D01*
X0162039Y0093320D01*
X0161768Y0093179D01*
X0161493Y0093045D01*
X0161215Y0092918D01*
X0160934Y0092798D01*
X0160651Y0092684D01*
X0160364Y0092578D01*
X0160075Y0092478D01*
X0159784Y0092386D01*
X0159491Y0092301D01*
X0159195Y0092223D01*
X0158898Y0092153D01*
X0158599Y0092089D01*
X0158298Y0092033D01*
X0157997Y0091985D01*
X0157694Y0091944D01*
X0157390Y0091910D01*
X0157086Y0091884D01*
X0156781Y0091865D01*
X0156476Y0091854D01*
X0156170Y0091850D01*
X0155864Y0091854D01*
X0155559Y0091865D01*
X0155254Y0091884D01*
X0154950Y0091910D01*
X0154646Y0091944D01*
X0154343Y0091985D01*
X0154042Y0092033D01*
X0153741Y0092089D01*
X0153442Y0092153D01*
X0153145Y0092223D01*
X0152849Y0092301D01*
X0152556Y0092386D01*
X0152265Y0092478D01*
X0151976Y0092578D01*
X0151689Y0092684D01*
X0151406Y0092798D01*
X0151125Y0092918D01*
X0150847Y0093045D01*
X0150572Y0093179D01*
X0150301Y0093320D01*
X0150033Y0093467D01*
X0149769Y0093621D01*
X0149509Y0093782D01*
X0149253Y0093948D01*
X0149001Y0094121D01*
X0148754Y0094300D01*
X0148510Y0094485D01*
X0148272Y0094676D01*
X0148038Y0094873D01*
X0147809Y0095075D01*
X0147585Y0095283D01*
X0147367Y0095497D01*
X0147153Y0095715D01*
X0146945Y0095939D01*
X0146743Y0096168D01*
X0146546Y0096402D01*
X0146355Y0096640D01*
X0146170Y0096884D01*
X0145991Y0097131D01*
X0145818Y0097383D01*
X0145652Y0097639D01*
X0145491Y0097899D01*
X0145337Y0098163D01*
X0145190Y0098431D01*
X0145049Y0098702D01*
X0144915Y0098977D01*
X0144788Y0099255D01*
X0144668Y0099536D01*
X0144554Y0099819D01*
X0144448Y0100106D01*
X0144348Y0100395D01*
X0144256Y0100686D01*
X0144171Y0100979D01*
X0144093Y0101275D01*
X0144023Y0101572D01*
X0143959Y0101871D01*
X0143903Y0102172D01*
X0143855Y0102473D01*
X0143814Y0102776D01*
X0143780Y0103080D01*
X0143754Y0103384D01*
X0143735Y0103689D01*
X0143724Y0103994D01*
X0143720Y0104300D01*
D11*
X0168617Y0112850D02*
X0168617Y0115319D01*
X0168617Y0116533D02*
X0171703Y0116533D01*
X0172320Y0117150D01*
X0172320Y0118385D01*
X0171703Y0119002D01*
X0168617Y0119002D01*
X0168617Y0120216D02*
X0168617Y0122685D01*
X0169234Y0122685D01*
X0171703Y0120216D01*
X0172320Y0120216D01*
X0172320Y0122685D01*
X0172320Y0123899D02*
X0171703Y0123899D01*
X0169234Y0126368D01*
X0168617Y0126368D01*
X0168617Y0123899D01*
X0172320Y0123899D02*
X0172320Y0126368D01*
X0170469Y0114084D02*
X0170469Y0112850D01*
X0172320Y0112850D02*
X0168617Y0112850D01*
X0083403Y0021650D02*
X0082169Y0021650D01*
X0081551Y0021033D01*
X0080337Y0021650D02*
X0077868Y0021650D01*
X0076654Y0021650D02*
X0074185Y0021650D01*
X0072971Y0021650D02*
X0072971Y0019181D01*
X0071736Y0017947D01*
X0070502Y0019181D01*
X0070502Y0021650D01*
X0069288Y0021650D02*
X0069288Y0017947D01*
X0066819Y0021650D01*
X0066819Y0017947D01*
X0074185Y0017947D02*
X0076654Y0017947D01*
X0076654Y0021650D01*
X0076654Y0019798D02*
X0075419Y0019798D01*
X0072971Y0019798D02*
X0070502Y0019798D01*
X0080337Y0017947D02*
X0080337Y0021650D01*
X0083403Y0021650D02*
X0084020Y0021033D01*
X0084020Y0018564D01*
X0083403Y0017947D01*
X0082169Y0017947D01*
X0081551Y0018564D01*
D12*
X0130442Y0020658D02*
X0132607Y0020658D01*
X0132607Y0018493D01*
X0145206Y0018493D01*
X0130442Y0020658D02*
X0130442Y0052942D01*
X0132607Y0052942D01*
X0132607Y0055107D01*
X0145206Y0055107D01*
X0164103Y0055107D02*
X0172765Y0055107D01*
X0172765Y0052942D01*
X0174930Y0052942D01*
X0174930Y0020658D01*
X0172765Y0020658D01*
X0172765Y0018493D01*
X0164103Y0018493D01*
D13*
X0149670Y0036800D02*
X0149672Y0036926D01*
X0149678Y0037052D01*
X0149688Y0037178D01*
X0149702Y0037304D01*
X0149720Y0037429D01*
X0149742Y0037553D01*
X0149767Y0037677D01*
X0149797Y0037800D01*
X0149830Y0037921D01*
X0149868Y0038042D01*
X0149909Y0038161D01*
X0149954Y0038280D01*
X0150002Y0038396D01*
X0150054Y0038511D01*
X0150110Y0038624D01*
X0150170Y0038736D01*
X0150233Y0038845D01*
X0150299Y0038953D01*
X0150368Y0039058D01*
X0150441Y0039161D01*
X0150518Y0039262D01*
X0150597Y0039360D01*
X0150679Y0039456D01*
X0150765Y0039549D01*
X0150853Y0039640D01*
X0150944Y0039727D01*
X0151038Y0039812D01*
X0151134Y0039893D01*
X0151233Y0039972D01*
X0151334Y0040047D01*
X0151438Y0040119D01*
X0151544Y0040188D01*
X0151652Y0040254D01*
X0151762Y0040316D01*
X0151874Y0040374D01*
X0151987Y0040429D01*
X0152103Y0040480D01*
X0152220Y0040528D01*
X0152338Y0040572D01*
X0152458Y0040612D01*
X0152579Y0040648D01*
X0152701Y0040681D01*
X0152824Y0040710D01*
X0152948Y0040734D01*
X0153072Y0040755D01*
X0153197Y0040772D01*
X0153323Y0040785D01*
X0153449Y0040794D01*
X0153575Y0040799D01*
X0153702Y0040800D01*
X0153828Y0040797D01*
X0153954Y0040790D01*
X0154080Y0040779D01*
X0154205Y0040764D01*
X0154330Y0040745D01*
X0154454Y0040722D01*
X0154578Y0040696D01*
X0154700Y0040665D01*
X0154822Y0040631D01*
X0154942Y0040592D01*
X0155061Y0040550D01*
X0155179Y0040505D01*
X0155295Y0040455D01*
X0155410Y0040402D01*
X0155522Y0040345D01*
X0155633Y0040285D01*
X0155742Y0040221D01*
X0155849Y0040154D01*
X0155954Y0040084D01*
X0156057Y0040010D01*
X0156157Y0039933D01*
X0156255Y0039853D01*
X0156350Y0039770D01*
X0156442Y0039684D01*
X0156532Y0039595D01*
X0156619Y0039503D01*
X0156702Y0039409D01*
X0156783Y0039312D01*
X0156861Y0039212D01*
X0156936Y0039110D01*
X0157007Y0039006D01*
X0157075Y0038899D01*
X0157139Y0038791D01*
X0157200Y0038680D01*
X0157258Y0038568D01*
X0157312Y0038454D01*
X0157362Y0038338D01*
X0157409Y0038221D01*
X0157452Y0038102D01*
X0157491Y0037982D01*
X0157527Y0037861D01*
X0157558Y0037738D01*
X0157586Y0037615D01*
X0157610Y0037491D01*
X0157630Y0037366D01*
X0157646Y0037241D01*
X0157658Y0037115D01*
X0157666Y0036989D01*
X0157670Y0036863D01*
X0157670Y0036737D01*
X0157666Y0036611D01*
X0157658Y0036485D01*
X0157646Y0036359D01*
X0157630Y0036234D01*
X0157610Y0036109D01*
X0157586Y0035985D01*
X0157558Y0035862D01*
X0157527Y0035739D01*
X0157491Y0035618D01*
X0157452Y0035498D01*
X0157409Y0035379D01*
X0157362Y0035262D01*
X0157312Y0035146D01*
X0157258Y0035032D01*
X0157200Y0034920D01*
X0157139Y0034809D01*
X0157075Y0034701D01*
X0157007Y0034594D01*
X0156936Y0034490D01*
X0156861Y0034388D01*
X0156783Y0034288D01*
X0156702Y0034191D01*
X0156619Y0034097D01*
X0156532Y0034005D01*
X0156442Y0033916D01*
X0156350Y0033830D01*
X0156255Y0033747D01*
X0156157Y0033667D01*
X0156057Y0033590D01*
X0155954Y0033516D01*
X0155849Y0033446D01*
X0155742Y0033379D01*
X0155633Y0033315D01*
X0155522Y0033255D01*
X0155410Y0033198D01*
X0155295Y0033145D01*
X0155179Y0033095D01*
X0155061Y0033050D01*
X0154942Y0033008D01*
X0154822Y0032969D01*
X0154700Y0032935D01*
X0154578Y0032904D01*
X0154454Y0032878D01*
X0154330Y0032855D01*
X0154205Y0032836D01*
X0154080Y0032821D01*
X0153954Y0032810D01*
X0153828Y0032803D01*
X0153702Y0032800D01*
X0153575Y0032801D01*
X0153449Y0032806D01*
X0153323Y0032815D01*
X0153197Y0032828D01*
X0153072Y0032845D01*
X0152948Y0032866D01*
X0152824Y0032890D01*
X0152701Y0032919D01*
X0152579Y0032952D01*
X0152458Y0032988D01*
X0152338Y0033028D01*
X0152220Y0033072D01*
X0152103Y0033120D01*
X0151987Y0033171D01*
X0151874Y0033226D01*
X0151762Y0033284D01*
X0151652Y0033346D01*
X0151544Y0033412D01*
X0151438Y0033481D01*
X0151334Y0033553D01*
X0151233Y0033628D01*
X0151134Y0033707D01*
X0151038Y0033788D01*
X0150944Y0033873D01*
X0150853Y0033960D01*
X0150765Y0034051D01*
X0150679Y0034144D01*
X0150597Y0034240D01*
X0150518Y0034338D01*
X0150441Y0034439D01*
X0150368Y0034542D01*
X0150299Y0034647D01*
X0150233Y0034755D01*
X0150170Y0034864D01*
X0150110Y0034976D01*
X0150054Y0035089D01*
X0150002Y0035204D01*
X0149954Y0035320D01*
X0149909Y0035439D01*
X0149868Y0035558D01*
X0149830Y0035679D01*
X0149797Y0035800D01*
X0149767Y0035923D01*
X0149742Y0036047D01*
X0149720Y0036171D01*
X0149702Y0036296D01*
X0149688Y0036422D01*
X0149678Y0036548D01*
X0149672Y0036674D01*
X0149670Y0036800D01*
X0148170Y0036800D02*
X0148172Y0036948D01*
X0148178Y0037096D01*
X0148188Y0037244D01*
X0148202Y0037392D01*
X0148220Y0037539D01*
X0148242Y0037686D01*
X0148268Y0037832D01*
X0148297Y0037977D01*
X0148331Y0038122D01*
X0148369Y0038265D01*
X0148410Y0038408D01*
X0148455Y0038549D01*
X0148505Y0038689D01*
X0148557Y0038827D01*
X0148614Y0038965D01*
X0148674Y0039100D01*
X0148738Y0039234D01*
X0148805Y0039366D01*
X0148876Y0039496D01*
X0148951Y0039625D01*
X0149029Y0039751D01*
X0149110Y0039875D01*
X0149194Y0039997D01*
X0149282Y0040116D01*
X0149373Y0040233D01*
X0149467Y0040348D01*
X0149565Y0040460D01*
X0149665Y0040569D01*
X0149768Y0040676D01*
X0149874Y0040780D01*
X0149982Y0040881D01*
X0150094Y0040979D01*
X0150208Y0041074D01*
X0150324Y0041165D01*
X0150443Y0041254D01*
X0150564Y0041339D01*
X0150688Y0041421D01*
X0150814Y0041500D01*
X0150941Y0041575D01*
X0151071Y0041647D01*
X0151203Y0041716D01*
X0151336Y0041780D01*
X0151471Y0041841D01*
X0151608Y0041899D01*
X0151746Y0041953D01*
X0151886Y0042003D01*
X0152027Y0042049D01*
X0152169Y0042091D01*
X0152312Y0042130D01*
X0152456Y0042164D01*
X0152602Y0042195D01*
X0152747Y0042222D01*
X0152894Y0042245D01*
X0153041Y0042264D01*
X0153189Y0042279D01*
X0153336Y0042290D01*
X0153485Y0042297D01*
X0153633Y0042300D01*
X0153781Y0042299D01*
X0153929Y0042294D01*
X0154077Y0042285D01*
X0154225Y0042272D01*
X0154373Y0042255D01*
X0154519Y0042234D01*
X0154666Y0042209D01*
X0154811Y0042180D01*
X0154956Y0042148D01*
X0155099Y0042111D01*
X0155242Y0042071D01*
X0155384Y0042026D01*
X0155524Y0041978D01*
X0155663Y0041926D01*
X0155800Y0041871D01*
X0155936Y0041811D01*
X0156071Y0041748D01*
X0156203Y0041682D01*
X0156334Y0041612D01*
X0156463Y0041538D01*
X0156589Y0041461D01*
X0156714Y0041381D01*
X0156836Y0041297D01*
X0156957Y0041210D01*
X0157074Y0041120D01*
X0157190Y0041026D01*
X0157302Y0040930D01*
X0157412Y0040831D01*
X0157520Y0040728D01*
X0157624Y0040623D01*
X0157726Y0040515D01*
X0157824Y0040404D01*
X0157920Y0040291D01*
X0158013Y0040175D01*
X0158102Y0040057D01*
X0158188Y0039936D01*
X0158271Y0039813D01*
X0158351Y0039688D01*
X0158427Y0039561D01*
X0158500Y0039431D01*
X0158569Y0039300D01*
X0158634Y0039167D01*
X0158697Y0039033D01*
X0158755Y0038896D01*
X0158810Y0038758D01*
X0158860Y0038619D01*
X0158908Y0038478D01*
X0158951Y0038337D01*
X0158991Y0038194D01*
X0159026Y0038050D01*
X0159058Y0037905D01*
X0159086Y0037759D01*
X0159110Y0037613D01*
X0159130Y0037466D01*
X0159146Y0037318D01*
X0159158Y0037171D01*
X0159166Y0037022D01*
X0159170Y0036874D01*
X0159170Y0036726D01*
X0159166Y0036578D01*
X0159158Y0036429D01*
X0159146Y0036282D01*
X0159130Y0036134D01*
X0159110Y0035987D01*
X0159086Y0035841D01*
X0159058Y0035695D01*
X0159026Y0035550D01*
X0158991Y0035406D01*
X0158951Y0035263D01*
X0158908Y0035122D01*
X0158860Y0034981D01*
X0158810Y0034842D01*
X0158755Y0034704D01*
X0158697Y0034567D01*
X0158634Y0034433D01*
X0158569Y0034300D01*
X0158500Y0034169D01*
X0158427Y0034039D01*
X0158351Y0033912D01*
X0158271Y0033787D01*
X0158188Y0033664D01*
X0158102Y0033543D01*
X0158013Y0033425D01*
X0157920Y0033309D01*
X0157824Y0033196D01*
X0157726Y0033085D01*
X0157624Y0032977D01*
X0157520Y0032872D01*
X0157412Y0032769D01*
X0157302Y0032670D01*
X0157190Y0032574D01*
X0157074Y0032480D01*
X0156957Y0032390D01*
X0156836Y0032303D01*
X0156714Y0032219D01*
X0156589Y0032139D01*
X0156463Y0032062D01*
X0156334Y0031988D01*
X0156203Y0031918D01*
X0156071Y0031852D01*
X0155936Y0031789D01*
X0155800Y0031729D01*
X0155663Y0031674D01*
X0155524Y0031622D01*
X0155384Y0031574D01*
X0155242Y0031529D01*
X0155099Y0031489D01*
X0154956Y0031452D01*
X0154811Y0031420D01*
X0154666Y0031391D01*
X0154519Y0031366D01*
X0154373Y0031345D01*
X0154225Y0031328D01*
X0154077Y0031315D01*
X0153929Y0031306D01*
X0153781Y0031301D01*
X0153633Y0031300D01*
X0153485Y0031303D01*
X0153336Y0031310D01*
X0153189Y0031321D01*
X0153041Y0031336D01*
X0152894Y0031355D01*
X0152747Y0031378D01*
X0152602Y0031405D01*
X0152456Y0031436D01*
X0152312Y0031470D01*
X0152169Y0031509D01*
X0152027Y0031551D01*
X0151886Y0031597D01*
X0151746Y0031647D01*
X0151608Y0031701D01*
X0151471Y0031759D01*
X0151336Y0031820D01*
X0151203Y0031884D01*
X0151071Y0031953D01*
X0150941Y0032025D01*
X0150814Y0032100D01*
X0150688Y0032179D01*
X0150564Y0032261D01*
X0150443Y0032346D01*
X0150324Y0032435D01*
X0150208Y0032526D01*
X0150094Y0032621D01*
X0149982Y0032719D01*
X0149874Y0032820D01*
X0149768Y0032924D01*
X0149665Y0033031D01*
X0149565Y0033140D01*
X0149467Y0033252D01*
X0149373Y0033367D01*
X0149282Y0033484D01*
X0149194Y0033603D01*
X0149110Y0033725D01*
X0149029Y0033849D01*
X0148951Y0033975D01*
X0148876Y0034104D01*
X0148805Y0034234D01*
X0148738Y0034366D01*
X0148674Y0034500D01*
X0148614Y0034635D01*
X0148557Y0034773D01*
X0148505Y0034911D01*
X0148455Y0035051D01*
X0148410Y0035192D01*
X0148369Y0035335D01*
X0148331Y0035478D01*
X0148297Y0035623D01*
X0148268Y0035768D01*
X0148242Y0035914D01*
X0148220Y0036061D01*
X0148202Y0036208D01*
X0148188Y0036356D01*
X0148178Y0036504D01*
X0148172Y0036652D01*
X0148170Y0036800D01*
D14*
X0138069Y0034682D02*
X0136534Y0032380D01*
X0134999Y0034682D01*
X0133465Y0032380D02*
X0138069Y0032380D01*
X0137301Y0030845D02*
X0134232Y0030845D01*
X0137301Y0027776D01*
X0138069Y0028543D01*
X0138069Y0030078D01*
X0137301Y0030845D01*
X0134232Y0030845D02*
X0133465Y0030078D01*
X0133465Y0028543D01*
X0134232Y0027776D01*
X0137301Y0027776D01*
X0137301Y0026241D02*
X0138069Y0025474D01*
X0138069Y0023939D01*
X0137301Y0023172D01*
X0135767Y0023172D02*
X0134999Y0024707D01*
X0134999Y0025474D01*
X0135767Y0026241D01*
X0137301Y0026241D01*
X0133465Y0026241D02*
X0133465Y0023172D01*
X0135767Y0023172D01*
X0168488Y0033697D02*
X0169256Y0032930D01*
X0172325Y0032930D01*
X0173092Y0033697D01*
X0173092Y0035232D01*
X0172325Y0035999D01*
X0170790Y0035999D01*
X0170790Y0034465D01*
X0169256Y0035999D02*
X0168488Y0035232D01*
X0168488Y0033697D01*
X0170023Y0037534D02*
X0168488Y0039068D01*
X0170023Y0040603D01*
X0173092Y0040603D01*
X0173092Y0042138D02*
X0173092Y0043672D01*
X0173092Y0042905D02*
X0168488Y0042905D01*
X0168488Y0042138D02*
X0168488Y0043672D01*
X0168488Y0045207D02*
X0173092Y0048276D01*
X0168488Y0048276D01*
X0168488Y0045207D02*
X0173092Y0045207D01*
X0170790Y0040603D02*
X0170790Y0037534D01*
X0170023Y0037534D02*
X0173092Y0037534D01*
M02*
