%MOIN*%
%FSLAX54Y54*%
%ADD10C,0.0020*%
%ADD11C,0.0320*%
%ADD12C,0.2762*%
%ADD13C,0.3195*%
%ADD14C,0.4180*%
%ADD15R,0.3973X0.3266*%
%ADD16R,0.1608X0.3510*%
%ADD17R,0.2368X0.4359*%
%ADD18R,0.2739X0.3081*%
%ADD19R,0.1234X0.1218*%
G75*
D10*
X8948Y1195D02*
X9820Y1195D01*
X9820Y1348D01*
X9231Y1348D01*
X9525Y1529D01*
X9820Y1710D01*
X9820Y1865D01*
X8948Y1865D01*
X8948Y1711D01*
X9545Y1711D01*
X9247Y1526D01*
X8948Y1341D01*
X8948Y1195D01*
X9820Y1197D01*
X9820Y1217D02*
X8948Y1217D01*
X8948Y1236D02*
X9820Y1236D01*
X9820Y1256D02*
X8948Y1256D01*
X8948Y1276D02*
X9820Y1276D01*
X9820Y1296D02*
X8948Y1296D01*
X8948Y1316D02*
X9820Y1316D01*
X9820Y1336D02*
X8948Y1336D01*
X8971Y1355D02*
X9243Y1355D01*
X9275Y1375D02*
X9003Y1375D01*
X9035Y1395D02*
X9308Y1395D01*
X9340Y1415D02*
X9067Y1415D01*
X9099Y1435D02*
X9372Y1435D01*
X9405Y1455D02*
X9131Y1455D01*
X9163Y1475D02*
X9437Y1475D01*
X9469Y1494D02*
X9195Y1494D01*
X9228Y1514D02*
X9502Y1514D01*
X9534Y1534D02*
X9260Y1534D01*
X9292Y1554D02*
X9566Y1554D01*
X9598Y1574D02*
X9324Y1574D01*
X9356Y1594D02*
X9631Y1594D01*
X9663Y1614D02*
X9388Y1614D01*
X9420Y1633D02*
X9695Y1633D01*
X9728Y1653D02*
X9452Y1653D01*
X9484Y1673D02*
X9760Y1673D01*
X9792Y1693D02*
X9516Y1693D01*
X9820Y1713D02*
X8948Y1713D01*
X8948Y1733D02*
X9820Y1733D01*
X9820Y1753D02*
X8948Y1753D01*
X8948Y1772D02*
X9820Y1772D01*
X9820Y1792D02*
X8948Y1792D01*
X8948Y1812D02*
X9820Y1812D01*
X9820Y1832D02*
X8948Y1832D01*
X8948Y1852D02*
X9820Y1852D01*
X9820Y2187D02*
X9529Y2090D01*
X9239Y1993D01*
X8948Y1896D01*
X8948Y2072D01*
X9121Y2125D01*
X9121Y2293D01*
X9265Y2293D01*
X9265Y2167D01*
X9463Y2225D01*
X9661Y2283D01*
X9629Y2293D01*
X9821Y2293D01*
X9821Y2293D01*
X9629Y2293D01*
X9463Y2342D01*
X9265Y2400D01*
X9265Y2293D01*
X9121Y2293D01*
X9121Y2442D01*
X8948Y2492D01*
X8948Y2663D01*
X9239Y2567D01*
X9530Y2470D01*
X9821Y2374D01*
X9821Y2293D01*
X9820Y2293D01*
X9820Y2187D01*
X9342Y2189D01*
X9409Y2209D02*
X9820Y2209D01*
X9820Y2229D02*
X9476Y2229D01*
X9544Y2249D02*
X9820Y2249D01*
X9820Y2269D02*
X9611Y2269D01*
X9644Y2288D02*
X9820Y2288D01*
X9821Y2308D02*
X9578Y2308D01*
X9511Y2328D02*
X9821Y2328D01*
X9821Y2348D02*
X9443Y2348D01*
X9375Y2368D02*
X9821Y2368D01*
X9778Y2388D02*
X9307Y2388D01*
X9265Y2388D02*
X9121Y2388D01*
X9121Y2408D02*
X9718Y2408D01*
X9659Y2428D02*
X9121Y2428D01*
X9103Y2447D02*
X9599Y2447D01*
X9539Y2467D02*
X9034Y2467D01*
X8965Y2487D02*
X9479Y2487D01*
X9419Y2507D02*
X8948Y2507D01*
X8948Y2527D02*
X9359Y2527D01*
X9299Y2547D02*
X8948Y2547D01*
X8948Y2566D02*
X9239Y2566D01*
X9180Y2586D02*
X8948Y2586D01*
X8948Y2606D02*
X9120Y2606D01*
X9060Y2626D02*
X8948Y2626D01*
X8948Y2646D02*
X9000Y2646D01*
X8948Y2687D02*
X8948Y3342D01*
X9820Y3342D01*
X9820Y2722D01*
X9676Y2722D01*
X9677Y2722D01*
X9677Y3181D01*
X9469Y3181D01*
X9469Y2759D01*
X9329Y2759D01*
X9329Y3181D01*
X9092Y3181D01*
X9092Y2687D01*
X8948Y2687D01*
X8948Y2705D02*
X9092Y2705D01*
X9092Y2725D02*
X8948Y2725D01*
X8948Y2745D02*
X9092Y2745D01*
X9092Y2765D02*
X8948Y2765D01*
X8948Y2785D02*
X9092Y2785D01*
X9092Y2805D02*
X8948Y2805D01*
X8948Y2824D02*
X9092Y2824D01*
X9092Y2844D02*
X8948Y2844D01*
X8948Y2864D02*
X9092Y2864D01*
X9092Y2884D02*
X8948Y2884D01*
X8948Y2904D02*
X9092Y2904D01*
X9092Y2924D02*
X8948Y2924D01*
X8948Y2944D02*
X9092Y2944D01*
X9092Y2964D02*
X8948Y2964D01*
X8948Y2983D02*
X9092Y2983D01*
X9092Y3003D02*
X8948Y3003D01*
X8948Y3023D02*
X9092Y3023D01*
X9092Y3043D02*
X8948Y3043D01*
X8948Y3063D02*
X9092Y3063D01*
X9092Y3083D02*
X8948Y3083D01*
X8948Y3102D02*
X9092Y3102D01*
X9092Y3122D02*
X8948Y3122D01*
X8948Y3142D02*
X9092Y3142D01*
X9092Y3162D02*
X8948Y3162D01*
X8948Y3182D02*
X9820Y3182D01*
X9820Y3162D02*
X9677Y3162D01*
X9677Y3142D02*
X9820Y3142D01*
X9820Y3122D02*
X9677Y3122D01*
X9677Y3102D02*
X9820Y3102D01*
X9820Y3083D02*
X9677Y3083D01*
X9677Y3063D02*
X9820Y3063D01*
X9820Y3043D02*
X9677Y3043D01*
X9677Y3023D02*
X9820Y3023D01*
X9820Y3003D02*
X9677Y3003D01*
X9677Y2983D02*
X9820Y2983D01*
X9820Y2964D02*
X9677Y2964D01*
X9677Y2944D02*
X9820Y2944D01*
X9820Y2924D02*
X9677Y2924D01*
X9677Y2904D02*
X9820Y2904D01*
X9820Y2884D02*
X9677Y2884D01*
X9677Y2864D02*
X9820Y2864D01*
X9820Y2844D02*
X9677Y2844D01*
X9677Y2824D02*
X9820Y2824D01*
X9820Y2805D02*
X9677Y2805D01*
X9677Y2785D02*
X9820Y2785D01*
X9820Y2765D02*
X9677Y2765D01*
X9677Y2745D02*
X9820Y2745D01*
X9820Y2725D02*
X9677Y2725D01*
X9469Y2765D02*
X9329Y2765D01*
X9329Y2785D02*
X9469Y2785D01*
X9469Y2805D02*
X9329Y2805D01*
X9329Y2824D02*
X9469Y2824D01*
X9469Y2844D02*
X9329Y2844D01*
X9329Y2864D02*
X9469Y2864D01*
X9469Y2884D02*
X9329Y2884D01*
X9329Y2904D02*
X9469Y2904D01*
X9469Y2924D02*
X9329Y2924D01*
X9329Y2944D02*
X9469Y2944D01*
X9469Y2964D02*
X9329Y2964D01*
X9329Y2983D02*
X9469Y2983D01*
X9469Y3003D02*
X9329Y3003D01*
X9329Y3023D02*
X9469Y3023D01*
X9469Y3043D02*
X9329Y3043D01*
X9329Y3063D02*
X9469Y3063D01*
X9469Y3083D02*
X9329Y3083D01*
X9329Y3102D02*
X9469Y3102D01*
X9469Y3122D02*
X9329Y3122D01*
X9329Y3142D02*
X9469Y3142D01*
X9469Y3162D02*
X9329Y3162D01*
X9092Y3401D02*
X8948Y3401D01*
X8948Y3922D01*
X9820Y3922D01*
X9820Y3761D01*
X9091Y3761D01*
X9092Y3761D01*
X9092Y3401D01*
X9092Y3420D02*
X8948Y3420D01*
X8948Y3440D02*
X9092Y3440D01*
X9092Y3460D02*
X8948Y3460D01*
X8948Y3480D02*
X9092Y3480D01*
X9092Y3499D02*
X8948Y3499D01*
X8948Y3519D02*
X9092Y3519D01*
X9092Y3539D02*
X8948Y3539D01*
X8948Y3559D02*
X9092Y3559D01*
X9092Y3579D02*
X8948Y3579D01*
X8948Y3599D02*
X9092Y3599D01*
X9092Y3619D02*
X8948Y3619D01*
X8948Y3638D02*
X9092Y3638D01*
X9092Y3658D02*
X8948Y3658D01*
X8948Y3678D02*
X9092Y3678D01*
X9092Y3698D02*
X8948Y3698D01*
X8948Y3718D02*
X9092Y3718D01*
X9092Y3738D02*
X8948Y3738D01*
X8948Y3758D02*
X9092Y3758D01*
X8948Y3777D02*
X9820Y3777D01*
X9820Y3797D02*
X8948Y3797D01*
X8948Y3817D02*
X9820Y3817D01*
X9820Y3837D02*
X8948Y3837D01*
X8948Y3857D02*
X9820Y3857D01*
X9820Y3877D02*
X8948Y3877D01*
X8948Y3897D02*
X9820Y3897D01*
X9820Y3916D02*
X8948Y3916D01*
X9075Y4035D02*
X9216Y4035D01*
X9207Y4016D02*
X9110Y4016D01*
X9075Y4035D02*
X8993Y4113D01*
X8939Y4216D01*
X8922Y4341D01*
X8958Y4517D01*
X9059Y4651D01*
X9203Y4729D01*
X9386Y4757D01*
X9566Y4729D01*
X9709Y4651D01*
X9811Y4519D01*
X9847Y4347D01*
X9829Y4220D01*
X9776Y4117D01*
X9690Y4041D01*
X9572Y3988D01*
X9532Y4147D01*
X9531Y4147D01*
X9655Y4215D01*
X9693Y4342D01*
X9668Y4448D01*
X9597Y4527D01*
X9506Y4569D01*
X9391Y4583D01*
X9272Y4568D01*
X9177Y4526D01*
X9101Y4445D01*
X9075Y4337D01*
X9117Y4208D01*
X9253Y4123D01*
X9189Y3972D01*
X9075Y4035D01*
X9054Y4055D02*
X9224Y4055D01*
X9232Y4075D02*
X9033Y4075D01*
X9012Y4095D02*
X9241Y4095D01*
X9249Y4115D02*
X8992Y4115D01*
X8982Y4135D02*
X9235Y4135D01*
X9203Y4154D02*
X8972Y4154D01*
X8961Y4174D02*
X9171Y4174D01*
X9139Y4194D02*
X8951Y4194D01*
X8940Y4214D02*
X9115Y4214D01*
X9109Y4234D02*
X8937Y4234D01*
X8934Y4254D02*
X9102Y4254D01*
X9096Y4274D02*
X8931Y4274D01*
X8929Y4294D02*
X9089Y4294D01*
X9082Y4313D02*
X8926Y4313D01*
X8923Y4333D02*
X9076Y4333D01*
X9079Y4353D02*
X8924Y4353D01*
X8928Y4373D02*
X9083Y4373D01*
X9088Y4393D02*
X8932Y4393D01*
X8936Y4413D02*
X9093Y4413D01*
X9098Y4432D02*
X8940Y4432D01*
X8945Y4452D02*
X9108Y4452D01*
X9126Y4472D02*
X8949Y4472D01*
X8953Y4492D02*
X9145Y4492D01*
X9164Y4512D02*
X8957Y4512D01*
X8969Y4532D02*
X9189Y4532D01*
X9235Y4552D02*
X8984Y4552D01*
X8999Y4571D02*
X9298Y4571D01*
X9211Y4730D02*
X9558Y4730D01*
X9600Y4710D02*
X9168Y4710D01*
X9132Y4690D02*
X9637Y4690D01*
X9673Y4671D02*
X9095Y4671D01*
X9059Y4651D02*
X9709Y4651D01*
X9724Y4631D02*
X9044Y4631D01*
X9029Y4611D02*
X9740Y4611D01*
X9755Y4591D02*
X9014Y4591D01*
X9343Y4750D02*
X9429Y4750D01*
X9484Y4571D02*
X9770Y4571D01*
X9786Y4552D02*
X9544Y4552D01*
X9587Y4532D02*
X9801Y4532D01*
X9812Y4512D02*
X9611Y4512D01*
X9629Y4492D02*
X9816Y4492D01*
X9821Y4472D02*
X9647Y4472D01*
X9664Y4452D02*
X9825Y4452D01*
X9829Y4432D02*
X9672Y4432D01*
X9677Y4413D02*
X9833Y4413D01*
X9837Y4393D02*
X9681Y4393D01*
X9686Y4373D02*
X9842Y4373D01*
X9846Y4353D02*
X9691Y4353D01*
X9691Y4333D02*
X9845Y4333D01*
X9842Y4313D02*
X9685Y4313D01*
X9679Y4294D02*
X9839Y4294D01*
X9837Y4274D02*
X9672Y4274D01*
X9666Y4254D02*
X9834Y4254D01*
X9831Y4234D02*
X9660Y4234D01*
X9652Y4214D02*
X9826Y4214D01*
X9816Y4194D02*
X9616Y4194D01*
X9580Y4174D02*
X9805Y4174D01*
X9795Y4154D02*
X9544Y4154D01*
X9535Y4135D02*
X9785Y4135D01*
X9773Y4115D02*
X9540Y4115D01*
X9545Y4095D02*
X9751Y4095D01*
X9728Y4075D02*
X9550Y4075D01*
X9555Y4055D02*
X9706Y4055D01*
X9678Y4035D02*
X9560Y4035D01*
X9565Y4016D02*
X9633Y4016D01*
X9589Y3996D02*
X9570Y3996D01*
X9199Y3996D02*
X9146Y3996D01*
X9181Y3976D02*
X9190Y3976D01*
X8948Y3341D02*
X9820Y3341D01*
X9820Y3321D02*
X8948Y3321D01*
X8948Y3301D02*
X9820Y3301D01*
X9820Y3281D02*
X8948Y3281D01*
X8948Y3261D02*
X9820Y3261D01*
X9820Y3241D02*
X8948Y3241D01*
X8948Y3221D02*
X9820Y3221D01*
X9820Y3202D02*
X8948Y3202D01*
X9121Y2368D02*
X9265Y2368D01*
X9265Y2348D02*
X9121Y2348D01*
X9121Y2328D02*
X9265Y2328D01*
X9265Y2308D02*
X9121Y2308D01*
X9121Y2288D02*
X9265Y2288D01*
X9265Y2269D02*
X9121Y2269D01*
X9121Y2249D02*
X9265Y2249D01*
X9265Y2229D02*
X9121Y2229D01*
X9121Y2209D02*
X9265Y2209D01*
X9265Y2189D02*
X9121Y2189D01*
X9121Y2169D02*
X9265Y2169D01*
X9274Y2169D02*
X9766Y2169D01*
X9707Y2150D02*
X9121Y2150D01*
X9121Y2130D02*
X9648Y2130D01*
X9588Y2110D02*
X9072Y2110D01*
X9007Y2090D02*
X9529Y2090D01*
X9469Y2070D02*
X8948Y2070D01*
X8948Y2050D02*
X9410Y2050D01*
X9351Y2031D02*
X8948Y2031D01*
X8948Y2011D02*
X9291Y2011D01*
X9232Y1991D02*
X8948Y1991D01*
X8948Y1971D02*
X9172Y1971D01*
X9113Y1951D02*
X8948Y1951D01*
X8948Y1931D02*
X9054Y1931D01*
X8994Y1911D02*
X8948Y1911D01*
X4395Y5243D02*
X4203Y5408D01*
X4011Y5573D01*
X3701Y5394D01*
X3391Y5216D01*
X3391Y5431D01*
X3863Y5697D01*
X3677Y5858D01*
X3391Y5858D01*
X3391Y6043D01*
X4394Y6043D01*
X4394Y5858D01*
X3921Y5858D01*
X3921Y5858D01*
X4395Y5460D01*
X4395Y5243D01*
X4391Y5246D01*
X4395Y5266D02*
X4368Y5266D01*
X4344Y5286D02*
X4395Y5286D01*
X4395Y5306D02*
X4321Y5306D01*
X4298Y5326D02*
X4395Y5326D01*
X4395Y5346D02*
X4275Y5346D01*
X4252Y5365D02*
X4395Y5365D01*
X4395Y5385D02*
X4229Y5385D01*
X4206Y5405D02*
X4395Y5405D01*
X4395Y5425D02*
X4183Y5425D01*
X4159Y5445D02*
X4395Y5445D01*
X4389Y5465D02*
X4136Y5465D01*
X4113Y5485D02*
X4365Y5485D01*
X4342Y5504D02*
X4090Y5504D01*
X4067Y5524D02*
X4318Y5524D01*
X4294Y5544D02*
X4044Y5544D01*
X4021Y5564D02*
X4271Y5564D01*
X4247Y5584D02*
X3662Y5584D01*
X3627Y5564D02*
X3996Y5564D01*
X3961Y5544D02*
X3591Y5544D01*
X3556Y5524D02*
X3927Y5524D01*
X3892Y5504D02*
X3521Y5504D01*
X3486Y5485D02*
X3858Y5485D01*
X3823Y5465D02*
X3450Y5465D01*
X3415Y5445D02*
X3789Y5445D01*
X3754Y5425D02*
X3391Y5425D01*
X3391Y5405D02*
X3720Y5405D01*
X3685Y5385D02*
X3391Y5385D01*
X3391Y5365D02*
X3651Y5365D01*
X3616Y5346D02*
X3391Y5346D01*
X3391Y5326D02*
X3582Y5326D01*
X3547Y5306D02*
X3391Y5306D01*
X3391Y5286D02*
X3513Y5286D01*
X3478Y5266D02*
X3391Y5266D01*
X3391Y5246D02*
X3444Y5246D01*
X3409Y5226D02*
X3391Y5226D01*
X3098Y5424D02*
X2970Y5315D01*
X2819Y5252D01*
X2639Y5231D01*
X2387Y5284D01*
X2181Y5438D01*
X2065Y5650D01*
X2037Y5891D01*
X2037Y6155D01*
X2328Y6155D01*
X2328Y6240D01*
X2955Y6240D01*
X2955Y6155D01*
X3247Y6155D01*
X3247Y6155D01*
X3247Y6575D01*
X1429Y6575D01*
X1429Y6240D01*
X2037Y6240D01*
X2037Y6155D01*
X2328Y6155D01*
X2328Y5973D01*
X2346Y5810D01*
X2399Y5693D01*
X2505Y5612D01*
X2661Y5585D01*
X2801Y5611D01*
X2895Y5687D01*
X2940Y5795D01*
X2955Y5943D01*
X2955Y6155D01*
X3247Y6155D01*
X3248Y6155D01*
X3248Y5912D01*
X3233Y5731D01*
X3188Y5575D01*
X3098Y5424D01*
X2199Y5425D01*
X2178Y5445D02*
X3110Y5445D01*
X3122Y5465D02*
X2167Y5465D01*
X2156Y5485D02*
X3134Y5485D01*
X3146Y5504D02*
X2145Y5504D01*
X2134Y5524D02*
X3158Y5524D01*
X3170Y5544D02*
X2123Y5544D01*
X2112Y5564D02*
X3181Y5564D01*
X3190Y5584D02*
X2101Y5584D01*
X2090Y5604D02*
X2553Y5604D01*
X2490Y5624D02*
X2079Y5624D01*
X2068Y5643D02*
X2464Y5643D01*
X2438Y5663D02*
X2063Y5663D01*
X2061Y5683D02*
X2412Y5683D01*
X2395Y5703D02*
X2059Y5703D01*
X2056Y5723D02*
X2386Y5723D01*
X2377Y5743D02*
X2054Y5743D01*
X2052Y5763D02*
X2367Y5763D01*
X2358Y5782D02*
X2049Y5782D01*
X2047Y5802D02*
X2350Y5802D01*
X2344Y5822D02*
X2045Y5822D01*
X2042Y5842D02*
X2342Y5842D01*
X2340Y5862D02*
X2040Y5862D01*
X2038Y5882D02*
X2338Y5882D01*
X2336Y5901D02*
X2037Y5901D01*
X2037Y5921D02*
X2334Y5921D01*
X2332Y5941D02*
X2037Y5941D01*
X2037Y5961D02*
X2329Y5961D01*
X2328Y5981D02*
X2037Y5981D01*
X2037Y6001D02*
X2328Y6001D01*
X2328Y6020D02*
X2037Y6020D01*
X2037Y6040D02*
X2328Y6040D01*
X2328Y6060D02*
X2037Y6060D01*
X2037Y6080D02*
X2328Y6080D01*
X2328Y6100D02*
X2037Y6100D01*
X2037Y6120D02*
X2328Y6120D01*
X2328Y6140D02*
X2037Y6140D01*
X2037Y6160D02*
X2328Y6160D01*
X2328Y6179D02*
X2037Y6179D01*
X2037Y6199D02*
X2328Y6199D01*
X2328Y6219D02*
X2037Y6219D01*
X2037Y6239D02*
X2328Y6239D01*
X2955Y6239D02*
X3247Y6239D01*
X3247Y6219D02*
X2955Y6219D01*
X2955Y6199D02*
X3247Y6199D01*
X3247Y6179D02*
X2955Y6179D01*
X2955Y6160D02*
X3247Y6160D01*
X3248Y6140D02*
X2955Y6140D01*
X2955Y6120D02*
X3248Y6120D01*
X3248Y6100D02*
X2955Y6100D01*
X2955Y6080D02*
X3248Y6080D01*
X3248Y6060D02*
X2955Y6060D01*
X2955Y6040D02*
X3248Y6040D01*
X3248Y6020D02*
X2955Y6020D01*
X2955Y6001D02*
X3248Y6001D01*
X3248Y5981D02*
X2955Y5981D01*
X2955Y5961D02*
X3248Y5961D01*
X3248Y5941D02*
X2955Y5941D01*
X2953Y5921D02*
X3248Y5921D01*
X3247Y5901D02*
X2951Y5901D01*
X2949Y5882D02*
X3245Y5882D01*
X3244Y5862D02*
X2947Y5862D01*
X2945Y5842D02*
X3242Y5842D01*
X3240Y5822D02*
X2943Y5822D01*
X2941Y5802D02*
X3239Y5802D01*
X3237Y5782D02*
X2935Y5782D01*
X2926Y5763D02*
X3235Y5763D01*
X3234Y5743D02*
X2918Y5743D01*
X2910Y5723D02*
X3230Y5723D01*
X3225Y5703D02*
X2901Y5703D01*
X2889Y5683D02*
X3219Y5683D01*
X3213Y5663D02*
X2865Y5663D01*
X2841Y5643D02*
X3208Y5643D01*
X3202Y5624D02*
X2816Y5624D01*
X2762Y5604D02*
X3196Y5604D01*
X3697Y5604D02*
X4224Y5604D01*
X4200Y5624D02*
X3732Y5624D01*
X3767Y5643D02*
X4176Y5643D01*
X4153Y5663D02*
X3803Y5663D01*
X3838Y5683D02*
X4129Y5683D01*
X4106Y5703D02*
X3857Y5703D01*
X3834Y5723D02*
X4082Y5723D01*
X4058Y5743D02*
X3811Y5743D01*
X3788Y5763D02*
X4035Y5763D01*
X4011Y5782D02*
X3765Y5782D01*
X3742Y5802D02*
X3988Y5802D01*
X3964Y5822D02*
X3719Y5822D01*
X3696Y5842D02*
X3940Y5842D01*
X4394Y5862D02*
X3391Y5862D01*
X3391Y5882D02*
X4394Y5882D01*
X4394Y5901D02*
X3391Y5901D01*
X3391Y5921D02*
X4394Y5921D01*
X4394Y5941D02*
X3391Y5941D01*
X3391Y5961D02*
X4394Y5961D01*
X4394Y5981D02*
X3391Y5981D01*
X3391Y6001D02*
X4394Y6001D01*
X4394Y6020D02*
X3391Y6020D01*
X3391Y6040D02*
X4394Y6040D01*
X4264Y6199D02*
X4089Y6199D01*
X4094Y6179D02*
X4240Y6179D01*
X4245Y6182D02*
X4109Y6121D01*
X4063Y6303D01*
X4063Y6303D01*
X4204Y6381D01*
X4249Y6527D01*
X4220Y6649D01*
X4139Y6739D01*
X4034Y6787D01*
X3902Y6803D01*
X3765Y6787D01*
X3655Y6739D01*
X3569Y6646D01*
X3538Y6521D01*
X3587Y6373D01*
X3742Y6276D01*
X3669Y6101D01*
X3538Y6174D01*
X3444Y6263D01*
X3382Y6383D01*
X3361Y6526D01*
X3379Y6664D01*
X3431Y6782D01*
X3517Y6881D01*
X3633Y6953D01*
X3895Y7005D01*
X4102Y6973D01*
X4266Y6884D01*
X4383Y6732D01*
X4425Y6534D01*
X4405Y6388D01*
X4343Y6270D01*
X4245Y6182D01*
X4195Y6160D02*
X4099Y6160D01*
X4104Y6140D02*
X4150Y6140D01*
X4084Y6219D02*
X4287Y6219D01*
X4309Y6239D02*
X4079Y6239D01*
X4074Y6259D02*
X4331Y6259D01*
X4348Y6279D02*
X4069Y6279D01*
X4064Y6299D02*
X4358Y6299D01*
X4368Y6318D02*
X4091Y6318D01*
X4127Y6338D02*
X4379Y6338D01*
X4389Y6358D02*
X4163Y6358D01*
X4199Y6378D02*
X4399Y6378D01*
X4406Y6398D02*
X4209Y6398D01*
X4215Y6418D02*
X4409Y6418D01*
X4412Y6437D02*
X4222Y6437D01*
X4228Y6457D02*
X4414Y6457D01*
X4417Y6477D02*
X4234Y6477D01*
X4240Y6497D02*
X4420Y6497D01*
X4423Y6517D02*
X4246Y6517D01*
X4247Y6537D02*
X4424Y6537D01*
X4420Y6556D02*
X4242Y6556D01*
X4237Y6576D02*
X4416Y6576D01*
X4412Y6596D02*
X4233Y6596D01*
X4228Y6616D02*
X4407Y6616D01*
X4403Y6636D02*
X4223Y6636D01*
X4214Y6656D02*
X4399Y6656D01*
X4395Y6676D02*
X4196Y6676D01*
X4178Y6695D02*
X4391Y6695D01*
X4386Y6715D02*
X4160Y6715D01*
X4142Y6735D02*
X4380Y6735D01*
X4365Y6755D02*
X4103Y6755D01*
X4060Y6775D02*
X4350Y6775D01*
X4335Y6795D02*
X3970Y6795D01*
X3831Y6795D02*
X3442Y6795D01*
X3428Y6775D02*
X3738Y6775D01*
X3693Y6755D02*
X3419Y6755D01*
X3410Y6735D02*
X3652Y6735D01*
X3634Y6715D02*
X3402Y6715D01*
X3393Y6695D02*
X3615Y6695D01*
X3597Y6676D02*
X3385Y6676D01*
X3378Y6656D02*
X3578Y6656D01*
X3566Y6636D02*
X3376Y6636D01*
X3373Y6616D02*
X3561Y6616D01*
X3556Y6596D02*
X3371Y6596D01*
X3368Y6576D02*
X3552Y6576D01*
X3547Y6556D02*
X3365Y6556D01*
X3363Y6537D02*
X3542Y6537D01*
X3539Y6517D02*
X3363Y6517D01*
X3365Y6497D02*
X3546Y6497D01*
X3552Y6477D02*
X3368Y6477D01*
X3371Y6457D02*
X3559Y6457D01*
X3566Y6437D02*
X3374Y6437D01*
X3377Y6418D02*
X3572Y6418D01*
X3579Y6398D02*
X3380Y6398D01*
X3384Y6378D02*
X3585Y6378D01*
X3611Y6358D02*
X3395Y6358D01*
X3405Y6338D02*
X3643Y6338D01*
X3674Y6318D02*
X3415Y6318D01*
X3426Y6299D02*
X3706Y6299D01*
X3738Y6279D02*
X3436Y6279D01*
X3449Y6259D02*
X3735Y6259D01*
X3727Y6239D02*
X3470Y6239D01*
X3490Y6219D02*
X3718Y6219D01*
X3710Y6199D02*
X3511Y6199D01*
X3532Y6179D02*
X3702Y6179D01*
X3693Y6160D02*
X3564Y6160D01*
X3600Y6140D02*
X3685Y6140D01*
X3676Y6120D02*
X3635Y6120D01*
X3247Y6259D02*
X1429Y6259D01*
X1429Y6279D02*
X3247Y6279D01*
X3247Y6299D02*
X1429Y6299D01*
X1429Y6318D02*
X3247Y6318D01*
X3247Y6338D02*
X1429Y6338D01*
X1429Y6358D02*
X3247Y6358D01*
X3247Y6378D02*
X1429Y6378D01*
X1429Y6398D02*
X3247Y6398D01*
X3247Y6418D02*
X1429Y6418D01*
X1429Y6437D02*
X3247Y6437D01*
X3247Y6457D02*
X1429Y6457D01*
X1429Y6477D02*
X3247Y6477D01*
X3247Y6497D02*
X1429Y6497D01*
X1429Y6517D02*
X3247Y6517D01*
X3247Y6537D02*
X1429Y6537D01*
X1429Y6556D02*
X3247Y6556D01*
X3246Y6677D02*
X3246Y7012D01*
X2178Y7012D01*
X1875Y7053D01*
X1804Y7103D01*
X1751Y7177D01*
X1706Y7386D01*
X1740Y7573D01*
X1837Y7699D01*
X1963Y7747D01*
X2178Y7761D01*
X3246Y7761D01*
X3246Y8097D01*
X2155Y8097D01*
X1883Y8083D01*
X1746Y8046D01*
X1635Y7979D01*
X1519Y7863D01*
X1435Y7714D01*
X1389Y7557D01*
X1373Y7385D01*
X1421Y7095D01*
X1485Y6960D01*
X1575Y6845D01*
X1696Y6751D01*
X1844Y6698D01*
X2155Y6677D01*
X3246Y6677D01*
X3246Y6695D02*
X1883Y6695D01*
X1796Y6715D02*
X3246Y6715D01*
X3246Y6735D02*
X1739Y6735D01*
X1690Y6755D02*
X3246Y6755D01*
X3246Y6775D02*
X1665Y6775D01*
X1640Y6795D02*
X3246Y6795D01*
X3246Y6815D02*
X1614Y6815D01*
X1589Y6834D02*
X3246Y6834D01*
X3246Y6854D02*
X1568Y6854D01*
X1553Y6874D02*
X3246Y6874D01*
X3246Y6894D02*
X1537Y6894D01*
X1521Y6914D02*
X3246Y6914D01*
X3246Y6934D02*
X1506Y6934D01*
X1490Y6954D02*
X3246Y6954D01*
X3246Y6973D02*
X1479Y6973D01*
X1469Y6993D02*
X3246Y6993D01*
X3391Y7089D02*
X4395Y7089D01*
X4395Y7275D01*
X3391Y7275D01*
X3391Y7089D01*
X4395Y7093D01*
X4395Y7112D02*
X3391Y7112D01*
X3391Y7132D02*
X4395Y7132D01*
X4395Y7152D02*
X3391Y7152D01*
X3391Y7172D02*
X4395Y7172D01*
X4395Y7192D02*
X3391Y7192D01*
X3391Y7212D02*
X4395Y7212D01*
X4395Y7231D02*
X3391Y7231D01*
X3391Y7251D02*
X4395Y7251D01*
X4395Y7271D02*
X3391Y7271D01*
X3796Y7490D02*
X4326Y7490D01*
X4315Y7470D02*
X3808Y7470D01*
X3918Y7387D01*
X4059Y7357D01*
X4205Y7385D01*
X4313Y7465D01*
X4373Y7581D01*
X4394Y7733D01*
X4394Y7802D01*
X4395Y7802D01*
X4395Y7802D01*
X4234Y7802D01*
X4234Y7914D01*
X3888Y7914D01*
X3888Y7802D01*
X3727Y7802D01*
X3727Y7915D01*
X3392Y7915D01*
X3392Y8099D01*
X4395Y8099D01*
X4395Y7802D01*
X4234Y7802D01*
X4234Y7750D01*
X4194Y7601D01*
X4143Y7565D01*
X4071Y7553D01*
X3989Y7566D01*
X3932Y7605D01*
X3887Y7767D01*
X3887Y7802D01*
X3727Y7802D01*
X3727Y7721D01*
X3745Y7579D01*
X3806Y7471D01*
X3835Y7450D02*
X4292Y7450D01*
X4266Y7430D02*
X3861Y7430D01*
X3887Y7410D02*
X4239Y7410D01*
X4212Y7390D02*
X3914Y7390D01*
X3996Y7370D02*
X4129Y7370D01*
X4149Y7569D02*
X4367Y7569D01*
X4375Y7589D02*
X4177Y7589D01*
X4196Y7609D02*
X4377Y7609D01*
X4380Y7629D02*
X4201Y7629D01*
X4207Y7648D02*
X4383Y7648D01*
X4385Y7668D02*
X4212Y7668D01*
X4217Y7688D02*
X4388Y7688D01*
X4391Y7708D02*
X4223Y7708D01*
X4228Y7728D02*
X4393Y7728D01*
X4394Y7748D02*
X4233Y7748D01*
X4234Y7767D02*
X4394Y7767D01*
X4394Y7787D02*
X4234Y7787D01*
X4234Y7807D02*
X4395Y7807D01*
X4395Y7827D02*
X4234Y7827D01*
X4234Y7847D02*
X4395Y7847D01*
X4395Y7867D02*
X4234Y7867D01*
X4234Y7887D02*
X4395Y7887D01*
X4395Y7906D02*
X4234Y7906D01*
X4395Y7926D02*
X3392Y7926D01*
X3392Y7946D02*
X4395Y7946D01*
X4395Y7966D02*
X3392Y7966D01*
X3392Y7986D02*
X4395Y7986D01*
X4395Y8006D02*
X3392Y8006D01*
X3392Y8025D02*
X4395Y8025D01*
X4395Y8045D02*
X3392Y8045D01*
X3392Y8065D02*
X4395Y8065D01*
X4395Y8085D02*
X3392Y8085D01*
X3246Y8085D02*
X1931Y8085D01*
X1818Y8065D02*
X3246Y8065D01*
X3246Y8045D02*
X1744Y8045D01*
X1711Y8025D02*
X3246Y8025D01*
X3246Y8006D02*
X1678Y8006D01*
X1645Y7986D02*
X3246Y7986D01*
X3246Y7966D02*
X1621Y7966D01*
X1601Y7946D02*
X3246Y7946D01*
X3246Y7926D02*
X1582Y7926D01*
X1562Y7906D02*
X3246Y7906D01*
X3246Y7887D02*
X1542Y7887D01*
X1523Y7867D02*
X3246Y7867D01*
X3246Y7847D02*
X1510Y7847D01*
X1498Y7827D02*
X3246Y7827D01*
X3246Y7807D02*
X1487Y7807D01*
X1476Y7787D02*
X3246Y7787D01*
X3246Y7767D02*
X1465Y7767D01*
X1454Y7748D02*
X1978Y7748D01*
X1913Y7728D02*
X1442Y7728D01*
X1433Y7708D02*
X1861Y7708D01*
X1829Y7688D02*
X1427Y7688D01*
X1421Y7668D02*
X1813Y7668D01*
X1798Y7648D02*
X1415Y7648D01*
X1410Y7629D02*
X1783Y7629D01*
X1767Y7609D02*
X1404Y7609D01*
X1398Y7589D02*
X1752Y7589D01*
X1739Y7569D02*
X1392Y7569D01*
X1388Y7549D02*
X1735Y7549D01*
X1732Y7529D02*
X1386Y7529D01*
X1384Y7509D02*
X1728Y7509D01*
X1725Y7490D02*
X1383Y7490D01*
X1381Y7470D02*
X1721Y7470D01*
X1718Y7450D02*
X1379Y7450D01*
X1377Y7430D02*
X1714Y7430D01*
X1711Y7410D02*
X1375Y7410D01*
X1374Y7390D02*
X1707Y7390D01*
X1710Y7370D02*
X1375Y7370D01*
X1379Y7351D02*
X1714Y7351D01*
X1718Y7331D02*
X1382Y7331D01*
X1385Y7311D02*
X1722Y7311D01*
X1727Y7291D02*
X1388Y7291D01*
X1392Y7271D02*
X1731Y7271D01*
X1735Y7251D02*
X1395Y7251D01*
X1398Y7231D02*
X1739Y7231D01*
X1744Y7212D02*
X1401Y7212D01*
X1405Y7192D02*
X1748Y7192D01*
X1755Y7172D02*
X1408Y7172D01*
X1411Y7152D02*
X1769Y7152D01*
X1783Y7132D02*
X1414Y7132D01*
X1418Y7112D02*
X1798Y7112D01*
X1819Y7093D02*
X1422Y7093D01*
X1431Y7073D02*
X1847Y7073D01*
X1877Y7053D02*
X1441Y7053D01*
X1450Y7033D02*
X2024Y7033D01*
X2171Y7013D02*
X1460Y7013D01*
X3459Y6815D02*
X4319Y6815D01*
X4304Y6834D02*
X3476Y6834D01*
X3494Y6854D02*
X4288Y6854D01*
X4273Y6874D02*
X3511Y6874D01*
X3538Y6894D02*
X4247Y6894D01*
X4211Y6914D02*
X3570Y6914D01*
X3602Y6934D02*
X4174Y6934D01*
X4138Y6954D02*
X3634Y6954D01*
X3736Y6973D02*
X4099Y6973D01*
X3970Y6993D02*
X3837Y6993D01*
X3785Y7509D02*
X4336Y7509D01*
X4346Y7529D02*
X3773Y7529D01*
X3762Y7549D02*
X4357Y7549D01*
X3985Y7569D02*
X3751Y7569D01*
X3744Y7589D02*
X3956Y7589D01*
X3931Y7609D02*
X3741Y7609D01*
X3739Y7629D02*
X3926Y7629D01*
X3920Y7648D02*
X3736Y7648D01*
X3734Y7668D02*
X3915Y7668D01*
X3909Y7688D02*
X3731Y7688D01*
X3728Y7708D02*
X3904Y7708D01*
X3898Y7728D02*
X3727Y7728D01*
X3727Y7748D02*
X3893Y7748D01*
X3887Y7767D02*
X3727Y7767D01*
X3727Y7787D02*
X3887Y7787D01*
X3888Y7807D02*
X3727Y7807D01*
X3727Y7827D02*
X3888Y7827D01*
X3888Y7847D02*
X3727Y7847D01*
X3727Y7867D02*
X3888Y7867D01*
X3888Y7887D02*
X3727Y7887D01*
X3727Y7906D02*
X3888Y7906D01*
X3076Y5405D02*
X2226Y5405D01*
X2252Y5385D02*
X3053Y5385D01*
X3030Y5365D02*
X2279Y5365D01*
X2305Y5346D02*
X3006Y5346D01*
X2983Y5326D02*
X2332Y5326D01*
X2358Y5306D02*
X2949Y5306D01*
X2901Y5286D02*
X2385Y5286D01*
X2473Y5266D02*
X2853Y5266D01*
X2769Y5246D02*
X2567Y5246D01*
X15707Y8542D02*
X15707Y8543D01*
X15851Y8543D01*
X15851Y9017D01*
X16150Y8780D01*
X16449Y8543D01*
X16579Y8543D01*
X16579Y9192D01*
X16435Y9192D01*
X16435Y8753D01*
X16135Y8993D01*
X15835Y9232D01*
X15707Y9232D01*
X15707Y8542D01*
X15707Y8561D02*
X15851Y8561D01*
X15851Y8581D02*
X15707Y8581D01*
X15707Y8601D02*
X15851Y8601D01*
X15851Y8621D02*
X15707Y8621D01*
X15707Y8641D02*
X15851Y8641D01*
X15851Y8661D02*
X15707Y8661D01*
X15707Y8681D02*
X15851Y8681D01*
X15851Y8701D02*
X15707Y8701D01*
X15707Y8720D02*
X15851Y8720D01*
X15851Y8740D02*
X15707Y8740D01*
X15707Y8760D02*
X15851Y8760D01*
X15851Y8780D02*
X15707Y8780D01*
X15707Y8800D02*
X15851Y8800D01*
X15851Y8820D02*
X15707Y8820D01*
X15707Y8839D02*
X15851Y8839D01*
X15851Y8859D02*
X15707Y8859D01*
X15707Y8879D02*
X15851Y8879D01*
X15851Y8899D02*
X15707Y8899D01*
X15707Y8919D02*
X15851Y8919D01*
X15851Y8939D02*
X15707Y8939D01*
X15707Y8958D02*
X15851Y8958D01*
X15851Y8978D02*
X15707Y8978D01*
X15707Y8998D02*
X15851Y8998D01*
X15874Y8998D02*
X16128Y8998D01*
X16103Y9018D02*
X15707Y9018D01*
X15707Y9038D02*
X16078Y9038D01*
X16053Y9058D02*
X15707Y9058D01*
X15707Y9078D02*
X16028Y9078D01*
X16003Y9097D02*
X15707Y9097D01*
X15707Y9117D02*
X15978Y9117D01*
X15953Y9137D02*
X15707Y9137D01*
X15707Y9157D02*
X15929Y9157D01*
X15904Y9177D02*
X15707Y9177D01*
X15707Y9197D02*
X15879Y9197D01*
X15854Y9217D02*
X15707Y9217D01*
X15707Y9268D02*
X15851Y9268D01*
X15851Y9742D01*
X16150Y9505D01*
X16449Y9268D01*
X16579Y9268D01*
X16579Y9917D01*
X16435Y9917D01*
X16435Y9479D01*
X15835Y9958D01*
X15707Y9958D01*
X15707Y9268D01*
X15707Y9276D02*
X15851Y9276D01*
X15851Y9296D02*
X15707Y9296D01*
X15707Y9316D02*
X15851Y9316D01*
X15851Y9336D02*
X15707Y9336D01*
X15707Y9355D02*
X15851Y9355D01*
X15851Y9375D02*
X15707Y9375D01*
X15707Y9395D02*
X15851Y9395D01*
X15851Y9415D02*
X15707Y9415D01*
X15707Y9435D02*
X15851Y9435D01*
X15851Y9455D02*
X15707Y9455D01*
X15707Y9475D02*
X15851Y9475D01*
X15851Y9494D02*
X15707Y9494D01*
X15707Y9514D02*
X15851Y9514D01*
X15851Y9534D02*
X15707Y9534D01*
X15707Y9554D02*
X15851Y9554D01*
X15851Y9574D02*
X15707Y9574D01*
X15707Y9594D02*
X15851Y9594D01*
X15851Y9614D02*
X15707Y9614D01*
X15707Y9633D02*
X15851Y9633D01*
X15851Y9653D02*
X15707Y9653D01*
X15707Y9673D02*
X15851Y9673D01*
X15851Y9693D02*
X15707Y9693D01*
X15707Y9713D02*
X15851Y9713D01*
X15851Y9733D02*
X15707Y9733D01*
X15707Y9753D02*
X16092Y9753D01*
X16067Y9772D02*
X15707Y9772D01*
X15707Y9792D02*
X16042Y9792D01*
X16017Y9812D02*
X15707Y9812D01*
X15707Y9832D02*
X15992Y9832D01*
X15968Y9852D02*
X15707Y9852D01*
X15707Y9872D02*
X15943Y9872D01*
X15918Y9892D02*
X15707Y9892D01*
X15707Y9911D02*
X15893Y9911D01*
X15868Y9931D02*
X15707Y9931D01*
X15707Y9951D02*
X15843Y9951D01*
X15881Y10014D02*
X15777Y10079D01*
X15705Y10193D01*
X15680Y10338D01*
X15713Y10503D01*
X15806Y10623D01*
X15900Y10668D01*
X16056Y10679D01*
X16579Y10679D01*
X16579Y10519D01*
X16066Y10519D01*
X15903Y10489D01*
X15856Y10428D01*
X15840Y10338D01*
X15861Y10238D01*
X15921Y10179D01*
X16066Y10159D01*
X16579Y10159D01*
X16579Y9997D01*
X16056Y9997D01*
X15881Y10014D01*
X15854Y10030D02*
X16579Y10030D01*
X16579Y10050D02*
X15822Y10050D01*
X15790Y10070D02*
X16579Y10070D01*
X16579Y10090D02*
X15770Y10090D01*
X15757Y10110D02*
X16579Y10110D01*
X16579Y10130D02*
X15745Y10130D01*
X15732Y10150D02*
X16579Y10150D01*
X16579Y10011D02*
X15915Y10011D01*
X15989Y10169D02*
X15720Y10169D01*
X15707Y10189D02*
X15910Y10189D01*
X15890Y10209D02*
X15702Y10209D01*
X15699Y10229D02*
X15871Y10229D01*
X15859Y10249D02*
X15695Y10249D01*
X15692Y10269D02*
X15855Y10269D01*
X15850Y10289D02*
X15689Y10289D01*
X15685Y10308D02*
X15846Y10308D01*
X15842Y10328D02*
X15682Y10328D01*
X15682Y10348D02*
X15842Y10348D01*
X15845Y10368D02*
X15686Y10368D01*
X15690Y10388D02*
X15849Y10388D01*
X15852Y10408D02*
X15694Y10408D01*
X15698Y10428D02*
X15856Y10428D01*
X15871Y10447D02*
X15702Y10447D01*
X15706Y10467D02*
X15886Y10467D01*
X15901Y10487D02*
X15710Y10487D01*
X15716Y10507D02*
X16002Y10507D01*
X15854Y10646D02*
X16579Y10646D01*
X16579Y10666D02*
X15895Y10666D01*
X15812Y10626D02*
X16579Y10626D01*
X16579Y10606D02*
X15793Y10606D01*
X15777Y10586D02*
X16579Y10586D01*
X16579Y10566D02*
X15762Y10566D01*
X15747Y10547D02*
X16579Y10547D01*
X16579Y10527D02*
X15731Y10527D01*
X16074Y10789D02*
X16074Y11162D01*
X15707Y11162D01*
X15707Y11323D01*
X16579Y11323D01*
X16579Y10729D01*
X16435Y10729D01*
X16435Y10729D01*
X16435Y11162D01*
X16214Y11162D01*
X16214Y10789D01*
X16074Y10789D01*
X16074Y10805D02*
X16214Y10805D01*
X16214Y10825D02*
X16074Y10825D01*
X16074Y10844D02*
X16214Y10844D01*
X16214Y10864D02*
X16074Y10864D01*
X16074Y10884D02*
X16214Y10884D01*
X16214Y10904D02*
X16074Y10904D01*
X16074Y10924D02*
X16214Y10924D01*
X16214Y10944D02*
X16074Y10944D01*
X16074Y10964D02*
X16214Y10964D01*
X16214Y10983D02*
X16074Y10983D01*
X16074Y11003D02*
X16214Y11003D01*
X16214Y11023D02*
X16074Y11023D01*
X16074Y11043D02*
X16214Y11043D01*
X16214Y11063D02*
X16074Y11063D01*
X16074Y11083D02*
X16214Y11083D01*
X16214Y11102D02*
X16074Y11102D01*
X16074Y11122D02*
X16214Y11122D01*
X16214Y11142D02*
X16074Y11142D01*
X16435Y11142D02*
X16579Y11142D01*
X16579Y11122D02*
X16435Y11122D01*
X16435Y11102D02*
X16579Y11102D01*
X16579Y11083D02*
X16435Y11083D01*
X16435Y11063D02*
X16579Y11063D01*
X16579Y11043D02*
X16435Y11043D01*
X16435Y11023D02*
X16579Y11023D01*
X16579Y11003D02*
X16435Y11003D01*
X16435Y10983D02*
X16579Y10983D01*
X16579Y10964D02*
X16435Y10964D01*
X16435Y10944D02*
X16579Y10944D01*
X16579Y10924D02*
X16435Y10924D01*
X16435Y10904D02*
X16579Y10904D01*
X16579Y10884D02*
X16435Y10884D01*
X16435Y10864D02*
X16579Y10864D01*
X16579Y10844D02*
X16435Y10844D01*
X16435Y10825D02*
X16579Y10825D01*
X16579Y10805D02*
X16435Y10805D01*
X16435Y10785D02*
X16579Y10785D01*
X16579Y10765D02*
X16435Y10765D01*
X16435Y10745D02*
X16579Y10745D01*
X16579Y11162D02*
X15707Y11162D01*
X15707Y11182D02*
X16579Y11182D01*
X16579Y11202D02*
X15707Y11202D01*
X15707Y11221D02*
X16579Y11221D01*
X16579Y11241D02*
X15707Y11241D01*
X15707Y11261D02*
X16579Y11261D01*
X16579Y11281D02*
X15707Y11281D01*
X15707Y11301D02*
X16579Y11301D01*
X16579Y11321D02*
X15707Y11321D01*
X16435Y9911D02*
X16579Y9911D01*
X16579Y9892D02*
X16435Y9892D01*
X16435Y9872D02*
X16579Y9872D01*
X16579Y9852D02*
X16435Y9852D01*
X16435Y9832D02*
X16579Y9832D01*
X16579Y9812D02*
X16435Y9812D01*
X16435Y9792D02*
X16579Y9792D01*
X16579Y9772D02*
X16435Y9772D01*
X16435Y9753D02*
X16579Y9753D01*
X16579Y9733D02*
X16435Y9733D01*
X16435Y9713D02*
X16579Y9713D01*
X16579Y9693D02*
X16435Y9693D01*
X16435Y9673D02*
X16579Y9673D01*
X16579Y9653D02*
X16435Y9653D01*
X16435Y9633D02*
X16579Y9633D01*
X16579Y9614D02*
X16435Y9614D01*
X16435Y9594D02*
X16579Y9594D01*
X16579Y9574D02*
X16435Y9574D01*
X16435Y9554D02*
X16579Y9554D01*
X16579Y9534D02*
X16435Y9534D01*
X16435Y9514D02*
X16579Y9514D01*
X16579Y9494D02*
X16435Y9494D01*
X16415Y9494D02*
X16163Y9494D01*
X16188Y9475D02*
X16579Y9475D01*
X16579Y9455D02*
X16213Y9455D01*
X16238Y9435D02*
X16579Y9435D01*
X16579Y9415D02*
X16263Y9415D01*
X16288Y9395D02*
X16579Y9395D01*
X16579Y9375D02*
X16313Y9375D01*
X16338Y9355D02*
X16579Y9355D01*
X16579Y9336D02*
X16363Y9336D01*
X16389Y9316D02*
X16579Y9316D01*
X16579Y9296D02*
X16414Y9296D01*
X16439Y9276D02*
X16579Y9276D01*
X16579Y9177D02*
X16435Y9177D01*
X16435Y9157D02*
X16579Y9157D01*
X16579Y9137D02*
X16435Y9137D01*
X16435Y9117D02*
X16579Y9117D01*
X16579Y9097D02*
X16435Y9097D01*
X16435Y9078D02*
X16579Y9078D01*
X16579Y9058D02*
X16435Y9058D01*
X16435Y9038D02*
X16579Y9038D01*
X16579Y9018D02*
X16435Y9018D01*
X16435Y8998D02*
X16579Y8998D01*
X16579Y8978D02*
X16435Y8978D01*
X16435Y8958D02*
X16579Y8958D01*
X16579Y8939D02*
X16435Y8939D01*
X16435Y8919D02*
X16579Y8919D01*
X16579Y8899D02*
X16435Y8899D01*
X16435Y8879D02*
X16579Y8879D01*
X16579Y8859D02*
X16435Y8859D01*
X16435Y8839D02*
X16579Y8839D01*
X16579Y8820D02*
X16435Y8820D01*
X16435Y8800D02*
X16579Y8800D01*
X16579Y8780D02*
X16435Y8780D01*
X16435Y8760D02*
X16579Y8760D01*
X16579Y8740D02*
X16200Y8740D01*
X16175Y8760D02*
X16427Y8760D01*
X16402Y8780D02*
X16150Y8780D01*
X16125Y8800D02*
X16377Y8800D01*
X16352Y8820D02*
X16100Y8820D01*
X16075Y8839D02*
X16327Y8839D01*
X16302Y8859D02*
X16049Y8859D01*
X16025Y8879D02*
X16277Y8879D01*
X16253Y8899D02*
X15999Y8899D01*
X15974Y8919D02*
X16228Y8919D01*
X16203Y8939D02*
X15949Y8939D01*
X15924Y8958D02*
X16178Y8958D01*
X16153Y8978D02*
X15899Y8978D01*
X16225Y8720D02*
X16579Y8720D01*
X16579Y8701D02*
X16250Y8701D01*
X16275Y8681D02*
X16579Y8681D01*
X16579Y8661D02*
X16300Y8661D01*
X16325Y8641D02*
X16579Y8641D01*
X16579Y8621D02*
X16350Y8621D01*
X16375Y8601D02*
X16579Y8601D01*
X16579Y8581D02*
X16400Y8581D01*
X16425Y8561D02*
X16579Y8561D01*
X16391Y9514D02*
X16138Y9514D01*
X16113Y9534D02*
X16366Y9534D01*
X16341Y9554D02*
X16088Y9554D01*
X16063Y9574D02*
X16316Y9574D01*
X16291Y9594D02*
X16038Y9594D01*
X16013Y9614D02*
X16266Y9614D01*
X16241Y9633D02*
X15988Y9633D01*
X15963Y9653D02*
X16216Y9653D01*
X16191Y9673D02*
X15938Y9673D01*
X15913Y9693D02*
X16167Y9693D01*
X16142Y9713D02*
X15887Y9713D01*
X15862Y9733D02*
X16117Y9733D01*
X48946Y7992D02*
X48946Y7848D01*
X49612Y7848D01*
X49612Y7847D01*
X49168Y7753D01*
X48946Y7707D01*
X48946Y7586D01*
X49168Y7539D01*
X49612Y7446D01*
X49612Y7443D01*
X48946Y7443D01*
X48946Y7299D01*
X49780Y7299D01*
X49780Y7531D01*
X49387Y7606D01*
X49191Y7644D01*
X49191Y7645D01*
X49387Y7683D01*
X49780Y7758D01*
X49780Y7992D01*
X48946Y7992D01*
X48946Y7986D02*
X49780Y7986D01*
X49780Y7966D02*
X48946Y7966D01*
X48946Y7946D02*
X49780Y7946D01*
X49780Y7926D02*
X48946Y7926D01*
X48946Y7906D02*
X49780Y7906D01*
X49780Y7887D02*
X48946Y7887D01*
X48946Y7867D02*
X49780Y7867D01*
X49780Y7847D02*
X49612Y7847D01*
X49519Y7827D02*
X49780Y7827D01*
X49780Y7807D02*
X49424Y7807D01*
X49329Y7787D02*
X49780Y7787D01*
X49780Y7767D02*
X49235Y7767D01*
X49140Y7748D02*
X49725Y7748D01*
X49622Y7728D02*
X49045Y7728D01*
X48950Y7708D02*
X49518Y7708D01*
X49413Y7688D02*
X48946Y7688D01*
X48946Y7668D02*
X49309Y7668D01*
X49272Y7629D02*
X48946Y7629D01*
X48946Y7648D02*
X49205Y7648D01*
X49215Y7529D02*
X49780Y7529D01*
X49780Y7509D02*
X49309Y7509D01*
X49404Y7490D02*
X49780Y7490D01*
X49780Y7470D02*
X49499Y7470D01*
X49594Y7450D02*
X49780Y7450D01*
X49780Y7430D02*
X48946Y7430D01*
X48946Y7410D02*
X49780Y7410D01*
X49780Y7390D02*
X48946Y7390D01*
X48946Y7370D02*
X49780Y7370D01*
X49780Y7351D02*
X48946Y7351D01*
X48946Y7331D02*
X49780Y7331D01*
X49780Y7311D02*
X48946Y7311D01*
X49011Y7190D02*
X49057Y7212D01*
X49114Y7227D01*
X49182Y7235D01*
X49258Y7238D01*
X49335Y7235D01*
X49400Y7226D01*
X49457Y7209D01*
X49504Y7185D01*
X49540Y7153D01*
X49567Y7113D01*
X49583Y7064D01*
X49588Y7018D01*
X49474Y7018D01*
X49472Y7029D01*
X49461Y7048D01*
X49441Y7064D01*
X49415Y7074D01*
X49345Y7084D01*
X49256Y7086D01*
X49168Y7084D01*
X49098Y7074D01*
X49072Y7064D01*
X49053Y7048D01*
X49041Y7029D01*
X49039Y7018D01*
X48931Y7018D01*
X48934Y7066D01*
X48949Y7117D01*
X48974Y7158D01*
X49011Y7190D01*
X49015Y7192D02*
X49491Y7192D01*
X49519Y7172D02*
X48990Y7172D01*
X48971Y7152D02*
X49541Y7152D01*
X49554Y7132D02*
X48958Y7132D01*
X48947Y7112D02*
X49567Y7112D01*
X49574Y7093D02*
X48942Y7093D01*
X48936Y7073D02*
X49094Y7073D01*
X49058Y7053D02*
X48933Y7053D01*
X48932Y7033D02*
X49043Y7033D01*
X49041Y7018D02*
X48932Y7018D01*
X48931Y7005D01*
X48936Y6947D01*
X48951Y6897D01*
X48976Y6856D01*
X49012Y6825D01*
X49058Y6801D01*
X49115Y6785D01*
X49182Y6775D01*
X49258Y6773D01*
X49336Y6775D01*
X49404Y6783D01*
X49461Y6798D01*
X49507Y6821D01*
X49543Y6851D01*
X49568Y6891D01*
X49583Y6942D01*
X49588Y7004D01*
X49586Y7017D01*
X49588Y7018D01*
X49477Y7018D01*
X49480Y7005D01*
X49477Y6984D01*
X49468Y6966D01*
X49452Y6952D01*
X49429Y6942D01*
X49360Y6929D01*
X49258Y6924D01*
X49156Y6929D01*
X49088Y6942D01*
X49066Y6952D01*
X49050Y6966D01*
X49041Y6984D01*
X49038Y7005D01*
X49041Y7018D01*
X49039Y7013D02*
X48932Y7013D01*
X48932Y6993D02*
X49039Y6993D01*
X49046Y6973D02*
X48933Y6973D01*
X48935Y6954D02*
X49065Y6954D01*
X49130Y6934D02*
X48939Y6934D01*
X48945Y6914D02*
X49575Y6914D01*
X49581Y6934D02*
X49387Y6934D01*
X49453Y6954D02*
X49584Y6954D01*
X49586Y6973D02*
X49472Y6973D01*
X49478Y6993D02*
X49587Y6993D01*
X49587Y7013D02*
X49478Y7013D01*
X49470Y7033D02*
X49587Y7033D01*
X49585Y7053D02*
X49455Y7053D01*
X49419Y7073D02*
X49580Y7073D01*
X49449Y7212D02*
X49056Y7212D01*
X49154Y7231D02*
X49357Y7231D01*
X49843Y7203D02*
X50278Y7203D01*
X50320Y7208D01*
X50347Y7220D01*
X50362Y7239D01*
X50366Y7268D01*
X50361Y7302D01*
X50353Y7316D01*
X50341Y7326D01*
X50308Y7341D01*
X50263Y7345D01*
X49846Y7345D01*
X49846Y7496D01*
X50680Y7496D01*
X50680Y7345D01*
X50678Y7348D01*
X50408Y7348D01*
X50408Y7345D01*
X50445Y7320D01*
X50470Y7288D01*
X50485Y7249D01*
X50490Y7203D01*
X50487Y7169D01*
X50479Y7139D01*
X50465Y7113D01*
X50447Y7092D01*
X50423Y7075D01*
X50392Y7064D01*
X50354Y7056D01*
X50311Y7053D01*
X49843Y7053D01*
X49843Y7203D01*
X49843Y7192D02*
X50489Y7192D01*
X50489Y7212D02*
X50329Y7212D01*
X50356Y7231D02*
X50487Y7231D01*
X50484Y7251D02*
X50364Y7251D01*
X50366Y7271D02*
X50477Y7271D01*
X50468Y7291D02*
X50362Y7291D01*
X50356Y7311D02*
X50452Y7311D01*
X50429Y7331D02*
X50331Y7331D01*
X50487Y7172D02*
X49843Y7172D01*
X49843Y7152D02*
X50482Y7152D01*
X50476Y7132D02*
X49843Y7132D01*
X49843Y7112D02*
X50465Y7112D01*
X50448Y7093D02*
X49843Y7093D01*
X49843Y7073D02*
X50416Y7073D01*
X50473Y6970D02*
X50473Y6821D01*
X49843Y6821D01*
X49843Y6970D01*
X50473Y6970D01*
X50473Y6954D02*
X49843Y6954D01*
X49843Y6934D02*
X50473Y6934D01*
X50473Y6914D02*
X49843Y6914D01*
X49843Y6894D02*
X50473Y6894D01*
X50473Y6874D02*
X49843Y6874D01*
X49843Y6854D02*
X50473Y6854D01*
X50473Y6834D02*
X49843Y6834D01*
X49848Y6734D02*
X50477Y6734D01*
X50477Y6590D01*
X50473Y6592D01*
X50400Y6592D01*
X50400Y6590D01*
X50440Y6562D01*
X50468Y6528D01*
X50485Y6487D01*
X50491Y6441D01*
X50488Y6407D01*
X50480Y6377D01*
X50467Y6351D01*
X50449Y6330D01*
X50425Y6313D01*
X50393Y6302D01*
X50356Y6294D01*
X50312Y6291D01*
X49845Y6291D01*
X49845Y6441D01*
X50279Y6441D01*
X50321Y6446D01*
X50348Y6457D01*
X50363Y6477D01*
X50368Y6505D01*
X50362Y6540D01*
X50354Y6553D01*
X50343Y6564D01*
X50309Y6579D01*
X50264Y6583D01*
X49848Y6583D01*
X49848Y6734D01*
X49848Y6715D02*
X50477Y6715D01*
X50477Y6695D02*
X49848Y6695D01*
X49848Y6676D02*
X50477Y6676D01*
X50477Y6656D02*
X49848Y6656D01*
X49848Y6636D02*
X50477Y6636D01*
X50477Y6616D02*
X49848Y6616D01*
X49848Y6596D02*
X50477Y6596D01*
X50445Y6556D02*
X50351Y6556D01*
X50363Y6537D02*
X50461Y6537D01*
X50473Y6517D02*
X50366Y6517D01*
X50367Y6497D02*
X50481Y6497D01*
X50486Y6477D02*
X50363Y6477D01*
X50348Y6457D02*
X50489Y6457D01*
X50491Y6437D02*
X49845Y6437D01*
X49845Y6418D02*
X50489Y6418D01*
X50486Y6398D02*
X49845Y6398D01*
X49845Y6378D02*
X50481Y6378D01*
X50471Y6358D02*
X49845Y6358D01*
X49845Y6338D02*
X50456Y6338D01*
X50432Y6318D02*
X49845Y6318D01*
X49845Y6299D02*
X50378Y6299D01*
X50357Y6199D02*
X49976Y6199D01*
X49964Y6196D02*
X49922Y6177D01*
X49891Y6151D01*
X49868Y6120D01*
X49855Y6084D01*
X49851Y6042D01*
X49855Y6012D01*
X49855Y6017D01*
X49861Y6022D01*
X49982Y6022D01*
X49979Y6008D01*
X49982Y5985D01*
X49993Y5967D01*
X50009Y5954D01*
X50031Y5943D01*
X50088Y5930D01*
X50161Y5925D01*
X50259Y5930D01*
X50323Y5942D01*
X50344Y5952D01*
X50359Y5965D01*
X50368Y5982D01*
X50371Y6003D01*
X50368Y6021D01*
X50491Y6021D01*
X50490Y6015D01*
X50476Y5982D01*
X50449Y5951D01*
X50407Y5925D01*
X50407Y5922D01*
X50477Y5922D01*
X50477Y5778D01*
X49879Y5778D01*
X49822Y5781D01*
X49772Y5791D01*
X49731Y5809D01*
X49696Y5834D01*
X49669Y5867D01*
X49650Y5908D01*
X49638Y5960D01*
X49633Y6021D01*
X49636Y6066D01*
X49645Y6105D01*
X49658Y6139D01*
X49678Y6168D01*
X49702Y6191D01*
X49731Y6207D01*
X49764Y6216D01*
X49801Y6219D01*
X49801Y6075D01*
X49774Y6069D01*
X49753Y6052D01*
X49739Y6029D01*
X49735Y6002D01*
X49737Y5981D01*
X49742Y5963D01*
X49753Y5947D01*
X49766Y5937D01*
X49803Y5924D01*
X49846Y5919D01*
X49928Y5919D01*
X49928Y5922D01*
X49897Y5947D01*
X49873Y5977D01*
X49856Y6012D01*
X49855Y6017D01*
X49977Y6017D01*
X49978Y6022D01*
X49989Y6039D01*
X50004Y6052D01*
X50024Y6061D01*
X50077Y6072D01*
X50138Y6075D01*
X50245Y6072D01*
X50284Y6068D01*
X50314Y6060D01*
X50336Y6050D01*
X50351Y6036D01*
X50361Y6018D01*
X50361Y6013D01*
X50484Y6013D01*
X50488Y6039D01*
X50487Y6068D01*
X50480Y6093D01*
X50472Y6116D01*
X50458Y6135D01*
X50425Y6166D01*
X50383Y6191D01*
X50334Y6207D01*
X50279Y6216D01*
X50167Y6222D01*
X50088Y6219D01*
X50020Y6210D01*
X49964Y6196D01*
X49928Y6179D02*
X50403Y6179D01*
X50432Y6160D02*
X49901Y6160D01*
X49882Y6140D02*
X50453Y6140D01*
X50468Y6120D02*
X49868Y6120D01*
X49861Y6100D02*
X50478Y6100D01*
X50484Y6080D02*
X49855Y6080D01*
X49852Y6060D02*
X50022Y6060D01*
X49990Y6040D02*
X49851Y6040D01*
X49854Y6020D02*
X49978Y6020D01*
X49982Y6020D02*
X49859Y6020D01*
X49862Y6001D02*
X49980Y6001D01*
X49985Y5981D02*
X49871Y5981D01*
X49886Y5961D02*
X50000Y5961D01*
X50038Y5941D02*
X49905Y5941D01*
X49928Y5921D02*
X50477Y5921D01*
X50477Y5901D02*
X49653Y5901D01*
X49647Y5921D02*
X49824Y5921D01*
X49761Y5941D02*
X49642Y5941D01*
X49637Y5961D02*
X49744Y5961D01*
X49737Y5981D02*
X49636Y5981D01*
X49635Y6001D02*
X49735Y6001D01*
X49738Y6020D02*
X49633Y6020D01*
X49634Y6040D02*
X49746Y6040D01*
X49763Y6060D02*
X49636Y6060D01*
X49639Y6080D02*
X49801Y6080D01*
X49801Y6100D02*
X49644Y6100D01*
X49651Y6120D02*
X49801Y6120D01*
X49801Y6140D02*
X49659Y6140D01*
X49672Y6160D02*
X49801Y6160D01*
X49801Y6179D02*
X49690Y6179D01*
X49717Y6199D02*
X49801Y6199D01*
X49779Y6291D02*
X49779Y6441D01*
X49780Y6443D01*
X49516Y6443D01*
X49516Y6444D01*
X49549Y6469D01*
X49573Y6498D01*
X49585Y6525D01*
X49468Y6525D01*
X49468Y6521D01*
X49465Y6498D01*
X49454Y6480D01*
X49438Y6466D01*
X49415Y6457D01*
X49351Y6447D01*
X49261Y6444D01*
X49171Y6447D01*
X49107Y6457D01*
X49084Y6466D01*
X49068Y6480D01*
X49057Y6498D01*
X49054Y6521D01*
X49054Y6525D01*
X48939Y6525D01*
X48951Y6494D01*
X48974Y6464D01*
X49012Y6437D01*
X49012Y6435D01*
X48944Y6435D01*
X48944Y6291D01*
X49779Y6291D01*
X49779Y6299D02*
X48944Y6299D01*
X48944Y6318D02*
X49779Y6318D01*
X49779Y6338D02*
X48944Y6338D01*
X48944Y6358D02*
X49779Y6358D01*
X49779Y6378D02*
X48944Y6378D01*
X48944Y6398D02*
X49779Y6398D01*
X49779Y6418D02*
X48944Y6418D01*
X48983Y6457D02*
X49108Y6457D01*
X49071Y6477D02*
X48964Y6477D01*
X48949Y6497D02*
X49058Y6497D01*
X49055Y6517D02*
X48942Y6517D01*
X48940Y6526D02*
X48937Y6526D01*
X49053Y6526D01*
X49055Y6544D01*
X49066Y6562D01*
X49083Y6576D01*
X49105Y6585D01*
X49169Y6595D01*
X49259Y6599D01*
X49350Y6595D01*
X49414Y6585D01*
X49437Y6576D01*
X49453Y6562D01*
X49464Y6544D01*
X49467Y6526D01*
X49583Y6526D01*
X49586Y6533D01*
X49591Y6572D01*
X49586Y6615D01*
X49571Y6652D01*
X49548Y6684D01*
X49513Y6709D01*
X49468Y6729D01*
X49411Y6743D01*
X49342Y6750D01*
X49261Y6753D01*
X49180Y6750D01*
X49111Y6743D01*
X49054Y6729D01*
X49009Y6709D01*
X48976Y6684D01*
X48952Y6652D01*
X48939Y6615D01*
X48934Y6572D01*
X48939Y6530D01*
X48940Y6526D01*
X48938Y6537D02*
X49054Y6537D01*
X49062Y6556D02*
X48936Y6556D01*
X48934Y6576D02*
X49084Y6576D01*
X49192Y6596D02*
X48937Y6596D01*
X48939Y6616D02*
X49586Y6616D01*
X49588Y6596D02*
X49327Y6596D01*
X49436Y6576D02*
X49591Y6576D01*
X49589Y6556D02*
X49456Y6556D01*
X49465Y6537D02*
X49587Y6537D01*
X49581Y6517D02*
X49467Y6517D01*
X49464Y6497D02*
X49572Y6497D01*
X49555Y6477D02*
X49451Y6477D01*
X49414Y6457D02*
X49533Y6457D01*
X49575Y6256D02*
X49107Y6256D01*
X49063Y6253D01*
X49026Y6246D01*
X48996Y6234D01*
X48971Y6217D01*
X48954Y6196D01*
X48942Y6171D01*
X48934Y6141D01*
X48931Y6108D01*
X48936Y6061D01*
X48951Y6021D01*
X48978Y5986D01*
X49018Y5960D01*
X49015Y5961D01*
X49015Y5958D01*
X48942Y5958D01*
X48942Y5814D01*
X49571Y5814D01*
X49571Y5964D01*
X49155Y5964D01*
X49110Y5969D01*
X49076Y5983D01*
X49065Y5994D01*
X49057Y6008D01*
X49051Y6042D01*
X49055Y6070D01*
X49070Y6090D01*
X49098Y6102D01*
X49140Y6107D01*
X49575Y6107D01*
X49575Y6256D01*
X49575Y6239D02*
X49008Y6239D01*
X48974Y6219D02*
X49575Y6219D01*
X49575Y6199D02*
X48956Y6199D01*
X48945Y6179D02*
X49575Y6179D01*
X49575Y6160D02*
X48939Y6160D01*
X48934Y6140D02*
X49575Y6140D01*
X49575Y6120D02*
X48932Y6120D01*
X48932Y6100D02*
X49093Y6100D01*
X49063Y6080D02*
X48934Y6080D01*
X48936Y6060D02*
X49054Y6060D01*
X49051Y6040D02*
X48943Y6040D01*
X48951Y6020D02*
X49055Y6020D01*
X49061Y6001D02*
X48966Y6001D01*
X48986Y5981D02*
X49082Y5981D01*
X49016Y5961D02*
X49571Y5961D01*
X49571Y5941D02*
X48942Y5941D01*
X48942Y5921D02*
X49571Y5921D01*
X49571Y5901D02*
X48942Y5901D01*
X48942Y5882D02*
X49571Y5882D01*
X49571Y5862D02*
X48942Y5862D01*
X48942Y5842D02*
X49571Y5842D01*
X49571Y5822D02*
X48942Y5822D01*
X48946Y5752D02*
X49780Y5752D01*
X49780Y5603D01*
X48946Y5603D01*
X48946Y5752D01*
X48946Y5743D02*
X49780Y5743D01*
X49780Y5723D02*
X48946Y5723D01*
X48946Y5703D02*
X49780Y5703D01*
X49780Y5683D02*
X48946Y5683D01*
X48946Y5663D02*
X49780Y5663D01*
X49780Y5643D02*
X48946Y5643D01*
X48946Y5624D02*
X49780Y5624D01*
X49780Y5604D02*
X48946Y5604D01*
X48986Y5505D02*
X48964Y5486D01*
X48946Y5461D01*
X48936Y5432D01*
X48932Y5395D01*
X48936Y5346D01*
X48946Y5308D01*
X48946Y5310D01*
X49043Y5310D01*
X49039Y5338D01*
X49045Y5364D01*
X49065Y5382D01*
X49093Y5391D01*
X49126Y5394D01*
X49164Y5390D01*
X49192Y5374D01*
X49213Y5349D01*
X49226Y5310D01*
X49327Y5310D01*
X49305Y5390D01*
X49278Y5457D01*
X49261Y5482D01*
X49240Y5503D01*
X49214Y5519D01*
X49184Y5529D01*
X49149Y5535D01*
X49107Y5537D01*
X49043Y5529D01*
X49013Y5519D01*
X48986Y5505D01*
X49238Y5504D01*
X49259Y5485D02*
X48963Y5485D01*
X48948Y5465D02*
X49272Y5465D01*
X49282Y5445D02*
X48940Y5445D01*
X48935Y5425D02*
X49290Y5425D01*
X49298Y5405D02*
X48933Y5405D01*
X48933Y5385D02*
X49075Y5385D01*
X49047Y5365D02*
X48934Y5365D01*
X48936Y5346D02*
X49041Y5346D01*
X49041Y5326D02*
X48941Y5326D01*
X48944Y5307D02*
X48944Y5306D01*
X48954Y5289D01*
X48967Y5274D01*
X49008Y5246D01*
X49008Y5242D01*
X48974Y5235D01*
X48942Y5223D01*
X48942Y5079D01*
X48994Y5094D01*
X49063Y5099D01*
X49393Y5099D01*
X49434Y5100D01*
X49471Y5106D01*
X49504Y5118D01*
X49533Y5138D01*
X49555Y5164D01*
X49571Y5200D01*
X49582Y5248D01*
X49585Y5310D01*
X49590Y5313D01*
X49586Y5354D01*
X49579Y5393D01*
X49566Y5427D01*
X49546Y5457D01*
X49519Y5482D01*
X49486Y5502D01*
X49444Y5514D01*
X49393Y5519D01*
X49378Y5519D01*
X49378Y5383D01*
X49396Y5383D01*
X49429Y5379D01*
X49454Y5365D01*
X49471Y5345D01*
X49477Y5315D01*
X49472Y5281D01*
X49457Y5260D01*
X49434Y5248D01*
X49402Y5244D01*
X49373Y5247D01*
X49354Y5258D01*
X49339Y5276D01*
X49328Y5304D01*
X49327Y5308D01*
X49226Y5308D01*
X49237Y5277D01*
X49258Y5244D01*
X49133Y5244D01*
X49110Y5246D01*
X49088Y5251D01*
X49072Y5262D01*
X49058Y5274D01*
X49042Y5304D01*
X49042Y5307D01*
X48944Y5307D01*
X49042Y5306D01*
X49052Y5286D02*
X48956Y5286D01*
X48978Y5266D02*
X49067Y5266D01*
X49107Y5246D02*
X49006Y5246D01*
X48951Y5226D02*
X49577Y5226D01*
X49573Y5207D02*
X48942Y5207D01*
X48942Y5187D02*
X49565Y5187D01*
X49556Y5167D02*
X48942Y5167D01*
X48942Y5147D02*
X49540Y5147D01*
X49518Y5127D02*
X48942Y5127D01*
X48942Y5107D02*
X49475Y5107D01*
X49575Y4997D02*
X48944Y4997D01*
X48944Y4846D01*
X49323Y4846D01*
X49351Y4843D01*
X49375Y4836D01*
X49395Y4824D01*
X49410Y4809D01*
X49422Y4793D01*
X49429Y4773D01*
X49435Y4734D01*
X49435Y4710D01*
X49434Y4686D01*
X49588Y4686D01*
X49590Y4699D01*
X49590Y4713D01*
X49582Y4756D01*
X49561Y4793D01*
X49529Y4823D01*
X49489Y4848D01*
X49489Y4851D01*
X49573Y4851D01*
X49575Y4852D01*
X49575Y4997D01*
X49575Y4988D02*
X48944Y4988D01*
X48944Y4968D02*
X49575Y4968D01*
X49575Y4949D02*
X48944Y4949D01*
X48944Y4929D02*
X49575Y4929D01*
X49575Y4909D02*
X48944Y4909D01*
X48944Y4889D02*
X49575Y4889D01*
X49575Y4869D02*
X48944Y4869D01*
X48944Y4849D02*
X49489Y4849D01*
X49518Y4829D02*
X49386Y4829D01*
X49409Y4810D02*
X49543Y4810D01*
X49563Y4790D02*
X49423Y4790D01*
X49429Y4770D02*
X49574Y4770D01*
X49583Y4750D02*
X49433Y4750D01*
X49435Y4730D02*
X49586Y4730D01*
X49590Y4710D02*
X49435Y4710D01*
X49434Y4690D02*
X49589Y4690D01*
X48971Y5088D02*
X48942Y5088D01*
X49256Y5246D02*
X49380Y5246D01*
X49347Y5266D02*
X49244Y5266D01*
X49234Y5286D02*
X49335Y5286D01*
X49328Y5306D02*
X49227Y5306D01*
X49221Y5326D02*
X49323Y5326D01*
X49317Y5346D02*
X49214Y5346D01*
X49199Y5365D02*
X49311Y5365D01*
X49306Y5385D02*
X49171Y5385D01*
X49198Y5524D02*
X49030Y5524D01*
X49378Y5504D02*
X49478Y5504D01*
X49515Y5485D02*
X49378Y5485D01*
X49378Y5465D02*
X49538Y5465D01*
X49554Y5445D02*
X49378Y5445D01*
X49378Y5425D02*
X49566Y5425D01*
X49574Y5405D02*
X49378Y5405D01*
X49378Y5385D02*
X49580Y5385D01*
X49584Y5365D02*
X49454Y5365D01*
X49470Y5346D02*
X49587Y5346D01*
X49589Y5326D02*
X49475Y5326D01*
X49476Y5306D02*
X49585Y5306D01*
X49584Y5286D02*
X49473Y5286D01*
X49462Y5266D02*
X49583Y5266D01*
X49581Y5246D02*
X49419Y5246D01*
X50876Y5559D02*
X50928Y5550D01*
X50986Y5547D01*
X50986Y5691D01*
X50918Y5695D01*
X50874Y5709D01*
X50859Y5720D01*
X50848Y5731D01*
X50842Y5747D01*
X50841Y5764D01*
X50844Y5787D01*
X50853Y5805D01*
X50869Y5818D01*
X50891Y5829D01*
X50921Y5837D01*
X50959Y5841D01*
X51059Y5844D01*
X51156Y5841D01*
X51221Y5829D01*
X51244Y5818D01*
X51260Y5803D01*
X51271Y5784D01*
X51274Y5759D01*
X51271Y5739D01*
X51262Y5724D01*
X51248Y5712D01*
X51232Y5703D01*
X51191Y5693D01*
X51190Y5691D01*
X51145Y5688D01*
X51145Y5544D01*
X51198Y5547D01*
X51245Y5557D01*
X51287Y5574D01*
X51324Y5596D01*
X51352Y5626D01*
X51373Y5663D01*
X51385Y5704D01*
X51389Y5754D01*
X51385Y5803D01*
X51373Y5850D01*
X51352Y5890D01*
X51320Y5925D01*
X51275Y5954D01*
X51218Y5974D01*
X51146Y5988D01*
X51058Y5992D01*
X50971Y5990D01*
X50899Y5979D01*
X50842Y5961D01*
X50797Y5937D01*
X50765Y5905D01*
X50745Y5867D01*
X50734Y5821D01*
X50731Y5769D01*
X50735Y5713D01*
X50747Y5667D01*
X50769Y5628D01*
X50797Y5598D01*
X50833Y5576D01*
X50876Y5559D01*
X50863Y5564D02*
X50986Y5564D01*
X50986Y5584D02*
X50820Y5584D01*
X50792Y5604D02*
X50986Y5604D01*
X50986Y5624D02*
X50773Y5624D01*
X50760Y5643D02*
X50986Y5643D01*
X50986Y5663D02*
X50749Y5663D01*
X50743Y5683D02*
X50986Y5683D01*
X50894Y5703D02*
X50738Y5703D01*
X50735Y5723D02*
X50856Y5723D01*
X50844Y5743D02*
X50733Y5743D01*
X50732Y5763D02*
X50841Y5763D01*
X50843Y5782D02*
X50732Y5782D01*
X50733Y5802D02*
X50851Y5802D01*
X50877Y5822D02*
X50734Y5822D01*
X50739Y5842D02*
X50989Y5842D01*
X51127Y5842D02*
X51375Y5842D01*
X51380Y5822D02*
X51236Y5822D01*
X51261Y5802D02*
X51385Y5802D01*
X51387Y5782D02*
X51271Y5782D01*
X51273Y5763D02*
X51389Y5763D01*
X51388Y5743D02*
X51272Y5743D01*
X51261Y5723D02*
X51387Y5723D01*
X51385Y5703D02*
X51232Y5703D01*
X51145Y5683D02*
X51379Y5683D01*
X51373Y5663D02*
X51145Y5663D01*
X51145Y5643D02*
X51362Y5643D01*
X51349Y5624D02*
X51145Y5624D01*
X51145Y5604D02*
X51330Y5604D01*
X51303Y5584D02*
X51145Y5584D01*
X51145Y5564D02*
X51262Y5564D01*
X51147Y5544D02*
X51145Y5544D01*
X50477Y5782D02*
X49816Y5782D01*
X49748Y5802D02*
X50477Y5802D01*
X50477Y5822D02*
X49712Y5822D01*
X49689Y5842D02*
X50477Y5842D01*
X50477Y5862D02*
X49673Y5862D01*
X49662Y5882D02*
X50477Y5882D01*
X50434Y5941D02*
X50321Y5941D01*
X50354Y5961D02*
X50458Y5961D01*
X50475Y5981D02*
X50367Y5981D01*
X50371Y6001D02*
X50484Y6001D01*
X50485Y6020D02*
X50359Y6020D01*
X50368Y6020D02*
X50491Y6020D01*
X50488Y6040D02*
X50347Y6040D01*
X50313Y6060D02*
X50487Y6060D01*
X50743Y6077D02*
X50743Y6226D01*
X51373Y6226D01*
X51373Y6077D01*
X50743Y6077D01*
X51373Y6080D01*
X51373Y6100D02*
X50743Y6100D01*
X50743Y6120D02*
X51373Y6120D01*
X51373Y6140D02*
X50743Y6140D01*
X50743Y6160D02*
X51373Y6160D01*
X51373Y6179D02*
X50743Y6179D01*
X50743Y6199D02*
X51373Y6199D01*
X51373Y6219D02*
X50743Y6219D01*
X50815Y6338D02*
X51032Y6338D01*
X51035Y6340D02*
X51013Y6327D01*
X50986Y6318D01*
X50956Y6312D01*
X50921Y6311D01*
X50875Y6315D01*
X50834Y6327D01*
X50800Y6347D01*
X50773Y6372D01*
X50752Y6404D01*
X50738Y6441D01*
X50731Y6483D01*
X50728Y6528D01*
X50731Y6586D01*
X50740Y6633D01*
X50757Y6670D01*
X50779Y6699D01*
X50807Y6720D01*
X50842Y6734D01*
X50881Y6741D01*
X50925Y6744D01*
X50947Y6744D01*
X50947Y6609D01*
X50926Y6609D01*
X50929Y6604D01*
X50891Y6600D01*
X50863Y6585D01*
X50844Y6561D01*
X50837Y6528D01*
X50842Y6496D01*
X50856Y6473D01*
X50879Y6457D01*
X50913Y6453D01*
X50940Y6457D01*
X50959Y6469D01*
X50973Y6487D01*
X50983Y6508D01*
X51024Y6613D01*
X51052Y6668D01*
X51070Y6688D01*
X51089Y6707D01*
X51112Y6720D01*
X51138Y6730D01*
X51166Y6736D01*
X51198Y6738D01*
X51235Y6735D01*
X51271Y6726D01*
X51304Y6711D01*
X51332Y6688D01*
X51355Y6659D01*
X51373Y6621D01*
X51385Y6576D01*
X51389Y6522D01*
X51386Y6474D01*
X51377Y6434D01*
X51362Y6399D01*
X51342Y6370D01*
X51316Y6350D01*
X51286Y6334D01*
X51250Y6325D01*
X51210Y6322D01*
X51184Y6322D01*
X51184Y6457D01*
X51226Y6460D01*
X51256Y6471D01*
X51267Y6480D01*
X51274Y6492D01*
X51280Y6524D01*
X51275Y6551D01*
X51262Y6573D01*
X51241Y6590D01*
X51211Y6595D01*
X51188Y6592D01*
X51169Y6582D01*
X51151Y6562D01*
X51136Y6531D01*
X51103Y6441D01*
X51089Y6408D01*
X51073Y6381D01*
X51055Y6359D01*
X51035Y6340D01*
X51055Y6358D02*
X50788Y6358D01*
X50769Y6378D02*
X51071Y6378D01*
X51083Y6398D02*
X50756Y6398D01*
X50747Y6418D02*
X51093Y6418D01*
X51101Y6437D02*
X50740Y6437D01*
X50736Y6457D02*
X50881Y6457D01*
X50853Y6477D02*
X50732Y6477D01*
X50730Y6497D02*
X50842Y6497D01*
X50839Y6517D02*
X50729Y6517D01*
X50728Y6537D02*
X50839Y6537D01*
X50843Y6556D02*
X50730Y6556D01*
X50731Y6576D02*
X50856Y6576D01*
X50884Y6596D02*
X50733Y6596D01*
X50737Y6616D02*
X50947Y6616D01*
X50947Y6636D02*
X50741Y6636D01*
X50750Y6656D02*
X50947Y6656D01*
X50947Y6676D02*
X50761Y6676D01*
X50776Y6695D02*
X50947Y6695D01*
X50947Y6715D02*
X50801Y6715D01*
X50851Y6735D02*
X50947Y6735D01*
X51046Y6656D02*
X51356Y6656D01*
X51366Y6636D02*
X51035Y6636D01*
X51025Y6616D02*
X51374Y6616D01*
X51380Y6596D02*
X51017Y6596D01*
X51009Y6576D02*
X51164Y6576D01*
X51148Y6556D02*
X51001Y6556D01*
X50994Y6537D02*
X51139Y6537D01*
X51131Y6517D02*
X50986Y6517D01*
X50977Y6497D02*
X51124Y6497D01*
X51116Y6477D02*
X50965Y6477D01*
X50938Y6457D02*
X51109Y6457D01*
X51184Y6457D02*
X51383Y6457D01*
X51387Y6477D02*
X51263Y6477D01*
X51275Y6497D02*
X51388Y6497D01*
X51389Y6517D02*
X51279Y6517D01*
X51278Y6537D02*
X51388Y6537D01*
X51387Y6556D02*
X51272Y6556D01*
X51258Y6576D02*
X51385Y6576D01*
X51342Y6676D02*
X51059Y6676D01*
X51078Y6695D02*
X51324Y6695D01*
X51295Y6715D02*
X51104Y6715D01*
X51160Y6735D02*
X51233Y6735D01*
X51371Y6773D02*
X50742Y6773D01*
X50742Y6917D01*
X50815Y6917D01*
X50815Y6918D01*
X50818Y6917D01*
X50777Y6943D01*
X50750Y6978D01*
X50735Y7018D01*
X50731Y7065D01*
X50734Y7100D01*
X50742Y7130D01*
X50754Y7155D01*
X50772Y7176D01*
X50796Y7192D01*
X50826Y7204D01*
X50863Y7212D01*
X50906Y7215D01*
X51374Y7215D01*
X51374Y7065D01*
X50940Y7065D01*
X50898Y7061D01*
X50871Y7048D01*
X50856Y7029D01*
X50851Y7000D01*
X50857Y6966D01*
X50864Y6952D01*
X50876Y6942D01*
X50910Y6927D01*
X50955Y6922D01*
X51371Y6922D01*
X51371Y6773D01*
X50742Y6775D01*
X50742Y6795D02*
X51371Y6795D01*
X51371Y6815D02*
X50742Y6815D01*
X50742Y6834D02*
X51371Y6834D01*
X51371Y6854D02*
X50742Y6854D01*
X50742Y6874D02*
X51371Y6874D01*
X51371Y6894D02*
X50742Y6894D01*
X50742Y6914D02*
X51371Y6914D01*
X51374Y7073D02*
X50732Y7073D01*
X50733Y7093D02*
X51374Y7093D01*
X51374Y7112D02*
X50737Y7112D01*
X50743Y7132D02*
X51374Y7132D01*
X51374Y7152D02*
X50752Y7152D01*
X50768Y7172D02*
X51374Y7172D01*
X51374Y7192D02*
X50794Y7192D01*
X50861Y7212D02*
X51374Y7212D01*
X51579Y7299D02*
X50745Y7299D01*
X50745Y7443D01*
X51411Y7443D01*
X51411Y7446D01*
X51188Y7492D01*
X50967Y7539D01*
X50745Y7586D01*
X50745Y7707D01*
X50967Y7753D01*
X51188Y7800D01*
X51411Y7847D01*
X51411Y7848D01*
X50745Y7848D01*
X50745Y7992D01*
X51579Y7992D01*
X51579Y7758D01*
X51382Y7721D01*
X51186Y7683D01*
X50989Y7645D01*
X50989Y7644D01*
X51186Y7606D01*
X51382Y7569D01*
X51579Y7531D01*
X51579Y7299D01*
X51579Y7311D02*
X50745Y7311D01*
X50745Y7331D02*
X51579Y7331D01*
X51579Y7351D02*
X50745Y7351D01*
X50745Y7370D02*
X51579Y7370D01*
X51579Y7390D02*
X50745Y7390D01*
X50745Y7410D02*
X51579Y7410D01*
X51579Y7430D02*
X50745Y7430D01*
X50680Y7430D02*
X49846Y7430D01*
X49846Y7450D02*
X50680Y7450D01*
X50680Y7470D02*
X49846Y7470D01*
X49846Y7490D02*
X50680Y7490D01*
X50678Y7539D02*
X50541Y7539D01*
X50541Y7709D01*
X49843Y7709D01*
X49843Y7865D01*
X50541Y7865D01*
X50541Y8034D01*
X50678Y8034D01*
X50678Y7539D01*
X50678Y7549D02*
X50541Y7549D01*
X50541Y7569D02*
X50678Y7569D01*
X50678Y7589D02*
X50541Y7589D01*
X50541Y7609D02*
X50678Y7609D01*
X50678Y7629D02*
X50541Y7629D01*
X50541Y7648D02*
X50678Y7648D01*
X50678Y7668D02*
X50541Y7668D01*
X50541Y7688D02*
X50678Y7688D01*
X50678Y7708D02*
X50541Y7708D01*
X50678Y7728D02*
X49843Y7728D01*
X49843Y7748D02*
X50678Y7748D01*
X50678Y7767D02*
X49843Y7767D01*
X49843Y7787D02*
X50678Y7787D01*
X50678Y7807D02*
X49843Y7807D01*
X49843Y7827D02*
X50678Y7827D01*
X50678Y7847D02*
X49843Y7847D01*
X49688Y7549D02*
X49120Y7549D01*
X49025Y7569D02*
X49584Y7569D01*
X49480Y7589D02*
X48946Y7589D01*
X48946Y7609D02*
X49376Y7609D01*
X49846Y7410D02*
X50680Y7410D01*
X50680Y7390D02*
X49846Y7390D01*
X49846Y7370D02*
X50680Y7370D01*
X50680Y7351D02*
X49846Y7351D01*
X50551Y6970D02*
X50689Y6970D01*
X50689Y6821D01*
X50551Y6821D01*
X50551Y6970D01*
X50551Y6954D02*
X50689Y6954D01*
X50689Y6934D02*
X50551Y6934D01*
X50551Y6914D02*
X50689Y6914D01*
X50689Y6894D02*
X50551Y6894D01*
X50551Y6874D02*
X50689Y6874D01*
X50689Y6854D02*
X50551Y6854D01*
X50551Y6834D02*
X50689Y6834D01*
X50792Y6934D02*
X50895Y6934D01*
X50864Y6954D02*
X50770Y6954D01*
X50754Y6973D02*
X50856Y6973D01*
X50852Y6993D02*
X50745Y6993D01*
X50737Y7013D02*
X50853Y7013D01*
X50859Y7033D02*
X50734Y7033D01*
X50732Y7053D02*
X50880Y7053D01*
X49569Y6894D02*
X48952Y6894D01*
X48965Y6874D02*
X49558Y6874D01*
X49545Y6854D02*
X48979Y6854D01*
X49001Y6834D02*
X49524Y6834D01*
X49495Y6815D02*
X49032Y6815D01*
X49080Y6795D02*
X49448Y6795D01*
X49442Y6735D02*
X49080Y6735D01*
X49023Y6715D02*
X49499Y6715D01*
X49532Y6695D02*
X48991Y6695D01*
X48970Y6676D02*
X49554Y6676D01*
X49569Y6656D02*
X48955Y6656D01*
X48946Y6636D02*
X49578Y6636D01*
X49320Y6775D02*
X49197Y6775D01*
X50315Y6576D02*
X50419Y6576D01*
X50864Y6318D02*
X50987Y6318D01*
X51184Y6338D02*
X51293Y6338D01*
X51326Y6358D02*
X51184Y6358D01*
X51184Y6378D02*
X51347Y6378D01*
X51362Y6398D02*
X51184Y6398D01*
X51184Y6418D02*
X51371Y6418D01*
X51378Y6437D02*
X51184Y6437D01*
X51451Y6226D02*
X51589Y6226D01*
X51589Y6077D01*
X51451Y6077D01*
X51451Y6226D01*
X51451Y6219D02*
X51589Y6219D01*
X51589Y6199D02*
X51451Y6199D01*
X51451Y6179D02*
X51589Y6179D01*
X51589Y6160D02*
X51451Y6160D01*
X51451Y6140D02*
X51589Y6140D01*
X51589Y6120D02*
X51451Y6120D01*
X51451Y6100D02*
X51589Y6100D01*
X51589Y6080D02*
X51451Y6080D01*
X51324Y5921D02*
X50781Y5921D01*
X50763Y5901D02*
X51342Y5901D01*
X51357Y5882D02*
X50753Y5882D01*
X50743Y5862D02*
X51367Y5862D01*
X51295Y5941D02*
X50805Y5941D01*
X50842Y5961D02*
X51255Y5961D01*
X51185Y5981D02*
X50912Y5981D01*
X50222Y6219D02*
X50089Y6219D01*
X49779Y6437D02*
X49011Y6437D01*
X51108Y7509D02*
X51579Y7509D01*
X51579Y7529D02*
X51013Y7529D01*
X50918Y7549D02*
X51486Y7549D01*
X51382Y7569D02*
X50824Y7569D01*
X50745Y7589D02*
X51278Y7589D01*
X51174Y7609D02*
X50745Y7609D01*
X50745Y7629D02*
X51070Y7629D01*
X51108Y7668D02*
X50745Y7668D01*
X50745Y7688D02*
X51212Y7688D01*
X51316Y7708D02*
X50749Y7708D01*
X50745Y7648D02*
X51004Y7648D01*
X50938Y7748D02*
X51524Y7748D01*
X51579Y7767D02*
X51033Y7767D01*
X51128Y7787D02*
X51579Y7787D01*
X51579Y7807D02*
X51223Y7807D01*
X51317Y7827D02*
X51579Y7827D01*
X51579Y7847D02*
X51411Y7847D01*
X51420Y7728D02*
X50844Y7728D01*
X50745Y7867D02*
X51579Y7867D01*
X51579Y7887D02*
X50745Y7887D01*
X50745Y7906D02*
X51579Y7906D01*
X51579Y7926D02*
X50745Y7926D01*
X50745Y7946D02*
X51579Y7946D01*
X51579Y7966D02*
X50745Y7966D01*
X50745Y7986D02*
X51579Y7986D01*
X50678Y7986D02*
X50541Y7986D01*
X50541Y7966D02*
X50678Y7966D01*
X50678Y7946D02*
X50541Y7946D01*
X50541Y7926D02*
X50678Y7926D01*
X50678Y7906D02*
X50541Y7906D01*
X50541Y7887D02*
X50678Y7887D01*
X50678Y7867D02*
X50541Y7867D01*
X50541Y8006D02*
X50678Y8006D01*
X50678Y8025D02*
X50541Y8025D01*
X51203Y7490D02*
X51579Y7490D01*
X51579Y7470D02*
X51297Y7470D01*
X51392Y7450D02*
X51579Y7450D01*
D11*
X1370Y6010D02*
X1370Y1020D01*
X8797Y1020D01*
X8718Y1099D01*
X8718Y1276D01*
X8702Y1301D01*
X8718Y1368D01*
X8718Y1436D01*
X8739Y1457D01*
X8746Y1486D01*
X8804Y1522D01*
X8808Y1526D01*
X8718Y1616D01*
X8718Y1858D01*
X8699Y1913D01*
X8718Y1950D01*
X8718Y2038D01*
X8700Y2097D01*
X8718Y2130D01*
X8718Y2167D01*
X8761Y2211D01*
X8790Y2265D01*
X8826Y2276D01*
X8833Y2282D01*
X8828Y2287D01*
X8793Y2297D01*
X8763Y2352D01*
X8718Y2397D01*
X8718Y2432D01*
X8701Y2464D01*
X8718Y2524D01*
X8718Y2591D01*
X8718Y2592D01*
X8718Y2609D01*
X8700Y2645D01*
X8718Y2699D01*
X8718Y4018D01*
X8761Y4061D01*
X8760Y4064D01*
X8725Y4090D01*
X8717Y4145D01*
X8691Y4194D01*
X8704Y4236D01*
X8701Y4257D01*
X8677Y4293D01*
X8689Y4348D01*
X8681Y4403D01*
X8707Y4437D01*
X8725Y4524D01*
X8717Y4580D01*
X8743Y4614D01*
X8751Y4656D01*
X8798Y4687D01*
X8850Y4756D01*
X8866Y4808D01*
X8905Y4829D01*
X8933Y4866D01*
X8986Y4873D01*
X9048Y4907D01*
X9074Y4942D01*
X9128Y4950D01*
X9177Y4977D01*
X9219Y4964D01*
X9296Y4976D01*
X9327Y4998D01*
X9387Y4989D01*
X9446Y4998D01*
X9477Y4975D01*
X9550Y4964D01*
X9593Y4976D01*
X9641Y4950D01*
X9695Y4942D01*
X9721Y4906D01*
X9781Y4874D01*
X9832Y4867D01*
X9861Y4830D01*
X9902Y4808D01*
X9917Y4758D01*
X9969Y4691D01*
X10016Y4660D01*
X10025Y4618D01*
X10051Y4585D01*
X10044Y4529D01*
X10062Y4444D01*
X10088Y4409D01*
X10080Y4355D01*
X10092Y4301D01*
X10068Y4264D01*
X10064Y4240D01*
X10077Y4199D01*
X10051Y4149D01*
X10043Y4093D01*
X10009Y4068D01*
X10006Y4062D01*
X10050Y4018D01*
X10050Y3666D01*
X9936Y3552D01*
X10050Y3438D01*
X10050Y2627D01*
X9984Y2561D01*
X10009Y2510D01*
X10051Y2469D01*
X10051Y2428D01*
X10069Y2392D01*
X10051Y2338D01*
X10051Y2294D01*
X10051Y2222D01*
X10069Y2170D01*
X10050Y2133D01*
X10050Y2092D01*
X10009Y2051D01*
X9992Y2018D01*
X10050Y1960D01*
X10050Y1775D01*
X10066Y1750D01*
X10050Y1683D01*
X10050Y1615D01*
X10029Y1594D01*
X10022Y1564D01*
X9964Y1529D01*
X10050Y1443D01*
X10050Y1099D01*
X9971Y1020D01*
X51441Y1020D01*
X51441Y5386D01*
X51425Y5369D01*
X51397Y5368D01*
X51388Y5353D01*
X51358Y5347D01*
X51329Y5329D01*
X51314Y5332D01*
X51306Y5323D01*
X51272Y5321D01*
X51241Y5309D01*
X51229Y5314D01*
X51209Y5314D01*
X51154Y5302D01*
X51136Y5313D01*
X51063Y5309D01*
X51058Y5313D01*
X50995Y5316D01*
X50981Y5307D01*
X50924Y5317D01*
X50899Y5317D01*
X50884Y5310D01*
X50848Y5324D01*
X50821Y5325D01*
X50812Y5335D01*
X50792Y5330D01*
X50769Y5345D01*
X50743Y5349D01*
X50729Y5369D01*
X50727Y5370D01*
X50696Y5370D01*
X50679Y5388D01*
X50662Y5394D01*
X50652Y5416D01*
X50650Y5418D01*
X50635Y5428D01*
X50611Y5435D01*
X50605Y5447D01*
X50594Y5454D01*
X50589Y5476D01*
X50581Y5492D01*
X50566Y5507D01*
X50549Y5517D01*
X50546Y5529D01*
X50536Y5539D01*
X50536Y5548D01*
X50010Y5548D01*
X50010Y5507D01*
X49875Y5372D01*
X49826Y5372D01*
X49834Y5361D01*
X49826Y5324D01*
X49830Y5303D01*
X49825Y5296D01*
X49827Y5292D01*
X49823Y5274D01*
X49826Y5235D01*
X49811Y5217D01*
X49811Y5217D01*
X49820Y5191D01*
X49808Y5165D01*
X49807Y5142D01*
X49791Y5128D01*
X49791Y5127D01*
X49790Y5122D01*
X49791Y5105D01*
X49805Y5092D01*
X49805Y4948D01*
X49805Y4852D01*
X49805Y4832D01*
X49816Y4812D01*
X49820Y4808D01*
X49820Y4806D01*
X49829Y4790D01*
X49824Y4774D01*
X49826Y4772D01*
X49938Y4905D01*
X50210Y5062D01*
X50519Y5117D01*
X50829Y5062D01*
X51101Y4905D01*
X51302Y4665D01*
X51410Y4370D01*
X51410Y4265D01*
X51410Y3161D01*
X51410Y3056D01*
X51302Y2761D01*
X51101Y2520D01*
X50829Y2363D01*
X50519Y2309D01*
X50210Y2363D01*
X49938Y2520D01*
X49736Y2761D01*
X49629Y3056D01*
X49629Y3161D01*
X49629Y4265D01*
X49629Y4370D01*
X49657Y4447D01*
X49575Y4456D01*
X49521Y4456D01*
X49514Y4450D01*
X49426Y4456D01*
X49338Y4456D01*
X49332Y4462D01*
X49324Y4462D01*
X49266Y4528D01*
X49203Y4591D01*
X49203Y4599D01*
X49198Y4605D01*
X49199Y4617D01*
X48849Y4617D01*
X48714Y4751D01*
X48714Y4981D01*
X48712Y4984D01*
X48712Y5047D01*
X48694Y5107D01*
X48712Y5139D01*
X48712Y5182D01*
X48693Y5234D01*
X48706Y5262D01*
X48697Y5279D01*
X48705Y5308D01*
X48695Y5320D01*
X48697Y5344D01*
X48688Y5376D01*
X48698Y5394D01*
X48687Y5418D01*
X48699Y5451D01*
X48697Y5477D01*
X48710Y5491D01*
X48705Y5523D01*
X48713Y5535D01*
X48714Y5546D01*
X48716Y5547D01*
X48716Y5714D01*
X48712Y5719D01*
X48712Y5953D01*
X48711Y5954D01*
X48712Y5961D01*
X48712Y5988D01*
X48709Y6010D01*
X48706Y6019D01*
X48693Y6034D01*
X48695Y6049D01*
X48687Y6071D01*
X48696Y6091D01*
X48688Y6104D01*
X48697Y6141D01*
X48693Y6181D01*
X48693Y6181D01*
X48693Y6183D01*
X48710Y6220D01*
X48714Y6257D01*
X48714Y6258D01*
X48714Y6420D01*
X48711Y6424D01*
X48712Y6427D01*
X48707Y6431D01*
X48707Y6478D01*
X48697Y6499D01*
X48695Y6500D01*
X48696Y6501D01*
X48690Y6512D01*
X48694Y6522D01*
X48690Y6532D01*
X48701Y6558D01*
X48703Y6571D01*
X48702Y6577D01*
X48690Y6603D01*
X48697Y6624D01*
X48695Y6642D01*
X48711Y6661D01*
X48713Y6666D01*
X48715Y6689D01*
X48711Y6716D01*
X48719Y6726D01*
X48719Y6733D01*
X48733Y6744D01*
X48748Y6764D01*
X48749Y6768D01*
X48739Y6801D01*
X48724Y6825D01*
X48714Y6834D01*
X48713Y6843D01*
X48705Y6855D01*
X48710Y6877D01*
X48708Y6904D01*
X48703Y6922D01*
X48701Y6923D01*
X48701Y6924D01*
X48692Y6936D01*
X48694Y6952D01*
X48688Y6971D01*
X48698Y6990D01*
X48700Y7007D01*
X48700Y7009D01*
X48700Y7016D01*
X48686Y7040D01*
X48695Y7070D01*
X48694Y7082D01*
X48701Y7090D01*
X48701Y7114D01*
X48707Y7120D01*
X48708Y7140D01*
X48704Y7159D01*
X48710Y7170D01*
X48710Y7176D01*
X48718Y7183D01*
X48726Y7194D01*
X48716Y7204D01*
X48716Y7517D01*
X48701Y7539D01*
X48716Y7609D01*
X48716Y7683D01*
X48701Y7753D01*
X48716Y7776D01*
X48716Y8087D01*
X48851Y8222D01*
X49875Y8222D01*
X50003Y8094D01*
X50310Y8094D01*
X50310Y8129D01*
X50414Y8233D01*
X50210Y8269D01*
X49938Y8426D01*
X49736Y8666D01*
X49629Y8961D01*
X49629Y9066D01*
X49629Y10170D01*
X49629Y10275D01*
X49736Y10570D01*
X49938Y10811D01*
X50210Y10968D01*
X50519Y11022D01*
X50829Y10968D01*
X51101Y10811D01*
X51302Y10570D01*
X51410Y10275D01*
X51410Y10170D01*
X51410Y9067D01*
X51410Y8961D01*
X51302Y8666D01*
X51101Y8426D01*
X50829Y8269D01*
X50778Y8260D01*
X50816Y8222D01*
X51441Y8222D01*
X51441Y12311D01*
X1370Y12311D01*
X1370Y8060D01*
X1398Y8068D01*
X1427Y8096D01*
X1434Y8128D01*
X1492Y8162D01*
X1538Y8209D01*
X1571Y8209D01*
X1577Y8213D01*
X1595Y8244D01*
X1655Y8260D01*
X1709Y8292D01*
X1744Y8284D01*
X1758Y8287D01*
X1776Y8307D01*
X1848Y8311D01*
X1889Y8322D01*
X1710Y8426D01*
X1508Y8666D01*
X1401Y8961D01*
X1401Y9066D01*
X1401Y10170D01*
X1401Y10275D01*
X1508Y10570D01*
X1710Y10811D01*
X1982Y10968D01*
X2291Y11022D01*
X2600Y10968D01*
X2872Y10811D01*
X3074Y10570D01*
X3181Y10275D01*
X3181Y10170D01*
X3181Y9067D01*
X3181Y8961D01*
X3074Y8666D01*
X2872Y8426D01*
X2701Y8327D01*
X3294Y8327D01*
X3297Y8329D01*
X4490Y8329D01*
X4625Y8195D01*
X4625Y7898D01*
X4625Y7897D01*
X4625Y7856D01*
X4643Y7820D01*
X4635Y7794D01*
X4625Y7727D01*
X4625Y7707D01*
X4624Y7706D01*
X4624Y7638D01*
X4612Y7625D01*
X4608Y7601D01*
X4621Y7559D01*
X4596Y7510D01*
X4588Y7455D01*
X4560Y7434D01*
X4625Y7370D01*
X4625Y6994D01*
X4538Y6908D01*
X4541Y6903D01*
X4588Y6873D01*
X4597Y6831D01*
X4623Y6797D01*
X4616Y6741D01*
X4639Y6631D01*
X4666Y6596D01*
X4658Y6542D01*
X4670Y6488D01*
X4646Y6451D01*
X4640Y6408D01*
X4653Y6367D01*
X4627Y6317D01*
X4619Y6262D01*
X4585Y6236D01*
X4570Y6208D01*
X4569Y6193D01*
X4624Y6139D01*
X4624Y5763D01*
X4520Y5659D01*
X4550Y5629D01*
X4616Y5574D01*
X4617Y5563D01*
X4625Y5555D01*
X4625Y5470D01*
X4632Y5385D01*
X4625Y5376D01*
X4625Y5252D01*
X4631Y5166D01*
X4625Y5158D01*
X4625Y5148D01*
X4563Y5087D01*
X4507Y5021D01*
X4497Y5020D01*
X4490Y5013D01*
X4403Y5013D01*
X4317Y5006D01*
X4309Y5013D01*
X4299Y5013D01*
X4238Y5074D01*
X4072Y5217D01*
X3984Y5292D01*
X3898Y5242D01*
X3532Y5032D01*
X3486Y4986D01*
X3452Y4986D01*
X3423Y4969D01*
X3360Y4986D01*
X3295Y4986D01*
X3271Y5010D01*
X3239Y5019D01*
X3206Y5075D01*
X3161Y5120D01*
X3161Y5154D01*
X3156Y5162D01*
X3146Y5138D01*
X3092Y5116D01*
X3047Y5078D01*
X3007Y5081D01*
X2962Y5063D01*
X2941Y5035D01*
X2877Y5028D01*
X2819Y5003D01*
X2786Y5017D01*
X2720Y5009D01*
X2707Y5001D01*
X2872Y4905D01*
X3074Y4665D01*
X3181Y4370D01*
X3181Y4265D01*
X3181Y3161D01*
X3181Y3056D01*
X3074Y2761D01*
X2872Y2520D01*
X2600Y2363D01*
X2291Y2309D01*
X1982Y2363D01*
X1710Y2520D01*
X1508Y2761D01*
X1401Y3056D01*
X1401Y3161D01*
X1401Y4265D01*
X1401Y4370D01*
X1508Y4665D01*
X1710Y4905D01*
X1982Y5062D01*
X2229Y5106D01*
X2217Y5124D01*
X2077Y5229D01*
X2026Y5244D01*
X2004Y5284D01*
X1967Y5311D01*
X1960Y5364D01*
X1886Y5498D01*
X1848Y5528D01*
X1842Y5578D01*
X1818Y5622D01*
X1831Y5669D01*
X1818Y5784D01*
X1807Y5795D01*
X1807Y5877D01*
X1797Y5958D01*
X1807Y5970D01*
X1807Y6010D01*
X1370Y6010D01*
X1370Y5878D02*
X1806Y5878D01*
X1844Y5558D02*
X1370Y5558D01*
X1370Y5238D02*
X2046Y5238D01*
X1732Y4918D02*
X1370Y4918D01*
X1370Y4598D02*
X1484Y4598D01*
X1401Y4278D02*
X1370Y4278D01*
X1370Y3958D02*
X1401Y3958D01*
X1401Y3639D02*
X1370Y3639D01*
X1370Y3319D02*
X1401Y3319D01*
X1421Y2999D02*
X1370Y2999D01*
X1370Y2679D02*
X1576Y2679D01*
X1370Y2359D02*
X2004Y2359D01*
X2578Y2359D02*
X8756Y2359D01*
X8717Y2039D02*
X1370Y2039D01*
X1370Y1720D02*
X8718Y1720D01*
X8718Y1400D02*
X1370Y1400D01*
X1370Y1080D02*
X8737Y1080D01*
X10031Y1080D02*
X51441Y1080D01*
X51441Y1400D02*
X10050Y1400D01*
X10059Y1720D02*
X51441Y1720D01*
X51441Y2039D02*
X10003Y2039D01*
X10058Y2359D02*
X50232Y2359D01*
X50807Y2359D02*
X51441Y2359D01*
X51441Y2679D02*
X51234Y2679D01*
X51389Y2999D02*
X51441Y2999D01*
X51441Y3319D02*
X51410Y3319D01*
X51410Y3639D02*
X51441Y3639D01*
X51441Y3958D02*
X51410Y3958D01*
X51410Y4278D02*
X51441Y4278D01*
X51441Y4598D02*
X51327Y4598D01*
X51441Y4918D02*
X51079Y4918D01*
X51441Y5238D02*
X49826Y5238D01*
X49805Y4918D02*
X49960Y4918D01*
X49203Y4598D02*
X45114Y4598D01*
X44885Y4338D02*
X45350Y4865D01*
X45714Y5466D01*
X45966Y6121D01*
X46047Y6546D01*
X46061Y6522D01*
X46256Y6327D01*
X46495Y6189D01*
X46762Y6118D01*
X47037Y6118D01*
X47304Y6189D01*
X47542Y6327D01*
X47737Y6522D01*
X47875Y6761D01*
X47947Y7028D01*
X47947Y7303D01*
X47875Y7570D01*
X47737Y7809D01*
X47542Y8004D01*
X47304Y8142D01*
X47037Y8213D01*
X46762Y8213D01*
X46495Y8142D01*
X46256Y8004D01*
X46061Y7809D01*
X46047Y7785D01*
X45966Y8209D01*
X45714Y8865D01*
X45350Y9466D01*
X44885Y9992D01*
X44334Y10428D01*
X43714Y10759D01*
X43045Y10975D01*
X42349Y11068D01*
X42004Y11053D01*
X21716Y11053D01*
X21371Y11068D01*
X20675Y10975D01*
X20006Y10759D01*
X19386Y10428D01*
X18835Y9992D01*
X18370Y9466D01*
X18006Y8865D01*
X17754Y8209D01*
X17673Y7785D01*
X17659Y7809D01*
X17464Y8004D01*
X17225Y8142D01*
X16958Y8213D01*
X16683Y8213D01*
X16416Y8142D01*
X16177Y8004D01*
X15982Y7809D01*
X15845Y7570D01*
X15773Y7303D01*
X15773Y7028D01*
X15845Y6761D01*
X15982Y6522D01*
X16177Y6327D01*
X16416Y6189D01*
X16683Y6118D01*
X16958Y6118D01*
X17225Y6189D01*
X17464Y6327D01*
X17659Y6522D01*
X17673Y6546D01*
X17754Y6121D01*
X18006Y5466D01*
X18370Y4865D01*
X18835Y4338D01*
X19386Y3903D01*
X20006Y3572D01*
X20675Y3356D01*
X21371Y3263D01*
X21716Y3278D01*
X42004Y3278D01*
X42349Y3263D01*
X43045Y3356D01*
X43714Y3572D01*
X44334Y3903D01*
X44885Y4338D01*
X44809Y4278D02*
X49629Y4278D01*
X49629Y3958D02*
X44404Y3958D01*
X43839Y3639D02*
X49629Y3639D01*
X49629Y3319D02*
X42765Y3319D01*
X45382Y4918D02*
X48714Y4918D01*
X48695Y5238D02*
X45576Y5238D01*
X45750Y5558D02*
X48716Y5558D01*
X48712Y5878D02*
X45873Y5878D01*
X45981Y6198D02*
X46481Y6198D01*
X46066Y6517D02*
X46042Y6517D01*
X47318Y6198D02*
X48700Y6198D01*
X48692Y6517D02*
X47732Y6517D01*
X47896Y6837D02*
X48713Y6837D01*
X48704Y7157D02*
X47947Y7157D01*
X47900Y7477D02*
X48716Y7477D01*
X48716Y7797D02*
X47744Y7797D01*
X47347Y8117D02*
X48745Y8117D01*
X49929Y8436D02*
X45879Y8436D01*
X45984Y8117D02*
X46452Y8117D01*
X46054Y7797D02*
X46045Y7797D01*
X45756Y8756D02*
X49704Y8756D01*
X49629Y9076D02*
X45586Y9076D01*
X45392Y9396D02*
X49629Y9396D01*
X49629Y9716D02*
X45129Y9716D01*
X44830Y10036D02*
X49629Y10036D01*
X49658Y10356D02*
X44425Y10356D01*
X43870Y10675D02*
X49825Y10675D01*
X50365Y10995D02*
X42891Y10995D01*
X50674Y10995D02*
X51441Y10995D01*
X51441Y10675D02*
X51214Y10675D01*
X51381Y10356D02*
X51441Y10356D01*
X51441Y10036D02*
X51410Y10036D01*
X51410Y9716D02*
X51441Y9716D01*
X51441Y9396D02*
X51410Y9396D01*
X51410Y9076D02*
X51441Y9076D01*
X51441Y8756D02*
X51335Y8756D01*
X51441Y8436D02*
X51110Y8436D01*
X50310Y8117D02*
X49981Y8117D01*
X51441Y11315D02*
X16809Y11315D01*
X16809Y11418D02*
X16674Y11553D01*
X15611Y11553D01*
X15477Y11418D01*
X15477Y11067D01*
X15611Y10932D01*
X15844Y10932D01*
X15844Y10896D01*
X15840Y10894D01*
X15788Y10890D01*
X15757Y10855D01*
X15740Y10847D01*
X15682Y10839D01*
X15657Y10807D01*
X15621Y10790D01*
X15601Y10735D01*
X15554Y10673D01*
X15506Y10641D01*
X15498Y10601D01*
X15473Y10568D01*
X15480Y10511D01*
X15464Y10431D01*
X15437Y10393D01*
X15446Y10341D01*
X15436Y10289D01*
X15462Y10251D01*
X15471Y10199D01*
X15460Y10151D01*
X15486Y10109D01*
X15493Y10069D01*
X15477Y10053D01*
X15477Y8597D01*
X15458Y8560D01*
X15477Y8505D01*
X15477Y8447D01*
X15506Y8418D01*
X15518Y8379D01*
X15570Y8353D01*
X15611Y8312D01*
X15652Y8312D01*
X15689Y8294D01*
X15744Y8312D01*
X15802Y8312D01*
X15803Y8313D01*
X15946Y8313D01*
X16081Y8448D01*
X16081Y8541D01*
X16082Y8540D01*
X16295Y8371D01*
X16353Y8313D01*
X16369Y8313D01*
X16380Y8304D01*
X16462Y8313D01*
X16675Y8313D01*
X16809Y8448D01*
X16809Y10012D01*
X16809Y10013D01*
X16809Y10254D01*
X16724Y10339D01*
X16809Y10423D01*
X16809Y11418D01*
X16809Y10995D02*
X20829Y10995D01*
X19850Y10675D02*
X16809Y10675D01*
X15556Y10675D02*
X2986Y10675D01*
X2445Y10995D02*
X15548Y10995D01*
X15477Y11315D02*
X1370Y11315D01*
X1370Y11635D02*
X51441Y11635D01*
X51441Y11955D02*
X1370Y11955D01*
X1370Y12275D02*
X51441Y12275D01*
X19882Y3639D02*
X10023Y3639D01*
X10050Y3958D02*
X19316Y3958D01*
X18911Y4278D02*
X10077Y4278D01*
X10040Y4598D02*
X18606Y4598D01*
X18338Y4918D02*
X9713Y4918D01*
X9056Y4918D02*
X2850Y4918D01*
X3098Y4598D02*
X8731Y4598D01*
X8687Y4278D02*
X3181Y4278D01*
X3181Y3958D02*
X8718Y3958D01*
X8718Y3639D02*
X3181Y3639D01*
X3181Y3319D02*
X8718Y3319D01*
X10050Y3319D02*
X20955Y3319D01*
X18144Y5238D02*
X4626Y5238D01*
X4047Y5238D02*
X3890Y5238D01*
X4622Y5558D02*
X17970Y5558D01*
X17847Y5878D02*
X4624Y5878D01*
X4570Y6198D02*
X16402Y6198D01*
X15988Y6517D02*
X4664Y6517D01*
X4596Y6837D02*
X15824Y6837D01*
X15773Y7157D02*
X4625Y7157D01*
X4591Y7477D02*
X15820Y7477D01*
X15976Y7797D02*
X4636Y7797D01*
X4625Y8117D02*
X16373Y8117D01*
X16213Y8436D02*
X16070Y8436D01*
X15487Y8436D02*
X2881Y8436D01*
X3107Y8756D02*
X15477Y8756D01*
X15477Y9076D02*
X3181Y9076D01*
X3181Y9396D02*
X15477Y9396D01*
X15477Y9716D02*
X3181Y9716D01*
X3181Y10036D02*
X15477Y10036D01*
X15444Y10356D02*
X3152Y10356D01*
X1596Y10675D02*
X1370Y10675D01*
X1370Y10995D02*
X2137Y10995D01*
X1430Y10356D02*
X1370Y10356D01*
X1370Y10036D02*
X1401Y10036D01*
X1401Y9716D02*
X1370Y9716D01*
X1370Y9396D02*
X1401Y9396D01*
X1401Y9076D02*
X1370Y9076D01*
X1370Y8756D02*
X1475Y8756D01*
X1370Y8436D02*
X1701Y8436D01*
X1432Y8117D02*
X1370Y8117D01*
X16798Y8436D02*
X17841Y8436D01*
X17736Y8117D02*
X17268Y8117D01*
X17666Y7797D02*
X17675Y7797D01*
X17964Y8756D02*
X16809Y8756D01*
X16809Y9076D02*
X18134Y9076D01*
X18328Y9396D02*
X16809Y9396D01*
X16809Y9716D02*
X18591Y9716D01*
X18890Y10036D02*
X16809Y10036D01*
X16741Y10356D02*
X19295Y10356D01*
X17678Y6517D02*
X17654Y6517D01*
X17739Y6198D02*
X17239Y6198D01*
X10050Y2999D02*
X49650Y2999D01*
X49805Y2679D02*
X10050Y2679D01*
X8711Y2679D02*
X3006Y2679D01*
X3161Y2999D02*
X8718Y2999D01*
D12*
X6810Y2957D03*
X13510Y9957D03*
D13*
X13260Y3207D03*
D14*
X8010Y8707D03*
D15*
X3337Y6639D03*
D16*
X16155Y9968D03*
D17*
X9443Y3098D03*
D18*
X50220Y6682D03*
D19*
X49040Y5056D03*
M02*
