%
M48
M72
T01C0.0130
T02C0.0177
T03C0.0276
T04C0.0320
T05C0.0400
T06C0.0440
T07C0.0787
T08C0.2520
%
T01
X12550Y5930
X14550Y6930
X13550Y7430
X13050Y8930
X15550Y2680
T02
X6570Y7694
X5034Y5410
X2239Y6119
X1530Y8914
X3814Y10450
T03
X10300Y8680
X11300Y8680
X9300Y2930
X9300Y1930
X7050Y1930
X7050Y2930
T04
X7300Y3930
X9300Y3930
X10550Y3430
X11800Y3930
X12800Y3930
X13800Y3930
X14800Y3930
X15800Y3930
X16800Y3930
X17800Y3930
X18800Y3430
X17550Y5180
X16550Y5180
X15550Y5180
X14550Y5180
X13550Y5180
X12550Y5180
X9300Y7930
X8300Y8430
X10800Y10180
X10300Y10930
X9300Y10930
X8300Y10430
X11300Y10930
X12300Y10680
X12300Y9680
X12550Y8180
X13550Y8180
X14550Y8180
X15550Y8180
X16550Y8180
X17550Y8180
X16050Y9680
X15300Y9680
X15300Y10680
X16050Y10680
X19050Y10680
X19050Y9680
X18800Y1430
X17800Y930
X16800Y930
X15800Y930
X14800Y930
X13800Y930
X12800Y930
X11800Y930
X10550Y1430
X9300Y930
X7300Y930
T05
X5300Y1980
X4300Y1880
X3300Y1980
X2300Y1880
X1300Y1980
X1300Y2980
X2300Y2880
X3300Y2980
X4300Y2880
X5300Y2980
X8300Y5610
X8300Y6750
X10850Y6930
X10750Y5930
X10850Y4930
T06
X1300Y930
X5300Y930
X5300Y3930
X1300Y3930
T07
X19050Y5180
X19050Y8180
T08
X4050Y7930
M30
