G75*
%MOIN*%
%OFA0B0*%
%FSLAX25Y25*%
%IPPOS*%
%LPD*%
%AMOC8*
5,1,8,0,0,1.08239X$1,22.5*
%
%ADD10C,0.00600*%
%ADD11C,0.00300*%
%ADD12C,0.00800*%
%ADD13R,0.02000X0.10000*%
%ADD14R,0.07500X0.03000*%
%ADD15C,0.00400*%
%ADD16C,0.00500*%
D10*
X0025000Y0004300D02*
X0025000Y0014300D01*
X0041000Y0014300D01*
X0041000Y0004300D01*
X0025000Y0004300D01*
X0030500Y0009300D02*
X0033000Y0009300D01*
X0033000Y0011800D01*
X0033000Y0009300D02*
X0033000Y0006800D01*
X0033000Y0009300D02*
X0037000Y0006800D01*
X0037000Y0011800D01*
X0033000Y0009300D01*
X0039000Y0009300D01*
X0068500Y0006300D02*
X0068500Y0012300D01*
X0070000Y0012300D01*
X0076000Y0012300D02*
X0090000Y0012300D01*
X0096000Y0012300D02*
X0097500Y0012300D01*
X0097500Y0006300D01*
X0097498Y0006213D01*
X0097492Y0006126D01*
X0097483Y0006039D01*
X0097470Y0005953D01*
X0097453Y0005867D01*
X0097432Y0005782D01*
X0097407Y0005699D01*
X0097379Y0005616D01*
X0097348Y0005535D01*
X0097313Y0005455D01*
X0097274Y0005377D01*
X0097232Y0005300D01*
X0097187Y0005225D01*
X0097138Y0005153D01*
X0097087Y0005082D01*
X0097032Y0005014D01*
X0096975Y0004949D01*
X0096914Y0004886D01*
X0096851Y0004825D01*
X0096786Y0004768D01*
X0096718Y0004713D01*
X0096647Y0004662D01*
X0096575Y0004613D01*
X0096500Y0004568D01*
X0096423Y0004526D01*
X0096345Y0004487D01*
X0096265Y0004452D01*
X0096184Y0004421D01*
X0096101Y0004393D01*
X0096018Y0004368D01*
X0095933Y0004347D01*
X0095847Y0004330D01*
X0095761Y0004317D01*
X0095674Y0004308D01*
X0095587Y0004302D01*
X0095500Y0004300D01*
X0070500Y0004300D01*
X0070413Y0004302D01*
X0070326Y0004308D01*
X0070239Y0004317D01*
X0070153Y0004330D01*
X0070067Y0004347D01*
X0069982Y0004368D01*
X0069899Y0004393D01*
X0069816Y0004421D01*
X0069735Y0004452D01*
X0069655Y0004487D01*
X0069577Y0004526D01*
X0069500Y0004568D01*
X0069425Y0004613D01*
X0069353Y0004662D01*
X0069282Y0004713D01*
X0069214Y0004768D01*
X0069149Y0004825D01*
X0069086Y0004886D01*
X0069025Y0004949D01*
X0068968Y0005014D01*
X0068913Y0005082D01*
X0068862Y0005153D01*
X0068813Y0005225D01*
X0068768Y0005300D01*
X0068726Y0005377D01*
X0068687Y0005455D01*
X0068652Y0005535D01*
X0068621Y0005616D01*
X0068593Y0005699D01*
X0068568Y0005782D01*
X0068547Y0005867D01*
X0068530Y0005953D01*
X0068517Y0006039D01*
X0068508Y0006126D01*
X0068502Y0006213D01*
X0068500Y0006300D01*
X0070500Y0034300D02*
X0095500Y0034300D01*
X0095587Y0034302D01*
X0095674Y0034308D01*
X0095761Y0034317D01*
X0095847Y0034330D01*
X0095933Y0034347D01*
X0096018Y0034368D01*
X0096101Y0034393D01*
X0096184Y0034421D01*
X0096265Y0034452D01*
X0096345Y0034487D01*
X0096423Y0034526D01*
X0096500Y0034568D01*
X0096575Y0034613D01*
X0096647Y0034662D01*
X0096718Y0034713D01*
X0096786Y0034768D01*
X0096851Y0034825D01*
X0096914Y0034886D01*
X0096975Y0034949D01*
X0097032Y0035014D01*
X0097087Y0035082D01*
X0097138Y0035153D01*
X0097187Y0035225D01*
X0097232Y0035300D01*
X0097274Y0035377D01*
X0097313Y0035455D01*
X0097348Y0035535D01*
X0097379Y0035616D01*
X0097407Y0035699D01*
X0097432Y0035782D01*
X0097453Y0035867D01*
X0097470Y0035953D01*
X0097483Y0036039D01*
X0097492Y0036126D01*
X0097498Y0036213D01*
X0097500Y0036300D01*
X0097500Y0042300D01*
X0096000Y0042300D01*
X0090000Y0042300D02*
X0076000Y0042300D01*
X0070000Y0042300D02*
X0068500Y0042300D01*
X0068500Y0036300D01*
X0068502Y0036213D01*
X0068508Y0036126D01*
X0068517Y0036039D01*
X0068530Y0035953D01*
X0068547Y0035867D01*
X0068568Y0035782D01*
X0068593Y0035699D01*
X0068621Y0035616D01*
X0068652Y0035535D01*
X0068687Y0035455D01*
X0068726Y0035377D01*
X0068768Y0035300D01*
X0068813Y0035225D01*
X0068862Y0035153D01*
X0068913Y0035082D01*
X0068968Y0035014D01*
X0069025Y0034949D01*
X0069086Y0034886D01*
X0069149Y0034825D01*
X0069214Y0034768D01*
X0069282Y0034713D01*
X0069353Y0034662D01*
X0069425Y0034613D01*
X0069500Y0034568D01*
X0069577Y0034526D01*
X0069655Y0034487D01*
X0069735Y0034452D01*
X0069816Y0034421D01*
X0069899Y0034393D01*
X0069982Y0034368D01*
X0070067Y0034347D01*
X0070153Y0034330D01*
X0070239Y0034317D01*
X0070326Y0034308D01*
X0070413Y0034302D01*
X0070500Y0034300D01*
X0041000Y0034300D02*
X0041000Y0044300D01*
X0025000Y0044300D01*
X0025000Y0034300D01*
X0041000Y0034300D01*
X0035500Y0039300D02*
X0033000Y0039300D01*
X0033000Y0036800D01*
X0033000Y0039300D02*
X0033000Y0041800D01*
X0033000Y0039300D02*
X0029000Y0041800D01*
X0029000Y0036800D01*
X0033000Y0039300D01*
X0027000Y0039300D01*
X0088430Y0052600D02*
X0092700Y0052600D01*
X0090565Y0052600D02*
X0090565Y0059005D01*
X0092700Y0056870D01*
X0113930Y0046100D02*
X0118200Y0046100D01*
X0116065Y0046100D02*
X0116065Y0052505D01*
X0118200Y0050370D01*
D11*
X0130762Y0056950D02*
X0130762Y0058551D01*
X0131296Y0059085D01*
X0132897Y0059085D01*
X0132897Y0056950D01*
X0133985Y0057484D02*
X0133985Y0058551D01*
X0134519Y0059085D01*
X0135586Y0059085D01*
X0136120Y0058551D01*
X0136120Y0057484D01*
X0135586Y0056950D01*
X0134519Y0056950D01*
X0133985Y0057484D01*
X0137208Y0056950D02*
X0138809Y0056950D01*
X0139343Y0057484D01*
X0139343Y0058551D01*
X0138809Y0059085D01*
X0137208Y0059085D01*
X0137208Y0060153D02*
X0137208Y0056950D01*
X0140430Y0056950D02*
X0140430Y0058551D01*
X0140964Y0059085D01*
X0142566Y0059085D01*
X0142566Y0056950D01*
X0143653Y0057484D02*
X0143653Y0058551D01*
X0144187Y0059085D01*
X0145255Y0059085D01*
X0145788Y0058551D01*
X0145788Y0057484D01*
X0145255Y0056950D01*
X0144187Y0056950D01*
X0143653Y0057484D01*
X0146876Y0056950D02*
X0149011Y0056950D01*
X0149011Y0060153D01*
X0149021Y0062200D02*
X0148487Y0062734D01*
X0148487Y0063801D01*
X0149021Y0064335D01*
X0150089Y0064335D01*
X0150623Y0063801D01*
X0150623Y0062734D01*
X0150089Y0062200D01*
X0149021Y0062200D01*
X0147400Y0062200D02*
X0147400Y0064335D01*
X0146866Y0064335D01*
X0146332Y0063801D01*
X0145798Y0064335D01*
X0145265Y0063801D01*
X0145265Y0062200D01*
X0146332Y0062200D02*
X0146332Y0063801D01*
X0151710Y0065403D02*
X0153845Y0065403D01*
X0152778Y0065403D02*
X0152778Y0062200D01*
X0155997Y0060153D02*
X0155997Y0056950D01*
X0156531Y0056950D02*
X0155463Y0056950D01*
X0154382Y0055882D02*
X0153315Y0056950D01*
X0153849Y0056950D01*
X0153849Y0057484D01*
X0153315Y0057484D01*
X0153315Y0056950D01*
X0157612Y0056950D02*
X0158679Y0056950D01*
X0158146Y0056950D02*
X0158146Y0060153D01*
X0158679Y0060153D01*
X0160294Y0060153D02*
X0160294Y0060687D01*
X0160291Y0062200D02*
X0160291Y0064335D01*
X0159223Y0065403D01*
X0158156Y0064335D01*
X0158156Y0062200D01*
X0156531Y0060153D02*
X0155997Y0060153D01*
X0158156Y0063801D02*
X0160291Y0063801D01*
X0161378Y0063268D02*
X0161912Y0063801D01*
X0162980Y0063801D01*
X0163514Y0064335D01*
X0163514Y0064869D01*
X0162980Y0065403D01*
X0161912Y0065403D01*
X0161378Y0064869D01*
X0161378Y0063268D02*
X0161378Y0062734D01*
X0161912Y0062200D01*
X0162980Y0062200D01*
X0163514Y0062734D01*
X0164601Y0063801D02*
X0166736Y0063801D01*
X0167824Y0064869D02*
X0167824Y0065403D01*
X0167824Y0064869D02*
X0168891Y0063801D01*
X0168891Y0062200D01*
X0171047Y0062734D02*
X0171580Y0062200D01*
X0173182Y0062200D01*
X0173182Y0065403D01*
X0171580Y0065403D01*
X0171047Y0064869D01*
X0171047Y0064335D01*
X0171580Y0063801D01*
X0173182Y0063801D01*
X0174269Y0063801D02*
X0176405Y0063801D01*
X0177492Y0062734D02*
X0178026Y0062200D01*
X0179093Y0062200D01*
X0179627Y0062734D01*
X0179627Y0064869D01*
X0179093Y0065403D01*
X0178026Y0065403D01*
X0177492Y0064869D01*
X0176945Y0067450D02*
X0175344Y0067450D01*
X0174256Y0067450D02*
X0174256Y0070653D01*
X0175344Y0069585D02*
X0176945Y0069585D01*
X0177479Y0069051D01*
X0177479Y0067984D01*
X0176945Y0067450D01*
X0178560Y0067450D02*
X0179627Y0067450D01*
X0179093Y0067450D02*
X0179093Y0069585D01*
X0179627Y0069585D01*
X0179093Y0070653D02*
X0179093Y0071187D01*
X0179093Y0072700D02*
X0177492Y0072700D01*
X0177492Y0074835D01*
X0176405Y0074301D02*
X0175871Y0073768D01*
X0174803Y0073768D01*
X0174269Y0073234D01*
X0174803Y0072700D01*
X0176405Y0072700D01*
X0176405Y0074301D02*
X0175871Y0074835D01*
X0174269Y0074835D01*
X0173182Y0074835D02*
X0172648Y0074835D01*
X0172648Y0072700D01*
X0173182Y0072700D02*
X0172114Y0072700D01*
X0171033Y0073234D02*
X0170499Y0072700D01*
X0168898Y0072700D01*
X0171033Y0073234D02*
X0171033Y0074301D01*
X0170499Y0074835D01*
X0168898Y0074835D01*
X0172648Y0075903D02*
X0172648Y0076437D01*
X0179627Y0074835D02*
X0179627Y0073234D01*
X0179093Y0072700D01*
X0180715Y0072700D02*
X0180715Y0075903D01*
X0181782Y0074835D01*
X0182850Y0075903D01*
X0182850Y0072700D01*
X0182850Y0070653D02*
X0181249Y0070653D01*
X0180715Y0070119D01*
X0180715Y0069051D01*
X0181249Y0068518D01*
X0182850Y0068518D01*
X0182850Y0067450D02*
X0182850Y0070653D01*
X0182316Y0065403D02*
X0182850Y0064869D01*
X0182850Y0062734D01*
X0182316Y0062200D01*
X0181249Y0062200D01*
X0180715Y0062734D01*
X0180715Y0064869D02*
X0181249Y0065403D01*
X0182316Y0065403D01*
X0182850Y0060153D02*
X0182850Y0056950D01*
X0182850Y0058551D02*
X0180715Y0058551D01*
X0179627Y0058551D02*
X0179627Y0057484D01*
X0179093Y0056950D01*
X0178026Y0056950D01*
X0177492Y0058018D02*
X0179627Y0058018D01*
X0179627Y0058551D02*
X0179093Y0059085D01*
X0178026Y0059085D01*
X0177492Y0058551D01*
X0177492Y0058018D01*
X0176405Y0058018D02*
X0175337Y0059085D01*
X0174803Y0059085D01*
X0173719Y0059085D02*
X0172118Y0059085D01*
X0171584Y0058551D01*
X0171584Y0056950D01*
X0170496Y0057484D02*
X0170496Y0058551D01*
X0169962Y0059085D01*
X0168895Y0059085D01*
X0168361Y0058551D01*
X0168361Y0058018D01*
X0170496Y0058018D01*
X0170496Y0057484D02*
X0169962Y0056950D01*
X0168895Y0056950D01*
X0173719Y0056950D02*
X0173719Y0059085D01*
X0176405Y0059085D02*
X0176405Y0056950D01*
X0180715Y0056950D02*
X0180715Y0060153D01*
X0171580Y0063801D02*
X0171047Y0063268D01*
X0171047Y0062734D01*
X0169959Y0064869D02*
X0168891Y0063801D01*
X0169959Y0064869D02*
X0169959Y0065403D01*
X0168348Y0066382D02*
X0168348Y0069585D01*
X0166746Y0069585D01*
X0166212Y0069051D01*
X0166212Y0067984D01*
X0166746Y0067450D01*
X0168348Y0067450D01*
X0169435Y0067450D02*
X0169435Y0069585D01*
X0171570Y0069585D02*
X0171570Y0067984D01*
X0171037Y0067450D01*
X0169435Y0067450D01*
X0172655Y0067450D02*
X0174256Y0068518D01*
X0172655Y0069585D01*
X0163520Y0072700D02*
X0163520Y0075903D01*
X0162453Y0075903D02*
X0164588Y0075903D01*
X0161365Y0075903D02*
X0161365Y0072700D01*
X0161365Y0074301D02*
X0160831Y0074835D01*
X0159764Y0074835D01*
X0159230Y0074301D01*
X0159230Y0072700D01*
X0158142Y0072700D02*
X0157075Y0072700D01*
X0157608Y0072700D02*
X0157608Y0074835D01*
X0158142Y0074835D01*
X0157608Y0075903D02*
X0157608Y0076437D01*
X0155994Y0074835D02*
X0154392Y0074835D01*
X0153859Y0074301D01*
X0153859Y0072700D01*
X0152771Y0073234D02*
X0152237Y0072700D01*
X0150636Y0072700D01*
X0150636Y0072166D02*
X0150636Y0074835D01*
X0152237Y0074835D01*
X0152771Y0074301D01*
X0152771Y0073234D01*
X0151170Y0071632D02*
X0150636Y0072166D01*
X0151170Y0071632D02*
X0151703Y0071632D01*
X0152234Y0070653D02*
X0152234Y0067450D01*
X0152234Y0068518D02*
X0150633Y0069585D01*
X0152234Y0068518D02*
X0150633Y0067450D01*
X0153321Y0067450D02*
X0154923Y0067450D01*
X0155457Y0067984D01*
X0155457Y0069051D01*
X0154923Y0069585D01*
X0153321Y0069585D01*
X0156544Y0069051D02*
X0156544Y0067450D01*
X0158146Y0067450D01*
X0158679Y0067984D01*
X0158146Y0068518D01*
X0156544Y0068518D01*
X0156544Y0069051D02*
X0157078Y0069585D01*
X0158146Y0069585D01*
X0159767Y0069585D02*
X0160301Y0069051D01*
X0161902Y0069051D01*
X0161902Y0067450D02*
X0160301Y0067450D01*
X0159767Y0067984D01*
X0159767Y0068518D01*
X0160301Y0069051D01*
X0159767Y0069585D02*
X0159767Y0070119D01*
X0160301Y0070653D01*
X0161902Y0070653D01*
X0161902Y0067450D01*
X0155994Y0072700D02*
X0155994Y0074835D01*
X0146326Y0075903D02*
X0146326Y0072700D01*
X0144190Y0072700D02*
X0144190Y0075903D01*
X0145258Y0074835D01*
X0146326Y0075903D01*
X0143103Y0074301D02*
X0143103Y0073234D01*
X0142569Y0072700D01*
X0141501Y0072700D01*
X0140968Y0073234D01*
X0140968Y0074301D01*
X0141501Y0074835D01*
X0142569Y0074835D01*
X0143103Y0074301D01*
X0139880Y0074301D02*
X0139346Y0074835D01*
X0137745Y0074835D01*
X0137745Y0075903D02*
X0137745Y0072700D01*
X0139346Y0072700D01*
X0139880Y0073234D01*
X0139880Y0074301D01*
X0136657Y0074835D02*
X0136657Y0073234D01*
X0136123Y0072700D01*
X0134522Y0072700D01*
X0134522Y0074835D01*
X0133435Y0075903D02*
X0132901Y0075903D01*
X0132901Y0072700D01*
X0133435Y0072700D02*
X0132367Y0072700D01*
X0131286Y0073234D02*
X0130752Y0073768D01*
X0129151Y0073768D01*
X0129151Y0074301D02*
X0129151Y0072700D01*
X0130752Y0072700D01*
X0131286Y0073234D01*
X0130752Y0074835D02*
X0129685Y0074835D01*
X0129151Y0074301D01*
X0128063Y0073768D02*
X0126996Y0074835D01*
X0126462Y0074835D01*
X0128063Y0074835D02*
X0128063Y0072700D01*
X0137745Y0070119D02*
X0137745Y0069585D01*
X0138279Y0069051D01*
X0139880Y0069051D01*
X0140968Y0067984D02*
X0141501Y0067450D01*
X0142569Y0067450D01*
X0143103Y0067984D01*
X0143103Y0070119D01*
X0142569Y0070653D01*
X0141501Y0070653D01*
X0140968Y0070119D01*
X0139880Y0070653D02*
X0138279Y0070653D01*
X0137745Y0070119D01*
X0138279Y0069051D02*
X0137745Y0068518D01*
X0137745Y0067984D01*
X0138279Y0067450D01*
X0139880Y0067450D01*
X0139880Y0070653D01*
X0144190Y0070119D02*
X0144190Y0069051D01*
X0144724Y0068518D01*
X0146326Y0068518D01*
X0146326Y0067450D02*
X0146326Y0070653D01*
X0144724Y0070653D01*
X0144190Y0070119D01*
X0140954Y0065403D02*
X0140954Y0062200D01*
X0139887Y0063268D01*
X0138819Y0062200D01*
X0138819Y0065403D01*
X0137732Y0065403D02*
X0137732Y0062200D01*
X0135596Y0062200D02*
X0135596Y0063801D01*
X0136130Y0064335D01*
X0137198Y0064335D01*
X0137732Y0063801D01*
X0134509Y0064335D02*
X0133975Y0064335D01*
X0133975Y0062200D01*
X0134509Y0062200D02*
X0133441Y0062200D01*
X0131826Y0062734D02*
X0131293Y0062200D01*
X0131826Y0062734D02*
X0131826Y0064869D01*
X0131293Y0064335D02*
X0132360Y0064335D01*
X0133975Y0065403D02*
X0133975Y0065937D01*
X0130212Y0064335D02*
X0130212Y0062734D01*
X0129678Y0062200D01*
X0129144Y0062734D01*
X0128610Y0062200D01*
X0128077Y0062734D01*
X0128077Y0064335D01*
X0126989Y0063801D02*
X0126989Y0062734D01*
X0126455Y0062200D01*
X0125388Y0062200D01*
X0124854Y0063268D02*
X0126989Y0063268D01*
X0126989Y0063801D02*
X0126455Y0064335D01*
X0125388Y0064335D01*
X0124854Y0063801D01*
X0124854Y0063268D01*
X0123766Y0062200D02*
X0122699Y0062200D01*
X0123232Y0062200D02*
X0123232Y0065403D01*
X0123766Y0065403D01*
X0121618Y0065403D02*
X0121084Y0065403D01*
X0121084Y0062200D01*
X0121618Y0062200D02*
X0120550Y0062200D01*
X0159760Y0056950D02*
X0160828Y0056950D01*
X0160294Y0056950D02*
X0160294Y0059085D01*
X0160828Y0059085D01*
X0161915Y0058551D02*
X0164051Y0058551D01*
X0164051Y0056950D02*
X0164051Y0060153D01*
X0161915Y0060153D02*
X0161915Y0056950D01*
X0161976Y0032653D02*
X0161976Y0028950D01*
X0162593Y0028950D02*
X0161358Y0028950D01*
X0160137Y0029567D02*
X0159520Y0028950D01*
X0157669Y0028950D01*
X0157669Y0028333D02*
X0158286Y0027716D01*
X0158903Y0027716D01*
X0157669Y0028333D02*
X0157669Y0031419D01*
X0160137Y0031419D02*
X0160137Y0029567D01*
X0163807Y0028950D02*
X0163807Y0030802D01*
X0164424Y0031419D01*
X0166276Y0031419D01*
X0166276Y0028950D01*
X0167490Y0029567D02*
X0167490Y0032036D01*
X0168107Y0032653D01*
X0169342Y0032653D01*
X0169959Y0032036D01*
X0169959Y0029567D01*
X0169342Y0028950D01*
X0168107Y0028950D01*
X0167490Y0029567D01*
X0165045Y0027270D02*
X0165045Y0026653D01*
X0165045Y0025419D02*
X0165045Y0022950D01*
X0165662Y0022950D02*
X0164428Y0022950D01*
X0163207Y0022950D02*
X0161355Y0022950D01*
X0160738Y0023567D01*
X0161355Y0024184D01*
X0162589Y0024184D01*
X0163207Y0024802D01*
X0162589Y0025419D01*
X0160738Y0025419D01*
X0165045Y0025419D02*
X0165662Y0025419D01*
X0166876Y0024802D02*
X0166876Y0022950D01*
X0166876Y0024802D02*
X0167494Y0025419D01*
X0168728Y0025419D01*
X0169345Y0024802D01*
X0170566Y0025419D02*
X0171801Y0025419D01*
X0171183Y0026036D02*
X0171183Y0023567D01*
X0170566Y0022950D01*
X0169345Y0022950D02*
X0169345Y0026653D01*
X0174867Y0028950D02*
X0175484Y0028950D01*
X0175484Y0029567D01*
X0174867Y0029567D01*
X0174867Y0028950D01*
X0174867Y0030802D02*
X0175484Y0030802D01*
X0175484Y0031419D01*
X0174867Y0031419D01*
X0174867Y0030802D01*
X0176698Y0031419D02*
X0177315Y0030802D01*
X0179167Y0030802D01*
X0179167Y0032653D02*
X0179167Y0028950D01*
X0177315Y0028950D01*
X0176698Y0029567D01*
X0176698Y0030184D01*
X0177315Y0030802D01*
X0176698Y0031419D02*
X0176698Y0032036D01*
X0177315Y0032653D01*
X0179167Y0032653D01*
X0180381Y0032653D02*
X0180381Y0028950D01*
X0182850Y0032653D01*
X0182850Y0028950D01*
X0182233Y0025419D02*
X0182850Y0024802D01*
X0182850Y0023567D01*
X0182233Y0022950D01*
X0180998Y0022950D01*
X0180381Y0023567D01*
X0180381Y0024802D01*
X0180998Y0025419D01*
X0182233Y0025419D01*
X0179167Y0025419D02*
X0177315Y0025419D01*
X0176698Y0024802D01*
X0176698Y0022950D01*
X0179167Y0022950D02*
X0179167Y0025419D01*
X0180998Y0020653D02*
X0180381Y0020036D01*
X0180381Y0018802D01*
X0180998Y0018184D01*
X0182850Y0018184D01*
X0182850Y0016950D02*
X0182850Y0020653D01*
X0180998Y0020653D01*
X0179167Y0018802D02*
X0178550Y0019419D01*
X0177315Y0019419D01*
X0176698Y0018802D01*
X0176698Y0018184D01*
X0179167Y0018184D01*
X0179167Y0017567D02*
X0179167Y0018802D01*
X0179167Y0017567D02*
X0178550Y0016950D01*
X0177315Y0016950D01*
X0175484Y0016950D02*
X0173632Y0016950D01*
X0173015Y0017567D01*
X0173632Y0018184D01*
X0174867Y0018184D01*
X0175484Y0018802D01*
X0174867Y0019419D01*
X0173015Y0019419D01*
X0171801Y0019419D02*
X0170566Y0019419D01*
X0171183Y0020036D02*
X0171183Y0017567D01*
X0170566Y0016950D01*
X0165662Y0017567D02*
X0165045Y0016950D01*
X0163810Y0016950D01*
X0163193Y0017567D01*
X0163193Y0018802D01*
X0163810Y0019419D01*
X0165045Y0019419D01*
X0165662Y0018802D01*
X0165662Y0017567D01*
X0161979Y0016950D02*
X0161979Y0019419D01*
X0160127Y0019419D01*
X0159510Y0018802D01*
X0159510Y0016950D01*
X0154613Y0019419D02*
X0153378Y0019419D01*
X0153995Y0020036D02*
X0153995Y0017567D01*
X0153378Y0016950D01*
X0152157Y0016950D02*
X0152157Y0020653D01*
X0151540Y0019419D02*
X0150306Y0019419D01*
X0149688Y0018802D01*
X0149688Y0016950D01*
X0148474Y0017567D02*
X0148474Y0018802D01*
X0147857Y0019419D01*
X0146622Y0019419D01*
X0146005Y0018802D01*
X0146005Y0018184D01*
X0148474Y0018184D01*
X0148474Y0017567D02*
X0147857Y0016950D01*
X0146622Y0016950D01*
X0151540Y0019419D02*
X0152157Y0018802D01*
X0152157Y0022950D02*
X0150923Y0022950D01*
X0151540Y0022950D02*
X0151540Y0025419D01*
X0152157Y0025419D01*
X0153372Y0025419D02*
X0155223Y0025419D01*
X0155840Y0024802D01*
X0155223Y0024184D01*
X0153989Y0024184D01*
X0153372Y0023567D01*
X0153989Y0022950D01*
X0155840Y0022950D01*
X0151540Y0026653D02*
X0151540Y0027270D01*
X0149085Y0025419D02*
X0147233Y0025419D01*
X0147233Y0026653D02*
X0147233Y0022950D01*
X0149085Y0022950D01*
X0149702Y0023567D01*
X0149702Y0024802D01*
X0149085Y0025419D01*
X0146019Y0024802D02*
X0145401Y0025419D01*
X0144167Y0025419D01*
X0143550Y0024802D01*
X0143550Y0024184D01*
X0146019Y0024184D01*
X0146019Y0023567D02*
X0146019Y0024802D01*
X0146019Y0023567D02*
X0145401Y0022950D01*
X0144167Y0022950D01*
X0140491Y0019419D02*
X0139256Y0019419D01*
X0138639Y0018802D01*
X0138639Y0017567D01*
X0139256Y0016950D01*
X0140491Y0016950D01*
X0141108Y0017567D01*
X0141108Y0018802D01*
X0140491Y0019419D01*
X0137425Y0019419D02*
X0136190Y0019419D01*
X0136807Y0020036D02*
X0136807Y0017567D01*
X0136190Y0016950D01*
X0134969Y0016950D02*
X0134969Y0020653D01*
X0134352Y0019419D02*
X0133118Y0019419D01*
X0132500Y0018802D01*
X0132500Y0016950D01*
X0131286Y0017567D02*
X0131286Y0018802D01*
X0130669Y0019419D01*
X0129434Y0019419D01*
X0128817Y0018802D01*
X0128817Y0018184D01*
X0131286Y0018184D01*
X0131286Y0017567D02*
X0130669Y0016950D01*
X0129434Y0016950D01*
X0127603Y0016950D02*
X0127603Y0019419D01*
X0126368Y0019419D02*
X0125751Y0019419D01*
X0126368Y0019419D02*
X0127603Y0018184D01*
X0120850Y0018802D02*
X0120233Y0019419D01*
X0118382Y0019419D01*
X0117167Y0019419D02*
X0116550Y0019419D01*
X0116550Y0016950D01*
X0117167Y0016950D02*
X0115933Y0016950D01*
X0114712Y0017567D02*
X0114712Y0018802D01*
X0114095Y0019419D01*
X0112243Y0019419D01*
X0112243Y0020653D02*
X0112243Y0016950D01*
X0114095Y0016950D01*
X0114712Y0017567D01*
X0118382Y0017567D02*
X0118999Y0018184D01*
X0120233Y0018184D01*
X0120850Y0018802D01*
X0120850Y0016950D02*
X0118999Y0016950D01*
X0118382Y0017567D01*
X0116550Y0020653D02*
X0116550Y0021270D01*
X0111029Y0018802D02*
X0111029Y0017567D01*
X0110412Y0016950D01*
X0109177Y0016950D01*
X0108560Y0018184D02*
X0111029Y0018184D01*
X0111029Y0018802D02*
X0110412Y0019419D01*
X0109177Y0019419D01*
X0108560Y0018802D01*
X0108560Y0018184D01*
X0100353Y0023067D02*
X0099736Y0022450D01*
X0097267Y0022450D01*
X0096650Y0023067D01*
X0096650Y0024302D01*
X0097267Y0024919D01*
X0096650Y0026133D02*
X0099119Y0028602D01*
X0099736Y0028602D01*
X0100353Y0027985D01*
X0100353Y0026750D01*
X0099736Y0026133D01*
X0099736Y0024919D02*
X0100353Y0024302D01*
X0100353Y0023067D01*
X0096650Y0026133D02*
X0096650Y0028602D01*
X0088853Y0029234D02*
X0088236Y0028617D01*
X0085150Y0028617D01*
X0085150Y0026785D02*
X0087619Y0026785D01*
X0087002Y0027999D02*
X0087002Y0029234D01*
X0085150Y0026785D02*
X0085150Y0024933D01*
X0085767Y0024316D01*
X0087619Y0024316D01*
X0088236Y0023102D02*
X0085767Y0023102D01*
X0085150Y0022485D01*
X0085150Y0021250D01*
X0085767Y0020633D01*
X0088236Y0023102D01*
X0088853Y0022485D01*
X0088853Y0021250D01*
X0088236Y0020633D01*
X0085767Y0020633D01*
X0085150Y0019419D02*
X0085150Y0016950D01*
X0085150Y0018184D02*
X0088853Y0018184D01*
X0087619Y0016950D01*
X0078353Y0022567D02*
X0078353Y0023802D01*
X0077736Y0024419D01*
X0077119Y0025633D02*
X0078353Y0026868D01*
X0074650Y0026868D01*
X0074650Y0028102D02*
X0074650Y0025633D01*
X0075267Y0024419D02*
X0074650Y0023802D01*
X0074650Y0022567D01*
X0075267Y0021950D01*
X0077736Y0021950D01*
X0078353Y0022567D01*
X0066353Y0022485D02*
X0066353Y0021250D01*
X0065736Y0020633D01*
X0063267Y0020633D01*
X0065736Y0023102D01*
X0063267Y0023102D01*
X0062650Y0022485D01*
X0062650Y0021250D01*
X0063267Y0020633D01*
X0062650Y0019419D02*
X0062650Y0016950D01*
X0062650Y0018184D02*
X0066353Y0018184D01*
X0065119Y0016950D01*
X0066353Y0022485D02*
X0065736Y0023102D01*
X0065119Y0024316D02*
X0063267Y0024316D01*
X0062650Y0024933D01*
X0062650Y0026785D01*
X0065119Y0026785D01*
X0064502Y0027999D02*
X0064502Y0029234D01*
X0065736Y0028617D02*
X0062650Y0028617D01*
X0065736Y0028617D02*
X0066353Y0029234D01*
X0112857Y0029567D02*
X0113474Y0030184D01*
X0114709Y0030184D01*
X0115326Y0030802D01*
X0114709Y0031419D01*
X0112857Y0031419D01*
X0112857Y0029567D02*
X0113474Y0028950D01*
X0115326Y0028950D01*
X0116547Y0028950D02*
X0117164Y0029567D01*
X0117164Y0032036D01*
X0117781Y0031419D02*
X0116547Y0031419D01*
X0118999Y0031419D02*
X0119616Y0031419D01*
X0120850Y0030184D01*
X0122065Y0030184D02*
X0123916Y0030184D01*
X0124534Y0029567D01*
X0123916Y0028950D01*
X0122065Y0028950D01*
X0122065Y0030802D01*
X0122682Y0031419D01*
X0123916Y0031419D01*
X0125748Y0030802D02*
X0125748Y0029567D01*
X0126365Y0028950D01*
X0128217Y0028950D01*
X0128217Y0027716D02*
X0128217Y0031419D01*
X0126365Y0031419D01*
X0125748Y0030802D01*
X0120850Y0031419D02*
X0120850Y0028950D01*
X0133114Y0028950D02*
X0134966Y0028950D01*
X0135583Y0029567D01*
X0135583Y0030802D01*
X0134966Y0031419D01*
X0133114Y0031419D01*
X0133114Y0032653D02*
X0133114Y0028950D01*
X0134969Y0026653D02*
X0132500Y0024802D01*
X0134969Y0022950D01*
X0136184Y0024802D02*
X0138652Y0024802D01*
X0138649Y0028950D02*
X0137415Y0028950D01*
X0138649Y0028950D02*
X0139266Y0029567D01*
X0139266Y0030802D01*
X0138649Y0031419D01*
X0137415Y0031419D01*
X0136797Y0030802D01*
X0136797Y0030184D01*
X0139266Y0030184D01*
X0140484Y0028950D02*
X0142335Y0030184D01*
X0140484Y0031419D01*
X0142335Y0032653D02*
X0142335Y0028950D01*
X0145405Y0028950D02*
X0145405Y0031419D01*
X0145405Y0030184D02*
X0144170Y0031419D01*
X0143553Y0031419D01*
X0146619Y0030802D02*
X0146619Y0028950D01*
X0148471Y0028950D01*
X0149088Y0029567D01*
X0148471Y0030184D01*
X0146619Y0030184D01*
X0146619Y0030802D02*
X0147236Y0031419D01*
X0148471Y0031419D01*
X0150302Y0030802D02*
X0150302Y0028950D01*
X0151537Y0028950D02*
X0151537Y0030802D01*
X0150919Y0031419D01*
X0150302Y0030802D01*
X0151537Y0030802D02*
X0152154Y0031419D01*
X0152771Y0031419D01*
X0152771Y0028950D01*
X0161976Y0032653D02*
X0162593Y0032653D01*
X0180381Y0016950D02*
X0181616Y0018184D01*
X0134969Y0018802D02*
X0134352Y0019419D01*
X0141501Y0086950D02*
X0143103Y0086950D01*
X0143103Y0090153D01*
X0141501Y0090153D01*
X0140968Y0089619D01*
X0140968Y0089085D01*
X0141501Y0088551D01*
X0143103Y0088551D01*
X0144190Y0087484D02*
X0144724Y0086950D01*
X0145792Y0086950D01*
X0146326Y0087484D01*
X0146326Y0089619D01*
X0145792Y0090153D01*
X0144724Y0090153D01*
X0144190Y0089619D01*
X0147413Y0089619D02*
X0147413Y0088551D01*
X0147947Y0088018D01*
X0149548Y0088018D01*
X0149548Y0086950D02*
X0149548Y0090153D01*
X0147947Y0090153D01*
X0147413Y0089619D01*
X0141501Y0088551D02*
X0140968Y0088018D01*
X0140968Y0087484D01*
X0141501Y0086950D01*
X0153859Y0086950D02*
X0155994Y0086950D01*
X0154926Y0086950D02*
X0154926Y0090153D01*
X0155994Y0089085D01*
X0160304Y0088551D02*
X0160304Y0086950D01*
X0160304Y0088551D02*
X0160838Y0089085D01*
X0162439Y0089085D01*
X0162439Y0086950D01*
X0163527Y0087484D02*
X0163527Y0088551D01*
X0164061Y0089085D01*
X0165128Y0089085D01*
X0165662Y0088551D01*
X0165662Y0087484D01*
X0165128Y0086950D01*
X0164061Y0086950D01*
X0163527Y0087484D01*
X0166743Y0086950D02*
X0167811Y0086950D01*
X0167277Y0086950D02*
X0167277Y0089085D01*
X0167811Y0089085D01*
X0168898Y0089085D02*
X0170499Y0089085D01*
X0171033Y0088551D01*
X0170499Y0088018D01*
X0169432Y0088018D01*
X0168898Y0087484D01*
X0169432Y0086950D01*
X0171033Y0086950D01*
X0172114Y0086950D02*
X0173182Y0086950D01*
X0172648Y0086950D02*
X0172648Y0089085D01*
X0173182Y0089085D01*
X0174269Y0089085D02*
X0175337Y0086950D01*
X0176405Y0089085D01*
X0177492Y0088551D02*
X0178026Y0089085D01*
X0179093Y0089085D01*
X0179627Y0088551D01*
X0179627Y0087484D01*
X0179093Y0086950D01*
X0178026Y0086950D01*
X0177492Y0088018D02*
X0179627Y0088018D01*
X0180715Y0088551D02*
X0180715Y0089619D01*
X0181249Y0090153D01*
X0182850Y0090153D01*
X0182850Y0086950D01*
X0182850Y0088018D02*
X0181249Y0088018D01*
X0180715Y0088551D01*
X0181782Y0088018D02*
X0180715Y0086950D01*
X0177492Y0088018D02*
X0177492Y0088551D01*
X0172648Y0090153D02*
X0172648Y0090687D01*
X0167277Y0090687D02*
X0167277Y0090153D01*
D12*
X0113000Y0071800D02*
X0113000Y0066800D01*
X0110500Y0064300D01*
X0113000Y0061800D01*
X0113000Y0056800D01*
X0110500Y0054300D01*
X0113000Y0051800D01*
X0113000Y0046800D01*
X0110500Y0044300D01*
X0105500Y0044300D01*
X0103000Y0046800D01*
X0103000Y0051800D01*
X0105500Y0054300D01*
X0103000Y0056800D01*
X0103000Y0061800D01*
X0105500Y0064300D01*
X0103000Y0066800D01*
X0103000Y0071800D01*
X0105500Y0074300D01*
X0110500Y0074300D01*
X0113000Y0071800D01*
X0088000Y0069300D02*
X0088000Y0064300D01*
X0085500Y0061800D01*
X0088000Y0059300D01*
X0088000Y0054300D01*
X0085500Y0051800D01*
X0080500Y0051800D01*
X0078000Y0054300D01*
X0078000Y0059300D01*
X0080500Y0061800D01*
X0078000Y0064300D01*
X0078000Y0069300D01*
X0080500Y0071800D01*
X0085500Y0071800D01*
X0088000Y0069300D01*
X0083157Y0024300D02*
X0083160Y0024542D01*
X0083169Y0024783D01*
X0083184Y0025024D01*
X0083204Y0025265D01*
X0083231Y0025505D01*
X0083264Y0025744D01*
X0083302Y0025983D01*
X0083346Y0026220D01*
X0083396Y0026457D01*
X0083452Y0026692D01*
X0083514Y0026925D01*
X0083581Y0027157D01*
X0083654Y0027388D01*
X0083732Y0027616D01*
X0083817Y0027842D01*
X0083906Y0028067D01*
X0084001Y0028289D01*
X0084102Y0028508D01*
X0084208Y0028726D01*
X0084319Y0028940D01*
X0084436Y0029152D01*
X0084557Y0029360D01*
X0084684Y0029566D01*
X0084816Y0029768D01*
X0084953Y0029968D01*
X0085094Y0030163D01*
X0085240Y0030356D01*
X0085391Y0030544D01*
X0085547Y0030729D01*
X0085707Y0030910D01*
X0085871Y0031087D01*
X0086040Y0031260D01*
X0086213Y0031429D01*
X0086390Y0031593D01*
X0086571Y0031753D01*
X0086756Y0031909D01*
X0086944Y0032060D01*
X0087137Y0032206D01*
X0087332Y0032347D01*
X0087532Y0032484D01*
X0087734Y0032616D01*
X0087940Y0032743D01*
X0088148Y0032864D01*
X0088360Y0032981D01*
X0088574Y0033092D01*
X0088792Y0033198D01*
X0089011Y0033299D01*
X0089233Y0033394D01*
X0089458Y0033483D01*
X0089684Y0033568D01*
X0089912Y0033646D01*
X0090143Y0033719D01*
X0090375Y0033786D01*
X0090608Y0033848D01*
X0090843Y0033904D01*
X0091080Y0033954D01*
X0091317Y0033998D01*
X0091556Y0034036D01*
X0091795Y0034069D01*
X0092035Y0034096D01*
X0092276Y0034116D01*
X0092517Y0034131D01*
X0092758Y0034140D01*
X0093000Y0034143D01*
X0093242Y0034140D01*
X0093483Y0034131D01*
X0093724Y0034116D01*
X0093965Y0034096D01*
X0094205Y0034069D01*
X0094444Y0034036D01*
X0094683Y0033998D01*
X0094920Y0033954D01*
X0095157Y0033904D01*
X0095392Y0033848D01*
X0095625Y0033786D01*
X0095857Y0033719D01*
X0096088Y0033646D01*
X0096316Y0033568D01*
X0096542Y0033483D01*
X0096767Y0033394D01*
X0096989Y0033299D01*
X0097208Y0033198D01*
X0097426Y0033092D01*
X0097640Y0032981D01*
X0097852Y0032864D01*
X0098060Y0032743D01*
X0098266Y0032616D01*
X0098468Y0032484D01*
X0098668Y0032347D01*
X0098863Y0032206D01*
X0099056Y0032060D01*
X0099244Y0031909D01*
X0099429Y0031753D01*
X0099610Y0031593D01*
X0099787Y0031429D01*
X0099960Y0031260D01*
X0100129Y0031087D01*
X0100293Y0030910D01*
X0100453Y0030729D01*
X0100609Y0030544D01*
X0100760Y0030356D01*
X0100906Y0030163D01*
X0101047Y0029968D01*
X0101184Y0029768D01*
X0101316Y0029566D01*
X0101443Y0029360D01*
X0101564Y0029152D01*
X0101681Y0028940D01*
X0101792Y0028726D01*
X0101898Y0028508D01*
X0101999Y0028289D01*
X0102094Y0028067D01*
X0102183Y0027842D01*
X0102268Y0027616D01*
X0102346Y0027388D01*
X0102419Y0027157D01*
X0102486Y0026925D01*
X0102548Y0026692D01*
X0102604Y0026457D01*
X0102654Y0026220D01*
X0102698Y0025983D01*
X0102736Y0025744D01*
X0102769Y0025505D01*
X0102796Y0025265D01*
X0102816Y0025024D01*
X0102831Y0024783D01*
X0102840Y0024542D01*
X0102843Y0024300D01*
X0102840Y0024058D01*
X0102831Y0023817D01*
X0102816Y0023576D01*
X0102796Y0023335D01*
X0102769Y0023095D01*
X0102736Y0022856D01*
X0102698Y0022617D01*
X0102654Y0022380D01*
X0102604Y0022143D01*
X0102548Y0021908D01*
X0102486Y0021675D01*
X0102419Y0021443D01*
X0102346Y0021212D01*
X0102268Y0020984D01*
X0102183Y0020758D01*
X0102094Y0020533D01*
X0101999Y0020311D01*
X0101898Y0020092D01*
X0101792Y0019874D01*
X0101681Y0019660D01*
X0101564Y0019448D01*
X0101443Y0019240D01*
X0101316Y0019034D01*
X0101184Y0018832D01*
X0101047Y0018632D01*
X0100906Y0018437D01*
X0100760Y0018244D01*
X0100609Y0018056D01*
X0100453Y0017871D01*
X0100293Y0017690D01*
X0100129Y0017513D01*
X0099960Y0017340D01*
X0099787Y0017171D01*
X0099610Y0017007D01*
X0099429Y0016847D01*
X0099244Y0016691D01*
X0099056Y0016540D01*
X0098863Y0016394D01*
X0098668Y0016253D01*
X0098468Y0016116D01*
X0098266Y0015984D01*
X0098060Y0015857D01*
X0097852Y0015736D01*
X0097640Y0015619D01*
X0097426Y0015508D01*
X0097208Y0015402D01*
X0096989Y0015301D01*
X0096767Y0015206D01*
X0096542Y0015117D01*
X0096316Y0015032D01*
X0096088Y0014954D01*
X0095857Y0014881D01*
X0095625Y0014814D01*
X0095392Y0014752D01*
X0095157Y0014696D01*
X0094920Y0014646D01*
X0094683Y0014602D01*
X0094444Y0014564D01*
X0094205Y0014531D01*
X0093965Y0014504D01*
X0093724Y0014484D01*
X0093483Y0014469D01*
X0093242Y0014460D01*
X0093000Y0014457D01*
X0092758Y0014460D01*
X0092517Y0014469D01*
X0092276Y0014484D01*
X0092035Y0014504D01*
X0091795Y0014531D01*
X0091556Y0014564D01*
X0091317Y0014602D01*
X0091080Y0014646D01*
X0090843Y0014696D01*
X0090608Y0014752D01*
X0090375Y0014814D01*
X0090143Y0014881D01*
X0089912Y0014954D01*
X0089684Y0015032D01*
X0089458Y0015117D01*
X0089233Y0015206D01*
X0089011Y0015301D01*
X0088792Y0015402D01*
X0088574Y0015508D01*
X0088360Y0015619D01*
X0088148Y0015736D01*
X0087940Y0015857D01*
X0087734Y0015984D01*
X0087532Y0016116D01*
X0087332Y0016253D01*
X0087137Y0016394D01*
X0086944Y0016540D01*
X0086756Y0016691D01*
X0086571Y0016847D01*
X0086390Y0017007D01*
X0086213Y0017171D01*
X0086040Y0017340D01*
X0085871Y0017513D01*
X0085707Y0017690D01*
X0085547Y0017871D01*
X0085391Y0018056D01*
X0085240Y0018244D01*
X0085094Y0018437D01*
X0084953Y0018632D01*
X0084816Y0018832D01*
X0084684Y0019034D01*
X0084557Y0019240D01*
X0084436Y0019448D01*
X0084319Y0019660D01*
X0084208Y0019874D01*
X0084102Y0020092D01*
X0084001Y0020311D01*
X0083906Y0020533D01*
X0083817Y0020758D01*
X0083732Y0020984D01*
X0083654Y0021212D01*
X0083581Y0021443D01*
X0083514Y0021675D01*
X0083452Y0021908D01*
X0083396Y0022143D01*
X0083346Y0022380D01*
X0083302Y0022617D01*
X0083264Y0022856D01*
X0083231Y0023095D01*
X0083204Y0023335D01*
X0083184Y0023576D01*
X0083169Y0023817D01*
X0083160Y0024058D01*
X0083157Y0024300D01*
X0076000Y0021300D02*
X0076000Y0017300D01*
X0060657Y0024300D02*
X0060660Y0024542D01*
X0060669Y0024783D01*
X0060684Y0025024D01*
X0060704Y0025265D01*
X0060731Y0025505D01*
X0060764Y0025744D01*
X0060802Y0025983D01*
X0060846Y0026220D01*
X0060896Y0026457D01*
X0060952Y0026692D01*
X0061014Y0026925D01*
X0061081Y0027157D01*
X0061154Y0027388D01*
X0061232Y0027616D01*
X0061317Y0027842D01*
X0061406Y0028067D01*
X0061501Y0028289D01*
X0061602Y0028508D01*
X0061708Y0028726D01*
X0061819Y0028940D01*
X0061936Y0029152D01*
X0062057Y0029360D01*
X0062184Y0029566D01*
X0062316Y0029768D01*
X0062453Y0029968D01*
X0062594Y0030163D01*
X0062740Y0030356D01*
X0062891Y0030544D01*
X0063047Y0030729D01*
X0063207Y0030910D01*
X0063371Y0031087D01*
X0063540Y0031260D01*
X0063713Y0031429D01*
X0063890Y0031593D01*
X0064071Y0031753D01*
X0064256Y0031909D01*
X0064444Y0032060D01*
X0064637Y0032206D01*
X0064832Y0032347D01*
X0065032Y0032484D01*
X0065234Y0032616D01*
X0065440Y0032743D01*
X0065648Y0032864D01*
X0065860Y0032981D01*
X0066074Y0033092D01*
X0066292Y0033198D01*
X0066511Y0033299D01*
X0066733Y0033394D01*
X0066958Y0033483D01*
X0067184Y0033568D01*
X0067412Y0033646D01*
X0067643Y0033719D01*
X0067875Y0033786D01*
X0068108Y0033848D01*
X0068343Y0033904D01*
X0068580Y0033954D01*
X0068817Y0033998D01*
X0069056Y0034036D01*
X0069295Y0034069D01*
X0069535Y0034096D01*
X0069776Y0034116D01*
X0070017Y0034131D01*
X0070258Y0034140D01*
X0070500Y0034143D01*
X0070742Y0034140D01*
X0070983Y0034131D01*
X0071224Y0034116D01*
X0071465Y0034096D01*
X0071705Y0034069D01*
X0071944Y0034036D01*
X0072183Y0033998D01*
X0072420Y0033954D01*
X0072657Y0033904D01*
X0072892Y0033848D01*
X0073125Y0033786D01*
X0073357Y0033719D01*
X0073588Y0033646D01*
X0073816Y0033568D01*
X0074042Y0033483D01*
X0074267Y0033394D01*
X0074489Y0033299D01*
X0074708Y0033198D01*
X0074926Y0033092D01*
X0075140Y0032981D01*
X0075352Y0032864D01*
X0075560Y0032743D01*
X0075766Y0032616D01*
X0075968Y0032484D01*
X0076168Y0032347D01*
X0076363Y0032206D01*
X0076556Y0032060D01*
X0076744Y0031909D01*
X0076929Y0031753D01*
X0077110Y0031593D01*
X0077287Y0031429D01*
X0077460Y0031260D01*
X0077629Y0031087D01*
X0077793Y0030910D01*
X0077953Y0030729D01*
X0078109Y0030544D01*
X0078260Y0030356D01*
X0078406Y0030163D01*
X0078547Y0029968D01*
X0078684Y0029768D01*
X0078816Y0029566D01*
X0078943Y0029360D01*
X0079064Y0029152D01*
X0079181Y0028940D01*
X0079292Y0028726D01*
X0079398Y0028508D01*
X0079499Y0028289D01*
X0079594Y0028067D01*
X0079683Y0027842D01*
X0079768Y0027616D01*
X0079846Y0027388D01*
X0079919Y0027157D01*
X0079986Y0026925D01*
X0080048Y0026692D01*
X0080104Y0026457D01*
X0080154Y0026220D01*
X0080198Y0025983D01*
X0080236Y0025744D01*
X0080269Y0025505D01*
X0080296Y0025265D01*
X0080316Y0025024D01*
X0080331Y0024783D01*
X0080340Y0024542D01*
X0080343Y0024300D01*
X0080340Y0024058D01*
X0080331Y0023817D01*
X0080316Y0023576D01*
X0080296Y0023335D01*
X0080269Y0023095D01*
X0080236Y0022856D01*
X0080198Y0022617D01*
X0080154Y0022380D01*
X0080104Y0022143D01*
X0080048Y0021908D01*
X0079986Y0021675D01*
X0079919Y0021443D01*
X0079846Y0021212D01*
X0079768Y0020984D01*
X0079683Y0020758D01*
X0079594Y0020533D01*
X0079499Y0020311D01*
X0079398Y0020092D01*
X0079292Y0019874D01*
X0079181Y0019660D01*
X0079064Y0019448D01*
X0078943Y0019240D01*
X0078816Y0019034D01*
X0078684Y0018832D01*
X0078547Y0018632D01*
X0078406Y0018437D01*
X0078260Y0018244D01*
X0078109Y0018056D01*
X0077953Y0017871D01*
X0077793Y0017690D01*
X0077629Y0017513D01*
X0077460Y0017340D01*
X0077287Y0017171D01*
X0077110Y0017007D01*
X0076929Y0016847D01*
X0076744Y0016691D01*
X0076556Y0016540D01*
X0076363Y0016394D01*
X0076168Y0016253D01*
X0075968Y0016116D01*
X0075766Y0015984D01*
X0075560Y0015857D01*
X0075352Y0015736D01*
X0075140Y0015619D01*
X0074926Y0015508D01*
X0074708Y0015402D01*
X0074489Y0015301D01*
X0074267Y0015206D01*
X0074042Y0015117D01*
X0073816Y0015032D01*
X0073588Y0014954D01*
X0073357Y0014881D01*
X0073125Y0014814D01*
X0072892Y0014752D01*
X0072657Y0014696D01*
X0072420Y0014646D01*
X0072183Y0014602D01*
X0071944Y0014564D01*
X0071705Y0014531D01*
X0071465Y0014504D01*
X0071224Y0014484D01*
X0070983Y0014469D01*
X0070742Y0014460D01*
X0070500Y0014457D01*
X0070258Y0014460D01*
X0070017Y0014469D01*
X0069776Y0014484D01*
X0069535Y0014504D01*
X0069295Y0014531D01*
X0069056Y0014564D01*
X0068817Y0014602D01*
X0068580Y0014646D01*
X0068343Y0014696D01*
X0068108Y0014752D01*
X0067875Y0014814D01*
X0067643Y0014881D01*
X0067412Y0014954D01*
X0067184Y0015032D01*
X0066958Y0015117D01*
X0066733Y0015206D01*
X0066511Y0015301D01*
X0066292Y0015402D01*
X0066074Y0015508D01*
X0065860Y0015619D01*
X0065648Y0015736D01*
X0065440Y0015857D01*
X0065234Y0015984D01*
X0065032Y0016116D01*
X0064832Y0016253D01*
X0064637Y0016394D01*
X0064444Y0016540D01*
X0064256Y0016691D01*
X0064071Y0016847D01*
X0063890Y0017007D01*
X0063713Y0017171D01*
X0063540Y0017340D01*
X0063371Y0017513D01*
X0063207Y0017690D01*
X0063047Y0017871D01*
X0062891Y0018056D01*
X0062740Y0018244D01*
X0062594Y0018437D01*
X0062453Y0018632D01*
X0062316Y0018832D01*
X0062184Y0019034D01*
X0062057Y0019240D01*
X0061936Y0019448D01*
X0061819Y0019660D01*
X0061708Y0019874D01*
X0061602Y0020092D01*
X0061501Y0020311D01*
X0061406Y0020533D01*
X0061317Y0020758D01*
X0061232Y0020984D01*
X0061154Y0021212D01*
X0061081Y0021443D01*
X0061014Y0021675D01*
X0060952Y0021908D01*
X0060896Y0022143D01*
X0060846Y0022380D01*
X0060802Y0022617D01*
X0060764Y0022856D01*
X0060731Y0023095D01*
X0060704Y0023335D01*
X0060684Y0023576D01*
X0060669Y0023817D01*
X0060660Y0024058D01*
X0060657Y0024300D01*
X0098500Y0021300D02*
X0098500Y0017300D01*
D13*
X0038500Y0039300D03*
X0027500Y0009300D03*
D14*
X0021250Y0009300D03*
X0044750Y0009300D03*
X0044750Y0039300D03*
X0021250Y0039300D03*
D15*
X0076134Y0040078D02*
X0078536Y0040078D01*
X0078536Y0036475D01*
X0076134Y0036475D01*
X0077335Y0038277D02*
X0078536Y0038277D01*
X0079817Y0037676D02*
X0079817Y0037076D01*
X0080417Y0036475D01*
X0081618Y0036475D01*
X0082219Y0037076D01*
X0083500Y0037076D02*
X0083500Y0040078D01*
X0082219Y0039478D02*
X0082219Y0038877D01*
X0081618Y0038277D01*
X0080417Y0038277D01*
X0079817Y0037676D01*
X0079817Y0039478D02*
X0080417Y0040078D01*
X0081618Y0040078D01*
X0082219Y0039478D01*
X0083500Y0037076D02*
X0084100Y0036475D01*
X0085301Y0036475D01*
X0085902Y0037076D01*
X0085902Y0040078D01*
X0087183Y0040078D02*
X0089585Y0040078D01*
X0089585Y0036475D01*
X0089585Y0038277D02*
X0088384Y0038277D01*
X0089533Y0010103D02*
X0087131Y0010103D01*
X0085849Y0010103D02*
X0085849Y0007101D01*
X0085249Y0006500D01*
X0084048Y0006500D01*
X0083447Y0007101D01*
X0083447Y0010103D01*
X0082166Y0009503D02*
X0082166Y0008902D01*
X0081566Y0008302D01*
X0080365Y0008302D01*
X0079764Y0007701D01*
X0079764Y0007101D01*
X0080365Y0006500D01*
X0081566Y0006500D01*
X0082166Y0007101D01*
X0082166Y0009503D02*
X0081566Y0010103D01*
X0080365Y0010103D01*
X0079764Y0009503D01*
X0078483Y0010103D02*
X0078483Y0006500D01*
X0076081Y0006500D01*
X0077282Y0008302D02*
X0078483Y0008302D01*
X0078483Y0010103D02*
X0076081Y0010103D01*
X0088332Y0008302D02*
X0089533Y0008302D01*
X0089533Y0010103D02*
X0089533Y0006500D01*
D16*
X0067130Y0043867D02*
X0025972Y0043867D01*
X0017168Y0047513D02*
X0009225Y0055457D01*
X0005067Y0065495D02*
X0005067Y0105930D01*
X0005070Y0106143D01*
X0005077Y0106355D01*
X0005090Y0106568D01*
X0005108Y0106780D01*
X0005131Y0106991D01*
X0005159Y0107202D01*
X0005193Y0107412D01*
X0005231Y0107621D01*
X0005274Y0107830D01*
X0005323Y0108037D01*
X0005376Y0108243D01*
X0005435Y0108447D01*
X0005498Y0108650D01*
X0005566Y0108852D01*
X0005639Y0109052D01*
X0005717Y0109250D01*
X0005799Y0109446D01*
X0005887Y0109640D01*
X0005979Y0109831D01*
X0006075Y0110021D01*
X0006176Y0110208D01*
X0006282Y0110393D01*
X0006392Y0110575D01*
X0006507Y0110754D01*
X0006625Y0110931D01*
X0006748Y0111104D01*
X0006875Y0111275D01*
X0007007Y0111442D01*
X0007142Y0111607D01*
X0007281Y0111767D01*
X0007424Y0111925D01*
X0007571Y0112079D01*
X0007721Y0112229D01*
X0007875Y0112376D01*
X0008033Y0112519D01*
X0008193Y0112658D01*
X0008358Y0112793D01*
X0008525Y0112925D01*
X0008696Y0113052D01*
X0008869Y0113175D01*
X0009046Y0113293D01*
X0009225Y0113408D01*
X0009407Y0113518D01*
X0009592Y0113624D01*
X0009779Y0113725D01*
X0009969Y0113821D01*
X0010160Y0113913D01*
X0010354Y0114001D01*
X0010550Y0114083D01*
X0010748Y0114161D01*
X0010948Y0114234D01*
X0011150Y0114302D01*
X0011353Y0114365D01*
X0011557Y0114424D01*
X0011763Y0114477D01*
X0011970Y0114526D01*
X0012179Y0114569D01*
X0012388Y0114607D01*
X0012598Y0114641D01*
X0012809Y0114669D01*
X0013020Y0114692D01*
X0013232Y0114710D01*
X0013445Y0114723D01*
X0013657Y0114730D01*
X0013870Y0114733D01*
X0067130Y0114733D01*
X0067343Y0114730D01*
X0067555Y0114723D01*
X0067768Y0114710D01*
X0067980Y0114692D01*
X0068191Y0114669D01*
X0068402Y0114641D01*
X0068612Y0114607D01*
X0068821Y0114569D01*
X0069030Y0114526D01*
X0069237Y0114477D01*
X0069443Y0114424D01*
X0069647Y0114365D01*
X0069850Y0114302D01*
X0070052Y0114234D01*
X0070252Y0114161D01*
X0070450Y0114083D01*
X0070646Y0114001D01*
X0070840Y0113913D01*
X0071031Y0113821D01*
X0071221Y0113725D01*
X0071408Y0113624D01*
X0071593Y0113518D01*
X0071775Y0113408D01*
X0071954Y0113293D01*
X0072131Y0113175D01*
X0072304Y0113052D01*
X0072475Y0112925D01*
X0072642Y0112793D01*
X0072807Y0112658D01*
X0072967Y0112519D01*
X0073125Y0112376D01*
X0073279Y0112229D01*
X0073429Y0112079D01*
X0073576Y0111925D01*
X0073719Y0111767D01*
X0073858Y0111607D01*
X0073993Y0111442D01*
X0074125Y0111275D01*
X0074252Y0111104D01*
X0074375Y0110931D01*
X0074493Y0110754D01*
X0074608Y0110575D01*
X0074718Y0110393D01*
X0074824Y0110208D01*
X0074925Y0110021D01*
X0075021Y0109831D01*
X0075113Y0109640D01*
X0075201Y0109446D01*
X0075283Y0109250D01*
X0075361Y0109052D01*
X0075434Y0108852D01*
X0075502Y0108650D01*
X0075565Y0108447D01*
X0075624Y0108243D01*
X0075677Y0108037D01*
X0075726Y0107830D01*
X0075769Y0107621D01*
X0075807Y0107412D01*
X0075841Y0107202D01*
X0075869Y0106991D01*
X0075892Y0106780D01*
X0075910Y0106568D01*
X0075923Y0106355D01*
X0075930Y0106143D01*
X0075933Y0105930D01*
X0075933Y0052670D01*
X0075930Y0052457D01*
X0075923Y0052245D01*
X0075910Y0052032D01*
X0075892Y0051820D01*
X0075869Y0051609D01*
X0075841Y0051398D01*
X0075807Y0051188D01*
X0075769Y0050979D01*
X0075726Y0050770D01*
X0075677Y0050563D01*
X0075624Y0050357D01*
X0075565Y0050153D01*
X0075502Y0049950D01*
X0075434Y0049748D01*
X0075361Y0049548D01*
X0075283Y0049350D01*
X0075201Y0049154D01*
X0075113Y0048960D01*
X0075021Y0048769D01*
X0074925Y0048579D01*
X0074824Y0048392D01*
X0074718Y0048207D01*
X0074608Y0048025D01*
X0074493Y0047846D01*
X0074375Y0047669D01*
X0074252Y0047496D01*
X0074125Y0047325D01*
X0073993Y0047158D01*
X0073858Y0046993D01*
X0073719Y0046833D01*
X0073576Y0046675D01*
X0073429Y0046521D01*
X0073279Y0046371D01*
X0073125Y0046224D01*
X0072967Y0046081D01*
X0072807Y0045942D01*
X0072642Y0045807D01*
X0072475Y0045675D01*
X0072304Y0045548D01*
X0072131Y0045425D01*
X0071954Y0045307D01*
X0071775Y0045192D01*
X0071593Y0045082D01*
X0071408Y0044976D01*
X0071221Y0044875D01*
X0071031Y0044779D01*
X0070840Y0044687D01*
X0070646Y0044599D01*
X0070450Y0044517D01*
X0070252Y0044439D01*
X0070052Y0044366D01*
X0069850Y0044298D01*
X0069647Y0044235D01*
X0069443Y0044176D01*
X0069237Y0044123D01*
X0069030Y0044074D01*
X0068821Y0044031D01*
X0068612Y0043993D01*
X0068402Y0043959D01*
X0068191Y0043931D01*
X0067980Y0043908D01*
X0067768Y0043890D01*
X0067555Y0043877D01*
X0067343Y0043870D01*
X0067130Y0043867D01*
X0025972Y0043867D02*
X0025676Y0043871D01*
X0025380Y0043881D01*
X0025084Y0043899D01*
X0024789Y0043923D01*
X0024494Y0043955D01*
X0024200Y0043994D01*
X0023907Y0044039D01*
X0023616Y0044092D01*
X0023326Y0044152D01*
X0023037Y0044218D01*
X0022750Y0044291D01*
X0022464Y0044371D01*
X0022181Y0044458D01*
X0021900Y0044552D01*
X0021621Y0044652D01*
X0021345Y0044759D01*
X0021071Y0044872D01*
X0020800Y0044992D01*
X0020532Y0045118D01*
X0020267Y0045251D01*
X0020005Y0045390D01*
X0019747Y0045535D01*
X0019492Y0045686D01*
X0019241Y0045843D01*
X0018994Y0046007D01*
X0018750Y0046176D01*
X0018511Y0046350D01*
X0018276Y0046531D01*
X0018045Y0046717D01*
X0017819Y0046908D01*
X0017597Y0047105D01*
X0017381Y0047307D01*
X0017169Y0047514D01*
X0009225Y0055458D02*
X0008989Y0055699D01*
X0008758Y0055947D01*
X0008534Y0056199D01*
X0008316Y0056457D01*
X0008104Y0056720D01*
X0007898Y0056988D01*
X0007699Y0057261D01*
X0007506Y0057539D01*
X0007320Y0057821D01*
X0007141Y0058107D01*
X0006969Y0058398D01*
X0006803Y0058692D01*
X0006645Y0058990D01*
X0006494Y0059293D01*
X0006350Y0059598D01*
X0006213Y0059907D01*
X0006084Y0060219D01*
X0005962Y0060534D01*
X0005848Y0060852D01*
X0005741Y0061173D01*
X0005642Y0061496D01*
X0005551Y0061821D01*
X0005467Y0062148D01*
X0005391Y0062478D01*
X0005324Y0062809D01*
X0005264Y0063141D01*
X0005211Y0063475D01*
X0005167Y0063810D01*
X0005131Y0064146D01*
X0005103Y0064482D01*
X0005083Y0064820D01*
X0005071Y0065157D01*
X0005067Y0065495D01*
M02*
