G75*
%MOIN*%
%OFA0B0*%
%FSLAX25Y25*%
%IPPOS*%
%LPD*%
%AMOC8*
5,1,8,0,0,1.08239X$1,22.5*
%
%ADD10OC8,0.04800*%
%ADD11R,0.06500X0.06500*%
%ADD12C,0.06500*%
%ADD13C,0.06600*%
%ADD14R,0.04800X0.04800*%
%ADD15C,0.04800*%
%ADD16C,0.04800*%
%ADD17C,0.11811*%
%ADD18OC8,0.07400*%
%ADD19C,0.07400*%
%ADD20C,0.13000*%
%ADD21C,0.01600*%
%ADD22C,0.01000*%
%ADD23C,0.02500*%
%ADD24C,0.02400*%
D10*
X0073000Y0009300D03*
X0093000Y0009300D03*
X0105500Y0014300D03*
X0105500Y0034300D03*
X0093000Y0039300D03*
X0073000Y0039300D03*
X0125500Y0051800D03*
X0135500Y0051800D03*
X0145500Y0051800D03*
X0155500Y0051800D03*
X0165500Y0051800D03*
X0175500Y0051800D03*
X0188000Y0034300D03*
X0188000Y0014300D03*
X0175500Y0081800D03*
X0165500Y0081800D03*
X0155500Y0081800D03*
X0145500Y0081800D03*
X0135500Y0081800D03*
X0125500Y0081800D03*
X0123000Y0096800D03*
X0108000Y0101800D03*
X0103000Y0109300D03*
X0113000Y0109300D03*
X0123000Y0106800D03*
X0153000Y0106800D03*
X0160500Y0106800D03*
X0160500Y0096800D03*
X0153000Y0096800D03*
X0190500Y0096800D03*
X0190500Y0106800D03*
X0083000Y0104300D03*
X0083000Y0084300D03*
D11*
X0113000Y0086800D03*
X0093000Y0029300D03*
X0070500Y0029300D03*
D12*
X0070500Y0019300D03*
X0093000Y0019300D03*
X0103000Y0086800D03*
D13*
X0053000Y0039300D03*
X0013000Y0039300D03*
X0013000Y0009300D03*
X0053000Y0009300D03*
D14*
X0093000Y0079300D03*
D15*
X0093000Y0109300D03*
D16*
X0118000Y0041700D02*
X0118000Y0036900D01*
X0128000Y0036900D02*
X0128000Y0041700D01*
X0138000Y0041700D02*
X0138000Y0036900D01*
X0148000Y0036900D02*
X0148000Y0041700D01*
X0158000Y0041700D02*
X0158000Y0036900D01*
X0168000Y0036900D02*
X0168000Y0041700D01*
X0178000Y0041700D02*
X0178000Y0036900D01*
X0178000Y0011700D02*
X0178000Y0006900D01*
X0168000Y0006900D02*
X0168000Y0011700D01*
X0158000Y0011700D02*
X0158000Y0006900D01*
X0148000Y0006900D02*
X0148000Y0011700D01*
X0138000Y0011700D02*
X0138000Y0006900D01*
X0128000Y0006900D02*
X0128000Y0011700D01*
X0118000Y0011700D02*
X0118000Y0006900D01*
D17*
X0056248Y0054103D02*
X0044437Y0054103D01*
X0026566Y0057014D02*
X0018214Y0065366D01*
X0015303Y0083237D02*
X0015303Y0095048D01*
X0032232Y0104497D02*
X0044043Y0104497D01*
X0065697Y0082843D02*
X0065697Y0071032D01*
D18*
X0053000Y0029800D03*
X0043000Y0028800D03*
X0033000Y0029800D03*
X0023000Y0028800D03*
X0013000Y0029800D03*
X0013000Y0019800D03*
X0023000Y0018800D03*
X0033000Y0019800D03*
X0043000Y0018800D03*
X0053000Y0019800D03*
D19*
X0108500Y0049300D03*
X0107500Y0059300D03*
X0108500Y0069300D03*
X0083000Y0067500D03*
X0083000Y0056100D03*
D20*
X0190500Y0051800D03*
X0190500Y0081800D03*
D21*
X0004850Y0114123D02*
X0004850Y0003650D01*
X0115916Y0003650D01*
X0115847Y0003679D01*
X0114779Y0004747D01*
X0114200Y0006144D01*
X0114200Y0012456D01*
X0114779Y0013853D01*
X0115847Y0014921D01*
X0117244Y0015500D01*
X0118756Y0015500D01*
X0120153Y0014921D01*
X0120543Y0014530D01*
X0121100Y0015087D01*
X0121100Y0034626D01*
X0120153Y0033679D01*
X0118756Y0033100D01*
X0117244Y0033100D01*
X0115847Y0033679D01*
X0114779Y0034747D01*
X0114200Y0036144D01*
X0114200Y0042456D01*
X0114779Y0043853D01*
X0115847Y0044921D01*
X0117244Y0045500D01*
X0118756Y0045500D01*
X0120153Y0044921D01*
X0121100Y0043974D01*
X0121100Y0045087D01*
X0122213Y0046200D01*
X0123600Y0047587D01*
X0123600Y0048326D01*
X0121700Y0050226D01*
X0121700Y0053374D01*
X0123926Y0055600D01*
X0127074Y0055600D01*
X0128600Y0054074D01*
X0128600Y0079526D01*
X0127400Y0078326D01*
X0127400Y0061148D01*
X0127747Y0060801D01*
X0128150Y0059827D01*
X0128150Y0058773D01*
X0127747Y0057799D01*
X0127001Y0057053D01*
X0126027Y0056650D01*
X0124973Y0056650D01*
X0123999Y0057053D01*
X0123253Y0057799D01*
X0122850Y0058773D01*
X0122850Y0059827D01*
X0123253Y0060801D01*
X0123600Y0061148D01*
X0123600Y0078326D01*
X0122400Y0079526D01*
X0122400Y0060513D01*
X0113190Y0051303D01*
X0113600Y0050314D01*
X0113600Y0048286D01*
X0112824Y0046411D01*
X0111389Y0044976D01*
X0109514Y0044200D01*
X0107486Y0044200D01*
X0105611Y0044976D01*
X0104176Y0046411D01*
X0103400Y0048286D01*
X0103400Y0050314D01*
X0104176Y0052189D01*
X0105611Y0053624D01*
X0107003Y0054200D01*
X0106486Y0054200D01*
X0104611Y0054976D01*
X0103176Y0056411D01*
X0102400Y0058286D01*
X0102400Y0060314D01*
X0103176Y0062189D01*
X0104611Y0063624D01*
X0106219Y0064290D01*
X0105617Y0064596D01*
X0104917Y0065105D01*
X0104305Y0065717D01*
X0103796Y0066417D01*
X0103403Y0067189D01*
X0103135Y0068012D01*
X0103000Y0068867D01*
X0103000Y0069100D01*
X0108300Y0069100D01*
X0108300Y0069500D01*
X0108300Y0074800D01*
X0108067Y0074800D01*
X0107212Y0074665D01*
X0106389Y0074397D01*
X0105617Y0074004D01*
X0104917Y0073495D01*
X0104305Y0072883D01*
X0103796Y0072183D01*
X0103403Y0071411D01*
X0103135Y0070588D01*
X0103000Y0069733D01*
X0103000Y0069500D01*
X0108300Y0069500D01*
X0108700Y0069500D01*
X0114000Y0069500D01*
X0114000Y0069733D01*
X0113865Y0070588D01*
X0113597Y0071411D01*
X0113204Y0072183D01*
X0112695Y0072883D01*
X0112083Y0073495D01*
X0111383Y0074004D01*
X0110611Y0074397D01*
X0109788Y0074665D01*
X0108933Y0074800D01*
X0108700Y0074800D01*
X0108700Y0069500D01*
X0108700Y0069100D01*
X0114000Y0069100D01*
X0114000Y0068867D01*
X0113865Y0068012D01*
X0113597Y0067189D01*
X0113204Y0066417D01*
X0112695Y0065717D01*
X0112083Y0065105D01*
X0111383Y0064596D01*
X0110611Y0064203D01*
X0109788Y0063935D01*
X0109678Y0063918D01*
X0110389Y0063624D01*
X0111824Y0062189D01*
X0112600Y0060314D01*
X0112600Y0058286D01*
X0111824Y0056411D01*
X0110389Y0054976D01*
X0108997Y0054400D01*
X0109514Y0054400D01*
X0110503Y0053990D01*
X0118600Y0062087D01*
X0118600Y0095087D01*
X0119200Y0095687D01*
X0119200Y0098374D01*
X0121426Y0100600D01*
X0124574Y0100600D01*
X0126800Y0098374D01*
X0126800Y0095226D01*
X0124574Y0093000D01*
X0122400Y0093000D01*
X0122400Y0084074D01*
X0123926Y0085600D01*
X0127074Y0085600D01*
X0128600Y0084074D01*
X0128600Y0087452D01*
X0128253Y0087799D01*
X0127850Y0088773D01*
X0127850Y0089827D01*
X0128253Y0090801D01*
X0128999Y0091547D01*
X0129973Y0091950D01*
X0131027Y0091950D01*
X0132001Y0091547D01*
X0132747Y0090801D01*
X0133150Y0089827D01*
X0133150Y0088773D01*
X0132747Y0087799D01*
X0132400Y0087452D01*
X0132400Y0084640D01*
X0133760Y0086000D01*
X0135500Y0086000D01*
X0135500Y0081800D01*
X0135500Y0081800D01*
X0139700Y0081800D01*
X0139700Y0083540D01*
X0137240Y0086000D01*
X0135500Y0086000D01*
X0135500Y0081800D01*
X0135500Y0081800D01*
X0139700Y0081800D01*
X0139700Y0080060D01*
X0137240Y0077600D01*
X0135500Y0077600D01*
X0135500Y0081800D01*
X0135500Y0081800D01*
X0135500Y0077600D01*
X0133760Y0077600D01*
X0132400Y0078960D01*
X0132400Y0054074D01*
X0133600Y0055274D01*
X0133600Y0072452D01*
X0133253Y0072799D01*
X0132850Y0073773D01*
X0132850Y0074827D01*
X0133253Y0075801D01*
X0133999Y0076547D01*
X0134973Y0076950D01*
X0136027Y0076950D01*
X0137001Y0076547D01*
X0137747Y0075801D01*
X0138150Y0074827D01*
X0138150Y0073773D01*
X0137747Y0072799D01*
X0137400Y0072452D01*
X0137400Y0055274D01*
X0139300Y0053374D01*
X0139300Y0050687D01*
X0139900Y0050087D01*
X0139900Y0045026D01*
X0140153Y0044921D01*
X0141100Y0043974D01*
X0141100Y0050087D01*
X0141700Y0050687D01*
X0141700Y0053374D01*
X0143926Y0055600D01*
X0147074Y0055600D01*
X0148600Y0054074D01*
X0148600Y0079526D01*
X0148100Y0079026D01*
X0148100Y0069948D01*
X0148150Y0069827D01*
X0148150Y0068773D01*
X0147747Y0067799D01*
X0147001Y0067053D01*
X0146027Y0066650D01*
X0144973Y0066650D01*
X0143999Y0067053D01*
X0143253Y0067799D01*
X0142850Y0068773D01*
X0142850Y0069827D01*
X0142900Y0069948D01*
X0142900Y0079026D01*
X0141700Y0080226D01*
X0141700Y0083374D01*
X0143926Y0085600D01*
X0147074Y0085600D01*
X0148600Y0084074D01*
X0148600Y0086013D01*
X0146100Y0088513D01*
X0146100Y0102587D01*
X0147213Y0103700D01*
X0149200Y0105687D01*
X0149200Y0108374D01*
X0151426Y0110600D01*
X0154574Y0110600D01*
X0156467Y0108707D01*
X0158760Y0111000D01*
X0160500Y0111000D01*
X0160500Y0106800D01*
X0160500Y0106800D01*
X0164700Y0106800D01*
X0164700Y0108540D01*
X0162240Y0111000D01*
X0160500Y0111000D01*
X0160500Y0106800D01*
X0160500Y0106800D01*
X0164700Y0106800D01*
X0164700Y0105060D01*
X0162240Y0102600D01*
X0160500Y0102600D01*
X0160500Y0106800D01*
X0160500Y0106800D01*
X0160500Y0102600D01*
X0158760Y0102600D01*
X0156467Y0104893D01*
X0154574Y0103000D01*
X0151887Y0103000D01*
X0149900Y0101013D01*
X0149900Y0099074D01*
X0151426Y0100600D01*
X0154574Y0100600D01*
X0156750Y0098424D01*
X0158926Y0100600D01*
X0162074Y0100600D01*
X0164300Y0098374D01*
X0164300Y0095687D01*
X0172400Y0087587D01*
X0172400Y0084074D01*
X0173926Y0085600D01*
X0177074Y0085600D01*
X0179300Y0083374D01*
X0179300Y0080226D01*
X0177074Y0078000D01*
X0173926Y0078000D01*
X0172400Y0079526D01*
X0172400Y0054074D01*
X0173926Y0055600D01*
X0177074Y0055600D01*
X0179300Y0053374D01*
X0179300Y0050226D01*
X0177074Y0048000D01*
X0173926Y0048000D01*
X0172400Y0049526D01*
X0172400Y0047587D01*
X0175456Y0044530D01*
X0175847Y0044921D01*
X0177244Y0045500D01*
X0178756Y0045500D01*
X0180153Y0044921D01*
X0181221Y0043853D01*
X0181800Y0042456D01*
X0181800Y0036144D01*
X0181221Y0034747D01*
X0180153Y0033679D01*
X0178756Y0033100D01*
X0177244Y0033100D01*
X0175847Y0033679D01*
X0174779Y0034747D01*
X0174200Y0036144D01*
X0174200Y0040413D01*
X0171547Y0043066D01*
X0171800Y0042456D01*
X0171800Y0036144D01*
X0171221Y0034747D01*
X0170153Y0033679D01*
X0168756Y0033100D01*
X0167244Y0033100D01*
X0165847Y0033679D01*
X0164779Y0034747D01*
X0164200Y0036144D01*
X0164200Y0042456D01*
X0164779Y0043853D01*
X0165847Y0044921D01*
X0167244Y0045500D01*
X0168756Y0045500D01*
X0169366Y0045247D01*
X0168600Y0046013D01*
X0168600Y0048960D01*
X0167240Y0047600D01*
X0165500Y0047600D01*
X0165500Y0051800D01*
X0165500Y0051800D01*
X0165500Y0056000D01*
X0167240Y0056000D01*
X0168600Y0054640D01*
X0168600Y0079526D01*
X0167074Y0078000D01*
X0163926Y0078000D01*
X0161700Y0080226D01*
X0161700Y0083374D01*
X0163926Y0085600D01*
X0167074Y0085600D01*
X0168600Y0084074D01*
X0168600Y0086013D01*
X0161613Y0093000D01*
X0158926Y0093000D01*
X0156750Y0095176D01*
X0154574Y0093000D01*
X0151426Y0093000D01*
X0149900Y0094526D01*
X0149900Y0090087D01*
X0151287Y0088700D01*
X0152400Y0087587D01*
X0152400Y0084640D01*
X0153760Y0086000D01*
X0155500Y0086000D01*
X0155500Y0081800D01*
X0155500Y0081800D01*
X0159700Y0081800D01*
X0159700Y0083540D01*
X0157240Y0086000D01*
X0155500Y0086000D01*
X0155500Y0081800D01*
X0155500Y0081800D01*
X0159700Y0081800D01*
X0159700Y0080060D01*
X0157240Y0077600D01*
X0155500Y0077600D01*
X0155500Y0081800D01*
X0155500Y0081800D01*
X0155500Y0077600D01*
X0153760Y0077600D01*
X0152400Y0078960D01*
X0152400Y0054074D01*
X0153926Y0055600D01*
X0157074Y0055600D01*
X0159300Y0053374D01*
X0159300Y0050226D01*
X0157074Y0048000D01*
X0153926Y0048000D01*
X0152400Y0049526D01*
X0152400Y0041013D01*
X0151800Y0040413D01*
X0151800Y0036144D01*
X0151221Y0034747D01*
X0150153Y0033679D01*
X0148756Y0033100D01*
X0147244Y0033100D01*
X0145847Y0033679D01*
X0144900Y0034626D01*
X0144900Y0023513D01*
X0143787Y0022400D01*
X0136634Y0015247D01*
X0137244Y0015500D01*
X0138756Y0015500D01*
X0140153Y0014921D01*
X0140544Y0014530D01*
X0152850Y0026837D01*
X0152850Y0027327D01*
X0153253Y0028301D01*
X0153999Y0029047D01*
X0154973Y0029450D01*
X0156027Y0029450D01*
X0157001Y0029047D01*
X0157747Y0028301D01*
X0158150Y0027327D01*
X0158150Y0026273D01*
X0157747Y0025299D01*
X0157001Y0024553D01*
X0156027Y0024150D01*
X0155537Y0024150D01*
X0146634Y0015247D01*
X0147244Y0015500D01*
X0148756Y0015500D01*
X0150153Y0014921D01*
X0151221Y0013853D01*
X0151800Y0012456D01*
X0151800Y0006144D01*
X0151221Y0004747D01*
X0150153Y0003679D01*
X0150084Y0003650D01*
X0155328Y0003650D01*
X0155264Y0003696D01*
X0154796Y0004164D01*
X0154408Y0004699D01*
X0154108Y0005288D01*
X0153903Y0005916D01*
X0153800Y0006569D01*
X0153800Y0009300D01*
X0158000Y0009300D01*
X0158000Y0009300D01*
X0158000Y0015900D01*
X0158331Y0015900D01*
X0158984Y0015797D01*
X0159612Y0015592D01*
X0160201Y0015292D01*
X0160736Y0014904D01*
X0161204Y0014436D01*
X0161592Y0013901D01*
X0161892Y0013312D01*
X0162097Y0012684D01*
X0162200Y0012031D01*
X0162200Y0009300D01*
X0158000Y0009300D01*
X0158000Y0009300D01*
X0158000Y0009300D01*
X0158000Y0015900D01*
X0157669Y0015900D01*
X0157016Y0015797D01*
X0156388Y0015592D01*
X0155799Y0015292D01*
X0155264Y0014904D01*
X0154796Y0014436D01*
X0154408Y0013901D01*
X0154108Y0013312D01*
X0153903Y0012684D01*
X0153800Y0012031D01*
X0153800Y0009300D01*
X0158000Y0009300D01*
X0162200Y0009300D01*
X0162200Y0006569D01*
X0162097Y0005916D01*
X0161892Y0005288D01*
X0161592Y0004699D01*
X0161204Y0004164D01*
X0160736Y0003696D01*
X0160672Y0003650D01*
X0165916Y0003650D01*
X0165847Y0003679D01*
X0164779Y0004747D01*
X0164200Y0006144D01*
X0164200Y0012456D01*
X0164779Y0013853D01*
X0165847Y0014921D01*
X0167244Y0015500D01*
X0168756Y0015500D01*
X0170153Y0014921D01*
X0171221Y0013853D01*
X0171800Y0012456D01*
X0171800Y0006144D01*
X0171221Y0004747D01*
X0170153Y0003679D01*
X0170084Y0003650D01*
X0175916Y0003650D01*
X0175847Y0003679D01*
X0174779Y0004747D01*
X0174200Y0006144D01*
X0174200Y0012456D01*
X0174779Y0013853D01*
X0175847Y0014921D01*
X0177244Y0015500D01*
X0178756Y0015500D01*
X0180153Y0014921D01*
X0181221Y0013853D01*
X0181800Y0012456D01*
X0181800Y0006144D01*
X0181221Y0004747D01*
X0180153Y0003679D01*
X0180084Y0003650D01*
X0197410Y0003650D01*
X0197410Y0047171D01*
X0196754Y0046316D01*
X0195984Y0045546D01*
X0195121Y0044884D01*
X0194179Y0044340D01*
X0193174Y0043924D01*
X0192123Y0043642D01*
X0191300Y0043534D01*
X0191300Y0051000D01*
X0189700Y0051000D01*
X0189700Y0043534D01*
X0188877Y0043642D01*
X0187826Y0043924D01*
X0186821Y0044340D01*
X0185879Y0044884D01*
X0185016Y0045546D01*
X0184246Y0046316D01*
X0183584Y0047179D01*
X0183040Y0048121D01*
X0182624Y0049126D01*
X0182342Y0050177D01*
X0182234Y0051000D01*
X0189700Y0051000D01*
X0189700Y0052600D01*
X0189700Y0060066D01*
X0188877Y0059958D01*
X0187826Y0059676D01*
X0186821Y0059260D01*
X0185879Y0058716D01*
X0185016Y0058054D01*
X0184246Y0057284D01*
X0183584Y0056421D01*
X0183040Y0055479D01*
X0182624Y0054474D01*
X0182342Y0053423D01*
X0182234Y0052600D01*
X0189700Y0052600D01*
X0191300Y0052600D01*
X0191300Y0060066D01*
X0192123Y0059958D01*
X0193174Y0059676D01*
X0194179Y0059260D01*
X0195121Y0058716D01*
X0195984Y0058054D01*
X0196754Y0057284D01*
X0197410Y0056429D01*
X0197410Y0077838D01*
X0197197Y0077325D01*
X0194975Y0075103D01*
X0192071Y0073900D01*
X0188929Y0073900D01*
X0186025Y0075103D01*
X0183803Y0077325D01*
X0182600Y0080229D01*
X0182600Y0083371D01*
X0183803Y0086275D01*
X0186025Y0088497D01*
X0188929Y0089700D01*
X0192071Y0089700D01*
X0194975Y0088497D01*
X0197197Y0086275D01*
X0197410Y0085762D01*
X0197410Y0114123D01*
X0004850Y0114123D01*
X0004850Y0113696D02*
X0197410Y0113696D01*
X0197410Y0112097D02*
X0116142Y0112097D01*
X0117200Y0111040D02*
X0114740Y0113500D01*
X0113000Y0113500D01*
X0113000Y0109300D01*
X0117200Y0109300D01*
X0117200Y0111040D01*
X0117200Y0110499D02*
X0121325Y0110499D01*
X0121426Y0110600D02*
X0119200Y0108374D01*
X0119200Y0105226D01*
X0121426Y0103000D01*
X0124574Y0103000D01*
X0126800Y0105226D01*
X0126800Y0108374D01*
X0124574Y0110600D01*
X0121426Y0110600D01*
X0119726Y0108900D02*
X0117200Y0108900D01*
X0117200Y0109300D02*
X0117200Y0107560D01*
X0114740Y0105100D01*
X0113000Y0105100D01*
X0113000Y0109300D01*
X0113000Y0109300D01*
X0113000Y0109300D01*
X0117200Y0109300D01*
X0116941Y0107302D02*
X0119200Y0107302D01*
X0119200Y0105703D02*
X0115343Y0105703D01*
X0113000Y0105703D02*
X0113000Y0105703D01*
X0113000Y0105100D02*
X0111260Y0105100D01*
X0108800Y0107560D01*
X0108800Y0109300D01*
X0113000Y0109300D01*
X0113000Y0109300D01*
X0113000Y0109300D01*
X0113000Y0113500D01*
X0111260Y0113500D01*
X0108800Y0111040D01*
X0108800Y0109300D01*
X0113000Y0109300D01*
X0113000Y0105100D01*
X0111800Y0103374D02*
X0109574Y0105600D01*
X0106426Y0105600D01*
X0104200Y0103374D01*
X0104200Y0100687D01*
X0101100Y0097587D01*
X0101100Y0091046D01*
X0100366Y0090742D01*
X0099058Y0089434D01*
X0098350Y0087725D01*
X0098350Y0085875D01*
X0098364Y0085841D01*
X0095623Y0083100D01*
X0090020Y0083100D01*
X0089200Y0082280D01*
X0089200Y0076320D01*
X0090020Y0075500D01*
X0095980Y0075500D01*
X0096800Y0076320D01*
X0096800Y0077024D01*
X0096973Y0077096D01*
X0102041Y0082164D01*
X0102075Y0082150D01*
X0103925Y0082150D01*
X0105634Y0082858D01*
X0106942Y0084166D01*
X0107650Y0085875D01*
X0107650Y0087725D01*
X0106942Y0089434D01*
X0105634Y0090742D01*
X0104900Y0091046D01*
X0104900Y0096013D01*
X0106887Y0098000D01*
X0109574Y0098000D01*
X0111800Y0100226D01*
X0111800Y0103374D01*
X0111800Y0102506D02*
X0146100Y0102506D01*
X0146100Y0100908D02*
X0111800Y0100908D01*
X0110883Y0099309D02*
X0120135Y0099309D01*
X0119200Y0097711D02*
X0106598Y0097711D01*
X0104999Y0096112D02*
X0119200Y0096112D01*
X0118600Y0094514D02*
X0104900Y0094514D01*
X0104900Y0092915D02*
X0118600Y0092915D01*
X0118600Y0091317D02*
X0116963Y0091317D01*
X0116830Y0091450D02*
X0109170Y0091450D01*
X0108350Y0090630D01*
X0108350Y0082970D01*
X0109170Y0082150D01*
X0116830Y0082150D01*
X0117650Y0082970D01*
X0117650Y0090630D01*
X0116830Y0091450D01*
X0117650Y0089718D02*
X0118600Y0089718D01*
X0118600Y0088120D02*
X0117650Y0088120D01*
X0117650Y0086521D02*
X0118600Y0086521D01*
X0118600Y0084923D02*
X0117650Y0084923D01*
X0117650Y0083324D02*
X0118600Y0083324D01*
X0118600Y0081726D02*
X0101602Y0081726D01*
X0100004Y0080127D02*
X0118600Y0080127D01*
X0118600Y0078529D02*
X0098405Y0078529D01*
X0096800Y0076930D02*
X0118600Y0076930D01*
X0118600Y0075332D02*
X0073002Y0075332D01*
X0073002Y0073733D02*
X0105244Y0073733D01*
X0103771Y0072134D02*
X0085138Y0072134D01*
X0085889Y0071824D02*
X0084014Y0072600D01*
X0081986Y0072600D01*
X0080111Y0071824D01*
X0078676Y0070389D01*
X0077900Y0068514D01*
X0077900Y0066486D01*
X0078676Y0064611D01*
X0080111Y0063176D01*
X0081986Y0062400D01*
X0084014Y0062400D01*
X0085889Y0063176D01*
X0087324Y0064611D01*
X0088100Y0066486D01*
X0088100Y0068514D01*
X0087324Y0070389D01*
X0085889Y0071824D01*
X0087176Y0070536D02*
X0103127Y0070536D01*
X0103000Y0068937D02*
X0087925Y0068937D01*
X0088100Y0067339D02*
X0103354Y0067339D01*
X0104288Y0065740D02*
X0087791Y0065740D01*
X0086854Y0064142D02*
X0105863Y0064142D01*
X0103531Y0062543D02*
X0084361Y0062543D01*
X0084014Y0061200D02*
X0081986Y0061200D01*
X0080111Y0060424D01*
X0078676Y0058989D01*
X0077900Y0057114D01*
X0077900Y0055086D01*
X0078676Y0053211D01*
X0080111Y0051776D01*
X0081986Y0051000D01*
X0084014Y0051000D01*
X0085889Y0051776D01*
X0087324Y0053211D01*
X0088100Y0055086D01*
X0088100Y0057114D01*
X0087324Y0058989D01*
X0085889Y0060424D01*
X0084014Y0061200D01*
X0084630Y0060945D02*
X0102661Y0060945D01*
X0102400Y0059346D02*
X0086966Y0059346D01*
X0087838Y0057748D02*
X0102623Y0057748D01*
X0103438Y0056149D02*
X0088100Y0056149D01*
X0087879Y0054551D02*
X0105638Y0054551D01*
X0104940Y0052952D02*
X0087065Y0052952D01*
X0084869Y0051354D02*
X0103831Y0051354D01*
X0103400Y0049755D02*
X0062232Y0049755D01*
X0062441Y0049965D02*
X0063554Y0052650D01*
X0063554Y0055556D01*
X0062441Y0058241D01*
X0060386Y0060296D01*
X0057701Y0061409D01*
X0042984Y0061409D01*
X0040299Y0060296D01*
X0038244Y0058241D01*
X0037131Y0055556D01*
X0037131Y0052650D01*
X0038244Y0049965D01*
X0040299Y0047910D01*
X0042984Y0046798D01*
X0057701Y0046798D01*
X0060386Y0047910D01*
X0062441Y0049965D01*
X0063017Y0051354D02*
X0081131Y0051354D01*
X0078935Y0052952D02*
X0063554Y0052952D01*
X0063554Y0054551D02*
X0078121Y0054551D01*
X0077900Y0056149D02*
X0063308Y0056149D01*
X0062646Y0057748D02*
X0078162Y0057748D01*
X0079034Y0059346D02*
X0061336Y0059346D01*
X0058821Y0060945D02*
X0081370Y0060945D01*
X0081639Y0062543D02*
X0031933Y0062543D01*
X0032371Y0062105D02*
X0027838Y0066638D01*
X0023305Y0071171D01*
X0022504Y0071786D01*
X0021629Y0072291D01*
X0020696Y0072678D01*
X0019720Y0072939D01*
X0018719Y0073071D01*
X0017709Y0073071D01*
X0016707Y0072939D01*
X0015732Y0072678D01*
X0014799Y0072291D01*
X0013924Y0071786D01*
X0013122Y0071171D01*
X0012765Y0070814D01*
X0012408Y0070457D01*
X0011793Y0069656D01*
X0011288Y0068781D01*
X0010902Y0067848D01*
X0010640Y0066872D01*
X0010508Y0065871D01*
X0010508Y0064861D01*
X0010640Y0063859D01*
X0010902Y0062883D01*
X0011288Y0061950D01*
X0011793Y0061075D01*
X0012408Y0060274D01*
X0016941Y0055741D01*
X0021474Y0051208D01*
X0022275Y0050593D01*
X0023150Y0050088D01*
X0024083Y0049702D01*
X0025059Y0049440D01*
X0026061Y0049308D01*
X0027071Y0049308D01*
X0028072Y0049440D01*
X0029048Y0049702D01*
X0029981Y0050088D01*
X0030856Y0050593D01*
X0031657Y0051208D01*
X0032014Y0051565D01*
X0022390Y0061190D01*
X0027838Y0066638D01*
X0022390Y0061190D01*
X0022390Y0061190D01*
X0032014Y0051565D01*
X0032371Y0051922D01*
X0032986Y0052724D01*
X0033491Y0053599D01*
X0033878Y0054532D01*
X0034139Y0055507D01*
X0034271Y0056509D01*
X0034271Y0057519D01*
X0034139Y0058520D01*
X0033878Y0059496D01*
X0033491Y0060429D01*
X0032986Y0061304D01*
X0032371Y0062105D01*
X0033194Y0060945D02*
X0041864Y0060945D01*
X0039349Y0059346D02*
X0033918Y0059346D01*
X0034241Y0057748D02*
X0038039Y0057748D01*
X0037377Y0056149D02*
X0034224Y0056149D01*
X0033883Y0054551D02*
X0037131Y0054551D01*
X0037131Y0052952D02*
X0033118Y0052952D01*
X0030627Y0052952D02*
X0030627Y0052952D01*
X0029029Y0054551D02*
X0029029Y0054551D01*
X0027430Y0056149D02*
X0027430Y0056149D01*
X0025832Y0057748D02*
X0025832Y0057748D01*
X0024233Y0059346D02*
X0024233Y0059346D01*
X0022635Y0060945D02*
X0022634Y0060945D01*
X0022390Y0061190D02*
X0022390Y0061190D01*
X0022390Y0061190D01*
X0012765Y0070814D01*
X0022390Y0061190D01*
X0016941Y0055741D01*
X0022390Y0061190D01*
X0022390Y0061190D01*
X0022145Y0060945D02*
X0022145Y0060945D01*
X0020546Y0059346D02*
X0020546Y0059346D01*
X0018948Y0057748D02*
X0018948Y0057748D01*
X0017349Y0056149D02*
X0017349Y0056149D01*
X0016533Y0056149D02*
X0004850Y0056149D01*
X0004850Y0054551D02*
X0018131Y0054551D01*
X0019730Y0052952D02*
X0004850Y0052952D01*
X0004850Y0051354D02*
X0021328Y0051354D01*
X0023954Y0049755D02*
X0004850Y0049755D01*
X0004850Y0048157D02*
X0040052Y0048157D01*
X0038453Y0049755D02*
X0029177Y0049755D01*
X0031803Y0051354D02*
X0037668Y0051354D01*
X0049016Y0041962D02*
X0050338Y0043284D01*
X0052065Y0044000D01*
X0053935Y0044000D01*
X0055662Y0043284D01*
X0056984Y0041962D01*
X0057700Y0040235D01*
X0057700Y0038365D01*
X0056984Y0036638D01*
X0055662Y0035316D01*
X0054659Y0034900D01*
X0055112Y0034900D01*
X0058100Y0031912D01*
X0058100Y0027688D01*
X0055212Y0024800D01*
X0058100Y0021912D01*
X0058100Y0017688D01*
X0055112Y0014700D01*
X0050888Y0014700D01*
X0048500Y0017088D01*
X0048500Y0016522D01*
X0045278Y0013300D01*
X0043200Y0013300D01*
X0043200Y0018600D01*
X0042800Y0018600D01*
X0042800Y0013300D01*
X0040722Y0013300D01*
X0037500Y0016522D01*
X0037500Y0016522D01*
X0035278Y0014300D01*
X0033200Y0014300D01*
X0033200Y0019600D01*
X0032800Y0019600D01*
X0032800Y0014300D01*
X0030722Y0014300D01*
X0028500Y0016522D01*
X0028500Y0016522D01*
X0025278Y0013300D01*
X0023200Y0013300D01*
X0023200Y0018600D01*
X0022800Y0018600D01*
X0022800Y0013300D01*
X0020722Y0013300D01*
X0017500Y0016522D01*
X0017500Y0017088D01*
X0015112Y0014700D01*
X0010888Y0014700D01*
X0007900Y0017688D01*
X0007900Y0021912D01*
X0010788Y0024800D01*
X0007900Y0027688D01*
X0007900Y0031912D01*
X0010724Y0034736D01*
X0010327Y0034938D01*
X0009678Y0035410D01*
X0009110Y0035978D01*
X0008638Y0036627D01*
X0008274Y0037342D01*
X0008026Y0038106D01*
X0007900Y0038899D01*
X0007900Y0039000D01*
X0012700Y0039000D01*
X0012700Y0039600D01*
X0012700Y0044400D01*
X0012599Y0044400D01*
X0011806Y0044274D01*
X0011042Y0044026D01*
X0010327Y0043662D01*
X0009678Y0043190D01*
X0009110Y0042622D01*
X0008638Y0041973D01*
X0008274Y0041258D01*
X0008026Y0040494D01*
X0007900Y0039701D01*
X0007900Y0039600D01*
X0012700Y0039600D01*
X0013300Y0039600D01*
X0013300Y0044400D01*
X0013401Y0044400D01*
X0014194Y0044274D01*
X0014958Y0044026D01*
X0015673Y0043662D01*
X0016322Y0043190D01*
X0016890Y0042622D01*
X0017362Y0041973D01*
X0017726Y0041258D01*
X0017974Y0040494D01*
X0018100Y0039701D01*
X0018100Y0039600D01*
X0013300Y0039600D01*
X0013300Y0039000D01*
X0018100Y0039000D01*
X0018100Y0038899D01*
X0017974Y0038106D01*
X0017726Y0037342D01*
X0017362Y0036627D01*
X0016890Y0035978D01*
X0016322Y0035410D01*
X0015673Y0034938D01*
X0015276Y0034736D01*
X0018100Y0031912D01*
X0018100Y0031678D01*
X0020722Y0034300D01*
X0022800Y0034300D01*
X0022800Y0029000D01*
X0023200Y0029000D01*
X0023200Y0034300D01*
X0025278Y0034300D01*
X0027500Y0032078D01*
X0027500Y0032078D01*
X0030722Y0035300D01*
X0032800Y0035300D01*
X0032800Y0030000D01*
X0033200Y0030000D01*
X0033200Y0035300D01*
X0035278Y0035300D01*
X0038500Y0032078D01*
X0038500Y0032078D01*
X0040722Y0034300D01*
X0042800Y0034300D01*
X0042800Y0029000D01*
X0043200Y0029000D01*
X0043200Y0034300D01*
X0045278Y0034300D01*
X0047900Y0031678D01*
X0047900Y0031912D01*
X0050888Y0034900D01*
X0051341Y0034900D01*
X0050338Y0035316D01*
X0049016Y0036638D01*
X0048300Y0038365D01*
X0048300Y0040235D01*
X0049016Y0041962D01*
X0048933Y0041763D02*
X0017469Y0041763D01*
X0018027Y0040164D02*
X0048300Y0040164D01*
X0048300Y0038566D02*
X0018047Y0038566D01*
X0017535Y0036967D02*
X0048879Y0036967D01*
X0050284Y0035369D02*
X0016266Y0035369D01*
X0016242Y0033770D02*
X0020192Y0033770D01*
X0018594Y0032172D02*
X0017841Y0032172D01*
X0022800Y0032172D02*
X0023200Y0032172D01*
X0023200Y0030573D02*
X0022800Y0030573D01*
X0022800Y0028600D02*
X0023200Y0028600D01*
X0023200Y0023300D01*
X0023200Y0019000D01*
X0022800Y0019000D01*
X0022800Y0028600D01*
X0022800Y0027376D02*
X0023200Y0027376D01*
X0023200Y0025778D02*
X0022800Y0025778D01*
X0022800Y0024179D02*
X0023200Y0024179D01*
X0023200Y0022581D02*
X0022800Y0022581D01*
X0022800Y0020982D02*
X0023200Y0020982D01*
X0023200Y0019384D02*
X0022800Y0019384D01*
X0022800Y0017785D02*
X0023200Y0017785D01*
X0023200Y0016187D02*
X0022800Y0016187D01*
X0022800Y0014588D02*
X0023200Y0014588D01*
X0026566Y0014588D02*
X0030434Y0014588D01*
X0028835Y0016187D02*
X0028165Y0016187D01*
X0032800Y0016187D02*
X0033200Y0016187D01*
X0033200Y0017785D02*
X0032800Y0017785D01*
X0032800Y0019384D02*
X0033200Y0019384D01*
X0033200Y0020000D02*
X0032800Y0020000D01*
X0032800Y0029600D01*
X0033200Y0029600D01*
X0033200Y0024300D01*
X0033200Y0020000D01*
X0033200Y0020982D02*
X0032800Y0020982D01*
X0032800Y0022581D02*
X0033200Y0022581D01*
X0033200Y0024179D02*
X0032800Y0024179D01*
X0032800Y0025778D02*
X0033200Y0025778D01*
X0033200Y0027376D02*
X0032800Y0027376D01*
X0032800Y0028975D02*
X0033200Y0028975D01*
X0033200Y0030573D02*
X0032800Y0030573D01*
X0032800Y0032172D02*
X0033200Y0032172D01*
X0033200Y0033770D02*
X0032800Y0033770D01*
X0029192Y0033770D02*
X0025808Y0033770D01*
X0023200Y0033770D02*
X0022800Y0033770D01*
X0027406Y0032172D02*
X0027594Y0032172D01*
X0036808Y0033770D02*
X0040192Y0033770D01*
X0038594Y0032172D02*
X0038406Y0032172D01*
X0042800Y0032172D02*
X0043200Y0032172D01*
X0043200Y0030573D02*
X0042800Y0030573D01*
X0042800Y0028600D02*
X0043200Y0028600D01*
X0043200Y0024300D01*
X0043200Y0019000D01*
X0042800Y0019000D01*
X0042800Y0028600D01*
X0042800Y0027376D02*
X0043200Y0027376D01*
X0043200Y0025778D02*
X0042800Y0025778D01*
X0042800Y0024179D02*
X0043200Y0024179D01*
X0043200Y0022581D02*
X0042800Y0022581D01*
X0042800Y0020982D02*
X0043200Y0020982D01*
X0043200Y0019384D02*
X0042800Y0019384D01*
X0042800Y0017785D02*
X0043200Y0017785D01*
X0043200Y0016187D02*
X0042800Y0016187D01*
X0042800Y0014588D02*
X0043200Y0014588D01*
X0046566Y0014588D02*
X0068660Y0014588D01*
X0068561Y0014620D02*
X0069317Y0014374D01*
X0070103Y0014250D01*
X0070500Y0014250D01*
X0070897Y0014250D01*
X0071683Y0014374D01*
X0072439Y0014620D01*
X0073147Y0014981D01*
X0073790Y0015448D01*
X0074352Y0016010D01*
X0074819Y0016653D01*
X0075180Y0017361D01*
X0075426Y0018117D01*
X0075550Y0018903D01*
X0075550Y0019300D01*
X0075550Y0019697D01*
X0075426Y0020483D01*
X0075180Y0021239D01*
X0074819Y0021947D01*
X0074352Y0022590D01*
X0073790Y0023152D01*
X0073147Y0023619D01*
X0072439Y0023980D01*
X0071683Y0024226D01*
X0070897Y0024350D01*
X0070500Y0024350D01*
X0070500Y0019300D01*
X0070500Y0019300D01*
X0075550Y0019300D01*
X0070500Y0019300D01*
X0070500Y0019300D01*
X0070500Y0019300D01*
X0065450Y0019300D01*
X0065450Y0019697D01*
X0065574Y0020483D01*
X0065820Y0021239D01*
X0066181Y0021947D01*
X0066648Y0022590D01*
X0067210Y0023152D01*
X0067853Y0023619D01*
X0068561Y0023980D01*
X0069317Y0024226D01*
X0070103Y0024350D01*
X0070500Y0024350D01*
X0070500Y0019300D01*
X0070500Y0014250D01*
X0070500Y0019300D01*
X0070500Y0019300D01*
X0065450Y0019300D01*
X0065450Y0018903D01*
X0065574Y0018117D01*
X0065820Y0017361D01*
X0066181Y0016653D01*
X0066648Y0016010D01*
X0067210Y0015448D01*
X0067853Y0014981D01*
X0068561Y0014620D01*
X0070500Y0014588D02*
X0070500Y0014588D01*
X0070500Y0016187D02*
X0070500Y0016187D01*
X0070500Y0017785D02*
X0070500Y0017785D01*
X0070500Y0019384D02*
X0070500Y0019384D01*
X0070500Y0020982D02*
X0070500Y0020982D01*
X0070500Y0022581D02*
X0070500Y0022581D01*
X0070500Y0024179D02*
X0070500Y0024179D01*
X0069174Y0024179D02*
X0055833Y0024179D01*
X0056190Y0025778D02*
X0065850Y0025778D01*
X0065850Y0025470D02*
X0066670Y0024650D01*
X0074330Y0024650D01*
X0075150Y0025470D01*
X0075150Y0033130D01*
X0074330Y0033950D01*
X0066670Y0033950D01*
X0065850Y0033130D01*
X0065850Y0025470D01*
X0065850Y0027376D02*
X0057789Y0027376D01*
X0058100Y0028975D02*
X0065850Y0028975D01*
X0065850Y0030573D02*
X0058100Y0030573D01*
X0057841Y0032172D02*
X0065850Y0032172D01*
X0066490Y0033770D02*
X0056242Y0033770D01*
X0055716Y0035369D02*
X0101700Y0035369D01*
X0101700Y0035874D02*
X0101700Y0032726D01*
X0103926Y0030500D01*
X0107074Y0030500D01*
X0109300Y0032726D01*
X0109300Y0035874D01*
X0107074Y0038100D01*
X0103926Y0038100D01*
X0101700Y0035874D01*
X0102793Y0036967D02*
X0096041Y0036967D01*
X0096800Y0037726D02*
X0094574Y0035500D01*
X0091426Y0035500D01*
X0089200Y0037726D01*
X0089200Y0040874D01*
X0091426Y0043100D01*
X0094574Y0043100D01*
X0096800Y0040874D01*
X0096800Y0037726D01*
X0096800Y0038566D02*
X0114200Y0038566D01*
X0114200Y0040164D02*
X0096800Y0040164D01*
X0095911Y0041763D02*
X0114200Y0041763D01*
X0114575Y0043361D02*
X0055477Y0043361D01*
X0057067Y0041763D02*
X0070089Y0041763D01*
X0069200Y0040874D02*
X0069200Y0037726D01*
X0071426Y0035500D01*
X0074574Y0035500D01*
X0076800Y0037726D01*
X0076800Y0040874D01*
X0074574Y0043100D01*
X0071426Y0043100D01*
X0069200Y0040874D01*
X0069200Y0040164D02*
X0057700Y0040164D01*
X0057700Y0038566D02*
X0069200Y0038566D01*
X0069959Y0036967D02*
X0057121Y0036967D01*
X0049758Y0033770D02*
X0045808Y0033770D01*
X0043200Y0033770D02*
X0042800Y0033770D01*
X0047406Y0032172D02*
X0048159Y0032172D01*
X0057432Y0022581D02*
X0066641Y0022581D01*
X0065737Y0020982D02*
X0058100Y0020982D01*
X0058100Y0019384D02*
X0065450Y0019384D01*
X0065682Y0017785D02*
X0058100Y0017785D01*
X0056599Y0016187D02*
X0066520Y0016187D01*
X0071316Y0012990D02*
X0055957Y0012990D01*
X0055662Y0013284D02*
X0053935Y0014000D01*
X0052065Y0014000D01*
X0050338Y0013284D01*
X0049016Y0011962D01*
X0048300Y0010235D01*
X0048300Y0008365D01*
X0049016Y0006638D01*
X0050338Y0005316D01*
X0052065Y0004600D01*
X0053935Y0004600D01*
X0055662Y0005316D01*
X0056984Y0006638D01*
X0057700Y0008365D01*
X0057700Y0010235D01*
X0056984Y0011962D01*
X0055662Y0013284D01*
X0057221Y0011391D02*
X0069717Y0011391D01*
X0069200Y0010874D02*
X0069200Y0007726D01*
X0071426Y0005500D01*
X0074574Y0005500D01*
X0076800Y0007726D01*
X0076800Y0010874D01*
X0074574Y0013100D01*
X0071426Y0013100D01*
X0069200Y0010874D01*
X0069200Y0009793D02*
X0057700Y0009793D01*
X0057629Y0008194D02*
X0069200Y0008194D01*
X0070330Y0006596D02*
X0056942Y0006596D01*
X0054893Y0004997D02*
X0114675Y0004997D01*
X0114200Y0006596D02*
X0095670Y0006596D01*
X0094574Y0005500D02*
X0096800Y0007726D01*
X0096800Y0010874D01*
X0094574Y0013100D01*
X0091426Y0013100D01*
X0089200Y0010874D01*
X0089200Y0007726D01*
X0091426Y0005500D01*
X0094574Y0005500D01*
X0096800Y0008194D02*
X0114200Y0008194D01*
X0114200Y0009793D02*
X0096800Y0009793D01*
X0096283Y0011391D02*
X0102469Y0011391D01*
X0101300Y0012560D02*
X0103760Y0010100D01*
X0105500Y0010100D01*
X0107240Y0010100D01*
X0109700Y0012560D01*
X0109700Y0014300D01*
X0109700Y0016040D01*
X0107240Y0018500D01*
X0105500Y0018500D01*
X0105500Y0014300D01*
X0105500Y0014300D01*
X0109700Y0014300D01*
X0105500Y0014300D01*
X0105500Y0014300D01*
X0105500Y0014300D01*
X0101300Y0014300D01*
X0101300Y0016040D01*
X0103760Y0018500D01*
X0105500Y0018500D01*
X0105500Y0014300D01*
X0105500Y0010100D01*
X0105500Y0014300D01*
X0105500Y0014300D01*
X0101300Y0014300D01*
X0101300Y0012560D01*
X0101300Y0012990D02*
X0094684Y0012990D01*
X0091316Y0012990D02*
X0074684Y0012990D01*
X0076283Y0011391D02*
X0089717Y0011391D01*
X0089200Y0009793D02*
X0076800Y0009793D01*
X0076800Y0008194D02*
X0089200Y0008194D01*
X0090330Y0006596D02*
X0075670Y0006596D01*
X0072340Y0014588D02*
X0101300Y0014588D01*
X0101447Y0016187D02*
X0096463Y0016187D01*
X0096942Y0016666D02*
X0097650Y0018375D01*
X0097650Y0020225D01*
X0096942Y0021934D01*
X0095634Y0023242D01*
X0093925Y0023950D01*
X0092075Y0023950D01*
X0090366Y0023242D01*
X0089058Y0021934D01*
X0088350Y0020225D01*
X0088350Y0018375D01*
X0089058Y0016666D01*
X0090366Y0015358D01*
X0092075Y0014650D01*
X0093925Y0014650D01*
X0095634Y0015358D01*
X0096942Y0016666D01*
X0097406Y0017785D02*
X0103045Y0017785D01*
X0105500Y0017785D02*
X0105500Y0017785D01*
X0105500Y0016187D02*
X0105500Y0016187D01*
X0105500Y0014588D02*
X0105500Y0014588D01*
X0105500Y0012990D02*
X0105500Y0012990D01*
X0105500Y0011391D02*
X0105500Y0011391D01*
X0108531Y0011391D02*
X0114200Y0011391D01*
X0114421Y0012990D02*
X0109700Y0012990D01*
X0109700Y0014588D02*
X0115514Y0014588D01*
X0121100Y0016187D02*
X0109553Y0016187D01*
X0107955Y0017785D02*
X0121100Y0017785D01*
X0121100Y0019384D02*
X0097650Y0019384D01*
X0097336Y0020982D02*
X0121100Y0020982D01*
X0121100Y0022581D02*
X0096295Y0022581D01*
X0096487Y0024250D02*
X0093000Y0024250D01*
X0093000Y0029300D01*
X0093000Y0029300D01*
X0093000Y0034350D01*
X0096487Y0034350D01*
X0096945Y0034227D01*
X0097355Y0033990D01*
X0097690Y0033655D01*
X0097927Y0033245D01*
X0098050Y0032787D01*
X0098050Y0029300D01*
X0093000Y0029300D01*
X0093000Y0029300D01*
X0093000Y0034350D01*
X0089513Y0034350D01*
X0089055Y0034227D01*
X0088645Y0033990D01*
X0088310Y0033655D01*
X0088073Y0033245D01*
X0087950Y0032787D01*
X0087950Y0029300D01*
X0093000Y0029300D01*
X0098050Y0029300D01*
X0098050Y0025813D01*
X0097927Y0025355D01*
X0097690Y0024945D01*
X0097355Y0024610D01*
X0096945Y0024373D01*
X0096487Y0024250D01*
X0098041Y0025778D02*
X0121100Y0025778D01*
X0121100Y0027376D02*
X0098050Y0027376D01*
X0098050Y0028975D02*
X0121100Y0028975D01*
X0121100Y0030573D02*
X0107147Y0030573D01*
X0108746Y0032172D02*
X0121100Y0032172D01*
X0121100Y0033770D02*
X0120244Y0033770D01*
X0115756Y0033770D02*
X0109300Y0033770D01*
X0109300Y0035369D02*
X0114521Y0035369D01*
X0114200Y0036967D02*
X0108207Y0036967D01*
X0101700Y0033770D02*
X0097575Y0033770D01*
X0098050Y0032172D02*
X0102254Y0032172D01*
X0103853Y0030573D02*
X0098050Y0030573D01*
X0093000Y0030573D02*
X0093000Y0030573D01*
X0093000Y0029300D02*
X0093000Y0029300D01*
X0093000Y0029300D01*
X0093000Y0024250D01*
X0089513Y0024250D01*
X0089055Y0024373D01*
X0088645Y0024610D01*
X0088310Y0024945D01*
X0088073Y0025355D01*
X0087950Y0025813D01*
X0087950Y0029300D01*
X0093000Y0029300D01*
X0093000Y0028975D02*
X0093000Y0028975D01*
X0093000Y0027376D02*
X0093000Y0027376D01*
X0093000Y0025778D02*
X0093000Y0025778D01*
X0087959Y0025778D02*
X0075150Y0025778D01*
X0075150Y0027376D02*
X0087950Y0027376D01*
X0087950Y0028975D02*
X0075150Y0028975D01*
X0075150Y0030573D02*
X0087950Y0030573D01*
X0087950Y0032172D02*
X0075150Y0032172D01*
X0074510Y0033770D02*
X0088425Y0033770D01*
X0089959Y0036967D02*
X0076041Y0036967D01*
X0076800Y0038566D02*
X0089200Y0038566D01*
X0089200Y0040164D02*
X0076800Y0040164D01*
X0075911Y0041763D02*
X0090089Y0041763D01*
X0093000Y0033770D02*
X0093000Y0033770D01*
X0093000Y0032172D02*
X0093000Y0032172D01*
X0089705Y0022581D02*
X0074359Y0022581D01*
X0075263Y0020982D02*
X0088664Y0020982D01*
X0088350Y0019384D02*
X0075550Y0019384D01*
X0075318Y0017785D02*
X0088594Y0017785D01*
X0089537Y0016187D02*
X0074480Y0016187D01*
X0071826Y0024179D02*
X0121100Y0024179D01*
X0120601Y0014588D02*
X0120486Y0014588D01*
X0137574Y0016187D02*
X0142200Y0016187D01*
X0143798Y0017785D02*
X0139172Y0017785D01*
X0140771Y0019384D02*
X0145397Y0019384D01*
X0146995Y0020982D02*
X0142369Y0020982D01*
X0143968Y0022581D02*
X0148594Y0022581D01*
X0150192Y0024179D02*
X0144900Y0024179D01*
X0144900Y0025778D02*
X0151791Y0025778D01*
X0152870Y0027376D02*
X0144900Y0027376D01*
X0144900Y0028975D02*
X0153927Y0028975D01*
X0157073Y0028975D02*
X0197410Y0028975D01*
X0197410Y0030573D02*
X0190213Y0030573D01*
X0189740Y0030100D02*
X0192200Y0032560D01*
X0192200Y0034300D01*
X0192200Y0036040D01*
X0189740Y0038500D01*
X0188000Y0038500D01*
X0188000Y0034300D01*
X0188000Y0034300D01*
X0192200Y0034300D01*
X0188000Y0034300D01*
X0188000Y0034300D01*
X0188000Y0034300D01*
X0183800Y0034300D01*
X0183800Y0036040D01*
X0186260Y0038500D01*
X0188000Y0038500D01*
X0188000Y0034300D01*
X0188000Y0030100D01*
X0189740Y0030100D01*
X0188000Y0030100D02*
X0188000Y0034300D01*
X0188000Y0034300D01*
X0183800Y0034300D01*
X0183800Y0032560D01*
X0186260Y0030100D01*
X0188000Y0030100D01*
X0188000Y0030573D02*
X0188000Y0030573D01*
X0188000Y0032172D02*
X0188000Y0032172D01*
X0185787Y0030573D02*
X0144900Y0030573D01*
X0144900Y0032172D02*
X0184189Y0032172D01*
X0183800Y0033770D02*
X0180244Y0033770D01*
X0181479Y0035369D02*
X0183800Y0035369D01*
X0184728Y0036967D02*
X0181800Y0036967D01*
X0181800Y0038566D02*
X0197410Y0038566D01*
X0197410Y0040164D02*
X0181800Y0040164D01*
X0181800Y0041763D02*
X0197410Y0041763D01*
X0197410Y0043361D02*
X0181425Y0043361D01*
X0180060Y0044960D02*
X0185780Y0044960D01*
X0184060Y0046558D02*
X0173429Y0046558D01*
X0175027Y0044960D02*
X0175940Y0044960D01*
X0177231Y0048157D02*
X0183025Y0048157D01*
X0182455Y0049755D02*
X0178829Y0049755D01*
X0179300Y0051354D02*
X0189700Y0051354D01*
X0189700Y0049755D02*
X0191300Y0049755D01*
X0191300Y0048157D02*
X0189700Y0048157D01*
X0189700Y0046558D02*
X0191300Y0046558D01*
X0191300Y0044960D02*
X0189700Y0044960D01*
X0195220Y0044960D02*
X0197410Y0044960D01*
X0197410Y0046558D02*
X0196940Y0046558D01*
X0191300Y0052952D02*
X0189700Y0052952D01*
X0189700Y0054551D02*
X0191300Y0054551D01*
X0191300Y0056149D02*
X0189700Y0056149D01*
X0189700Y0057748D02*
X0191300Y0057748D01*
X0191300Y0059346D02*
X0189700Y0059346D01*
X0187030Y0059346D02*
X0172400Y0059346D01*
X0172400Y0057748D02*
X0184710Y0057748D01*
X0183427Y0056149D02*
X0172400Y0056149D01*
X0172400Y0054551D02*
X0172877Y0054551D01*
X0168600Y0056149D02*
X0152400Y0056149D01*
X0152400Y0054551D02*
X0152877Y0054551D01*
X0148600Y0054551D02*
X0148123Y0054551D01*
X0148600Y0056149D02*
X0137400Y0056149D01*
X0138123Y0054551D02*
X0142877Y0054551D01*
X0141700Y0052952D02*
X0139300Y0052952D01*
X0139300Y0051354D02*
X0141700Y0051354D01*
X0141100Y0049755D02*
X0139900Y0049755D01*
X0139900Y0048157D02*
X0141100Y0048157D01*
X0141100Y0046558D02*
X0139900Y0046558D01*
X0140060Y0044960D02*
X0141100Y0044960D01*
X0151800Y0040164D02*
X0154200Y0040164D01*
X0154200Y0038566D02*
X0151800Y0038566D01*
X0151800Y0036967D02*
X0154200Y0036967D01*
X0154200Y0036144D02*
X0154779Y0034747D01*
X0155847Y0033679D01*
X0157244Y0033100D01*
X0158756Y0033100D01*
X0160153Y0033679D01*
X0161221Y0034747D01*
X0161800Y0036144D01*
X0161800Y0042456D01*
X0161221Y0043853D01*
X0160153Y0044921D01*
X0158756Y0045500D01*
X0157244Y0045500D01*
X0155847Y0044921D01*
X0154779Y0043853D01*
X0154200Y0042456D01*
X0154200Y0036144D01*
X0154521Y0035369D02*
X0151479Y0035369D01*
X0150244Y0033770D02*
X0155756Y0033770D01*
X0160244Y0033770D02*
X0165756Y0033770D01*
X0164521Y0035369D02*
X0161479Y0035369D01*
X0161800Y0036967D02*
X0164200Y0036967D01*
X0164200Y0038566D02*
X0161800Y0038566D01*
X0161800Y0040164D02*
X0164200Y0040164D01*
X0164200Y0041763D02*
X0161800Y0041763D01*
X0161425Y0043361D02*
X0164575Y0043361D01*
X0165940Y0044960D02*
X0160060Y0044960D01*
X0155940Y0044960D02*
X0152400Y0044960D01*
X0152400Y0046558D02*
X0168600Y0046558D01*
X0168600Y0048157D02*
X0167797Y0048157D01*
X0165500Y0048157D02*
X0165500Y0048157D01*
X0165500Y0047600D02*
X0163760Y0047600D01*
X0161300Y0050060D01*
X0161300Y0051800D01*
X0165500Y0051800D01*
X0165500Y0051800D01*
X0165500Y0051800D01*
X0165500Y0056000D01*
X0163760Y0056000D01*
X0161300Y0053540D01*
X0161300Y0051800D01*
X0165500Y0051800D01*
X0165500Y0047600D01*
X0163203Y0048157D02*
X0157231Y0048157D01*
X0158829Y0049755D02*
X0161605Y0049755D01*
X0161300Y0051354D02*
X0159300Y0051354D01*
X0159300Y0052952D02*
X0161300Y0052952D01*
X0162311Y0054551D02*
X0158123Y0054551D01*
X0152400Y0057748D02*
X0168600Y0057748D01*
X0168600Y0059346D02*
X0152400Y0059346D01*
X0152400Y0060945D02*
X0168600Y0060945D01*
X0168600Y0062543D02*
X0152400Y0062543D01*
X0152400Y0064142D02*
X0168600Y0064142D01*
X0168600Y0065740D02*
X0152400Y0065740D01*
X0152400Y0067339D02*
X0168600Y0067339D01*
X0168600Y0068937D02*
X0152400Y0068937D01*
X0152400Y0070536D02*
X0168600Y0070536D01*
X0168600Y0072134D02*
X0152400Y0072134D01*
X0152400Y0073733D02*
X0168600Y0073733D01*
X0168600Y0075332D02*
X0152400Y0075332D01*
X0152400Y0076930D02*
X0168600Y0076930D01*
X0168600Y0078529D02*
X0167603Y0078529D01*
X0163397Y0078529D02*
X0158168Y0078529D01*
X0159700Y0080127D02*
X0161799Y0080127D01*
X0161700Y0081726D02*
X0159700Y0081726D01*
X0159700Y0083324D02*
X0161700Y0083324D01*
X0163249Y0084923D02*
X0158317Y0084923D01*
X0155500Y0084923D02*
X0155500Y0084923D01*
X0155500Y0083324D02*
X0155500Y0083324D01*
X0155500Y0081726D02*
X0155500Y0081726D01*
X0155500Y0080127D02*
X0155500Y0080127D01*
X0155500Y0078529D02*
X0155500Y0078529D01*
X0152832Y0078529D02*
X0152400Y0078529D01*
X0148600Y0078529D02*
X0148100Y0078529D01*
X0148100Y0076930D02*
X0148600Y0076930D01*
X0148600Y0075332D02*
X0148100Y0075332D01*
X0148100Y0073733D02*
X0148600Y0073733D01*
X0148600Y0072134D02*
X0148100Y0072134D01*
X0148100Y0070536D02*
X0148600Y0070536D01*
X0148600Y0068937D02*
X0148150Y0068937D01*
X0148600Y0067339D02*
X0147287Y0067339D01*
X0148600Y0065740D02*
X0137400Y0065740D01*
X0137400Y0064142D02*
X0148600Y0064142D01*
X0148600Y0062543D02*
X0137400Y0062543D01*
X0137400Y0060945D02*
X0148600Y0060945D01*
X0148600Y0059346D02*
X0137400Y0059346D01*
X0137400Y0057748D02*
X0148600Y0057748D01*
X0152400Y0048157D02*
X0153769Y0048157D01*
X0154575Y0043361D02*
X0152400Y0043361D01*
X0152400Y0041763D02*
X0154200Y0041763D01*
X0145756Y0033770D02*
X0144900Y0033770D01*
X0158130Y0027376D02*
X0197410Y0027376D01*
X0197410Y0025778D02*
X0157945Y0025778D01*
X0156098Y0024179D02*
X0197410Y0024179D01*
X0197410Y0022581D02*
X0153968Y0022581D01*
X0152369Y0020982D02*
X0197410Y0020982D01*
X0197410Y0019384D02*
X0150771Y0019384D01*
X0149172Y0017785D02*
X0186111Y0017785D01*
X0186426Y0018100D02*
X0184200Y0015874D01*
X0184200Y0012726D01*
X0186426Y0010500D01*
X0189574Y0010500D01*
X0191800Y0012726D01*
X0191800Y0015874D01*
X0189574Y0018100D01*
X0186426Y0018100D01*
X0184513Y0016187D02*
X0147574Y0016187D01*
X0150486Y0014588D02*
X0154948Y0014588D01*
X0158000Y0014588D02*
X0158000Y0014588D01*
X0158000Y0012990D02*
X0158000Y0012990D01*
X0158000Y0011391D02*
X0158000Y0011391D01*
X0158000Y0009793D02*
X0158000Y0009793D01*
X0153800Y0009793D02*
X0151800Y0009793D01*
X0151800Y0011391D02*
X0153800Y0011391D01*
X0154003Y0012990D02*
X0151579Y0012990D01*
X0151800Y0008194D02*
X0153800Y0008194D01*
X0153800Y0006596D02*
X0151800Y0006596D01*
X0151325Y0004997D02*
X0154256Y0004997D01*
X0161744Y0004997D02*
X0164675Y0004997D01*
X0164200Y0006596D02*
X0162200Y0006596D01*
X0162200Y0008194D02*
X0164200Y0008194D01*
X0164200Y0009793D02*
X0162200Y0009793D01*
X0162200Y0011391D02*
X0164200Y0011391D01*
X0164421Y0012990D02*
X0161997Y0012990D01*
X0161052Y0014588D02*
X0165514Y0014588D01*
X0170486Y0014588D02*
X0175514Y0014588D01*
X0174421Y0012990D02*
X0171579Y0012990D01*
X0171800Y0011391D02*
X0174200Y0011391D01*
X0174200Y0009793D02*
X0171800Y0009793D01*
X0171800Y0008194D02*
X0174200Y0008194D01*
X0174200Y0006596D02*
X0171800Y0006596D01*
X0171325Y0004997D02*
X0174675Y0004997D01*
X0181325Y0004997D02*
X0197410Y0004997D01*
X0197410Y0006596D02*
X0181800Y0006596D01*
X0181800Y0008194D02*
X0197410Y0008194D01*
X0197410Y0009793D02*
X0181800Y0009793D01*
X0181800Y0011391D02*
X0185535Y0011391D01*
X0184200Y0012990D02*
X0181579Y0012990D01*
X0180486Y0014588D02*
X0184200Y0014588D01*
X0189889Y0017785D02*
X0197410Y0017785D01*
X0197410Y0016187D02*
X0191487Y0016187D01*
X0191800Y0014588D02*
X0197410Y0014588D01*
X0197410Y0012990D02*
X0191800Y0012990D01*
X0190465Y0011391D02*
X0197410Y0011391D01*
X0197410Y0032172D02*
X0191811Y0032172D01*
X0192200Y0033770D02*
X0197410Y0033770D01*
X0197410Y0035369D02*
X0192200Y0035369D01*
X0191272Y0036967D02*
X0197410Y0036967D01*
X0188000Y0036967D02*
X0188000Y0036967D01*
X0188000Y0035369D02*
X0188000Y0035369D01*
X0188000Y0033770D02*
X0188000Y0033770D01*
X0175756Y0033770D02*
X0170244Y0033770D01*
X0171479Y0035369D02*
X0174521Y0035369D01*
X0174200Y0036967D02*
X0171800Y0036967D01*
X0171800Y0038566D02*
X0174200Y0038566D01*
X0174200Y0040164D02*
X0171800Y0040164D01*
X0171800Y0041763D02*
X0172850Y0041763D01*
X0172400Y0048157D02*
X0173769Y0048157D01*
X0179300Y0052952D02*
X0182280Y0052952D01*
X0182656Y0054551D02*
X0178123Y0054551D01*
X0172400Y0060945D02*
X0197410Y0060945D01*
X0197410Y0059346D02*
X0193970Y0059346D01*
X0196290Y0057748D02*
X0197410Y0057748D01*
X0197410Y0062543D02*
X0172400Y0062543D01*
X0172400Y0064142D02*
X0197410Y0064142D01*
X0197410Y0065740D02*
X0172400Y0065740D01*
X0172400Y0067339D02*
X0197410Y0067339D01*
X0197410Y0068937D02*
X0172400Y0068937D01*
X0172400Y0070536D02*
X0197410Y0070536D01*
X0197410Y0072134D02*
X0172400Y0072134D01*
X0172400Y0073733D02*
X0197410Y0073733D01*
X0197410Y0075332D02*
X0195204Y0075332D01*
X0196802Y0076930D02*
X0197410Y0076930D01*
X0185796Y0075332D02*
X0172400Y0075332D01*
X0172400Y0076930D02*
X0184198Y0076930D01*
X0183304Y0078529D02*
X0177603Y0078529D01*
X0179201Y0080127D02*
X0182642Y0080127D01*
X0182600Y0081726D02*
X0179300Y0081726D01*
X0179300Y0083324D02*
X0182600Y0083324D01*
X0183243Y0084923D02*
X0177751Y0084923D01*
X0173249Y0084923D02*
X0172400Y0084923D01*
X0172400Y0086521D02*
X0184049Y0086521D01*
X0185647Y0088120D02*
X0171867Y0088120D01*
X0170269Y0089718D02*
X0197410Y0089718D01*
X0197410Y0088120D02*
X0195353Y0088120D01*
X0196951Y0086521D02*
X0197410Y0086521D01*
X0197410Y0091317D02*
X0168670Y0091317D01*
X0167072Y0092915D02*
X0197410Y0092915D01*
X0197410Y0094514D02*
X0193588Y0094514D01*
X0194300Y0095226D02*
X0192074Y0093000D01*
X0188926Y0093000D01*
X0186700Y0095226D01*
X0186700Y0098374D01*
X0187900Y0099574D01*
X0187900Y0104026D01*
X0186700Y0105226D01*
X0186700Y0108374D01*
X0188926Y0110600D01*
X0192074Y0110600D01*
X0194300Y0108374D01*
X0194300Y0105226D01*
X0193100Y0104026D01*
X0193100Y0099574D01*
X0194300Y0098374D01*
X0194300Y0095226D01*
X0194300Y0096112D02*
X0197410Y0096112D01*
X0197410Y0097711D02*
X0194300Y0097711D01*
X0193365Y0099309D02*
X0197410Y0099309D01*
X0197410Y0100908D02*
X0193100Y0100908D01*
X0193100Y0102506D02*
X0197410Y0102506D01*
X0197410Y0104105D02*
X0193179Y0104105D01*
X0194300Y0105703D02*
X0197410Y0105703D01*
X0197410Y0107302D02*
X0194300Y0107302D01*
X0193774Y0108900D02*
X0197410Y0108900D01*
X0197410Y0110499D02*
X0192175Y0110499D01*
X0188825Y0110499D02*
X0162741Y0110499D01*
X0160500Y0110499D02*
X0160500Y0110499D01*
X0158259Y0110499D02*
X0154675Y0110499D01*
X0156274Y0108900D02*
X0156661Y0108900D01*
X0160500Y0108900D02*
X0160500Y0108900D01*
X0160500Y0107302D02*
X0160500Y0107302D01*
X0160500Y0105703D02*
X0160500Y0105703D01*
X0160500Y0104105D02*
X0160500Y0104105D01*
X0163744Y0104105D02*
X0187821Y0104105D01*
X0187900Y0102506D02*
X0151393Y0102506D01*
X0149900Y0100908D02*
X0187900Y0100908D01*
X0187635Y0099309D02*
X0163365Y0099309D01*
X0164300Y0097711D02*
X0186700Y0097711D01*
X0186700Y0096112D02*
X0164300Y0096112D01*
X0165473Y0094514D02*
X0187412Y0094514D01*
X0168600Y0084923D02*
X0167751Y0084923D01*
X0168092Y0086521D02*
X0152400Y0086521D01*
X0151867Y0088120D02*
X0166493Y0088120D01*
X0164895Y0089718D02*
X0150269Y0089718D01*
X0149900Y0091317D02*
X0163296Y0091317D01*
X0161698Y0092915D02*
X0149900Y0092915D01*
X0149900Y0094514D02*
X0149912Y0094514D01*
X0146100Y0094514D02*
X0126088Y0094514D01*
X0126800Y0096112D02*
X0146100Y0096112D01*
X0146100Y0097711D02*
X0126800Y0097711D01*
X0125865Y0099309D02*
X0146100Y0099309D01*
X0149900Y0099309D02*
X0150135Y0099309D01*
X0155865Y0099309D02*
X0157635Y0099309D01*
X0157412Y0094514D02*
X0156088Y0094514D01*
X0146100Y0092915D02*
X0122400Y0092915D01*
X0122400Y0091317D02*
X0128769Y0091317D01*
X0127850Y0089718D02*
X0122400Y0089718D01*
X0122400Y0088120D02*
X0128121Y0088120D01*
X0128600Y0086521D02*
X0122400Y0086521D01*
X0122400Y0084923D02*
X0123249Y0084923D01*
X0127751Y0084923D02*
X0128600Y0084923D01*
X0132400Y0084923D02*
X0132683Y0084923D01*
X0135500Y0084923D02*
X0135500Y0084923D01*
X0135500Y0083324D02*
X0135500Y0083324D01*
X0135500Y0081726D02*
X0135500Y0081726D01*
X0135500Y0080127D02*
X0135500Y0080127D01*
X0135500Y0078529D02*
X0135500Y0078529D01*
X0134925Y0076930D02*
X0132400Y0076930D01*
X0132400Y0078529D02*
X0132832Y0078529D01*
X0136075Y0076930D02*
X0142900Y0076930D01*
X0142900Y0078529D02*
X0138168Y0078529D01*
X0139700Y0080127D02*
X0141799Y0080127D01*
X0141700Y0081726D02*
X0139700Y0081726D01*
X0139700Y0083324D02*
X0141700Y0083324D01*
X0143249Y0084923D02*
X0138317Y0084923D01*
X0132400Y0086521D02*
X0148092Y0086521D01*
X0146493Y0088120D02*
X0132879Y0088120D01*
X0133150Y0089718D02*
X0146100Y0089718D01*
X0146100Y0091317D02*
X0132231Y0091317D01*
X0147751Y0084923D02*
X0148600Y0084923D01*
X0152400Y0084923D02*
X0152683Y0084923D01*
X0142900Y0075332D02*
X0137941Y0075332D01*
X0138133Y0073733D02*
X0142900Y0073733D01*
X0142900Y0072134D02*
X0137400Y0072134D01*
X0137400Y0070536D02*
X0142900Y0070536D01*
X0142850Y0068937D02*
X0137400Y0068937D01*
X0137400Y0067339D02*
X0143713Y0067339D01*
X0133600Y0067339D02*
X0132400Y0067339D01*
X0132400Y0068937D02*
X0133600Y0068937D01*
X0133600Y0070536D02*
X0132400Y0070536D01*
X0132400Y0072134D02*
X0133600Y0072134D01*
X0132867Y0073733D02*
X0132400Y0073733D01*
X0132400Y0075332D02*
X0133059Y0075332D01*
X0128600Y0075332D02*
X0127400Y0075332D01*
X0127400Y0073733D02*
X0128600Y0073733D01*
X0128600Y0072134D02*
X0127400Y0072134D01*
X0127400Y0070536D02*
X0128600Y0070536D01*
X0128600Y0068937D02*
X0127400Y0068937D01*
X0127400Y0067339D02*
X0128600Y0067339D01*
X0128600Y0065740D02*
X0127400Y0065740D01*
X0127400Y0064142D02*
X0128600Y0064142D01*
X0128600Y0062543D02*
X0127400Y0062543D01*
X0127603Y0060945D02*
X0128600Y0060945D01*
X0128600Y0059346D02*
X0128150Y0059346D01*
X0128600Y0057748D02*
X0127696Y0057748D01*
X0128600Y0056149D02*
X0118036Y0056149D01*
X0116438Y0054551D02*
X0122877Y0054551D01*
X0121700Y0052952D02*
X0114839Y0052952D01*
X0113241Y0051354D02*
X0121700Y0051354D01*
X0122171Y0049755D02*
X0113600Y0049755D01*
X0113547Y0048157D02*
X0123600Y0048157D01*
X0122571Y0046558D02*
X0112885Y0046558D01*
X0111349Y0044960D02*
X0115940Y0044960D01*
X0120060Y0044960D02*
X0121100Y0044960D01*
X0105651Y0044960D02*
X0004850Y0044960D01*
X0004850Y0046558D02*
X0104115Y0046558D01*
X0103453Y0048157D02*
X0060633Y0048157D01*
X0050523Y0043361D02*
X0016087Y0043361D01*
X0013300Y0043361D02*
X0012700Y0043361D01*
X0012700Y0041763D02*
X0013300Y0041763D01*
X0013300Y0040164D02*
X0012700Y0040164D01*
X0008531Y0041763D02*
X0004850Y0041763D01*
X0004850Y0040164D02*
X0007973Y0040164D01*
X0007953Y0038566D02*
X0004850Y0038566D01*
X0004850Y0036967D02*
X0008465Y0036967D01*
X0009734Y0035369D02*
X0004850Y0035369D01*
X0004850Y0033770D02*
X0009758Y0033770D01*
X0008159Y0032172D02*
X0004850Y0032172D01*
X0004850Y0030573D02*
X0007900Y0030573D01*
X0007900Y0028975D02*
X0004850Y0028975D01*
X0004850Y0027376D02*
X0008211Y0027376D01*
X0009810Y0025778D02*
X0004850Y0025778D01*
X0004850Y0024179D02*
X0010167Y0024179D01*
X0008568Y0022581D02*
X0004850Y0022581D01*
X0004850Y0020982D02*
X0007900Y0020982D01*
X0007900Y0019384D02*
X0004850Y0019384D01*
X0004850Y0017785D02*
X0007900Y0017785D01*
X0009401Y0016187D02*
X0004850Y0016187D01*
X0004850Y0014588D02*
X0019434Y0014588D01*
X0017835Y0016187D02*
X0016599Y0016187D01*
X0015673Y0013662D02*
X0014958Y0014026D01*
X0014194Y0014274D01*
X0013401Y0014400D01*
X0013300Y0014400D01*
X0013300Y0009600D01*
X0018100Y0009600D01*
X0018100Y0009701D01*
X0017974Y0010494D01*
X0017726Y0011258D01*
X0017362Y0011973D01*
X0016890Y0012622D01*
X0016322Y0013190D01*
X0015673Y0013662D01*
X0016523Y0012990D02*
X0050043Y0012990D01*
X0048779Y0011391D02*
X0017658Y0011391D01*
X0018086Y0009793D02*
X0048300Y0009793D01*
X0048371Y0008194D02*
X0017988Y0008194D01*
X0017974Y0008106D02*
X0018100Y0008899D01*
X0018100Y0009000D01*
X0013300Y0009000D01*
X0013300Y0009600D01*
X0012700Y0009600D01*
X0012700Y0014400D01*
X0012599Y0014400D01*
X0011806Y0014274D01*
X0011042Y0014026D01*
X0010327Y0013662D01*
X0009678Y0013190D01*
X0009110Y0012622D01*
X0008638Y0011973D01*
X0008274Y0011258D01*
X0008026Y0010494D01*
X0007900Y0009701D01*
X0007900Y0009600D01*
X0012700Y0009600D01*
X0012700Y0009000D01*
X0013300Y0009000D01*
X0013300Y0004200D01*
X0013401Y0004200D01*
X0014194Y0004326D01*
X0014958Y0004574D01*
X0015673Y0004938D01*
X0016322Y0005410D01*
X0016890Y0005978D01*
X0017362Y0006627D01*
X0017726Y0007342D01*
X0017974Y0008106D01*
X0017339Y0006596D02*
X0049058Y0006596D01*
X0051107Y0004997D02*
X0015754Y0004997D01*
X0013300Y0004997D02*
X0012700Y0004997D01*
X0012700Y0004200D02*
X0012700Y0009000D01*
X0007900Y0009000D01*
X0007900Y0008899D01*
X0008026Y0008106D01*
X0008274Y0007342D01*
X0008638Y0006627D01*
X0009110Y0005978D01*
X0009678Y0005410D01*
X0010327Y0004938D01*
X0011042Y0004574D01*
X0011806Y0004326D01*
X0012599Y0004200D01*
X0012700Y0004200D01*
X0010246Y0004997D02*
X0004850Y0004997D01*
X0004850Y0006596D02*
X0008661Y0006596D01*
X0008012Y0008194D02*
X0004850Y0008194D01*
X0004850Y0009793D02*
X0007914Y0009793D01*
X0008342Y0011391D02*
X0004850Y0011391D01*
X0004850Y0012990D02*
X0009477Y0012990D01*
X0012700Y0012990D02*
X0013300Y0012990D01*
X0013300Y0011391D02*
X0012700Y0011391D01*
X0012700Y0009793D02*
X0013300Y0009793D01*
X0013300Y0008194D02*
X0012700Y0008194D01*
X0012700Y0006596D02*
X0013300Y0006596D01*
X0032800Y0014588D02*
X0033200Y0014588D01*
X0035566Y0014588D02*
X0039434Y0014588D01*
X0037835Y0016187D02*
X0037165Y0016187D01*
X0048165Y0016187D02*
X0049401Y0016187D01*
X0009913Y0043361D02*
X0004850Y0043361D01*
X0004850Y0057748D02*
X0014934Y0057748D01*
X0013336Y0059346D02*
X0004850Y0059346D01*
X0004850Y0060945D02*
X0011893Y0060945D01*
X0011043Y0062543D02*
X0004850Y0062543D01*
X0004850Y0064142D02*
X0010603Y0064142D01*
X0010508Y0065740D02*
X0004850Y0065740D01*
X0004850Y0067339D02*
X0010765Y0067339D01*
X0011379Y0068937D02*
X0004850Y0068937D01*
X0004850Y0070536D02*
X0012487Y0070536D01*
X0013043Y0070536D02*
X0013044Y0070536D01*
X0014642Y0068937D02*
X0014642Y0068937D01*
X0016240Y0067339D02*
X0016241Y0067339D01*
X0017839Y0065740D02*
X0017839Y0065740D01*
X0019437Y0064142D02*
X0019438Y0064142D01*
X0021036Y0062543D02*
X0021036Y0062543D01*
X0023743Y0062543D02*
X0023744Y0062543D01*
X0025342Y0064142D02*
X0025342Y0064142D01*
X0026940Y0065740D02*
X0026941Y0065740D01*
X0028736Y0065740D02*
X0035474Y0065740D01*
X0034942Y0065883D02*
X0038604Y0064902D01*
X0042396Y0064902D01*
X0046058Y0065883D01*
X0049341Y0067778D01*
X0052022Y0070459D01*
X0053917Y0073742D01*
X0054898Y0077404D01*
X0054898Y0081196D01*
X0053917Y0084858D01*
X0052022Y0088141D01*
X0049341Y0090822D01*
X0046058Y0092717D01*
X0042396Y0093698D01*
X0038604Y0093698D01*
X0034942Y0092717D01*
X0031659Y0090822D01*
X0028978Y0088141D01*
X0027083Y0084858D01*
X0026102Y0081196D01*
X0026102Y0077404D01*
X0027083Y0073742D01*
X0028978Y0070459D01*
X0031659Y0067778D01*
X0034942Y0065883D01*
X0032420Y0067339D02*
X0027138Y0067339D01*
X0025539Y0068937D02*
X0030500Y0068937D01*
X0028934Y0070536D02*
X0023941Y0070536D01*
X0021901Y0072134D02*
X0028011Y0072134D01*
X0027088Y0073733D02*
X0004850Y0073733D01*
X0004850Y0072134D02*
X0014527Y0072134D01*
X0013850Y0075931D02*
X0016756Y0075931D01*
X0019441Y0077044D01*
X0021496Y0079099D01*
X0022609Y0081784D01*
X0022609Y0096501D01*
X0021496Y0099186D01*
X0019441Y0101241D01*
X0016756Y0102354D01*
X0013850Y0102354D01*
X0011165Y0101241D01*
X0009110Y0099186D01*
X0007998Y0096501D01*
X0007998Y0081784D01*
X0009110Y0079099D01*
X0011165Y0077044D01*
X0013850Y0075931D01*
X0011439Y0076930D02*
X0004850Y0076930D01*
X0004850Y0078529D02*
X0009680Y0078529D01*
X0008684Y0080127D02*
X0004850Y0080127D01*
X0004850Y0081726D02*
X0008022Y0081726D01*
X0007998Y0083324D02*
X0004850Y0083324D01*
X0004850Y0084923D02*
X0007998Y0084923D01*
X0007998Y0086521D02*
X0004850Y0086521D01*
X0004850Y0088120D02*
X0007998Y0088120D01*
X0007998Y0089718D02*
X0004850Y0089718D01*
X0004850Y0091317D02*
X0007998Y0091317D01*
X0007998Y0092915D02*
X0004850Y0092915D01*
X0004850Y0094514D02*
X0007998Y0094514D01*
X0007998Y0096112D02*
X0004850Y0096112D01*
X0004850Y0097711D02*
X0008499Y0097711D01*
X0009233Y0099309D02*
X0004850Y0099309D01*
X0004850Y0100908D02*
X0010831Y0100908D01*
X0004850Y0102506D02*
X0025149Y0102506D01*
X0024927Y0103044D02*
X0026039Y0100359D01*
X0028094Y0098304D01*
X0030779Y0097191D01*
X0045496Y0097191D01*
X0048182Y0098304D01*
X0050237Y0100359D01*
X0051349Y0103044D01*
X0051349Y0105950D01*
X0050237Y0108635D01*
X0048182Y0110690D01*
X0045496Y0111802D01*
X0030779Y0111802D01*
X0028094Y0110690D01*
X0026039Y0108635D01*
X0024927Y0105950D01*
X0024927Y0103044D01*
X0024927Y0104105D02*
X0004850Y0104105D01*
X0004850Y0105703D02*
X0024927Y0105703D01*
X0025487Y0107302D02*
X0004850Y0107302D01*
X0004850Y0108900D02*
X0026304Y0108900D01*
X0027903Y0110499D02*
X0004850Y0110499D01*
X0004850Y0112097D02*
X0090423Y0112097D01*
X0090847Y0112521D02*
X0089779Y0111453D01*
X0089200Y0110056D01*
X0089200Y0108544D01*
X0089779Y0107147D01*
X0090847Y0106079D01*
X0092244Y0105500D01*
X0093756Y0105500D01*
X0095153Y0106079D01*
X0096221Y0107147D01*
X0096800Y0108544D01*
X0096800Y0110056D01*
X0096221Y0111453D01*
X0095153Y0112521D01*
X0093756Y0113100D01*
X0092244Y0113100D01*
X0090847Y0112521D01*
X0089383Y0110499D02*
X0048373Y0110499D01*
X0049971Y0108900D02*
X0089200Y0108900D01*
X0089715Y0107302D02*
X0085372Y0107302D01*
X0084574Y0108100D02*
X0081426Y0108100D01*
X0079200Y0105874D01*
X0079200Y0102726D01*
X0081426Y0100500D01*
X0084574Y0100500D01*
X0086800Y0102726D01*
X0086800Y0105874D01*
X0084574Y0108100D01*
X0086800Y0105703D02*
X0091753Y0105703D01*
X0094247Y0105703D02*
X0101223Y0105703D01*
X0101426Y0105500D02*
X0099200Y0107726D01*
X0099200Y0110874D01*
X0101426Y0113100D01*
X0104574Y0113100D01*
X0106800Y0110874D01*
X0106800Y0107726D01*
X0104574Y0105500D01*
X0101426Y0105500D01*
X0099624Y0107302D02*
X0096285Y0107302D01*
X0096800Y0108900D02*
X0099200Y0108900D01*
X0099200Y0110499D02*
X0096617Y0110499D01*
X0095577Y0112097D02*
X0100423Y0112097D01*
X0105577Y0112097D02*
X0109858Y0112097D01*
X0108800Y0110499D02*
X0106800Y0110499D01*
X0106800Y0108900D02*
X0108800Y0108900D01*
X0109059Y0107302D02*
X0106376Y0107302D01*
X0104777Y0105703D02*
X0110657Y0105703D01*
X0113000Y0107302D02*
X0113000Y0107302D01*
X0113000Y0108900D02*
X0113000Y0108900D01*
X0113000Y0110499D02*
X0113000Y0110499D01*
X0113000Y0112097D02*
X0113000Y0112097D01*
X0124675Y0110499D02*
X0151325Y0110499D01*
X0149726Y0108900D02*
X0126274Y0108900D01*
X0126800Y0107302D02*
X0149200Y0107302D01*
X0149200Y0105703D02*
X0126800Y0105703D01*
X0125679Y0104105D02*
X0147618Y0104105D01*
X0155679Y0104105D02*
X0157256Y0104105D01*
X0164700Y0105703D02*
X0186700Y0105703D01*
X0186700Y0107302D02*
X0164700Y0107302D01*
X0164339Y0108900D02*
X0187226Y0108900D01*
X0173397Y0078529D02*
X0172400Y0078529D01*
X0165500Y0054551D02*
X0165500Y0054551D01*
X0165500Y0052952D02*
X0165500Y0052952D01*
X0165500Y0051354D02*
X0165500Y0051354D01*
X0165500Y0049755D02*
X0165500Y0049755D01*
X0133600Y0056149D02*
X0132400Y0056149D01*
X0132400Y0054551D02*
X0132877Y0054551D01*
X0128600Y0054551D02*
X0128123Y0054551D01*
X0132400Y0057748D02*
X0133600Y0057748D01*
X0133600Y0059346D02*
X0132400Y0059346D01*
X0132400Y0060945D02*
X0133600Y0060945D01*
X0133600Y0062543D02*
X0132400Y0062543D01*
X0132400Y0064142D02*
X0133600Y0064142D01*
X0133600Y0065740D02*
X0132400Y0065740D01*
X0123600Y0065740D02*
X0122400Y0065740D01*
X0122400Y0064142D02*
X0123600Y0064142D01*
X0123600Y0062543D02*
X0122400Y0062543D01*
X0122400Y0060945D02*
X0123397Y0060945D01*
X0122850Y0059346D02*
X0121233Y0059346D01*
X0119635Y0057748D02*
X0123304Y0057748D01*
X0117458Y0060945D02*
X0112339Y0060945D01*
X0112600Y0059346D02*
X0115859Y0059346D01*
X0114261Y0057748D02*
X0112377Y0057748D01*
X0112662Y0056149D02*
X0111562Y0056149D01*
X0111064Y0054551D02*
X0109362Y0054551D01*
X0111469Y0062543D02*
X0118600Y0062543D01*
X0118600Y0064142D02*
X0110423Y0064142D01*
X0112712Y0065740D02*
X0118600Y0065740D01*
X0118600Y0067339D02*
X0113646Y0067339D01*
X0114000Y0068937D02*
X0118600Y0068937D01*
X0118600Y0070536D02*
X0113873Y0070536D01*
X0113229Y0072134D02*
X0118600Y0072134D01*
X0118600Y0073733D02*
X0111756Y0073733D01*
X0108700Y0073733D02*
X0108300Y0073733D01*
X0108300Y0072134D02*
X0108700Y0072134D01*
X0108700Y0070536D02*
X0108300Y0070536D01*
X0122400Y0070536D02*
X0123600Y0070536D01*
X0123600Y0068937D02*
X0122400Y0068937D01*
X0122400Y0067339D02*
X0123600Y0067339D01*
X0123600Y0072134D02*
X0122400Y0072134D01*
X0122400Y0073733D02*
X0123600Y0073733D01*
X0123600Y0075332D02*
X0122400Y0075332D01*
X0122400Y0076930D02*
X0123600Y0076930D01*
X0123397Y0078529D02*
X0122400Y0078529D01*
X0127603Y0078529D02*
X0128600Y0078529D01*
X0128600Y0076930D02*
X0127400Y0076930D01*
X0108350Y0083324D02*
X0106100Y0083324D01*
X0107255Y0084923D02*
X0108350Y0084923D01*
X0108350Y0086521D02*
X0107650Y0086521D01*
X0107487Y0088120D02*
X0108350Y0088120D01*
X0108350Y0089718D02*
X0106658Y0089718D01*
X0104900Y0091317D02*
X0109037Y0091317D01*
X0101100Y0091317D02*
X0048483Y0091317D01*
X0045319Y0092915D02*
X0101100Y0092915D01*
X0101100Y0094514D02*
X0022609Y0094514D01*
X0022609Y0092915D02*
X0035681Y0092915D01*
X0032517Y0091317D02*
X0022609Y0091317D01*
X0022609Y0089718D02*
X0030556Y0089718D01*
X0028966Y0088120D02*
X0022609Y0088120D01*
X0022609Y0086521D02*
X0028043Y0086521D01*
X0027120Y0084923D02*
X0022609Y0084923D01*
X0022609Y0083324D02*
X0026672Y0083324D01*
X0026244Y0081726D02*
X0022584Y0081726D01*
X0021922Y0080127D02*
X0026102Y0080127D01*
X0026102Y0078529D02*
X0020926Y0078529D01*
X0019167Y0076930D02*
X0026229Y0076930D01*
X0026657Y0075332D02*
X0004850Y0075332D01*
X0030335Y0064142D02*
X0063241Y0064142D01*
X0064244Y0063727D02*
X0067150Y0063727D01*
X0069835Y0064839D01*
X0071890Y0066894D01*
X0073002Y0069579D01*
X0073002Y0084296D01*
X0071890Y0086982D01*
X0069835Y0089037D01*
X0067150Y0090149D01*
X0064244Y0090149D01*
X0061559Y0089037D01*
X0059504Y0086982D01*
X0058391Y0084296D01*
X0058391Y0069579D01*
X0059504Y0066894D01*
X0061559Y0064839D01*
X0064244Y0063727D01*
X0068152Y0064142D02*
X0079146Y0064142D01*
X0078209Y0065740D02*
X0070737Y0065740D01*
X0072074Y0067339D02*
X0077900Y0067339D01*
X0078075Y0068937D02*
X0072737Y0068937D01*
X0073002Y0070536D02*
X0078823Y0070536D01*
X0080862Y0072134D02*
X0073002Y0072134D01*
X0073002Y0076930D02*
X0089200Y0076930D01*
X0089200Y0078529D02*
X0073002Y0078529D01*
X0073002Y0080127D02*
X0089200Y0080127D01*
X0089200Y0081726D02*
X0085800Y0081726D01*
X0086800Y0082726D02*
X0084574Y0080500D01*
X0081426Y0080500D01*
X0079200Y0082726D01*
X0079200Y0085874D01*
X0081426Y0088100D01*
X0084574Y0088100D01*
X0086800Y0085874D01*
X0086800Y0082726D01*
X0086800Y0083324D02*
X0095847Y0083324D01*
X0097446Y0084923D02*
X0086800Y0084923D01*
X0086153Y0086521D02*
X0098350Y0086521D01*
X0098513Y0088120D02*
X0070752Y0088120D01*
X0072081Y0086521D02*
X0079847Y0086521D01*
X0079200Y0084923D02*
X0072743Y0084923D01*
X0073002Y0083324D02*
X0079200Y0083324D01*
X0080200Y0081726D02*
X0073002Y0081726D01*
X0068190Y0089718D02*
X0099342Y0089718D01*
X0101100Y0096112D02*
X0022609Y0096112D01*
X0022108Y0097711D02*
X0029525Y0097711D01*
X0027088Y0099309D02*
X0021374Y0099309D01*
X0019775Y0100908D02*
X0025812Y0100908D01*
X0046750Y0097711D02*
X0101224Y0097711D01*
X0102822Y0099309D02*
X0049187Y0099309D01*
X0050464Y0100908D02*
X0081018Y0100908D01*
X0079420Y0102506D02*
X0051126Y0102506D01*
X0051349Y0104105D02*
X0079200Y0104105D01*
X0079200Y0105703D02*
X0051349Y0105703D01*
X0050789Y0107302D02*
X0080628Y0107302D01*
X0086800Y0104105D02*
X0104931Y0104105D01*
X0104200Y0102506D02*
X0086580Y0102506D01*
X0084982Y0100908D02*
X0104200Y0100908D01*
X0111069Y0104105D02*
X0120321Y0104105D01*
X0063204Y0089718D02*
X0050444Y0089718D01*
X0052034Y0088120D02*
X0060642Y0088120D01*
X0059313Y0086521D02*
X0052957Y0086521D01*
X0053880Y0084923D02*
X0058651Y0084923D01*
X0058391Y0083324D02*
X0054328Y0083324D01*
X0054756Y0081726D02*
X0058391Y0081726D01*
X0058391Y0080127D02*
X0054898Y0080127D01*
X0054898Y0078529D02*
X0058391Y0078529D01*
X0058391Y0076930D02*
X0054771Y0076930D01*
X0054343Y0075332D02*
X0058391Y0075332D01*
X0058391Y0073733D02*
X0053912Y0073733D01*
X0052989Y0072134D02*
X0058391Y0072134D01*
X0058391Y0070536D02*
X0052066Y0070536D01*
X0050500Y0068937D02*
X0058657Y0068937D01*
X0059319Y0067339D02*
X0048580Y0067339D01*
X0045526Y0065740D02*
X0060657Y0065740D01*
X0140486Y0014588D02*
X0140601Y0014588D01*
D22*
X0138000Y0009300D02*
X0155500Y0026800D01*
X0143000Y0024300D02*
X0143000Y0049300D01*
X0145500Y0051800D01*
X0138000Y0049300D02*
X0135500Y0051800D01*
X0135500Y0074300D01*
X0125500Y0081800D02*
X0125500Y0059300D01*
X0120500Y0061300D02*
X0108500Y0049300D01*
X0123000Y0044300D02*
X0123000Y0014300D01*
X0118000Y0009300D01*
X0128000Y0009300D02*
X0143000Y0024300D01*
X0138000Y0039300D02*
X0138000Y0049300D01*
X0130500Y0046800D02*
X0130500Y0089300D01*
X0123000Y0096800D02*
X0120500Y0094300D01*
X0120500Y0061300D01*
X0125500Y0051800D02*
X0125500Y0046800D01*
X0123000Y0044300D01*
X0128000Y0044300D02*
X0130500Y0046800D01*
X0128000Y0044300D02*
X0128000Y0039300D01*
X0148000Y0039300D02*
X0150500Y0041800D01*
X0150500Y0086800D01*
X0148000Y0089300D01*
X0148000Y0101800D01*
X0153000Y0106800D01*
X0160500Y0096800D02*
X0170500Y0086800D01*
X0170500Y0046800D01*
X0178000Y0039300D01*
X0103000Y0086800D02*
X0103000Y0096800D01*
X0108000Y0101800D01*
D23*
X0130500Y0089300D03*
X0135500Y0074300D03*
X0145500Y0069300D03*
X0125500Y0059300D03*
X0155500Y0026800D03*
D24*
X0145500Y0069300D02*
X0145500Y0081800D01*
X0103000Y0086800D02*
X0095500Y0079300D01*
X0093000Y0079300D01*
X0190500Y0096800D02*
X0190500Y0106800D01*
M02*
