G75*
%MOIN*%
%OFA0B0*%
%FSLAX25Y25*%
%IPPOS*%
%LPD*%
%AMOC8*
5,1,8,0,0,1.08239X$1,22.5*
%
%ADD10C,0.00100*%
%ADD11C,0.00000*%
%ADD12C,0.03937*%
D10*
X0003000Y0001800D02*
X0003000Y0115973D01*
X0199260Y0115973D01*
X0199260Y0001800D01*
X0003000Y0001800D01*
D11*
X0027902Y0079300D02*
X0027906Y0079609D01*
X0027917Y0079918D01*
X0027936Y0080227D01*
X0027963Y0080535D01*
X0027997Y0080842D01*
X0028038Y0081149D01*
X0028087Y0081454D01*
X0028144Y0081758D01*
X0028208Y0082060D01*
X0028280Y0082361D01*
X0028358Y0082660D01*
X0028444Y0082957D01*
X0028538Y0083252D01*
X0028638Y0083544D01*
X0028746Y0083834D01*
X0028861Y0084121D01*
X0028983Y0084405D01*
X0029112Y0084686D01*
X0029247Y0084964D01*
X0029390Y0085239D01*
X0029539Y0085510D01*
X0029694Y0085777D01*
X0029857Y0086040D01*
X0030025Y0086299D01*
X0030200Y0086554D01*
X0030381Y0086805D01*
X0030568Y0087051D01*
X0030762Y0087292D01*
X0030961Y0087529D01*
X0031165Y0087760D01*
X0031376Y0087987D01*
X0031592Y0088208D01*
X0031813Y0088424D01*
X0032040Y0088635D01*
X0032271Y0088839D01*
X0032508Y0089038D01*
X0032749Y0089232D01*
X0032995Y0089419D01*
X0033246Y0089600D01*
X0033501Y0089775D01*
X0033760Y0089943D01*
X0034023Y0090106D01*
X0034290Y0090261D01*
X0034561Y0090410D01*
X0034836Y0090553D01*
X0035114Y0090688D01*
X0035395Y0090817D01*
X0035679Y0090939D01*
X0035966Y0091054D01*
X0036256Y0091162D01*
X0036548Y0091262D01*
X0036843Y0091356D01*
X0037140Y0091442D01*
X0037439Y0091520D01*
X0037740Y0091592D01*
X0038042Y0091656D01*
X0038346Y0091713D01*
X0038651Y0091762D01*
X0038958Y0091803D01*
X0039265Y0091837D01*
X0039573Y0091864D01*
X0039882Y0091883D01*
X0040191Y0091894D01*
X0040500Y0091898D01*
X0040809Y0091894D01*
X0041118Y0091883D01*
X0041427Y0091864D01*
X0041735Y0091837D01*
X0042042Y0091803D01*
X0042349Y0091762D01*
X0042654Y0091713D01*
X0042958Y0091656D01*
X0043260Y0091592D01*
X0043561Y0091520D01*
X0043860Y0091442D01*
X0044157Y0091356D01*
X0044452Y0091262D01*
X0044744Y0091162D01*
X0045034Y0091054D01*
X0045321Y0090939D01*
X0045605Y0090817D01*
X0045886Y0090688D01*
X0046164Y0090553D01*
X0046439Y0090410D01*
X0046710Y0090261D01*
X0046977Y0090106D01*
X0047240Y0089943D01*
X0047499Y0089775D01*
X0047754Y0089600D01*
X0048005Y0089419D01*
X0048251Y0089232D01*
X0048492Y0089038D01*
X0048729Y0088839D01*
X0048960Y0088635D01*
X0049187Y0088424D01*
X0049408Y0088208D01*
X0049624Y0087987D01*
X0049835Y0087760D01*
X0050039Y0087529D01*
X0050238Y0087292D01*
X0050432Y0087051D01*
X0050619Y0086805D01*
X0050800Y0086554D01*
X0050975Y0086299D01*
X0051143Y0086040D01*
X0051306Y0085777D01*
X0051461Y0085510D01*
X0051610Y0085239D01*
X0051753Y0084964D01*
X0051888Y0084686D01*
X0052017Y0084405D01*
X0052139Y0084121D01*
X0052254Y0083834D01*
X0052362Y0083544D01*
X0052462Y0083252D01*
X0052556Y0082957D01*
X0052642Y0082660D01*
X0052720Y0082361D01*
X0052792Y0082060D01*
X0052856Y0081758D01*
X0052913Y0081454D01*
X0052962Y0081149D01*
X0053003Y0080842D01*
X0053037Y0080535D01*
X0053064Y0080227D01*
X0053083Y0079918D01*
X0053094Y0079609D01*
X0053098Y0079300D01*
X0053094Y0078991D01*
X0053083Y0078682D01*
X0053064Y0078373D01*
X0053037Y0078065D01*
X0053003Y0077758D01*
X0052962Y0077451D01*
X0052913Y0077146D01*
X0052856Y0076842D01*
X0052792Y0076540D01*
X0052720Y0076239D01*
X0052642Y0075940D01*
X0052556Y0075643D01*
X0052462Y0075348D01*
X0052362Y0075056D01*
X0052254Y0074766D01*
X0052139Y0074479D01*
X0052017Y0074195D01*
X0051888Y0073914D01*
X0051753Y0073636D01*
X0051610Y0073361D01*
X0051461Y0073090D01*
X0051306Y0072823D01*
X0051143Y0072560D01*
X0050975Y0072301D01*
X0050800Y0072046D01*
X0050619Y0071795D01*
X0050432Y0071549D01*
X0050238Y0071308D01*
X0050039Y0071071D01*
X0049835Y0070840D01*
X0049624Y0070613D01*
X0049408Y0070392D01*
X0049187Y0070176D01*
X0048960Y0069965D01*
X0048729Y0069761D01*
X0048492Y0069562D01*
X0048251Y0069368D01*
X0048005Y0069181D01*
X0047754Y0069000D01*
X0047499Y0068825D01*
X0047240Y0068657D01*
X0046977Y0068494D01*
X0046710Y0068339D01*
X0046439Y0068190D01*
X0046164Y0068047D01*
X0045886Y0067912D01*
X0045605Y0067783D01*
X0045321Y0067661D01*
X0045034Y0067546D01*
X0044744Y0067438D01*
X0044452Y0067338D01*
X0044157Y0067244D01*
X0043860Y0067158D01*
X0043561Y0067080D01*
X0043260Y0067008D01*
X0042958Y0066944D01*
X0042654Y0066887D01*
X0042349Y0066838D01*
X0042042Y0066797D01*
X0041735Y0066763D01*
X0041427Y0066736D01*
X0041118Y0066717D01*
X0040809Y0066706D01*
X0040500Y0066702D01*
X0040191Y0066706D01*
X0039882Y0066717D01*
X0039573Y0066736D01*
X0039265Y0066763D01*
X0038958Y0066797D01*
X0038651Y0066838D01*
X0038346Y0066887D01*
X0038042Y0066944D01*
X0037740Y0067008D01*
X0037439Y0067080D01*
X0037140Y0067158D01*
X0036843Y0067244D01*
X0036548Y0067338D01*
X0036256Y0067438D01*
X0035966Y0067546D01*
X0035679Y0067661D01*
X0035395Y0067783D01*
X0035114Y0067912D01*
X0034836Y0068047D01*
X0034561Y0068190D01*
X0034290Y0068339D01*
X0034023Y0068494D01*
X0033760Y0068657D01*
X0033501Y0068825D01*
X0033246Y0069000D01*
X0032995Y0069181D01*
X0032749Y0069368D01*
X0032508Y0069562D01*
X0032271Y0069761D01*
X0032040Y0069965D01*
X0031813Y0070176D01*
X0031592Y0070392D01*
X0031376Y0070613D01*
X0031165Y0070840D01*
X0030961Y0071071D01*
X0030762Y0071308D01*
X0030568Y0071549D01*
X0030381Y0071795D01*
X0030200Y0072046D01*
X0030025Y0072301D01*
X0029857Y0072560D01*
X0029694Y0072823D01*
X0029539Y0073090D01*
X0029390Y0073361D01*
X0029247Y0073636D01*
X0029112Y0073914D01*
X0028983Y0074195D01*
X0028861Y0074479D01*
X0028746Y0074766D01*
X0028638Y0075056D01*
X0028538Y0075348D01*
X0028444Y0075643D01*
X0028358Y0075940D01*
X0028280Y0076239D01*
X0028208Y0076540D01*
X0028144Y0076842D01*
X0028087Y0077146D01*
X0028038Y0077451D01*
X0027997Y0077758D01*
X0027963Y0078065D01*
X0027936Y0078373D01*
X0027917Y0078682D01*
X0027906Y0078991D01*
X0027902Y0079300D01*
D12*
X0015264Y0080363D02*
X0015264Y0097863D01*
X0030106Y0104300D02*
X0045894Y0104300D01*
X0065697Y0085619D02*
X0065697Y0068119D01*
X0058256Y0054024D02*
X0042469Y0054024D01*
X0028492Y0054930D02*
X0016248Y0067528D01*
M02*
