G75*
%MOIN*%
%OFA0B0*%
%FSLAX25Y25*%
%IPPOS*%
%LPD*%
%AMOC8*
5,1,8,0,0,1.08239X$1,22.5*
%
%ADD10C,0.01100*%
%ADD11C,0.00400*%
%ADD12C,0.00200*%
%ADD13C,0.00600*%
%ADD14C,0.00500*%
%ADD15R,0.08000X0.02000*%
%ADD16R,0.02000X0.02500*%
%ADD17C,0.00800*%
%ADD18C,0.00100*%
%ADD19C,0.00300*%
%ADD20C,0.00900*%
D10*
X0190029Y0070764D02*
X0193966Y0070764D01*
X0191997Y0072732D02*
X0191997Y0068795D01*
X0191997Y0066287D02*
X0191997Y0062350D01*
D11*
X0006620Y0011503D02*
X0003884Y0011503D01*
X0003200Y0012187D01*
X0003200Y0014239D01*
X0007304Y0014239D01*
X0007304Y0012187D01*
X0006620Y0011503D01*
X0007304Y0015647D02*
X0007304Y0018382D01*
X0003200Y0018382D01*
X0003200Y0015647D01*
X0005252Y0017014D02*
X0005252Y0018382D01*
X0005252Y0019790D02*
X0004568Y0020474D01*
X0004568Y0022526D01*
X0004568Y0021158D02*
X0003200Y0019790D01*
X0005252Y0019790D02*
X0006620Y0019790D01*
X0007304Y0020474D01*
X0007304Y0022526D01*
X0003200Y0022526D01*
X0005252Y0023934D02*
X0003200Y0026669D01*
X0003884Y0028077D02*
X0006620Y0028077D01*
X0007304Y0028761D01*
X0007304Y0030813D01*
X0003200Y0030813D01*
X0003200Y0028761D01*
X0003884Y0028077D01*
X0007304Y0026669D02*
X0005252Y0023934D01*
X0007304Y0032221D02*
X0007304Y0034956D01*
X0003200Y0034956D01*
X0003200Y0032221D01*
X0005252Y0033589D02*
X0005252Y0034956D01*
X0005252Y0036364D02*
X0004568Y0037048D01*
X0004568Y0039100D01*
X0004568Y0037732D02*
X0003200Y0036364D01*
X0005252Y0036364D02*
X0006620Y0036364D01*
X0007304Y0037048D01*
X0007304Y0039100D01*
X0003200Y0039100D01*
X0079169Y0088223D02*
X0080370Y0087022D01*
X0079169Y0088223D02*
X0082772Y0088223D01*
X0082772Y0087022D02*
X0082772Y0089424D01*
X0082172Y0090705D02*
X0079770Y0090705D01*
X0079169Y0091305D01*
X0079169Y0092506D01*
X0079770Y0093107D01*
X0082172Y0090705D01*
X0082772Y0091305D01*
X0082772Y0092506D01*
X0082172Y0093107D01*
X0079770Y0093107D01*
X0079770Y0094388D02*
X0079169Y0094989D01*
X0079169Y0096190D01*
X0079770Y0096790D01*
X0082172Y0094388D01*
X0082772Y0094989D01*
X0082772Y0096190D01*
X0082172Y0096790D01*
X0079770Y0096790D01*
X0080370Y0098071D02*
X0080370Y0099873D01*
X0080971Y0100473D01*
X0082772Y0100473D01*
X0084382Y0100406D02*
X0084983Y0099205D01*
X0086184Y0098004D01*
X0086184Y0099805D01*
X0086784Y0100406D01*
X0087385Y0100406D01*
X0087985Y0099805D01*
X0087985Y0098604D01*
X0087385Y0098004D01*
X0086184Y0098004D01*
X0087385Y0096723D02*
X0087985Y0096122D01*
X0087985Y0094921D01*
X0087385Y0094321D01*
X0084983Y0094321D01*
X0084382Y0094921D01*
X0084382Y0096122D01*
X0084983Y0096723D01*
X0082772Y0098071D02*
X0080370Y0098071D01*
X0079770Y0094388D02*
X0082172Y0094388D01*
X0091197Y0094757D02*
X0094300Y0094757D01*
X0094300Y0093723D02*
X0094300Y0095791D01*
X0092749Y0096945D02*
X0092749Y0099014D01*
X0093266Y0100168D02*
X0092749Y0100685D01*
X0092749Y0101720D01*
X0093266Y0102237D01*
X0093783Y0102237D01*
X0094300Y0101720D01*
X0094300Y0100685D01*
X0093783Y0100168D01*
X0093266Y0100168D01*
X0092749Y0100685D02*
X0092232Y0100168D01*
X0091714Y0100168D01*
X0091197Y0100685D01*
X0091197Y0101720D01*
X0091714Y0102237D01*
X0092232Y0102237D01*
X0092749Y0101720D01*
X0090000Y0103300D02*
X0089940Y0103298D01*
X0089879Y0103293D01*
X0089820Y0103284D01*
X0089761Y0103271D01*
X0089702Y0103255D01*
X0089645Y0103235D01*
X0089590Y0103212D01*
X0089535Y0103185D01*
X0089483Y0103156D01*
X0089432Y0103123D01*
X0089383Y0103087D01*
X0089337Y0103049D01*
X0089293Y0103007D01*
X0089251Y0102963D01*
X0089213Y0102917D01*
X0089177Y0102868D01*
X0089144Y0102817D01*
X0089115Y0102765D01*
X0089088Y0102710D01*
X0089065Y0102655D01*
X0089045Y0102598D01*
X0089029Y0102539D01*
X0089016Y0102480D01*
X0089007Y0102421D01*
X0089002Y0102360D01*
X0089000Y0102300D01*
X0089000Y0086300D01*
X0089002Y0086240D01*
X0089007Y0086179D01*
X0089016Y0086120D01*
X0089029Y0086061D01*
X0089045Y0086002D01*
X0089065Y0085945D01*
X0089088Y0085890D01*
X0089115Y0085835D01*
X0089144Y0085783D01*
X0089177Y0085732D01*
X0089213Y0085683D01*
X0089251Y0085637D01*
X0089293Y0085593D01*
X0089337Y0085551D01*
X0089383Y0085513D01*
X0089432Y0085477D01*
X0089483Y0085444D01*
X0089535Y0085415D01*
X0089590Y0085388D01*
X0089645Y0085365D01*
X0089702Y0085345D01*
X0089761Y0085329D01*
X0089820Y0085316D01*
X0089879Y0085307D01*
X0089940Y0085302D01*
X0090000Y0085300D01*
X0096000Y0085300D01*
X0096060Y0085302D01*
X0096121Y0085307D01*
X0096180Y0085316D01*
X0096239Y0085329D01*
X0096298Y0085345D01*
X0096355Y0085365D01*
X0096410Y0085388D01*
X0096465Y0085415D01*
X0096517Y0085444D01*
X0096568Y0085477D01*
X0096617Y0085513D01*
X0096663Y0085551D01*
X0096707Y0085593D01*
X0096749Y0085637D01*
X0096787Y0085683D01*
X0096823Y0085732D01*
X0096856Y0085783D01*
X0096885Y0085835D01*
X0096912Y0085890D01*
X0096935Y0085945D01*
X0096955Y0086002D01*
X0096971Y0086061D01*
X0096984Y0086120D01*
X0096993Y0086179D01*
X0096998Y0086240D01*
X0097000Y0086300D01*
X0097000Y0102300D01*
X0096998Y0102360D01*
X0096993Y0102421D01*
X0096984Y0102480D01*
X0096971Y0102539D01*
X0096955Y0102598D01*
X0096935Y0102655D01*
X0096912Y0102710D01*
X0096885Y0102765D01*
X0096856Y0102817D01*
X0096823Y0102868D01*
X0096787Y0102917D01*
X0096749Y0102963D01*
X0096707Y0103007D01*
X0096663Y0103049D01*
X0096617Y0103087D01*
X0096568Y0103123D01*
X0096517Y0103156D01*
X0096465Y0103185D01*
X0096410Y0103212D01*
X0096355Y0103235D01*
X0096298Y0103255D01*
X0096239Y0103271D01*
X0096180Y0103284D01*
X0096121Y0103293D01*
X0096060Y0103298D01*
X0096000Y0103300D01*
X0090000Y0103300D01*
X0091197Y0098497D02*
X0092749Y0096945D01*
X0091197Y0094757D02*
X0092232Y0093723D01*
X0092749Y0092568D02*
X0092749Y0090500D01*
X0091197Y0092051D01*
X0094300Y0092051D01*
X0094300Y0098497D02*
X0091197Y0098497D01*
X0099032Y0112000D02*
X0101100Y0114068D01*
X0101100Y0114586D01*
X0100583Y0115103D01*
X0099549Y0115103D01*
X0099032Y0114586D01*
X0099032Y0112000D02*
X0101100Y0112000D01*
X0102254Y0112000D02*
X0102254Y0115103D01*
X0104323Y0112000D01*
X0104323Y0115103D01*
X0105477Y0114586D02*
X0105994Y0115103D01*
X0107029Y0115103D01*
X0107546Y0114586D01*
X0107546Y0114068D01*
X0107029Y0113551D01*
X0107546Y0113034D01*
X0107546Y0112517D01*
X0107029Y0112000D01*
X0105994Y0112000D01*
X0105477Y0112517D01*
X0106511Y0113551D02*
X0107029Y0113551D01*
X0108700Y0114068D02*
X0109217Y0113551D01*
X0110768Y0113551D01*
X0110768Y0112517D02*
X0110768Y0114586D01*
X0110251Y0115103D01*
X0109217Y0115103D01*
X0108700Y0114586D01*
X0108700Y0114068D01*
X0108700Y0112517D02*
X0109217Y0112000D01*
X0110251Y0112000D01*
X0110768Y0112517D01*
X0111923Y0112517D02*
X0113991Y0114586D01*
X0113991Y0112517D01*
X0113474Y0112000D01*
X0112440Y0112000D01*
X0111923Y0112517D01*
X0111923Y0114586D01*
X0112440Y0115103D01*
X0113474Y0115103D01*
X0113991Y0114586D01*
X0115145Y0113551D02*
X0117214Y0113551D01*
X0116697Y0112000D02*
X0116697Y0115103D01*
X0115145Y0113551D01*
X0141285Y0105590D02*
X0141285Y0102488D01*
X0141285Y0103522D02*
X0142836Y0103522D01*
X0143354Y0104039D01*
X0143354Y0105073D01*
X0142836Y0105590D01*
X0141285Y0105590D01*
X0142319Y0103522D02*
X0143354Y0102488D01*
X0144508Y0102488D02*
X0146576Y0102488D01*
X0145542Y0102488D02*
X0145542Y0105590D01*
X0144508Y0104556D01*
X0145025Y0095590D02*
X0144508Y0095073D01*
X0145025Y0095590D02*
X0146059Y0095590D01*
X0146576Y0095073D01*
X0146576Y0094556D01*
X0144508Y0092488D01*
X0146576Y0092488D01*
X0143354Y0092488D02*
X0142319Y0093522D01*
X0142836Y0093522D02*
X0141285Y0093522D01*
X0141285Y0092488D02*
X0141285Y0095590D01*
X0142836Y0095590D01*
X0143354Y0095073D01*
X0143354Y0094039D01*
X0142836Y0093522D01*
X0166169Y0098012D02*
X0166169Y0101115D01*
X0167721Y0101115D01*
X0168238Y0100598D01*
X0168238Y0099564D01*
X0167721Y0099046D01*
X0166169Y0099046D01*
X0167204Y0099046D02*
X0168238Y0098012D01*
X0169392Y0099564D02*
X0171461Y0099564D01*
X0170943Y0101115D02*
X0169392Y0099564D01*
X0170943Y0101115D02*
X0170943Y0098012D01*
X0170943Y0108012D02*
X0169909Y0108012D01*
X0169392Y0108529D01*
X0168238Y0108012D02*
X0167204Y0109046D01*
X0167721Y0109046D02*
X0166169Y0109046D01*
X0166169Y0108012D02*
X0166169Y0111115D01*
X0167721Y0111115D01*
X0168238Y0110598D01*
X0168238Y0109564D01*
X0167721Y0109046D01*
X0169392Y0110598D02*
X0169909Y0111115D01*
X0170943Y0111115D01*
X0171461Y0110598D01*
X0171461Y0110081D01*
X0170943Y0109564D01*
X0171461Y0109046D01*
X0171461Y0108529D01*
X0170943Y0108012D01*
X0170943Y0109564D02*
X0170426Y0109564D01*
X0193596Y0097467D02*
X0194197Y0097467D01*
X0195398Y0097467D02*
X0195398Y0096866D01*
X0195398Y0097467D02*
X0197800Y0097467D01*
X0197800Y0098067D02*
X0197800Y0096866D01*
X0197800Y0095585D02*
X0197800Y0093183D01*
X0194197Y0093183D01*
X0194197Y0091902D02*
X0195998Y0089500D01*
X0197800Y0091902D01*
X0195398Y0099322D02*
X0197800Y0100523D01*
X0195398Y0101724D01*
X0195998Y0103005D02*
X0195398Y0103605D01*
X0195398Y0104806D01*
X0195998Y0105407D01*
X0196599Y0105407D01*
X0196599Y0103005D01*
X0197199Y0103005D02*
X0195998Y0103005D01*
X0197199Y0103005D02*
X0197800Y0103605D01*
X0197800Y0104806D01*
X0173771Y0065983D02*
X0171702Y0065983D01*
X0173771Y0063915D01*
X0174288Y0064432D01*
X0174288Y0065466D01*
X0173771Y0065983D01*
X0171702Y0065983D02*
X0171185Y0065466D01*
X0171185Y0064432D01*
X0171702Y0063915D01*
X0173771Y0063915D01*
X0174288Y0062761D02*
X0174288Y0060692D01*
X0174288Y0061726D02*
X0171185Y0061726D01*
X0172219Y0060692D01*
X0171702Y0059538D02*
X0172736Y0059538D01*
X0173254Y0059021D01*
X0173254Y0057469D01*
X0174288Y0057469D02*
X0171185Y0057469D01*
X0171185Y0059021D01*
X0171702Y0059538D01*
X0173254Y0058504D02*
X0174288Y0059538D01*
X0164288Y0059538D02*
X0163254Y0058504D01*
X0163254Y0059021D02*
X0163254Y0057469D01*
X0164288Y0057469D02*
X0161185Y0057469D01*
X0161185Y0059021D01*
X0161702Y0059538D01*
X0162736Y0059538D01*
X0163254Y0059021D01*
X0163254Y0060692D02*
X0162736Y0061209D01*
X0162736Y0062243D01*
X0163254Y0062761D01*
X0163771Y0062761D01*
X0164288Y0062243D01*
X0164288Y0061209D01*
X0163771Y0060692D01*
X0163254Y0060692D01*
X0162736Y0061209D02*
X0162219Y0060692D01*
X0161702Y0060692D01*
X0161185Y0061209D01*
X0161185Y0062243D01*
X0161702Y0062761D01*
X0162219Y0062761D01*
X0162736Y0062243D01*
X0154288Y0061726D02*
X0151185Y0061726D01*
X0152219Y0060692D01*
X0151702Y0059538D02*
X0152736Y0059538D01*
X0153254Y0059021D01*
X0153254Y0057469D01*
X0154288Y0057469D02*
X0151185Y0057469D01*
X0151185Y0059021D01*
X0151702Y0059538D01*
X0153254Y0058504D02*
X0154288Y0059538D01*
X0154288Y0060692D02*
X0154288Y0062761D01*
X0154288Y0063915D02*
X0152219Y0065983D01*
X0151702Y0065983D01*
X0151185Y0065466D01*
X0151185Y0064432D01*
X0151702Y0063915D01*
X0154288Y0063915D02*
X0154288Y0065983D01*
X0144288Y0065466D02*
X0141185Y0065466D01*
X0142736Y0063915D01*
X0142736Y0065983D01*
X0144288Y0062761D02*
X0144288Y0060692D01*
X0144288Y0061726D02*
X0141185Y0061726D01*
X0142219Y0060692D01*
X0141702Y0059538D02*
X0142736Y0059538D01*
X0143254Y0059021D01*
X0143254Y0057469D01*
X0144288Y0057469D02*
X0141185Y0057469D01*
X0141185Y0059021D01*
X0141702Y0059538D01*
X0143254Y0058504D02*
X0144288Y0059538D01*
X0134288Y0059538D02*
X0133254Y0058504D01*
X0133254Y0059021D02*
X0133254Y0057469D01*
X0134288Y0057469D02*
X0131185Y0057469D01*
X0131185Y0059021D01*
X0131702Y0059538D01*
X0132736Y0059538D01*
X0133254Y0059021D01*
X0133771Y0060692D02*
X0134288Y0061209D01*
X0134288Y0062243D01*
X0133771Y0062761D01*
X0132736Y0062761D01*
X0132219Y0062243D01*
X0132219Y0061726D01*
X0132736Y0060692D01*
X0131185Y0060692D01*
X0131185Y0062761D01*
X0124288Y0062761D02*
X0124288Y0060692D01*
X0124288Y0061726D02*
X0121185Y0061726D01*
X0122219Y0060692D01*
X0121702Y0059538D02*
X0121185Y0059021D01*
X0121185Y0057469D01*
X0124288Y0057469D01*
X0123254Y0057469D02*
X0123254Y0059021D01*
X0122736Y0059538D01*
X0121702Y0059538D01*
X0123254Y0058504D02*
X0124288Y0059538D01*
X0123771Y0063915D02*
X0122736Y0063915D01*
X0122736Y0065466D01*
X0123254Y0065983D01*
X0123771Y0065983D01*
X0124288Y0065466D01*
X0124288Y0064432D01*
X0123771Y0063915D01*
X0122736Y0063915D02*
X0121702Y0064949D01*
X0121185Y0065983D01*
X0109328Y0030697D02*
X0107526Y0030697D01*
X0106926Y0030097D01*
X0106926Y0028295D01*
X0109328Y0028295D01*
X0108727Y0027014D02*
X0106325Y0027014D01*
X0108727Y0024612D01*
X0109328Y0025212D01*
X0109328Y0026413D01*
X0108727Y0027014D01*
X0106325Y0027014D02*
X0105725Y0026413D01*
X0105725Y0025212D01*
X0106325Y0024612D01*
X0108727Y0024612D01*
X0108727Y0023331D02*
X0106325Y0023331D01*
X0108727Y0020929D01*
X0109328Y0021529D01*
X0109328Y0022730D01*
X0108727Y0023331D01*
X0106325Y0023331D02*
X0105725Y0022730D01*
X0105725Y0021529D01*
X0106325Y0020929D01*
X0108727Y0020929D01*
X0109328Y0019648D02*
X0109328Y0017246D01*
X0109328Y0018447D02*
X0105725Y0018447D01*
X0106926Y0017246D01*
X0104115Y0017913D02*
X0104115Y0019114D01*
X0103514Y0019715D01*
X0102313Y0020996D02*
X0102313Y0023398D01*
X0100512Y0022798D02*
X0102313Y0020996D01*
X0101112Y0019715D02*
X0100512Y0019114D01*
X0100512Y0017913D01*
X0101112Y0017313D01*
X0103514Y0017313D01*
X0104115Y0017913D01*
X0104115Y0022798D02*
X0100512Y0022798D01*
X0184169Y0022506D02*
X0184169Y0021305D01*
X0184770Y0020705D01*
X0187172Y0020705D01*
X0184770Y0023107D01*
X0187172Y0023107D01*
X0187772Y0022506D01*
X0187772Y0021305D01*
X0187172Y0020705D01*
X0187772Y0019424D02*
X0187772Y0017022D01*
X0187772Y0018223D02*
X0184169Y0018223D01*
X0185370Y0017022D01*
X0184169Y0022506D02*
X0184770Y0023107D01*
X0184770Y0024388D02*
X0184169Y0024989D01*
X0184169Y0026190D01*
X0184770Y0026790D01*
X0187172Y0024388D01*
X0187772Y0024989D01*
X0187772Y0026190D01*
X0187172Y0026790D01*
X0184770Y0026790D01*
X0185370Y0028071D02*
X0185370Y0029873D01*
X0185971Y0030473D01*
X0187772Y0030473D01*
X0189382Y0030406D02*
X0189382Y0028004D01*
X0191184Y0028004D01*
X0190583Y0029205D01*
X0190583Y0029805D01*
X0191184Y0030406D01*
X0192385Y0030406D01*
X0192985Y0029805D01*
X0192985Y0028604D01*
X0192385Y0028004D01*
X0192385Y0026723D02*
X0192985Y0026122D01*
X0192985Y0024921D01*
X0192385Y0024321D01*
X0189983Y0024321D01*
X0189382Y0024921D01*
X0189382Y0026122D01*
X0189983Y0026723D01*
X0187772Y0028071D02*
X0185370Y0028071D01*
X0184770Y0024388D02*
X0187172Y0024388D01*
X0194197Y0024704D02*
X0197800Y0024704D01*
X0197800Y0022902D01*
X0197199Y0022302D01*
X0195998Y0022302D01*
X0195398Y0022902D01*
X0195398Y0024704D01*
X0195998Y0021021D02*
X0197800Y0021021D01*
X0195998Y0021021D02*
X0195398Y0020420D01*
X0195398Y0018619D01*
X0197800Y0018619D01*
X0197800Y0017338D02*
X0195398Y0017338D01*
X0197800Y0017338D02*
X0197800Y0015536D01*
X0197199Y0014936D01*
X0195398Y0014936D01*
X0195998Y0013654D02*
X0195398Y0013054D01*
X0195398Y0011853D01*
X0195998Y0011252D01*
X0197199Y0011252D01*
X0197800Y0011853D01*
X0197800Y0013054D01*
X0197199Y0013654D01*
X0195998Y0013654D01*
X0195398Y0009985D02*
X0195398Y0009384D01*
X0196599Y0008183D01*
X0197800Y0008183D02*
X0195398Y0008183D01*
X0195998Y0006902D02*
X0195998Y0005701D01*
X0195998Y0006902D02*
X0197199Y0006902D01*
X0197800Y0006302D01*
X0197800Y0005101D01*
X0197199Y0004500D01*
X0194797Y0004500D01*
X0194197Y0005101D01*
X0194197Y0006302D01*
X0194797Y0006902D01*
X0195398Y0029668D02*
X0197199Y0029668D01*
X0197800Y0030269D01*
X0197199Y0030869D01*
X0197800Y0031470D01*
X0197199Y0032070D01*
X0195398Y0032070D01*
X0195398Y0033351D02*
X0195398Y0033952D01*
X0197800Y0033952D01*
X0197800Y0034552D02*
X0197800Y0033351D01*
X0197800Y0035807D02*
X0195398Y0035807D01*
X0196599Y0035807D02*
X0195398Y0037008D01*
X0195398Y0037608D01*
X0195998Y0038876D02*
X0195398Y0039477D01*
X0195398Y0040678D01*
X0195998Y0041278D01*
X0196599Y0041278D01*
X0196599Y0038876D01*
X0197199Y0038876D02*
X0195998Y0038876D01*
X0197199Y0038876D02*
X0197800Y0039477D01*
X0197800Y0040678D01*
X0197800Y0042559D02*
X0195998Y0044961D01*
X0194197Y0042559D01*
X0194197Y0033952D02*
X0193596Y0033952D01*
D12*
X0117683Y0040463D02*
X0112883Y0044583D01*
X0109008Y0042352D01*
X0105133Y0040123D01*
X0105133Y0042813D01*
X0111042Y0046142D01*
X0108712Y0048152D01*
X0105137Y0048152D01*
X0105137Y0050467D01*
X0117677Y0050467D01*
X0117677Y0048152D01*
X0111758Y0048152D01*
X0111762Y0048152D01*
X0117683Y0043173D01*
X0117683Y0040463D01*
X0117683Y0040510D02*
X0117628Y0040510D01*
X0117683Y0040708D02*
X0117396Y0040708D01*
X0117165Y0040907D02*
X0117683Y0040907D01*
X0117683Y0041105D02*
X0116934Y0041105D01*
X0116702Y0041304D02*
X0117683Y0041304D01*
X0117683Y0041502D02*
X0116471Y0041502D01*
X0116240Y0041701D02*
X0117683Y0041701D01*
X0117683Y0041899D02*
X0116009Y0041899D01*
X0115777Y0042098D02*
X0117683Y0042098D01*
X0117683Y0042296D02*
X0115546Y0042296D01*
X0115315Y0042495D02*
X0117683Y0042495D01*
X0117683Y0042693D02*
X0115083Y0042693D01*
X0114852Y0042892D02*
X0117683Y0042892D01*
X0117683Y0043090D02*
X0114621Y0043090D01*
X0114390Y0043289D02*
X0117544Y0043289D01*
X0117308Y0043487D02*
X0114158Y0043487D01*
X0113927Y0043686D02*
X0117072Y0043686D01*
X0116836Y0043884D02*
X0113696Y0043884D01*
X0113465Y0044083D02*
X0116600Y0044083D01*
X0116364Y0044281D02*
X0113233Y0044281D01*
X0113002Y0044480D02*
X0116128Y0044480D01*
X0115892Y0044678D02*
X0108444Y0044678D01*
X0108092Y0044480D02*
X0112704Y0044480D01*
X0112359Y0044281D02*
X0107740Y0044281D01*
X0107387Y0044083D02*
X0112014Y0044083D01*
X0111669Y0043884D02*
X0107035Y0043884D01*
X0106683Y0043686D02*
X0111324Y0043686D01*
X0110980Y0043487D02*
X0106330Y0043487D01*
X0105978Y0043289D02*
X0110635Y0043289D01*
X0110290Y0043090D02*
X0105626Y0043090D01*
X0105273Y0042892D02*
X0109945Y0042892D01*
X0109600Y0042693D02*
X0105133Y0042693D01*
X0105133Y0042495D02*
X0109255Y0042495D01*
X0108910Y0042296D02*
X0105133Y0042296D01*
X0105133Y0042098D02*
X0108565Y0042098D01*
X0108220Y0041899D02*
X0105133Y0041899D01*
X0105133Y0041701D02*
X0107875Y0041701D01*
X0107530Y0041502D02*
X0105133Y0041502D01*
X0105133Y0041304D02*
X0107185Y0041304D01*
X0106840Y0041105D02*
X0105133Y0041105D01*
X0105133Y0040907D02*
X0106495Y0040907D01*
X0106150Y0040708D02*
X0105133Y0040708D01*
X0105133Y0040510D02*
X0105805Y0040510D01*
X0105460Y0040311D02*
X0105133Y0040311D01*
X0101473Y0042723D02*
X0102598Y0044608D01*
X0103158Y0046558D01*
X0103348Y0048827D01*
X0103348Y0051858D01*
X0103333Y0051862D01*
X0103337Y0051862D01*
X0099692Y0051862D01*
X0099692Y0052923D01*
X0091852Y0052923D01*
X0091852Y0051862D01*
X0088208Y0051862D01*
X0088208Y0052923D01*
X0080608Y0052923D01*
X0080608Y0057112D01*
X0103333Y0057112D01*
X0103333Y0051862D01*
X0099687Y0051862D01*
X0099687Y0049208D01*
X0099502Y0047362D01*
X0098933Y0046017D01*
X0097758Y0045058D01*
X0096012Y0044742D01*
X0094067Y0045073D01*
X0092742Y0046083D01*
X0092073Y0047552D01*
X0091852Y0049583D01*
X0091852Y0051862D01*
X0088208Y0051862D01*
X0088208Y0048558D01*
X0088562Y0045548D01*
X0090017Y0042902D01*
X0092592Y0040977D01*
X0095742Y0040313D01*
X0097987Y0040577D01*
X0099877Y0041358D01*
X0101473Y0042723D01*
X0101438Y0042693D02*
X0090297Y0042693D01*
X0090032Y0042892D02*
X0101574Y0042892D01*
X0101692Y0043090D02*
X0089914Y0043090D01*
X0089805Y0043289D02*
X0101811Y0043289D01*
X0101929Y0043487D02*
X0089696Y0043487D01*
X0089587Y0043686D02*
X0102047Y0043686D01*
X0102166Y0043884D02*
X0089477Y0043884D01*
X0089368Y0044083D02*
X0102284Y0044083D01*
X0102403Y0044281D02*
X0089259Y0044281D01*
X0089150Y0044480D02*
X0102521Y0044480D01*
X0102618Y0044678D02*
X0089041Y0044678D01*
X0088931Y0044877D02*
X0095220Y0044877D01*
X0094064Y0045075D02*
X0088822Y0045075D01*
X0088713Y0045274D02*
X0093803Y0045274D01*
X0093543Y0045472D02*
X0088604Y0045472D01*
X0088548Y0045671D02*
X0093282Y0045671D01*
X0093022Y0045870D02*
X0088525Y0045870D01*
X0088501Y0046068D02*
X0092762Y0046068D01*
X0092659Y0046267D02*
X0088478Y0046267D01*
X0088454Y0046465D02*
X0092568Y0046465D01*
X0092478Y0046664D02*
X0088431Y0046664D01*
X0088407Y0046862D02*
X0092387Y0046862D01*
X0092297Y0047061D02*
X0088384Y0047061D01*
X0088361Y0047259D02*
X0092206Y0047259D01*
X0092116Y0047458D02*
X0088337Y0047458D01*
X0088314Y0047656D02*
X0092061Y0047656D01*
X0092040Y0047855D02*
X0088290Y0047855D01*
X0088267Y0048053D02*
X0092018Y0048053D01*
X0091997Y0048252D02*
X0088244Y0048252D01*
X0088220Y0048450D02*
X0091975Y0048450D01*
X0091954Y0048649D02*
X0088208Y0048649D01*
X0088208Y0048847D02*
X0091932Y0048847D01*
X0091911Y0049046D02*
X0088208Y0049046D01*
X0088208Y0049244D02*
X0091889Y0049244D01*
X0091868Y0049443D02*
X0088208Y0049443D01*
X0088208Y0049641D02*
X0091852Y0049641D01*
X0091852Y0049840D02*
X0088208Y0049840D01*
X0088208Y0050038D02*
X0091852Y0050038D01*
X0091852Y0050237D02*
X0088208Y0050237D01*
X0088208Y0050435D02*
X0091852Y0050435D01*
X0091852Y0050634D02*
X0088208Y0050634D01*
X0088208Y0050832D02*
X0091852Y0050832D01*
X0091852Y0051031D02*
X0088208Y0051031D01*
X0088208Y0051229D02*
X0091852Y0051229D01*
X0091852Y0051428D02*
X0088208Y0051428D01*
X0088208Y0051626D02*
X0091852Y0051626D01*
X0091852Y0051825D02*
X0088208Y0051825D01*
X0088208Y0052023D02*
X0091852Y0052023D01*
X0091852Y0052222D02*
X0088208Y0052222D01*
X0088208Y0052420D02*
X0091852Y0052420D01*
X0091852Y0052619D02*
X0088208Y0052619D01*
X0088208Y0052817D02*
X0091852Y0052817D01*
X0089692Y0058383D02*
X0085802Y0058652D01*
X0083948Y0059308D01*
X0082438Y0060492D01*
X0081313Y0061927D01*
X0080508Y0063608D01*
X0079913Y0067238D01*
X0080108Y0069392D01*
X0080683Y0071348D01*
X0081733Y0073208D01*
X0083183Y0074667D01*
X0084573Y0075502D01*
X0086292Y0075958D01*
X0089692Y0076133D01*
X0103327Y0076133D01*
X0103327Y0071942D01*
X0089973Y0071942D01*
X0087292Y0071758D01*
X0085713Y0071163D01*
X0084498Y0069588D01*
X0084077Y0067248D01*
X0084638Y0064642D01*
X0085302Y0063712D01*
X0086192Y0063087D01*
X0089973Y0062577D01*
X0103327Y0062577D01*
X0103327Y0058383D01*
X0089692Y0058383D01*
X0086930Y0058574D02*
X0103327Y0058574D01*
X0103327Y0058773D02*
X0085462Y0058773D01*
X0084900Y0058971D02*
X0103327Y0058971D01*
X0103327Y0059170D02*
X0084338Y0059170D01*
X0083870Y0059368D02*
X0103327Y0059368D01*
X0103327Y0059567D02*
X0083617Y0059567D01*
X0083364Y0059765D02*
X0103327Y0059765D01*
X0103327Y0059964D02*
X0083111Y0059964D01*
X0082858Y0060162D02*
X0103327Y0060162D01*
X0103327Y0060361D02*
X0082605Y0060361D01*
X0082385Y0060559D02*
X0103327Y0060559D01*
X0103327Y0060758D02*
X0082229Y0060758D01*
X0082074Y0060956D02*
X0103327Y0060956D01*
X0103327Y0061155D02*
X0081918Y0061155D01*
X0081763Y0061353D02*
X0103327Y0061353D01*
X0103327Y0061552D02*
X0081607Y0061552D01*
X0081451Y0061750D02*
X0103327Y0061750D01*
X0103327Y0061949D02*
X0081302Y0061949D01*
X0081207Y0062147D02*
X0103327Y0062147D01*
X0103327Y0062346D02*
X0081112Y0062346D01*
X0081017Y0062544D02*
X0103327Y0062544D01*
X0105142Y0063542D02*
X0117683Y0063542D01*
X0117683Y0065858D01*
X0105142Y0065858D01*
X0105142Y0063542D01*
X0105142Y0063736D02*
X0117683Y0063736D01*
X0117683Y0063934D02*
X0105142Y0063934D01*
X0105142Y0064133D02*
X0117683Y0064133D01*
X0117683Y0064331D02*
X0105142Y0064331D01*
X0105142Y0064530D02*
X0117683Y0064530D01*
X0117683Y0064728D02*
X0105142Y0064728D01*
X0105142Y0064927D02*
X0117683Y0064927D01*
X0117683Y0065125D02*
X0105142Y0065125D01*
X0105142Y0065324D02*
X0117683Y0065324D01*
X0117683Y0065522D02*
X0105142Y0065522D01*
X0105142Y0065721D02*
X0117683Y0065721D01*
X0116210Y0067904D02*
X0110876Y0067904D01*
X0111139Y0067706D02*
X0115944Y0067706D01*
X0115678Y0067507D02*
X0111403Y0067507D01*
X0111666Y0067309D02*
X0115413Y0067309D01*
X0115317Y0067238D02*
X0116662Y0068242D01*
X0117417Y0069688D01*
X0117677Y0071592D01*
X0117677Y0072448D01*
X0117687Y0072452D01*
X0117692Y0072452D01*
X0115677Y0072452D01*
X0115677Y0073852D01*
X0111352Y0073852D01*
X0111352Y0072452D01*
X0109342Y0072452D01*
X0109342Y0073858D01*
X0105148Y0073858D01*
X0105148Y0076167D01*
X0117687Y0076167D01*
X0117687Y0072452D01*
X0115673Y0072452D01*
X0115673Y0071802D01*
X0115177Y0069942D01*
X0114542Y0069488D01*
X0113637Y0069338D01*
X0112617Y0069498D01*
X0111902Y0069988D01*
X0111342Y0072008D01*
X0111342Y0072448D01*
X0109333Y0072448D01*
X0109333Y0071442D01*
X0109562Y0069663D01*
X0110327Y0068317D01*
X0111727Y0067263D01*
X0113483Y0066888D01*
X0115317Y0067238D01*
X0114650Y0067110D02*
X0112440Y0067110D01*
X0113369Y0066912D02*
X0113609Y0066912D01*
X0116476Y0068103D02*
X0110612Y0068103D01*
X0110349Y0068301D02*
X0116693Y0068301D01*
X0116797Y0068500D02*
X0110224Y0068500D01*
X0110111Y0068698D02*
X0116901Y0068698D01*
X0117004Y0068897D02*
X0109998Y0068897D01*
X0109885Y0069095D02*
X0117108Y0069095D01*
X0117212Y0069294D02*
X0109772Y0069294D01*
X0109659Y0069492D02*
X0112650Y0069492D01*
X0112335Y0069691D02*
X0109559Y0069691D01*
X0109533Y0069889D02*
X0112046Y0069889D01*
X0111875Y0070088D02*
X0109508Y0070088D01*
X0109482Y0070286D02*
X0111820Y0070286D01*
X0111765Y0070485D02*
X0109456Y0070485D01*
X0109431Y0070683D02*
X0111710Y0070683D01*
X0111655Y0070882D02*
X0109405Y0070882D01*
X0109379Y0071080D02*
X0111600Y0071080D01*
X0111544Y0071279D02*
X0109354Y0071279D01*
X0109333Y0071477D02*
X0111489Y0071477D01*
X0111434Y0071676D02*
X0109333Y0071676D01*
X0109333Y0071874D02*
X0111379Y0071874D01*
X0111342Y0072073D02*
X0109333Y0072073D01*
X0109333Y0072272D02*
X0111342Y0072272D01*
X0111352Y0072470D02*
X0109342Y0072470D01*
X0109342Y0072669D02*
X0111352Y0072669D01*
X0111352Y0072867D02*
X0109342Y0072867D01*
X0109342Y0073066D02*
X0111352Y0073066D01*
X0111352Y0073264D02*
X0109342Y0073264D01*
X0109342Y0073463D02*
X0111352Y0073463D01*
X0111352Y0073661D02*
X0109342Y0073661D01*
X0105148Y0073860D02*
X0117687Y0073860D01*
X0117687Y0074058D02*
X0105148Y0074058D01*
X0105148Y0074257D02*
X0117687Y0074257D01*
X0117687Y0074455D02*
X0105148Y0074455D01*
X0105148Y0074654D02*
X0117687Y0074654D01*
X0117687Y0074852D02*
X0105148Y0074852D01*
X0105148Y0075051D02*
X0117687Y0075051D01*
X0117687Y0075249D02*
X0105148Y0075249D01*
X0105148Y0075448D02*
X0117687Y0075448D01*
X0117687Y0075646D02*
X0105148Y0075646D01*
X0105148Y0075845D02*
X0117687Y0075845D01*
X0117687Y0076043D02*
X0105148Y0076043D01*
X0103327Y0076043D02*
X0087958Y0076043D01*
X0085866Y0075845D02*
X0103327Y0075845D01*
X0103327Y0075646D02*
X0085116Y0075646D01*
X0084481Y0075448D02*
X0103327Y0075448D01*
X0103327Y0075249D02*
X0084151Y0075249D01*
X0083820Y0075051D02*
X0103327Y0075051D01*
X0103327Y0074852D02*
X0083490Y0074852D01*
X0083169Y0074654D02*
X0103327Y0074654D01*
X0103327Y0074455D02*
X0082972Y0074455D01*
X0082774Y0074257D02*
X0103327Y0074257D01*
X0103327Y0074058D02*
X0082577Y0074058D01*
X0082380Y0073860D02*
X0103327Y0073860D01*
X0103327Y0073661D02*
X0082183Y0073661D01*
X0081986Y0073463D02*
X0103327Y0073463D01*
X0103327Y0073264D02*
X0081789Y0073264D01*
X0081652Y0073066D02*
X0103327Y0073066D01*
X0103327Y0072867D02*
X0081540Y0072867D01*
X0081428Y0072669D02*
X0103327Y0072669D01*
X0103327Y0072470D02*
X0081316Y0072470D01*
X0081204Y0072272D02*
X0103327Y0072272D01*
X0103327Y0072073D02*
X0081092Y0072073D01*
X0080980Y0071874D02*
X0088987Y0071874D01*
X0087076Y0071676D02*
X0080868Y0071676D01*
X0080756Y0071477D02*
X0086549Y0071477D01*
X0086022Y0071279D02*
X0080662Y0071279D01*
X0080604Y0071080D02*
X0085649Y0071080D01*
X0085496Y0070882D02*
X0080546Y0070882D01*
X0080487Y0070683D02*
X0085343Y0070683D01*
X0085190Y0070485D02*
X0080429Y0070485D01*
X0080370Y0070286D02*
X0085037Y0070286D01*
X0084884Y0070088D02*
X0080312Y0070088D01*
X0080254Y0069889D02*
X0084730Y0069889D01*
X0084577Y0069691D02*
X0080195Y0069691D01*
X0080137Y0069492D02*
X0084480Y0069492D01*
X0084445Y0069294D02*
X0080099Y0069294D01*
X0080081Y0069095D02*
X0084409Y0069095D01*
X0084374Y0068897D02*
X0080063Y0068897D01*
X0080045Y0068698D02*
X0084338Y0068698D01*
X0084302Y0068500D02*
X0080027Y0068500D01*
X0080009Y0068301D02*
X0084267Y0068301D01*
X0084231Y0068103D02*
X0079991Y0068103D01*
X0079973Y0067904D02*
X0084195Y0067904D01*
X0084160Y0067706D02*
X0079955Y0067706D01*
X0079937Y0067507D02*
X0084124Y0067507D01*
X0084088Y0067309D02*
X0079919Y0067309D01*
X0079933Y0067110D02*
X0084107Y0067110D01*
X0084150Y0066912D02*
X0079966Y0066912D01*
X0079998Y0066713D02*
X0084192Y0066713D01*
X0084235Y0066515D02*
X0080031Y0066515D01*
X0080064Y0066316D02*
X0084278Y0066316D01*
X0084320Y0066118D02*
X0080096Y0066118D01*
X0080129Y0065919D02*
X0084363Y0065919D01*
X0084406Y0065721D02*
X0080161Y0065721D01*
X0080194Y0065522D02*
X0084448Y0065522D01*
X0084491Y0065324D02*
X0080226Y0065324D01*
X0080259Y0065125D02*
X0084534Y0065125D01*
X0084576Y0064927D02*
X0080291Y0064927D01*
X0080324Y0064728D02*
X0084619Y0064728D01*
X0084718Y0064530D02*
X0080356Y0064530D01*
X0080389Y0064331D02*
X0084860Y0064331D01*
X0085002Y0064133D02*
X0080421Y0064133D01*
X0080454Y0063934D02*
X0085144Y0063934D01*
X0085286Y0063736D02*
X0080487Y0063736D01*
X0080541Y0063537D02*
X0085552Y0063537D01*
X0085835Y0063339D02*
X0080636Y0063339D01*
X0080732Y0063140D02*
X0086118Y0063140D01*
X0087275Y0062941D02*
X0080827Y0062941D01*
X0080922Y0062743D02*
X0088746Y0062743D01*
X0080608Y0056986D02*
X0103333Y0056986D01*
X0103333Y0056788D02*
X0080608Y0056788D01*
X0080608Y0056589D02*
X0103333Y0056589D01*
X0103333Y0056391D02*
X0080608Y0056391D01*
X0080608Y0056192D02*
X0103333Y0056192D01*
X0103333Y0055994D02*
X0080608Y0055994D01*
X0080608Y0055795D02*
X0103333Y0055795D01*
X0103333Y0055597D02*
X0080608Y0055597D01*
X0080608Y0055398D02*
X0103333Y0055398D01*
X0103333Y0055200D02*
X0080608Y0055200D01*
X0080608Y0055001D02*
X0103333Y0055001D01*
X0103333Y0054803D02*
X0080608Y0054803D01*
X0080608Y0054604D02*
X0103333Y0054604D01*
X0103333Y0054405D02*
X0080608Y0054405D01*
X0080608Y0054207D02*
X0103333Y0054207D01*
X0103333Y0054008D02*
X0080608Y0054008D01*
X0080608Y0053810D02*
X0103333Y0053810D01*
X0103333Y0053611D02*
X0080608Y0053611D01*
X0080608Y0053413D02*
X0103333Y0053413D01*
X0103333Y0053214D02*
X0080608Y0053214D01*
X0080608Y0053016D02*
X0103333Y0053016D01*
X0103333Y0052817D02*
X0099692Y0052817D01*
X0099692Y0052619D02*
X0103333Y0052619D01*
X0103333Y0052420D02*
X0099692Y0052420D01*
X0099692Y0052222D02*
X0103333Y0052222D01*
X0103333Y0052023D02*
X0099692Y0052023D01*
X0099687Y0051825D02*
X0103348Y0051825D01*
X0103348Y0051626D02*
X0099687Y0051626D01*
X0099687Y0051428D02*
X0103348Y0051428D01*
X0103348Y0051229D02*
X0099687Y0051229D01*
X0099687Y0051031D02*
X0103348Y0051031D01*
X0103348Y0050832D02*
X0099687Y0050832D01*
X0099687Y0050634D02*
X0103348Y0050634D01*
X0103348Y0050435D02*
X0099687Y0050435D01*
X0099687Y0050237D02*
X0103348Y0050237D01*
X0103348Y0050038D02*
X0099687Y0050038D01*
X0099687Y0049840D02*
X0103348Y0049840D01*
X0103348Y0049641D02*
X0099687Y0049641D01*
X0099687Y0049443D02*
X0103348Y0049443D01*
X0103348Y0049244D02*
X0099687Y0049244D01*
X0099671Y0049046D02*
X0103348Y0049046D01*
X0103348Y0048847D02*
X0099651Y0048847D01*
X0099631Y0048649D02*
X0103333Y0048649D01*
X0103316Y0048450D02*
X0099612Y0048450D01*
X0099592Y0048252D02*
X0103299Y0048252D01*
X0103283Y0048053D02*
X0099572Y0048053D01*
X0099552Y0047855D02*
X0103266Y0047855D01*
X0103249Y0047656D02*
X0099532Y0047656D01*
X0099512Y0047458D02*
X0103233Y0047458D01*
X0103216Y0047259D02*
X0099459Y0047259D01*
X0099375Y0047061D02*
X0103200Y0047061D01*
X0103183Y0046862D02*
X0099290Y0046862D01*
X0099206Y0046664D02*
X0103166Y0046664D01*
X0103131Y0046465D02*
X0099122Y0046465D01*
X0099038Y0046267D02*
X0103074Y0046267D01*
X0103017Y0046068D02*
X0098954Y0046068D01*
X0098751Y0045870D02*
X0102960Y0045870D01*
X0102903Y0045671D02*
X0098508Y0045671D01*
X0098265Y0045472D02*
X0102846Y0045472D01*
X0102789Y0045274D02*
X0098022Y0045274D01*
X0097779Y0045075D02*
X0102732Y0045075D01*
X0102675Y0044877D02*
X0096757Y0044877D01*
X0100743Y0042098D02*
X0091094Y0042098D01*
X0090828Y0042296D02*
X0100974Y0042296D01*
X0101206Y0042495D02*
X0090563Y0042495D01*
X0091359Y0041899D02*
X0100511Y0041899D01*
X0100279Y0041701D02*
X0091625Y0041701D01*
X0091891Y0041502D02*
X0100047Y0041502D01*
X0099747Y0041304D02*
X0092156Y0041304D01*
X0092422Y0041105D02*
X0099266Y0041105D01*
X0098785Y0040907D02*
X0092928Y0040907D01*
X0093868Y0040708D02*
X0098304Y0040708D01*
X0097413Y0040510D02*
X0094808Y0040510D01*
X0105137Y0048252D02*
X0117677Y0048252D01*
X0117677Y0048450D02*
X0105137Y0048450D01*
X0105137Y0048649D02*
X0117677Y0048649D01*
X0117677Y0048847D02*
X0105137Y0048847D01*
X0105137Y0049046D02*
X0117677Y0049046D01*
X0117677Y0049244D02*
X0105137Y0049244D01*
X0105137Y0049443D02*
X0117677Y0049443D01*
X0117677Y0049641D02*
X0105137Y0049641D01*
X0105137Y0049840D02*
X0117677Y0049840D01*
X0117677Y0050038D02*
X0105137Y0050038D01*
X0105137Y0050237D02*
X0117677Y0050237D01*
X0117677Y0050435D02*
X0105137Y0050435D01*
X0106842Y0052222D02*
X0109042Y0052222D01*
X0109126Y0052420D02*
X0106634Y0052420D01*
X0106426Y0052619D02*
X0109209Y0052619D01*
X0109293Y0052817D02*
X0106217Y0052817D01*
X0106009Y0053016D02*
X0109377Y0053016D01*
X0109461Y0053214D02*
X0105801Y0053214D01*
X0105798Y0053217D02*
X0105023Y0054708D01*
X0104767Y0056498D01*
X0104992Y0058223D01*
X0105637Y0059702D01*
X0106717Y0060942D01*
X0108167Y0061842D01*
X0111442Y0062483D01*
X0114027Y0062087D01*
X0116073Y0060973D01*
X0117537Y0059073D01*
X0118062Y0056598D01*
X0117808Y0054777D01*
X0117042Y0053298D01*
X0115812Y0052198D01*
X0114112Y0051442D01*
X0113533Y0053717D01*
X0113533Y0053708D01*
X0115302Y0054687D01*
X0115862Y0056512D01*
X0115502Y0058033D01*
X0114483Y0059162D01*
X0113173Y0059758D01*
X0111523Y0059967D01*
X0109808Y0059758D01*
X0108442Y0059158D01*
X0107358Y0057998D01*
X0106973Y0056437D01*
X0107587Y0054587D01*
X0109527Y0053373D01*
X0108608Y0051192D01*
X0106973Y0052098D01*
X0105798Y0053217D01*
X0105696Y0053413D02*
X0109463Y0053413D01*
X0109146Y0053611D02*
X0105593Y0053611D01*
X0105489Y0053810D02*
X0108829Y0053810D01*
X0108512Y0054008D02*
X0105386Y0054008D01*
X0105283Y0054207D02*
X0108195Y0054207D01*
X0107878Y0054405D02*
X0105180Y0054405D01*
X0105076Y0054604D02*
X0107582Y0054604D01*
X0107516Y0054803D02*
X0105009Y0054803D01*
X0104981Y0055001D02*
X0107450Y0055001D01*
X0107384Y0055200D02*
X0104952Y0055200D01*
X0104924Y0055398D02*
X0107318Y0055398D01*
X0107252Y0055597D02*
X0104896Y0055597D01*
X0104868Y0055795D02*
X0107186Y0055795D01*
X0107120Y0055994D02*
X0104839Y0055994D01*
X0104811Y0056192D02*
X0107054Y0056192D01*
X0106988Y0056391D02*
X0104783Y0056391D01*
X0104779Y0056589D02*
X0107010Y0056589D01*
X0107059Y0056788D02*
X0104805Y0056788D01*
X0104831Y0056986D02*
X0107108Y0056986D01*
X0107157Y0057185D02*
X0104857Y0057185D01*
X0104883Y0057383D02*
X0107206Y0057383D01*
X0107255Y0057582D02*
X0104909Y0057582D01*
X0104935Y0057780D02*
X0107304Y0057780D01*
X0107353Y0057979D02*
X0104961Y0057979D01*
X0104987Y0058177D02*
X0107526Y0058177D01*
X0107711Y0058376D02*
X0105059Y0058376D01*
X0105146Y0058574D02*
X0107897Y0058574D01*
X0108083Y0058773D02*
X0105232Y0058773D01*
X0105319Y0058971D02*
X0108268Y0058971D01*
X0108470Y0059170D02*
X0105405Y0059170D01*
X0105492Y0059368D02*
X0108922Y0059368D01*
X0109374Y0059567D02*
X0105578Y0059567D01*
X0105692Y0059765D02*
X0109871Y0059765D01*
X0111492Y0059964D02*
X0105865Y0059964D01*
X0106038Y0060162D02*
X0116697Y0060162D01*
X0116850Y0059964D02*
X0111551Y0059964D01*
X0113111Y0059765D02*
X0117003Y0059765D01*
X0117156Y0059567D02*
X0113592Y0059567D01*
X0114029Y0059368D02*
X0117309Y0059368D01*
X0117462Y0059170D02*
X0114466Y0059170D01*
X0114655Y0058971D02*
X0117559Y0058971D01*
X0117601Y0058773D02*
X0114834Y0058773D01*
X0115014Y0058574D02*
X0117643Y0058574D01*
X0117685Y0058376D02*
X0115193Y0058376D01*
X0115372Y0058177D02*
X0117727Y0058177D01*
X0117770Y0057979D02*
X0115515Y0057979D01*
X0115562Y0057780D02*
X0117812Y0057780D01*
X0117854Y0057582D02*
X0115609Y0057582D01*
X0115656Y0057383D02*
X0117896Y0057383D01*
X0117938Y0057185D02*
X0115703Y0057185D01*
X0115750Y0056986D02*
X0117980Y0056986D01*
X0118022Y0056788D02*
X0115797Y0056788D01*
X0115844Y0056589D02*
X0118061Y0056589D01*
X0118034Y0056391D02*
X0115825Y0056391D01*
X0115764Y0056192D02*
X0118006Y0056192D01*
X0117978Y0055994D02*
X0115703Y0055994D01*
X0115642Y0055795D02*
X0117950Y0055795D01*
X0117922Y0055597D02*
X0115581Y0055597D01*
X0115521Y0055398D02*
X0117894Y0055398D01*
X0117867Y0055200D02*
X0115460Y0055200D01*
X0115399Y0055001D02*
X0117839Y0055001D01*
X0117811Y0054803D02*
X0115338Y0054803D01*
X0115152Y0054604D02*
X0117718Y0054604D01*
X0117615Y0054405D02*
X0114793Y0054405D01*
X0114435Y0054207D02*
X0117513Y0054207D01*
X0117410Y0054008D02*
X0114076Y0054008D01*
X0113718Y0053810D02*
X0117307Y0053810D01*
X0117205Y0053611D02*
X0113560Y0053611D01*
X0113610Y0053413D02*
X0117102Y0053413D01*
X0116950Y0053214D02*
X0113661Y0053214D01*
X0113711Y0053016D02*
X0116728Y0053016D01*
X0116506Y0052817D02*
X0113762Y0052817D01*
X0113813Y0052619D02*
X0116284Y0052619D01*
X0116062Y0052420D02*
X0113863Y0052420D01*
X0113914Y0052222D02*
X0115840Y0052222D01*
X0115420Y0052023D02*
X0113964Y0052023D01*
X0114015Y0051825D02*
X0114973Y0051825D01*
X0114526Y0051626D02*
X0114066Y0051626D01*
X0111881Y0048053D02*
X0108828Y0048053D01*
X0109058Y0047855D02*
X0112117Y0047855D01*
X0112353Y0047656D02*
X0109288Y0047656D01*
X0109518Y0047458D02*
X0112589Y0047458D01*
X0112825Y0047259D02*
X0109748Y0047259D01*
X0109978Y0047061D02*
X0113061Y0047061D01*
X0113296Y0046862D02*
X0110208Y0046862D01*
X0110438Y0046664D02*
X0113532Y0046664D01*
X0113768Y0046465D02*
X0110669Y0046465D01*
X0110899Y0046267D02*
X0114004Y0046267D01*
X0114240Y0046068D02*
X0110910Y0046068D01*
X0110558Y0045870D02*
X0114476Y0045870D01*
X0114712Y0045671D02*
X0110206Y0045671D01*
X0109853Y0045472D02*
X0114948Y0045472D01*
X0115184Y0045274D02*
X0109501Y0045274D01*
X0109149Y0045075D02*
X0115420Y0045075D01*
X0115656Y0044877D02*
X0108796Y0044877D01*
X0108623Y0051229D02*
X0108541Y0051229D01*
X0108707Y0051428D02*
X0108182Y0051428D01*
X0107824Y0051626D02*
X0108791Y0051626D01*
X0108874Y0051825D02*
X0107465Y0051825D01*
X0107106Y0052023D02*
X0108958Y0052023D01*
X0106211Y0060361D02*
X0116544Y0060361D01*
X0116391Y0060559D02*
X0106384Y0060559D01*
X0106557Y0060758D02*
X0116238Y0060758D01*
X0116085Y0060956D02*
X0106740Y0060956D01*
X0107060Y0061155D02*
X0115738Y0061155D01*
X0115374Y0061353D02*
X0107379Y0061353D01*
X0107699Y0061552D02*
X0115010Y0061552D01*
X0114646Y0061750D02*
X0108019Y0061750D01*
X0108712Y0061949D02*
X0114282Y0061949D01*
X0113635Y0062147D02*
X0109728Y0062147D01*
X0110744Y0062346D02*
X0112336Y0062346D01*
X0114549Y0069492D02*
X0117316Y0069492D01*
X0117418Y0069691D02*
X0114826Y0069691D01*
X0115103Y0069889D02*
X0117445Y0069889D01*
X0117472Y0070088D02*
X0115216Y0070088D01*
X0115269Y0070286D02*
X0117499Y0070286D01*
X0117526Y0070485D02*
X0115322Y0070485D01*
X0115375Y0070683D02*
X0117553Y0070683D01*
X0117581Y0070882D02*
X0115428Y0070882D01*
X0115480Y0071080D02*
X0117608Y0071080D01*
X0117635Y0071279D02*
X0115533Y0071279D01*
X0115586Y0071477D02*
X0117662Y0071477D01*
X0117677Y0071676D02*
X0115639Y0071676D01*
X0115673Y0071874D02*
X0117677Y0071874D01*
X0117677Y0072073D02*
X0115673Y0072073D01*
X0115673Y0072272D02*
X0117677Y0072272D01*
X0117687Y0072470D02*
X0115677Y0072470D01*
X0115677Y0072669D02*
X0117687Y0072669D01*
X0117687Y0072867D02*
X0115677Y0072867D01*
X0115677Y0073066D02*
X0117687Y0073066D01*
X0117687Y0073264D02*
X0115677Y0073264D01*
X0115677Y0073463D02*
X0117687Y0073463D01*
X0117687Y0073661D02*
X0115677Y0073661D01*
D13*
X0121000Y0076800D02*
X0121000Y0078300D01*
X0121002Y0078360D01*
X0121007Y0078421D01*
X0121016Y0078480D01*
X0121029Y0078539D01*
X0121045Y0078598D01*
X0121065Y0078655D01*
X0121088Y0078710D01*
X0121115Y0078765D01*
X0121144Y0078817D01*
X0121177Y0078868D01*
X0121213Y0078917D01*
X0121251Y0078963D01*
X0121293Y0079007D01*
X0121337Y0079049D01*
X0121383Y0079087D01*
X0121432Y0079123D01*
X0121483Y0079156D01*
X0121535Y0079185D01*
X0121590Y0079212D01*
X0121645Y0079235D01*
X0121702Y0079255D01*
X0121761Y0079271D01*
X0121820Y0079284D01*
X0121879Y0079293D01*
X0121940Y0079298D01*
X0122000Y0079300D01*
X0129000Y0079300D02*
X0129060Y0079298D01*
X0129121Y0079293D01*
X0129180Y0079284D01*
X0129239Y0079271D01*
X0129298Y0079255D01*
X0129355Y0079235D01*
X0129410Y0079212D01*
X0129465Y0079185D01*
X0129517Y0079156D01*
X0129568Y0079123D01*
X0129617Y0079087D01*
X0129663Y0079049D01*
X0129707Y0079007D01*
X0129749Y0078963D01*
X0129787Y0078917D01*
X0129823Y0078868D01*
X0129856Y0078817D01*
X0129885Y0078765D01*
X0129912Y0078710D01*
X0129935Y0078655D01*
X0129955Y0078598D01*
X0129971Y0078539D01*
X0129984Y0078480D01*
X0129993Y0078421D01*
X0129998Y0078360D01*
X0130000Y0078300D01*
X0130000Y0076800D01*
X0131000Y0076800D02*
X0131000Y0078300D01*
X0131002Y0078360D01*
X0131007Y0078421D01*
X0131016Y0078480D01*
X0131029Y0078539D01*
X0131045Y0078598D01*
X0131065Y0078655D01*
X0131088Y0078710D01*
X0131115Y0078765D01*
X0131144Y0078817D01*
X0131177Y0078868D01*
X0131213Y0078917D01*
X0131251Y0078963D01*
X0131293Y0079007D01*
X0131337Y0079049D01*
X0131383Y0079087D01*
X0131432Y0079123D01*
X0131483Y0079156D01*
X0131535Y0079185D01*
X0131590Y0079212D01*
X0131645Y0079235D01*
X0131702Y0079255D01*
X0131761Y0079271D01*
X0131820Y0079284D01*
X0131879Y0079293D01*
X0131940Y0079298D01*
X0132000Y0079300D01*
X0139000Y0079300D02*
X0139060Y0079298D01*
X0139121Y0079293D01*
X0139180Y0079284D01*
X0139239Y0079271D01*
X0139298Y0079255D01*
X0139355Y0079235D01*
X0139410Y0079212D01*
X0139465Y0079185D01*
X0139517Y0079156D01*
X0139568Y0079123D01*
X0139617Y0079087D01*
X0139663Y0079049D01*
X0139707Y0079007D01*
X0139749Y0078963D01*
X0139787Y0078917D01*
X0139823Y0078868D01*
X0139856Y0078817D01*
X0139885Y0078765D01*
X0139912Y0078710D01*
X0139935Y0078655D01*
X0139955Y0078598D01*
X0139971Y0078539D01*
X0139984Y0078480D01*
X0139993Y0078421D01*
X0139998Y0078360D01*
X0140000Y0078300D01*
X0140000Y0076800D01*
X0141000Y0076800D02*
X0141000Y0078300D01*
X0141002Y0078360D01*
X0141007Y0078421D01*
X0141016Y0078480D01*
X0141029Y0078539D01*
X0141045Y0078598D01*
X0141065Y0078655D01*
X0141088Y0078710D01*
X0141115Y0078765D01*
X0141144Y0078817D01*
X0141177Y0078868D01*
X0141213Y0078917D01*
X0141251Y0078963D01*
X0141293Y0079007D01*
X0141337Y0079049D01*
X0141383Y0079087D01*
X0141432Y0079123D01*
X0141483Y0079156D01*
X0141535Y0079185D01*
X0141590Y0079212D01*
X0141645Y0079235D01*
X0141702Y0079255D01*
X0141761Y0079271D01*
X0141820Y0079284D01*
X0141879Y0079293D01*
X0141940Y0079298D01*
X0142000Y0079300D01*
X0149000Y0079300D02*
X0149060Y0079298D01*
X0149121Y0079293D01*
X0149180Y0079284D01*
X0149239Y0079271D01*
X0149298Y0079255D01*
X0149355Y0079235D01*
X0149410Y0079212D01*
X0149465Y0079185D01*
X0149517Y0079156D01*
X0149568Y0079123D01*
X0149617Y0079087D01*
X0149663Y0079049D01*
X0149707Y0079007D01*
X0149749Y0078963D01*
X0149787Y0078917D01*
X0149823Y0078868D01*
X0149856Y0078817D01*
X0149885Y0078765D01*
X0149912Y0078710D01*
X0149935Y0078655D01*
X0149955Y0078598D01*
X0149971Y0078539D01*
X0149984Y0078480D01*
X0149993Y0078421D01*
X0149998Y0078360D01*
X0150000Y0078300D01*
X0150000Y0076800D01*
X0151000Y0076800D02*
X0151000Y0078300D01*
X0151002Y0078360D01*
X0151007Y0078421D01*
X0151016Y0078480D01*
X0151029Y0078539D01*
X0151045Y0078598D01*
X0151065Y0078655D01*
X0151088Y0078710D01*
X0151115Y0078765D01*
X0151144Y0078817D01*
X0151177Y0078868D01*
X0151213Y0078917D01*
X0151251Y0078963D01*
X0151293Y0079007D01*
X0151337Y0079049D01*
X0151383Y0079087D01*
X0151432Y0079123D01*
X0151483Y0079156D01*
X0151535Y0079185D01*
X0151590Y0079212D01*
X0151645Y0079235D01*
X0151702Y0079255D01*
X0151761Y0079271D01*
X0151820Y0079284D01*
X0151879Y0079293D01*
X0151940Y0079298D01*
X0152000Y0079300D01*
X0159000Y0079300D02*
X0159060Y0079298D01*
X0159121Y0079293D01*
X0159180Y0079284D01*
X0159239Y0079271D01*
X0159298Y0079255D01*
X0159355Y0079235D01*
X0159410Y0079212D01*
X0159465Y0079185D01*
X0159517Y0079156D01*
X0159568Y0079123D01*
X0159617Y0079087D01*
X0159663Y0079049D01*
X0159707Y0079007D01*
X0159749Y0078963D01*
X0159787Y0078917D01*
X0159823Y0078868D01*
X0159856Y0078817D01*
X0159885Y0078765D01*
X0159912Y0078710D01*
X0159935Y0078655D01*
X0159955Y0078598D01*
X0159971Y0078539D01*
X0159984Y0078480D01*
X0159993Y0078421D01*
X0159998Y0078360D01*
X0160000Y0078300D01*
X0160000Y0076800D01*
X0161000Y0076800D02*
X0161000Y0078300D01*
X0161002Y0078360D01*
X0161007Y0078421D01*
X0161016Y0078480D01*
X0161029Y0078539D01*
X0161045Y0078598D01*
X0161065Y0078655D01*
X0161088Y0078710D01*
X0161115Y0078765D01*
X0161144Y0078817D01*
X0161177Y0078868D01*
X0161213Y0078917D01*
X0161251Y0078963D01*
X0161293Y0079007D01*
X0161337Y0079049D01*
X0161383Y0079087D01*
X0161432Y0079123D01*
X0161483Y0079156D01*
X0161535Y0079185D01*
X0161590Y0079212D01*
X0161645Y0079235D01*
X0161702Y0079255D01*
X0161761Y0079271D01*
X0161820Y0079284D01*
X0161879Y0079293D01*
X0161940Y0079298D01*
X0162000Y0079300D01*
X0169000Y0079300D02*
X0169060Y0079298D01*
X0169121Y0079293D01*
X0169180Y0079284D01*
X0169239Y0079271D01*
X0169298Y0079255D01*
X0169355Y0079235D01*
X0169410Y0079212D01*
X0169465Y0079185D01*
X0169517Y0079156D01*
X0169568Y0079123D01*
X0169617Y0079087D01*
X0169663Y0079049D01*
X0169707Y0079007D01*
X0169749Y0078963D01*
X0169787Y0078917D01*
X0169823Y0078868D01*
X0169856Y0078817D01*
X0169885Y0078765D01*
X0169912Y0078710D01*
X0169935Y0078655D01*
X0169955Y0078598D01*
X0169971Y0078539D01*
X0169984Y0078480D01*
X0169993Y0078421D01*
X0169998Y0078360D01*
X0170000Y0078300D01*
X0170000Y0076800D01*
X0171000Y0076800D02*
X0171000Y0078300D01*
X0171002Y0078360D01*
X0171007Y0078421D01*
X0171016Y0078480D01*
X0171029Y0078539D01*
X0171045Y0078598D01*
X0171065Y0078655D01*
X0171088Y0078710D01*
X0171115Y0078765D01*
X0171144Y0078817D01*
X0171177Y0078868D01*
X0171213Y0078917D01*
X0171251Y0078963D01*
X0171293Y0079007D01*
X0171337Y0079049D01*
X0171383Y0079087D01*
X0171432Y0079123D01*
X0171483Y0079156D01*
X0171535Y0079185D01*
X0171590Y0079212D01*
X0171645Y0079235D01*
X0171702Y0079255D01*
X0171761Y0079271D01*
X0171820Y0079284D01*
X0171879Y0079293D01*
X0171940Y0079298D01*
X0172000Y0079300D01*
X0179000Y0079300D02*
X0179060Y0079298D01*
X0179121Y0079293D01*
X0179180Y0079284D01*
X0179239Y0079271D01*
X0179298Y0079255D01*
X0179355Y0079235D01*
X0179410Y0079212D01*
X0179465Y0079185D01*
X0179517Y0079156D01*
X0179568Y0079123D01*
X0179617Y0079087D01*
X0179663Y0079049D01*
X0179707Y0079007D01*
X0179749Y0078963D01*
X0179787Y0078917D01*
X0179823Y0078868D01*
X0179856Y0078817D01*
X0179885Y0078765D01*
X0179912Y0078710D01*
X0179935Y0078655D01*
X0179955Y0078598D01*
X0179971Y0078539D01*
X0179984Y0078480D01*
X0179993Y0078421D01*
X0179998Y0078360D01*
X0180000Y0078300D01*
X0180000Y0076800D01*
X0185500Y0092300D02*
X0187000Y0092300D01*
X0187060Y0092302D01*
X0187121Y0092307D01*
X0187180Y0092316D01*
X0187239Y0092329D01*
X0187298Y0092345D01*
X0187355Y0092365D01*
X0187410Y0092388D01*
X0187465Y0092415D01*
X0187517Y0092444D01*
X0187568Y0092477D01*
X0187617Y0092513D01*
X0187663Y0092551D01*
X0187707Y0092593D01*
X0187749Y0092637D01*
X0187787Y0092683D01*
X0187823Y0092732D01*
X0187856Y0092783D01*
X0187885Y0092835D01*
X0187912Y0092890D01*
X0187935Y0092945D01*
X0187955Y0093002D01*
X0187971Y0093061D01*
X0187984Y0093120D01*
X0187993Y0093179D01*
X0187998Y0093240D01*
X0188000Y0093300D01*
X0188000Y0100300D02*
X0187998Y0100360D01*
X0187993Y0100421D01*
X0187984Y0100480D01*
X0187971Y0100539D01*
X0187955Y0100598D01*
X0187935Y0100655D01*
X0187912Y0100710D01*
X0187885Y0100765D01*
X0187856Y0100817D01*
X0187823Y0100868D01*
X0187787Y0100917D01*
X0187749Y0100963D01*
X0187707Y0101007D01*
X0187663Y0101049D01*
X0187617Y0101087D01*
X0187568Y0101123D01*
X0187517Y0101156D01*
X0187465Y0101185D01*
X0187410Y0101212D01*
X0187355Y0101235D01*
X0187298Y0101255D01*
X0187239Y0101271D01*
X0187180Y0101284D01*
X0187121Y0101293D01*
X0187060Y0101298D01*
X0187000Y0101300D01*
X0185500Y0101300D01*
X0185500Y0102300D02*
X0187000Y0102300D01*
X0187060Y0102302D01*
X0187121Y0102307D01*
X0187180Y0102316D01*
X0187239Y0102329D01*
X0187298Y0102345D01*
X0187355Y0102365D01*
X0187410Y0102388D01*
X0187465Y0102415D01*
X0187517Y0102444D01*
X0187568Y0102477D01*
X0187617Y0102513D01*
X0187663Y0102551D01*
X0187707Y0102593D01*
X0187749Y0102637D01*
X0187787Y0102683D01*
X0187823Y0102732D01*
X0187856Y0102783D01*
X0187885Y0102835D01*
X0187912Y0102890D01*
X0187935Y0102945D01*
X0187955Y0103002D01*
X0187971Y0103061D01*
X0187984Y0103120D01*
X0187993Y0103179D01*
X0187998Y0103240D01*
X0188000Y0103300D01*
X0188000Y0110300D02*
X0187998Y0110360D01*
X0187993Y0110421D01*
X0187984Y0110480D01*
X0187971Y0110539D01*
X0187955Y0110598D01*
X0187935Y0110655D01*
X0187912Y0110710D01*
X0187885Y0110765D01*
X0187856Y0110817D01*
X0187823Y0110868D01*
X0187787Y0110917D01*
X0187749Y0110963D01*
X0187707Y0111007D01*
X0187663Y0111049D01*
X0187617Y0111087D01*
X0187568Y0111123D01*
X0187517Y0111156D01*
X0187465Y0111185D01*
X0187410Y0111212D01*
X0187355Y0111235D01*
X0187298Y0111255D01*
X0187239Y0111271D01*
X0187180Y0111284D01*
X0187121Y0111293D01*
X0187060Y0111298D01*
X0187000Y0111300D01*
X0185500Y0111300D01*
X0165500Y0111300D02*
X0164000Y0111300D01*
X0163940Y0111298D01*
X0163879Y0111293D01*
X0163820Y0111284D01*
X0163761Y0111271D01*
X0163702Y0111255D01*
X0163645Y0111235D01*
X0163590Y0111212D01*
X0163535Y0111185D01*
X0163483Y0111156D01*
X0163432Y0111123D01*
X0163383Y0111087D01*
X0163337Y0111049D01*
X0163293Y0111007D01*
X0163251Y0110963D01*
X0163213Y0110917D01*
X0163177Y0110868D01*
X0163144Y0110817D01*
X0163115Y0110765D01*
X0163088Y0110710D01*
X0163065Y0110655D01*
X0163045Y0110598D01*
X0163029Y0110539D01*
X0163016Y0110480D01*
X0163007Y0110421D01*
X0163002Y0110360D01*
X0163000Y0110300D01*
X0163000Y0103300D02*
X0163002Y0103240D01*
X0163007Y0103179D01*
X0163016Y0103120D01*
X0163029Y0103061D01*
X0163045Y0103002D01*
X0163065Y0102945D01*
X0163088Y0102890D01*
X0163115Y0102835D01*
X0163144Y0102783D01*
X0163177Y0102732D01*
X0163213Y0102683D01*
X0163251Y0102637D01*
X0163293Y0102593D01*
X0163337Y0102551D01*
X0163383Y0102513D01*
X0163432Y0102477D01*
X0163483Y0102444D01*
X0163535Y0102415D01*
X0163590Y0102388D01*
X0163645Y0102365D01*
X0163702Y0102345D01*
X0163761Y0102329D01*
X0163820Y0102316D01*
X0163879Y0102307D01*
X0163940Y0102302D01*
X0164000Y0102300D01*
X0165500Y0102300D01*
X0165500Y0101300D02*
X0164000Y0101300D01*
X0163940Y0101298D01*
X0163879Y0101293D01*
X0163820Y0101284D01*
X0163761Y0101271D01*
X0163702Y0101255D01*
X0163645Y0101235D01*
X0163590Y0101212D01*
X0163535Y0101185D01*
X0163483Y0101156D01*
X0163432Y0101123D01*
X0163383Y0101087D01*
X0163337Y0101049D01*
X0163293Y0101007D01*
X0163251Y0100963D01*
X0163213Y0100917D01*
X0163177Y0100868D01*
X0163144Y0100817D01*
X0163115Y0100765D01*
X0163088Y0100710D01*
X0163065Y0100655D01*
X0163045Y0100598D01*
X0163029Y0100539D01*
X0163016Y0100480D01*
X0163007Y0100421D01*
X0163002Y0100360D01*
X0163000Y0100300D01*
X0163000Y0093300D02*
X0163002Y0093240D01*
X0163007Y0093179D01*
X0163016Y0093120D01*
X0163029Y0093061D01*
X0163045Y0093002D01*
X0163065Y0092945D01*
X0163088Y0092890D01*
X0163115Y0092835D01*
X0163144Y0092783D01*
X0163177Y0092732D01*
X0163213Y0092683D01*
X0163251Y0092637D01*
X0163293Y0092593D01*
X0163337Y0092551D01*
X0163383Y0092513D01*
X0163432Y0092477D01*
X0163483Y0092444D01*
X0163535Y0092415D01*
X0163590Y0092388D01*
X0163645Y0092365D01*
X0163702Y0092345D01*
X0163761Y0092329D01*
X0163820Y0092316D01*
X0163879Y0092307D01*
X0163940Y0092302D01*
X0164000Y0092300D01*
X0165500Y0092300D01*
X0149500Y0092300D02*
X0148000Y0092300D01*
X0149500Y0092300D02*
X0149560Y0092302D01*
X0149621Y0092307D01*
X0149680Y0092316D01*
X0149739Y0092329D01*
X0149798Y0092345D01*
X0149855Y0092365D01*
X0149910Y0092388D01*
X0149965Y0092415D01*
X0150017Y0092444D01*
X0150068Y0092477D01*
X0150117Y0092513D01*
X0150163Y0092551D01*
X0150207Y0092593D01*
X0150249Y0092637D01*
X0150287Y0092683D01*
X0150323Y0092732D01*
X0150356Y0092783D01*
X0150385Y0092835D01*
X0150412Y0092890D01*
X0150435Y0092945D01*
X0150455Y0093002D01*
X0150471Y0093061D01*
X0150484Y0093120D01*
X0150493Y0093179D01*
X0150498Y0093240D01*
X0150500Y0093300D01*
X0150500Y0100300D02*
X0150498Y0100360D01*
X0150493Y0100421D01*
X0150484Y0100480D01*
X0150471Y0100539D01*
X0150455Y0100598D01*
X0150435Y0100655D01*
X0150412Y0100710D01*
X0150385Y0100765D01*
X0150356Y0100817D01*
X0150323Y0100868D01*
X0150287Y0100917D01*
X0150249Y0100963D01*
X0150207Y0101007D01*
X0150163Y0101049D01*
X0150117Y0101087D01*
X0150068Y0101123D01*
X0150017Y0101156D01*
X0149965Y0101185D01*
X0149910Y0101212D01*
X0149855Y0101235D01*
X0149798Y0101255D01*
X0149739Y0101271D01*
X0149680Y0101284D01*
X0149621Y0101293D01*
X0149560Y0101298D01*
X0149500Y0101300D01*
X0148000Y0101300D01*
X0148000Y0102300D02*
X0149500Y0102300D01*
X0149560Y0102302D01*
X0149621Y0102307D01*
X0149680Y0102316D01*
X0149739Y0102329D01*
X0149798Y0102345D01*
X0149855Y0102365D01*
X0149910Y0102388D01*
X0149965Y0102415D01*
X0150017Y0102444D01*
X0150068Y0102477D01*
X0150117Y0102513D01*
X0150163Y0102551D01*
X0150207Y0102593D01*
X0150249Y0102637D01*
X0150287Y0102683D01*
X0150323Y0102732D01*
X0150356Y0102783D01*
X0150385Y0102835D01*
X0150412Y0102890D01*
X0150435Y0102945D01*
X0150455Y0103002D01*
X0150471Y0103061D01*
X0150484Y0103120D01*
X0150493Y0103179D01*
X0150498Y0103240D01*
X0150500Y0103300D01*
X0150500Y0110300D02*
X0150498Y0110360D01*
X0150493Y0110421D01*
X0150484Y0110480D01*
X0150471Y0110539D01*
X0150455Y0110598D01*
X0150435Y0110655D01*
X0150412Y0110710D01*
X0150385Y0110765D01*
X0150356Y0110817D01*
X0150323Y0110868D01*
X0150287Y0110917D01*
X0150249Y0110963D01*
X0150207Y0111007D01*
X0150163Y0111049D01*
X0150117Y0111087D01*
X0150068Y0111123D01*
X0150017Y0111156D01*
X0149965Y0111185D01*
X0149910Y0111212D01*
X0149855Y0111235D01*
X0149798Y0111255D01*
X0149739Y0111271D01*
X0149680Y0111284D01*
X0149621Y0111293D01*
X0149560Y0111298D01*
X0149500Y0111300D01*
X0148000Y0111300D01*
X0128000Y0111300D02*
X0126500Y0111300D01*
X0126440Y0111298D01*
X0126379Y0111293D01*
X0126320Y0111284D01*
X0126261Y0111271D01*
X0126202Y0111255D01*
X0126145Y0111235D01*
X0126090Y0111212D01*
X0126035Y0111185D01*
X0125983Y0111156D01*
X0125932Y0111123D01*
X0125883Y0111087D01*
X0125837Y0111049D01*
X0125793Y0111007D01*
X0125751Y0110963D01*
X0125713Y0110917D01*
X0125677Y0110868D01*
X0125644Y0110817D01*
X0125615Y0110765D01*
X0125588Y0110710D01*
X0125565Y0110655D01*
X0125545Y0110598D01*
X0125529Y0110539D01*
X0125516Y0110480D01*
X0125507Y0110421D01*
X0125502Y0110360D01*
X0125500Y0110300D01*
X0125500Y0103300D02*
X0125502Y0103240D01*
X0125507Y0103179D01*
X0125516Y0103120D01*
X0125529Y0103061D01*
X0125545Y0103002D01*
X0125565Y0102945D01*
X0125588Y0102890D01*
X0125615Y0102835D01*
X0125644Y0102783D01*
X0125677Y0102732D01*
X0125713Y0102683D01*
X0125751Y0102637D01*
X0125793Y0102593D01*
X0125837Y0102551D01*
X0125883Y0102513D01*
X0125932Y0102477D01*
X0125983Y0102444D01*
X0126035Y0102415D01*
X0126090Y0102388D01*
X0126145Y0102365D01*
X0126202Y0102345D01*
X0126261Y0102329D01*
X0126320Y0102316D01*
X0126379Y0102307D01*
X0126440Y0102302D01*
X0126500Y0102300D01*
X0128000Y0102300D01*
X0128000Y0101300D02*
X0126500Y0101300D01*
X0126440Y0101298D01*
X0126379Y0101293D01*
X0126320Y0101284D01*
X0126261Y0101271D01*
X0126202Y0101255D01*
X0126145Y0101235D01*
X0126090Y0101212D01*
X0126035Y0101185D01*
X0125983Y0101156D01*
X0125932Y0101123D01*
X0125883Y0101087D01*
X0125837Y0101049D01*
X0125793Y0101007D01*
X0125751Y0100963D01*
X0125713Y0100917D01*
X0125677Y0100868D01*
X0125644Y0100817D01*
X0125615Y0100765D01*
X0125588Y0100710D01*
X0125565Y0100655D01*
X0125545Y0100598D01*
X0125529Y0100539D01*
X0125516Y0100480D01*
X0125507Y0100421D01*
X0125502Y0100360D01*
X0125500Y0100300D01*
X0125500Y0093300D02*
X0125502Y0093240D01*
X0125507Y0093179D01*
X0125516Y0093120D01*
X0125529Y0093061D01*
X0125545Y0093002D01*
X0125565Y0092945D01*
X0125588Y0092890D01*
X0125615Y0092835D01*
X0125644Y0092783D01*
X0125677Y0092732D01*
X0125713Y0092683D01*
X0125751Y0092637D01*
X0125793Y0092593D01*
X0125837Y0092551D01*
X0125883Y0092513D01*
X0125932Y0092477D01*
X0125983Y0092444D01*
X0126035Y0092415D01*
X0126090Y0092388D01*
X0126145Y0092365D01*
X0126202Y0092345D01*
X0126261Y0092329D01*
X0126320Y0092316D01*
X0126379Y0092307D01*
X0126440Y0092302D01*
X0126500Y0092300D01*
X0128000Y0092300D01*
X0087331Y0084232D02*
X0087329Y0084145D01*
X0087323Y0084058D01*
X0087314Y0083971D01*
X0087301Y0083885D01*
X0087284Y0083799D01*
X0087263Y0083714D01*
X0087238Y0083631D01*
X0087210Y0083548D01*
X0087179Y0083467D01*
X0087144Y0083387D01*
X0087105Y0083309D01*
X0087063Y0083232D01*
X0087018Y0083157D01*
X0086969Y0083085D01*
X0086918Y0083014D01*
X0086863Y0082946D01*
X0086806Y0082881D01*
X0086745Y0082818D01*
X0086682Y0082757D01*
X0086617Y0082700D01*
X0086549Y0082645D01*
X0086478Y0082594D01*
X0086406Y0082545D01*
X0086331Y0082500D01*
X0086254Y0082458D01*
X0086176Y0082419D01*
X0086096Y0082384D01*
X0086015Y0082353D01*
X0085932Y0082325D01*
X0085849Y0082300D01*
X0085764Y0082279D01*
X0085678Y0082262D01*
X0085592Y0082249D01*
X0085505Y0082240D01*
X0085418Y0082234D01*
X0085331Y0082232D01*
X0080635Y0082299D02*
X0080548Y0082301D01*
X0080461Y0082307D01*
X0080374Y0082316D01*
X0080288Y0082329D01*
X0080202Y0082346D01*
X0080117Y0082367D01*
X0080034Y0082392D01*
X0079951Y0082420D01*
X0079870Y0082451D01*
X0079790Y0082486D01*
X0079712Y0082525D01*
X0079635Y0082567D01*
X0079560Y0082612D01*
X0079488Y0082661D01*
X0079417Y0082712D01*
X0079349Y0082767D01*
X0079284Y0082824D01*
X0079221Y0082885D01*
X0079160Y0082948D01*
X0079103Y0083013D01*
X0079048Y0083081D01*
X0078997Y0083152D01*
X0078948Y0083224D01*
X0078903Y0083299D01*
X0078861Y0083376D01*
X0078822Y0083454D01*
X0078787Y0083534D01*
X0078756Y0083615D01*
X0078728Y0083698D01*
X0078703Y0083781D01*
X0078682Y0083866D01*
X0078665Y0083952D01*
X0078652Y0084038D01*
X0078643Y0084125D01*
X0078637Y0084212D01*
X0078635Y0084299D01*
X0087433Y0104251D02*
X0087431Y0104338D01*
X0087425Y0104425D01*
X0087416Y0104512D01*
X0087403Y0104598D01*
X0087386Y0104684D01*
X0087365Y0104769D01*
X0087340Y0104852D01*
X0087312Y0104935D01*
X0087281Y0105016D01*
X0087246Y0105096D01*
X0087207Y0105174D01*
X0087165Y0105251D01*
X0087120Y0105326D01*
X0087071Y0105398D01*
X0087020Y0105469D01*
X0086965Y0105537D01*
X0086908Y0105602D01*
X0086847Y0105665D01*
X0086784Y0105726D01*
X0086719Y0105783D01*
X0086651Y0105838D01*
X0086580Y0105889D01*
X0086508Y0105938D01*
X0086433Y0105983D01*
X0086356Y0106025D01*
X0086278Y0106064D01*
X0086198Y0106099D01*
X0086117Y0106130D01*
X0086034Y0106158D01*
X0085951Y0106183D01*
X0085866Y0106204D01*
X0085780Y0106221D01*
X0085694Y0106234D01*
X0085607Y0106243D01*
X0085520Y0106249D01*
X0085433Y0106251D01*
X0080702Y0106402D02*
X0080615Y0106400D01*
X0080528Y0106394D01*
X0080441Y0106385D01*
X0080355Y0106372D01*
X0080269Y0106355D01*
X0080184Y0106334D01*
X0080101Y0106309D01*
X0080018Y0106281D01*
X0079937Y0106250D01*
X0079857Y0106215D01*
X0079779Y0106176D01*
X0079702Y0106134D01*
X0079627Y0106089D01*
X0079555Y0106040D01*
X0079484Y0105989D01*
X0079416Y0105934D01*
X0079351Y0105877D01*
X0079288Y0105816D01*
X0079227Y0105753D01*
X0079170Y0105688D01*
X0079115Y0105620D01*
X0079064Y0105549D01*
X0079015Y0105477D01*
X0078970Y0105402D01*
X0078928Y0105325D01*
X0078889Y0105247D01*
X0078854Y0105167D01*
X0078823Y0105086D01*
X0078795Y0105003D01*
X0078770Y0104920D01*
X0078749Y0104835D01*
X0078732Y0104749D01*
X0078719Y0104663D01*
X0078710Y0104576D01*
X0078704Y0104489D01*
X0078702Y0104402D01*
X0121000Y0056800D02*
X0121000Y0055300D01*
X0121002Y0055240D01*
X0121007Y0055179D01*
X0121016Y0055120D01*
X0121029Y0055061D01*
X0121045Y0055002D01*
X0121065Y0054945D01*
X0121088Y0054890D01*
X0121115Y0054835D01*
X0121144Y0054783D01*
X0121177Y0054732D01*
X0121213Y0054683D01*
X0121251Y0054637D01*
X0121293Y0054593D01*
X0121337Y0054551D01*
X0121383Y0054513D01*
X0121432Y0054477D01*
X0121483Y0054444D01*
X0121535Y0054415D01*
X0121590Y0054388D01*
X0121645Y0054365D01*
X0121702Y0054345D01*
X0121761Y0054329D01*
X0121820Y0054316D01*
X0121879Y0054307D01*
X0121940Y0054302D01*
X0122000Y0054300D01*
X0129000Y0054300D02*
X0129060Y0054302D01*
X0129121Y0054307D01*
X0129180Y0054316D01*
X0129239Y0054329D01*
X0129298Y0054345D01*
X0129355Y0054365D01*
X0129410Y0054388D01*
X0129465Y0054415D01*
X0129517Y0054444D01*
X0129568Y0054477D01*
X0129617Y0054513D01*
X0129663Y0054551D01*
X0129707Y0054593D01*
X0129749Y0054637D01*
X0129787Y0054683D01*
X0129823Y0054732D01*
X0129856Y0054783D01*
X0129885Y0054835D01*
X0129912Y0054890D01*
X0129935Y0054945D01*
X0129955Y0055002D01*
X0129971Y0055061D01*
X0129984Y0055120D01*
X0129993Y0055179D01*
X0129998Y0055240D01*
X0130000Y0055300D01*
X0130000Y0056800D01*
X0131000Y0056800D02*
X0131000Y0055300D01*
X0131002Y0055240D01*
X0131007Y0055179D01*
X0131016Y0055120D01*
X0131029Y0055061D01*
X0131045Y0055002D01*
X0131065Y0054945D01*
X0131088Y0054890D01*
X0131115Y0054835D01*
X0131144Y0054783D01*
X0131177Y0054732D01*
X0131213Y0054683D01*
X0131251Y0054637D01*
X0131293Y0054593D01*
X0131337Y0054551D01*
X0131383Y0054513D01*
X0131432Y0054477D01*
X0131483Y0054444D01*
X0131535Y0054415D01*
X0131590Y0054388D01*
X0131645Y0054365D01*
X0131702Y0054345D01*
X0131761Y0054329D01*
X0131820Y0054316D01*
X0131879Y0054307D01*
X0131940Y0054302D01*
X0132000Y0054300D01*
X0139000Y0054300D02*
X0139060Y0054302D01*
X0139121Y0054307D01*
X0139180Y0054316D01*
X0139239Y0054329D01*
X0139298Y0054345D01*
X0139355Y0054365D01*
X0139410Y0054388D01*
X0139465Y0054415D01*
X0139517Y0054444D01*
X0139568Y0054477D01*
X0139617Y0054513D01*
X0139663Y0054551D01*
X0139707Y0054593D01*
X0139749Y0054637D01*
X0139787Y0054683D01*
X0139823Y0054732D01*
X0139856Y0054783D01*
X0139885Y0054835D01*
X0139912Y0054890D01*
X0139935Y0054945D01*
X0139955Y0055002D01*
X0139971Y0055061D01*
X0139984Y0055120D01*
X0139993Y0055179D01*
X0139998Y0055240D01*
X0140000Y0055300D01*
X0140000Y0056800D01*
X0141000Y0056800D02*
X0141000Y0055300D01*
X0141002Y0055240D01*
X0141007Y0055179D01*
X0141016Y0055120D01*
X0141029Y0055061D01*
X0141045Y0055002D01*
X0141065Y0054945D01*
X0141088Y0054890D01*
X0141115Y0054835D01*
X0141144Y0054783D01*
X0141177Y0054732D01*
X0141213Y0054683D01*
X0141251Y0054637D01*
X0141293Y0054593D01*
X0141337Y0054551D01*
X0141383Y0054513D01*
X0141432Y0054477D01*
X0141483Y0054444D01*
X0141535Y0054415D01*
X0141590Y0054388D01*
X0141645Y0054365D01*
X0141702Y0054345D01*
X0141761Y0054329D01*
X0141820Y0054316D01*
X0141879Y0054307D01*
X0141940Y0054302D01*
X0142000Y0054300D01*
X0149000Y0054300D02*
X0149060Y0054302D01*
X0149121Y0054307D01*
X0149180Y0054316D01*
X0149239Y0054329D01*
X0149298Y0054345D01*
X0149355Y0054365D01*
X0149410Y0054388D01*
X0149465Y0054415D01*
X0149517Y0054444D01*
X0149568Y0054477D01*
X0149617Y0054513D01*
X0149663Y0054551D01*
X0149707Y0054593D01*
X0149749Y0054637D01*
X0149787Y0054683D01*
X0149823Y0054732D01*
X0149856Y0054783D01*
X0149885Y0054835D01*
X0149912Y0054890D01*
X0149935Y0054945D01*
X0149955Y0055002D01*
X0149971Y0055061D01*
X0149984Y0055120D01*
X0149993Y0055179D01*
X0149998Y0055240D01*
X0150000Y0055300D01*
X0150000Y0056800D01*
X0151000Y0056800D02*
X0151000Y0055300D01*
X0151002Y0055240D01*
X0151007Y0055179D01*
X0151016Y0055120D01*
X0151029Y0055061D01*
X0151045Y0055002D01*
X0151065Y0054945D01*
X0151088Y0054890D01*
X0151115Y0054835D01*
X0151144Y0054783D01*
X0151177Y0054732D01*
X0151213Y0054683D01*
X0151251Y0054637D01*
X0151293Y0054593D01*
X0151337Y0054551D01*
X0151383Y0054513D01*
X0151432Y0054477D01*
X0151483Y0054444D01*
X0151535Y0054415D01*
X0151590Y0054388D01*
X0151645Y0054365D01*
X0151702Y0054345D01*
X0151761Y0054329D01*
X0151820Y0054316D01*
X0151879Y0054307D01*
X0151940Y0054302D01*
X0152000Y0054300D01*
X0159000Y0054300D02*
X0159060Y0054302D01*
X0159121Y0054307D01*
X0159180Y0054316D01*
X0159239Y0054329D01*
X0159298Y0054345D01*
X0159355Y0054365D01*
X0159410Y0054388D01*
X0159465Y0054415D01*
X0159517Y0054444D01*
X0159568Y0054477D01*
X0159617Y0054513D01*
X0159663Y0054551D01*
X0159707Y0054593D01*
X0159749Y0054637D01*
X0159787Y0054683D01*
X0159823Y0054732D01*
X0159856Y0054783D01*
X0159885Y0054835D01*
X0159912Y0054890D01*
X0159935Y0054945D01*
X0159955Y0055002D01*
X0159971Y0055061D01*
X0159984Y0055120D01*
X0159993Y0055179D01*
X0159998Y0055240D01*
X0160000Y0055300D01*
X0160000Y0056800D01*
X0161000Y0056800D02*
X0161000Y0055300D01*
X0161002Y0055240D01*
X0161007Y0055179D01*
X0161016Y0055120D01*
X0161029Y0055061D01*
X0161045Y0055002D01*
X0161065Y0054945D01*
X0161088Y0054890D01*
X0161115Y0054835D01*
X0161144Y0054783D01*
X0161177Y0054732D01*
X0161213Y0054683D01*
X0161251Y0054637D01*
X0161293Y0054593D01*
X0161337Y0054551D01*
X0161383Y0054513D01*
X0161432Y0054477D01*
X0161483Y0054444D01*
X0161535Y0054415D01*
X0161590Y0054388D01*
X0161645Y0054365D01*
X0161702Y0054345D01*
X0161761Y0054329D01*
X0161820Y0054316D01*
X0161879Y0054307D01*
X0161940Y0054302D01*
X0162000Y0054300D01*
X0169000Y0054300D02*
X0169060Y0054302D01*
X0169121Y0054307D01*
X0169180Y0054316D01*
X0169239Y0054329D01*
X0169298Y0054345D01*
X0169355Y0054365D01*
X0169410Y0054388D01*
X0169465Y0054415D01*
X0169517Y0054444D01*
X0169568Y0054477D01*
X0169617Y0054513D01*
X0169663Y0054551D01*
X0169707Y0054593D01*
X0169749Y0054637D01*
X0169787Y0054683D01*
X0169823Y0054732D01*
X0169856Y0054783D01*
X0169885Y0054835D01*
X0169912Y0054890D01*
X0169935Y0054945D01*
X0169955Y0055002D01*
X0169971Y0055061D01*
X0169984Y0055120D01*
X0169993Y0055179D01*
X0169998Y0055240D01*
X0170000Y0055300D01*
X0170000Y0056800D01*
X0171000Y0056800D02*
X0171000Y0055300D01*
X0171002Y0055240D01*
X0171007Y0055179D01*
X0171016Y0055120D01*
X0171029Y0055061D01*
X0171045Y0055002D01*
X0171065Y0054945D01*
X0171088Y0054890D01*
X0171115Y0054835D01*
X0171144Y0054783D01*
X0171177Y0054732D01*
X0171213Y0054683D01*
X0171251Y0054637D01*
X0171293Y0054593D01*
X0171337Y0054551D01*
X0171383Y0054513D01*
X0171432Y0054477D01*
X0171483Y0054444D01*
X0171535Y0054415D01*
X0171590Y0054388D01*
X0171645Y0054365D01*
X0171702Y0054345D01*
X0171761Y0054329D01*
X0171820Y0054316D01*
X0171879Y0054307D01*
X0171940Y0054302D01*
X0172000Y0054300D01*
X0179000Y0054300D02*
X0179060Y0054302D01*
X0179121Y0054307D01*
X0179180Y0054316D01*
X0179239Y0054329D01*
X0179298Y0054345D01*
X0179355Y0054365D01*
X0179410Y0054388D01*
X0179465Y0054415D01*
X0179517Y0054444D01*
X0179568Y0054477D01*
X0179617Y0054513D01*
X0179663Y0054551D01*
X0179707Y0054593D01*
X0179749Y0054637D01*
X0179787Y0054683D01*
X0179823Y0054732D01*
X0179856Y0054783D01*
X0179885Y0054835D01*
X0179912Y0054890D01*
X0179935Y0054945D01*
X0179955Y0055002D01*
X0179971Y0055061D01*
X0179984Y0055120D01*
X0179993Y0055179D01*
X0179998Y0055240D01*
X0180000Y0055300D01*
X0180000Y0056800D01*
X0183000Y0035800D02*
X0113000Y0035800D01*
X0113000Y0012800D01*
X0183000Y0012800D01*
X0183000Y0020300D01*
X0182874Y0020302D01*
X0182749Y0020308D01*
X0182624Y0020318D01*
X0182499Y0020332D01*
X0182374Y0020349D01*
X0182250Y0020371D01*
X0182127Y0020396D01*
X0182005Y0020426D01*
X0181884Y0020459D01*
X0181764Y0020496D01*
X0181645Y0020536D01*
X0181528Y0020581D01*
X0181411Y0020629D01*
X0181297Y0020681D01*
X0181184Y0020736D01*
X0181073Y0020795D01*
X0180964Y0020857D01*
X0180857Y0020923D01*
X0180752Y0020992D01*
X0180649Y0021064D01*
X0180548Y0021139D01*
X0180450Y0021218D01*
X0180355Y0021300D01*
X0180262Y0021384D01*
X0180172Y0021472D01*
X0180084Y0021562D01*
X0180000Y0021655D01*
X0179918Y0021750D01*
X0179839Y0021848D01*
X0179764Y0021949D01*
X0179692Y0022052D01*
X0179623Y0022157D01*
X0179557Y0022264D01*
X0179495Y0022373D01*
X0179436Y0022484D01*
X0179381Y0022597D01*
X0179329Y0022711D01*
X0179281Y0022828D01*
X0179236Y0022945D01*
X0179196Y0023064D01*
X0179159Y0023184D01*
X0179126Y0023305D01*
X0179096Y0023427D01*
X0179071Y0023550D01*
X0179049Y0023674D01*
X0179032Y0023799D01*
X0179018Y0023924D01*
X0179008Y0024049D01*
X0179002Y0024174D01*
X0179000Y0024300D01*
X0179002Y0024426D01*
X0179008Y0024551D01*
X0179018Y0024676D01*
X0179032Y0024801D01*
X0179049Y0024926D01*
X0179071Y0025050D01*
X0179096Y0025173D01*
X0179126Y0025295D01*
X0179159Y0025416D01*
X0179196Y0025536D01*
X0179236Y0025655D01*
X0179281Y0025772D01*
X0179329Y0025889D01*
X0179381Y0026003D01*
X0179436Y0026116D01*
X0179495Y0026227D01*
X0179557Y0026336D01*
X0179623Y0026443D01*
X0179692Y0026548D01*
X0179764Y0026651D01*
X0179839Y0026752D01*
X0179918Y0026850D01*
X0180000Y0026945D01*
X0180084Y0027038D01*
X0180172Y0027128D01*
X0180262Y0027216D01*
X0180355Y0027300D01*
X0180450Y0027382D01*
X0180548Y0027461D01*
X0180649Y0027536D01*
X0180752Y0027608D01*
X0180857Y0027677D01*
X0180964Y0027743D01*
X0181073Y0027805D01*
X0181184Y0027864D01*
X0181297Y0027919D01*
X0181411Y0027971D01*
X0181528Y0028019D01*
X0181645Y0028064D01*
X0181764Y0028104D01*
X0181884Y0028141D01*
X0182005Y0028174D01*
X0182127Y0028204D01*
X0182250Y0028229D01*
X0182374Y0028251D01*
X0182499Y0028268D01*
X0182624Y0028282D01*
X0182749Y0028292D01*
X0182874Y0028298D01*
X0183000Y0028300D01*
X0183702Y0034402D02*
X0183704Y0034489D01*
X0183710Y0034576D01*
X0183719Y0034663D01*
X0183732Y0034749D01*
X0183749Y0034835D01*
X0183770Y0034920D01*
X0183795Y0035003D01*
X0183823Y0035086D01*
X0183854Y0035167D01*
X0183889Y0035247D01*
X0183928Y0035325D01*
X0183970Y0035402D01*
X0184015Y0035477D01*
X0184064Y0035549D01*
X0184115Y0035620D01*
X0184170Y0035688D01*
X0184227Y0035753D01*
X0184288Y0035816D01*
X0184351Y0035877D01*
X0184416Y0035934D01*
X0184484Y0035989D01*
X0184555Y0036040D01*
X0184627Y0036089D01*
X0184702Y0036134D01*
X0184779Y0036176D01*
X0184857Y0036215D01*
X0184937Y0036250D01*
X0185018Y0036281D01*
X0185101Y0036309D01*
X0185184Y0036334D01*
X0185269Y0036355D01*
X0185355Y0036372D01*
X0185441Y0036385D01*
X0185528Y0036394D01*
X0185615Y0036400D01*
X0185702Y0036402D01*
X0190433Y0036251D02*
X0190520Y0036249D01*
X0190607Y0036243D01*
X0190694Y0036234D01*
X0190780Y0036221D01*
X0190866Y0036204D01*
X0190951Y0036183D01*
X0191034Y0036158D01*
X0191117Y0036130D01*
X0191198Y0036099D01*
X0191278Y0036064D01*
X0191356Y0036025D01*
X0191433Y0035983D01*
X0191508Y0035938D01*
X0191580Y0035889D01*
X0191651Y0035838D01*
X0191719Y0035783D01*
X0191784Y0035726D01*
X0191847Y0035665D01*
X0191908Y0035602D01*
X0191965Y0035537D01*
X0192020Y0035469D01*
X0192071Y0035398D01*
X0192120Y0035326D01*
X0192165Y0035251D01*
X0192207Y0035174D01*
X0192246Y0035096D01*
X0192281Y0035016D01*
X0192312Y0034935D01*
X0192340Y0034852D01*
X0192365Y0034769D01*
X0192386Y0034684D01*
X0192403Y0034598D01*
X0192416Y0034512D01*
X0192425Y0034425D01*
X0192431Y0034338D01*
X0192433Y0034251D01*
X0192331Y0014232D02*
X0192329Y0014145D01*
X0192323Y0014058D01*
X0192314Y0013971D01*
X0192301Y0013885D01*
X0192284Y0013799D01*
X0192263Y0013714D01*
X0192238Y0013631D01*
X0192210Y0013548D01*
X0192179Y0013467D01*
X0192144Y0013387D01*
X0192105Y0013309D01*
X0192063Y0013232D01*
X0192018Y0013157D01*
X0191969Y0013085D01*
X0191918Y0013014D01*
X0191863Y0012946D01*
X0191806Y0012881D01*
X0191745Y0012818D01*
X0191682Y0012757D01*
X0191617Y0012700D01*
X0191549Y0012645D01*
X0191478Y0012594D01*
X0191406Y0012545D01*
X0191331Y0012500D01*
X0191254Y0012458D01*
X0191176Y0012419D01*
X0191096Y0012384D01*
X0191015Y0012353D01*
X0190932Y0012325D01*
X0190849Y0012300D01*
X0190764Y0012279D01*
X0190678Y0012262D01*
X0190592Y0012249D01*
X0190505Y0012240D01*
X0190418Y0012234D01*
X0190331Y0012232D01*
X0185635Y0012299D02*
X0185548Y0012301D01*
X0185461Y0012307D01*
X0185374Y0012316D01*
X0185288Y0012329D01*
X0185202Y0012346D01*
X0185117Y0012367D01*
X0185034Y0012392D01*
X0184951Y0012420D01*
X0184870Y0012451D01*
X0184790Y0012486D01*
X0184712Y0012525D01*
X0184635Y0012567D01*
X0184560Y0012612D01*
X0184488Y0012661D01*
X0184417Y0012712D01*
X0184349Y0012767D01*
X0184284Y0012824D01*
X0184221Y0012885D01*
X0184160Y0012948D01*
X0184103Y0013013D01*
X0184048Y0013081D01*
X0183997Y0013152D01*
X0183948Y0013224D01*
X0183903Y0013299D01*
X0183861Y0013376D01*
X0183822Y0013454D01*
X0183787Y0013534D01*
X0183756Y0013615D01*
X0183728Y0013698D01*
X0183703Y0013781D01*
X0183682Y0013866D01*
X0183665Y0013952D01*
X0183652Y0014038D01*
X0183643Y0014125D01*
X0183637Y0014212D01*
X0183635Y0014299D01*
X0109798Y0014198D02*
X0109796Y0014111D01*
X0109790Y0014024D01*
X0109781Y0013937D01*
X0109768Y0013851D01*
X0109751Y0013765D01*
X0109730Y0013680D01*
X0109705Y0013597D01*
X0109677Y0013514D01*
X0109646Y0013433D01*
X0109611Y0013353D01*
X0109572Y0013275D01*
X0109530Y0013198D01*
X0109485Y0013123D01*
X0109436Y0013051D01*
X0109385Y0012980D01*
X0109330Y0012912D01*
X0109273Y0012847D01*
X0109212Y0012784D01*
X0109149Y0012723D01*
X0109084Y0012666D01*
X0109016Y0012611D01*
X0108945Y0012560D01*
X0108873Y0012511D01*
X0108798Y0012466D01*
X0108721Y0012424D01*
X0108643Y0012385D01*
X0108563Y0012350D01*
X0108482Y0012319D01*
X0108399Y0012291D01*
X0108316Y0012266D01*
X0108231Y0012245D01*
X0108145Y0012228D01*
X0108059Y0012215D01*
X0107972Y0012206D01*
X0107885Y0012200D01*
X0107798Y0012198D01*
X0103067Y0012349D02*
X0102980Y0012351D01*
X0102893Y0012357D01*
X0102806Y0012366D01*
X0102720Y0012379D01*
X0102634Y0012396D01*
X0102549Y0012417D01*
X0102466Y0012442D01*
X0102383Y0012470D01*
X0102302Y0012501D01*
X0102222Y0012536D01*
X0102144Y0012575D01*
X0102067Y0012617D01*
X0101992Y0012662D01*
X0101920Y0012711D01*
X0101849Y0012762D01*
X0101781Y0012817D01*
X0101716Y0012874D01*
X0101653Y0012935D01*
X0101592Y0012998D01*
X0101535Y0013063D01*
X0101480Y0013131D01*
X0101429Y0013202D01*
X0101380Y0013274D01*
X0101335Y0013349D01*
X0101293Y0013426D01*
X0101254Y0013504D01*
X0101219Y0013584D01*
X0101188Y0013665D01*
X0101160Y0013748D01*
X0101135Y0013831D01*
X0101114Y0013916D01*
X0101097Y0014002D01*
X0101084Y0014088D01*
X0101075Y0014175D01*
X0101069Y0014262D01*
X0101067Y0014349D01*
X0101169Y0034368D02*
X0101171Y0034455D01*
X0101177Y0034542D01*
X0101186Y0034629D01*
X0101199Y0034715D01*
X0101216Y0034801D01*
X0101237Y0034886D01*
X0101262Y0034969D01*
X0101290Y0035052D01*
X0101321Y0035133D01*
X0101356Y0035213D01*
X0101395Y0035291D01*
X0101437Y0035368D01*
X0101482Y0035443D01*
X0101531Y0035515D01*
X0101582Y0035586D01*
X0101637Y0035654D01*
X0101694Y0035719D01*
X0101755Y0035782D01*
X0101818Y0035843D01*
X0101883Y0035900D01*
X0101951Y0035955D01*
X0102022Y0036006D01*
X0102094Y0036055D01*
X0102169Y0036100D01*
X0102246Y0036142D01*
X0102324Y0036181D01*
X0102404Y0036216D01*
X0102485Y0036247D01*
X0102568Y0036275D01*
X0102651Y0036300D01*
X0102736Y0036321D01*
X0102822Y0036338D01*
X0102908Y0036351D01*
X0102995Y0036360D01*
X0103082Y0036366D01*
X0103169Y0036368D01*
X0107865Y0036301D02*
X0107952Y0036299D01*
X0108039Y0036293D01*
X0108126Y0036284D01*
X0108212Y0036271D01*
X0108298Y0036254D01*
X0108383Y0036233D01*
X0108466Y0036208D01*
X0108549Y0036180D01*
X0108630Y0036149D01*
X0108710Y0036114D01*
X0108788Y0036075D01*
X0108865Y0036033D01*
X0108940Y0035988D01*
X0109012Y0035939D01*
X0109083Y0035888D01*
X0109151Y0035833D01*
X0109216Y0035776D01*
X0109279Y0035715D01*
X0109340Y0035652D01*
X0109397Y0035587D01*
X0109452Y0035519D01*
X0109503Y0035448D01*
X0109552Y0035376D01*
X0109597Y0035301D01*
X0109639Y0035224D01*
X0109678Y0035146D01*
X0109713Y0035066D01*
X0109744Y0034985D01*
X0109772Y0034902D01*
X0109797Y0034819D01*
X0109818Y0034734D01*
X0109835Y0034648D01*
X0109848Y0034562D01*
X0109857Y0034475D01*
X0109863Y0034388D01*
X0109865Y0034301D01*
X0058000Y0031800D02*
X0058000Y0016800D01*
X0055500Y0014300D01*
X0058000Y0031800D02*
X0055500Y0034300D01*
D14*
X0044211Y0034860D02*
X0043794Y0034443D01*
X0042126Y0034443D01*
X0041709Y0034860D01*
X0041709Y0035694D01*
X0042126Y0036111D01*
X0042960Y0036111D02*
X0042960Y0035277D01*
X0042960Y0036111D02*
X0043794Y0036111D01*
X0044211Y0035694D01*
X0044211Y0034860D01*
X0044211Y0037205D02*
X0041709Y0037205D01*
X0044211Y0038873D01*
X0041709Y0038873D01*
X0041709Y0039967D02*
X0041709Y0041218D01*
X0042126Y0041635D01*
X0043794Y0041635D01*
X0044211Y0041218D01*
X0044211Y0039967D01*
X0041709Y0039967D01*
X0034284Y0040075D02*
X0034284Y0041326D01*
X0033867Y0041743D01*
X0032199Y0041743D01*
X0031782Y0041326D01*
X0031782Y0040075D01*
X0034284Y0040075D01*
X0034284Y0038980D02*
X0031782Y0038980D01*
X0031782Y0037312D02*
X0034284Y0038980D01*
X0034284Y0037312D02*
X0031782Y0037312D01*
X0032199Y0036218D02*
X0031782Y0035801D01*
X0031782Y0034967D01*
X0032199Y0034550D01*
X0033867Y0034550D01*
X0034284Y0034967D01*
X0034284Y0035801D01*
X0033867Y0036218D01*
X0033033Y0036218D01*
X0033033Y0035384D01*
X0024357Y0035074D02*
X0024357Y0035908D01*
X0023940Y0036326D01*
X0023106Y0036326D01*
X0023106Y0035491D01*
X0022272Y0034657D02*
X0023940Y0034657D01*
X0024357Y0035074D01*
X0022272Y0034657D02*
X0021855Y0035074D01*
X0021855Y0035908D01*
X0022272Y0036326D01*
X0021855Y0037420D02*
X0024357Y0039088D01*
X0021855Y0039088D01*
X0021855Y0040182D02*
X0021855Y0041433D01*
X0022272Y0041850D01*
X0023940Y0041850D01*
X0024357Y0041433D01*
X0024357Y0040182D01*
X0021855Y0040182D01*
X0021855Y0037420D02*
X0024357Y0037420D01*
X0125192Y0063173D02*
X0125859Y0062506D01*
X0125192Y0063173D02*
X0125192Y0064507D01*
X0125859Y0065175D01*
X0126526Y0065175D01*
X0129195Y0062506D01*
X0129195Y0065175D01*
X0129195Y0066649D02*
X0126526Y0069318D01*
X0125859Y0069318D01*
X0125192Y0068651D01*
X0125192Y0067316D01*
X0125859Y0066649D01*
X0129195Y0066649D02*
X0129195Y0069318D01*
X0128528Y0070793D02*
X0125859Y0070793D01*
X0125192Y0071460D01*
X0125192Y0072795D01*
X0125859Y0073462D01*
X0128528Y0070793D01*
X0129195Y0071460D01*
X0129195Y0072795D01*
X0128528Y0073462D01*
X0125859Y0073462D01*
X0125192Y0074936D02*
X0125192Y0076938D01*
X0125859Y0077605D01*
X0127194Y0077605D01*
X0127861Y0076938D01*
X0127861Y0074936D01*
X0129195Y0074936D02*
X0125192Y0074936D01*
X0127861Y0076271D02*
X0129195Y0077605D01*
X0136526Y0076938D02*
X0137194Y0076271D01*
X0139195Y0076271D01*
X0139195Y0077605D02*
X0137194Y0077605D01*
X0136526Y0076938D01*
X0137194Y0076271D02*
X0136526Y0075604D01*
X0136526Y0074936D01*
X0139195Y0074936D01*
X0139195Y0073462D02*
X0139195Y0070793D01*
X0139195Y0072127D02*
X0135192Y0072127D01*
X0136526Y0070793D01*
X0145192Y0072151D02*
X0145859Y0071483D01*
X0145192Y0072151D02*
X0145192Y0073485D01*
X0145859Y0074152D01*
X0146526Y0074152D01*
X0149195Y0071483D01*
X0149195Y0074152D01*
X0149195Y0075627D02*
X0145192Y0075627D01*
X0146526Y0077629D02*
X0147861Y0075627D01*
X0149195Y0077629D01*
X0155192Y0075627D02*
X0159195Y0075627D01*
X0157861Y0075627D02*
X0156526Y0077629D01*
X0157861Y0075627D02*
X0159195Y0077629D01*
X0159195Y0074152D02*
X0159195Y0071483D01*
X0156526Y0074152D01*
X0155859Y0074152D01*
X0155192Y0073485D01*
X0155192Y0072151D01*
X0155859Y0071483D01*
X0158528Y0070079D02*
X0158528Y0069412D01*
X0159195Y0069412D01*
X0159195Y0070079D01*
X0158528Y0070079D01*
X0159195Y0067937D02*
X0159195Y0065268D01*
X0156526Y0067937D01*
X0155859Y0067937D01*
X0155192Y0067270D01*
X0155192Y0065935D01*
X0155859Y0065268D01*
X0149195Y0065268D02*
X0146526Y0067937D01*
X0145859Y0067937D01*
X0145192Y0067270D01*
X0145192Y0065935D01*
X0145859Y0065268D01*
X0149195Y0065268D02*
X0149195Y0067937D01*
X0149195Y0069412D02*
X0149195Y0070079D01*
X0148528Y0070079D01*
X0148528Y0069412D01*
X0149195Y0069412D01*
X0165192Y0068674D02*
X0169195Y0068674D01*
X0169195Y0067340D02*
X0169195Y0070009D01*
X0168528Y0071483D02*
X0165859Y0074152D01*
X0168528Y0074152D01*
X0169195Y0073485D01*
X0169195Y0072151D01*
X0168528Y0071483D01*
X0165859Y0071483D01*
X0165192Y0072151D01*
X0165192Y0073485D01*
X0165859Y0074152D01*
X0165192Y0075627D02*
X0169195Y0075627D01*
X0167861Y0075627D02*
X0166526Y0077629D01*
X0167861Y0075627D02*
X0169195Y0077629D01*
X0175192Y0075627D02*
X0179195Y0075627D01*
X0177861Y0075627D02*
X0176526Y0077629D01*
X0177861Y0075627D02*
X0179195Y0077629D01*
X0178528Y0074152D02*
X0177861Y0074152D01*
X0177194Y0073485D01*
X0177194Y0071483D01*
X0178528Y0071483D01*
X0179195Y0072151D01*
X0179195Y0073485D01*
X0178528Y0074152D01*
X0175859Y0072818D02*
X0177194Y0071483D01*
X0177194Y0070009D02*
X0178528Y0070009D01*
X0179195Y0069342D01*
X0179195Y0068007D01*
X0178528Y0067340D01*
X0177194Y0067340D02*
X0176526Y0068674D01*
X0176526Y0069342D01*
X0177194Y0070009D01*
X0175192Y0070009D02*
X0175192Y0067340D01*
X0177194Y0067340D01*
X0175859Y0072818D02*
X0175192Y0074152D01*
X0166526Y0067340D02*
X0165192Y0068674D01*
X0176040Y0093105D02*
X0178709Y0095774D01*
X0178709Y0096441D01*
X0178042Y0097108D01*
X0176707Y0097108D01*
X0176040Y0096441D01*
X0180183Y0096441D02*
X0180851Y0097108D01*
X0182185Y0097108D01*
X0182852Y0096441D01*
X0182852Y0095774D01*
X0180183Y0093105D01*
X0182852Y0093105D01*
X0184327Y0093105D02*
X0184327Y0097108D01*
X0186329Y0095774D02*
X0184327Y0094439D01*
X0186329Y0093105D01*
X0178709Y0093105D02*
X0176040Y0093105D01*
X0176637Y0103105D02*
X0173968Y0103105D01*
X0176637Y0105774D01*
X0176637Y0106441D01*
X0175970Y0107108D01*
X0174635Y0107108D01*
X0173968Y0106441D01*
X0178112Y0103772D02*
X0178779Y0103772D01*
X0178779Y0103105D01*
X0178112Y0103105D01*
X0178112Y0103772D01*
X0180183Y0103105D02*
X0182852Y0105774D01*
X0182852Y0106441D01*
X0182185Y0107108D01*
X0180851Y0107108D01*
X0180183Y0106441D01*
X0180183Y0103105D02*
X0182852Y0103105D01*
X0184327Y0103105D02*
X0184327Y0107108D01*
X0186329Y0105774D02*
X0184327Y0104439D01*
X0186329Y0103105D01*
X0141320Y0099832D02*
X0141320Y0098497D01*
X0140652Y0097830D01*
X0138651Y0097830D01*
X0139985Y0097830D02*
X0141320Y0096495D01*
X0138651Y0096495D02*
X0138651Y0100499D01*
X0140652Y0100499D01*
X0141320Y0099832D01*
X0137176Y0099832D02*
X0137176Y0097163D01*
X0136509Y0096495D01*
X0135174Y0096495D01*
X0134507Y0097163D01*
X0137176Y0099832D01*
X0136509Y0100499D01*
X0135174Y0100499D01*
X0134507Y0099832D01*
X0134507Y0097163D01*
X0133033Y0096495D02*
X0130364Y0096495D01*
X0133033Y0099164D01*
X0133033Y0099832D01*
X0132365Y0100499D01*
X0131031Y0100499D01*
X0130364Y0099832D01*
X0128889Y0099832D02*
X0128889Y0099164D01*
X0126220Y0096495D01*
X0128889Y0096495D01*
X0128889Y0099832D02*
X0128222Y0100499D01*
X0126887Y0100499D01*
X0126220Y0099832D01*
X0126220Y0106495D02*
X0128889Y0106495D01*
X0127555Y0106495D02*
X0127555Y0110499D01*
X0126220Y0109164D01*
X0130364Y0109832D02*
X0130364Y0107163D01*
X0133033Y0109832D01*
X0133033Y0107163D01*
X0132365Y0106495D01*
X0131031Y0106495D01*
X0130364Y0107163D01*
X0130364Y0109832D02*
X0131031Y0110499D01*
X0132365Y0110499D01*
X0133033Y0109832D01*
X0134507Y0109832D02*
X0135174Y0110499D01*
X0136509Y0110499D01*
X0137176Y0109832D01*
X0134507Y0107163D01*
X0135174Y0106495D01*
X0136509Y0106495D01*
X0137176Y0107163D01*
X0137176Y0109832D01*
X0138651Y0110499D02*
X0138651Y0106495D01*
X0138651Y0107830D02*
X0140652Y0109164D01*
X0138651Y0107830D02*
X0140652Y0106495D01*
X0134507Y0107163D02*
X0134507Y0109832D01*
X0118452Y0110300D02*
X0116873Y0110300D01*
X0116246Y0115800D02*
X0099754Y0115800D01*
X0099127Y0110300D02*
X0097548Y0110300D01*
X0106873Y0110300D02*
X0109127Y0110300D01*
X0116246Y0115800D02*
X0116399Y0115601D01*
X0116547Y0115399D01*
X0116690Y0115194D01*
X0116828Y0114985D01*
X0116961Y0114773D01*
X0117089Y0114558D01*
X0117211Y0114340D01*
X0117329Y0114119D01*
X0117441Y0113895D01*
X0117548Y0113669D01*
X0117649Y0113440D01*
X0117745Y0113209D01*
X0117836Y0112975D01*
X0117921Y0112740D01*
X0118000Y0112502D01*
X0118073Y0112263D01*
X0118141Y0112022D01*
X0118203Y0111780D01*
X0118259Y0111536D01*
X0118310Y0111290D01*
X0118354Y0111044D01*
X0118393Y0110797D01*
X0118425Y0110549D01*
X0118452Y0110300D01*
X0118474Y0110045D01*
X0118489Y0109789D01*
X0118497Y0109533D01*
X0118500Y0109276D01*
X0118496Y0109020D01*
X0118486Y0108764D01*
X0118470Y0108508D01*
X0118448Y0108253D01*
X0118419Y0107998D01*
X0118384Y0107744D01*
X0118343Y0107491D01*
X0118296Y0107239D01*
X0118242Y0106989D01*
X0118183Y0106740D01*
X0118117Y0106492D01*
X0118046Y0106246D01*
X0117968Y0106001D01*
X0117885Y0105759D01*
X0117796Y0105519D01*
X0117700Y0105281D01*
X0117599Y0105045D01*
X0117493Y0104812D01*
X0117380Y0104582D01*
X0117262Y0104354D01*
X0117139Y0104130D01*
X0117010Y0103908D01*
X0116876Y0103690D01*
X0116736Y0103475D01*
X0116591Y0103264D01*
X0116441Y0103056D01*
X0116287Y0102852D01*
X0116127Y0102651D01*
X0115962Y0102455D01*
X0115793Y0102263D01*
X0115618Y0102074D01*
X0115440Y0101891D01*
X0115257Y0101711D01*
X0115069Y0101536D01*
X0114878Y0101366D01*
X0114682Y0101201D01*
X0114482Y0101040D01*
X0114279Y0100884D01*
X0114072Y0100734D01*
X0113861Y0100588D01*
X0113646Y0100447D01*
X0113429Y0100312D01*
X0113208Y0100182D01*
X0112984Y0100058D01*
X0112757Y0099939D01*
X0112527Y0099826D01*
X0112294Y0099718D01*
X0112059Y0099616D01*
X0111821Y0099520D01*
X0111582Y0099430D01*
X0111340Y0099345D01*
X0111096Y0099267D01*
X0104904Y0099267D02*
X0104662Y0099345D01*
X0104422Y0099429D01*
X0104184Y0099518D01*
X0103948Y0099613D01*
X0103714Y0099715D01*
X0103483Y0099821D01*
X0103255Y0099934D01*
X0103029Y0100051D01*
X0102806Y0100174D01*
X0102587Y0100303D01*
X0102370Y0100437D01*
X0102157Y0100576D01*
X0101947Y0100720D01*
X0101741Y0100869D01*
X0101539Y0101023D01*
X0101340Y0101182D01*
X0101145Y0101346D01*
X0100954Y0101515D01*
X0100768Y0101688D01*
X0100585Y0101865D01*
X0100407Y0102047D01*
X0100234Y0102233D01*
X0100065Y0102424D01*
X0099901Y0102618D01*
X0099741Y0102816D01*
X0099586Y0103018D01*
X0099437Y0103224D01*
X0099292Y0103433D01*
X0099152Y0103646D01*
X0099018Y0103862D01*
X0098889Y0104082D01*
X0098765Y0104304D01*
X0098646Y0104529D01*
X0098534Y0104757D01*
X0098426Y0104988D01*
X0098325Y0105221D01*
X0098229Y0105457D01*
X0098138Y0105695D01*
X0098054Y0105935D01*
X0097975Y0106177D01*
X0097902Y0106421D01*
X0097836Y0106667D01*
X0097775Y0106914D01*
X0097720Y0107162D01*
X0097671Y0107412D01*
X0097628Y0107663D01*
X0097592Y0107915D01*
X0097561Y0108167D01*
X0097537Y0108421D01*
X0097519Y0108674D01*
X0097507Y0108929D01*
X0097501Y0109183D01*
X0097501Y0109438D01*
X0097507Y0109692D01*
X0097520Y0109946D01*
X0097539Y0110200D01*
X0097564Y0110453D01*
X0097595Y0110706D01*
X0097632Y0110958D01*
X0097675Y0111208D01*
X0097724Y0111458D01*
X0097780Y0111707D01*
X0097841Y0111954D01*
X0097908Y0112199D01*
X0097981Y0112443D01*
X0098060Y0112685D01*
X0098145Y0112924D01*
X0098236Y0113162D01*
X0098333Y0113398D01*
X0098435Y0113631D01*
X0098543Y0113861D01*
X0098656Y0114089D01*
X0098775Y0114314D01*
X0098899Y0114536D01*
X0099029Y0114755D01*
X0099163Y0114971D01*
X0099303Y0115184D01*
X0099449Y0115393D01*
X0099599Y0115598D01*
X0099754Y0115800D01*
X0183000Y0035800D02*
X0183000Y0028300D01*
X0174149Y0025299D02*
X0171146Y0025299D01*
X0168794Y0026050D02*
X0168794Y0030554D01*
X0166542Y0028302D01*
X0169545Y0028302D01*
X0164941Y0029803D02*
X0164941Y0030554D01*
X0161938Y0030554D01*
X0160337Y0029803D02*
X0157334Y0026801D01*
X0158085Y0026050D01*
X0159586Y0026050D01*
X0160337Y0026801D01*
X0160337Y0029803D01*
X0159586Y0030554D01*
X0158085Y0030554D01*
X0157334Y0029803D01*
X0157334Y0026801D01*
X0155733Y0026050D02*
X0152730Y0026050D01*
X0152730Y0030554D01*
X0151129Y0030554D02*
X0148126Y0030554D01*
X0149628Y0030554D02*
X0149628Y0026050D01*
X0161938Y0026050D02*
X0161938Y0026801D01*
X0164941Y0029803D01*
X0166542Y0020554D02*
X0166542Y0016801D01*
X0167293Y0016050D01*
X0168794Y0016050D01*
X0169545Y0016801D01*
X0169545Y0020554D01*
X0171146Y0019053D02*
X0172647Y0020554D01*
X0172647Y0016050D01*
X0171146Y0016050D02*
X0174149Y0016050D01*
D15*
X0093000Y0087800D03*
D16*
X0093000Y0084050D03*
X0093000Y0104550D03*
D17*
X0101000Y0092300D02*
X0105000Y0092300D01*
X0098157Y0086800D02*
X0098160Y0087042D01*
X0098169Y0087283D01*
X0098184Y0087524D01*
X0098204Y0087765D01*
X0098231Y0088005D01*
X0098264Y0088244D01*
X0098302Y0088483D01*
X0098346Y0088720D01*
X0098396Y0088957D01*
X0098452Y0089192D01*
X0098514Y0089425D01*
X0098581Y0089657D01*
X0098654Y0089888D01*
X0098732Y0090116D01*
X0098817Y0090342D01*
X0098906Y0090567D01*
X0099001Y0090789D01*
X0099102Y0091008D01*
X0099208Y0091226D01*
X0099319Y0091440D01*
X0099436Y0091652D01*
X0099557Y0091860D01*
X0099684Y0092066D01*
X0099816Y0092268D01*
X0099953Y0092468D01*
X0100094Y0092663D01*
X0100240Y0092856D01*
X0100391Y0093044D01*
X0100547Y0093229D01*
X0100707Y0093410D01*
X0100871Y0093587D01*
X0101040Y0093760D01*
X0101213Y0093929D01*
X0101390Y0094093D01*
X0101571Y0094253D01*
X0101756Y0094409D01*
X0101944Y0094560D01*
X0102137Y0094706D01*
X0102332Y0094847D01*
X0102532Y0094984D01*
X0102734Y0095116D01*
X0102940Y0095243D01*
X0103148Y0095364D01*
X0103360Y0095481D01*
X0103574Y0095592D01*
X0103792Y0095698D01*
X0104011Y0095799D01*
X0104233Y0095894D01*
X0104458Y0095983D01*
X0104684Y0096068D01*
X0104912Y0096146D01*
X0105143Y0096219D01*
X0105375Y0096286D01*
X0105608Y0096348D01*
X0105843Y0096404D01*
X0106080Y0096454D01*
X0106317Y0096498D01*
X0106556Y0096536D01*
X0106795Y0096569D01*
X0107035Y0096596D01*
X0107276Y0096616D01*
X0107517Y0096631D01*
X0107758Y0096640D01*
X0108000Y0096643D01*
X0108242Y0096640D01*
X0108483Y0096631D01*
X0108724Y0096616D01*
X0108965Y0096596D01*
X0109205Y0096569D01*
X0109444Y0096536D01*
X0109683Y0096498D01*
X0109920Y0096454D01*
X0110157Y0096404D01*
X0110392Y0096348D01*
X0110625Y0096286D01*
X0110857Y0096219D01*
X0111088Y0096146D01*
X0111316Y0096068D01*
X0111542Y0095983D01*
X0111767Y0095894D01*
X0111989Y0095799D01*
X0112208Y0095698D01*
X0112426Y0095592D01*
X0112640Y0095481D01*
X0112852Y0095364D01*
X0113060Y0095243D01*
X0113266Y0095116D01*
X0113468Y0094984D01*
X0113668Y0094847D01*
X0113863Y0094706D01*
X0114056Y0094560D01*
X0114244Y0094409D01*
X0114429Y0094253D01*
X0114610Y0094093D01*
X0114787Y0093929D01*
X0114960Y0093760D01*
X0115129Y0093587D01*
X0115293Y0093410D01*
X0115453Y0093229D01*
X0115609Y0093044D01*
X0115760Y0092856D01*
X0115906Y0092663D01*
X0116047Y0092468D01*
X0116184Y0092268D01*
X0116316Y0092066D01*
X0116443Y0091860D01*
X0116564Y0091652D01*
X0116681Y0091440D01*
X0116792Y0091226D01*
X0116898Y0091008D01*
X0116999Y0090789D01*
X0117094Y0090567D01*
X0117183Y0090342D01*
X0117268Y0090116D01*
X0117346Y0089888D01*
X0117419Y0089657D01*
X0117486Y0089425D01*
X0117548Y0089192D01*
X0117604Y0088957D01*
X0117654Y0088720D01*
X0117698Y0088483D01*
X0117736Y0088244D01*
X0117769Y0088005D01*
X0117796Y0087765D01*
X0117816Y0087524D01*
X0117831Y0087283D01*
X0117840Y0087042D01*
X0117843Y0086800D01*
X0117840Y0086558D01*
X0117831Y0086317D01*
X0117816Y0086076D01*
X0117796Y0085835D01*
X0117769Y0085595D01*
X0117736Y0085356D01*
X0117698Y0085117D01*
X0117654Y0084880D01*
X0117604Y0084643D01*
X0117548Y0084408D01*
X0117486Y0084175D01*
X0117419Y0083943D01*
X0117346Y0083712D01*
X0117268Y0083484D01*
X0117183Y0083258D01*
X0117094Y0083033D01*
X0116999Y0082811D01*
X0116898Y0082592D01*
X0116792Y0082374D01*
X0116681Y0082160D01*
X0116564Y0081948D01*
X0116443Y0081740D01*
X0116316Y0081534D01*
X0116184Y0081332D01*
X0116047Y0081132D01*
X0115906Y0080937D01*
X0115760Y0080744D01*
X0115609Y0080556D01*
X0115453Y0080371D01*
X0115293Y0080190D01*
X0115129Y0080013D01*
X0114960Y0079840D01*
X0114787Y0079671D01*
X0114610Y0079507D01*
X0114429Y0079347D01*
X0114244Y0079191D01*
X0114056Y0079040D01*
X0113863Y0078894D01*
X0113668Y0078753D01*
X0113468Y0078616D01*
X0113266Y0078484D01*
X0113060Y0078357D01*
X0112852Y0078236D01*
X0112640Y0078119D01*
X0112426Y0078008D01*
X0112208Y0077902D01*
X0111989Y0077801D01*
X0111767Y0077706D01*
X0111542Y0077617D01*
X0111316Y0077532D01*
X0111088Y0077454D01*
X0110857Y0077381D01*
X0110625Y0077314D01*
X0110392Y0077252D01*
X0110157Y0077196D01*
X0109920Y0077146D01*
X0109683Y0077102D01*
X0109444Y0077064D01*
X0109205Y0077031D01*
X0108965Y0077004D01*
X0108724Y0076984D01*
X0108483Y0076969D01*
X0108242Y0076960D01*
X0108000Y0076957D01*
X0107758Y0076960D01*
X0107517Y0076969D01*
X0107276Y0076984D01*
X0107035Y0077004D01*
X0106795Y0077031D01*
X0106556Y0077064D01*
X0106317Y0077102D01*
X0106080Y0077146D01*
X0105843Y0077196D01*
X0105608Y0077252D01*
X0105375Y0077314D01*
X0105143Y0077381D01*
X0104912Y0077454D01*
X0104684Y0077532D01*
X0104458Y0077617D01*
X0104233Y0077706D01*
X0104011Y0077801D01*
X0103792Y0077902D01*
X0103574Y0078008D01*
X0103360Y0078119D01*
X0103148Y0078236D01*
X0102940Y0078357D01*
X0102734Y0078484D01*
X0102532Y0078616D01*
X0102332Y0078753D01*
X0102137Y0078894D01*
X0101944Y0079040D01*
X0101756Y0079191D01*
X0101571Y0079347D01*
X0101390Y0079507D01*
X0101213Y0079671D01*
X0101040Y0079840D01*
X0100871Y0080013D01*
X0100707Y0080190D01*
X0100547Y0080371D01*
X0100391Y0080556D01*
X0100240Y0080744D01*
X0100094Y0080937D01*
X0099953Y0081132D01*
X0099816Y0081332D01*
X0099684Y0081534D01*
X0099557Y0081740D01*
X0099436Y0081948D01*
X0099319Y0082160D01*
X0099208Y0082374D01*
X0099102Y0082592D01*
X0099001Y0082811D01*
X0098906Y0083033D01*
X0098817Y0083258D01*
X0098732Y0083484D01*
X0098654Y0083712D01*
X0098581Y0083943D01*
X0098514Y0084175D01*
X0098452Y0084408D01*
X0098396Y0084643D01*
X0098346Y0084880D01*
X0098302Y0085117D01*
X0098264Y0085356D01*
X0098231Y0085595D01*
X0098204Y0085835D01*
X0098184Y0086076D01*
X0098169Y0086317D01*
X0098160Y0086558D01*
X0098157Y0086800D01*
D18*
X0104550Y0093100D02*
X0104800Y0092850D01*
X0105301Y0092850D01*
X0105551Y0093100D01*
X0106023Y0093100D02*
X0106273Y0092850D01*
X0106774Y0092850D01*
X0107024Y0093100D01*
X0107024Y0093350D01*
X0106774Y0093601D01*
X0106524Y0093601D01*
X0106774Y0093601D02*
X0107024Y0093851D01*
X0107024Y0094101D01*
X0106774Y0094351D01*
X0106273Y0094351D01*
X0106023Y0094101D01*
X0105551Y0094101D02*
X0105301Y0094351D01*
X0104800Y0094351D01*
X0104550Y0094101D01*
X0104550Y0093100D01*
D19*
X0105002Y0083153D02*
X0103150Y0081302D01*
X0105619Y0081302D01*
X0106833Y0080067D02*
X0107450Y0080067D01*
X0107450Y0079450D01*
X0106833Y0079450D01*
X0106833Y0080067D01*
X0108675Y0080067D02*
X0108675Y0079450D01*
X0108675Y0080067D02*
X0111143Y0082536D01*
X0111143Y0083153D01*
X0108675Y0083153D01*
X0105002Y0083153D02*
X0105002Y0079450D01*
X0112358Y0080067D02*
X0112975Y0079450D01*
X0114827Y0079450D01*
X0114827Y0081919D01*
X0116041Y0081302D02*
X0117275Y0081302D01*
X0116658Y0082536D02*
X0116658Y0079450D01*
X0116658Y0082536D02*
X0117275Y0083153D01*
X0112358Y0081919D02*
X0112358Y0080067D01*
X0063853Y0031650D02*
X0060650Y0031650D01*
X0061718Y0031650D02*
X0061718Y0030049D01*
X0062251Y0029515D01*
X0063319Y0029515D01*
X0063853Y0030049D01*
X0063853Y0031650D01*
X0063319Y0028427D02*
X0061184Y0028427D01*
X0060650Y0027893D01*
X0060650Y0026826D01*
X0061184Y0026292D01*
X0063319Y0026292D01*
X0063853Y0026826D01*
X0063853Y0027893D01*
X0063319Y0028427D01*
X0063853Y0025205D02*
X0060650Y0025205D01*
X0061718Y0024137D01*
X0060650Y0023069D01*
X0063853Y0023069D01*
X0063853Y0021982D02*
X0060650Y0021982D01*
X0060650Y0019847D01*
X0060650Y0018759D02*
X0063853Y0018759D01*
X0063853Y0017158D01*
X0063319Y0016624D01*
X0062251Y0016624D01*
X0061718Y0017158D01*
X0061718Y0018759D01*
X0061718Y0017691D02*
X0060650Y0016624D01*
X0063853Y0019847D02*
X0063853Y0021982D01*
X0062251Y0021982D02*
X0062251Y0020914D01*
D20*
X0053039Y0034946D02*
X0053039Y0038349D01*
X0051337Y0036647D02*
X0054740Y0036647D01*
X0012997Y0038153D02*
X0012997Y0034750D01*
M02*
