G75*
%MOIN*%
%OFA0B0*%
%FSLAX25Y25*%
%IPPOS*%
%LPD*%
%AMOC8*
5,1,8,0,0,1.08239X$1,22.5*
%
%ADD10R,0.06500X0.06500*%
%ADD11C,0.06500*%
%ADD12C,0.00960*%
%ADD13C,0.06600*%
%ADD14OC8,0.04800*%
%ADD15C,0.11811*%
%ADD16OC8,0.07400*%
%ADD17C,0.13000*%
%ADD18C,0.04134*%
%ADD19C,0.04800*%
%ADD20R,0.05315X0.05315*%
%ADD21C,0.05315*%
%ADD22C,0.07400*%
%ADD23C,0.01600*%
%ADD24C,0.02400*%
D10*
X0084300Y0089300D03*
X0106800Y0089300D03*
D11*
X0116800Y0089300D03*
X0094300Y0089300D03*
D12*
X0129628Y0112596D02*
X0129148Y0113076D01*
X0130738Y0113076D01*
X0131862Y0111952D01*
X0131862Y0110362D01*
X0130738Y0109238D01*
X0129148Y0109238D01*
X0128024Y0110362D01*
X0128024Y0111952D01*
X0129148Y0113076D01*
X0129446Y0112356D01*
X0130440Y0112356D01*
X0131142Y0111654D01*
X0131142Y0110660D01*
X0130440Y0109958D01*
X0129446Y0109958D01*
X0128744Y0110660D01*
X0128744Y0111654D01*
X0129446Y0112356D01*
X0129744Y0111636D01*
X0130142Y0111636D01*
X0130422Y0111356D01*
X0130422Y0110958D01*
X0130142Y0110678D01*
X0129744Y0110678D01*
X0129464Y0110958D01*
X0129464Y0111356D01*
X0129744Y0111636D01*
X0158378Y0113846D02*
X0157898Y0114326D01*
X0159488Y0114326D01*
X0160612Y0113202D01*
X0160612Y0111612D01*
X0159488Y0110488D01*
X0157898Y0110488D01*
X0156774Y0111612D01*
X0156774Y0113202D01*
X0157898Y0114326D01*
X0158196Y0113606D01*
X0159190Y0113606D01*
X0159892Y0112904D01*
X0159892Y0111910D01*
X0159190Y0111208D01*
X0158196Y0111208D01*
X0157494Y0111910D01*
X0157494Y0112904D01*
X0158196Y0113606D01*
X0158494Y0112886D01*
X0158892Y0112886D01*
X0159172Y0112606D01*
X0159172Y0112208D01*
X0158892Y0111928D01*
X0158494Y0111928D01*
X0158214Y0112208D01*
X0158214Y0112606D01*
X0158494Y0112886D01*
X0173378Y0113846D02*
X0172898Y0114326D01*
X0174488Y0114326D01*
X0175612Y0113202D01*
X0175612Y0111612D01*
X0174488Y0110488D01*
X0172898Y0110488D01*
X0171774Y0111612D01*
X0171774Y0113202D01*
X0172898Y0114326D01*
X0173196Y0113606D01*
X0174190Y0113606D01*
X0174892Y0112904D01*
X0174892Y0111910D01*
X0174190Y0111208D01*
X0173196Y0111208D01*
X0172494Y0111910D01*
X0172494Y0112904D01*
X0173196Y0113606D01*
X0173494Y0112886D01*
X0173892Y0112886D01*
X0174172Y0112606D01*
X0174172Y0112208D01*
X0173892Y0111928D01*
X0173494Y0111928D01*
X0173214Y0112208D01*
X0173214Y0112606D01*
X0173494Y0112886D01*
X0191914Y0112810D02*
X0191434Y0113290D01*
X0193024Y0113290D01*
X0194148Y0112166D01*
X0194148Y0110576D01*
X0193024Y0109452D01*
X0191434Y0109452D01*
X0190310Y0110576D01*
X0190310Y0112166D01*
X0191434Y0113290D01*
X0191732Y0112570D01*
X0192726Y0112570D01*
X0193428Y0111868D01*
X0193428Y0110874D01*
X0192726Y0110172D01*
X0191732Y0110172D01*
X0191030Y0110874D01*
X0191030Y0111868D01*
X0191732Y0112570D01*
X0192030Y0111850D01*
X0192428Y0111850D01*
X0192708Y0111570D01*
X0192708Y0111172D01*
X0192428Y0110892D01*
X0192030Y0110892D01*
X0191750Y0111172D01*
X0191750Y0111570D01*
X0192030Y0111850D01*
X0206056Y0098668D02*
X0205576Y0099148D01*
X0207166Y0099148D01*
X0208290Y0098024D01*
X0208290Y0096434D01*
X0207166Y0095310D01*
X0205576Y0095310D01*
X0204452Y0096434D01*
X0204452Y0098024D01*
X0205576Y0099148D01*
X0205874Y0098428D01*
X0206868Y0098428D01*
X0207570Y0097726D01*
X0207570Y0096732D01*
X0206868Y0096030D01*
X0205874Y0096030D01*
X0205172Y0096732D01*
X0205172Y0097726D01*
X0205874Y0098428D01*
X0206172Y0097708D01*
X0206570Y0097708D01*
X0206850Y0097428D01*
X0206850Y0097030D01*
X0206570Y0096750D01*
X0206172Y0096750D01*
X0205892Y0097030D01*
X0205892Y0097428D01*
X0206172Y0097708D01*
X0194592Y0092632D02*
X0194112Y0093112D01*
X0195702Y0093112D01*
X0196826Y0091988D01*
X0196826Y0090398D01*
X0195702Y0089274D01*
X0194112Y0089274D01*
X0192988Y0090398D01*
X0192988Y0091988D01*
X0194112Y0093112D01*
X0194410Y0092392D01*
X0195404Y0092392D01*
X0196106Y0091690D01*
X0196106Y0090696D01*
X0195404Y0089994D01*
X0194410Y0089994D01*
X0193708Y0090696D01*
X0193708Y0091690D01*
X0194410Y0092392D01*
X0194708Y0091672D01*
X0195106Y0091672D01*
X0195386Y0091392D01*
X0195386Y0090994D01*
X0195106Y0090714D01*
X0194708Y0090714D01*
X0194428Y0090994D01*
X0194428Y0091392D01*
X0194708Y0091672D01*
X0179592Y0092632D02*
X0179112Y0093112D01*
X0180702Y0093112D01*
X0181826Y0091988D01*
X0181826Y0090398D01*
X0180702Y0089274D01*
X0179112Y0089274D01*
X0177988Y0090398D01*
X0177988Y0091988D01*
X0179112Y0093112D01*
X0179410Y0092392D01*
X0180404Y0092392D01*
X0181106Y0091690D01*
X0181106Y0090696D01*
X0180404Y0089994D01*
X0179410Y0089994D01*
X0178708Y0090696D01*
X0178708Y0091690D01*
X0179410Y0092392D01*
X0179708Y0091672D01*
X0180106Y0091672D01*
X0180386Y0091392D01*
X0180386Y0090994D01*
X0180106Y0090714D01*
X0179708Y0090714D01*
X0179428Y0090994D01*
X0179428Y0091392D01*
X0179708Y0091672D01*
X0150842Y0091382D02*
X0150362Y0091862D01*
X0151952Y0091862D01*
X0153076Y0090738D01*
X0153076Y0089148D01*
X0151952Y0088024D01*
X0150362Y0088024D01*
X0149238Y0089148D01*
X0149238Y0090738D01*
X0150362Y0091862D01*
X0150660Y0091142D01*
X0151654Y0091142D01*
X0152356Y0090440D01*
X0152356Y0089446D01*
X0151654Y0088744D01*
X0150660Y0088744D01*
X0149958Y0089446D01*
X0149958Y0090440D01*
X0150660Y0091142D01*
X0150958Y0090422D01*
X0151356Y0090422D01*
X0151636Y0090142D01*
X0151636Y0089744D01*
X0151356Y0089464D01*
X0150958Y0089464D01*
X0150678Y0089744D01*
X0150678Y0090142D01*
X0150958Y0090422D01*
X0171346Y0037722D02*
X0171826Y0038202D01*
X0171826Y0036612D01*
X0170702Y0035488D01*
X0169112Y0035488D01*
X0167988Y0036612D01*
X0167988Y0038202D01*
X0169112Y0039326D01*
X0170702Y0039326D01*
X0171826Y0038202D01*
X0171106Y0037904D01*
X0171106Y0036910D01*
X0170404Y0036208D01*
X0169410Y0036208D01*
X0168708Y0036910D01*
X0168708Y0037904D01*
X0169410Y0038606D01*
X0170404Y0038606D01*
X0171106Y0037904D01*
X0170386Y0037606D01*
X0170386Y0037208D01*
X0170106Y0036928D01*
X0169708Y0036928D01*
X0169428Y0037208D01*
X0169428Y0037606D01*
X0169708Y0037886D01*
X0170106Y0037886D01*
X0170386Y0037606D01*
X0180310Y0034186D02*
X0180790Y0034666D01*
X0180790Y0033076D01*
X0179666Y0031952D01*
X0178076Y0031952D01*
X0176952Y0033076D01*
X0176952Y0034666D01*
X0178076Y0035790D01*
X0179666Y0035790D01*
X0180790Y0034666D01*
X0180070Y0034368D01*
X0180070Y0033374D01*
X0179368Y0032672D01*
X0178374Y0032672D01*
X0177672Y0033374D01*
X0177672Y0034368D01*
X0178374Y0035070D01*
X0179368Y0035070D01*
X0180070Y0034368D01*
X0179350Y0034070D01*
X0179350Y0033672D01*
X0179070Y0033392D01*
X0178672Y0033392D01*
X0178392Y0033672D01*
X0178392Y0034070D01*
X0178672Y0034350D01*
X0179070Y0034350D01*
X0179350Y0034070D01*
X0193846Y0037722D02*
X0194326Y0038202D01*
X0194326Y0036612D01*
X0193202Y0035488D01*
X0191612Y0035488D01*
X0190488Y0036612D01*
X0190488Y0038202D01*
X0191612Y0039326D01*
X0193202Y0039326D01*
X0194326Y0038202D01*
X0193606Y0037904D01*
X0193606Y0036910D01*
X0192904Y0036208D01*
X0191910Y0036208D01*
X0191208Y0036910D01*
X0191208Y0037904D01*
X0191910Y0038606D01*
X0192904Y0038606D01*
X0193606Y0037904D01*
X0192886Y0037606D01*
X0192886Y0037208D01*
X0192606Y0036928D01*
X0192208Y0036928D01*
X0191928Y0037208D01*
X0191928Y0037606D01*
X0192208Y0037886D01*
X0192606Y0037886D01*
X0192886Y0037606D01*
X0206346Y0037722D02*
X0206826Y0038202D01*
X0206826Y0036612D01*
X0205702Y0035488D01*
X0204112Y0035488D01*
X0202988Y0036612D01*
X0202988Y0038202D01*
X0204112Y0039326D01*
X0205702Y0039326D01*
X0206826Y0038202D01*
X0206106Y0037904D01*
X0206106Y0036910D01*
X0205404Y0036208D01*
X0204410Y0036208D01*
X0203708Y0036910D01*
X0203708Y0037904D01*
X0204410Y0038606D01*
X0205404Y0038606D01*
X0206106Y0037904D01*
X0205386Y0037606D01*
X0205386Y0037208D01*
X0205106Y0036928D01*
X0204708Y0036928D01*
X0204428Y0037208D01*
X0204428Y0037606D01*
X0204708Y0037886D01*
X0205106Y0037886D01*
X0205386Y0037606D01*
X0218846Y0037722D02*
X0219326Y0038202D01*
X0219326Y0036612D01*
X0218202Y0035488D01*
X0216612Y0035488D01*
X0215488Y0036612D01*
X0215488Y0038202D01*
X0216612Y0039326D01*
X0218202Y0039326D01*
X0219326Y0038202D01*
X0218606Y0037904D01*
X0218606Y0036910D01*
X0217904Y0036208D01*
X0216910Y0036208D01*
X0216208Y0036910D01*
X0216208Y0037904D01*
X0216910Y0038606D01*
X0217904Y0038606D01*
X0218606Y0037904D01*
X0217886Y0037606D01*
X0217886Y0037208D01*
X0217606Y0036928D01*
X0217208Y0036928D01*
X0216928Y0037208D01*
X0216928Y0037606D01*
X0217208Y0037886D01*
X0217606Y0037886D01*
X0217886Y0037606D01*
X0197632Y0016508D02*
X0198112Y0016988D01*
X0198112Y0015398D01*
X0196988Y0014274D01*
X0195398Y0014274D01*
X0194274Y0015398D01*
X0194274Y0016988D01*
X0195398Y0018112D01*
X0196988Y0018112D01*
X0198112Y0016988D01*
X0197392Y0016690D01*
X0197392Y0015696D01*
X0196690Y0014994D01*
X0195696Y0014994D01*
X0194994Y0015696D01*
X0194994Y0016690D01*
X0195696Y0017392D01*
X0196690Y0017392D01*
X0197392Y0016690D01*
X0196672Y0016392D01*
X0196672Y0015994D01*
X0196392Y0015714D01*
X0195994Y0015714D01*
X0195714Y0015994D01*
X0195714Y0016392D01*
X0195994Y0016672D01*
X0196392Y0016672D01*
X0196672Y0016392D01*
X0185132Y0016508D02*
X0185612Y0016988D01*
X0185612Y0015398D01*
X0184488Y0014274D01*
X0182898Y0014274D01*
X0181774Y0015398D01*
X0181774Y0016988D01*
X0182898Y0018112D01*
X0184488Y0018112D01*
X0185612Y0016988D01*
X0184892Y0016690D01*
X0184892Y0015696D01*
X0184190Y0014994D01*
X0183196Y0014994D01*
X0182494Y0015696D01*
X0182494Y0016690D01*
X0183196Y0017392D01*
X0184190Y0017392D01*
X0184892Y0016690D01*
X0184172Y0016392D01*
X0184172Y0015994D01*
X0183892Y0015714D01*
X0183494Y0015714D01*
X0183214Y0015994D01*
X0183214Y0016392D01*
X0183494Y0016672D01*
X0183892Y0016672D01*
X0184172Y0016392D01*
X0172632Y0016508D02*
X0173112Y0016988D01*
X0173112Y0015398D01*
X0171988Y0014274D01*
X0170398Y0014274D01*
X0169274Y0015398D01*
X0169274Y0016988D01*
X0170398Y0018112D01*
X0171988Y0018112D01*
X0173112Y0016988D01*
X0172392Y0016690D01*
X0172392Y0015696D01*
X0171690Y0014994D01*
X0170696Y0014994D01*
X0169994Y0015696D01*
X0169994Y0016690D01*
X0170696Y0017392D01*
X0171690Y0017392D01*
X0172392Y0016690D01*
X0171672Y0016392D01*
X0171672Y0015994D01*
X0171392Y0015714D01*
X0170994Y0015714D01*
X0170714Y0015994D01*
X0170714Y0016392D01*
X0170994Y0016672D01*
X0171392Y0016672D01*
X0171672Y0016392D01*
X0166168Y0020044D02*
X0166648Y0020524D01*
X0166648Y0018934D01*
X0165524Y0017810D01*
X0163934Y0017810D01*
X0162810Y0018934D01*
X0162810Y0020524D01*
X0163934Y0021648D01*
X0165524Y0021648D01*
X0166648Y0020524D01*
X0165928Y0020226D01*
X0165928Y0019232D01*
X0165226Y0018530D01*
X0164232Y0018530D01*
X0163530Y0019232D01*
X0163530Y0020226D01*
X0164232Y0020928D01*
X0165226Y0020928D01*
X0165928Y0020226D01*
X0165208Y0019928D01*
X0165208Y0019530D01*
X0164928Y0019250D01*
X0164530Y0019250D01*
X0164250Y0019530D01*
X0164250Y0019928D01*
X0164530Y0020208D01*
X0164928Y0020208D01*
X0165208Y0019928D01*
X0150132Y0016508D02*
X0150612Y0016988D01*
X0150612Y0015398D01*
X0149488Y0014274D01*
X0147898Y0014274D01*
X0146774Y0015398D01*
X0146774Y0016988D01*
X0147898Y0018112D01*
X0149488Y0018112D01*
X0150612Y0016988D01*
X0149892Y0016690D01*
X0149892Y0015696D01*
X0149190Y0014994D01*
X0148196Y0014994D01*
X0147494Y0015696D01*
X0147494Y0016690D01*
X0148196Y0017392D01*
X0149190Y0017392D01*
X0149892Y0016690D01*
X0149172Y0016392D01*
X0149172Y0015994D01*
X0148892Y0015714D01*
X0148494Y0015714D01*
X0148214Y0015994D01*
X0148214Y0016392D01*
X0148494Y0016672D01*
X0148892Y0016672D01*
X0149172Y0016392D01*
D13*
X0045119Y0019976D03*
X0045119Y0028624D03*
X0006481Y0038976D03*
X0006481Y0009624D03*
D14*
X0081800Y0051800D03*
X0094300Y0051800D03*
X0121800Y0046800D03*
X0131800Y0046800D03*
X0141800Y0046800D03*
X0094300Y0071800D03*
X0081800Y0071800D03*
X0121800Y0076800D03*
X0131800Y0076800D03*
X0141800Y0076800D03*
D15*
X0064497Y0073532D02*
X0064497Y0085343D01*
X0042843Y0106997D02*
X0031032Y0106997D01*
X0014103Y0097548D02*
X0014103Y0085737D01*
X0017014Y0067866D02*
X0025366Y0059514D01*
X0043237Y0056603D02*
X0055048Y0056603D01*
D16*
X0076800Y0029800D03*
X0066800Y0028800D03*
X0076800Y0019800D03*
X0066800Y0018800D03*
X0086800Y0018800D03*
X0096800Y0019800D03*
X0106800Y0018800D03*
X0106800Y0028800D03*
X0096800Y0029800D03*
X0086800Y0028800D03*
D17*
X0084300Y0110550D03*
X0100550Y0110550D03*
D18*
X0150764Y0105336D03*
X0157836Y0098264D03*
X0217836Y0022836D03*
X0210764Y0015764D03*
D19*
X0214300Y0044400D02*
X0214300Y0049200D01*
X0204300Y0049200D02*
X0204300Y0044400D01*
X0194300Y0044400D02*
X0194300Y0049200D01*
X0184300Y0049200D02*
X0184300Y0044400D01*
X0174300Y0044400D02*
X0174300Y0049200D01*
X0164300Y0049200D02*
X0164300Y0044400D01*
X0154300Y0044400D02*
X0154300Y0049200D01*
X0154300Y0074400D02*
X0154300Y0079200D01*
X0164300Y0079200D02*
X0164300Y0074400D01*
X0174300Y0074400D02*
X0174300Y0079200D01*
X0184300Y0079200D02*
X0184300Y0074400D01*
X0194300Y0074400D02*
X0194300Y0079200D01*
X0204300Y0079200D02*
X0204300Y0074400D01*
X0214300Y0074400D02*
X0214300Y0079200D01*
D20*
G36*
X0141150Y0037407D02*
X0144907Y0041164D01*
X0148664Y0037407D01*
X0144907Y0033650D01*
X0141150Y0037407D01*
G37*
G36*
X0139950Y0016193D02*
X0136193Y0012436D01*
X0132436Y0016193D01*
X0136193Y0019950D01*
X0139950Y0016193D01*
G37*
D21*
X0123693Y0016193D03*
X0157407Y0037407D03*
D22*
X0106800Y0050550D03*
X0106800Y0060550D03*
X0106800Y0070550D03*
X0051800Y0036800D03*
X0051800Y0011800D03*
D23*
X0010372Y0006301D02*
X0010220Y0006150D01*
X0221210Y0006150D01*
X0221210Y0021922D01*
X0220775Y0020872D01*
X0219799Y0019896D01*
X0218525Y0019369D01*
X0217146Y0019369D01*
X0215872Y0019896D01*
X0214896Y0020872D01*
X0214369Y0022146D01*
X0214369Y0023525D01*
X0214896Y0024799D01*
X0215872Y0025775D01*
X0217146Y0026302D01*
X0218525Y0026302D01*
X0219799Y0025775D01*
X0220775Y0024799D01*
X0221210Y0023749D01*
X0221210Y0116623D01*
X0137588Y0116623D01*
X0137750Y0116461D01*
X0139605Y0114607D01*
X0155519Y0114607D01*
X0157119Y0116207D01*
X0160267Y0116207D01*
X0161867Y0114607D01*
X0170519Y0114607D01*
X0172119Y0116207D01*
X0175267Y0116207D01*
X0177493Y0113981D01*
X0177493Y0110833D01*
X0175267Y0108607D01*
X0172119Y0108607D01*
X0170519Y0110207D01*
X0161867Y0110207D01*
X0160267Y0108607D01*
X0157119Y0108607D01*
X0155519Y0110207D01*
X0137782Y0110207D01*
X0134639Y0113350D01*
X0133124Y0113350D01*
X0133743Y0112731D01*
X0133743Y0110468D01*
X0136676Y0107536D01*
X0148061Y0107536D01*
X0148801Y0108275D01*
X0150075Y0108802D01*
X0151454Y0108802D01*
X0152728Y0108275D01*
X0153704Y0107299D01*
X0154231Y0106025D01*
X0154231Y0104646D01*
X0153704Y0103372D01*
X0152728Y0102396D01*
X0151454Y0101869D01*
X0150075Y0101869D01*
X0148801Y0102396D01*
X0148061Y0103136D01*
X0134853Y0103136D01*
X0130632Y0107357D01*
X0128369Y0107357D01*
X0126143Y0109583D01*
X0126143Y0112731D01*
X0126763Y0113350D01*
X0126461Y0113350D01*
X0112750Y0099639D01*
X0111461Y0098350D01*
X0078413Y0098350D01*
X0077531Y0098327D01*
X0077507Y0098350D01*
X0077473Y0098350D01*
X0076849Y0098974D01*
X0070856Y0104663D01*
X0069023Y0104797D01*
X0049839Y0104797D01*
X0049037Y0102859D01*
X0046982Y0100804D01*
X0044296Y0099691D01*
X0029579Y0099691D01*
X0026894Y0100804D01*
X0024839Y0102859D01*
X0023727Y0105544D01*
X0023727Y0108450D01*
X0024839Y0111135D01*
X0026894Y0113190D01*
X0029579Y0114302D01*
X0044296Y0114302D01*
X0046982Y0113190D01*
X0049037Y0111135D01*
X0049839Y0109197D01*
X0068284Y0109197D01*
X0068354Y0109257D01*
X0069183Y0109197D01*
X0070014Y0109197D01*
X0070080Y0109131D01*
X0071851Y0109002D01*
X0072654Y0109023D01*
X0072744Y0108937D01*
X0072869Y0108928D01*
X0073394Y0108321D01*
X0079262Y0102750D01*
X0082487Y0102750D01*
X0079825Y0103853D01*
X0077603Y0106075D01*
X0076400Y0108979D01*
X0076400Y0112121D01*
X0077603Y0115025D01*
X0079201Y0116623D01*
X0003650Y0116623D01*
X0003650Y0043223D01*
X0003808Y0043338D01*
X0004524Y0043703D01*
X0005287Y0043951D01*
X0006080Y0044076D01*
X0006883Y0044076D01*
X0007511Y0043977D01*
X0006269Y0039344D01*
X0006849Y0039189D01*
X0008089Y0043817D01*
X0008439Y0043703D01*
X0009154Y0043338D01*
X0009804Y0042866D01*
X0010372Y0042299D01*
X0010843Y0041649D01*
X0011208Y0040934D01*
X0011456Y0040171D01*
X0011581Y0039378D01*
X0011581Y0038575D01*
X0011482Y0037947D01*
X0006849Y0039188D01*
X0006694Y0038609D01*
X0011322Y0037369D01*
X0011208Y0037019D01*
X0010843Y0036303D01*
X0010372Y0035654D01*
X0009804Y0035086D01*
X0009154Y0034614D01*
X0008439Y0034250D01*
X0007676Y0034002D01*
X0006883Y0033876D01*
X0006080Y0033876D01*
X0005452Y0033976D01*
X0006694Y0038609D01*
X0006114Y0038764D01*
X0004874Y0034136D01*
X0004524Y0034250D01*
X0003808Y0034614D01*
X0003650Y0034730D01*
X0003650Y0013870D01*
X0003808Y0013986D01*
X0004524Y0014350D01*
X0004874Y0014464D01*
X0006114Y0009836D01*
X0006694Y0009991D01*
X0011322Y0011231D01*
X0011208Y0011581D01*
X0010843Y0012297D01*
X0010372Y0012946D01*
X0009804Y0013514D01*
X0009154Y0013986D01*
X0008439Y0014350D01*
X0007676Y0014598D01*
X0006883Y0014724D01*
X0006080Y0014724D01*
X0005452Y0014624D01*
X0006694Y0009991D01*
X0006849Y0009411D01*
X0011482Y0010653D01*
X0011581Y0010025D01*
X0011581Y0009222D01*
X0011456Y0008429D01*
X0011208Y0007666D01*
X0010843Y0006951D01*
X0010372Y0006301D01*
X0011122Y0007497D02*
X0048890Y0007497D01*
X0048911Y0007476D02*
X0050786Y0006700D01*
X0052814Y0006700D01*
X0054689Y0007476D01*
X0056124Y0008911D01*
X0056409Y0009600D01*
X0112711Y0009600D01*
X0117711Y0014600D01*
X0119000Y0015889D01*
X0119000Y0040889D01*
X0121111Y0043000D01*
X0123374Y0043000D01*
X0125600Y0045226D01*
X0125600Y0048374D01*
X0123374Y0050600D01*
X0121777Y0050600D01*
X0127877Y0056700D01*
X0175723Y0056700D01*
X0181076Y0051347D01*
X0180500Y0049956D01*
X0180500Y0043644D01*
X0181079Y0042247D01*
X0182147Y0041179D01*
X0183544Y0040600D01*
X0185056Y0040600D01*
X0186453Y0041179D01*
X0187521Y0042247D01*
X0188100Y0043644D01*
X0188100Y0049956D01*
X0187521Y0051353D01*
X0186900Y0051974D01*
X0186900Y0052317D01*
X0186504Y0053273D01*
X0179004Y0060773D01*
X0178273Y0061504D01*
X0177317Y0061900D01*
X0126283Y0061900D01*
X0125327Y0061504D01*
X0108223Y0044400D01*
X0105377Y0044400D01*
X0101900Y0047877D01*
X0101900Y0049053D01*
X0102476Y0047661D01*
X0103911Y0046226D01*
X0105786Y0045450D01*
X0107814Y0045450D01*
X0109689Y0046226D01*
X0111124Y0047661D01*
X0111900Y0049536D01*
X0111900Y0051564D01*
X0111124Y0053439D01*
X0109689Y0054874D01*
X0108056Y0055550D01*
X0109689Y0056226D01*
X0111124Y0057661D01*
X0111900Y0059536D01*
X0111900Y0061289D01*
X0115211Y0064600D01*
X0155211Y0064600D01*
X0161969Y0071357D01*
X0162147Y0071179D01*
X0163544Y0070600D01*
X0165056Y0070600D01*
X0166453Y0071179D01*
X0167521Y0072247D01*
X0168100Y0073644D01*
X0168100Y0079956D01*
X0167521Y0081353D01*
X0166453Y0082421D01*
X0165177Y0082950D01*
X0173423Y0082950D01*
X0172147Y0082421D01*
X0171079Y0081353D01*
X0170500Y0079956D01*
X0170500Y0073644D01*
X0171079Y0072247D01*
X0172147Y0071179D01*
X0173544Y0070600D01*
X0175056Y0070600D01*
X0176453Y0071179D01*
X0177521Y0072247D01*
X0178100Y0073644D01*
X0178100Y0079323D01*
X0180500Y0076923D01*
X0180500Y0073644D01*
X0181079Y0072247D01*
X0182147Y0071179D01*
X0183544Y0070600D01*
X0185056Y0070600D01*
X0186453Y0071179D01*
X0187521Y0072247D01*
X0188100Y0073644D01*
X0188100Y0076923D01*
X0190100Y0078923D01*
X0190100Y0076800D01*
X0194300Y0076800D01*
X0198500Y0076800D01*
X0198500Y0079531D01*
X0198397Y0080184D01*
X0198192Y0080812D01*
X0197892Y0081401D01*
X0197504Y0081936D01*
X0197036Y0082404D01*
X0196501Y0082792D01*
X0196191Y0082950D01*
X0203423Y0082950D01*
X0202147Y0082421D01*
X0201079Y0081353D01*
X0200500Y0079956D01*
X0200500Y0073644D01*
X0201079Y0072247D01*
X0202147Y0071179D01*
X0203544Y0070600D01*
X0205056Y0070600D01*
X0206453Y0071179D01*
X0207521Y0072247D01*
X0208100Y0073644D01*
X0208100Y0074600D01*
X0210500Y0074600D01*
X0210500Y0073644D01*
X0211079Y0072247D01*
X0212147Y0071179D01*
X0213544Y0070600D01*
X0215056Y0070600D01*
X0216453Y0071179D01*
X0217521Y0072247D01*
X0218100Y0073644D01*
X0218100Y0079956D01*
X0217521Y0081353D01*
X0216453Y0082421D01*
X0215056Y0083000D01*
X0213544Y0083000D01*
X0212147Y0082421D01*
X0211079Y0081353D01*
X0210500Y0079956D01*
X0210500Y0079000D01*
X0208100Y0079000D01*
X0208100Y0079956D01*
X0207521Y0081353D01*
X0206453Y0082421D01*
X0205056Y0083000D01*
X0203688Y0083000D01*
X0204523Y0083346D01*
X0205254Y0084077D01*
X0208575Y0087398D01*
X0208971Y0088354D01*
X0208971Y0094455D01*
X0210171Y0095655D01*
X0210171Y0098803D01*
X0207945Y0101029D01*
X0204797Y0101029D01*
X0202571Y0098803D01*
X0202571Y0095655D01*
X0203771Y0094455D01*
X0203771Y0089948D01*
X0201973Y0088150D01*
X0197237Y0088150D01*
X0198707Y0089619D01*
X0198707Y0092767D01*
X0196481Y0094993D01*
X0193333Y0094993D01*
X0191107Y0092767D01*
X0191107Y0089619D01*
X0192576Y0088150D01*
X0192533Y0088150D01*
X0191577Y0087754D01*
X0186305Y0082482D01*
X0185056Y0083000D01*
X0183544Y0083000D01*
X0182295Y0082482D01*
X0177754Y0087023D01*
X0177023Y0087754D01*
X0176067Y0088150D01*
X0154737Y0088150D01*
X0154957Y0088369D01*
X0154957Y0091517D01*
X0152731Y0093743D01*
X0149583Y0093743D01*
X0147357Y0091517D01*
X0147357Y0089920D01*
X0140254Y0097023D01*
X0139523Y0097754D01*
X0138567Y0098150D01*
X0100033Y0098150D01*
X0099077Y0097754D01*
X0095259Y0093936D01*
X0095225Y0093950D01*
X0093375Y0093950D01*
X0091666Y0093242D01*
X0090358Y0091934D01*
X0089650Y0090225D01*
X0089650Y0088375D01*
X0090358Y0086666D01*
X0091666Y0085358D01*
X0093375Y0084650D01*
X0095225Y0084650D01*
X0096934Y0085358D01*
X0098242Y0086666D01*
X0098950Y0088375D01*
X0098950Y0090225D01*
X0098936Y0090259D01*
X0101627Y0092950D01*
X0102150Y0092950D01*
X0102150Y0088327D01*
X0092096Y0078273D01*
X0091700Y0077317D01*
X0091700Y0074574D01*
X0090500Y0073374D01*
X0090500Y0070226D01*
X0092726Y0068000D01*
X0094423Y0068000D01*
X0096700Y0065723D01*
X0096700Y0054774D01*
X0095874Y0055600D01*
X0092726Y0055600D01*
X0090500Y0053374D01*
X0090500Y0051677D01*
X0078223Y0039400D01*
X0063783Y0039400D01*
X0062827Y0039004D01*
X0062096Y0038273D01*
X0055047Y0031224D01*
X0049129Y0031224D01*
X0049103Y0031286D01*
X0047781Y0032608D01*
X0046053Y0033324D01*
X0044184Y0033324D01*
X0042456Y0032608D01*
X0041134Y0031286D01*
X0040419Y0029559D01*
X0040419Y0027689D01*
X0041134Y0025961D01*
X0042456Y0024639D01*
X0043275Y0024300D01*
X0042456Y0023961D01*
X0041134Y0022639D01*
X0040419Y0020911D01*
X0040419Y0019041D01*
X0041134Y0017314D01*
X0042456Y0015992D01*
X0044184Y0015276D01*
X0046053Y0015276D01*
X0047781Y0015992D01*
X0049103Y0017314D01*
X0049129Y0017376D01*
X0061700Y0017376D01*
X0061700Y0016688D01*
X0064388Y0014000D01*
X0056409Y0014000D01*
X0056124Y0014689D01*
X0054689Y0016124D01*
X0052814Y0016900D01*
X0050786Y0016900D01*
X0048911Y0016124D01*
X0047476Y0014689D01*
X0046700Y0012814D01*
X0046700Y0010786D01*
X0047476Y0008911D01*
X0048911Y0007476D01*
X0047400Y0009096D02*
X0011561Y0009096D01*
X0009317Y0010694D02*
X0046738Y0010694D01*
X0046700Y0012293D02*
X0010845Y0012293D01*
X0009284Y0013891D02*
X0047146Y0013891D01*
X0046568Y0015490D02*
X0048277Y0015490D01*
X0048877Y0017088D02*
X0061700Y0017088D01*
X0062898Y0015490D02*
X0055323Y0015490D01*
X0051800Y0011800D02*
X0111800Y0011800D01*
X0116800Y0016800D01*
X0116800Y0041800D01*
X0121800Y0046800D01*
X0118000Y0046823D02*
X0118000Y0046111D01*
X0114600Y0042711D01*
X0114600Y0017711D01*
X0110889Y0014000D01*
X0109212Y0014000D01*
X0111900Y0016688D01*
X0111900Y0020912D01*
X0109400Y0023412D01*
X0109400Y0024188D01*
X0111900Y0026688D01*
X0111900Y0030912D01*
X0108912Y0033900D01*
X0104688Y0033900D01*
X0102300Y0031512D01*
X0102300Y0032078D01*
X0099078Y0035300D01*
X0097000Y0035300D01*
X0097000Y0030000D01*
X0096600Y0030000D01*
X0096600Y0035300D01*
X0094522Y0035300D01*
X0091300Y0032078D01*
X0089078Y0034300D01*
X0087000Y0034300D01*
X0087000Y0029000D01*
X0086600Y0029000D01*
X0086600Y0034300D01*
X0084522Y0034300D01*
X0082300Y0032078D01*
X0082300Y0032078D01*
X0080072Y0034306D01*
X0080773Y0034596D01*
X0094177Y0048000D01*
X0095874Y0048000D01*
X0096700Y0048826D01*
X0096700Y0046283D01*
X0097096Y0045327D01*
X0097827Y0044596D01*
X0102827Y0039596D01*
X0103783Y0039200D01*
X0109817Y0039200D01*
X0110773Y0039596D01*
X0111504Y0040327D01*
X0118000Y0046823D01*
X0117750Y0045861D02*
X0117038Y0045861D01*
X0116152Y0044263D02*
X0115440Y0044263D01*
X0114600Y0042664D02*
X0113841Y0042664D01*
X0114600Y0041066D02*
X0112243Y0041066D01*
X0110462Y0039467D02*
X0114600Y0039467D01*
X0114600Y0037869D02*
X0084046Y0037869D01*
X0085644Y0039467D02*
X0103138Y0039467D01*
X0101357Y0041066D02*
X0087243Y0041066D01*
X0088841Y0042664D02*
X0099759Y0042664D01*
X0098160Y0044263D02*
X0090440Y0044263D01*
X0092038Y0045861D02*
X0096875Y0045861D01*
X0096700Y0047460D02*
X0093637Y0047460D01*
X0089480Y0050657D02*
X0085600Y0050657D01*
X0085600Y0050226D02*
X0083374Y0048000D01*
X0080226Y0048000D01*
X0078000Y0050226D01*
X0078000Y0053374D01*
X0080226Y0055600D01*
X0083374Y0055600D01*
X0085600Y0053374D01*
X0085600Y0050226D01*
X0084432Y0049058D02*
X0087881Y0049058D01*
X0086283Y0047460D02*
X0003650Y0047460D01*
X0003650Y0049058D02*
X0079168Y0049058D01*
X0078000Y0050657D02*
X0059433Y0050657D01*
X0059186Y0050410D02*
X0061241Y0052465D01*
X0062354Y0055150D01*
X0062354Y0058056D01*
X0061241Y0060741D01*
X0059186Y0062796D01*
X0056501Y0063909D01*
X0041784Y0063909D01*
X0039099Y0062796D01*
X0037044Y0060741D01*
X0035931Y0058056D01*
X0035931Y0055150D01*
X0037044Y0052465D01*
X0039099Y0050410D01*
X0041784Y0049298D01*
X0056501Y0049298D01*
X0059186Y0050410D01*
X0061032Y0052255D02*
X0078000Y0052255D01*
X0078480Y0053854D02*
X0061817Y0053854D01*
X0062354Y0055452D02*
X0080078Y0055452D01*
X0083522Y0055452D02*
X0092578Y0055452D01*
X0090980Y0053854D02*
X0085120Y0053854D01*
X0085600Y0052255D02*
X0090500Y0052255D01*
X0096022Y0055452D02*
X0096700Y0055452D01*
X0096700Y0057051D02*
X0062354Y0057051D01*
X0062108Y0058649D02*
X0096700Y0058649D01*
X0096700Y0060248D02*
X0061446Y0060248D01*
X0060136Y0061846D02*
X0096700Y0061846D01*
X0096700Y0063445D02*
X0057621Y0063445D01*
X0060359Y0067339D02*
X0063044Y0066227D01*
X0065950Y0066227D01*
X0068635Y0067339D01*
X0070690Y0069394D01*
X0071802Y0072079D01*
X0071802Y0086796D01*
X0070690Y0089482D01*
X0068635Y0091537D01*
X0065950Y0092649D01*
X0063044Y0092649D01*
X0060359Y0091537D01*
X0058304Y0089482D01*
X0057191Y0086796D01*
X0057191Y0072079D01*
X0058304Y0069394D01*
X0060359Y0067339D01*
X0059457Y0068240D02*
X0044326Y0068240D01*
X0044858Y0068383D02*
X0048141Y0070278D01*
X0050822Y0072959D01*
X0052717Y0076242D01*
X0053698Y0079904D01*
X0053698Y0083696D01*
X0052717Y0087358D01*
X0050822Y0090641D01*
X0048141Y0093322D01*
X0044858Y0095217D01*
X0041196Y0096198D01*
X0037404Y0096198D01*
X0033742Y0095217D01*
X0030459Y0093322D01*
X0027778Y0090641D01*
X0025883Y0087358D01*
X0024902Y0083696D01*
X0024902Y0079904D01*
X0025883Y0076242D01*
X0027778Y0072959D01*
X0030459Y0070278D01*
X0033742Y0068383D01*
X0037404Y0067402D01*
X0041196Y0067402D01*
X0044858Y0068383D01*
X0047380Y0069839D02*
X0058119Y0069839D01*
X0057457Y0071437D02*
X0049300Y0071437D01*
X0050866Y0073036D02*
X0057191Y0073036D01*
X0057191Y0074634D02*
X0051789Y0074634D01*
X0052712Y0076233D02*
X0057191Y0076233D01*
X0057191Y0077832D02*
X0053143Y0077832D01*
X0053571Y0079430D02*
X0057191Y0079430D01*
X0057191Y0081029D02*
X0053698Y0081029D01*
X0053698Y0082627D02*
X0057191Y0082627D01*
X0057191Y0084226D02*
X0053556Y0084226D01*
X0053128Y0085824D02*
X0057191Y0085824D01*
X0057451Y0087423D02*
X0052680Y0087423D01*
X0051757Y0089021D02*
X0058113Y0089021D01*
X0059442Y0090620D02*
X0050834Y0090620D01*
X0049244Y0092218D02*
X0062004Y0092218D01*
X0066990Y0092218D02*
X0079250Y0092218D01*
X0079250Y0092787D02*
X0079250Y0089300D01*
X0084300Y0089300D01*
X0084300Y0089300D01*
X0084300Y0094350D01*
X0087787Y0094350D01*
X0088245Y0094227D01*
X0088655Y0093990D01*
X0088990Y0093655D01*
X0089227Y0093245D01*
X0089350Y0092787D01*
X0089350Y0089300D01*
X0084300Y0089300D01*
X0084300Y0089300D01*
X0084300Y0089300D01*
X0084300Y0094350D01*
X0080813Y0094350D01*
X0080355Y0094227D01*
X0079945Y0093990D01*
X0079610Y0093655D01*
X0079373Y0093245D01*
X0079250Y0092787D01*
X0079771Y0093817D02*
X0047283Y0093817D01*
X0044119Y0095415D02*
X0096738Y0095415D01*
X0098337Y0097014D02*
X0021409Y0097014D01*
X0021409Y0098612D02*
X0077211Y0098612D01*
X0075546Y0100211D02*
X0045550Y0100211D01*
X0047987Y0101809D02*
X0073862Y0101809D01*
X0072178Y0103408D02*
X0049264Y0103408D01*
X0049589Y0109802D02*
X0076400Y0109802D01*
X0076721Y0108203D02*
X0073517Y0108203D01*
X0071800Y0106800D02*
X0069103Y0106997D01*
X0036938Y0106997D01*
X0047173Y0112999D02*
X0076763Y0112999D01*
X0076400Y0111400D02*
X0048771Y0111400D01*
X0026703Y0112999D02*
X0003650Y0112999D01*
X0003650Y0114597D02*
X0077426Y0114597D01*
X0078774Y0116196D02*
X0003650Y0116196D01*
X0003650Y0111400D02*
X0025104Y0111400D01*
X0024287Y0109802D02*
X0003650Y0109802D01*
X0003650Y0108203D02*
X0023727Y0108203D01*
X0023727Y0106605D02*
X0003650Y0106605D01*
X0003650Y0105006D02*
X0023949Y0105006D01*
X0024612Y0103408D02*
X0018575Y0103408D01*
X0018241Y0103741D02*
X0015556Y0104854D01*
X0012650Y0104854D01*
X0009965Y0103741D01*
X0007910Y0101686D01*
X0006798Y0099001D01*
X0006798Y0084284D01*
X0007910Y0081599D01*
X0009965Y0079544D01*
X0012650Y0078431D01*
X0015556Y0078431D01*
X0018241Y0079544D01*
X0020296Y0081599D01*
X0021409Y0084284D01*
X0021409Y0099001D01*
X0020296Y0101686D01*
X0018241Y0103741D01*
X0020174Y0101809D02*
X0025888Y0101809D01*
X0028325Y0100211D02*
X0020908Y0100211D01*
X0021409Y0095415D02*
X0034481Y0095415D01*
X0031317Y0093817D02*
X0021409Y0093817D01*
X0021409Y0092218D02*
X0029356Y0092218D01*
X0027766Y0090620D02*
X0021409Y0090620D01*
X0021409Y0089021D02*
X0026843Y0089021D01*
X0025920Y0087423D02*
X0021409Y0087423D01*
X0021409Y0085824D02*
X0025472Y0085824D01*
X0025044Y0084226D02*
X0021384Y0084226D01*
X0020722Y0082627D02*
X0024902Y0082627D01*
X0024902Y0081029D02*
X0019726Y0081029D01*
X0017967Y0079430D02*
X0025029Y0079430D01*
X0025457Y0077832D02*
X0003650Y0077832D01*
X0003650Y0076233D02*
X0025888Y0076233D01*
X0026811Y0074634D02*
X0020701Y0074634D01*
X0020429Y0074791D02*
X0019496Y0075178D01*
X0018520Y0075439D01*
X0017519Y0075571D01*
X0016509Y0075571D01*
X0015507Y0075439D01*
X0014532Y0075178D01*
X0013599Y0074791D01*
X0012724Y0074286D01*
X0011922Y0073671D01*
X0011565Y0073314D01*
X0011208Y0072957D01*
X0010593Y0072156D01*
X0010088Y0071281D01*
X0009702Y0070348D01*
X0009440Y0069372D01*
X0009308Y0068371D01*
X0009308Y0067361D01*
X0009440Y0066359D01*
X0009702Y0065383D01*
X0010088Y0064450D01*
X0010593Y0063575D01*
X0011208Y0062774D01*
X0015741Y0058241D01*
X0020274Y0053708D01*
X0021075Y0053093D01*
X0021950Y0052588D01*
X0022883Y0052202D01*
X0023859Y0051940D01*
X0024861Y0051808D01*
X0025871Y0051808D01*
X0026872Y0051940D01*
X0027848Y0052202D01*
X0028781Y0052588D01*
X0029656Y0053093D01*
X0030457Y0053708D01*
X0030814Y0054065D01*
X0021190Y0063690D01*
X0026638Y0069138D01*
X0022105Y0073671D01*
X0021304Y0074286D01*
X0020429Y0074791D01*
X0022741Y0073036D02*
X0027734Y0073036D01*
X0029300Y0071437D02*
X0024339Y0071437D01*
X0025938Y0069839D02*
X0031220Y0069839D01*
X0034274Y0068240D02*
X0027536Y0068240D01*
X0026638Y0069138D02*
X0021190Y0063690D01*
X0021190Y0063690D01*
X0021190Y0063690D01*
X0011565Y0073314D01*
X0021190Y0063690D01*
X0030814Y0054065D01*
X0031171Y0054422D01*
X0031786Y0055224D01*
X0032291Y0056099D01*
X0032678Y0057032D01*
X0032939Y0058007D01*
X0033071Y0059009D01*
X0033071Y0060019D01*
X0032939Y0061020D01*
X0032678Y0061996D01*
X0032291Y0062929D01*
X0031786Y0063804D01*
X0031171Y0064605D01*
X0026638Y0069138D01*
X0025740Y0068240D02*
X0025741Y0068240D01*
X0024142Y0066642D02*
X0024142Y0066642D01*
X0022544Y0065043D02*
X0022543Y0065043D01*
X0021190Y0063690D02*
X0021190Y0063690D01*
X0015741Y0058241D01*
X0021190Y0063690D01*
X0021190Y0063690D01*
X0021434Y0063445D02*
X0021435Y0063445D01*
X0020945Y0063445D02*
X0020945Y0063445D01*
X0019836Y0065043D02*
X0019836Y0065043D01*
X0018238Y0066642D02*
X0018237Y0066642D01*
X0016639Y0068240D02*
X0016639Y0068240D01*
X0015041Y0069839D02*
X0015040Y0069839D01*
X0013442Y0071437D02*
X0013442Y0071437D01*
X0010179Y0071437D02*
X0003650Y0071437D01*
X0003650Y0069839D02*
X0009565Y0069839D01*
X0009308Y0068240D02*
X0003650Y0068240D01*
X0003650Y0066642D02*
X0009403Y0066642D01*
X0009843Y0065043D02*
X0003650Y0065043D01*
X0003650Y0063445D02*
X0010693Y0063445D01*
X0012136Y0061846D02*
X0003650Y0061846D01*
X0003650Y0060248D02*
X0013734Y0060248D01*
X0015333Y0058649D02*
X0003650Y0058649D01*
X0003650Y0057051D02*
X0016931Y0057051D01*
X0016149Y0058649D02*
X0016149Y0058649D01*
X0017748Y0060248D02*
X0017748Y0060248D01*
X0019346Y0061846D02*
X0019346Y0061846D01*
X0023033Y0061846D02*
X0023033Y0061846D01*
X0024632Y0060248D02*
X0024632Y0060248D01*
X0026230Y0058649D02*
X0026230Y0058649D01*
X0027829Y0057051D02*
X0027829Y0057051D01*
X0029427Y0055452D02*
X0029427Y0055452D01*
X0030603Y0053854D02*
X0036468Y0053854D01*
X0035931Y0055452D02*
X0031918Y0055452D01*
X0032683Y0057051D02*
X0035931Y0057051D01*
X0036177Y0058649D02*
X0033024Y0058649D01*
X0033041Y0060248D02*
X0036839Y0060248D01*
X0038149Y0061846D02*
X0032718Y0061846D01*
X0031994Y0063445D02*
X0040664Y0063445D01*
X0030733Y0065043D02*
X0096700Y0065043D01*
X0095781Y0066642D02*
X0066952Y0066642D01*
X0069537Y0068240D02*
X0079986Y0068240D01*
X0080226Y0068000D02*
X0078000Y0070226D01*
X0078000Y0073374D01*
X0080226Y0075600D01*
X0083374Y0075600D01*
X0085600Y0073374D01*
X0085600Y0070226D01*
X0083374Y0068000D01*
X0080226Y0068000D01*
X0083614Y0068240D02*
X0092486Y0068240D01*
X0090887Y0069839D02*
X0085213Y0069839D01*
X0085600Y0071437D02*
X0090500Y0071437D01*
X0090500Y0073036D02*
X0085600Y0073036D01*
X0084339Y0074634D02*
X0091700Y0074634D01*
X0091700Y0076233D02*
X0071802Y0076233D01*
X0071802Y0074634D02*
X0079260Y0074634D01*
X0078000Y0073036D02*
X0071802Y0073036D01*
X0071537Y0071437D02*
X0078000Y0071437D01*
X0078387Y0069839D02*
X0070874Y0069839D01*
X0062041Y0066642D02*
X0029135Y0066642D01*
X0013327Y0074634D02*
X0003650Y0074634D01*
X0003650Y0073036D02*
X0011287Y0073036D01*
X0011843Y0073036D02*
X0011844Y0073036D01*
X0010239Y0079430D02*
X0003650Y0079430D01*
X0003650Y0081029D02*
X0008480Y0081029D01*
X0007484Y0082627D02*
X0003650Y0082627D01*
X0003650Y0084226D02*
X0006822Y0084226D01*
X0006798Y0085824D02*
X0003650Y0085824D01*
X0003650Y0087423D02*
X0006798Y0087423D01*
X0006798Y0089021D02*
X0003650Y0089021D01*
X0003650Y0090620D02*
X0006798Y0090620D01*
X0006798Y0092218D02*
X0003650Y0092218D01*
X0003650Y0093817D02*
X0006798Y0093817D01*
X0006798Y0095415D02*
X0003650Y0095415D01*
X0003650Y0097014D02*
X0006798Y0097014D01*
X0006798Y0098612D02*
X0003650Y0098612D01*
X0003650Y0100211D02*
X0007299Y0100211D01*
X0008033Y0101809D02*
X0003650Y0101809D01*
X0003650Y0103408D02*
X0009631Y0103408D01*
X0069552Y0090620D02*
X0079250Y0090620D01*
X0079250Y0089300D02*
X0079250Y0085813D01*
X0079373Y0085355D01*
X0079610Y0084945D01*
X0079945Y0084610D01*
X0080355Y0084373D01*
X0080813Y0084250D01*
X0084300Y0084250D01*
X0087787Y0084250D01*
X0088245Y0084373D01*
X0088655Y0084610D01*
X0088990Y0084945D01*
X0089227Y0085355D01*
X0089350Y0085813D01*
X0089350Y0089300D01*
X0084300Y0089300D01*
X0084300Y0084250D01*
X0084300Y0089300D01*
X0084300Y0089300D01*
X0079250Y0089300D01*
X0079250Y0089021D02*
X0070881Y0089021D01*
X0071543Y0087423D02*
X0079250Y0087423D01*
X0079250Y0085824D02*
X0071802Y0085824D01*
X0071802Y0084226D02*
X0098049Y0084226D01*
X0097400Y0085824D02*
X0099647Y0085824D01*
X0098555Y0087423D02*
X0101246Y0087423D01*
X0102150Y0089021D02*
X0098950Y0089021D01*
X0099297Y0090620D02*
X0102150Y0090620D01*
X0102150Y0092218D02*
X0100895Y0092218D01*
X0093053Y0093817D02*
X0088829Y0093817D01*
X0089350Y0092218D02*
X0090642Y0092218D01*
X0089813Y0090620D02*
X0089350Y0090620D01*
X0089350Y0089021D02*
X0089650Y0089021D01*
X0089350Y0087423D02*
X0090045Y0087423D01*
X0089350Y0085824D02*
X0091200Y0085824D01*
X0096450Y0082627D02*
X0071802Y0082627D01*
X0071802Y0081029D02*
X0094852Y0081029D01*
X0093253Y0079430D02*
X0071802Y0079430D01*
X0071802Y0077832D02*
X0091913Y0077832D01*
X0096900Y0075723D02*
X0096900Y0074574D01*
X0098100Y0073374D01*
X0098100Y0071677D01*
X0101504Y0068273D01*
X0101900Y0067317D01*
X0101900Y0062047D01*
X0102476Y0063439D01*
X0103911Y0064874D01*
X0105544Y0065550D01*
X0103911Y0066226D01*
X0102476Y0067661D01*
X0101700Y0069536D01*
X0101700Y0071564D01*
X0102476Y0073439D01*
X0103911Y0074874D01*
X0105786Y0075650D01*
X0107814Y0075650D01*
X0109689Y0074874D01*
X0111124Y0073439D01*
X0111409Y0072750D01*
X0134639Y0072750D01*
X0138000Y0076111D01*
X0138000Y0078374D01*
X0139226Y0079600D01*
X0137711Y0079600D01*
X0135600Y0077489D01*
X0135600Y0075226D01*
X0133374Y0073000D01*
X0130226Y0073000D01*
X0128626Y0074600D01*
X0124974Y0074600D01*
X0123374Y0073000D01*
X0120226Y0073000D01*
X0118000Y0075226D01*
X0118000Y0078374D01*
X0120226Y0080600D01*
X0123374Y0080600D01*
X0124974Y0079000D01*
X0128626Y0079000D01*
X0130226Y0080600D01*
X0132489Y0080600D01*
X0134600Y0082711D01*
X0135889Y0084000D01*
X0145923Y0084000D01*
X0145846Y0084077D01*
X0145846Y0084077D01*
X0136973Y0092950D01*
X0120292Y0092950D01*
X0120652Y0092590D01*
X0121119Y0091947D01*
X0121480Y0091239D01*
X0121726Y0090483D01*
X0121850Y0089697D01*
X0121850Y0089300D01*
X0116800Y0089300D01*
X0116800Y0089300D01*
X0121850Y0089300D01*
X0121850Y0088903D01*
X0121726Y0088117D01*
X0121480Y0087361D01*
X0121119Y0086653D01*
X0120652Y0086010D01*
X0120090Y0085448D01*
X0119447Y0084981D01*
X0118739Y0084620D01*
X0117983Y0084374D01*
X0117197Y0084250D01*
X0116800Y0084250D01*
X0116800Y0089300D01*
X0116800Y0089300D01*
X0116800Y0089300D01*
X0111750Y0089300D01*
X0111750Y0089697D01*
X0111874Y0090483D01*
X0112120Y0091239D01*
X0112481Y0091947D01*
X0112948Y0092590D01*
X0113308Y0092950D01*
X0111450Y0092950D01*
X0111450Y0085470D01*
X0110630Y0084650D01*
X0105827Y0084650D01*
X0096900Y0075723D01*
X0097410Y0076233D02*
X0118000Y0076233D01*
X0118000Y0077832D02*
X0099008Y0077832D01*
X0100607Y0079430D02*
X0119056Y0079430D01*
X0121800Y0076800D02*
X0131800Y0076800D01*
X0136800Y0081800D01*
X0149300Y0081800D01*
X0154300Y0076800D01*
X0154300Y0066800D02*
X0164300Y0076800D01*
X0168100Y0076233D02*
X0170500Y0076233D01*
X0170500Y0074634D02*
X0168100Y0074634D01*
X0167848Y0073036D02*
X0170752Y0073036D01*
X0171889Y0071437D02*
X0166711Y0071437D01*
X0160450Y0069839D02*
X0221210Y0069839D01*
X0221210Y0071437D02*
X0216711Y0071437D01*
X0217848Y0073036D02*
X0221210Y0073036D01*
X0221210Y0074634D02*
X0218100Y0074634D01*
X0218100Y0076233D02*
X0221210Y0076233D01*
X0221210Y0077832D02*
X0218100Y0077832D01*
X0218100Y0079430D02*
X0221210Y0079430D01*
X0221210Y0081029D02*
X0217656Y0081029D01*
X0215956Y0082627D02*
X0221210Y0082627D01*
X0221210Y0084226D02*
X0205403Y0084226D01*
X0207001Y0085824D02*
X0221210Y0085824D01*
X0221210Y0087423D02*
X0208585Y0087423D01*
X0208971Y0089021D02*
X0221210Y0089021D01*
X0221210Y0090620D02*
X0208971Y0090620D01*
X0208971Y0092218D02*
X0221210Y0092218D01*
X0221210Y0093817D02*
X0208971Y0093817D01*
X0209931Y0095415D02*
X0221210Y0095415D01*
X0221210Y0097014D02*
X0210171Y0097014D01*
X0210171Y0098612D02*
X0221210Y0098612D01*
X0221210Y0100211D02*
X0208763Y0100211D01*
X0203979Y0100211D02*
X0160782Y0100211D01*
X0160775Y0100228D02*
X0159799Y0101204D01*
X0158525Y0101731D01*
X0157146Y0101731D01*
X0155872Y0101204D01*
X0154896Y0100228D01*
X0154369Y0098954D01*
X0154369Y0097575D01*
X0154896Y0096301D01*
X0155872Y0095325D01*
X0157146Y0094798D01*
X0158525Y0094798D01*
X0159799Y0095325D01*
X0160775Y0096301D01*
X0161302Y0097575D01*
X0161302Y0098954D01*
X0160775Y0100228D01*
X0161302Y0098612D02*
X0202571Y0098612D01*
X0202571Y0097014D02*
X0161070Y0097014D01*
X0159889Y0095415D02*
X0202811Y0095415D01*
X0203771Y0093817D02*
X0197657Y0093817D01*
X0198707Y0092218D02*
X0203771Y0092218D01*
X0203771Y0090620D02*
X0198707Y0090620D01*
X0198108Y0089021D02*
X0202844Y0089021D01*
X0202644Y0082627D02*
X0196729Y0082627D01*
X0198082Y0081029D02*
X0200944Y0081029D01*
X0200500Y0079430D02*
X0198500Y0079430D01*
X0198500Y0077832D02*
X0200500Y0077832D01*
X0200500Y0076233D02*
X0198500Y0076233D01*
X0198500Y0076800D02*
X0194300Y0076800D01*
X0194300Y0076800D01*
X0194300Y0070200D01*
X0194631Y0070200D01*
X0195284Y0070303D01*
X0195912Y0070508D01*
X0196501Y0070808D01*
X0197036Y0071196D01*
X0197504Y0071664D01*
X0197892Y0072199D01*
X0198192Y0072788D01*
X0198397Y0073416D01*
X0198500Y0074069D01*
X0198500Y0076800D01*
X0198500Y0074634D02*
X0200500Y0074634D01*
X0200752Y0073036D02*
X0198273Y0073036D01*
X0197277Y0071437D02*
X0201889Y0071437D01*
X0206711Y0071437D02*
X0211889Y0071437D01*
X0210752Y0073036D02*
X0207848Y0073036D01*
X0204300Y0076800D02*
X0214300Y0076800D01*
X0210500Y0079430D02*
X0208100Y0079430D01*
X0207656Y0081029D02*
X0210944Y0081029D01*
X0212644Y0082627D02*
X0205956Y0082627D01*
X0194300Y0076800D02*
X0194300Y0076800D01*
X0194300Y0076800D01*
X0194300Y0070200D01*
X0193969Y0070200D01*
X0193316Y0070303D01*
X0192688Y0070508D01*
X0192099Y0070808D01*
X0191564Y0071196D01*
X0191096Y0071664D01*
X0190708Y0072199D01*
X0190408Y0072788D01*
X0190203Y0073416D01*
X0190100Y0074069D01*
X0190100Y0076800D01*
X0194300Y0076800D01*
X0194300Y0076233D02*
X0194300Y0076233D01*
X0194300Y0074634D02*
X0194300Y0074634D01*
X0194300Y0073036D02*
X0194300Y0073036D01*
X0190327Y0073036D02*
X0187848Y0073036D01*
X0188100Y0074634D02*
X0190100Y0074634D01*
X0190100Y0076233D02*
X0188100Y0076233D01*
X0189008Y0077832D02*
X0190100Y0077832D01*
X0186450Y0082627D02*
X0185956Y0082627D01*
X0188049Y0084226D02*
X0180551Y0084226D01*
X0178953Y0085824D02*
X0189647Y0085824D01*
X0191246Y0087423D02*
X0182075Y0087423D01*
X0181646Y0086993D02*
X0182876Y0088224D01*
X0184107Y0089454D01*
X0184107Y0092933D01*
X0182876Y0094163D01*
X0181646Y0095393D01*
X0178167Y0095393D01*
X0176937Y0094163D01*
X0179907Y0091194D01*
X0182876Y0094163D01*
X0179907Y0091193D01*
X0182876Y0088224D01*
X0179907Y0091193D01*
X0179907Y0091193D01*
X0179907Y0091194D01*
X0179906Y0091193D01*
X0179907Y0091193D01*
X0176937Y0088223D01*
X0178167Y0086993D01*
X0181646Y0086993D01*
X0182079Y0089021D02*
X0182079Y0089021D01*
X0183674Y0089021D02*
X0191705Y0089021D01*
X0191107Y0090620D02*
X0184107Y0090620D01*
X0184107Y0092218D02*
X0191107Y0092218D01*
X0192156Y0093817D02*
X0183223Y0093817D01*
X0182530Y0093817D02*
X0182530Y0093817D01*
X0180931Y0092218D02*
X0180931Y0092218D01*
X0179906Y0091193D02*
X0176937Y0094163D01*
X0175707Y0092933D01*
X0175707Y0089454D01*
X0176937Y0088224D01*
X0179906Y0091193D01*
X0179333Y0090620D02*
X0179333Y0090620D01*
X0180480Y0090620D02*
X0180480Y0090620D01*
X0178882Y0092218D02*
X0178882Y0092218D01*
X0177283Y0093817D02*
X0177283Y0093817D01*
X0176590Y0093817D02*
X0143460Y0093817D01*
X0145059Y0092218D02*
X0148057Y0092218D01*
X0147357Y0090620D02*
X0146657Y0090620D01*
X0140902Y0089021D02*
X0121850Y0089021D01*
X0121500Y0087423D02*
X0142500Y0087423D01*
X0144099Y0085824D02*
X0120466Y0085824D01*
X0116800Y0085824D02*
X0116800Y0085824D01*
X0116800Y0084250D02*
X0116800Y0089300D01*
X0111750Y0089300D01*
X0111750Y0088903D01*
X0111874Y0088117D01*
X0112120Y0087361D01*
X0112481Y0086653D01*
X0112948Y0086010D01*
X0113510Y0085448D01*
X0114153Y0084981D01*
X0114861Y0084620D01*
X0115617Y0084374D01*
X0116403Y0084250D01*
X0116800Y0084250D01*
X0116800Y0087423D02*
X0116800Y0087423D01*
X0116800Y0089021D02*
X0116800Y0089021D01*
X0113134Y0085824D02*
X0111450Y0085824D01*
X0111450Y0087423D02*
X0112100Y0087423D01*
X0111750Y0089021D02*
X0111450Y0089021D01*
X0111450Y0090620D02*
X0111919Y0090620D01*
X0111450Y0092218D02*
X0112678Y0092218D01*
X0120922Y0092218D02*
X0137705Y0092218D01*
X0139303Y0090620D02*
X0121681Y0090620D01*
X0111723Y0098612D02*
X0154369Y0098612D01*
X0154601Y0097014D02*
X0140263Y0097014D01*
X0140254Y0097023D02*
X0140254Y0097023D01*
X0141862Y0095415D02*
X0155782Y0095415D01*
X0154256Y0092218D02*
X0175707Y0092218D01*
X0175707Y0090620D02*
X0154957Y0090620D01*
X0154957Y0089021D02*
X0176139Y0089021D01*
X0177734Y0089021D02*
X0177734Y0089021D01*
X0177738Y0087423D02*
X0177354Y0087423D01*
X0172644Y0082627D02*
X0165956Y0082627D01*
X0167656Y0081029D02*
X0170944Y0081029D01*
X0170500Y0079430D02*
X0168100Y0079430D01*
X0168100Y0077832D02*
X0170500Y0077832D01*
X0178100Y0077832D02*
X0179592Y0077832D01*
X0180500Y0076233D02*
X0178100Y0076233D01*
X0178100Y0074634D02*
X0180500Y0074634D01*
X0180752Y0073036D02*
X0177848Y0073036D01*
X0176711Y0071437D02*
X0181889Y0071437D01*
X0186711Y0071437D02*
X0191323Y0071437D01*
X0194300Y0071437D02*
X0194300Y0071437D01*
X0177447Y0061846D02*
X0221210Y0061846D01*
X0221210Y0060248D02*
X0179529Y0060248D01*
X0181128Y0058649D02*
X0221210Y0058649D01*
X0221210Y0057051D02*
X0182726Y0057051D01*
X0184325Y0055452D02*
X0221210Y0055452D01*
X0221210Y0053854D02*
X0185923Y0053854D01*
X0186900Y0052255D02*
X0191981Y0052255D01*
X0192147Y0052421D02*
X0191079Y0051353D01*
X0190500Y0049956D01*
X0190500Y0043644D01*
X0191079Y0042247D01*
X0192119Y0041207D01*
X0190833Y0041207D01*
X0188607Y0038981D01*
X0188607Y0035833D01*
X0190833Y0033607D01*
X0193981Y0033607D01*
X0196207Y0035833D01*
X0196207Y0038981D01*
X0194587Y0040600D01*
X0195056Y0040600D01*
X0196453Y0041179D01*
X0197521Y0042247D01*
X0198100Y0043644D01*
X0198100Y0049956D01*
X0197521Y0051353D01*
X0196453Y0052421D01*
X0195056Y0053000D01*
X0193544Y0053000D01*
X0192147Y0052421D01*
X0190790Y0050657D02*
X0187810Y0050657D01*
X0188100Y0049058D02*
X0190500Y0049058D01*
X0190500Y0047460D02*
X0188100Y0047460D01*
X0188100Y0045861D02*
X0190500Y0045861D01*
X0190500Y0044263D02*
X0188100Y0044263D01*
X0187694Y0042664D02*
X0190906Y0042664D01*
X0190692Y0041066D02*
X0186180Y0041066D01*
X0189093Y0039467D02*
X0173220Y0039467D01*
X0173707Y0038981D02*
X0173707Y0035833D01*
X0171481Y0033607D01*
X0168333Y0033607D01*
X0166107Y0035833D01*
X0166107Y0038981D01*
X0168333Y0041207D01*
X0171481Y0041207D01*
X0173707Y0038981D01*
X0173707Y0037869D02*
X0188607Y0037869D01*
X0188607Y0036270D02*
X0181846Y0036270D01*
X0182671Y0035445D02*
X0180445Y0037671D01*
X0177297Y0037671D01*
X0175071Y0035445D01*
X0175071Y0032297D01*
X0177297Y0030071D01*
X0180445Y0030071D01*
X0182671Y0032297D01*
X0182671Y0035445D01*
X0182671Y0034672D02*
X0189767Y0034672D01*
X0195046Y0034672D02*
X0202267Y0034672D01*
X0203333Y0033607D02*
X0206481Y0033607D01*
X0208707Y0035833D01*
X0208707Y0038981D01*
X0206481Y0041207D01*
X0206481Y0041207D01*
X0207521Y0042247D01*
X0208100Y0043644D01*
X0208100Y0049956D01*
X0207521Y0051353D01*
X0206453Y0052421D01*
X0205056Y0053000D01*
X0203544Y0053000D01*
X0202147Y0052421D01*
X0201079Y0051353D01*
X0200500Y0049956D01*
X0200500Y0043644D01*
X0201079Y0042247D01*
X0202147Y0041179D01*
X0202966Y0040840D01*
X0201107Y0038981D01*
X0201107Y0035833D01*
X0203333Y0033607D01*
X0201107Y0036270D02*
X0196207Y0036270D01*
X0196207Y0037869D02*
X0201107Y0037869D01*
X0201593Y0039467D02*
X0195720Y0039467D01*
X0196180Y0041066D02*
X0202420Y0041066D01*
X0200906Y0042664D02*
X0197694Y0042664D01*
X0198100Y0044263D02*
X0200500Y0044263D01*
X0200500Y0045861D02*
X0198100Y0045861D01*
X0198100Y0047460D02*
X0200500Y0047460D01*
X0200500Y0049058D02*
X0198100Y0049058D01*
X0197810Y0050657D02*
X0200790Y0050657D01*
X0201981Y0052255D02*
X0196619Y0052255D01*
X0206619Y0052255D02*
X0211981Y0052255D01*
X0212147Y0052421D02*
X0211079Y0051353D01*
X0210500Y0049956D01*
X0210500Y0043644D01*
X0211079Y0042247D01*
X0212147Y0041179D01*
X0213544Y0040600D01*
X0215056Y0040600D01*
X0215346Y0040720D01*
X0213607Y0038981D01*
X0213607Y0036718D01*
X0205889Y0029000D01*
X0142711Y0029000D01*
X0139000Y0032711D01*
X0139000Y0040889D01*
X0141111Y0043000D01*
X0143374Y0043000D01*
X0145600Y0045226D01*
X0145600Y0048374D01*
X0143374Y0050600D01*
X0140226Y0050600D01*
X0138000Y0048374D01*
X0138000Y0046111D01*
X0134600Y0042711D01*
X0134600Y0030889D01*
X0135889Y0029600D01*
X0140889Y0024600D01*
X0207711Y0024600D01*
X0216718Y0033607D01*
X0218981Y0033607D01*
X0221207Y0035833D01*
X0221207Y0038981D01*
X0218981Y0041207D01*
X0216481Y0041207D01*
X0217521Y0042247D01*
X0218100Y0043644D01*
X0218100Y0049956D01*
X0217521Y0051353D01*
X0216453Y0052421D01*
X0215056Y0053000D01*
X0213544Y0053000D01*
X0212147Y0052421D01*
X0210790Y0050657D02*
X0207810Y0050657D01*
X0208100Y0049058D02*
X0210500Y0049058D01*
X0210500Y0047460D02*
X0208100Y0047460D01*
X0208100Y0045861D02*
X0210500Y0045861D01*
X0210500Y0044263D02*
X0208100Y0044263D01*
X0207694Y0042664D02*
X0210906Y0042664D01*
X0212420Y0041066D02*
X0206621Y0041066D01*
X0208220Y0039467D02*
X0214093Y0039467D01*
X0213607Y0037869D02*
X0208707Y0037869D01*
X0208707Y0036270D02*
X0213159Y0036270D01*
X0211560Y0034672D02*
X0207546Y0034672D01*
X0209962Y0033073D02*
X0182671Y0033073D01*
X0181849Y0031475D02*
X0208363Y0031475D01*
X0206765Y0029876D02*
X0141835Y0029876D01*
X0140237Y0031475D02*
X0175893Y0031475D01*
X0175071Y0033073D02*
X0158495Y0033073D01*
X0158450Y0033059D02*
X0159118Y0033276D01*
X0159743Y0033594D01*
X0160310Y0034007D01*
X0160498Y0034194D01*
X0157407Y0037285D01*
X0157528Y0037407D01*
X0157407Y0037528D01*
X0160498Y0040619D01*
X0160310Y0040807D01*
X0159743Y0041219D01*
X0159118Y0041537D01*
X0158450Y0041754D01*
X0157757Y0041864D01*
X0157138Y0041864D01*
X0157521Y0042247D01*
X0158100Y0043644D01*
X0158100Y0044600D01*
X0160500Y0044600D01*
X0160500Y0043644D01*
X0161079Y0042247D01*
X0162147Y0041179D01*
X0163544Y0040600D01*
X0165056Y0040600D01*
X0166453Y0041179D01*
X0167521Y0042247D01*
X0168100Y0043644D01*
X0168100Y0049956D01*
X0167521Y0051353D01*
X0166774Y0052100D01*
X0168389Y0052100D01*
X0170510Y0049979D01*
X0170500Y0049956D01*
X0170500Y0043644D01*
X0171079Y0042247D01*
X0172147Y0041179D01*
X0173544Y0040600D01*
X0175056Y0040600D01*
X0176453Y0041179D01*
X0177521Y0042247D01*
X0178100Y0043644D01*
X0178100Y0049956D01*
X0177521Y0051353D01*
X0176453Y0052421D01*
X0175056Y0053000D01*
X0173711Y0053000D01*
X0170211Y0056500D01*
X0135889Y0056500D01*
X0134600Y0055211D01*
X0129600Y0050211D01*
X0129600Y0049974D01*
X0128000Y0048374D01*
X0128000Y0045226D01*
X0130226Y0043000D01*
X0133374Y0043000D01*
X0135600Y0045226D01*
X0135600Y0048374D01*
X0134793Y0049181D01*
X0137711Y0052100D01*
X0151826Y0052100D01*
X0151079Y0051353D01*
X0150500Y0049956D01*
X0150500Y0043644D01*
X0151079Y0042247D01*
X0152147Y0041179D01*
X0153544Y0040600D01*
X0154335Y0040600D01*
X0157407Y0037528D01*
X0157285Y0037407D01*
X0154194Y0040498D01*
X0154007Y0040310D01*
X0153594Y0039743D01*
X0153276Y0039118D01*
X0153059Y0038450D01*
X0152949Y0037757D01*
X0152949Y0037056D01*
X0153059Y0036363D01*
X0153276Y0035696D01*
X0153594Y0035070D01*
X0154007Y0034503D01*
X0154194Y0034315D01*
X0157285Y0037407D01*
X0157407Y0037285D01*
X0154315Y0034194D01*
X0154503Y0034007D01*
X0155070Y0033594D01*
X0155696Y0033276D01*
X0156363Y0033059D01*
X0157056Y0032949D01*
X0157757Y0032949D01*
X0158450Y0033059D01*
X0156319Y0033073D02*
X0146877Y0033073D01*
X0146012Y0032208D02*
X0147998Y0034194D01*
X0144907Y0037285D01*
X0145028Y0037407D01*
X0144907Y0037528D01*
X0147998Y0040619D01*
X0146012Y0042605D01*
X0145601Y0042842D01*
X0145144Y0042965D01*
X0144670Y0042965D01*
X0144212Y0042842D01*
X0143801Y0042605D01*
X0141815Y0040619D01*
X0144907Y0037528D01*
X0144785Y0037407D01*
X0141694Y0040498D01*
X0139708Y0038512D01*
X0139471Y0038101D01*
X0139348Y0037644D01*
X0139348Y0037170D01*
X0139471Y0036712D01*
X0139708Y0036301D01*
X0141694Y0034315D01*
X0144785Y0037407D01*
X0144907Y0037285D01*
X0141815Y0034194D01*
X0143801Y0032208D01*
X0144212Y0031971D01*
X0144670Y0031848D01*
X0145144Y0031848D01*
X0145601Y0031971D01*
X0146012Y0032208D01*
X0148119Y0034315D02*
X0150105Y0036301D01*
X0150342Y0036712D01*
X0150465Y0037170D01*
X0150465Y0037644D01*
X0150342Y0038101D01*
X0150105Y0038512D01*
X0148119Y0040498D01*
X0145028Y0037407D01*
X0148119Y0034315D01*
X0147763Y0034672D02*
X0147520Y0034672D01*
X0148476Y0034672D02*
X0153884Y0034672D01*
X0154550Y0034672D02*
X0154793Y0034672D01*
X0156149Y0036270D02*
X0156392Y0036270D01*
X0157528Y0037407D02*
X0160619Y0034315D01*
X0160807Y0034503D01*
X0161219Y0035070D01*
X0161538Y0035696D01*
X0161754Y0036363D01*
X0161864Y0037056D01*
X0161864Y0037757D01*
X0161754Y0038450D01*
X0161538Y0039118D01*
X0161219Y0039743D01*
X0160807Y0040310D01*
X0160619Y0040498D01*
X0157528Y0037407D01*
X0157747Y0037869D02*
X0157990Y0037869D01*
X0157066Y0037869D02*
X0156823Y0037869D01*
X0155467Y0039467D02*
X0155225Y0039467D01*
X0153454Y0039467D02*
X0149150Y0039467D01*
X0150405Y0037869D02*
X0152967Y0037869D01*
X0153089Y0036270D02*
X0150074Y0036270D01*
X0146164Y0036270D02*
X0145922Y0036270D01*
X0145490Y0037869D02*
X0145247Y0037869D01*
X0144566Y0037869D02*
X0144323Y0037869D01*
X0143892Y0036270D02*
X0143649Y0036270D01*
X0142293Y0034672D02*
X0142050Y0034672D01*
X0141338Y0034672D02*
X0139000Y0034672D01*
X0139000Y0036270D02*
X0139739Y0036270D01*
X0139409Y0037869D02*
X0139000Y0037869D01*
X0139000Y0039467D02*
X0140663Y0039467D01*
X0142725Y0039467D02*
X0142967Y0039467D01*
X0146846Y0039467D02*
X0147089Y0039467D01*
X0147551Y0041066D02*
X0152420Y0041066D01*
X0150906Y0042664D02*
X0145909Y0042664D01*
X0143904Y0042664D02*
X0140776Y0042664D01*
X0142262Y0041066D02*
X0139177Y0041066D01*
X0136800Y0041800D02*
X0141800Y0046800D01*
X0144637Y0044263D02*
X0150500Y0044263D01*
X0150500Y0045861D02*
X0145600Y0045861D01*
X0145600Y0047460D02*
X0150500Y0047460D01*
X0150500Y0049058D02*
X0144916Y0049058D01*
X0138684Y0049058D02*
X0134916Y0049058D01*
X0135600Y0047460D02*
X0138000Y0047460D01*
X0137750Y0045861D02*
X0135600Y0045861D01*
X0131800Y0046800D02*
X0131800Y0049300D01*
X0136800Y0054300D01*
X0169300Y0054300D01*
X0174300Y0049300D01*
X0174300Y0046800D01*
X0170500Y0047460D02*
X0168100Y0047460D01*
X0168100Y0049058D02*
X0170500Y0049058D01*
X0169832Y0050657D02*
X0167810Y0050657D01*
X0168100Y0045861D02*
X0170500Y0045861D01*
X0170500Y0044263D02*
X0168100Y0044263D01*
X0167694Y0042664D02*
X0170906Y0042664D01*
X0171621Y0041066D02*
X0172420Y0041066D01*
X0176180Y0041066D02*
X0182420Y0041066D01*
X0180906Y0042664D02*
X0177694Y0042664D01*
X0178100Y0044263D02*
X0180500Y0044263D01*
X0180500Y0045861D02*
X0178100Y0045861D01*
X0178100Y0047460D02*
X0180500Y0047460D01*
X0180500Y0049058D02*
X0178100Y0049058D01*
X0177810Y0050657D02*
X0180790Y0050657D01*
X0180168Y0052255D02*
X0176619Y0052255D01*
X0178569Y0053854D02*
X0172857Y0053854D01*
X0171259Y0055452D02*
X0176971Y0055452D01*
X0164300Y0046800D02*
X0154300Y0046800D01*
X0158100Y0044263D02*
X0160500Y0044263D01*
X0160906Y0042664D02*
X0157694Y0042664D01*
X0159954Y0041066D02*
X0162420Y0041066D01*
X0161359Y0039467D02*
X0166593Y0039467D01*
X0166107Y0037869D02*
X0161846Y0037869D01*
X0161724Y0036270D02*
X0166107Y0036270D01*
X0167267Y0034672D02*
X0160929Y0034672D01*
X0160263Y0034672D02*
X0160020Y0034672D01*
X0158664Y0036270D02*
X0158422Y0036270D01*
X0159346Y0039467D02*
X0159589Y0039467D01*
X0166180Y0041066D02*
X0168192Y0041066D01*
X0173707Y0036270D02*
X0175896Y0036270D01*
X0175071Y0034672D02*
X0172546Y0034672D01*
X0166469Y0023929D02*
X0162989Y0023929D01*
X0161759Y0022699D01*
X0164729Y0019729D01*
X0167699Y0022699D01*
X0166469Y0023929D01*
X0166915Y0023482D02*
X0214369Y0023482D01*
X0214477Y0021884D02*
X0168514Y0021884D01*
X0168929Y0021469D02*
X0167699Y0022699D01*
X0164729Y0019729D01*
X0164729Y0019729D01*
X0164729Y0019729D01*
X0161759Y0022699D01*
X0160529Y0021469D01*
X0160529Y0017989D01*
X0161759Y0016759D01*
X0164729Y0019729D01*
X0164729Y0019729D01*
X0161759Y0016759D01*
X0162989Y0015529D01*
X0166469Y0015529D01*
X0167393Y0016454D01*
X0167393Y0015505D01*
X0165889Y0014000D01*
X0155211Y0014000D01*
X0152493Y0016718D01*
X0152493Y0017767D01*
X0150267Y0019993D01*
X0147119Y0019993D01*
X0145519Y0018393D01*
X0139732Y0018393D01*
X0136773Y0021352D01*
X0135613Y0021352D01*
X0132655Y0018393D01*
X0127174Y0018393D01*
X0127133Y0018492D01*
X0125992Y0019633D01*
X0124500Y0020251D01*
X0122886Y0020251D01*
X0121395Y0019633D01*
X0120254Y0018492D01*
X0119636Y0017000D01*
X0119636Y0015386D01*
X0120254Y0013895D01*
X0121395Y0012754D01*
X0122886Y0012136D01*
X0124500Y0012136D01*
X0125992Y0012754D01*
X0127133Y0013895D01*
X0127174Y0013993D01*
X0132655Y0013993D01*
X0135613Y0011035D01*
X0136773Y0011035D01*
X0139732Y0013993D01*
X0145519Y0013993D01*
X0147119Y0012393D01*
X0150267Y0012393D01*
X0150431Y0012557D01*
X0152100Y0010889D01*
X0153389Y0009600D01*
X0167711Y0009600D01*
X0170505Y0012393D01*
X0172767Y0012393D01*
X0174993Y0014619D01*
X0174993Y0017767D01*
X0172767Y0019993D01*
X0169619Y0019993D01*
X0168929Y0019303D01*
X0168929Y0021469D01*
X0168929Y0020285D02*
X0181845Y0020285D01*
X0181954Y0020393D02*
X0180724Y0019163D01*
X0183693Y0016194D01*
X0183693Y0016193D01*
X0180724Y0013223D01*
X0181954Y0011993D01*
X0185433Y0011993D01*
X0186663Y0013224D01*
X0187893Y0014454D01*
X0187893Y0017933D01*
X0186663Y0019163D01*
X0185433Y0020393D01*
X0181954Y0020393D01*
X0180724Y0019163D02*
X0179493Y0017933D01*
X0179493Y0014454D01*
X0180724Y0013224D01*
X0183693Y0016193D01*
X0183693Y0016193D01*
X0180724Y0019163D01*
X0181200Y0018687D02*
X0181200Y0018687D01*
X0180247Y0018687D02*
X0174074Y0018687D01*
X0174993Y0017088D02*
X0179493Y0017088D01*
X0179493Y0015490D02*
X0174993Y0015490D01*
X0174265Y0013891D02*
X0180056Y0013891D01*
X0181391Y0013891D02*
X0181391Y0013891D01*
X0182989Y0015490D02*
X0182990Y0015490D01*
X0183693Y0016193D02*
X0183694Y0016193D01*
X0186663Y0013224D01*
X0183693Y0016193D01*
X0183693Y0016194D02*
X0186663Y0019163D01*
X0183694Y0016193D01*
X0183693Y0016194D01*
X0184397Y0015490D02*
X0184397Y0015490D01*
X0184588Y0017088D02*
X0184588Y0017088D01*
X0182799Y0017088D02*
X0182799Y0017088D01*
X0186187Y0018687D02*
X0186187Y0018687D01*
X0187140Y0018687D02*
X0193313Y0018687D01*
X0192393Y0017767D02*
X0192393Y0014619D01*
X0194619Y0012393D01*
X0197767Y0012393D01*
X0199367Y0013993D01*
X0207745Y0013993D01*
X0207825Y0013801D01*
X0208801Y0012825D01*
X0210075Y0012298D01*
X0211454Y0012298D01*
X0212728Y0012825D01*
X0213704Y0013801D01*
X0214231Y0015075D01*
X0214231Y0016454D01*
X0213704Y0017728D01*
X0212728Y0018704D01*
X0211454Y0019231D01*
X0210075Y0019231D01*
X0208801Y0018704D01*
X0208490Y0018393D01*
X0199367Y0018393D01*
X0197767Y0019993D01*
X0194619Y0019993D01*
X0192393Y0017767D01*
X0192393Y0017088D02*
X0187893Y0017088D01*
X0187893Y0015490D02*
X0192393Y0015490D01*
X0193122Y0013891D02*
X0187331Y0013891D01*
X0185996Y0013891D02*
X0185996Y0013891D01*
X0185732Y0012293D02*
X0221210Y0012293D01*
X0221210Y0010694D02*
X0168805Y0010694D01*
X0170404Y0012293D02*
X0181655Y0012293D01*
X0171193Y0016193D02*
X0166800Y0011800D01*
X0154300Y0011800D01*
X0149907Y0016193D01*
X0148693Y0016193D01*
X0136193Y0016193D01*
X0123693Y0016193D01*
X0120448Y0018687D02*
X0119000Y0018687D01*
X0119000Y0020285D02*
X0134547Y0020285D01*
X0132948Y0018687D02*
X0126938Y0018687D01*
X0127129Y0013891D02*
X0132758Y0013891D01*
X0134356Y0012293D02*
X0124879Y0012293D01*
X0122508Y0012293D02*
X0115404Y0012293D01*
X0113805Y0010694D02*
X0152295Y0010694D01*
X0150696Y0012293D02*
X0138031Y0012293D01*
X0139629Y0013891D02*
X0145622Y0013891D01*
X0152493Y0017088D02*
X0161430Y0017088D01*
X0162088Y0017088D02*
X0162088Y0017088D01*
X0160529Y0018687D02*
X0151574Y0018687D01*
X0145813Y0018687D02*
X0139438Y0018687D01*
X0137840Y0020285D02*
X0160529Y0020285D01*
X0160944Y0021884D02*
X0119000Y0021884D01*
X0119000Y0023482D02*
X0162542Y0023482D01*
X0162574Y0021884D02*
X0162574Y0021884D01*
X0164173Y0020285D02*
X0164173Y0020285D01*
X0165285Y0020285D02*
X0165285Y0020285D01*
X0163687Y0018687D02*
X0163687Y0018687D01*
X0166884Y0021884D02*
X0166884Y0021884D01*
X0167378Y0015490D02*
X0153722Y0015490D01*
X0140408Y0025081D02*
X0119000Y0025081D01*
X0119000Y0026679D02*
X0138810Y0026679D01*
X0137211Y0028278D02*
X0119000Y0028278D01*
X0119000Y0029876D02*
X0135613Y0029876D01*
X0134600Y0031475D02*
X0119000Y0031475D01*
X0119000Y0033073D02*
X0134600Y0033073D01*
X0136800Y0031800D02*
X0136800Y0041800D01*
X0134600Y0041066D02*
X0119177Y0041066D01*
X0120776Y0042664D02*
X0134600Y0042664D01*
X0134637Y0044263D02*
X0136152Y0044263D01*
X0134600Y0039467D02*
X0119000Y0039467D01*
X0119000Y0037869D02*
X0134600Y0037869D01*
X0134600Y0036270D02*
X0119000Y0036270D01*
X0119000Y0034672D02*
X0134600Y0034672D01*
X0139000Y0033073D02*
X0142936Y0033073D01*
X0136800Y0031800D02*
X0141800Y0026800D01*
X0206800Y0026800D01*
X0217407Y0037407D01*
X0220046Y0034672D02*
X0221210Y0034672D01*
X0221207Y0036270D02*
X0221210Y0036270D01*
X0221207Y0037869D02*
X0221210Y0037869D01*
X0221210Y0039467D02*
X0220720Y0039467D01*
X0221210Y0041066D02*
X0219121Y0041066D01*
X0217694Y0042664D02*
X0221210Y0042664D01*
X0221210Y0044263D02*
X0218100Y0044263D01*
X0218100Y0045861D02*
X0221210Y0045861D01*
X0221210Y0047460D02*
X0218100Y0047460D01*
X0218100Y0049058D02*
X0221210Y0049058D01*
X0221210Y0050657D02*
X0217810Y0050657D01*
X0216619Y0052255D02*
X0221210Y0052255D01*
X0221210Y0063445D02*
X0114056Y0063445D01*
X0112458Y0061846D02*
X0126153Y0061846D01*
X0124071Y0060248D02*
X0111900Y0060248D01*
X0111533Y0058649D02*
X0122472Y0058649D01*
X0120874Y0057051D02*
X0110513Y0057051D01*
X0108292Y0055452D02*
X0119275Y0055452D01*
X0117677Y0053854D02*
X0110709Y0053854D01*
X0111614Y0052255D02*
X0116078Y0052255D01*
X0114480Y0050657D02*
X0111900Y0050657D01*
X0111702Y0049058D02*
X0112881Y0049058D01*
X0111283Y0047460D02*
X0110922Y0047460D01*
X0109684Y0045861D02*
X0108807Y0045861D01*
X0104793Y0045861D02*
X0103916Y0045861D01*
X0102678Y0047460D02*
X0102317Y0047460D01*
X0084684Y0045861D02*
X0003650Y0045861D01*
X0003650Y0044263D02*
X0083086Y0044263D01*
X0081487Y0042664D02*
X0010006Y0042664D01*
X0011141Y0041066D02*
X0048314Y0041066D01*
X0048217Y0040995D02*
X0047605Y0040383D01*
X0047096Y0039683D01*
X0046703Y0038911D01*
X0046435Y0038088D01*
X0046300Y0037233D01*
X0046300Y0037000D01*
X0051600Y0037000D01*
X0051600Y0042300D01*
X0051367Y0042300D01*
X0050512Y0042165D01*
X0049689Y0041897D01*
X0048917Y0041504D01*
X0048217Y0040995D01*
X0051600Y0041066D02*
X0052000Y0041066D01*
X0052000Y0042300D02*
X0052000Y0037000D01*
X0051600Y0037000D01*
X0051600Y0036600D01*
X0046300Y0036600D01*
X0046300Y0036367D01*
X0046435Y0035512D01*
X0046703Y0034689D01*
X0047096Y0033917D01*
X0047605Y0033217D01*
X0048217Y0032605D01*
X0048917Y0032096D01*
X0049689Y0031703D01*
X0050512Y0031435D01*
X0051367Y0031300D01*
X0051600Y0031300D01*
X0051600Y0036600D01*
X0052000Y0036600D01*
X0052000Y0037000D01*
X0057300Y0037000D01*
X0057300Y0037233D01*
X0057165Y0038088D01*
X0056897Y0038911D01*
X0056504Y0039683D01*
X0055995Y0040383D01*
X0055383Y0040995D01*
X0054683Y0041504D01*
X0053911Y0041897D01*
X0053088Y0042165D01*
X0052233Y0042300D01*
X0052000Y0042300D01*
X0055286Y0041066D02*
X0079889Y0041066D01*
X0078290Y0039467D02*
X0056614Y0039467D01*
X0057199Y0037869D02*
X0061692Y0037869D01*
X0060093Y0036270D02*
X0057285Y0036270D01*
X0057300Y0036367D02*
X0057300Y0036600D01*
X0052000Y0036600D01*
X0052000Y0031300D01*
X0052233Y0031300D01*
X0053088Y0031435D01*
X0053911Y0031703D01*
X0054683Y0032096D01*
X0055383Y0032605D01*
X0055995Y0033217D01*
X0056504Y0033917D01*
X0056897Y0034689D01*
X0057165Y0035512D01*
X0057300Y0036367D01*
X0056888Y0034672D02*
X0058495Y0034672D01*
X0056896Y0033073D02*
X0055851Y0033073D01*
X0055298Y0031475D02*
X0053209Y0031475D01*
X0052000Y0031475D02*
X0051600Y0031475D01*
X0050391Y0031475D02*
X0048914Y0031475D01*
X0047749Y0033073D02*
X0046658Y0033073D01*
X0043579Y0033073D02*
X0003650Y0033073D01*
X0003650Y0031475D02*
X0041323Y0031475D01*
X0040550Y0029876D02*
X0003650Y0029876D01*
X0003650Y0028278D02*
X0040419Y0028278D01*
X0040837Y0026679D02*
X0003650Y0026679D01*
X0003650Y0025081D02*
X0042015Y0025081D01*
X0041977Y0023482D02*
X0003650Y0023482D01*
X0003650Y0021884D02*
X0040821Y0021884D01*
X0040419Y0020285D02*
X0003650Y0020285D01*
X0003650Y0018687D02*
X0040566Y0018687D01*
X0041360Y0017088D02*
X0003650Y0017088D01*
X0003650Y0015490D02*
X0043669Y0015490D01*
X0056200Y0009096D02*
X0221210Y0009096D01*
X0221210Y0007497D02*
X0054710Y0007497D01*
X0069212Y0014000D02*
X0071900Y0016688D01*
X0071900Y0016922D01*
X0074522Y0014300D01*
X0076600Y0014300D01*
X0076600Y0019600D01*
X0077000Y0019600D01*
X0077000Y0014300D01*
X0079078Y0014300D01*
X0081300Y0016522D01*
X0081300Y0016522D01*
X0083822Y0014000D01*
X0069212Y0014000D01*
X0070702Y0015490D02*
X0073332Y0015490D01*
X0076600Y0015490D02*
X0077000Y0015490D01*
X0077000Y0017088D02*
X0076600Y0017088D01*
X0076600Y0018687D02*
X0077000Y0018687D01*
X0077000Y0020000D02*
X0076600Y0020000D01*
X0076600Y0024300D01*
X0076600Y0029600D01*
X0077000Y0029600D01*
X0077000Y0020000D01*
X0077000Y0020285D02*
X0076600Y0020285D01*
X0076600Y0021884D02*
X0077000Y0021884D01*
X0077000Y0023482D02*
X0076600Y0023482D01*
X0076600Y0025081D02*
X0077000Y0025081D01*
X0077000Y0026679D02*
X0076600Y0026679D01*
X0076600Y0028278D02*
X0077000Y0028278D01*
X0081305Y0033073D02*
X0083295Y0033073D01*
X0080849Y0034672D02*
X0093894Y0034672D01*
X0096600Y0034672D02*
X0097000Y0034672D01*
X0097000Y0033073D02*
X0096600Y0033073D01*
X0096600Y0031475D02*
X0097000Y0031475D01*
X0097000Y0029600D02*
X0097000Y0020000D01*
X0096600Y0020000D01*
X0096600Y0024300D01*
X0096600Y0029600D01*
X0097000Y0029600D01*
X0097000Y0028278D02*
X0096600Y0028278D01*
X0096600Y0026679D02*
X0097000Y0026679D01*
X0097000Y0025081D02*
X0096600Y0025081D01*
X0096600Y0023482D02*
X0097000Y0023482D01*
X0097000Y0021884D02*
X0096600Y0021884D01*
X0096600Y0020285D02*
X0097000Y0020285D01*
X0097000Y0019600D02*
X0097000Y0014300D01*
X0099078Y0014300D01*
X0101700Y0016922D01*
X0101700Y0016688D01*
X0104388Y0014000D01*
X0089778Y0014000D01*
X0092300Y0016522D01*
X0094522Y0014300D01*
X0096600Y0014300D01*
X0096600Y0019600D01*
X0097000Y0019600D01*
X0097000Y0018687D02*
X0096600Y0018687D01*
X0096600Y0017088D02*
X0097000Y0017088D01*
X0097000Y0015490D02*
X0096600Y0015490D01*
X0093332Y0015490D02*
X0091268Y0015490D01*
X0092300Y0016522D02*
X0092300Y0016522D01*
X0087000Y0019000D02*
X0086600Y0019000D01*
X0086600Y0023300D01*
X0086600Y0028600D01*
X0087000Y0028600D01*
X0087000Y0019000D01*
X0087000Y0020285D02*
X0086600Y0020285D01*
X0086600Y0021884D02*
X0087000Y0021884D01*
X0087000Y0023482D02*
X0086600Y0023482D01*
X0086600Y0025081D02*
X0087000Y0025081D01*
X0087000Y0026679D02*
X0086600Y0026679D01*
X0086600Y0028278D02*
X0087000Y0028278D01*
X0087000Y0029876D02*
X0086600Y0029876D01*
X0086600Y0031475D02*
X0087000Y0031475D01*
X0087000Y0033073D02*
X0086600Y0033073D01*
X0090305Y0033073D02*
X0092295Y0033073D01*
X0091300Y0032078D02*
X0091300Y0032078D01*
X0099706Y0034672D02*
X0114600Y0034672D01*
X0114600Y0036270D02*
X0082447Y0036270D01*
X0101305Y0033073D02*
X0103861Y0033073D01*
X0109739Y0033073D02*
X0114600Y0033073D01*
X0114600Y0031475D02*
X0111338Y0031475D01*
X0111900Y0029876D02*
X0114600Y0029876D01*
X0114600Y0028278D02*
X0111900Y0028278D01*
X0111892Y0026679D02*
X0114600Y0026679D01*
X0114600Y0025081D02*
X0110293Y0025081D01*
X0109400Y0023482D02*
X0114600Y0023482D01*
X0114600Y0021884D02*
X0110929Y0021884D01*
X0111900Y0020285D02*
X0114600Y0020285D01*
X0114600Y0018687D02*
X0111900Y0018687D01*
X0111900Y0017088D02*
X0113977Y0017088D01*
X0112378Y0015490D02*
X0110702Y0015490D01*
X0117002Y0013891D02*
X0120258Y0013891D01*
X0119636Y0015490D02*
X0118601Y0015490D01*
X0119000Y0017088D02*
X0119672Y0017088D01*
X0102898Y0015490D02*
X0100268Y0015490D01*
X0082332Y0015490D02*
X0080268Y0015490D01*
X0052000Y0033073D02*
X0051600Y0033073D01*
X0051600Y0034672D02*
X0052000Y0034672D01*
X0052000Y0036270D02*
X0051600Y0036270D01*
X0051600Y0037869D02*
X0052000Y0037869D01*
X0052000Y0039467D02*
X0051600Y0039467D01*
X0046986Y0039467D02*
X0011567Y0039467D01*
X0009456Y0037869D02*
X0046401Y0037869D01*
X0046315Y0036270D02*
X0010819Y0036270D01*
X0009233Y0034672D02*
X0046712Y0034672D01*
X0038852Y0050657D02*
X0003650Y0050657D01*
X0003650Y0052255D02*
X0022754Y0052255D01*
X0020128Y0053854D02*
X0003650Y0053854D01*
X0003650Y0055452D02*
X0018530Y0055452D01*
X0027977Y0052255D02*
X0037253Y0052255D01*
X0007780Y0042664D02*
X0007159Y0042664D01*
X0007352Y0041066D02*
X0006731Y0041066D01*
X0006924Y0039467D02*
X0006302Y0039467D01*
X0006495Y0037869D02*
X0005874Y0037869D01*
X0006067Y0036270D02*
X0005446Y0036270D01*
X0005639Y0034672D02*
X0005017Y0034672D01*
X0003730Y0034672D02*
X0003650Y0034672D01*
X0003650Y0013891D02*
X0003679Y0013891D01*
X0005027Y0013891D02*
X0005649Y0013891D01*
X0005456Y0012293D02*
X0006077Y0012293D01*
X0005884Y0010694D02*
X0006505Y0010694D01*
X0101900Y0063445D02*
X0102482Y0063445D01*
X0101900Y0065043D02*
X0104321Y0065043D01*
X0103496Y0066642D02*
X0101900Y0066642D01*
X0102236Y0068240D02*
X0101518Y0068240D01*
X0101700Y0069839D02*
X0099938Y0069839D01*
X0098339Y0071437D02*
X0101700Y0071437D01*
X0102310Y0073036D02*
X0098100Y0073036D01*
X0096900Y0074634D02*
X0103672Y0074634D01*
X0106800Y0070550D02*
X0135550Y0070550D01*
X0141800Y0076800D01*
X0139056Y0079430D02*
X0137541Y0079430D01*
X0138000Y0077832D02*
X0135943Y0077832D01*
X0135600Y0076233D02*
X0138000Y0076233D01*
X0136523Y0074634D02*
X0135009Y0074634D01*
X0134925Y0073036D02*
X0133410Y0073036D01*
X0130190Y0073036D02*
X0123410Y0073036D01*
X0120190Y0073036D02*
X0111290Y0073036D01*
X0109928Y0074634D02*
X0118591Y0074634D01*
X0124544Y0079430D02*
X0129056Y0079430D01*
X0132917Y0081029D02*
X0102205Y0081029D01*
X0103804Y0082627D02*
X0134516Y0082627D01*
X0145697Y0084226D02*
X0105403Y0084226D01*
X0084300Y0085824D02*
X0084300Y0085824D01*
X0084300Y0087423D02*
X0084300Y0087423D01*
X0084300Y0089021D02*
X0084300Y0089021D01*
X0084300Y0090620D02*
X0084300Y0090620D01*
X0084300Y0092218D02*
X0084300Y0092218D01*
X0084300Y0093817D02*
X0084300Y0093817D01*
X0078385Y0100550D02*
X0071800Y0106800D01*
X0075201Y0106605D02*
X0077383Y0106605D01*
X0076885Y0105006D02*
X0078671Y0105006D01*
X0078570Y0103408D02*
X0080899Y0103408D01*
X0078385Y0100550D02*
X0110550Y0100550D01*
X0125550Y0115550D01*
X0135550Y0115550D01*
X0138693Y0112407D01*
X0158693Y0112407D01*
X0173693Y0112407D01*
X0170924Y0109802D02*
X0161463Y0109802D01*
X0155924Y0109802D02*
X0134410Y0109802D01*
X0136008Y0108203D02*
X0148729Y0108203D01*
X0150764Y0105336D02*
X0135764Y0105336D01*
X0129943Y0111157D01*
X0126143Y0111400D02*
X0124512Y0111400D01*
X0126110Y0112999D02*
X0126412Y0112999D01*
X0123085Y0116196D02*
X0106642Y0116196D01*
X0106804Y0116034D02*
X0106215Y0116623D01*
X0123512Y0116623D01*
X0109639Y0102750D01*
X0103408Y0102750D01*
X0104229Y0103090D01*
X0105171Y0103634D01*
X0106034Y0104296D01*
X0106804Y0105066D01*
X0107466Y0105929D01*
X0108010Y0106871D01*
X0108426Y0107876D01*
X0108708Y0108927D01*
X0108816Y0109750D01*
X0101350Y0109750D01*
X0101350Y0111350D01*
X0108816Y0111350D01*
X0108708Y0112173D01*
X0108426Y0113224D01*
X0108010Y0114229D01*
X0107466Y0115171D01*
X0106804Y0116034D01*
X0107797Y0114597D02*
X0121486Y0114597D01*
X0119888Y0112999D02*
X0108487Y0112999D01*
X0108810Y0111400D02*
X0118289Y0111400D01*
X0116690Y0109802D02*
X0101350Y0109802D01*
X0099750Y0109802D02*
X0092200Y0109802D01*
X0092284Y0109750D02*
X0092392Y0108927D01*
X0092674Y0107876D01*
X0093090Y0106871D01*
X0093634Y0105929D01*
X0094296Y0105066D01*
X0095066Y0104296D01*
X0095929Y0103634D01*
X0096871Y0103090D01*
X0097692Y0102750D01*
X0086113Y0102750D01*
X0088775Y0103853D01*
X0090997Y0106075D01*
X0092200Y0108979D01*
X0092200Y0112121D01*
X0090997Y0115025D01*
X0089399Y0116623D01*
X0094885Y0116623D01*
X0094296Y0116034D01*
X0093634Y0115171D01*
X0093090Y0114229D01*
X0092674Y0113224D01*
X0092392Y0112173D01*
X0092284Y0111350D01*
X0099750Y0111350D01*
X0099750Y0109750D01*
X0092284Y0109750D01*
X0092586Y0108203D02*
X0091879Y0108203D01*
X0091217Y0106605D02*
X0093244Y0106605D01*
X0094356Y0105006D02*
X0089928Y0105006D01*
X0087701Y0103408D02*
X0096321Y0103408D01*
X0104779Y0103408D02*
X0110296Y0103408D01*
X0111895Y0105006D02*
X0106744Y0105006D01*
X0107856Y0106605D02*
X0113493Y0106605D01*
X0115092Y0108203D02*
X0108514Y0108203D01*
X0116519Y0103408D02*
X0134581Y0103408D01*
X0132983Y0105006D02*
X0118117Y0105006D01*
X0119716Y0106605D02*
X0131384Y0106605D01*
X0127523Y0108203D02*
X0121315Y0108203D01*
X0122913Y0109802D02*
X0126143Y0109802D01*
X0133475Y0112999D02*
X0134990Y0112999D01*
X0133743Y0111400D02*
X0136588Y0111400D01*
X0138015Y0116196D02*
X0157109Y0116196D01*
X0160278Y0116196D02*
X0172109Y0116196D01*
X0175278Y0116196D02*
X0221210Y0116196D01*
X0221210Y0114597D02*
X0194942Y0114597D01*
X0195199Y0114341D02*
X0193969Y0115571D01*
X0190489Y0115571D01*
X0189259Y0114341D01*
X0192229Y0111371D01*
X0195199Y0108401D01*
X0196429Y0109631D01*
X0196429Y0113111D01*
X0195199Y0114341D01*
X0192229Y0111371D01*
X0192229Y0111371D01*
X0195199Y0108401D01*
X0193969Y0107171D01*
X0190489Y0107171D01*
X0189259Y0108401D01*
X0192229Y0111371D01*
X0192229Y0111371D01*
X0192229Y0111371D01*
X0195199Y0114341D01*
X0196429Y0112999D02*
X0221210Y0112999D01*
X0221210Y0111400D02*
X0196429Y0111400D01*
X0193857Y0112999D02*
X0193857Y0112999D01*
X0192258Y0111400D02*
X0192258Y0111400D01*
X0192229Y0111371D02*
X0192229Y0111371D01*
X0189259Y0108401D01*
X0188029Y0109631D01*
X0188029Y0113111D01*
X0189259Y0114341D01*
X0192229Y0111371D01*
X0192200Y0111400D02*
X0192200Y0111400D01*
X0190601Y0112999D02*
X0190601Y0112999D01*
X0189515Y0114597D02*
X0176877Y0114597D01*
X0177493Y0112999D02*
X0188029Y0112999D01*
X0188029Y0111400D02*
X0177493Y0111400D01*
X0176463Y0109802D02*
X0188029Y0109802D01*
X0189457Y0108203D02*
X0152800Y0108203D01*
X0153991Y0106605D02*
X0221210Y0106605D01*
X0221210Y0108203D02*
X0195001Y0108203D01*
X0193798Y0109802D02*
X0193798Y0109802D01*
X0196429Y0109802D02*
X0221210Y0109802D01*
X0221210Y0105006D02*
X0154231Y0105006D01*
X0153719Y0103408D02*
X0221210Y0103408D01*
X0221210Y0101809D02*
X0114920Y0101809D01*
X0113322Y0100211D02*
X0154889Y0100211D01*
X0182150Y0082627D02*
X0182644Y0082627D01*
X0158852Y0068240D02*
X0221210Y0068240D01*
X0221210Y0066642D02*
X0157253Y0066642D01*
X0155655Y0065043D02*
X0221210Y0065043D01*
X0221210Y0033073D02*
X0216184Y0033073D01*
X0214586Y0031475D02*
X0221210Y0031475D01*
X0221210Y0029876D02*
X0212987Y0029876D01*
X0211389Y0028278D02*
X0221210Y0028278D01*
X0221210Y0026679D02*
X0209790Y0026679D01*
X0208192Y0025081D02*
X0215178Y0025081D01*
X0220493Y0025081D02*
X0221210Y0025081D01*
X0221194Y0021884D02*
X0221210Y0021884D01*
X0221210Y0020285D02*
X0220188Y0020285D01*
X0221210Y0018687D02*
X0212745Y0018687D01*
X0208784Y0018687D02*
X0199074Y0018687D01*
X0196193Y0016193D02*
X0210336Y0016193D01*
X0210764Y0015764D01*
X0213969Y0017088D02*
X0221210Y0017088D01*
X0221210Y0015490D02*
X0214231Y0015490D01*
X0213741Y0013891D02*
X0221210Y0013891D01*
X0215483Y0020285D02*
X0185541Y0020285D01*
X0199265Y0013891D02*
X0207788Y0013891D01*
X0150790Y0050657D02*
X0136268Y0050657D01*
X0131644Y0052255D02*
X0123432Y0052255D01*
X0125031Y0053854D02*
X0133243Y0053854D01*
X0134841Y0055452D02*
X0126629Y0055452D01*
X0130046Y0050657D02*
X0121834Y0050657D01*
X0124916Y0049058D02*
X0128684Y0049058D01*
X0128000Y0047460D02*
X0125600Y0047460D01*
X0125600Y0045861D02*
X0128000Y0045861D01*
X0128963Y0044263D02*
X0124637Y0044263D01*
X0108050Y0060550D02*
X0114300Y0066800D01*
X0154300Y0066800D01*
X0108050Y0060550D02*
X0106800Y0060550D01*
X0190660Y0109802D02*
X0190660Y0109802D01*
X0094458Y0116196D02*
X0089826Y0116196D01*
X0091174Y0114597D02*
X0093303Y0114597D01*
X0092613Y0112999D02*
X0091837Y0112999D01*
X0092200Y0111400D02*
X0092290Y0111400D01*
D24*
X0100550Y0095550D02*
X0094300Y0089300D01*
X0100550Y0095550D02*
X0138050Y0095550D01*
X0148050Y0085550D01*
X0175550Y0085550D01*
X0184300Y0076800D01*
X0193050Y0085550D01*
X0203050Y0085550D01*
X0206371Y0088871D01*
X0206371Y0097229D01*
X0176800Y0059300D02*
X0126800Y0059300D01*
X0109300Y0041800D01*
X0104300Y0041800D01*
X0099300Y0046800D01*
X0099300Y0066800D01*
X0094300Y0071800D01*
X0094300Y0076800D01*
X0106800Y0089300D01*
X0094300Y0051800D02*
X0079300Y0036800D01*
X0064300Y0036800D01*
X0056124Y0028624D01*
X0045119Y0028624D01*
X0045119Y0019976D02*
X0065624Y0019976D01*
X0066800Y0018800D01*
X0066800Y0028800D01*
X0106800Y0028800D02*
X0106800Y0018800D01*
X0176800Y0059300D02*
X0184300Y0051800D01*
X0184300Y0046800D01*
M02*
