%
M48
M72
T01C0.0177
T02C0.0276
T03C0.0320
T04C0.0354
T05C0.0400
T06C0.0440
T07C0.0787
T08C0.2520
%
T01
X4914Y5660
X2119Y6369
X6450Y7944
X3694Y10700
X1410Y9164
T02
X8430Y8930
X9430Y8930
X10680Y8930
X11680Y8930
X15076Y10534
X15784Y9826
X21784Y2284
X21076Y1576
T03
X19619Y1619
X18369Y1619
X17119Y1619
X16473Y1973
X14869Y1619
X17887Y3387
X16991Y3741
X17430Y4680
X16430Y4680
X15430Y4680
X14180Y4680
X13180Y4680
X12180Y4680
X9430Y5180
X8180Y5180
X8180Y7180
X9430Y7180
X12180Y7680
X13180Y7680
X14180Y7680
X15430Y7680
X16430Y7680
X17430Y7680
X18430Y7680
X19430Y7680
X20430Y7680
X21430Y7680
X19491Y9119
X20637Y9723
X19223Y11137
X17369Y11241
X15869Y11241
X12994Y11116
X15116Y8994
X17991Y9119
X18430Y4680
X19430Y4680
X20430Y4680
X21430Y4680
X21741Y3741
X20491Y3741
X19241Y3741
T04
X15741Y3741
X14491Y3741
X13619Y1619
X12369Y1619
T05
X10680Y1880
X9680Y1980
X8680Y1880
X7680Y1980
X6680Y1880
X5180Y1180
X6680Y2880
X7680Y2980
X8680Y2880
X9680Y2980
X10680Y2880
X10680Y5055
X10680Y6055
X10680Y7055
X5180Y3680
T06
X648Y962
X4512Y1998
X4512Y2862
X648Y3898
T07
X8430Y11055
X10055Y11055
T08
X3930Y8180
M30
