G75*
%MOIN*%
%OFA0B0*%
%FSLAX25Y25*%
%IPPOS*%
%LPD*%
%AMOC8*
5,1,8,0,0,1.08239X$1,22.5*
%
%ADD10C,0.01100*%
%ADD11C,0.00300*%
%ADD12C,0.00800*%
%ADD13C,0.00100*%
%ADD14C,0.00600*%
%ADD15R,0.02000X0.10000*%
%ADD16R,0.07500X0.03000*%
%ADD17C,0.00500*%
%ADD18C,0.00400*%
D10*
X0076895Y0112584D02*
X0076895Y0116521D01*
X0074927Y0114553D02*
X0078864Y0114553D01*
X0107154Y0114553D02*
X0111091Y0114553D01*
D11*
X0116978Y0103045D02*
X0118346Y0103045D01*
X0116294Y0100993D01*
X0115610Y0101677D02*
X0116978Y0100309D01*
X0118035Y0099935D02*
X0120772Y0099935D01*
X0119404Y0098567D01*
X0118720Y0098567D01*
X0118035Y0099251D01*
X0118035Y0099935D01*
X0119404Y0101304D01*
X0120088Y0101304D01*
X0120772Y0100619D01*
X0120772Y0099935D01*
X0121145Y0098878D02*
X0120119Y0097852D01*
X0120119Y0097168D01*
X0121145Y0096141D01*
X0122513Y0097510D01*
X0122887Y0096452D02*
X0123571Y0095768D01*
X0123913Y0096794D02*
X0122202Y0095084D01*
X0123913Y0096794D02*
X0124597Y0096794D01*
X0084393Y0100605D02*
X0082682Y0102315D01*
X0082682Y0102999D01*
X0083708Y0101973D02*
X0083024Y0101289D01*
X0081967Y0100916D02*
X0083335Y0099547D01*
X0082309Y0098521D01*
X0081625Y0098521D01*
X0080599Y0099547D01*
X0079541Y0099174D02*
X0079541Y0096438D01*
X0080226Y0096438D01*
X0080910Y0097122D01*
X0080910Y0097806D01*
X0079541Y0099174D01*
X0078857Y0099174D01*
X0078173Y0098490D01*
X0078173Y0097806D01*
X0079541Y0096438D01*
X0079168Y0095380D02*
X0077800Y0094012D01*
X0078484Y0094696D02*
X0076432Y0096749D01*
X0076432Y0095380D01*
X0122700Y0069653D02*
X0123768Y0068585D01*
X0124835Y0069653D01*
X0124835Y0066450D01*
X0125923Y0066984D02*
X0126457Y0066450D01*
X0128058Y0066450D01*
X0128058Y0068585D01*
X0129145Y0068051D02*
X0129679Y0067518D01*
X0130747Y0067518D01*
X0131281Y0066984D01*
X0130747Y0066450D01*
X0129145Y0066450D01*
X0132368Y0066450D02*
X0133436Y0066450D01*
X0132902Y0066450D02*
X0132902Y0068585D01*
X0132368Y0068585D01*
X0131281Y0068585D02*
X0129679Y0068585D01*
X0129145Y0068051D01*
X0132902Y0069653D02*
X0132902Y0070187D01*
X0134517Y0068051D02*
X0134517Y0066984D01*
X0135051Y0066450D01*
X0136652Y0066450D01*
X0136652Y0068585D02*
X0135051Y0068585D01*
X0134517Y0068051D01*
X0140962Y0069653D02*
X0143097Y0069653D01*
X0142030Y0069653D02*
X0142030Y0066450D01*
X0144185Y0066450D02*
X0144185Y0069653D01*
X0144719Y0068585D02*
X0145786Y0068585D01*
X0146320Y0068051D01*
X0146320Y0066450D01*
X0147408Y0066450D02*
X0148475Y0066450D01*
X0147942Y0066450D02*
X0147942Y0068585D01*
X0147408Y0068585D01*
X0147942Y0069653D02*
X0147942Y0070187D01*
X0149556Y0068585D02*
X0151158Y0068585D01*
X0151691Y0068051D01*
X0151691Y0066450D01*
X0152779Y0066984D02*
X0153313Y0066450D01*
X0154914Y0066450D01*
X0154914Y0065916D02*
X0154914Y0068585D01*
X0153313Y0068585D01*
X0152779Y0068051D01*
X0152779Y0066984D01*
X0154380Y0065382D02*
X0154914Y0065916D01*
X0154380Y0065382D02*
X0153847Y0065382D01*
X0153843Y0063335D02*
X0154377Y0062801D01*
X0154377Y0061200D01*
X0155465Y0061734D02*
X0155465Y0062801D01*
X0155998Y0063335D01*
X0157066Y0063335D01*
X0157600Y0062801D01*
X0157600Y0062268D01*
X0155465Y0062268D01*
X0155465Y0061734D02*
X0155998Y0061200D01*
X0157066Y0061200D01*
X0155461Y0059153D02*
X0155461Y0055950D01*
X0154927Y0055950D02*
X0155995Y0055950D01*
X0157076Y0054882D02*
X0158144Y0055950D01*
X0157610Y0055950D01*
X0157610Y0056484D01*
X0158144Y0056484D01*
X0158144Y0055950D01*
X0155461Y0059153D02*
X0154927Y0059153D01*
X0153313Y0059153D02*
X0153313Y0055950D01*
X0152779Y0055950D02*
X0153847Y0055950D01*
X0151691Y0057018D02*
X0149556Y0057018D01*
X0149556Y0057551D02*
X0150090Y0058085D01*
X0151158Y0058085D01*
X0151691Y0057551D01*
X0151691Y0057018D01*
X0151158Y0055950D02*
X0150090Y0055950D01*
X0149556Y0056484D01*
X0149556Y0057551D01*
X0148469Y0058085D02*
X0148469Y0056484D01*
X0147935Y0055950D01*
X0147401Y0056484D01*
X0146867Y0055950D01*
X0146333Y0056484D01*
X0146333Y0058085D01*
X0145253Y0058085D02*
X0144185Y0058085D01*
X0144719Y0058619D02*
X0144719Y0056484D01*
X0145253Y0055950D01*
X0143104Y0055950D02*
X0142036Y0055950D01*
X0142570Y0055950D02*
X0142570Y0058085D01*
X0142036Y0058085D01*
X0142570Y0059153D02*
X0142570Y0059687D01*
X0142574Y0060132D02*
X0142574Y0063335D01*
X0144175Y0063335D01*
X0144709Y0062801D01*
X0144709Y0061734D01*
X0144175Y0061200D01*
X0142574Y0061200D01*
X0141486Y0061734D02*
X0141486Y0062801D01*
X0140952Y0063335D01*
X0139885Y0063335D01*
X0139351Y0062801D01*
X0139351Y0061734D01*
X0139885Y0061200D01*
X0140952Y0061200D01*
X0141486Y0061734D01*
X0138267Y0063335D02*
X0137733Y0063335D01*
X0136665Y0062268D01*
X0136665Y0063335D02*
X0136665Y0061200D01*
X0135584Y0061200D02*
X0135051Y0061734D01*
X0135051Y0063869D01*
X0135584Y0063335D02*
X0134517Y0063335D01*
X0133429Y0063335D02*
X0131828Y0063335D01*
X0131294Y0062801D01*
X0131294Y0061734D01*
X0131828Y0061200D01*
X0133429Y0061200D01*
X0130206Y0062268D02*
X0128071Y0062268D01*
X0128071Y0062801D02*
X0128605Y0063335D01*
X0129673Y0063335D01*
X0130206Y0062801D01*
X0130206Y0062268D01*
X0129673Y0061200D02*
X0128605Y0061200D01*
X0128071Y0061734D01*
X0128071Y0062801D01*
X0126990Y0061200D02*
X0125923Y0061200D01*
X0126457Y0061200D02*
X0126457Y0064403D01*
X0125923Y0064403D01*
X0124835Y0064403D02*
X0122700Y0064403D01*
X0122700Y0061200D01*
X0124835Y0061200D01*
X0123768Y0062801D02*
X0122700Y0062801D01*
X0122700Y0059153D02*
X0124835Y0059153D01*
X0123768Y0059153D02*
X0123768Y0055950D01*
X0125923Y0056484D02*
X0125923Y0057551D01*
X0126457Y0058085D01*
X0127524Y0058085D01*
X0128058Y0057551D01*
X0128058Y0056484D01*
X0127524Y0055950D01*
X0126457Y0055950D01*
X0125923Y0056484D01*
X0129145Y0055950D02*
X0129145Y0058085D01*
X0129679Y0058085D01*
X0130213Y0057551D01*
X0130747Y0058085D01*
X0131281Y0057551D01*
X0131281Y0055950D01*
X0130213Y0055950D02*
X0130213Y0057551D01*
X0135591Y0055950D02*
X0136659Y0057018D01*
X0137726Y0055950D01*
X0137726Y0059153D01*
X0138814Y0059153D02*
X0138814Y0055950D01*
X0138814Y0057551D02*
X0139348Y0058085D01*
X0140415Y0058085D01*
X0140949Y0057551D01*
X0140949Y0055950D01*
X0135591Y0055950D02*
X0135591Y0059153D01*
X0145796Y0061200D02*
X0145796Y0064403D01*
X0146330Y0063335D02*
X0147398Y0063335D01*
X0147932Y0062801D01*
X0147932Y0061200D01*
X0149019Y0061734D02*
X0149553Y0061200D01*
X0150620Y0061200D01*
X0151154Y0061734D01*
X0151154Y0062801D01*
X0150620Y0063335D01*
X0149553Y0063335D01*
X0149019Y0062801D01*
X0149019Y0061734D01*
X0146330Y0063335D02*
X0145796Y0062801D01*
X0149556Y0066450D02*
X0149556Y0068585D01*
X0144719Y0068585D02*
X0144185Y0068051D01*
X0152242Y0063335D02*
X0153843Y0063335D01*
X0152242Y0063335D02*
X0152242Y0061200D01*
X0152779Y0059153D02*
X0153313Y0059153D01*
X0161910Y0061200D02*
X0161910Y0064403D01*
X0162978Y0063335D01*
X0164045Y0064403D01*
X0164045Y0061200D01*
X0165133Y0061734D02*
X0165667Y0062268D01*
X0167268Y0062268D01*
X0167268Y0062801D02*
X0167268Y0061200D01*
X0165667Y0061200D01*
X0165133Y0061734D01*
X0166734Y0063335D02*
X0167268Y0062801D01*
X0166734Y0063335D02*
X0165667Y0063335D01*
X0168356Y0063335D02*
X0168889Y0063335D01*
X0168889Y0061200D01*
X0168356Y0061200D02*
X0169423Y0061200D01*
X0170504Y0061200D02*
X0170504Y0063335D01*
X0172105Y0063335D01*
X0172639Y0062801D01*
X0172639Y0061200D01*
X0176950Y0061200D02*
X0176950Y0064403D01*
X0178551Y0064403D01*
X0179085Y0063869D01*
X0179085Y0062801D01*
X0178551Y0062268D01*
X0176950Y0062268D01*
X0180172Y0061734D02*
X0180706Y0061200D01*
X0181774Y0061200D01*
X0182307Y0061734D01*
X0183395Y0061200D02*
X0184996Y0061200D01*
X0185530Y0061734D01*
X0185530Y0062268D01*
X0184996Y0062801D01*
X0183395Y0062801D01*
X0182307Y0063869D02*
X0181774Y0064403D01*
X0180706Y0064403D01*
X0180172Y0063869D01*
X0180172Y0061734D01*
X0183395Y0061200D02*
X0183395Y0064403D01*
X0184996Y0064403D01*
X0185530Y0063869D01*
X0185530Y0063335D01*
X0184996Y0062801D01*
X0185003Y0059687D02*
X0185003Y0059153D01*
X0185003Y0058085D02*
X0185003Y0055950D01*
X0184469Y0055950D02*
X0185537Y0055950D01*
X0186618Y0055950D02*
X0187685Y0055950D01*
X0187152Y0055950D02*
X0187152Y0059153D01*
X0186618Y0059153D01*
X0185003Y0058085D02*
X0184469Y0058085D01*
X0183382Y0057551D02*
X0181247Y0057551D01*
X0181247Y0055950D02*
X0181247Y0059153D01*
X0183382Y0059153D02*
X0183382Y0055950D01*
X0176936Y0057018D02*
X0174801Y0057018D01*
X0174801Y0057551D02*
X0175335Y0058085D01*
X0176402Y0058085D01*
X0176936Y0057551D01*
X0176936Y0057018D01*
X0176402Y0055950D02*
X0175335Y0055950D01*
X0174801Y0056484D01*
X0174801Y0057551D01*
X0173713Y0057551D02*
X0173713Y0055950D01*
X0173713Y0057551D02*
X0173180Y0058085D01*
X0171578Y0058085D01*
X0171578Y0055950D01*
X0170494Y0058085D02*
X0169960Y0058085D01*
X0168893Y0057018D01*
X0168893Y0058085D02*
X0168893Y0055950D01*
X0167805Y0057018D02*
X0165670Y0057018D01*
X0165670Y0057551D02*
X0166204Y0058085D01*
X0167271Y0058085D01*
X0167805Y0057551D01*
X0167805Y0057018D01*
X0167271Y0055950D02*
X0166204Y0055950D01*
X0165670Y0056484D01*
X0165670Y0057551D01*
X0164582Y0057551D02*
X0162447Y0057551D01*
X0162447Y0055950D02*
X0162447Y0059153D01*
X0164582Y0059153D02*
X0164582Y0055950D01*
X0168889Y0064403D02*
X0168889Y0064937D01*
X0169427Y0066450D02*
X0171028Y0066450D01*
X0171028Y0068585D01*
X0172115Y0069653D02*
X0172649Y0069653D01*
X0172649Y0066450D01*
X0172115Y0066450D02*
X0173183Y0066450D01*
X0174264Y0066984D02*
X0174798Y0067518D01*
X0176399Y0067518D01*
X0176399Y0068051D02*
X0176399Y0066450D01*
X0174798Y0066450D01*
X0174264Y0066984D01*
X0174798Y0068585D02*
X0175865Y0068585D01*
X0176399Y0068051D01*
X0177487Y0067518D02*
X0178554Y0068585D01*
X0179088Y0068585D01*
X0177487Y0068585D02*
X0177487Y0066450D01*
X0169427Y0066450D02*
X0168893Y0066984D01*
X0168893Y0068585D01*
X0167805Y0068585D02*
X0166204Y0068585D01*
X0165670Y0068051D01*
X0165670Y0066984D01*
X0166204Y0066450D01*
X0167805Y0066450D01*
X0167805Y0069653D01*
X0164582Y0068051D02*
X0164582Y0066984D01*
X0164049Y0066450D01*
X0162981Y0066450D01*
X0162447Y0066984D01*
X0162447Y0068051D01*
X0162981Y0068585D01*
X0164049Y0068585D01*
X0164582Y0068051D01*
X0161360Y0066450D02*
X0161360Y0069653D01*
X0160292Y0068585D01*
X0159224Y0069653D01*
X0159224Y0066450D01*
X0188766Y0059153D02*
X0189300Y0059153D01*
X0189300Y0055950D01*
X0188766Y0055950D02*
X0189834Y0055950D01*
X0190915Y0054882D02*
X0191982Y0055950D01*
X0191449Y0055950D01*
X0191449Y0056484D01*
X0191982Y0056484D01*
X0191982Y0055950D01*
X0196286Y0055950D02*
X0196286Y0059153D01*
X0194665Y0061200D02*
X0195198Y0061734D01*
X0194665Y0061200D02*
X0193597Y0061200D01*
X0193063Y0061734D01*
X0193063Y0063869D01*
X0193597Y0064403D01*
X0194665Y0064403D01*
X0195198Y0063869D01*
X0196286Y0062801D02*
X0198421Y0062801D01*
X0199509Y0062801D02*
X0201110Y0062801D01*
X0201644Y0062268D01*
X0201644Y0061734D01*
X0201110Y0061200D01*
X0199509Y0061200D01*
X0199509Y0064403D01*
X0201110Y0064403D01*
X0201644Y0063869D01*
X0201644Y0063335D01*
X0201110Y0062801D01*
X0202732Y0063869D02*
X0203799Y0062801D01*
X0203799Y0061200D01*
X0203799Y0062801D02*
X0204867Y0063869D01*
X0204867Y0064403D01*
X0202732Y0064403D02*
X0202732Y0063869D01*
X0205954Y0062801D02*
X0208089Y0062801D01*
X0209177Y0063335D02*
X0209711Y0062801D01*
X0210778Y0062801D01*
X0211312Y0062268D01*
X0211312Y0061734D01*
X0210778Y0061200D01*
X0209711Y0061200D01*
X0209177Y0061734D01*
X0212400Y0061200D02*
X0212400Y0063335D01*
X0213467Y0064403D01*
X0214535Y0063335D01*
X0214535Y0061200D01*
X0214535Y0062801D02*
X0212400Y0062801D01*
X0211312Y0063869D02*
X0210778Y0064403D01*
X0209711Y0064403D01*
X0209177Y0063869D01*
X0209177Y0063335D01*
X0208089Y0059153D02*
X0208089Y0055950D01*
X0206488Y0055950D01*
X0205954Y0056484D01*
X0205954Y0057551D01*
X0206488Y0058085D01*
X0208089Y0058085D01*
X0209177Y0057551D02*
X0209177Y0056484D01*
X0209711Y0055950D01*
X0210778Y0055950D01*
X0211312Y0056484D01*
X0211312Y0057551D01*
X0210778Y0058085D01*
X0209711Y0058085D01*
X0209177Y0057551D01*
X0212400Y0058085D02*
X0212400Y0055950D01*
X0214535Y0055950D02*
X0214535Y0057551D01*
X0214001Y0058085D01*
X0212400Y0058085D01*
X0204867Y0057551D02*
X0204867Y0055950D01*
X0204867Y0057551D02*
X0204333Y0058085D01*
X0202732Y0058085D01*
X0202732Y0055950D01*
X0201644Y0056484D02*
X0201644Y0057551D01*
X0201110Y0058085D01*
X0200043Y0058085D01*
X0199509Y0057551D01*
X0199509Y0056484D01*
X0200043Y0055950D01*
X0201110Y0055950D01*
X0201644Y0056484D01*
X0198421Y0055950D02*
X0196286Y0055950D01*
X0191442Y0061200D02*
X0191976Y0061734D01*
X0191442Y0061200D02*
X0190374Y0061200D01*
X0189841Y0061734D01*
X0189841Y0063869D01*
X0190374Y0064403D01*
X0191442Y0064403D01*
X0191976Y0063869D01*
X0125923Y0066984D02*
X0125923Y0068585D01*
X0122700Y0069653D02*
X0122700Y0066450D01*
X0139950Y0009903D02*
X0141551Y0009903D01*
X0142085Y0009369D01*
X0142085Y0008301D01*
X0141551Y0007768D01*
X0139950Y0007768D01*
X0141018Y0007768D02*
X0142085Y0006700D01*
X0143173Y0007234D02*
X0143173Y0008301D01*
X0143707Y0008835D01*
X0144774Y0008835D01*
X0145308Y0008301D01*
X0145308Y0007768D01*
X0143173Y0007768D01*
X0143173Y0007234D02*
X0143707Y0006700D01*
X0144774Y0006700D01*
X0146395Y0008835D02*
X0147463Y0006700D01*
X0148531Y0008835D01*
X0149618Y0008835D02*
X0150152Y0008835D01*
X0150152Y0006700D01*
X0149618Y0006700D02*
X0150686Y0006700D01*
X0151767Y0006700D02*
X0153368Y0006700D01*
X0153902Y0007234D01*
X0153368Y0007768D01*
X0152301Y0007768D01*
X0151767Y0008301D01*
X0152301Y0008835D01*
X0153902Y0008835D01*
X0154989Y0008835D02*
X0155523Y0008835D01*
X0155523Y0006700D01*
X0154989Y0006700D02*
X0156057Y0006700D01*
X0157138Y0007234D02*
X0157138Y0008301D01*
X0157672Y0008835D01*
X0158739Y0008835D01*
X0159273Y0008301D01*
X0159273Y0007234D01*
X0158739Y0006700D01*
X0157672Y0006700D01*
X0157138Y0007234D01*
X0160361Y0006700D02*
X0160361Y0008835D01*
X0161962Y0008835D01*
X0162496Y0008301D01*
X0162496Y0006700D01*
X0166806Y0007234D02*
X0167340Y0006700D01*
X0168408Y0006700D01*
X0168941Y0007234D01*
X0168941Y0008301D01*
X0168408Y0008835D01*
X0167874Y0008835D01*
X0166806Y0008301D01*
X0166806Y0009903D01*
X0168941Y0009903D01*
X0173252Y0009903D02*
X0174853Y0009903D01*
X0175387Y0009369D01*
X0175387Y0008301D01*
X0174853Y0007768D01*
X0173252Y0007768D01*
X0173252Y0006700D02*
X0173252Y0009903D01*
X0176474Y0009369D02*
X0176474Y0007234D01*
X0177008Y0006700D01*
X0178076Y0006700D01*
X0178610Y0007234D01*
X0179697Y0006700D02*
X0181299Y0006700D01*
X0181832Y0007234D01*
X0181832Y0007768D01*
X0181299Y0008301D01*
X0179697Y0008301D01*
X0178610Y0009369D02*
X0178076Y0009903D01*
X0177008Y0009903D01*
X0176474Y0009369D01*
X0179697Y0009903D02*
X0179697Y0006700D01*
X0181299Y0008301D02*
X0181832Y0008835D01*
X0181832Y0009369D01*
X0181299Y0009903D01*
X0179697Y0009903D01*
X0186143Y0008835D02*
X0186143Y0006700D01*
X0186143Y0008301D02*
X0188278Y0008301D01*
X0188278Y0008835D02*
X0188278Y0006700D01*
X0189365Y0007234D02*
X0189899Y0006700D01*
X0191501Y0006700D01*
X0191501Y0008835D01*
X0192588Y0008301D02*
X0192588Y0007234D01*
X0193122Y0006700D01*
X0194723Y0006700D01*
X0194723Y0006166D02*
X0194723Y0008835D01*
X0193122Y0008835D01*
X0192588Y0008301D01*
X0195811Y0008835D02*
X0195811Y0007234D01*
X0196345Y0006700D01*
X0197946Y0006700D01*
X0197946Y0008835D01*
X0199034Y0008301D02*
X0199568Y0008835D01*
X0201169Y0008835D01*
X0202256Y0008835D02*
X0203324Y0008835D01*
X0202790Y0009369D02*
X0202790Y0007234D01*
X0203324Y0006700D01*
X0201169Y0007234D02*
X0200635Y0007768D01*
X0199568Y0007768D01*
X0199034Y0008301D01*
X0199034Y0006700D02*
X0200635Y0006700D01*
X0201169Y0007234D01*
X0207628Y0006700D02*
X0209763Y0008835D01*
X0209763Y0009369D01*
X0209229Y0009903D01*
X0208162Y0009903D01*
X0207628Y0009369D01*
X0207628Y0006700D02*
X0209763Y0006700D01*
X0210850Y0007234D02*
X0212986Y0009369D01*
X0212986Y0007234D01*
X0212452Y0006700D01*
X0211384Y0006700D01*
X0210850Y0007234D01*
X0210850Y0009369D01*
X0211384Y0009903D01*
X0212452Y0009903D01*
X0212986Y0009369D01*
X0214073Y0008835D02*
X0215141Y0009903D01*
X0215141Y0006700D01*
X0216208Y0006700D02*
X0214073Y0006700D01*
X0217296Y0006700D02*
X0217296Y0007234D01*
X0219431Y0009369D01*
X0219431Y0009903D01*
X0217296Y0009903D01*
X0194723Y0006166D02*
X0194190Y0005632D01*
X0193656Y0005632D01*
X0189365Y0007234D02*
X0189365Y0008835D01*
X0188278Y0008835D02*
X0187210Y0009903D01*
X0186143Y0008835D01*
X0155523Y0009903D02*
X0155523Y0010437D01*
X0150152Y0010437D02*
X0150152Y0009903D01*
X0139950Y0009903D02*
X0139950Y0006700D01*
D12*
X0109300Y0045550D02*
X0104300Y0045550D01*
X0101800Y0048050D01*
X0101800Y0053050D01*
X0104300Y0055550D01*
X0101800Y0058050D01*
X0101800Y0063050D01*
X0104300Y0065550D01*
X0101800Y0068050D01*
X0101800Y0073050D01*
X0104300Y0075550D01*
X0109300Y0075550D01*
X0111800Y0073050D01*
X0111800Y0068050D01*
X0109300Y0065550D01*
X0111800Y0063050D01*
X0111800Y0058050D01*
X0109300Y0055550D01*
X0111800Y0053050D01*
X0111800Y0048050D01*
X0109300Y0045550D01*
X0056800Y0039300D02*
X0056800Y0034300D01*
X0054300Y0031800D01*
X0049300Y0031800D01*
X0046800Y0034300D01*
X0046800Y0039300D01*
X0049300Y0041800D01*
X0054300Y0041800D01*
X0056800Y0039300D01*
X0054300Y0016800D02*
X0049300Y0016800D01*
X0046800Y0014300D01*
X0046800Y0009300D01*
X0049300Y0006800D01*
X0054300Y0006800D01*
X0056800Y0009300D01*
X0056800Y0014300D01*
X0054300Y0016800D01*
X0092300Y0083800D02*
X0096300Y0083800D01*
X0079457Y0089300D02*
X0079460Y0089542D01*
X0079469Y0089783D01*
X0079484Y0090024D01*
X0079504Y0090265D01*
X0079531Y0090505D01*
X0079564Y0090744D01*
X0079602Y0090983D01*
X0079646Y0091220D01*
X0079696Y0091457D01*
X0079752Y0091692D01*
X0079814Y0091925D01*
X0079881Y0092157D01*
X0079954Y0092388D01*
X0080032Y0092616D01*
X0080117Y0092842D01*
X0080206Y0093067D01*
X0080301Y0093289D01*
X0080402Y0093508D01*
X0080508Y0093726D01*
X0080619Y0093940D01*
X0080736Y0094152D01*
X0080857Y0094360D01*
X0080984Y0094566D01*
X0081116Y0094768D01*
X0081253Y0094968D01*
X0081394Y0095163D01*
X0081540Y0095356D01*
X0081691Y0095544D01*
X0081847Y0095729D01*
X0082007Y0095910D01*
X0082171Y0096087D01*
X0082340Y0096260D01*
X0082513Y0096429D01*
X0082690Y0096593D01*
X0082871Y0096753D01*
X0083056Y0096909D01*
X0083244Y0097060D01*
X0083437Y0097206D01*
X0083632Y0097347D01*
X0083832Y0097484D01*
X0084034Y0097616D01*
X0084240Y0097743D01*
X0084448Y0097864D01*
X0084660Y0097981D01*
X0084874Y0098092D01*
X0085092Y0098198D01*
X0085311Y0098299D01*
X0085533Y0098394D01*
X0085758Y0098483D01*
X0085984Y0098568D01*
X0086212Y0098646D01*
X0086443Y0098719D01*
X0086675Y0098786D01*
X0086908Y0098848D01*
X0087143Y0098904D01*
X0087380Y0098954D01*
X0087617Y0098998D01*
X0087856Y0099036D01*
X0088095Y0099069D01*
X0088335Y0099096D01*
X0088576Y0099116D01*
X0088817Y0099131D01*
X0089058Y0099140D01*
X0089300Y0099143D01*
X0089542Y0099140D01*
X0089783Y0099131D01*
X0090024Y0099116D01*
X0090265Y0099096D01*
X0090505Y0099069D01*
X0090744Y0099036D01*
X0090983Y0098998D01*
X0091220Y0098954D01*
X0091457Y0098904D01*
X0091692Y0098848D01*
X0091925Y0098786D01*
X0092157Y0098719D01*
X0092388Y0098646D01*
X0092616Y0098568D01*
X0092842Y0098483D01*
X0093067Y0098394D01*
X0093289Y0098299D01*
X0093508Y0098198D01*
X0093726Y0098092D01*
X0093940Y0097981D01*
X0094152Y0097864D01*
X0094360Y0097743D01*
X0094566Y0097616D01*
X0094768Y0097484D01*
X0094968Y0097347D01*
X0095163Y0097206D01*
X0095356Y0097060D01*
X0095544Y0096909D01*
X0095729Y0096753D01*
X0095910Y0096593D01*
X0096087Y0096429D01*
X0096260Y0096260D01*
X0096429Y0096087D01*
X0096593Y0095910D01*
X0096753Y0095729D01*
X0096909Y0095544D01*
X0097060Y0095356D01*
X0097206Y0095163D01*
X0097347Y0094968D01*
X0097484Y0094768D01*
X0097616Y0094566D01*
X0097743Y0094360D01*
X0097864Y0094152D01*
X0097981Y0093940D01*
X0098092Y0093726D01*
X0098198Y0093508D01*
X0098299Y0093289D01*
X0098394Y0093067D01*
X0098483Y0092842D01*
X0098568Y0092616D01*
X0098646Y0092388D01*
X0098719Y0092157D01*
X0098786Y0091925D01*
X0098848Y0091692D01*
X0098904Y0091457D01*
X0098954Y0091220D01*
X0098998Y0090983D01*
X0099036Y0090744D01*
X0099069Y0090505D01*
X0099096Y0090265D01*
X0099116Y0090024D01*
X0099131Y0089783D01*
X0099140Y0089542D01*
X0099143Y0089300D01*
X0099140Y0089058D01*
X0099131Y0088817D01*
X0099116Y0088576D01*
X0099096Y0088335D01*
X0099069Y0088095D01*
X0099036Y0087856D01*
X0098998Y0087617D01*
X0098954Y0087380D01*
X0098904Y0087143D01*
X0098848Y0086908D01*
X0098786Y0086675D01*
X0098719Y0086443D01*
X0098646Y0086212D01*
X0098568Y0085984D01*
X0098483Y0085758D01*
X0098394Y0085533D01*
X0098299Y0085311D01*
X0098198Y0085092D01*
X0098092Y0084874D01*
X0097981Y0084660D01*
X0097864Y0084448D01*
X0097743Y0084240D01*
X0097616Y0084034D01*
X0097484Y0083832D01*
X0097347Y0083632D01*
X0097206Y0083437D01*
X0097060Y0083244D01*
X0096909Y0083056D01*
X0096753Y0082871D01*
X0096593Y0082690D01*
X0096429Y0082513D01*
X0096260Y0082340D01*
X0096087Y0082171D01*
X0095910Y0082007D01*
X0095729Y0081847D01*
X0095544Y0081691D01*
X0095356Y0081540D01*
X0095163Y0081394D01*
X0094968Y0081253D01*
X0094768Y0081116D01*
X0094566Y0080984D01*
X0094360Y0080857D01*
X0094152Y0080736D01*
X0093940Y0080619D01*
X0093726Y0080508D01*
X0093508Y0080402D01*
X0093289Y0080301D01*
X0093067Y0080206D01*
X0092842Y0080117D01*
X0092616Y0080032D01*
X0092388Y0079954D01*
X0092157Y0079881D01*
X0091925Y0079814D01*
X0091692Y0079752D01*
X0091457Y0079696D01*
X0091220Y0079646D01*
X0090983Y0079602D01*
X0090744Y0079564D01*
X0090505Y0079531D01*
X0090265Y0079504D01*
X0090024Y0079484D01*
X0089783Y0079469D01*
X0089542Y0079460D01*
X0089300Y0079457D01*
X0089058Y0079460D01*
X0088817Y0079469D01*
X0088576Y0079484D01*
X0088335Y0079504D01*
X0088095Y0079531D01*
X0087856Y0079564D01*
X0087617Y0079602D01*
X0087380Y0079646D01*
X0087143Y0079696D01*
X0086908Y0079752D01*
X0086675Y0079814D01*
X0086443Y0079881D01*
X0086212Y0079954D01*
X0085984Y0080032D01*
X0085758Y0080117D01*
X0085533Y0080206D01*
X0085311Y0080301D01*
X0085092Y0080402D01*
X0084874Y0080508D01*
X0084660Y0080619D01*
X0084448Y0080736D01*
X0084240Y0080857D01*
X0084034Y0080984D01*
X0083832Y0081116D01*
X0083632Y0081253D01*
X0083437Y0081394D01*
X0083244Y0081540D01*
X0083056Y0081691D01*
X0082871Y0081847D01*
X0082690Y0082007D01*
X0082513Y0082171D01*
X0082340Y0082340D01*
X0082171Y0082513D01*
X0082007Y0082690D01*
X0081847Y0082871D01*
X0081691Y0083056D01*
X0081540Y0083244D01*
X0081394Y0083437D01*
X0081253Y0083632D01*
X0081116Y0083832D01*
X0080984Y0084034D01*
X0080857Y0084240D01*
X0080736Y0084448D01*
X0080619Y0084660D01*
X0080508Y0084874D01*
X0080402Y0085092D01*
X0080301Y0085311D01*
X0080206Y0085533D01*
X0080117Y0085758D01*
X0080032Y0085984D01*
X0079954Y0086212D01*
X0079881Y0086443D01*
X0079814Y0086675D01*
X0079752Y0086908D01*
X0079696Y0087143D01*
X0079646Y0087380D01*
X0079602Y0087617D01*
X0079564Y0087856D01*
X0079531Y0088095D01*
X0079504Y0088335D01*
X0079484Y0088576D01*
X0079469Y0088817D01*
X0079460Y0089058D01*
X0079457Y0089300D01*
X0101957Y0089300D02*
X0101960Y0089542D01*
X0101969Y0089783D01*
X0101984Y0090024D01*
X0102004Y0090265D01*
X0102031Y0090505D01*
X0102064Y0090744D01*
X0102102Y0090983D01*
X0102146Y0091220D01*
X0102196Y0091457D01*
X0102252Y0091692D01*
X0102314Y0091925D01*
X0102381Y0092157D01*
X0102454Y0092388D01*
X0102532Y0092616D01*
X0102617Y0092842D01*
X0102706Y0093067D01*
X0102801Y0093289D01*
X0102902Y0093508D01*
X0103008Y0093726D01*
X0103119Y0093940D01*
X0103236Y0094152D01*
X0103357Y0094360D01*
X0103484Y0094566D01*
X0103616Y0094768D01*
X0103753Y0094968D01*
X0103894Y0095163D01*
X0104040Y0095356D01*
X0104191Y0095544D01*
X0104347Y0095729D01*
X0104507Y0095910D01*
X0104671Y0096087D01*
X0104840Y0096260D01*
X0105013Y0096429D01*
X0105190Y0096593D01*
X0105371Y0096753D01*
X0105556Y0096909D01*
X0105744Y0097060D01*
X0105937Y0097206D01*
X0106132Y0097347D01*
X0106332Y0097484D01*
X0106534Y0097616D01*
X0106740Y0097743D01*
X0106948Y0097864D01*
X0107160Y0097981D01*
X0107374Y0098092D01*
X0107592Y0098198D01*
X0107811Y0098299D01*
X0108033Y0098394D01*
X0108258Y0098483D01*
X0108484Y0098568D01*
X0108712Y0098646D01*
X0108943Y0098719D01*
X0109175Y0098786D01*
X0109408Y0098848D01*
X0109643Y0098904D01*
X0109880Y0098954D01*
X0110117Y0098998D01*
X0110356Y0099036D01*
X0110595Y0099069D01*
X0110835Y0099096D01*
X0111076Y0099116D01*
X0111317Y0099131D01*
X0111558Y0099140D01*
X0111800Y0099143D01*
X0112042Y0099140D01*
X0112283Y0099131D01*
X0112524Y0099116D01*
X0112765Y0099096D01*
X0113005Y0099069D01*
X0113244Y0099036D01*
X0113483Y0098998D01*
X0113720Y0098954D01*
X0113957Y0098904D01*
X0114192Y0098848D01*
X0114425Y0098786D01*
X0114657Y0098719D01*
X0114888Y0098646D01*
X0115116Y0098568D01*
X0115342Y0098483D01*
X0115567Y0098394D01*
X0115789Y0098299D01*
X0116008Y0098198D01*
X0116226Y0098092D01*
X0116440Y0097981D01*
X0116652Y0097864D01*
X0116860Y0097743D01*
X0117066Y0097616D01*
X0117268Y0097484D01*
X0117468Y0097347D01*
X0117663Y0097206D01*
X0117856Y0097060D01*
X0118044Y0096909D01*
X0118229Y0096753D01*
X0118410Y0096593D01*
X0118587Y0096429D01*
X0118760Y0096260D01*
X0118929Y0096087D01*
X0119093Y0095910D01*
X0119253Y0095729D01*
X0119409Y0095544D01*
X0119560Y0095356D01*
X0119706Y0095163D01*
X0119847Y0094968D01*
X0119984Y0094768D01*
X0120116Y0094566D01*
X0120243Y0094360D01*
X0120364Y0094152D01*
X0120481Y0093940D01*
X0120592Y0093726D01*
X0120698Y0093508D01*
X0120799Y0093289D01*
X0120894Y0093067D01*
X0120983Y0092842D01*
X0121068Y0092616D01*
X0121146Y0092388D01*
X0121219Y0092157D01*
X0121286Y0091925D01*
X0121348Y0091692D01*
X0121404Y0091457D01*
X0121454Y0091220D01*
X0121498Y0090983D01*
X0121536Y0090744D01*
X0121569Y0090505D01*
X0121596Y0090265D01*
X0121616Y0090024D01*
X0121631Y0089783D01*
X0121640Y0089542D01*
X0121643Y0089300D01*
X0121640Y0089058D01*
X0121631Y0088817D01*
X0121616Y0088576D01*
X0121596Y0088335D01*
X0121569Y0088095D01*
X0121536Y0087856D01*
X0121498Y0087617D01*
X0121454Y0087380D01*
X0121404Y0087143D01*
X0121348Y0086908D01*
X0121286Y0086675D01*
X0121219Y0086443D01*
X0121146Y0086212D01*
X0121068Y0085984D01*
X0120983Y0085758D01*
X0120894Y0085533D01*
X0120799Y0085311D01*
X0120698Y0085092D01*
X0120592Y0084874D01*
X0120481Y0084660D01*
X0120364Y0084448D01*
X0120243Y0084240D01*
X0120116Y0084034D01*
X0119984Y0083832D01*
X0119847Y0083632D01*
X0119706Y0083437D01*
X0119560Y0083244D01*
X0119409Y0083056D01*
X0119253Y0082871D01*
X0119093Y0082690D01*
X0118929Y0082513D01*
X0118760Y0082340D01*
X0118587Y0082171D01*
X0118410Y0082007D01*
X0118229Y0081847D01*
X0118044Y0081691D01*
X0117856Y0081540D01*
X0117663Y0081394D01*
X0117468Y0081253D01*
X0117268Y0081116D01*
X0117066Y0080984D01*
X0116860Y0080857D01*
X0116652Y0080736D01*
X0116440Y0080619D01*
X0116226Y0080508D01*
X0116008Y0080402D01*
X0115789Y0080301D01*
X0115567Y0080206D01*
X0115342Y0080117D01*
X0115116Y0080032D01*
X0114888Y0079954D01*
X0114657Y0079881D01*
X0114425Y0079814D01*
X0114192Y0079752D01*
X0113957Y0079696D01*
X0113720Y0079646D01*
X0113483Y0079602D01*
X0113244Y0079564D01*
X0113005Y0079531D01*
X0112765Y0079504D01*
X0112524Y0079484D01*
X0112283Y0079469D01*
X0112042Y0079460D01*
X0111800Y0079457D01*
X0111558Y0079460D01*
X0111317Y0079469D01*
X0111076Y0079484D01*
X0110835Y0079504D01*
X0110595Y0079531D01*
X0110356Y0079564D01*
X0110117Y0079602D01*
X0109880Y0079646D01*
X0109643Y0079696D01*
X0109408Y0079752D01*
X0109175Y0079814D01*
X0108943Y0079881D01*
X0108712Y0079954D01*
X0108484Y0080032D01*
X0108258Y0080117D01*
X0108033Y0080206D01*
X0107811Y0080301D01*
X0107592Y0080402D01*
X0107374Y0080508D01*
X0107160Y0080619D01*
X0106948Y0080736D01*
X0106740Y0080857D01*
X0106534Y0080984D01*
X0106332Y0081116D01*
X0106132Y0081253D01*
X0105937Y0081394D01*
X0105744Y0081540D01*
X0105556Y0081691D01*
X0105371Y0081847D01*
X0105190Y0082007D01*
X0105013Y0082171D01*
X0104840Y0082340D01*
X0104671Y0082513D01*
X0104507Y0082690D01*
X0104347Y0082871D01*
X0104191Y0083056D01*
X0104040Y0083244D01*
X0103894Y0083437D01*
X0103753Y0083632D01*
X0103616Y0083832D01*
X0103484Y0084034D01*
X0103357Y0084240D01*
X0103236Y0084448D01*
X0103119Y0084660D01*
X0103008Y0084874D01*
X0102902Y0085092D01*
X0102801Y0085311D01*
X0102706Y0085533D01*
X0102617Y0085758D01*
X0102532Y0085984D01*
X0102454Y0086212D01*
X0102381Y0086443D01*
X0102314Y0086675D01*
X0102252Y0086908D01*
X0102196Y0087143D01*
X0102146Y0087380D01*
X0102102Y0087617D01*
X0102064Y0087856D01*
X0102031Y0088095D01*
X0102004Y0088335D01*
X0101984Y0088576D01*
X0101969Y0088817D01*
X0101960Y0089058D01*
X0101957Y0089300D01*
X0114800Y0083800D02*
X0118800Y0083800D01*
D13*
X0114878Y0081750D02*
X0113877Y0081750D01*
X0114377Y0081750D02*
X0114377Y0083251D01*
X0113877Y0082751D01*
X0113404Y0083001D02*
X0113154Y0083251D01*
X0112654Y0083251D01*
X0112403Y0083001D01*
X0112403Y0082000D01*
X0112654Y0081750D01*
X0113154Y0081750D01*
X0113404Y0082000D01*
X0092378Y0081750D02*
X0091377Y0081750D01*
X0092378Y0082751D01*
X0092378Y0083001D01*
X0092127Y0083251D01*
X0091627Y0083251D01*
X0091377Y0083001D01*
X0090904Y0083001D02*
X0090654Y0083251D01*
X0090154Y0083251D01*
X0089903Y0083001D01*
X0089903Y0082000D01*
X0090154Y0081750D01*
X0090654Y0081750D01*
X0090904Y0082000D01*
D14*
X0016778Y0017559D02*
X0019367Y0007900D01*
X0034821Y0012041D01*
X0032233Y0021700D01*
X0016778Y0017559D01*
X0023385Y0014153D02*
X0025800Y0014800D01*
X0026447Y0012385D01*
X0025800Y0014800D02*
X0025153Y0017215D01*
X0025800Y0014800D02*
X0029017Y0018250D01*
X0030311Y0013420D01*
X0025800Y0014800D01*
X0031596Y0016353D01*
X0032233Y0026900D02*
X0034821Y0036559D01*
X0019367Y0040700D01*
X0016778Y0031041D01*
X0032233Y0026900D01*
X0025153Y0031385D02*
X0025800Y0033800D01*
X0026447Y0036215D01*
X0025800Y0033800D02*
X0021289Y0032420D01*
X0022583Y0037250D01*
X0025800Y0033800D01*
X0020004Y0035353D01*
X0025800Y0033800D02*
X0028215Y0033153D01*
X0076800Y0049300D02*
X0076800Y0074300D01*
X0076802Y0074387D01*
X0076808Y0074474D01*
X0076817Y0074561D01*
X0076830Y0074647D01*
X0076847Y0074733D01*
X0076868Y0074818D01*
X0076893Y0074901D01*
X0076921Y0074984D01*
X0076952Y0075065D01*
X0076987Y0075145D01*
X0077026Y0075223D01*
X0077068Y0075300D01*
X0077113Y0075375D01*
X0077162Y0075447D01*
X0077213Y0075518D01*
X0077268Y0075586D01*
X0077325Y0075651D01*
X0077386Y0075714D01*
X0077449Y0075775D01*
X0077514Y0075832D01*
X0077582Y0075887D01*
X0077653Y0075938D01*
X0077725Y0075987D01*
X0077800Y0076032D01*
X0077877Y0076074D01*
X0077955Y0076113D01*
X0078035Y0076148D01*
X0078116Y0076179D01*
X0078199Y0076207D01*
X0078282Y0076232D01*
X0078367Y0076253D01*
X0078453Y0076270D01*
X0078539Y0076283D01*
X0078626Y0076292D01*
X0078713Y0076298D01*
X0078800Y0076300D01*
X0084800Y0076300D01*
X0084800Y0074800D01*
X0089300Y0074300D02*
X0089300Y0049300D01*
X0089302Y0049213D01*
X0089308Y0049126D01*
X0089317Y0049039D01*
X0089330Y0048953D01*
X0089347Y0048867D01*
X0089368Y0048782D01*
X0089393Y0048699D01*
X0089421Y0048616D01*
X0089452Y0048535D01*
X0089487Y0048455D01*
X0089526Y0048377D01*
X0089568Y0048300D01*
X0089613Y0048225D01*
X0089662Y0048153D01*
X0089713Y0048082D01*
X0089768Y0048014D01*
X0089825Y0047949D01*
X0089886Y0047886D01*
X0089949Y0047825D01*
X0090014Y0047768D01*
X0090082Y0047713D01*
X0090153Y0047662D01*
X0090225Y0047613D01*
X0090300Y0047568D01*
X0090377Y0047526D01*
X0090455Y0047487D01*
X0090535Y0047452D01*
X0090616Y0047421D01*
X0090699Y0047393D01*
X0090782Y0047368D01*
X0090867Y0047347D01*
X0090953Y0047330D01*
X0091039Y0047317D01*
X0091126Y0047308D01*
X0091213Y0047302D01*
X0091300Y0047300D01*
X0097300Y0047300D01*
X0097300Y0048800D01*
X0097300Y0054800D02*
X0097300Y0068800D01*
X0097300Y0074800D02*
X0097300Y0076300D01*
X0091300Y0076300D01*
X0091213Y0076298D01*
X0091126Y0076292D01*
X0091039Y0076283D01*
X0090953Y0076270D01*
X0090867Y0076253D01*
X0090782Y0076232D01*
X0090699Y0076207D01*
X0090616Y0076179D01*
X0090535Y0076148D01*
X0090455Y0076113D01*
X0090377Y0076074D01*
X0090300Y0076032D01*
X0090225Y0075987D01*
X0090153Y0075938D01*
X0090082Y0075887D01*
X0090014Y0075832D01*
X0089949Y0075775D01*
X0089886Y0075714D01*
X0089825Y0075651D01*
X0089768Y0075586D01*
X0089713Y0075518D01*
X0089662Y0075447D01*
X0089613Y0075375D01*
X0089568Y0075300D01*
X0089526Y0075223D01*
X0089487Y0075145D01*
X0089452Y0075065D01*
X0089421Y0074984D01*
X0089393Y0074901D01*
X0089368Y0074818D01*
X0089347Y0074733D01*
X0089330Y0074647D01*
X0089317Y0074561D01*
X0089308Y0074474D01*
X0089302Y0074387D01*
X0089300Y0074300D01*
X0084800Y0068800D02*
X0084800Y0054800D01*
X0084800Y0048800D02*
X0084800Y0047300D01*
X0078800Y0047300D01*
X0078713Y0047302D01*
X0078626Y0047308D01*
X0078539Y0047317D01*
X0078453Y0047330D01*
X0078367Y0047347D01*
X0078282Y0047368D01*
X0078199Y0047393D01*
X0078116Y0047421D01*
X0078035Y0047452D01*
X0077955Y0047487D01*
X0077877Y0047526D01*
X0077800Y0047568D01*
X0077725Y0047613D01*
X0077653Y0047662D01*
X0077582Y0047713D01*
X0077514Y0047768D01*
X0077449Y0047825D01*
X0077386Y0047886D01*
X0077325Y0047949D01*
X0077268Y0048014D01*
X0077213Y0048082D01*
X0077162Y0048153D01*
X0077113Y0048225D01*
X0077068Y0048300D01*
X0077026Y0048377D01*
X0076987Y0048455D01*
X0076952Y0048535D01*
X0076921Y0048616D01*
X0076893Y0048699D01*
X0076868Y0048782D01*
X0076847Y0048867D01*
X0076830Y0048953D01*
X0076817Y0049039D01*
X0076808Y0049126D01*
X0076802Y0049213D01*
X0076800Y0049300D01*
D15*
G36*
X0031441Y0037464D02*
X0033373Y0036946D01*
X0030785Y0027288D01*
X0028853Y0027806D01*
X0031441Y0037464D01*
G37*
G36*
X0022747Y0008806D02*
X0020815Y0008288D01*
X0018227Y0017946D01*
X0020159Y0018464D01*
X0022747Y0008806D01*
G37*
D16*
G36*
X0018460Y0011281D02*
X0011217Y0009340D01*
X0010440Y0012237D01*
X0017683Y0014178D01*
X0018460Y0011281D01*
G37*
G36*
X0041160Y0017363D02*
X0033917Y0015422D01*
X0033140Y0018319D01*
X0040383Y0020260D01*
X0041160Y0017363D01*
G37*
G36*
X0033917Y0033178D02*
X0041160Y0031237D01*
X0040383Y0028340D01*
X0033140Y0030281D01*
X0033917Y0033178D01*
G37*
G36*
X0011217Y0039260D02*
X0018460Y0037319D01*
X0017683Y0034422D01*
X0010440Y0036363D01*
X0011217Y0039260D01*
G37*
D17*
X0008804Y0032949D02*
X0006629Y0033532D01*
X0005463Y0029181D01*
X0007638Y0028598D01*
X0008558Y0029129D01*
X0009335Y0032029D01*
X0008804Y0032949D01*
X0011076Y0032340D02*
X0010493Y0030165D01*
X0012137Y0030501D01*
X0012862Y0030307D01*
X0013393Y0029388D01*
X0013005Y0027938D01*
X0012085Y0027407D01*
X0010635Y0027795D01*
X0010104Y0028715D01*
X0011076Y0032340D02*
X0013976Y0031563D01*
X0012749Y0020133D02*
X0011493Y0019020D01*
X0010431Y0017181D01*
X0012606Y0017764D01*
X0013526Y0017233D01*
X0013720Y0016508D01*
X0013189Y0015589D01*
X0011739Y0015200D01*
X0010820Y0015731D01*
X0010431Y0017181D01*
X0008496Y0018217D02*
X0007577Y0018747D01*
X0005401Y0018165D01*
X0006567Y0013814D01*
X0008742Y0014397D01*
X0009273Y0015316D01*
X0008496Y0018217D01*
X0025495Y0046367D02*
X0065930Y0046367D01*
X0079134Y0044554D02*
X0079134Y0040050D01*
X0079134Y0042302D02*
X0080636Y0042302D01*
X0079134Y0044554D02*
X0082137Y0044554D01*
X0083738Y0044554D02*
X0083738Y0040801D01*
X0084489Y0040050D01*
X0085990Y0040050D01*
X0086741Y0040801D01*
X0086741Y0044554D01*
X0088342Y0043803D02*
X0088342Y0043053D01*
X0089093Y0042302D01*
X0090594Y0042302D01*
X0091345Y0041551D01*
X0091345Y0040801D01*
X0090594Y0040050D01*
X0089093Y0040050D01*
X0088342Y0040801D01*
X0088342Y0043803D02*
X0089093Y0044554D01*
X0090594Y0044554D01*
X0091345Y0043803D01*
X0092946Y0044554D02*
X0092946Y0040050D01*
X0095949Y0040050D01*
X0094447Y0042302D02*
X0092946Y0042302D01*
X0092946Y0044554D02*
X0095949Y0044554D01*
X0074733Y0055170D02*
X0074733Y0108430D01*
X0074730Y0108643D01*
X0074723Y0108855D01*
X0074710Y0109068D01*
X0074692Y0109280D01*
X0074669Y0109491D01*
X0074641Y0109702D01*
X0074607Y0109912D01*
X0074569Y0110121D01*
X0074526Y0110330D01*
X0074477Y0110537D01*
X0074424Y0110743D01*
X0074365Y0110947D01*
X0074302Y0111150D01*
X0074234Y0111352D01*
X0074161Y0111552D01*
X0074083Y0111750D01*
X0074001Y0111946D01*
X0073913Y0112140D01*
X0073821Y0112331D01*
X0073725Y0112521D01*
X0073624Y0112708D01*
X0073518Y0112893D01*
X0073408Y0113075D01*
X0073293Y0113254D01*
X0073175Y0113431D01*
X0073052Y0113604D01*
X0072925Y0113775D01*
X0072793Y0113942D01*
X0072658Y0114107D01*
X0072519Y0114267D01*
X0072376Y0114425D01*
X0072229Y0114579D01*
X0072079Y0114729D01*
X0071925Y0114876D01*
X0071767Y0115019D01*
X0071607Y0115158D01*
X0071442Y0115293D01*
X0071275Y0115425D01*
X0071104Y0115552D01*
X0070931Y0115675D01*
X0070754Y0115793D01*
X0070575Y0115908D01*
X0070393Y0116018D01*
X0070208Y0116124D01*
X0070021Y0116225D01*
X0069831Y0116321D01*
X0069640Y0116413D01*
X0069446Y0116501D01*
X0069250Y0116583D01*
X0069052Y0116661D01*
X0068852Y0116734D01*
X0068650Y0116802D01*
X0068447Y0116865D01*
X0068243Y0116924D01*
X0068037Y0116977D01*
X0067830Y0117026D01*
X0067621Y0117069D01*
X0067412Y0117107D01*
X0067202Y0117141D01*
X0066991Y0117169D01*
X0066780Y0117192D01*
X0066568Y0117210D01*
X0066355Y0117223D01*
X0066143Y0117230D01*
X0065930Y0117233D01*
X0012670Y0117233D01*
X0012457Y0117230D01*
X0012245Y0117223D01*
X0012032Y0117210D01*
X0011820Y0117192D01*
X0011609Y0117169D01*
X0011398Y0117141D01*
X0011188Y0117107D01*
X0010979Y0117069D01*
X0010770Y0117026D01*
X0010563Y0116977D01*
X0010357Y0116924D01*
X0010153Y0116865D01*
X0009950Y0116802D01*
X0009748Y0116734D01*
X0009548Y0116661D01*
X0009350Y0116583D01*
X0009154Y0116501D01*
X0008960Y0116413D01*
X0008769Y0116321D01*
X0008579Y0116225D01*
X0008392Y0116124D01*
X0008207Y0116018D01*
X0008025Y0115908D01*
X0007846Y0115793D01*
X0007669Y0115675D01*
X0007496Y0115552D01*
X0007325Y0115425D01*
X0007158Y0115293D01*
X0006993Y0115158D01*
X0006833Y0115019D01*
X0006675Y0114876D01*
X0006521Y0114729D01*
X0006371Y0114579D01*
X0006224Y0114425D01*
X0006081Y0114267D01*
X0005942Y0114107D01*
X0005807Y0113942D01*
X0005675Y0113775D01*
X0005548Y0113604D01*
X0005425Y0113431D01*
X0005307Y0113254D01*
X0005192Y0113075D01*
X0005082Y0112893D01*
X0004976Y0112708D01*
X0004875Y0112521D01*
X0004779Y0112331D01*
X0004687Y0112140D01*
X0004599Y0111946D01*
X0004517Y0111750D01*
X0004439Y0111552D01*
X0004366Y0111352D01*
X0004298Y0111150D01*
X0004235Y0110947D01*
X0004176Y0110743D01*
X0004123Y0110537D01*
X0004074Y0110330D01*
X0004031Y0110121D01*
X0003993Y0109912D01*
X0003959Y0109702D01*
X0003931Y0109491D01*
X0003908Y0109280D01*
X0003890Y0109068D01*
X0003877Y0108855D01*
X0003870Y0108643D01*
X0003867Y0108430D01*
X0003867Y0067272D01*
X0003871Y0066976D01*
X0003881Y0066680D01*
X0003899Y0066384D01*
X0003923Y0066089D01*
X0003955Y0065794D01*
X0003994Y0065500D01*
X0004039Y0065207D01*
X0004092Y0064916D01*
X0004152Y0064626D01*
X0004218Y0064337D01*
X0004291Y0064050D01*
X0004371Y0063764D01*
X0004458Y0063481D01*
X0004552Y0063200D01*
X0004652Y0062921D01*
X0004759Y0062645D01*
X0004872Y0062371D01*
X0004992Y0062100D01*
X0005118Y0061832D01*
X0005251Y0061567D01*
X0005390Y0061305D01*
X0005535Y0061047D01*
X0005686Y0060792D01*
X0005843Y0060541D01*
X0006007Y0060294D01*
X0006176Y0060050D01*
X0006350Y0059811D01*
X0006531Y0059576D01*
X0006717Y0059345D01*
X0006908Y0059119D01*
X0007105Y0058897D01*
X0007307Y0058681D01*
X0007514Y0058469D01*
X0007513Y0058468D02*
X0015457Y0050525D01*
X0015458Y0050525D02*
X0015699Y0050289D01*
X0015947Y0050058D01*
X0016199Y0049834D01*
X0016457Y0049616D01*
X0016720Y0049404D01*
X0016988Y0049198D01*
X0017261Y0048999D01*
X0017539Y0048806D01*
X0017821Y0048620D01*
X0018107Y0048441D01*
X0018398Y0048269D01*
X0018692Y0048103D01*
X0018990Y0047945D01*
X0019293Y0047794D01*
X0019598Y0047650D01*
X0019907Y0047513D01*
X0020219Y0047384D01*
X0020534Y0047262D01*
X0020852Y0047148D01*
X0021173Y0047041D01*
X0021496Y0046942D01*
X0021821Y0046851D01*
X0022148Y0046767D01*
X0022478Y0046691D01*
X0022809Y0046624D01*
X0023141Y0046564D01*
X0023475Y0046511D01*
X0023810Y0046467D01*
X0024146Y0046431D01*
X0024482Y0046403D01*
X0024820Y0046383D01*
X0025157Y0046371D01*
X0025495Y0046367D01*
X0065930Y0046367D02*
X0066143Y0046370D01*
X0066355Y0046377D01*
X0066568Y0046390D01*
X0066780Y0046408D01*
X0066991Y0046431D01*
X0067202Y0046459D01*
X0067412Y0046493D01*
X0067621Y0046531D01*
X0067830Y0046574D01*
X0068037Y0046623D01*
X0068243Y0046676D01*
X0068447Y0046735D01*
X0068650Y0046798D01*
X0068852Y0046866D01*
X0069052Y0046939D01*
X0069250Y0047017D01*
X0069446Y0047099D01*
X0069640Y0047187D01*
X0069831Y0047279D01*
X0070021Y0047375D01*
X0070208Y0047476D01*
X0070393Y0047582D01*
X0070575Y0047692D01*
X0070754Y0047807D01*
X0070931Y0047925D01*
X0071104Y0048048D01*
X0071275Y0048175D01*
X0071442Y0048307D01*
X0071607Y0048442D01*
X0071767Y0048581D01*
X0071925Y0048724D01*
X0072079Y0048871D01*
X0072229Y0049021D01*
X0072376Y0049175D01*
X0072519Y0049333D01*
X0072658Y0049493D01*
X0072793Y0049658D01*
X0072925Y0049825D01*
X0073052Y0049996D01*
X0073175Y0050169D01*
X0073293Y0050346D01*
X0073408Y0050525D01*
X0073518Y0050707D01*
X0073624Y0050892D01*
X0073725Y0051079D01*
X0073821Y0051269D01*
X0073913Y0051460D01*
X0074001Y0051654D01*
X0074083Y0051850D01*
X0074161Y0052048D01*
X0074234Y0052248D01*
X0074302Y0052450D01*
X0074365Y0052653D01*
X0074424Y0052857D01*
X0074477Y0053063D01*
X0074526Y0053270D01*
X0074569Y0053479D01*
X0074607Y0053688D01*
X0074641Y0053898D01*
X0074669Y0054109D01*
X0074692Y0054320D01*
X0074710Y0054532D01*
X0074723Y0054745D01*
X0074730Y0054957D01*
X0074733Y0055170D01*
D18*
X0074814Y0039804D02*
X0072512Y0039804D01*
X0072512Y0035200D01*
X0074814Y0035200D01*
X0075581Y0035967D01*
X0075581Y0039037D01*
X0074814Y0039804D01*
X0070977Y0039804D02*
X0070977Y0035200D01*
X0067908Y0039804D01*
X0067908Y0035200D01*
X0066373Y0035200D02*
X0064839Y0036735D01*
X0065606Y0036735D02*
X0063304Y0036735D01*
X0063304Y0035200D02*
X0063304Y0039804D01*
X0065606Y0039804D01*
X0066373Y0039037D01*
X0066373Y0037502D01*
X0065606Y0036735D01*
X0061769Y0037502D02*
X0060235Y0037502D01*
X0061769Y0037502D02*
X0061769Y0035967D01*
X0061002Y0035200D01*
X0059467Y0035200D01*
X0058700Y0035967D01*
X0058700Y0039037D01*
X0059467Y0039804D01*
X0061002Y0039804D01*
X0061769Y0039037D01*
X0025437Y0022304D02*
X0023035Y0022304D01*
X0024236Y0022304D02*
X0024236Y0025907D01*
X0023035Y0024706D01*
X0021754Y0025307D02*
X0021754Y0022905D01*
X0021154Y0022304D01*
X0019953Y0022304D01*
X0019352Y0022905D01*
X0021754Y0025307D01*
X0021154Y0025907D01*
X0019953Y0025907D01*
X0019352Y0025307D01*
X0019352Y0022905D01*
X0018071Y0022905D02*
X0017471Y0022304D01*
X0016270Y0022304D01*
X0015669Y0022905D01*
X0018071Y0025307D01*
X0018071Y0022905D01*
X0015669Y0022905D02*
X0015669Y0025307D01*
X0016270Y0025907D01*
X0017471Y0025907D01*
X0018071Y0025307D01*
X0014388Y0024106D02*
X0011986Y0024106D01*
X0013787Y0025907D01*
X0013787Y0022304D01*
X0010705Y0022304D02*
X0010705Y0025907D01*
X0008303Y0025907D02*
X0010705Y0022304D01*
X0008303Y0022304D02*
X0008303Y0025907D01*
X0005821Y0025907D02*
X0004620Y0024706D01*
X0005821Y0025907D02*
X0005821Y0022304D01*
X0004620Y0022304D02*
X0007022Y0022304D01*
X0059700Y0013037D02*
X0059700Y0009967D01*
X0060467Y0009200D01*
X0062002Y0009200D01*
X0062769Y0009967D01*
X0064304Y0009200D02*
X0067373Y0009200D01*
X0068908Y0009200D02*
X0068908Y0013804D01*
X0071977Y0009200D01*
X0071977Y0013804D01*
X0064304Y0013804D02*
X0064304Y0009200D01*
X0062769Y0013037D02*
X0062002Y0013804D01*
X0060467Y0013804D01*
X0059700Y0013037D01*
M02*
