%MOIN*%
%FSLAX54Y54*%
%ADD10C,0.0020*%
%ADD11C,0.0320*%
%ADD12C,0.2762*%
%ADD13C,0.3195*%
%ADD14C,0.4180*%
%ADD15R,0.1472X0.3504*%
%ADD16C,0.0139*%
%ADD17R,0.4042X0.4733*%
%ADD18R,0.4495X0.3376*%
%ADD19R,0.3036X0.3234*%
%ADD20R,0.0969X0.0929*%
G75*
D10*
X11598Y1195D02*
X12470Y1195D01*
X12470Y1348D01*
X11881Y1348D01*
X12175Y1529D01*
X12470Y1710D01*
X12470Y1865D01*
X11598Y1865D01*
X11598Y1711D01*
X12195Y1711D01*
X11897Y1526D01*
X11598Y1341D01*
X11598Y1195D01*
X12470Y1197D01*
X12470Y1217D02*
X11598Y1217D01*
X11598Y1236D02*
X12470Y1236D01*
X12470Y1256D02*
X11598Y1256D01*
X11598Y1276D02*
X12470Y1276D01*
X12470Y1296D02*
X11598Y1296D01*
X11598Y1316D02*
X12470Y1316D01*
X12470Y1336D02*
X11598Y1336D01*
X11621Y1355D02*
X11893Y1355D01*
X11926Y1375D02*
X11653Y1375D01*
X11685Y1395D02*
X11958Y1395D01*
X11990Y1415D02*
X11717Y1415D01*
X11749Y1435D02*
X12022Y1435D01*
X12055Y1455D02*
X11781Y1455D01*
X11813Y1475D02*
X12087Y1475D01*
X12119Y1494D02*
X11845Y1494D01*
X11877Y1514D02*
X12152Y1514D01*
X12184Y1534D02*
X11909Y1534D01*
X11941Y1554D02*
X12216Y1554D01*
X12248Y1574D02*
X11974Y1574D01*
X12006Y1594D02*
X12281Y1594D01*
X12313Y1614D02*
X12038Y1614D01*
X12070Y1633D02*
X12345Y1633D01*
X12378Y1653D02*
X12102Y1653D01*
X12134Y1673D02*
X12410Y1673D01*
X12442Y1693D02*
X12166Y1693D01*
X12470Y1713D02*
X11598Y1713D01*
X11598Y1733D02*
X12470Y1733D01*
X12470Y1753D02*
X11598Y1753D01*
X11598Y1772D02*
X12470Y1772D01*
X12470Y1792D02*
X11598Y1792D01*
X11598Y1812D02*
X12470Y1812D01*
X12470Y1832D02*
X11598Y1832D01*
X11598Y1852D02*
X12470Y1852D01*
X12298Y2130D02*
X11771Y2130D01*
X11771Y2125D02*
X11598Y2072D01*
X11598Y1896D01*
X11889Y1993D01*
X12179Y2090D01*
X12470Y2187D01*
X12470Y2293D01*
X12471Y2293D01*
X12471Y2293D01*
X12279Y2293D01*
X12113Y2342D01*
X11915Y2400D01*
X11915Y2293D01*
X11771Y2293D01*
X11771Y2442D01*
X11598Y2492D01*
X11598Y2663D01*
X11889Y2567D01*
X12180Y2470D01*
X12471Y2374D01*
X12471Y2293D01*
X12279Y2293D01*
X12311Y2283D01*
X12113Y2225D01*
X11915Y2167D01*
X11915Y2293D01*
X11771Y2293D01*
X11771Y2125D01*
X11771Y2150D02*
X12357Y2150D01*
X12416Y2169D02*
X11924Y2169D01*
X11915Y2169D02*
X11771Y2169D01*
X11771Y2189D02*
X11915Y2189D01*
X11915Y2209D02*
X11771Y2209D01*
X11771Y2229D02*
X11915Y2229D01*
X11915Y2249D02*
X11771Y2249D01*
X11771Y2269D02*
X11915Y2269D01*
X11915Y2288D02*
X11771Y2288D01*
X11771Y2308D02*
X11915Y2308D01*
X11915Y2328D02*
X11771Y2328D01*
X11771Y2348D02*
X11915Y2348D01*
X11915Y2368D02*
X11771Y2368D01*
X11771Y2388D02*
X11915Y2388D01*
X11957Y2388D02*
X12428Y2388D01*
X12471Y2368D02*
X12025Y2368D01*
X12093Y2348D02*
X12471Y2348D01*
X12471Y2328D02*
X12161Y2328D01*
X12228Y2308D02*
X12471Y2308D01*
X12470Y2288D02*
X12294Y2288D01*
X12261Y2269D02*
X12470Y2269D01*
X12470Y2249D02*
X12194Y2249D01*
X12126Y2229D02*
X12470Y2229D01*
X12470Y2209D02*
X12059Y2209D01*
X11992Y2189D02*
X12470Y2189D01*
X12368Y2408D02*
X11771Y2408D01*
X11771Y2428D02*
X12309Y2428D01*
X12249Y2447D02*
X11753Y2447D01*
X11684Y2467D02*
X12189Y2467D01*
X12129Y2487D02*
X11615Y2487D01*
X11598Y2507D02*
X12069Y2507D01*
X12009Y2527D02*
X11598Y2527D01*
X11598Y2547D02*
X11949Y2547D01*
X11889Y2566D02*
X11598Y2566D01*
X11598Y2586D02*
X11830Y2586D01*
X11770Y2606D02*
X11598Y2606D01*
X11598Y2626D02*
X11710Y2626D01*
X11650Y2646D02*
X11598Y2646D01*
X11598Y2687D02*
X11598Y3342D01*
X12470Y3342D01*
X12470Y2722D01*
X12326Y2722D01*
X12327Y2722D01*
X12327Y3181D01*
X12119Y3181D01*
X12119Y2759D01*
X11979Y2759D01*
X11979Y3181D01*
X11742Y3181D01*
X11742Y2687D01*
X11598Y2687D01*
X11598Y2705D02*
X11742Y2705D01*
X11742Y2725D02*
X11598Y2725D01*
X11598Y2745D02*
X11742Y2745D01*
X11742Y2765D02*
X11598Y2765D01*
X11598Y2785D02*
X11742Y2785D01*
X11742Y2805D02*
X11598Y2805D01*
X11598Y2824D02*
X11742Y2824D01*
X11742Y2844D02*
X11598Y2844D01*
X11598Y2864D02*
X11742Y2864D01*
X11742Y2884D02*
X11598Y2884D01*
X11598Y2904D02*
X11742Y2904D01*
X11742Y2924D02*
X11598Y2924D01*
X11598Y2944D02*
X11742Y2944D01*
X11742Y2964D02*
X11598Y2964D01*
X11598Y2983D02*
X11742Y2983D01*
X11742Y3003D02*
X11598Y3003D01*
X11598Y3023D02*
X11742Y3023D01*
X11742Y3043D02*
X11598Y3043D01*
X11598Y3063D02*
X11742Y3063D01*
X11742Y3083D02*
X11598Y3083D01*
X11598Y3102D02*
X11742Y3102D01*
X11742Y3122D02*
X11598Y3122D01*
X11598Y3142D02*
X11742Y3142D01*
X11742Y3162D02*
X11598Y3162D01*
X11598Y3182D02*
X12470Y3182D01*
X12470Y3162D02*
X12327Y3162D01*
X12327Y3142D02*
X12470Y3142D01*
X12470Y3122D02*
X12327Y3122D01*
X12327Y3102D02*
X12470Y3102D01*
X12470Y3083D02*
X12327Y3083D01*
X12327Y3063D02*
X12470Y3063D01*
X12470Y3043D02*
X12327Y3043D01*
X12327Y3023D02*
X12470Y3023D01*
X12470Y3003D02*
X12327Y3003D01*
X12327Y2983D02*
X12470Y2983D01*
X12470Y2964D02*
X12327Y2964D01*
X12327Y2944D02*
X12470Y2944D01*
X12470Y2924D02*
X12327Y2924D01*
X12327Y2904D02*
X12470Y2904D01*
X12470Y2884D02*
X12327Y2884D01*
X12327Y2864D02*
X12470Y2864D01*
X12470Y2844D02*
X12327Y2844D01*
X12327Y2824D02*
X12470Y2824D01*
X12470Y2805D02*
X12327Y2805D01*
X12327Y2785D02*
X12470Y2785D01*
X12470Y2765D02*
X12327Y2765D01*
X12327Y2745D02*
X12470Y2745D01*
X12470Y2725D02*
X12327Y2725D01*
X12119Y2765D02*
X11979Y2765D01*
X11979Y2785D02*
X12119Y2785D01*
X12119Y2805D02*
X11979Y2805D01*
X11979Y2824D02*
X12119Y2824D01*
X12119Y2844D02*
X11979Y2844D01*
X11979Y2864D02*
X12119Y2864D01*
X12119Y2884D02*
X11979Y2884D01*
X11979Y2904D02*
X12119Y2904D01*
X12119Y2924D02*
X11979Y2924D01*
X11979Y2944D02*
X12119Y2944D01*
X12119Y2964D02*
X11979Y2964D01*
X11979Y2983D02*
X12119Y2983D01*
X12119Y3003D02*
X11979Y3003D01*
X11979Y3023D02*
X12119Y3023D01*
X12119Y3043D02*
X11979Y3043D01*
X11979Y3063D02*
X12119Y3063D01*
X12119Y3083D02*
X11979Y3083D01*
X11979Y3102D02*
X12119Y3102D01*
X12119Y3122D02*
X11979Y3122D01*
X11979Y3142D02*
X12119Y3142D01*
X12119Y3162D02*
X11979Y3162D01*
X11598Y3202D02*
X12470Y3202D01*
X12470Y3221D02*
X11598Y3221D01*
X11598Y3241D02*
X12470Y3241D01*
X12470Y3261D02*
X11598Y3261D01*
X11598Y3281D02*
X12470Y3281D01*
X12470Y3301D02*
X11598Y3301D01*
X11598Y3321D02*
X12470Y3321D01*
X12470Y3341D02*
X11598Y3341D01*
X11598Y3401D02*
X11598Y3922D01*
X12470Y3922D01*
X12470Y3761D01*
X11741Y3761D01*
X11742Y3761D01*
X11742Y3401D01*
X11598Y3401D01*
X11598Y3420D02*
X11742Y3420D01*
X11742Y3440D02*
X11598Y3440D01*
X11598Y3460D02*
X11742Y3460D01*
X11742Y3480D02*
X11598Y3480D01*
X11598Y3499D02*
X11742Y3499D01*
X11742Y3519D02*
X11598Y3519D01*
X11598Y3539D02*
X11742Y3539D01*
X11742Y3559D02*
X11598Y3559D01*
X11598Y3579D02*
X11742Y3579D01*
X11742Y3599D02*
X11598Y3599D01*
X11598Y3619D02*
X11742Y3619D01*
X11742Y3638D02*
X11598Y3638D01*
X11598Y3658D02*
X11742Y3658D01*
X11742Y3678D02*
X11598Y3678D01*
X11598Y3698D02*
X11742Y3698D01*
X11742Y3718D02*
X11598Y3718D01*
X11598Y3738D02*
X11742Y3738D01*
X11742Y3758D02*
X11598Y3758D01*
X11598Y3777D02*
X12470Y3777D01*
X12470Y3797D02*
X11598Y3797D01*
X11598Y3817D02*
X12470Y3817D01*
X12470Y3837D02*
X11598Y3837D01*
X11598Y3857D02*
X12470Y3857D01*
X12470Y3877D02*
X11598Y3877D01*
X11598Y3897D02*
X12470Y3897D01*
X12470Y3916D02*
X11598Y3916D01*
X11724Y4035D02*
X11866Y4035D01*
X11857Y4016D02*
X11760Y4016D01*
X11725Y4035D02*
X11643Y4113D01*
X11589Y4216D01*
X11572Y4341D01*
X11608Y4517D01*
X11709Y4651D01*
X11853Y4729D01*
X12036Y4757D01*
X12216Y4729D01*
X12359Y4651D01*
X12461Y4519D01*
X12497Y4347D01*
X12479Y4220D01*
X12426Y4117D01*
X12340Y4041D01*
X12222Y3988D01*
X12182Y4147D01*
X12181Y4147D01*
X12305Y4215D01*
X12343Y4342D01*
X12318Y4448D01*
X12247Y4527D01*
X12156Y4569D01*
X12041Y4583D01*
X11922Y4568D01*
X11827Y4526D01*
X11751Y4445D01*
X11725Y4337D01*
X11767Y4208D01*
X11903Y4123D01*
X11839Y3972D01*
X11725Y4035D01*
X11704Y4055D02*
X11874Y4055D01*
X11882Y4075D02*
X11683Y4075D01*
X11662Y4095D02*
X11891Y4095D01*
X11899Y4115D02*
X11642Y4115D01*
X11632Y4135D02*
X11884Y4135D01*
X11853Y4154D02*
X11621Y4154D01*
X11611Y4174D02*
X11821Y4174D01*
X11789Y4194D02*
X11601Y4194D01*
X11590Y4214D02*
X11765Y4214D01*
X11759Y4234D02*
X11587Y4234D01*
X11584Y4254D02*
X11752Y4254D01*
X11745Y4274D02*
X11581Y4274D01*
X11578Y4294D02*
X11739Y4294D01*
X11732Y4313D02*
X11576Y4313D01*
X11573Y4333D02*
X11726Y4333D01*
X11729Y4353D02*
X11574Y4353D01*
X11578Y4373D02*
X11734Y4373D01*
X11738Y4393D02*
X11582Y4393D01*
X11586Y4413D02*
X11743Y4413D01*
X11748Y4432D02*
X11590Y4432D01*
X11595Y4452D02*
X11758Y4452D01*
X11776Y4472D02*
X11599Y4472D01*
X11603Y4492D02*
X11795Y4492D01*
X11814Y4512D02*
X11607Y4512D01*
X11619Y4532D02*
X11840Y4532D01*
X11884Y4552D02*
X11634Y4552D01*
X11649Y4571D02*
X11948Y4571D01*
X11861Y4730D02*
X12208Y4730D01*
X12250Y4710D02*
X11818Y4710D01*
X11782Y4690D02*
X12287Y4690D01*
X12323Y4671D02*
X11745Y4671D01*
X11709Y4651D02*
X12359Y4651D01*
X12374Y4631D02*
X11694Y4631D01*
X11679Y4611D02*
X12390Y4611D01*
X12405Y4591D02*
X11664Y4591D01*
X11993Y4750D02*
X12079Y4750D01*
X12134Y4571D02*
X12420Y4571D01*
X12436Y4552D02*
X12193Y4552D01*
X12237Y4532D02*
X12451Y4532D01*
X12462Y4512D02*
X12261Y4512D01*
X12279Y4492D02*
X12466Y4492D01*
X12471Y4472D02*
X12297Y4472D01*
X12314Y4452D02*
X12475Y4452D01*
X12479Y4432D02*
X12322Y4432D01*
X12327Y4413D02*
X12483Y4413D01*
X12487Y4393D02*
X12331Y4393D01*
X12336Y4373D02*
X12491Y4373D01*
X12496Y4353D02*
X12341Y4353D01*
X12341Y4333D02*
X12495Y4333D01*
X12492Y4313D02*
X12335Y4313D01*
X12328Y4294D02*
X12489Y4294D01*
X12487Y4274D02*
X12322Y4274D01*
X12316Y4254D02*
X12484Y4254D01*
X12481Y4234D02*
X12310Y4234D01*
X12302Y4214D02*
X12476Y4214D01*
X12466Y4194D02*
X12266Y4194D01*
X12230Y4174D02*
X12455Y4174D01*
X12445Y4154D02*
X12194Y4154D01*
X12185Y4135D02*
X12435Y4135D01*
X12423Y4115D02*
X12190Y4115D01*
X12195Y4095D02*
X12401Y4095D01*
X12378Y4075D02*
X12200Y4075D01*
X12205Y4055D02*
X12356Y4055D01*
X12328Y4035D02*
X12210Y4035D01*
X12215Y4016D02*
X12283Y4016D01*
X12239Y3996D02*
X12220Y3996D01*
X11849Y3996D02*
X11796Y3996D01*
X11831Y3976D02*
X11840Y3976D01*
X7045Y5243D02*
X6853Y5408D01*
X6661Y5573D01*
X6351Y5394D01*
X6041Y5216D01*
X6041Y5431D01*
X6513Y5697D01*
X6327Y5858D01*
X6041Y5858D01*
X6041Y6043D01*
X7044Y6043D01*
X7044Y5858D01*
X6571Y5858D01*
X6571Y5858D01*
X7045Y5460D01*
X7045Y5243D01*
X7041Y5246D01*
X7045Y5266D02*
X7018Y5266D01*
X6994Y5286D02*
X7045Y5286D01*
X7045Y5306D02*
X6971Y5306D01*
X6948Y5326D02*
X7045Y5326D01*
X7045Y5346D02*
X6925Y5346D01*
X6902Y5365D02*
X7045Y5365D01*
X7045Y5385D02*
X6879Y5385D01*
X6856Y5405D02*
X7045Y5405D01*
X7045Y5425D02*
X6833Y5425D01*
X6809Y5445D02*
X7045Y5445D01*
X7039Y5465D02*
X6786Y5465D01*
X6763Y5485D02*
X7015Y5485D01*
X6992Y5504D02*
X6740Y5504D01*
X6717Y5524D02*
X6968Y5524D01*
X6944Y5544D02*
X6694Y5544D01*
X6671Y5564D02*
X6921Y5564D01*
X6897Y5584D02*
X6312Y5584D01*
X6277Y5564D02*
X6646Y5564D01*
X6611Y5544D02*
X6241Y5544D01*
X6206Y5524D02*
X6577Y5524D01*
X6542Y5504D02*
X6171Y5504D01*
X6136Y5485D02*
X6508Y5485D01*
X6473Y5465D02*
X6100Y5465D01*
X6065Y5445D02*
X6439Y5445D01*
X6404Y5425D02*
X6041Y5425D01*
X6041Y5405D02*
X6370Y5405D01*
X6335Y5385D02*
X6041Y5385D01*
X6041Y5365D02*
X6301Y5365D01*
X6266Y5346D02*
X6041Y5346D01*
X6041Y5326D02*
X6232Y5326D01*
X6197Y5306D02*
X6041Y5306D01*
X6041Y5286D02*
X6163Y5286D01*
X6128Y5266D02*
X6041Y5266D01*
X6041Y5246D02*
X6094Y5246D01*
X6059Y5226D02*
X6041Y5226D01*
X5748Y5424D02*
X5838Y5575D01*
X5883Y5731D01*
X5898Y5912D01*
X5898Y6155D01*
X5897Y6155D01*
X5897Y6155D01*
X5605Y6155D01*
X5605Y6240D01*
X4978Y6240D01*
X4978Y6155D01*
X4687Y6155D01*
X4687Y6240D01*
X4079Y6240D01*
X4079Y6575D01*
X5897Y6575D01*
X5897Y6155D01*
X5605Y6155D01*
X5605Y5943D01*
X5590Y5795D01*
X5545Y5687D01*
X5451Y5611D01*
X5311Y5585D01*
X5155Y5612D01*
X5049Y5693D01*
X4996Y5810D01*
X4978Y5973D01*
X4978Y6155D01*
X4687Y6155D01*
X4687Y5891D01*
X4715Y5650D01*
X4831Y5438D01*
X5037Y5284D01*
X5289Y5231D01*
X5469Y5252D01*
X5620Y5315D01*
X5748Y5424D01*
X4849Y5425D01*
X4828Y5445D02*
X5760Y5445D01*
X5772Y5465D02*
X4817Y5465D01*
X4806Y5485D02*
X5784Y5485D01*
X5796Y5504D02*
X4795Y5504D01*
X4784Y5524D02*
X5808Y5524D01*
X5820Y5544D02*
X4773Y5544D01*
X4762Y5564D02*
X5832Y5564D01*
X5840Y5584D02*
X4751Y5584D01*
X4740Y5604D02*
X5203Y5604D01*
X5140Y5624D02*
X4729Y5624D01*
X4719Y5643D02*
X5114Y5643D01*
X5088Y5663D02*
X4713Y5663D01*
X4711Y5683D02*
X5062Y5683D01*
X5045Y5703D02*
X4709Y5703D01*
X4706Y5723D02*
X5036Y5723D01*
X5027Y5743D02*
X4704Y5743D01*
X4702Y5763D02*
X5017Y5763D01*
X5008Y5782D02*
X4699Y5782D01*
X4697Y5802D02*
X4999Y5802D01*
X4994Y5822D02*
X4695Y5822D01*
X4692Y5842D02*
X4992Y5842D01*
X4990Y5862D02*
X4690Y5862D01*
X4688Y5882D02*
X4988Y5882D01*
X4986Y5901D02*
X4687Y5901D01*
X4687Y5921D02*
X4984Y5921D01*
X4982Y5941D02*
X4687Y5941D01*
X4687Y5961D02*
X4980Y5961D01*
X4978Y5981D02*
X4687Y5981D01*
X4687Y6001D02*
X4978Y6001D01*
X4978Y6020D02*
X4687Y6020D01*
X4687Y6040D02*
X4978Y6040D01*
X4978Y6060D02*
X4687Y6060D01*
X4687Y6080D02*
X4978Y6080D01*
X4978Y6100D02*
X4687Y6100D01*
X4687Y6120D02*
X4978Y6120D01*
X4978Y6140D02*
X4687Y6140D01*
X4687Y6160D02*
X4978Y6160D01*
X4978Y6179D02*
X4687Y6179D01*
X4687Y6199D02*
X4978Y6199D01*
X4978Y6219D02*
X4687Y6219D01*
X4687Y6239D02*
X4978Y6239D01*
X5605Y6239D02*
X5897Y6239D01*
X5897Y6219D02*
X5605Y6219D01*
X5605Y6199D02*
X5897Y6199D01*
X5897Y6179D02*
X5605Y6179D01*
X5605Y6160D02*
X5897Y6160D01*
X5898Y6140D02*
X5605Y6140D01*
X5605Y6120D02*
X5898Y6120D01*
X5898Y6100D02*
X5605Y6100D01*
X5605Y6080D02*
X5898Y6080D01*
X5898Y6060D02*
X5605Y6060D01*
X5605Y6040D02*
X5898Y6040D01*
X5898Y6020D02*
X5605Y6020D01*
X5605Y6001D02*
X5898Y6001D01*
X5898Y5981D02*
X5605Y5981D01*
X5605Y5961D02*
X5898Y5961D01*
X5898Y5941D02*
X5605Y5941D01*
X5603Y5921D02*
X5898Y5921D01*
X5897Y5901D02*
X5601Y5901D01*
X5599Y5882D02*
X5895Y5882D01*
X5894Y5862D02*
X5597Y5862D01*
X5595Y5842D02*
X5892Y5842D01*
X5890Y5822D02*
X5593Y5822D01*
X5591Y5802D02*
X5889Y5802D01*
X5887Y5782D02*
X5585Y5782D01*
X5576Y5763D02*
X5885Y5763D01*
X5884Y5743D02*
X5568Y5743D01*
X5560Y5723D02*
X5880Y5723D01*
X5875Y5703D02*
X5551Y5703D01*
X5539Y5683D02*
X5869Y5683D01*
X5863Y5663D02*
X5515Y5663D01*
X5491Y5643D02*
X5858Y5643D01*
X5852Y5624D02*
X5466Y5624D01*
X5412Y5604D02*
X5846Y5604D01*
X5726Y5405D02*
X4876Y5405D01*
X4902Y5385D02*
X5703Y5385D01*
X5680Y5365D02*
X4929Y5365D01*
X4955Y5346D02*
X5656Y5346D01*
X5633Y5326D02*
X4982Y5326D01*
X5008Y5306D02*
X5599Y5306D01*
X5551Y5286D02*
X5035Y5286D01*
X5123Y5266D02*
X5503Y5266D01*
X5420Y5246D02*
X5217Y5246D01*
X6347Y5604D02*
X6874Y5604D01*
X6850Y5624D02*
X6382Y5624D01*
X6418Y5643D02*
X6826Y5643D01*
X6803Y5663D02*
X6453Y5663D01*
X6488Y5683D02*
X6779Y5683D01*
X6756Y5703D02*
X6507Y5703D01*
X6484Y5723D02*
X6732Y5723D01*
X6708Y5743D02*
X6461Y5743D01*
X6438Y5763D02*
X6685Y5763D01*
X6661Y5782D02*
X6415Y5782D01*
X6392Y5802D02*
X6638Y5802D01*
X6614Y5822D02*
X6369Y5822D01*
X6346Y5842D02*
X6590Y5842D01*
X6319Y6101D02*
X6188Y6174D01*
X6094Y6263D01*
X6032Y6383D01*
X6011Y6526D01*
X6029Y6664D01*
X6081Y6782D01*
X6167Y6881D01*
X6283Y6953D01*
X6545Y7005D01*
X6752Y6973D01*
X6916Y6884D01*
X7033Y6732D01*
X7075Y6534D01*
X7055Y6388D01*
X6993Y6270D01*
X6895Y6182D01*
X6759Y6121D01*
X6713Y6303D01*
X6713Y6303D01*
X6854Y6381D01*
X6899Y6527D01*
X6870Y6649D01*
X6789Y6739D01*
X6684Y6787D01*
X6552Y6803D01*
X6415Y6787D01*
X6305Y6739D01*
X6219Y6646D01*
X6188Y6521D01*
X6237Y6373D01*
X6392Y6276D01*
X6319Y6101D01*
X6326Y6120D02*
X6285Y6120D01*
X6249Y6140D02*
X6335Y6140D01*
X6343Y6160D02*
X6214Y6160D01*
X6182Y6179D02*
X6352Y6179D01*
X6360Y6199D02*
X6161Y6199D01*
X6140Y6219D02*
X6368Y6219D01*
X6377Y6239D02*
X6119Y6239D01*
X6099Y6259D02*
X6385Y6259D01*
X6388Y6279D02*
X6086Y6279D01*
X6076Y6299D02*
X6356Y6299D01*
X6324Y6318D02*
X6065Y6318D01*
X6055Y6338D02*
X6293Y6338D01*
X6261Y6358D02*
X6045Y6358D01*
X6034Y6378D02*
X6235Y6378D01*
X6229Y6398D02*
X6030Y6398D01*
X6027Y6418D02*
X6222Y6418D01*
X6216Y6437D02*
X6024Y6437D01*
X6021Y6457D02*
X6209Y6457D01*
X6202Y6477D02*
X6018Y6477D01*
X6015Y6497D02*
X6196Y6497D01*
X6189Y6517D02*
X6013Y6517D01*
X6013Y6537D02*
X6192Y6537D01*
X6197Y6556D02*
X6015Y6556D01*
X6018Y6576D02*
X6201Y6576D01*
X6206Y6596D02*
X6021Y6596D01*
X6023Y6616D02*
X6211Y6616D01*
X6216Y6636D02*
X6026Y6636D01*
X6028Y6656D02*
X6228Y6656D01*
X6247Y6676D02*
X6035Y6676D01*
X6043Y6695D02*
X6265Y6695D01*
X6284Y6715D02*
X6052Y6715D01*
X6061Y6735D02*
X6302Y6735D01*
X6343Y6755D02*
X6069Y6755D01*
X6078Y6775D02*
X6388Y6775D01*
X6481Y6795D02*
X6092Y6795D01*
X6109Y6815D02*
X6969Y6815D01*
X6984Y6795D02*
X6620Y6795D01*
X6710Y6775D02*
X7000Y6775D01*
X7015Y6755D02*
X6753Y6755D01*
X6792Y6735D02*
X7030Y6735D01*
X7036Y6715D02*
X6810Y6715D01*
X6828Y6695D02*
X7041Y6695D01*
X7045Y6676D02*
X6846Y6676D01*
X6864Y6656D02*
X7049Y6656D01*
X7053Y6636D02*
X6873Y6636D01*
X6878Y6616D02*
X7057Y6616D01*
X7062Y6596D02*
X6883Y6596D01*
X6887Y6576D02*
X7066Y6576D01*
X7070Y6556D02*
X6892Y6556D01*
X6897Y6537D02*
X7074Y6537D01*
X7073Y6517D02*
X6896Y6517D01*
X6890Y6497D02*
X7070Y6497D01*
X7067Y6477D02*
X6884Y6477D01*
X6878Y6457D02*
X7064Y6457D01*
X7062Y6437D02*
X6872Y6437D01*
X6865Y6418D02*
X7059Y6418D01*
X7056Y6398D02*
X6859Y6398D01*
X6849Y6378D02*
X7049Y6378D01*
X7039Y6358D02*
X6813Y6358D01*
X6777Y6338D02*
X7029Y6338D01*
X7018Y6318D02*
X6741Y6318D01*
X6714Y6299D02*
X7008Y6299D01*
X6998Y6279D02*
X6719Y6279D01*
X6724Y6259D02*
X6981Y6259D01*
X6959Y6239D02*
X6729Y6239D01*
X6734Y6219D02*
X6937Y6219D01*
X6915Y6199D02*
X6739Y6199D01*
X6744Y6179D02*
X6890Y6179D01*
X6845Y6160D02*
X6749Y6160D01*
X6754Y6140D02*
X6800Y6140D01*
X7044Y6040D02*
X6041Y6040D01*
X6041Y6020D02*
X7044Y6020D01*
X7044Y6001D02*
X6041Y6001D01*
X6041Y5981D02*
X7044Y5981D01*
X7044Y5961D02*
X6041Y5961D01*
X6041Y5941D02*
X7044Y5941D01*
X7044Y5921D02*
X6041Y5921D01*
X6041Y5901D02*
X7044Y5901D01*
X7044Y5882D02*
X6041Y5882D01*
X6041Y5862D02*
X7044Y5862D01*
X5897Y6259D02*
X4079Y6259D01*
X4079Y6279D02*
X5897Y6279D01*
X5897Y6299D02*
X4079Y6299D01*
X4079Y6318D02*
X5897Y6318D01*
X5897Y6338D02*
X4079Y6338D01*
X4079Y6358D02*
X5897Y6358D01*
X5897Y6378D02*
X4079Y6378D01*
X4079Y6398D02*
X5897Y6398D01*
X5897Y6418D02*
X4079Y6418D01*
X4079Y6437D02*
X5897Y6437D01*
X5897Y6457D02*
X4079Y6457D01*
X4079Y6477D02*
X5897Y6477D01*
X5897Y6497D02*
X4079Y6497D01*
X4079Y6517D02*
X5897Y6517D01*
X5897Y6537D02*
X4079Y6537D01*
X4079Y6556D02*
X5897Y6556D01*
X5896Y6677D02*
X5896Y7012D01*
X4828Y7012D01*
X4525Y7053D01*
X4454Y7103D01*
X4401Y7177D01*
X4356Y7386D01*
X4390Y7573D01*
X4487Y7699D01*
X4613Y7747D01*
X4828Y7761D01*
X5896Y7761D01*
X5896Y8097D01*
X4805Y8097D01*
X4533Y8083D01*
X4396Y8046D01*
X4285Y7979D01*
X4169Y7863D01*
X4085Y7714D01*
X4039Y7557D01*
X4023Y7385D01*
X4071Y7095D01*
X4135Y6960D01*
X4225Y6845D01*
X4346Y6751D01*
X4494Y6698D01*
X4805Y6677D01*
X5896Y6677D01*
X5896Y6695D02*
X4533Y6695D01*
X4446Y6715D02*
X5896Y6715D01*
X5896Y6735D02*
X4389Y6735D01*
X4340Y6755D02*
X5896Y6755D01*
X5896Y6775D02*
X4315Y6775D01*
X4289Y6795D02*
X5896Y6795D01*
X5896Y6815D02*
X4264Y6815D01*
X4239Y6834D02*
X5896Y6834D01*
X5896Y6854D02*
X4218Y6854D01*
X4202Y6874D02*
X5896Y6874D01*
X5896Y6894D02*
X4187Y6894D01*
X4171Y6914D02*
X5896Y6914D01*
X5896Y6934D02*
X4156Y6934D01*
X4140Y6954D02*
X5896Y6954D01*
X5896Y6973D02*
X4129Y6973D01*
X4119Y6993D02*
X5896Y6993D01*
X6041Y7089D02*
X7045Y7089D01*
X7045Y7275D01*
X6041Y7275D01*
X6041Y7089D01*
X7045Y7093D01*
X7045Y7112D02*
X6041Y7112D01*
X6041Y7132D02*
X7045Y7132D01*
X7045Y7152D02*
X6041Y7152D01*
X6041Y7172D02*
X7045Y7172D01*
X7045Y7192D02*
X6041Y7192D01*
X6041Y7212D02*
X7045Y7212D01*
X7045Y7231D02*
X6041Y7231D01*
X6041Y7251D02*
X7045Y7251D01*
X7045Y7271D02*
X6041Y7271D01*
X6456Y7471D02*
X6568Y7387D01*
X6709Y7357D01*
X6855Y7385D01*
X6963Y7465D01*
X7023Y7581D01*
X7044Y7733D01*
X7044Y7802D01*
X7045Y7802D01*
X7045Y7802D01*
X6884Y7802D01*
X6884Y7914D01*
X6538Y7914D01*
X6538Y7802D01*
X6377Y7802D01*
X6377Y7915D01*
X6042Y7915D01*
X6042Y8099D01*
X7045Y8099D01*
X7045Y7802D01*
X6884Y7802D01*
X6884Y7750D01*
X6844Y7601D01*
X6793Y7565D01*
X6721Y7553D01*
X6639Y7566D01*
X6582Y7605D01*
X6537Y7767D01*
X6537Y7802D01*
X6377Y7802D01*
X6377Y7721D01*
X6395Y7579D01*
X6456Y7471D01*
X6965Y7470D01*
X6976Y7490D02*
X6446Y7490D01*
X6435Y7509D02*
X6986Y7509D01*
X6996Y7529D02*
X6423Y7529D01*
X6412Y7549D02*
X7007Y7549D01*
X7017Y7569D02*
X6799Y7569D01*
X6827Y7589D02*
X7025Y7589D01*
X7027Y7609D02*
X6846Y7609D01*
X6851Y7629D02*
X7030Y7629D01*
X7033Y7648D02*
X6857Y7648D01*
X6862Y7668D02*
X7035Y7668D01*
X7038Y7688D02*
X6867Y7688D01*
X6872Y7708D02*
X7041Y7708D01*
X7043Y7728D02*
X6878Y7728D01*
X6883Y7748D02*
X7044Y7748D01*
X7044Y7767D02*
X6884Y7767D01*
X6884Y7787D02*
X7044Y7787D01*
X7045Y7807D02*
X6884Y7807D01*
X6884Y7827D02*
X7045Y7827D01*
X7045Y7847D02*
X6884Y7847D01*
X6884Y7867D02*
X7045Y7867D01*
X7045Y7887D02*
X6884Y7887D01*
X6884Y7906D02*
X7045Y7906D01*
X7045Y7926D02*
X6042Y7926D01*
X6042Y7946D02*
X7045Y7946D01*
X7045Y7966D02*
X6042Y7966D01*
X6042Y7986D02*
X7045Y7986D01*
X7045Y8006D02*
X6042Y8006D01*
X6042Y8025D02*
X7045Y8025D01*
X7045Y8045D02*
X6042Y8045D01*
X6042Y8065D02*
X7045Y8065D01*
X7045Y8085D02*
X6042Y8085D01*
X5896Y8085D02*
X4581Y8085D01*
X4468Y8065D02*
X5896Y8065D01*
X5896Y8045D02*
X4394Y8045D01*
X4361Y8025D02*
X5896Y8025D01*
X5896Y8006D02*
X4328Y8006D01*
X4295Y7986D02*
X5896Y7986D01*
X5896Y7966D02*
X4271Y7966D01*
X4251Y7946D02*
X5896Y7946D01*
X5896Y7926D02*
X4232Y7926D01*
X4212Y7906D02*
X5896Y7906D01*
X5896Y7887D02*
X4192Y7887D01*
X4173Y7867D02*
X5896Y7867D01*
X5896Y7847D02*
X4160Y7847D01*
X4148Y7827D02*
X5896Y7827D01*
X5896Y7807D02*
X4137Y7807D01*
X4126Y7787D02*
X5896Y7787D01*
X5896Y7767D02*
X4115Y7767D01*
X4104Y7748D02*
X4628Y7748D01*
X4563Y7728D02*
X4092Y7728D01*
X4083Y7708D02*
X4511Y7708D01*
X4479Y7688D02*
X4077Y7688D01*
X4071Y7668D02*
X4463Y7668D01*
X4448Y7648D02*
X4065Y7648D01*
X4059Y7629D02*
X4433Y7629D01*
X4417Y7609D02*
X4054Y7609D01*
X4048Y7589D02*
X4402Y7589D01*
X4389Y7569D02*
X4042Y7569D01*
X4038Y7549D02*
X4385Y7549D01*
X4382Y7529D02*
X4036Y7529D01*
X4034Y7509D02*
X4378Y7509D01*
X4375Y7490D02*
X4033Y7490D01*
X4031Y7470D02*
X4371Y7470D01*
X4368Y7450D02*
X4029Y7450D01*
X4027Y7430D02*
X4364Y7430D01*
X4361Y7410D02*
X4025Y7410D01*
X4024Y7390D02*
X4357Y7390D01*
X4359Y7370D02*
X4025Y7370D01*
X4029Y7351D02*
X4364Y7351D01*
X4368Y7331D02*
X4032Y7331D01*
X4035Y7311D02*
X4372Y7311D01*
X4377Y7291D02*
X4038Y7291D01*
X4042Y7271D02*
X4381Y7271D01*
X4385Y7251D02*
X4045Y7251D01*
X4048Y7231D02*
X4389Y7231D01*
X4394Y7212D02*
X4051Y7212D01*
X4055Y7192D02*
X4398Y7192D01*
X4405Y7172D02*
X4058Y7172D01*
X4061Y7152D02*
X4419Y7152D01*
X4433Y7132D02*
X4064Y7132D01*
X4068Y7112D02*
X4447Y7112D01*
X4469Y7093D02*
X4072Y7093D01*
X4081Y7073D02*
X4497Y7073D01*
X4527Y7053D02*
X4091Y7053D01*
X4100Y7033D02*
X4674Y7033D01*
X4821Y7013D02*
X4110Y7013D01*
X6127Y6834D02*
X6954Y6834D01*
X6938Y6854D02*
X6144Y6854D01*
X6161Y6874D02*
X6923Y6874D01*
X6897Y6894D02*
X6188Y6894D01*
X6220Y6914D02*
X6861Y6914D01*
X6824Y6934D02*
X6252Y6934D01*
X6284Y6954D02*
X6788Y6954D01*
X6750Y6973D02*
X6386Y6973D01*
X6487Y6993D02*
X6620Y6993D01*
X6646Y7370D02*
X6779Y7370D01*
X6862Y7390D02*
X6564Y7390D01*
X6537Y7410D02*
X6889Y7410D01*
X6916Y7430D02*
X6511Y7430D01*
X6485Y7450D02*
X6942Y7450D01*
X6635Y7569D02*
X6401Y7569D01*
X6394Y7589D02*
X6606Y7589D01*
X6581Y7609D02*
X6391Y7609D01*
X6389Y7629D02*
X6576Y7629D01*
X6570Y7648D02*
X6386Y7648D01*
X6384Y7668D02*
X6565Y7668D01*
X6559Y7688D02*
X6381Y7688D01*
X6378Y7708D02*
X6554Y7708D01*
X6548Y7728D02*
X6377Y7728D01*
X6377Y7748D02*
X6543Y7748D01*
X6537Y7767D02*
X6377Y7767D01*
X6377Y7787D02*
X6537Y7787D01*
X6538Y7807D02*
X6377Y7807D01*
X6377Y7827D02*
X6538Y7827D01*
X6538Y7847D02*
X6377Y7847D01*
X6377Y7867D02*
X6538Y7867D01*
X6538Y7887D02*
X6377Y7887D01*
X6377Y7906D02*
X6538Y7906D01*
X18357Y8542D02*
X18357Y8543D01*
X18501Y8543D01*
X18501Y9017D01*
X18800Y8780D01*
X19099Y8543D01*
X19229Y8543D01*
X19229Y9192D01*
X19085Y9192D01*
X19085Y8753D01*
X18785Y8993D01*
X18485Y9232D01*
X18357Y9232D01*
X18357Y8542D01*
X18357Y8561D02*
X18501Y8561D01*
X18501Y8581D02*
X18357Y8581D01*
X18357Y8601D02*
X18501Y8601D01*
X18501Y8621D02*
X18357Y8621D01*
X18357Y8641D02*
X18501Y8641D01*
X18501Y8661D02*
X18357Y8661D01*
X18357Y8681D02*
X18501Y8681D01*
X18501Y8701D02*
X18357Y8701D01*
X18357Y8720D02*
X18501Y8720D01*
X18501Y8740D02*
X18357Y8740D01*
X18357Y8760D02*
X18501Y8760D01*
X18501Y8780D02*
X18357Y8780D01*
X18357Y8800D02*
X18501Y8800D01*
X18501Y8820D02*
X18357Y8820D01*
X18357Y8839D02*
X18501Y8839D01*
X18501Y8859D02*
X18357Y8859D01*
X18357Y8879D02*
X18501Y8879D01*
X18501Y8899D02*
X18357Y8899D01*
X18357Y8919D02*
X18501Y8919D01*
X18501Y8939D02*
X18357Y8939D01*
X18357Y8958D02*
X18501Y8958D01*
X18501Y8978D02*
X18357Y8978D01*
X18357Y8998D02*
X18501Y8998D01*
X18524Y8998D02*
X18778Y8998D01*
X18753Y9018D02*
X18357Y9018D01*
X18357Y9038D02*
X18728Y9038D01*
X18703Y9058D02*
X18357Y9058D01*
X18357Y9078D02*
X18678Y9078D01*
X18653Y9097D02*
X18357Y9097D01*
X18357Y9117D02*
X18628Y9117D01*
X18603Y9137D02*
X18357Y9137D01*
X18357Y9157D02*
X18578Y9157D01*
X18554Y9177D02*
X18357Y9177D01*
X18357Y9197D02*
X18529Y9197D01*
X18504Y9217D02*
X18357Y9217D01*
X18357Y9268D02*
X18501Y9268D01*
X18501Y9742D01*
X18800Y9505D01*
X19099Y9268D01*
X19229Y9268D01*
X19229Y9917D01*
X19085Y9917D01*
X19085Y9479D01*
X18485Y9958D01*
X18357Y9958D01*
X18357Y9268D01*
X18357Y9276D02*
X18501Y9276D01*
X18501Y9296D02*
X18357Y9296D01*
X18357Y9316D02*
X18501Y9316D01*
X18501Y9336D02*
X18357Y9336D01*
X18357Y9355D02*
X18501Y9355D01*
X18501Y9375D02*
X18357Y9375D01*
X18357Y9395D02*
X18501Y9395D01*
X18501Y9415D02*
X18357Y9415D01*
X18357Y9435D02*
X18501Y9435D01*
X18501Y9455D02*
X18357Y9455D01*
X18357Y9475D02*
X18501Y9475D01*
X18501Y9494D02*
X18357Y9494D01*
X18357Y9514D02*
X18501Y9514D01*
X18501Y9534D02*
X18357Y9534D01*
X18357Y9554D02*
X18501Y9554D01*
X18501Y9574D02*
X18357Y9574D01*
X18357Y9594D02*
X18501Y9594D01*
X18501Y9614D02*
X18357Y9614D01*
X18357Y9633D02*
X18501Y9633D01*
X18501Y9653D02*
X18357Y9653D01*
X18357Y9673D02*
X18501Y9673D01*
X18501Y9693D02*
X18357Y9693D01*
X18357Y9713D02*
X18501Y9713D01*
X18501Y9733D02*
X18357Y9733D01*
X18357Y9753D02*
X18742Y9753D01*
X18717Y9772D02*
X18357Y9772D01*
X18357Y9792D02*
X18692Y9792D01*
X18667Y9812D02*
X18357Y9812D01*
X18357Y9832D02*
X18642Y9832D01*
X18618Y9852D02*
X18357Y9852D01*
X18357Y9872D02*
X18593Y9872D01*
X18568Y9892D02*
X18357Y9892D01*
X18357Y9911D02*
X18543Y9911D01*
X18518Y9931D02*
X18357Y9931D01*
X18357Y9951D02*
X18493Y9951D01*
X18531Y10014D02*
X18427Y10079D01*
X18355Y10193D01*
X18330Y10338D01*
X18363Y10503D01*
X18456Y10623D01*
X18550Y10668D01*
X18706Y10679D01*
X19229Y10679D01*
X19229Y10519D01*
X18716Y10519D01*
X18553Y10489D01*
X18506Y10428D01*
X18490Y10338D01*
X18511Y10238D01*
X18571Y10179D01*
X18716Y10159D01*
X19229Y10159D01*
X19229Y9997D01*
X18706Y9997D01*
X18531Y10014D01*
X18504Y10030D02*
X19229Y10030D01*
X19229Y10050D02*
X18472Y10050D01*
X18441Y10070D02*
X19229Y10070D01*
X19229Y10090D02*
X18420Y10090D01*
X18407Y10110D02*
X19229Y10110D01*
X19229Y10130D02*
X18395Y10130D01*
X18382Y10150D02*
X19229Y10150D01*
X19229Y10011D02*
X18565Y10011D01*
X18639Y10169D02*
X18370Y10169D01*
X18357Y10189D02*
X18560Y10189D01*
X18540Y10209D02*
X18352Y10209D01*
X18349Y10229D02*
X18521Y10229D01*
X18509Y10249D02*
X18345Y10249D01*
X18342Y10269D02*
X18505Y10269D01*
X18500Y10289D02*
X18339Y10289D01*
X18335Y10308D02*
X18496Y10308D01*
X18492Y10328D02*
X18332Y10328D01*
X18332Y10348D02*
X18492Y10348D01*
X18495Y10368D02*
X18336Y10368D01*
X18340Y10388D02*
X18499Y10388D01*
X18502Y10408D02*
X18344Y10408D01*
X18348Y10428D02*
X18506Y10428D01*
X18521Y10447D02*
X18352Y10447D01*
X18356Y10467D02*
X18536Y10467D01*
X18551Y10487D02*
X18360Y10487D01*
X18366Y10507D02*
X18652Y10507D01*
X18545Y10666D02*
X19229Y10666D01*
X19229Y10646D02*
X18504Y10646D01*
X18462Y10626D02*
X19229Y10626D01*
X19229Y10606D02*
X18443Y10606D01*
X18427Y10586D02*
X19229Y10586D01*
X19229Y10566D02*
X18412Y10566D01*
X18397Y10547D02*
X19229Y10547D01*
X19229Y10527D02*
X18381Y10527D01*
X18724Y10789D02*
X18724Y11162D01*
X18357Y11162D01*
X18357Y11323D01*
X19229Y11323D01*
X19229Y10729D01*
X19085Y10729D01*
X19085Y10729D01*
X19085Y11162D01*
X18864Y11162D01*
X18864Y10789D01*
X18724Y10789D01*
X18724Y10805D02*
X18864Y10805D01*
X18864Y10825D02*
X18724Y10825D01*
X18724Y10844D02*
X18864Y10844D01*
X18864Y10864D02*
X18724Y10864D01*
X18724Y10884D02*
X18864Y10884D01*
X18864Y10904D02*
X18724Y10904D01*
X18724Y10924D02*
X18864Y10924D01*
X18864Y10944D02*
X18724Y10944D01*
X18724Y10964D02*
X18864Y10964D01*
X18864Y10983D02*
X18724Y10983D01*
X18724Y11003D02*
X18864Y11003D01*
X18864Y11023D02*
X18724Y11023D01*
X18724Y11043D02*
X18864Y11043D01*
X18864Y11063D02*
X18724Y11063D01*
X18724Y11083D02*
X18864Y11083D01*
X18864Y11102D02*
X18724Y11102D01*
X18724Y11122D02*
X18864Y11122D01*
X18864Y11142D02*
X18724Y11142D01*
X19085Y11142D02*
X19229Y11142D01*
X19229Y11122D02*
X19085Y11122D01*
X19085Y11102D02*
X19229Y11102D01*
X19229Y11083D02*
X19085Y11083D01*
X19085Y11063D02*
X19229Y11063D01*
X19229Y11043D02*
X19085Y11043D01*
X19085Y11023D02*
X19229Y11023D01*
X19229Y11003D02*
X19085Y11003D01*
X19085Y10983D02*
X19229Y10983D01*
X19229Y10964D02*
X19085Y10964D01*
X19085Y10944D02*
X19229Y10944D01*
X19229Y10924D02*
X19085Y10924D01*
X19085Y10904D02*
X19229Y10904D01*
X19229Y10884D02*
X19085Y10884D01*
X19085Y10864D02*
X19229Y10864D01*
X19229Y10844D02*
X19085Y10844D01*
X19085Y10825D02*
X19229Y10825D01*
X19229Y10805D02*
X19085Y10805D01*
X19085Y10785D02*
X19229Y10785D01*
X19229Y10765D02*
X19085Y10765D01*
X19085Y10745D02*
X19229Y10745D01*
X19229Y11162D02*
X18357Y11162D01*
X18357Y11182D02*
X19229Y11182D01*
X19229Y11202D02*
X18357Y11202D01*
X18357Y11221D02*
X19229Y11221D01*
X19229Y11241D02*
X18357Y11241D01*
X18357Y11261D02*
X19229Y11261D01*
X19229Y11281D02*
X18357Y11281D01*
X18357Y11301D02*
X19229Y11301D01*
X19229Y11321D02*
X18357Y11321D01*
X19085Y9911D02*
X19229Y9911D01*
X19229Y9892D02*
X19085Y9892D01*
X19085Y9872D02*
X19229Y9872D01*
X19229Y9852D02*
X19085Y9852D01*
X19085Y9832D02*
X19229Y9832D01*
X19229Y9812D02*
X19085Y9812D01*
X19085Y9792D02*
X19229Y9792D01*
X19229Y9772D02*
X19085Y9772D01*
X19085Y9753D02*
X19229Y9753D01*
X19229Y9733D02*
X19085Y9733D01*
X19085Y9713D02*
X19229Y9713D01*
X19229Y9693D02*
X19085Y9693D01*
X19085Y9673D02*
X19229Y9673D01*
X19229Y9653D02*
X19085Y9653D01*
X19085Y9633D02*
X19229Y9633D01*
X19229Y9614D02*
X19085Y9614D01*
X19085Y9594D02*
X19229Y9594D01*
X19229Y9574D02*
X19085Y9574D01*
X19085Y9554D02*
X19229Y9554D01*
X19229Y9534D02*
X19085Y9534D01*
X19085Y9514D02*
X19229Y9514D01*
X19229Y9494D02*
X19085Y9494D01*
X19066Y9494D02*
X18813Y9494D01*
X18838Y9475D02*
X19229Y9475D01*
X19229Y9455D02*
X18863Y9455D01*
X18888Y9435D02*
X19229Y9435D01*
X19229Y9415D02*
X18913Y9415D01*
X18938Y9395D02*
X19229Y9395D01*
X19229Y9375D02*
X18963Y9375D01*
X18988Y9355D02*
X19229Y9355D01*
X19229Y9336D02*
X19013Y9336D01*
X19038Y9316D02*
X19229Y9316D01*
X19229Y9296D02*
X19064Y9296D01*
X19089Y9276D02*
X19229Y9276D01*
X19229Y9177D02*
X19085Y9177D01*
X19085Y9157D02*
X19229Y9157D01*
X19229Y9137D02*
X19085Y9137D01*
X19085Y9117D02*
X19229Y9117D01*
X19229Y9097D02*
X19085Y9097D01*
X19085Y9078D02*
X19229Y9078D01*
X19229Y9058D02*
X19085Y9058D01*
X19085Y9038D02*
X19229Y9038D01*
X19229Y9018D02*
X19085Y9018D01*
X19085Y8998D02*
X19229Y8998D01*
X19229Y8978D02*
X19085Y8978D01*
X19085Y8958D02*
X19229Y8958D01*
X19229Y8939D02*
X19085Y8939D01*
X19085Y8919D02*
X19229Y8919D01*
X19229Y8899D02*
X19085Y8899D01*
X19085Y8879D02*
X19229Y8879D01*
X19229Y8859D02*
X19085Y8859D01*
X19085Y8839D02*
X19229Y8839D01*
X19229Y8820D02*
X19085Y8820D01*
X19085Y8800D02*
X19229Y8800D01*
X19229Y8780D02*
X19085Y8780D01*
X19085Y8760D02*
X19229Y8760D01*
X19229Y8740D02*
X18850Y8740D01*
X18825Y8760D02*
X19077Y8760D01*
X19052Y8780D02*
X18800Y8780D01*
X18775Y8800D02*
X19027Y8800D01*
X19002Y8820D02*
X18750Y8820D01*
X18725Y8839D02*
X18977Y8839D01*
X18952Y8859D02*
X18699Y8859D01*
X18675Y8879D02*
X18927Y8879D01*
X18903Y8899D02*
X18649Y8899D01*
X18624Y8919D02*
X18878Y8919D01*
X18853Y8939D02*
X18599Y8939D01*
X18574Y8958D02*
X18828Y8958D01*
X18803Y8978D02*
X18549Y8978D01*
X18875Y8720D02*
X19229Y8720D01*
X19229Y8701D02*
X18900Y8701D01*
X18925Y8681D02*
X19229Y8681D01*
X19229Y8661D02*
X18950Y8661D01*
X18975Y8641D02*
X19229Y8641D01*
X19229Y8621D02*
X19000Y8621D01*
X19025Y8601D02*
X19229Y8601D01*
X19229Y8581D02*
X19050Y8581D01*
X19075Y8561D02*
X19229Y8561D01*
X19041Y9514D02*
X18788Y9514D01*
X18763Y9534D02*
X19016Y9534D01*
X18991Y9554D02*
X18738Y9554D01*
X18713Y9574D02*
X18966Y9574D01*
X18941Y9594D02*
X18688Y9594D01*
X18663Y9614D02*
X18916Y9614D01*
X18891Y9633D02*
X18638Y9633D01*
X18613Y9653D02*
X18866Y9653D01*
X18841Y9673D02*
X18588Y9673D01*
X18563Y9693D02*
X18817Y9693D01*
X18792Y9713D02*
X18538Y9713D01*
X18512Y9733D02*
X18767Y9733D01*
X12238Y2110D02*
X11722Y2110D01*
X11657Y2090D02*
X12179Y2090D01*
X12119Y2070D02*
X11598Y2070D01*
X11598Y2050D02*
X12060Y2050D01*
X12001Y2031D02*
X11598Y2031D01*
X11598Y2011D02*
X11941Y2011D01*
X11882Y1991D02*
X11598Y1991D01*
X11598Y1971D02*
X11823Y1971D01*
X11763Y1951D02*
X11598Y1951D01*
X11598Y1931D02*
X11704Y1931D01*
X11644Y1911D02*
X11598Y1911D01*
X51595Y4846D02*
X51595Y4997D01*
X52224Y4997D01*
X52224Y4852D01*
X52223Y4851D01*
X52139Y4851D01*
X52139Y4848D01*
X52180Y4823D01*
X52211Y4793D01*
X52232Y4756D01*
X52239Y4713D01*
X52239Y4699D01*
X52238Y4686D01*
X52083Y4686D01*
X52085Y4710D01*
X52085Y4734D01*
X52079Y4773D01*
X52071Y4793D01*
X52059Y4809D01*
X52044Y4824D01*
X52025Y4836D01*
X52001Y4843D01*
X51972Y4846D01*
X51595Y4846D01*
X52139Y4849D01*
X52168Y4829D02*
X52036Y4829D01*
X52059Y4810D02*
X52193Y4810D01*
X52213Y4790D02*
X52072Y4790D01*
X52080Y4770D02*
X52224Y4770D01*
X52233Y4750D02*
X52082Y4750D01*
X52085Y4730D02*
X52237Y4730D01*
X52239Y4710D02*
X52085Y4710D01*
X52084Y4690D02*
X52238Y4690D01*
X52224Y4869D02*
X51595Y4869D01*
X51595Y4889D02*
X52224Y4889D01*
X52224Y4909D02*
X51595Y4909D01*
X51595Y4929D02*
X52224Y4929D01*
X52224Y4949D02*
X51595Y4949D01*
X51595Y4968D02*
X52224Y4968D01*
X52224Y4988D02*
X51595Y4988D01*
X51592Y5079D02*
X51644Y5094D01*
X51713Y5099D01*
X52043Y5099D01*
X52083Y5100D01*
X52121Y5106D01*
X52154Y5118D01*
X52182Y5138D01*
X52205Y5164D01*
X52222Y5200D01*
X52232Y5248D01*
X52235Y5310D01*
X52239Y5313D01*
X52237Y5354D01*
X52229Y5393D01*
X52215Y5427D01*
X52196Y5457D01*
X52169Y5482D01*
X52136Y5502D01*
X52094Y5514D01*
X52043Y5519D01*
X52028Y5519D01*
X52028Y5383D01*
X52046Y5383D01*
X52079Y5379D01*
X52105Y5365D01*
X52121Y5345D01*
X52127Y5315D01*
X52123Y5281D01*
X52108Y5260D01*
X52083Y5248D01*
X52052Y5244D01*
X52024Y5247D01*
X52004Y5258D01*
X51989Y5276D01*
X51979Y5304D01*
X51977Y5308D01*
X51877Y5308D01*
X51887Y5277D01*
X51908Y5244D01*
X51783Y5244D01*
X51759Y5246D01*
X51739Y5251D01*
X51722Y5262D01*
X51709Y5274D01*
X51692Y5304D01*
X51692Y5307D01*
X51595Y5307D01*
X51595Y5306D01*
X51603Y5289D01*
X51617Y5274D01*
X51657Y5246D01*
X51657Y5242D01*
X51625Y5235D01*
X51592Y5223D01*
X51592Y5079D01*
X51592Y5088D02*
X51621Y5088D01*
X51592Y5107D02*
X52125Y5107D01*
X52167Y5127D02*
X51592Y5127D01*
X51592Y5147D02*
X52191Y5147D01*
X52206Y5167D02*
X51592Y5167D01*
X51592Y5187D02*
X52215Y5187D01*
X52223Y5207D02*
X51592Y5207D01*
X51601Y5226D02*
X52227Y5226D01*
X52232Y5246D02*
X52068Y5246D01*
X52030Y5246D02*
X51907Y5246D01*
X51894Y5266D02*
X51997Y5266D01*
X51985Y5286D02*
X51884Y5286D01*
X51877Y5306D02*
X51978Y5306D01*
X51954Y5390D01*
X51927Y5457D01*
X51911Y5482D01*
X51890Y5503D01*
X51865Y5519D01*
X51835Y5529D01*
X51798Y5535D01*
X51756Y5537D01*
X51694Y5529D01*
X51664Y5519D01*
X51637Y5505D01*
X51614Y5486D01*
X51596Y5461D01*
X51585Y5432D01*
X51583Y5395D01*
X51585Y5346D01*
X51596Y5308D01*
X51596Y5310D01*
X51694Y5310D01*
X51689Y5338D01*
X51695Y5364D01*
X51714Y5382D01*
X51743Y5391D01*
X51776Y5394D01*
X51813Y5390D01*
X51842Y5374D01*
X51863Y5349D01*
X51877Y5310D01*
X51977Y5310D01*
X51972Y5326D02*
X51871Y5326D01*
X51864Y5346D02*
X51967Y5346D01*
X51961Y5365D02*
X51849Y5365D01*
X51822Y5385D02*
X51956Y5385D01*
X51948Y5405D02*
X51583Y5405D01*
X51585Y5425D02*
X51940Y5425D01*
X51932Y5445D02*
X51590Y5445D01*
X51598Y5465D02*
X51923Y5465D01*
X51909Y5485D02*
X51613Y5485D01*
X51636Y5504D02*
X51888Y5504D01*
X51848Y5524D02*
X51680Y5524D01*
X51596Y5603D02*
X51596Y5752D01*
X52430Y5752D01*
X52430Y5603D01*
X51596Y5603D01*
X52430Y5604D01*
X52430Y5624D02*
X51596Y5624D01*
X51596Y5643D02*
X52430Y5643D01*
X52430Y5663D02*
X51596Y5663D01*
X51596Y5683D02*
X52430Y5683D01*
X52430Y5703D02*
X51596Y5703D01*
X51596Y5723D02*
X52430Y5723D01*
X52430Y5743D02*
X51596Y5743D01*
X51592Y5814D02*
X51592Y5958D01*
X51665Y5958D01*
X51665Y5961D01*
X51668Y5960D01*
X51627Y5986D01*
X51600Y6021D01*
X51585Y6061D01*
X51581Y6108D01*
X51584Y6141D01*
X51592Y6171D01*
X51603Y6196D01*
X51622Y6217D01*
X51645Y6234D01*
X51675Y6246D01*
X51713Y6253D01*
X51756Y6256D01*
X52224Y6256D01*
X52224Y6107D01*
X51789Y6107D01*
X51748Y6102D01*
X51721Y6090D01*
X51706Y6070D01*
X51701Y6042D01*
X51707Y6008D01*
X51714Y5994D01*
X51726Y5983D01*
X51759Y5969D01*
X51805Y5964D01*
X52222Y5964D01*
X52222Y5814D01*
X51592Y5814D01*
X51592Y5822D02*
X52222Y5822D01*
X52222Y5842D02*
X51592Y5842D01*
X51592Y5862D02*
X52222Y5862D01*
X52222Y5882D02*
X51592Y5882D01*
X51592Y5901D02*
X52222Y5901D01*
X52222Y5921D02*
X51592Y5921D01*
X51592Y5941D02*
X52222Y5941D01*
X52222Y5961D02*
X51666Y5961D01*
X51636Y5981D02*
X51732Y5981D01*
X51711Y6001D02*
X51616Y6001D01*
X51601Y6020D02*
X51705Y6020D01*
X51701Y6040D02*
X51593Y6040D01*
X51586Y6060D02*
X51704Y6060D01*
X51713Y6080D02*
X51584Y6080D01*
X51582Y6100D02*
X51743Y6100D01*
X51582Y6120D02*
X52224Y6120D01*
X52224Y6140D02*
X51584Y6140D01*
X51589Y6160D02*
X52224Y6160D01*
X52224Y6179D02*
X51595Y6179D01*
X51606Y6199D02*
X52224Y6199D01*
X52224Y6219D02*
X51624Y6219D01*
X51658Y6239D02*
X52224Y6239D01*
X52328Y6168D02*
X52308Y6139D01*
X52295Y6105D01*
X52286Y6066D01*
X52283Y6021D01*
X52288Y5960D01*
X52299Y5908D01*
X52319Y5867D01*
X52346Y5834D01*
X52380Y5809D01*
X52422Y5791D01*
X52472Y5781D01*
X52529Y5778D01*
X53128Y5778D01*
X53128Y5922D01*
X53057Y5922D01*
X53057Y5925D01*
X53099Y5951D01*
X53126Y5982D01*
X53140Y6015D01*
X53141Y6021D01*
X53018Y6021D01*
X53021Y6003D01*
X53018Y5982D01*
X53009Y5965D01*
X52994Y5952D01*
X52973Y5942D01*
X52908Y5930D01*
X52811Y5925D01*
X52737Y5930D01*
X52680Y5943D01*
X52660Y5954D01*
X52643Y5967D01*
X52633Y5985D01*
X52630Y6008D01*
X52633Y6022D01*
X52511Y6022D01*
X52505Y6017D01*
X52507Y6012D01*
X52523Y5977D01*
X52547Y5947D01*
X52578Y5922D01*
X52578Y5919D01*
X52496Y5919D01*
X52452Y5924D01*
X52417Y5937D01*
X52403Y5947D01*
X52393Y5963D01*
X52387Y5981D01*
X52385Y6002D01*
X52390Y6029D01*
X52403Y6052D01*
X52424Y6069D01*
X52451Y6075D01*
X52451Y6219D01*
X52413Y6216D01*
X52380Y6207D01*
X52352Y6191D01*
X52328Y6168D01*
X52322Y6160D02*
X52451Y6160D01*
X52451Y6140D02*
X52309Y6140D01*
X52301Y6120D02*
X52451Y6120D01*
X52451Y6100D02*
X52294Y6100D01*
X52289Y6080D02*
X52451Y6080D01*
X52413Y6060D02*
X52286Y6060D01*
X52284Y6040D02*
X52396Y6040D01*
X52388Y6020D02*
X52283Y6020D01*
X52284Y6001D02*
X52385Y6001D01*
X52387Y5981D02*
X52286Y5981D01*
X52287Y5961D02*
X52394Y5961D01*
X52411Y5941D02*
X52292Y5941D01*
X52296Y5921D02*
X52474Y5921D01*
X52536Y5961D02*
X52650Y5961D01*
X52635Y5981D02*
X52521Y5981D01*
X52512Y6001D02*
X52630Y6001D01*
X52626Y6017D02*
X52628Y6022D01*
X52638Y6039D01*
X52653Y6052D01*
X52675Y6061D01*
X52727Y6072D01*
X52789Y6075D01*
X52895Y6072D01*
X52934Y6068D01*
X52964Y6060D01*
X52987Y6050D01*
X53002Y6036D01*
X53010Y6018D01*
X53010Y6013D01*
X53133Y6013D01*
X53138Y6039D01*
X53136Y6068D01*
X53131Y6093D01*
X53121Y6116D01*
X53108Y6135D01*
X53075Y6166D01*
X53033Y6191D01*
X52984Y6207D01*
X52930Y6216D01*
X52817Y6222D01*
X52737Y6219D01*
X52670Y6210D01*
X52615Y6196D01*
X52573Y6177D01*
X52541Y6151D01*
X52519Y6120D01*
X52505Y6084D01*
X52501Y6042D01*
X52505Y6012D01*
X52505Y6017D01*
X52626Y6017D01*
X52504Y6020D01*
X52509Y6020D02*
X52632Y6020D01*
X52640Y6040D02*
X52501Y6040D01*
X52503Y6060D02*
X52672Y6060D01*
X52688Y5941D02*
X52555Y5941D01*
X52578Y5921D02*
X53128Y5921D01*
X53128Y5901D02*
X52303Y5901D01*
X52312Y5882D02*
X53128Y5882D01*
X53128Y5862D02*
X52323Y5862D01*
X52339Y5842D02*
X53128Y5842D01*
X53128Y5822D02*
X52363Y5822D01*
X52398Y5802D02*
X53128Y5802D01*
X53128Y5782D02*
X52466Y5782D01*
X52127Y5504D02*
X52028Y5504D01*
X52028Y5485D02*
X52166Y5485D01*
X52188Y5465D02*
X52028Y5465D01*
X52028Y5445D02*
X52204Y5445D01*
X52216Y5425D02*
X52028Y5425D01*
X52028Y5405D02*
X52224Y5405D01*
X52230Y5385D02*
X52028Y5385D01*
X52105Y5365D02*
X52234Y5365D01*
X52237Y5346D02*
X52120Y5346D01*
X52125Y5326D02*
X52239Y5326D01*
X52235Y5306D02*
X52126Y5306D01*
X52123Y5286D02*
X52234Y5286D01*
X52233Y5266D02*
X52112Y5266D01*
X51756Y5246D02*
X51656Y5246D01*
X51628Y5266D02*
X51717Y5266D01*
X51702Y5286D02*
X51606Y5286D01*
X51595Y5306D02*
X51692Y5306D01*
X51691Y5326D02*
X51591Y5326D01*
X51586Y5346D02*
X51691Y5346D01*
X51697Y5365D02*
X51584Y5365D01*
X51583Y5385D02*
X51725Y5385D01*
X52971Y5941D02*
X53084Y5941D01*
X53108Y5961D02*
X53004Y5961D01*
X53017Y5981D02*
X53125Y5981D01*
X53134Y6001D02*
X53021Y6001D01*
X53018Y6020D02*
X53141Y6020D01*
X53135Y6020D02*
X53009Y6020D01*
X52997Y6040D02*
X53138Y6040D01*
X53137Y6060D02*
X52963Y6060D01*
X53007Y6199D02*
X52626Y6199D01*
X52578Y6179D02*
X53052Y6179D01*
X53082Y6160D02*
X52551Y6160D01*
X52533Y6140D02*
X53103Y6140D01*
X53118Y6120D02*
X52518Y6120D01*
X52511Y6100D02*
X53128Y6100D01*
X53133Y6080D02*
X52505Y6080D01*
X52451Y6179D02*
X52340Y6179D01*
X52367Y6199D02*
X52451Y6199D01*
X52428Y6291D02*
X52428Y6441D01*
X52430Y6443D01*
X52166Y6443D01*
X52166Y6444D01*
X52199Y6469D01*
X52223Y6498D01*
X52235Y6525D01*
X52118Y6525D01*
X52118Y6521D01*
X52115Y6498D01*
X52105Y6480D01*
X52088Y6466D01*
X52066Y6457D01*
X52001Y6447D01*
X51911Y6444D01*
X51821Y6447D01*
X51756Y6457D01*
X51734Y6466D01*
X51717Y6480D01*
X51707Y6498D01*
X51704Y6521D01*
X51704Y6525D01*
X51588Y6525D01*
X51600Y6494D01*
X51625Y6464D01*
X51662Y6437D01*
X51662Y6435D01*
X51595Y6435D01*
X51595Y6291D01*
X52428Y6291D01*
X52428Y6299D02*
X51595Y6299D01*
X51595Y6318D02*
X52428Y6318D01*
X52428Y6338D02*
X51595Y6338D01*
X51595Y6358D02*
X52428Y6358D01*
X52428Y6378D02*
X51595Y6378D01*
X51595Y6398D02*
X52428Y6398D01*
X52428Y6418D02*
X51595Y6418D01*
X51633Y6457D02*
X51758Y6457D01*
X51721Y6477D02*
X51614Y6477D01*
X51599Y6497D02*
X51708Y6497D01*
X51704Y6517D02*
X51592Y6517D01*
X51590Y6526D02*
X51587Y6526D01*
X51702Y6526D01*
X51706Y6544D01*
X51716Y6562D01*
X51732Y6576D01*
X51755Y6585D01*
X51820Y6595D01*
X51910Y6599D01*
X51999Y6595D01*
X52064Y6585D01*
X52086Y6576D01*
X52103Y6562D01*
X52113Y6544D01*
X52117Y6526D01*
X52234Y6526D01*
X52237Y6533D01*
X52241Y6572D01*
X52237Y6615D01*
X52222Y6652D01*
X52197Y6684D01*
X52163Y6709D01*
X52118Y6729D01*
X52061Y6743D01*
X51992Y6750D01*
X51911Y6753D01*
X51830Y6750D01*
X51761Y6743D01*
X51704Y6729D01*
X51659Y6709D01*
X51626Y6684D01*
X51602Y6652D01*
X51588Y6615D01*
X51584Y6572D01*
X51588Y6530D01*
X51590Y6526D01*
X51588Y6537D02*
X51704Y6537D01*
X51712Y6556D02*
X51586Y6556D01*
X51584Y6576D02*
X51734Y6576D01*
X51841Y6596D02*
X51587Y6596D01*
X51589Y6616D02*
X52236Y6616D01*
X52238Y6596D02*
X51978Y6596D01*
X52085Y6576D02*
X52240Y6576D01*
X52239Y6556D02*
X52107Y6556D01*
X52115Y6537D02*
X52237Y6537D01*
X52231Y6517D02*
X52118Y6517D01*
X52114Y6497D02*
X52222Y6497D01*
X52205Y6477D02*
X52101Y6477D01*
X52064Y6457D02*
X52183Y6457D01*
X52228Y6636D02*
X51596Y6636D01*
X51604Y6656D02*
X52219Y6656D01*
X52204Y6676D02*
X51620Y6676D01*
X51641Y6695D02*
X52182Y6695D01*
X52150Y6715D02*
X51672Y6715D01*
X51730Y6735D02*
X52092Y6735D01*
X52098Y6795D02*
X51730Y6795D01*
X51709Y6801D02*
X51766Y6785D01*
X51831Y6775D01*
X51908Y6773D01*
X51986Y6775D01*
X52053Y6783D01*
X52110Y6798D01*
X52157Y6821D01*
X52193Y6851D01*
X52219Y6891D01*
X52234Y6942D01*
X52238Y7004D01*
X52237Y7017D01*
X52238Y7018D01*
X52124Y7018D01*
X52123Y7029D01*
X52110Y7048D01*
X52091Y7064D01*
X52066Y7074D01*
X51995Y7084D01*
X51907Y7086D01*
X51818Y7084D01*
X51748Y7074D01*
X51722Y7064D01*
X51702Y7048D01*
X51691Y7029D01*
X51689Y7018D01*
X51581Y7018D01*
X51584Y7066D01*
X51599Y7117D01*
X51625Y7158D01*
X51660Y7190D01*
X51707Y7212D01*
X51764Y7227D01*
X51831Y7235D01*
X51908Y7238D01*
X51984Y7235D01*
X52051Y7226D01*
X52108Y7209D01*
X52154Y7185D01*
X52190Y7153D01*
X52217Y7113D01*
X52234Y7064D01*
X52238Y7018D01*
X52127Y7018D01*
X52130Y7005D01*
X52127Y6984D01*
X52118Y6966D01*
X52101Y6952D01*
X52079Y6942D01*
X52010Y6929D01*
X51908Y6924D01*
X51806Y6929D01*
X51739Y6942D01*
X51716Y6952D01*
X51699Y6966D01*
X51691Y6984D01*
X51687Y7005D01*
X51691Y7018D01*
X51583Y7018D01*
X51581Y7005D01*
X51585Y6947D01*
X51600Y6897D01*
X51626Y6856D01*
X51662Y6825D01*
X51709Y6801D01*
X51682Y6815D02*
X52145Y6815D01*
X52174Y6834D02*
X51651Y6834D01*
X51628Y6854D02*
X52195Y6854D01*
X52208Y6874D02*
X51615Y6874D01*
X51602Y6894D02*
X52219Y6894D01*
X52225Y6914D02*
X51595Y6914D01*
X51589Y6934D02*
X51780Y6934D01*
X51715Y6954D02*
X51585Y6954D01*
X51583Y6973D02*
X51696Y6973D01*
X51689Y6993D02*
X51582Y6993D01*
X51582Y7013D02*
X51689Y7013D01*
X51693Y7033D02*
X51582Y7033D01*
X51583Y7053D02*
X51708Y7053D01*
X51744Y7073D02*
X51586Y7073D01*
X51592Y7093D02*
X52224Y7093D01*
X52230Y7073D02*
X52069Y7073D01*
X52105Y7053D02*
X52235Y7053D01*
X52237Y7033D02*
X52120Y7033D01*
X52128Y7013D02*
X52237Y7013D01*
X52237Y6993D02*
X52128Y6993D01*
X52122Y6973D02*
X52236Y6973D01*
X52234Y6954D02*
X52103Y6954D01*
X52037Y6934D02*
X52231Y6934D01*
X52217Y7112D02*
X51598Y7112D01*
X51608Y7132D02*
X52204Y7132D01*
X52191Y7152D02*
X51621Y7152D01*
X51640Y7172D02*
X52169Y7172D01*
X52141Y7192D02*
X51665Y7192D01*
X51706Y7212D02*
X52098Y7212D01*
X52007Y7231D02*
X51804Y7231D01*
X51596Y7299D02*
X51596Y7443D01*
X52262Y7443D01*
X52262Y7446D01*
X51818Y7539D01*
X51596Y7586D01*
X51596Y7707D01*
X51818Y7753D01*
X52262Y7847D01*
X52262Y7848D01*
X51596Y7848D01*
X51596Y7992D01*
X52430Y7992D01*
X52430Y7758D01*
X52037Y7683D01*
X51840Y7645D01*
X51840Y7644D01*
X52037Y7606D01*
X52430Y7531D01*
X52430Y7299D01*
X51596Y7299D01*
X51596Y7311D02*
X52430Y7311D01*
X52430Y7331D02*
X51596Y7331D01*
X51596Y7351D02*
X52430Y7351D01*
X52430Y7370D02*
X51596Y7370D01*
X51596Y7390D02*
X52430Y7390D01*
X52430Y7410D02*
X51596Y7410D01*
X51596Y7430D02*
X52430Y7430D01*
X52430Y7450D02*
X52244Y7450D01*
X52149Y7470D02*
X52430Y7470D01*
X52430Y7490D02*
X52054Y7490D01*
X51959Y7509D02*
X52430Y7509D01*
X52430Y7529D02*
X51865Y7529D01*
X51770Y7549D02*
X52338Y7549D01*
X52234Y7569D02*
X51675Y7569D01*
X51596Y7589D02*
X52130Y7589D01*
X52026Y7609D02*
X51596Y7609D01*
X51596Y7629D02*
X51922Y7629D01*
X51959Y7668D02*
X51596Y7668D01*
X51596Y7688D02*
X52063Y7688D01*
X52167Y7708D02*
X51600Y7708D01*
X51596Y7648D02*
X51855Y7648D01*
X51790Y7748D02*
X52376Y7748D01*
X52430Y7767D02*
X51885Y7767D01*
X51979Y7787D02*
X52430Y7787D01*
X52430Y7807D02*
X52074Y7807D01*
X52169Y7827D02*
X52430Y7827D01*
X52430Y7847D02*
X52262Y7847D01*
X52271Y7728D02*
X51695Y7728D01*
X51596Y7867D02*
X52430Y7867D01*
X52430Y7887D02*
X51596Y7887D01*
X51596Y7906D02*
X52430Y7906D01*
X52430Y7926D02*
X51596Y7926D01*
X51596Y7946D02*
X52430Y7946D01*
X52430Y7966D02*
X51596Y7966D01*
X51596Y7986D02*
X52430Y7986D01*
X52493Y7865D02*
X53190Y7865D01*
X53190Y8034D01*
X53329Y8034D01*
X53329Y7539D01*
X53190Y7539D01*
X53190Y7709D01*
X52493Y7709D01*
X52493Y7865D01*
X52493Y7847D02*
X53329Y7847D01*
X53329Y7867D02*
X53190Y7867D01*
X53190Y7887D02*
X53329Y7887D01*
X53329Y7906D02*
X53190Y7906D01*
X53190Y7926D02*
X53329Y7926D01*
X53329Y7946D02*
X53190Y7946D01*
X53190Y7966D02*
X53329Y7966D01*
X53329Y7986D02*
X53190Y7986D01*
X53190Y8006D02*
X53329Y8006D01*
X53329Y8025D02*
X53190Y8025D01*
X53394Y7992D02*
X54228Y7992D01*
X54228Y7758D01*
X54032Y7721D01*
X53836Y7683D01*
X53639Y7645D01*
X53639Y7644D01*
X53836Y7606D01*
X54032Y7569D01*
X54228Y7531D01*
X54228Y7299D01*
X53394Y7299D01*
X53394Y7443D01*
X54060Y7443D01*
X54060Y7446D01*
X53839Y7492D01*
X53616Y7539D01*
X53394Y7586D01*
X53394Y7707D01*
X53616Y7753D01*
X53839Y7800D01*
X54060Y7847D01*
X54060Y7848D01*
X53394Y7848D01*
X53394Y7992D01*
X53394Y7986D02*
X54228Y7986D01*
X54228Y7966D02*
X53394Y7966D01*
X53394Y7946D02*
X54228Y7946D01*
X54228Y7926D02*
X53394Y7926D01*
X53394Y7906D02*
X54228Y7906D01*
X54228Y7887D02*
X53394Y7887D01*
X53394Y7867D02*
X54228Y7867D01*
X54228Y7847D02*
X54060Y7847D01*
X53967Y7827D02*
X54228Y7827D01*
X54228Y7807D02*
X53873Y7807D01*
X53778Y7787D02*
X54228Y7787D01*
X54228Y7767D02*
X53683Y7767D01*
X53588Y7748D02*
X54174Y7748D01*
X54070Y7728D02*
X53493Y7728D01*
X53399Y7708D02*
X53966Y7708D01*
X53862Y7688D02*
X53394Y7688D01*
X53394Y7668D02*
X53758Y7668D01*
X53720Y7629D02*
X53394Y7629D01*
X53394Y7648D02*
X53654Y7648D01*
X53663Y7529D02*
X54228Y7529D01*
X54228Y7509D02*
X53758Y7509D01*
X53853Y7490D02*
X54228Y7490D01*
X54228Y7470D02*
X53947Y7470D01*
X54042Y7450D02*
X54228Y7450D01*
X54228Y7430D02*
X53394Y7430D01*
X53394Y7410D02*
X54228Y7410D01*
X54228Y7390D02*
X53394Y7390D01*
X53394Y7370D02*
X54228Y7370D01*
X54228Y7351D02*
X53394Y7351D01*
X53394Y7331D02*
X54228Y7331D01*
X54228Y7311D02*
X53394Y7311D01*
X53330Y7345D02*
X53329Y7348D01*
X53059Y7348D01*
X53059Y7345D01*
X53094Y7320D01*
X53120Y7288D01*
X53135Y7249D01*
X53140Y7203D01*
X53136Y7169D01*
X53129Y7139D01*
X53116Y7113D01*
X53098Y7092D01*
X53074Y7075D01*
X53042Y7064D01*
X53004Y7056D01*
X52961Y7053D01*
X52493Y7053D01*
X52493Y7203D01*
X52928Y7203D01*
X52970Y7208D01*
X52997Y7220D01*
X53012Y7239D01*
X53017Y7268D01*
X53010Y7302D01*
X53003Y7316D01*
X52991Y7326D01*
X52958Y7341D01*
X52913Y7345D01*
X52496Y7345D01*
X52496Y7496D01*
X53330Y7496D01*
X53330Y7345D01*
X53330Y7351D02*
X52496Y7351D01*
X52496Y7370D02*
X53330Y7370D01*
X53330Y7390D02*
X52496Y7390D01*
X52496Y7410D02*
X53330Y7410D01*
X53330Y7430D02*
X52496Y7430D01*
X52496Y7450D02*
X53330Y7450D01*
X53330Y7470D02*
X52496Y7470D01*
X52496Y7490D02*
X53330Y7490D01*
X53329Y7549D02*
X53190Y7549D01*
X53190Y7569D02*
X53329Y7569D01*
X53329Y7589D02*
X53190Y7589D01*
X53190Y7609D02*
X53329Y7609D01*
X53329Y7629D02*
X53190Y7629D01*
X53190Y7648D02*
X53329Y7648D01*
X53329Y7668D02*
X53190Y7668D01*
X53190Y7688D02*
X53329Y7688D01*
X53329Y7708D02*
X53190Y7708D01*
X53329Y7728D02*
X52493Y7728D01*
X52493Y7748D02*
X53329Y7748D01*
X53329Y7767D02*
X52493Y7767D01*
X52493Y7787D02*
X53329Y7787D01*
X53329Y7807D02*
X52493Y7807D01*
X52493Y7827D02*
X53329Y7827D01*
X53394Y7609D02*
X53824Y7609D01*
X53928Y7589D02*
X53394Y7589D01*
X53474Y7569D02*
X54032Y7569D01*
X54136Y7549D02*
X53568Y7549D01*
X53079Y7331D02*
X52981Y7331D01*
X53006Y7311D02*
X53102Y7311D01*
X53118Y7291D02*
X53012Y7291D01*
X53016Y7271D02*
X53127Y7271D01*
X53134Y7251D02*
X53014Y7251D01*
X53006Y7231D02*
X53137Y7231D01*
X53139Y7212D02*
X52979Y7212D01*
X53138Y7192D02*
X52493Y7192D01*
X52493Y7172D02*
X53137Y7172D01*
X53132Y7152D02*
X52493Y7152D01*
X52493Y7132D02*
X53126Y7132D01*
X53115Y7112D02*
X52493Y7112D01*
X52493Y7093D02*
X53098Y7093D01*
X53066Y7073D02*
X52493Y7073D01*
X52493Y6970D02*
X53123Y6970D01*
X53123Y6821D01*
X52493Y6821D01*
X52493Y6970D01*
X52493Y6954D02*
X53123Y6954D01*
X53123Y6934D02*
X52493Y6934D01*
X52493Y6914D02*
X53123Y6914D01*
X53123Y6894D02*
X52493Y6894D01*
X52493Y6874D02*
X53123Y6874D01*
X53123Y6854D02*
X52493Y6854D01*
X52493Y6834D02*
X53123Y6834D01*
X53201Y6834D02*
X53339Y6834D01*
X53339Y6821D02*
X53339Y6970D01*
X53201Y6970D01*
X53201Y6821D01*
X53339Y6821D01*
X53339Y6854D02*
X53201Y6854D01*
X53201Y6874D02*
X53339Y6874D01*
X53339Y6894D02*
X53201Y6894D01*
X53201Y6914D02*
X53339Y6914D01*
X53339Y6934D02*
X53201Y6934D01*
X53201Y6954D02*
X53339Y6954D01*
X53391Y6917D02*
X53465Y6917D01*
X53465Y6918D01*
X53468Y6917D01*
X53428Y6943D01*
X53401Y6978D01*
X53386Y7018D01*
X53381Y7065D01*
X53384Y7100D01*
X53391Y7130D01*
X53403Y7155D01*
X53421Y7176D01*
X53445Y7192D01*
X53475Y7204D01*
X53513Y7212D01*
X53557Y7215D01*
X54025Y7215D01*
X54025Y7065D01*
X53589Y7065D01*
X53547Y7061D01*
X53520Y7048D01*
X53505Y7029D01*
X53501Y7000D01*
X53507Y6966D01*
X53515Y6952D01*
X53527Y6942D01*
X53559Y6927D01*
X53604Y6922D01*
X54022Y6922D01*
X54022Y6773D01*
X53391Y6773D01*
X53391Y6917D01*
X54022Y6914D01*
X54022Y6894D02*
X53391Y6894D01*
X53391Y6874D02*
X54022Y6874D01*
X54022Y6854D02*
X53391Y6854D01*
X53391Y6834D02*
X54022Y6834D01*
X54022Y6815D02*
X53391Y6815D01*
X53391Y6795D02*
X54022Y6795D01*
X54022Y6775D02*
X53391Y6775D01*
X53451Y6715D02*
X53597Y6715D01*
X53597Y6695D02*
X53426Y6695D01*
X53429Y6699D02*
X53458Y6720D01*
X53492Y6734D01*
X53531Y6741D01*
X53574Y6744D01*
X53597Y6744D01*
X53597Y6609D01*
X53576Y6609D01*
X53579Y6604D01*
X53542Y6600D01*
X53513Y6585D01*
X53493Y6561D01*
X53487Y6528D01*
X53492Y6496D01*
X53505Y6473D01*
X53530Y6457D01*
X53562Y6453D01*
X53589Y6457D01*
X53609Y6469D01*
X53623Y6487D01*
X53633Y6508D01*
X53673Y6613D01*
X53702Y6668D01*
X53720Y6688D01*
X53740Y6707D01*
X53762Y6720D01*
X53787Y6730D01*
X53816Y6736D01*
X53847Y6738D01*
X53885Y6735D01*
X53921Y6726D01*
X53954Y6711D01*
X53983Y6688D01*
X54005Y6659D01*
X54023Y6621D01*
X54035Y6576D01*
X54040Y6522D01*
X54037Y6474D01*
X54027Y6434D01*
X54013Y6399D01*
X53992Y6370D01*
X53966Y6350D01*
X53936Y6334D01*
X53900Y6325D01*
X53859Y6322D01*
X53834Y6322D01*
X53834Y6457D01*
X53876Y6460D01*
X53906Y6471D01*
X53916Y6480D01*
X53924Y6492D01*
X53930Y6524D01*
X53926Y6551D01*
X53912Y6573D01*
X53891Y6590D01*
X53861Y6595D01*
X53839Y6592D01*
X53819Y6582D01*
X53801Y6562D01*
X53786Y6531D01*
X53753Y6441D01*
X53740Y6408D01*
X53723Y6381D01*
X53705Y6359D01*
X53686Y6340D01*
X53663Y6327D01*
X53636Y6318D01*
X53606Y6312D01*
X53572Y6311D01*
X53525Y6315D01*
X53485Y6327D01*
X53450Y6347D01*
X53423Y6372D01*
X53402Y6404D01*
X53388Y6441D01*
X53381Y6483D01*
X53378Y6528D01*
X53381Y6586D01*
X53390Y6633D01*
X53406Y6670D01*
X53429Y6699D01*
X53411Y6676D02*
X53597Y6676D01*
X53597Y6656D02*
X53400Y6656D01*
X53391Y6636D02*
X53597Y6636D01*
X53597Y6616D02*
X53387Y6616D01*
X53383Y6596D02*
X53534Y6596D01*
X53506Y6576D02*
X53380Y6576D01*
X53379Y6556D02*
X53493Y6556D01*
X53489Y6537D02*
X53378Y6537D01*
X53379Y6517D02*
X53489Y6517D01*
X53492Y6497D02*
X53380Y6497D01*
X53382Y6477D02*
X53503Y6477D01*
X53531Y6457D02*
X53386Y6457D01*
X53390Y6437D02*
X53752Y6437D01*
X53759Y6457D02*
X53588Y6457D01*
X53615Y6477D02*
X53766Y6477D01*
X53773Y6497D02*
X53627Y6497D01*
X53636Y6517D02*
X53781Y6517D01*
X53789Y6537D02*
X53644Y6537D01*
X53652Y6556D02*
X53798Y6556D01*
X53814Y6576D02*
X53659Y6576D01*
X53667Y6596D02*
X54030Y6596D01*
X54035Y6576D02*
X53908Y6576D01*
X53922Y6556D02*
X54037Y6556D01*
X54038Y6537D02*
X53928Y6537D01*
X53929Y6517D02*
X54039Y6517D01*
X54038Y6497D02*
X53925Y6497D01*
X53913Y6477D02*
X54037Y6477D01*
X54033Y6457D02*
X53834Y6457D01*
X53834Y6437D02*
X54028Y6437D01*
X54021Y6418D02*
X53834Y6418D01*
X53834Y6398D02*
X54012Y6398D01*
X53997Y6378D02*
X53834Y6378D01*
X53834Y6358D02*
X53976Y6358D01*
X53943Y6338D02*
X53834Y6338D01*
X53733Y6398D02*
X53406Y6398D01*
X53397Y6418D02*
X53743Y6418D01*
X53720Y6378D02*
X53419Y6378D01*
X53438Y6358D02*
X53704Y6358D01*
X53682Y6338D02*
X53465Y6338D01*
X53514Y6318D02*
X53637Y6318D01*
X53393Y6226D02*
X54023Y6226D01*
X54023Y6077D01*
X53393Y6077D01*
X53393Y6226D01*
X53393Y6219D02*
X54023Y6219D01*
X54023Y6199D02*
X53393Y6199D01*
X53393Y6179D02*
X54023Y6179D01*
X54023Y6160D02*
X53393Y6160D01*
X53393Y6140D02*
X54023Y6140D01*
X54023Y6120D02*
X53393Y6120D01*
X53393Y6100D02*
X54023Y6100D01*
X54023Y6080D02*
X53393Y6080D01*
X53455Y5941D02*
X53945Y5941D01*
X53926Y5954D02*
X53970Y5925D01*
X54002Y5890D01*
X54023Y5850D01*
X54035Y5803D01*
X54040Y5754D01*
X54035Y5704D01*
X54023Y5663D01*
X54002Y5626D01*
X53973Y5596D01*
X53938Y5574D01*
X53896Y5557D01*
X53847Y5547D01*
X53795Y5544D01*
X53795Y5688D01*
X53840Y5691D01*
X53842Y5693D01*
X53882Y5703D01*
X53899Y5712D01*
X53912Y5724D01*
X53921Y5739D01*
X53924Y5759D01*
X53921Y5784D01*
X53911Y5803D01*
X53894Y5818D01*
X53871Y5829D01*
X53805Y5841D01*
X53710Y5844D01*
X53609Y5841D01*
X53572Y5837D01*
X53542Y5829D01*
X53519Y5818D01*
X53502Y5805D01*
X53493Y5787D01*
X53490Y5764D01*
X53492Y5747D01*
X53498Y5731D01*
X53508Y5720D01*
X53524Y5709D01*
X53569Y5695D01*
X53636Y5691D01*
X53636Y5547D01*
X53577Y5550D01*
X53527Y5559D01*
X53483Y5576D01*
X53447Y5598D01*
X53418Y5628D01*
X53398Y5667D01*
X53386Y5713D01*
X53381Y5769D01*
X53384Y5821D01*
X53394Y5867D01*
X53416Y5905D01*
X53447Y5937D01*
X53492Y5961D01*
X53549Y5979D01*
X53621Y5990D01*
X53708Y5992D01*
X53797Y5988D01*
X53869Y5974D01*
X53926Y5954D01*
X53905Y5961D02*
X53492Y5961D01*
X53562Y5981D02*
X53835Y5981D01*
X53777Y5842D02*
X54025Y5842D01*
X54030Y5822D02*
X53886Y5822D01*
X53911Y5802D02*
X54035Y5802D01*
X54037Y5782D02*
X53921Y5782D01*
X53924Y5763D02*
X54039Y5763D01*
X54039Y5743D02*
X53922Y5743D01*
X53911Y5723D02*
X54037Y5723D01*
X54035Y5703D02*
X53882Y5703D01*
X53795Y5683D02*
X54029Y5683D01*
X54023Y5663D02*
X53795Y5663D01*
X53795Y5643D02*
X54012Y5643D01*
X53999Y5624D02*
X53795Y5624D01*
X53795Y5604D02*
X53980Y5604D01*
X53953Y5584D02*
X53795Y5584D01*
X53795Y5564D02*
X53912Y5564D01*
X53797Y5544D02*
X53795Y5544D01*
X53636Y5564D02*
X53513Y5564D01*
X53470Y5584D02*
X53636Y5584D01*
X53636Y5604D02*
X53442Y5604D01*
X53423Y5624D02*
X53636Y5624D01*
X53636Y5643D02*
X53410Y5643D01*
X53400Y5663D02*
X53636Y5663D01*
X53636Y5683D02*
X53393Y5683D01*
X53388Y5703D02*
X53544Y5703D01*
X53506Y5723D02*
X53385Y5723D01*
X53383Y5743D02*
X53493Y5743D01*
X53491Y5763D02*
X53382Y5763D01*
X53382Y5782D02*
X53493Y5782D01*
X53501Y5802D02*
X53383Y5802D01*
X53384Y5822D02*
X53527Y5822D01*
X53639Y5842D02*
X53389Y5842D01*
X53393Y5862D02*
X54017Y5862D01*
X54007Y5882D02*
X53403Y5882D01*
X53413Y5901D02*
X53992Y5901D01*
X53974Y5921D02*
X53431Y5921D01*
X52872Y6219D02*
X52739Y6219D01*
X52962Y6291D02*
X52494Y6291D01*
X52494Y6441D01*
X52930Y6441D01*
X52972Y6446D01*
X52999Y6457D01*
X53014Y6477D01*
X53018Y6505D01*
X53012Y6540D01*
X53004Y6553D01*
X52992Y6564D01*
X52960Y6579D01*
X52915Y6583D01*
X52497Y6583D01*
X52497Y6734D01*
X53128Y6734D01*
X53128Y6590D01*
X53123Y6592D01*
X53049Y6592D01*
X53049Y6590D01*
X53090Y6562D01*
X53118Y6528D01*
X53135Y6487D01*
X53141Y6441D01*
X53138Y6407D01*
X53131Y6377D01*
X53117Y6351D01*
X53099Y6330D01*
X53075Y6313D01*
X53044Y6302D01*
X53006Y6294D01*
X52962Y6291D01*
X53028Y6299D02*
X52494Y6299D01*
X52494Y6318D02*
X53082Y6318D01*
X53106Y6338D02*
X52494Y6338D01*
X52494Y6358D02*
X53121Y6358D01*
X53131Y6378D02*
X52494Y6378D01*
X52494Y6398D02*
X53136Y6398D01*
X53139Y6418D02*
X52494Y6418D01*
X52494Y6437D02*
X53141Y6437D01*
X53139Y6457D02*
X52998Y6457D01*
X53014Y6477D02*
X53136Y6477D01*
X53131Y6497D02*
X53017Y6497D01*
X53016Y6517D02*
X53123Y6517D01*
X53111Y6537D02*
X53013Y6537D01*
X53001Y6556D02*
X53095Y6556D01*
X53069Y6576D02*
X52965Y6576D01*
X53128Y6596D02*
X52497Y6596D01*
X52497Y6616D02*
X53128Y6616D01*
X53128Y6636D02*
X52497Y6636D01*
X52497Y6656D02*
X53128Y6656D01*
X53128Y6676D02*
X52497Y6676D01*
X52497Y6695D02*
X53128Y6695D01*
X53128Y6715D02*
X52497Y6715D01*
X52428Y6437D02*
X51661Y6437D01*
X51847Y6775D02*
X51970Y6775D01*
X53388Y7013D02*
X53503Y7013D01*
X53502Y6993D02*
X53395Y6993D01*
X53404Y6973D02*
X53506Y6973D01*
X53514Y6954D02*
X53420Y6954D01*
X53442Y6934D02*
X53545Y6934D01*
X53508Y7033D02*
X53384Y7033D01*
X53382Y7053D02*
X53530Y7053D01*
X53382Y7073D02*
X54025Y7073D01*
X54025Y7093D02*
X53383Y7093D01*
X53387Y7112D02*
X54025Y7112D01*
X54025Y7132D02*
X53393Y7132D01*
X53402Y7152D02*
X54025Y7152D01*
X54025Y7172D02*
X53418Y7172D01*
X53444Y7192D02*
X54025Y7192D01*
X54025Y7212D02*
X53511Y7212D01*
X53501Y6735D02*
X53597Y6735D01*
X53696Y6656D02*
X54006Y6656D01*
X54016Y6636D02*
X53685Y6636D01*
X53675Y6616D02*
X54024Y6616D01*
X53992Y6676D02*
X53709Y6676D01*
X53728Y6695D02*
X53974Y6695D01*
X53944Y6715D02*
X53754Y6715D01*
X53810Y6735D02*
X53883Y6735D01*
X54101Y6226D02*
X54239Y6226D01*
X54239Y6077D01*
X54101Y6077D01*
X54101Y6226D01*
X54101Y6219D02*
X54239Y6219D01*
X54239Y6199D02*
X54101Y6199D01*
X54101Y6179D02*
X54239Y6179D01*
X54239Y6160D02*
X54101Y6160D01*
X54101Y6140D02*
X54239Y6140D01*
X54239Y6120D02*
X54101Y6120D01*
X54101Y6100D02*
X54239Y6100D01*
X54239Y6080D02*
X54101Y6080D01*
D11*
X4020Y6010D02*
X4020Y1020D01*
X11447Y1020D01*
X11368Y1099D01*
X11368Y1276D01*
X11352Y1301D01*
X11368Y1368D01*
X11368Y1436D01*
X11389Y1457D01*
X11396Y1486D01*
X11454Y1522D01*
X11458Y1526D01*
X11368Y1616D01*
X11368Y1858D01*
X11350Y1913D01*
X11368Y1950D01*
X11368Y2038D01*
X11350Y2097D01*
X11368Y2130D01*
X11368Y2167D01*
X11411Y2211D01*
X11440Y2265D01*
X11476Y2276D01*
X11483Y2282D01*
X11478Y2287D01*
X11443Y2297D01*
X11413Y2352D01*
X11368Y2397D01*
X11368Y2432D01*
X11351Y2464D01*
X11368Y2524D01*
X11368Y2591D01*
X11368Y2592D01*
X11368Y2609D01*
X11350Y2645D01*
X11368Y2699D01*
X11368Y4018D01*
X11411Y4061D01*
X11409Y4064D01*
X11375Y4090D01*
X11367Y4145D01*
X11341Y4194D01*
X11354Y4236D01*
X11351Y4257D01*
X11327Y4293D01*
X11338Y4348D01*
X11331Y4403D01*
X11357Y4437D01*
X11375Y4524D01*
X11367Y4580D01*
X11393Y4614D01*
X11401Y4656D01*
X11448Y4687D01*
X11500Y4756D01*
X11515Y4808D01*
X11556Y4829D01*
X11583Y4866D01*
X11636Y4873D01*
X11698Y4907D01*
X11724Y4942D01*
X11778Y4950D01*
X11827Y4977D01*
X11869Y4964D01*
X11946Y4976D01*
X11977Y4998D01*
X12037Y4989D01*
X12096Y4998D01*
X12127Y4975D01*
X12200Y4964D01*
X12243Y4976D01*
X12291Y4950D01*
X12345Y4942D01*
X12371Y4906D01*
X12431Y4874D01*
X12482Y4867D01*
X12511Y4830D01*
X12552Y4808D01*
X12567Y4758D01*
X12619Y4691D01*
X12666Y4660D01*
X12675Y4618D01*
X12701Y4585D01*
X12694Y4529D01*
X12711Y4444D01*
X12738Y4409D01*
X12730Y4355D01*
X12742Y4301D01*
X12718Y4264D01*
X12714Y4240D01*
X12727Y4199D01*
X12701Y4149D01*
X12693Y4093D01*
X12659Y4068D01*
X12656Y4062D01*
X12700Y4018D01*
X12700Y3666D01*
X12586Y3552D01*
X12700Y3438D01*
X12700Y2627D01*
X12634Y2561D01*
X12659Y2510D01*
X12701Y2469D01*
X12701Y2428D01*
X12719Y2392D01*
X12701Y2338D01*
X12701Y2294D01*
X12701Y2222D01*
X12718Y2170D01*
X12700Y2133D01*
X12700Y2092D01*
X12659Y2051D01*
X12643Y2018D01*
X12700Y1960D01*
X12700Y1775D01*
X12716Y1750D01*
X12700Y1683D01*
X12700Y1615D01*
X12679Y1594D01*
X12672Y1564D01*
X12614Y1529D01*
X12700Y1443D01*
X12700Y1099D01*
X12621Y1020D01*
X54091Y1020D01*
X54091Y5386D01*
X54075Y5369D01*
X54047Y5368D01*
X54038Y5353D01*
X54008Y5347D01*
X53979Y5329D01*
X53964Y5332D01*
X53956Y5323D01*
X53922Y5321D01*
X53891Y5309D01*
X53879Y5314D01*
X53859Y5314D01*
X53804Y5302D01*
X53786Y5313D01*
X53713Y5309D01*
X53709Y5313D01*
X53645Y5316D01*
X53631Y5307D01*
X53574Y5317D01*
X53549Y5317D01*
X53534Y5310D01*
X53498Y5324D01*
X53471Y5325D01*
X53462Y5335D01*
X53442Y5330D01*
X53419Y5345D01*
X53393Y5349D01*
X53379Y5369D01*
X53377Y5370D01*
X53346Y5370D01*
X53330Y5388D01*
X53312Y5394D01*
X53303Y5416D01*
X53300Y5418D01*
X53285Y5428D01*
X53261Y5435D01*
X53255Y5447D01*
X53244Y5454D01*
X53239Y5476D01*
X53231Y5492D01*
X53216Y5507D01*
X53199Y5517D01*
X53196Y5529D01*
X53186Y5539D01*
X53186Y5548D01*
X52660Y5548D01*
X52660Y5507D01*
X52525Y5372D01*
X52476Y5372D01*
X52484Y5361D01*
X52476Y5324D01*
X52480Y5303D01*
X52475Y5296D01*
X52477Y5292D01*
X52473Y5274D01*
X52476Y5235D01*
X52461Y5217D01*
X52461Y5217D01*
X52470Y5191D01*
X52458Y5165D01*
X52457Y5142D01*
X52441Y5128D01*
X52441Y5127D01*
X52440Y5122D01*
X52441Y5105D01*
X52454Y5092D01*
X52454Y4948D01*
X52454Y4852D01*
X52454Y4832D01*
X52466Y4812D01*
X52469Y4808D01*
X52469Y4806D01*
X52479Y4790D01*
X52474Y4774D01*
X52476Y4772D01*
X52588Y4905D01*
X52860Y5062D01*
X53169Y5117D01*
X53479Y5062D01*
X53751Y4905D01*
X53953Y4665D01*
X54060Y4370D01*
X54060Y4265D01*
X54060Y3161D01*
X54060Y3056D01*
X53953Y2761D01*
X53751Y2520D01*
X53479Y2363D01*
X53169Y2309D01*
X52860Y2363D01*
X52588Y2520D01*
X52386Y2761D01*
X52279Y3056D01*
X52279Y3161D01*
X52279Y4265D01*
X52279Y4370D01*
X52307Y4447D01*
X52225Y4456D01*
X52170Y4456D01*
X52164Y4450D01*
X52076Y4456D01*
X51988Y4456D01*
X51982Y4462D01*
X51974Y4462D01*
X51916Y4528D01*
X51854Y4591D01*
X51854Y4599D01*
X51848Y4605D01*
X51849Y4617D01*
X51499Y4617D01*
X51365Y4751D01*
X51365Y4981D01*
X51361Y4984D01*
X51361Y5047D01*
X51344Y5107D01*
X51361Y5139D01*
X51361Y5182D01*
X51343Y5234D01*
X51356Y5262D01*
X51347Y5279D01*
X51355Y5308D01*
X51345Y5320D01*
X51347Y5344D01*
X51338Y5376D01*
X51348Y5394D01*
X51337Y5418D01*
X51349Y5451D01*
X51347Y5477D01*
X51359Y5491D01*
X51355Y5523D01*
X51363Y5535D01*
X51364Y5546D01*
X51366Y5547D01*
X51366Y5714D01*
X51361Y5719D01*
X51361Y5953D01*
X51361Y5954D01*
X51361Y5961D01*
X51361Y5988D01*
X51359Y6010D01*
X51356Y6019D01*
X51343Y6034D01*
X51345Y6049D01*
X51337Y6071D01*
X51346Y6091D01*
X51338Y6104D01*
X51347Y6141D01*
X51343Y6181D01*
X51343Y6181D01*
X51343Y6183D01*
X51360Y6220D01*
X51364Y6257D01*
X51365Y6258D01*
X51365Y6420D01*
X51361Y6424D01*
X51362Y6427D01*
X51357Y6431D01*
X51357Y6478D01*
X51347Y6499D01*
X51345Y6500D01*
X51345Y6501D01*
X51340Y6512D01*
X51343Y6522D01*
X51340Y6532D01*
X51351Y6558D01*
X51353Y6571D01*
X51352Y6577D01*
X51340Y6603D01*
X51347Y6624D01*
X51345Y6642D01*
X51360Y6661D01*
X51363Y6666D01*
X51365Y6689D01*
X51361Y6716D01*
X51369Y6726D01*
X51370Y6733D01*
X51383Y6744D01*
X51398Y6764D01*
X51399Y6768D01*
X51389Y6801D01*
X51374Y6825D01*
X51363Y6834D01*
X51363Y6843D01*
X51355Y6855D01*
X51360Y6877D01*
X51358Y6904D01*
X51353Y6922D01*
X51351Y6923D01*
X51351Y6924D01*
X51342Y6936D01*
X51344Y6952D01*
X51338Y6971D01*
X51348Y6990D01*
X51350Y7007D01*
X51350Y7009D01*
X51350Y7016D01*
X51337Y7040D01*
X51345Y7070D01*
X51344Y7082D01*
X51351Y7090D01*
X51351Y7114D01*
X51357Y7120D01*
X51358Y7140D01*
X51354Y7159D01*
X51360Y7170D01*
X51360Y7176D01*
X51369Y7183D01*
X51375Y7194D01*
X51366Y7204D01*
X51366Y7517D01*
X51351Y7539D01*
X51366Y7609D01*
X51366Y7683D01*
X51351Y7753D01*
X51366Y7776D01*
X51366Y8087D01*
X51501Y8222D01*
X52525Y8222D01*
X52653Y8094D01*
X52961Y8094D01*
X52961Y8129D01*
X53064Y8233D01*
X52860Y8269D01*
X52588Y8426D01*
X52386Y8666D01*
X52279Y8961D01*
X52279Y9066D01*
X52279Y10170D01*
X52279Y10275D01*
X52386Y10570D01*
X52588Y10811D01*
X52860Y10968D01*
X53169Y11022D01*
X53479Y10968D01*
X53751Y10811D01*
X53953Y10570D01*
X54060Y10275D01*
X54060Y10170D01*
X54060Y9067D01*
X54060Y8961D01*
X53953Y8666D01*
X53751Y8426D01*
X53479Y8269D01*
X53428Y8260D01*
X53466Y8222D01*
X54091Y8222D01*
X54091Y12311D01*
X4020Y12311D01*
X4020Y8060D01*
X4048Y8068D01*
X4077Y8096D01*
X4084Y8128D01*
X4142Y8162D01*
X4188Y8209D01*
X4220Y8209D01*
X4227Y8213D01*
X4245Y8244D01*
X4305Y8260D01*
X4359Y8292D01*
X4394Y8284D01*
X4408Y8287D01*
X4426Y8307D01*
X4498Y8311D01*
X4539Y8322D01*
X4360Y8426D01*
X4158Y8666D01*
X4051Y8961D01*
X4051Y9066D01*
X4051Y10170D01*
X4051Y10275D01*
X4158Y10570D01*
X4360Y10811D01*
X4632Y10968D01*
X4941Y11022D01*
X5250Y10968D01*
X5522Y10811D01*
X5724Y10570D01*
X5832Y10275D01*
X5832Y10170D01*
X5832Y9067D01*
X5832Y8961D01*
X5724Y8666D01*
X5522Y8426D01*
X5351Y8327D01*
X5944Y8327D01*
X5947Y8329D01*
X7140Y8329D01*
X7275Y8195D01*
X7275Y7898D01*
X7275Y7897D01*
X7275Y7856D01*
X7293Y7820D01*
X7284Y7794D01*
X7275Y7727D01*
X7275Y7707D01*
X7274Y7706D01*
X7274Y7638D01*
X7262Y7625D01*
X7258Y7601D01*
X7271Y7559D01*
X7246Y7510D01*
X7238Y7455D01*
X7210Y7434D01*
X7275Y7370D01*
X7275Y6994D01*
X7188Y6908D01*
X7191Y6903D01*
X7238Y6873D01*
X7247Y6831D01*
X7273Y6797D01*
X7266Y6741D01*
X7289Y6631D01*
X7316Y6596D01*
X7308Y6542D01*
X7320Y6488D01*
X7296Y6451D01*
X7290Y6408D01*
X7303Y6367D01*
X7277Y6317D01*
X7269Y6262D01*
X7235Y6236D01*
X7220Y6208D01*
X7220Y6193D01*
X7274Y6139D01*
X7274Y5763D01*
X7171Y5659D01*
X7200Y5629D01*
X7266Y5574D01*
X7267Y5563D01*
X7275Y5555D01*
X7275Y5470D01*
X7282Y5385D01*
X7275Y5376D01*
X7275Y5252D01*
X7281Y5166D01*
X7275Y5158D01*
X7275Y5148D01*
X7213Y5087D01*
X7157Y5021D01*
X7147Y5020D01*
X7140Y5013D01*
X7053Y5013D01*
X6967Y5006D01*
X6959Y5013D01*
X6949Y5013D01*
X6888Y5074D01*
X6722Y5217D01*
X6634Y5292D01*
X6548Y5242D01*
X6182Y5032D01*
X6136Y4986D01*
X6102Y4986D01*
X6073Y4969D01*
X6010Y4986D01*
X5945Y4986D01*
X5921Y5010D01*
X5889Y5019D01*
X5856Y5075D01*
X5811Y5120D01*
X5811Y5154D01*
X5806Y5162D01*
X5796Y5138D01*
X5742Y5116D01*
X5697Y5078D01*
X5657Y5081D01*
X5612Y5063D01*
X5591Y5035D01*
X5527Y5028D01*
X5469Y5003D01*
X5436Y5017D01*
X5370Y5009D01*
X5357Y5001D01*
X5522Y4905D01*
X5724Y4665D01*
X5832Y4370D01*
X5832Y4265D01*
X5832Y3161D01*
X5832Y3056D01*
X5724Y2761D01*
X5522Y2520D01*
X5250Y2363D01*
X4941Y2309D01*
X4632Y2363D01*
X4360Y2520D01*
X4158Y2761D01*
X4051Y3056D01*
X4051Y3161D01*
X4051Y4265D01*
X4051Y4370D01*
X4158Y4665D01*
X4360Y4905D01*
X4632Y5062D01*
X4879Y5106D01*
X4867Y5124D01*
X4727Y5229D01*
X4676Y5244D01*
X4654Y5284D01*
X4617Y5311D01*
X4610Y5364D01*
X4536Y5498D01*
X4498Y5528D01*
X4492Y5578D01*
X4468Y5622D01*
X4481Y5669D01*
X4468Y5784D01*
X4457Y5795D01*
X4457Y5877D01*
X4447Y5958D01*
X4457Y5970D01*
X4457Y6010D01*
X4020Y6010D01*
X4020Y5878D02*
X4456Y5878D01*
X4494Y5558D02*
X4020Y5558D01*
X4020Y5238D02*
X4696Y5238D01*
X4382Y4918D02*
X4020Y4918D01*
X4020Y4598D02*
X4134Y4598D01*
X4051Y4278D02*
X4020Y4278D01*
X4020Y3958D02*
X4051Y3958D01*
X4051Y3639D02*
X4020Y3639D01*
X4020Y3319D02*
X4051Y3319D01*
X4071Y2999D02*
X4020Y2999D01*
X4020Y2679D02*
X4226Y2679D01*
X4020Y2359D02*
X4654Y2359D01*
X5228Y2359D02*
X11405Y2359D01*
X11367Y2039D02*
X4020Y2039D01*
X4020Y1720D02*
X11368Y1720D01*
X11368Y1400D02*
X4020Y1400D01*
X4020Y1080D02*
X11387Y1080D01*
X12681Y1080D02*
X54091Y1080D01*
X54091Y1400D02*
X12700Y1400D01*
X12709Y1720D02*
X54091Y1720D01*
X54091Y2039D02*
X12653Y2039D01*
X12708Y2359D02*
X52882Y2359D01*
X52455Y2679D02*
X12700Y2679D01*
X12700Y2999D02*
X52300Y2999D01*
X52279Y3319D02*
X45415Y3319D01*
X45695Y3356D02*
X44999Y3263D01*
X44654Y3278D01*
X24366Y3278D01*
X24021Y3263D01*
X23325Y3356D01*
X22656Y3572D01*
X22036Y3903D01*
X21485Y4338D01*
X21020Y4865D01*
X20656Y5466D01*
X20404Y6121D01*
X20323Y6546D01*
X20309Y6522D01*
X20114Y6327D01*
X19875Y6189D01*
X19608Y6118D01*
X19333Y6118D01*
X19066Y6189D01*
X18827Y6327D01*
X18633Y6522D01*
X18495Y6761D01*
X18423Y7028D01*
X18423Y7303D01*
X18495Y7570D01*
X18633Y7809D01*
X18827Y8004D01*
X19066Y8142D01*
X19333Y8213D01*
X19608Y8213D01*
X19875Y8142D01*
X20114Y8004D01*
X20309Y7809D01*
X20323Y7785D01*
X20404Y8209D01*
X20656Y8865D01*
X21020Y9466D01*
X21485Y9992D01*
X22036Y10428D01*
X22656Y10759D01*
X23325Y10975D01*
X24021Y11068D01*
X24366Y11053D01*
X44654Y11053D01*
X44999Y11068D01*
X45695Y10975D01*
X46364Y10759D01*
X46983Y10428D01*
X47535Y9992D01*
X48000Y9466D01*
X48364Y8865D01*
X48616Y8209D01*
X48697Y7785D01*
X48711Y7809D01*
X48906Y8004D01*
X49145Y8142D01*
X49411Y8213D01*
X49687Y8213D01*
X49954Y8142D01*
X50192Y8004D01*
X50388Y7809D01*
X50525Y7570D01*
X50597Y7303D01*
X50597Y7028D01*
X50525Y6761D01*
X50388Y6522D01*
X50192Y6327D01*
X49954Y6189D01*
X49687Y6118D01*
X49411Y6118D01*
X49145Y6189D01*
X48906Y6327D01*
X48711Y6522D01*
X48697Y6546D01*
X48616Y6121D01*
X48364Y5466D01*
X48000Y4865D01*
X47535Y4338D01*
X46983Y3903D01*
X46364Y3572D01*
X45695Y3356D01*
X46488Y3639D02*
X52279Y3639D01*
X52279Y3958D02*
X47054Y3958D01*
X47459Y4278D02*
X52279Y4278D01*
X51854Y4598D02*
X47764Y4598D01*
X48032Y4918D02*
X51365Y4918D01*
X51345Y5238D02*
X48226Y5238D01*
X48400Y5558D02*
X51366Y5558D01*
X51361Y5878D02*
X48523Y5878D01*
X48631Y6198D02*
X49131Y6198D01*
X49967Y6198D02*
X51350Y6198D01*
X51342Y6517D02*
X50382Y6517D01*
X50546Y6837D02*
X51363Y6837D01*
X51354Y7157D02*
X50597Y7157D01*
X50550Y7477D02*
X51366Y7477D01*
X51366Y7797D02*
X50394Y7797D01*
X49997Y8117D02*
X51395Y8117D01*
X52579Y8436D02*
X48529Y8436D01*
X48634Y8117D02*
X49102Y8117D01*
X48704Y7797D02*
X48695Y7797D01*
X48406Y8756D02*
X52354Y8756D01*
X52279Y9076D02*
X48236Y9076D01*
X48042Y9396D02*
X52279Y9396D01*
X52279Y9716D02*
X47779Y9716D01*
X47480Y10036D02*
X52279Y10036D01*
X52308Y10356D02*
X47075Y10356D01*
X46520Y10675D02*
X52475Y10675D01*
X53864Y10675D02*
X54091Y10675D01*
X54091Y10356D02*
X54031Y10356D01*
X54060Y10036D02*
X54091Y10036D01*
X54091Y9716D02*
X54060Y9716D01*
X54060Y9396D02*
X54091Y9396D01*
X54091Y9076D02*
X54060Y9076D01*
X54091Y8756D02*
X53985Y8756D01*
X54091Y8436D02*
X53760Y8436D01*
X52961Y8117D02*
X52631Y8117D01*
X48716Y6517D02*
X48692Y6517D01*
X52476Y5238D02*
X54091Y5238D01*
X54091Y4918D02*
X53729Y4918D01*
X53977Y4598D02*
X54091Y4598D01*
X54091Y4278D02*
X54060Y4278D01*
X54060Y3958D02*
X54091Y3958D01*
X54091Y3639D02*
X54060Y3639D01*
X54060Y3319D02*
X54091Y3319D01*
X54091Y2999D02*
X54039Y2999D01*
X54091Y2679D02*
X53884Y2679D01*
X54091Y2359D02*
X53457Y2359D01*
X52610Y4918D02*
X52454Y4918D01*
X53015Y10995D02*
X45541Y10995D01*
X53324Y10995D02*
X54091Y10995D01*
X54091Y11315D02*
X19459Y11315D01*
X19459Y11418D02*
X19324Y11553D01*
X18261Y11553D01*
X18127Y11418D01*
X18127Y11067D01*
X18261Y10932D01*
X18494Y10932D01*
X18494Y10896D01*
X18490Y10894D01*
X18438Y10890D01*
X18407Y10855D01*
X18390Y10847D01*
X18332Y10839D01*
X18307Y10807D01*
X18271Y10790D01*
X18251Y10735D01*
X18204Y10673D01*
X18156Y10641D01*
X18148Y10601D01*
X18123Y10568D01*
X18130Y10511D01*
X18114Y10431D01*
X18087Y10393D01*
X18096Y10341D01*
X18086Y10289D01*
X18112Y10251D01*
X18121Y10199D01*
X18110Y10151D01*
X18136Y10109D01*
X18143Y10069D01*
X18127Y10053D01*
X18127Y8597D01*
X18108Y8560D01*
X18127Y8505D01*
X18127Y8447D01*
X18156Y8418D01*
X18168Y8379D01*
X18220Y8353D01*
X18261Y8312D01*
X18302Y8312D01*
X18339Y8294D01*
X18394Y8312D01*
X18452Y8312D01*
X18453Y8313D01*
X18596Y8313D01*
X18731Y8448D01*
X18731Y8541D01*
X18732Y8540D01*
X18945Y8371D01*
X19003Y8313D01*
X19018Y8313D01*
X19030Y8304D01*
X19112Y8313D01*
X19325Y8313D01*
X19459Y8448D01*
X19459Y10012D01*
X19459Y10013D01*
X19459Y10254D01*
X19374Y10339D01*
X19459Y10423D01*
X19459Y11418D01*
X19459Y10995D02*
X23479Y10995D01*
X22500Y10675D02*
X19459Y10675D01*
X19391Y10356D02*
X21945Y10356D01*
X21540Y10036D02*
X19459Y10036D01*
X19459Y9716D02*
X21241Y9716D01*
X20978Y9396D02*
X19459Y9396D01*
X19459Y9076D02*
X20784Y9076D01*
X20614Y8756D02*
X19459Y8756D01*
X19448Y8436D02*
X20491Y8436D01*
X20386Y8117D02*
X19918Y8117D01*
X20316Y7797D02*
X20325Y7797D01*
X19023Y8117D02*
X7275Y8117D01*
X7286Y7797D02*
X18626Y7797D01*
X18470Y7477D02*
X7241Y7477D01*
X7275Y7157D02*
X18423Y7157D01*
X18474Y6837D02*
X7246Y6837D01*
X7314Y6517D02*
X18638Y6517D01*
X19052Y6198D02*
X7220Y6198D01*
X7274Y5878D02*
X20497Y5878D01*
X20389Y6198D02*
X19889Y6198D01*
X20304Y6517D02*
X20328Y6517D01*
X20620Y5558D02*
X7272Y5558D01*
X7276Y5238D02*
X20794Y5238D01*
X20988Y4918D02*
X12363Y4918D01*
X11706Y4918D02*
X5500Y4918D01*
X5748Y4598D02*
X11381Y4598D01*
X11337Y4278D02*
X5832Y4278D01*
X5832Y3958D02*
X11368Y3958D01*
X11368Y3639D02*
X5832Y3639D01*
X5832Y3319D02*
X11368Y3319D01*
X11368Y2999D02*
X5811Y2999D01*
X5656Y2679D02*
X11361Y2679D01*
X12700Y3319D02*
X23605Y3319D01*
X22532Y3639D02*
X12673Y3639D01*
X12700Y3958D02*
X21966Y3958D01*
X21561Y4278D02*
X12727Y4278D01*
X12690Y4598D02*
X21256Y4598D01*
X18863Y8436D02*
X18720Y8436D01*
X18137Y8436D02*
X5531Y8436D01*
X5757Y8756D02*
X18127Y8756D01*
X18127Y9076D02*
X5832Y9076D01*
X5832Y9396D02*
X18127Y9396D01*
X18127Y9716D02*
X5832Y9716D01*
X5832Y10036D02*
X18127Y10036D01*
X18094Y10356D02*
X5802Y10356D01*
X5636Y10675D02*
X18206Y10675D01*
X18198Y10995D02*
X5095Y10995D01*
X4787Y10995D02*
X4020Y10995D01*
X4020Y11315D02*
X18127Y11315D01*
X4246Y10675D02*
X4020Y10675D01*
X4020Y10356D02*
X4080Y10356D01*
X4051Y10036D02*
X4020Y10036D01*
X4020Y9716D02*
X4051Y9716D01*
X4051Y9396D02*
X4020Y9396D01*
X4020Y9076D02*
X4051Y9076D01*
X4020Y8756D02*
X4125Y8756D01*
X4020Y8436D02*
X4351Y8436D01*
X4082Y8117D02*
X4020Y8117D01*
X6540Y5238D02*
X6697Y5238D01*
X4020Y11635D02*
X54091Y11635D01*
X54091Y11955D02*
X4020Y11955D01*
X4020Y12275D02*
X54091Y12275D01*
D12*
X16160Y9957D03*
X9460Y2957D03*
D13*
X15910Y3207D03*
D14*
X10660Y8707D03*
D15*
X18873Y9965D03*
D16*
X9891Y2054D02*
X13804Y2054D01*
X13804Y5562D01*
X9891Y5562D01*
X9891Y2054D01*
D17*
X12425Y3281D03*
D18*
X6138Y6708D03*
D19*
X52717Y6640D03*
D16*
X50908Y5124D02*
X51139Y5124D01*
X51139Y5340D01*
X50908Y5340D01*
X50908Y5124D01*
D20*
X51823Y4911D03*
M02*
