G75*
%MOIN*%
%OFA0B0*%
%FSLAX25Y25*%
%IPPOS*%
%LPD*%
%AMOC8*
5,1,8,0,0,1.08239X$1,22.5*
%
%ADD10OC8,0.05200*%
%ADD11R,0.06900X0.06900*%
%ADD12C,0.06900*%
%ADD13C,0.07000*%
%ADD14C,0.05200*%
%ADD15C,0.12211*%
%ADD16C,0.25597*%
%ADD17OC8,0.07800*%
%ADD18C,0.07800*%
%ADD19C,0.13400*%
%ADD20R,0.05200X0.05200*%
%ADD21C,0.05200*%
D10*
X0071800Y0009300D03*
X0091800Y0009300D03*
X0101800Y0014300D03*
X0111800Y0019300D03*
X0101800Y0034300D03*
X0091800Y0039300D03*
X0071800Y0039300D03*
X0111800Y0039300D03*
X0124300Y0051800D03*
X0134300Y0051800D03*
X0144300Y0051800D03*
X0154300Y0051800D03*
X0164300Y0051800D03*
X0174300Y0051800D03*
X0174300Y0081800D03*
X0164300Y0081800D03*
X0154300Y0081800D03*
X0144300Y0081800D03*
X0134300Y0081800D03*
X0124300Y0081800D03*
X0111800Y0091800D03*
X0101800Y0081800D03*
X0091800Y0081800D03*
X0081800Y0081800D03*
X0081800Y0111800D03*
X0091800Y0111800D03*
X0101800Y0111800D03*
X0141800Y0091800D03*
X0151800Y0091800D03*
X0149300Y0101800D03*
X0171800Y0091800D03*
X0179300Y0101800D03*
D11*
X0091800Y0029300D03*
X0069300Y0029300D03*
D12*
X0069300Y0019300D03*
X0091800Y0019300D03*
D13*
X0011800Y0006800D03*
X0051800Y0006800D03*
X0054300Y0041800D03*
X0014300Y0041800D03*
D14*
X0121800Y0044200D02*
X0121800Y0039400D01*
X0131800Y0039400D02*
X0131800Y0044200D01*
X0141800Y0044200D02*
X0141800Y0039400D01*
X0151800Y0039400D02*
X0151800Y0044200D01*
X0161800Y0044200D02*
X0161800Y0039400D01*
X0171800Y0039400D02*
X0171800Y0044200D01*
X0181800Y0044200D02*
X0181800Y0039400D01*
X0181800Y0014200D02*
X0181800Y0009400D01*
X0171800Y0009400D02*
X0171800Y0014200D01*
X0161800Y0014200D02*
X0161800Y0009400D01*
X0151800Y0009400D02*
X0151800Y0014200D01*
X0141800Y0014200D02*
X0141800Y0009400D01*
X0131800Y0009400D02*
X0131800Y0014200D01*
X0121800Y0014200D02*
X0121800Y0009400D01*
D15*
X0055048Y0054103D02*
X0043237Y0054103D01*
X0025366Y0057014D02*
X0017014Y0065366D01*
X0014103Y0083237D02*
X0014103Y0095048D01*
X0031032Y0104497D02*
X0042843Y0104497D01*
X0064497Y0082843D02*
X0064497Y0071032D01*
D16*
X0039300Y0079300D03*
D17*
X0044300Y0027300D03*
X0034300Y0026300D03*
X0024300Y0027300D03*
X0014300Y0026300D03*
X0024300Y0017300D03*
X0014300Y0016300D03*
X0034300Y0016300D03*
X0044300Y0017300D03*
X0054300Y0016300D03*
X0054300Y0026300D03*
D18*
X0081800Y0056100D03*
X0081800Y0067500D03*
X0106300Y0069300D03*
X0107300Y0059300D03*
X0106300Y0049300D03*
D19*
X0189300Y0051800D03*
X0189300Y0081800D03*
D20*
X0141800Y0111800D03*
X0111800Y0101800D03*
D21*
X0111800Y0111800D03*
X0141800Y0101800D03*
M02*
