G75*
%MOIN*%
%OFA0B0*%
%FSLAX25Y25*%
%IPPOS*%
%LPD*%
%AMOC8*
5,1,8,0,0,1.08239X$1,22.5*
%
%ADD10OC8,0.04800*%
%ADD11R,0.06500X0.06500*%
%ADD12C,0.06500*%
%ADD13C,0.06600*%
%ADD14C,0.04800*%
%ADD15C,0.11811*%
%ADD16OC8,0.07400*%
%ADD17C,0.07400*%
%ADD18C,0.13000*%
%ADD19R,0.04800X0.04800*%
%ADD20C,0.04800*%
%ADD21C,0.03200*%
%ADD22C,0.02400*%
%ADD23C,0.00800*%
%ADD24C,0.01200*%
%ADD25C,0.02500*%
D10*
X0071800Y0009300D03*
X0091800Y0009300D03*
X0101800Y0014300D03*
X0111800Y0019300D03*
X0101800Y0034300D03*
X0091800Y0039300D03*
X0071800Y0039300D03*
X0111800Y0039300D03*
X0124300Y0051800D03*
X0134300Y0051800D03*
X0144300Y0051800D03*
X0154300Y0051800D03*
X0164300Y0051800D03*
X0174300Y0051800D03*
X0174300Y0081800D03*
X0164300Y0081800D03*
X0154300Y0081800D03*
X0144300Y0081800D03*
X0134300Y0081800D03*
X0124300Y0081800D03*
X0111800Y0091800D03*
X0101800Y0081800D03*
X0091800Y0081800D03*
X0081800Y0081800D03*
X0081800Y0111800D03*
X0091800Y0111800D03*
X0101800Y0111800D03*
X0141800Y0091800D03*
X0151800Y0091800D03*
X0149300Y0101800D03*
X0171800Y0091800D03*
X0179300Y0101800D03*
D11*
X0091800Y0029300D03*
X0069300Y0029300D03*
D12*
X0069300Y0019300D03*
X0091800Y0019300D03*
D13*
X0011800Y0006800D03*
X0051800Y0006800D03*
X0054300Y0041800D03*
X0014300Y0041800D03*
D14*
X0121800Y0044200D02*
X0121800Y0039400D01*
X0131800Y0039400D02*
X0131800Y0044200D01*
X0141800Y0044200D02*
X0141800Y0039400D01*
X0151800Y0039400D02*
X0151800Y0044200D01*
X0161800Y0044200D02*
X0161800Y0039400D01*
X0171800Y0039400D02*
X0171800Y0044200D01*
X0181800Y0044200D02*
X0181800Y0039400D01*
X0181800Y0014200D02*
X0181800Y0009400D01*
X0171800Y0009400D02*
X0171800Y0014200D01*
X0161800Y0014200D02*
X0161800Y0009400D01*
X0151800Y0009400D02*
X0151800Y0014200D01*
X0141800Y0014200D02*
X0141800Y0009400D01*
X0131800Y0009400D02*
X0131800Y0014200D01*
X0121800Y0014200D02*
X0121800Y0009400D01*
D15*
X0055048Y0054103D02*
X0043237Y0054103D01*
X0025366Y0057014D02*
X0017014Y0065366D01*
X0014103Y0083237D02*
X0014103Y0095048D01*
X0031032Y0104497D02*
X0042843Y0104497D01*
X0064497Y0082843D02*
X0064497Y0071032D01*
D16*
X0044300Y0027300D03*
X0034300Y0026300D03*
X0024300Y0027300D03*
X0014300Y0026300D03*
X0024300Y0017300D03*
X0014300Y0016300D03*
X0034300Y0016300D03*
X0044300Y0017300D03*
X0054300Y0016300D03*
X0054300Y0026300D03*
D17*
X0081800Y0056100D03*
X0081800Y0067500D03*
X0106300Y0069300D03*
X0107300Y0059300D03*
X0106300Y0049300D03*
D18*
X0189300Y0051800D03*
X0189300Y0081800D03*
D19*
X0141800Y0111800D03*
X0111800Y0101800D03*
D20*
X0111800Y0111800D03*
X0141800Y0101800D03*
D21*
X0151800Y0041800D02*
X0151800Y0031800D01*
X0149300Y0029300D01*
X0106800Y0029300D01*
X0101800Y0034300D01*
X0096800Y0039300D01*
X0091800Y0039300D01*
X0071800Y0039300D02*
X0069300Y0041800D01*
X0054300Y0041800D01*
X0054300Y0026300D01*
X0054300Y0016300D01*
X0051800Y0006800D02*
X0023800Y0006800D01*
X0014300Y0016300D01*
X0014300Y0026300D01*
X0051800Y0006800D02*
X0069300Y0006800D01*
X0071800Y0009300D01*
X0091800Y0009300D02*
X0091800Y0019300D01*
X0111800Y0019300D01*
D22*
X0111800Y0009300D01*
X0116800Y0004300D01*
X0144300Y0004300D01*
X0151800Y0011800D01*
D23*
X0181800Y0011800D02*
X0181800Y0014300D01*
D24*
X0166800Y0029300D01*
X0166800Y0046800D01*
X0169300Y0049300D01*
X0169300Y0054300D01*
X0164300Y0059300D01*
X0131800Y0059300D01*
X0124300Y0051800D01*
X0116800Y0044300D01*
X0094300Y0044300D01*
X0082500Y0056100D01*
X0081800Y0056100D01*
X0081800Y0067500D02*
X0095000Y0067500D01*
X0114300Y0086800D01*
X0139300Y0086800D01*
X0144300Y0081800D01*
X0151800Y0091800D02*
X0159300Y0084300D01*
X0159300Y0071800D01*
X0174300Y0056800D01*
X0174300Y0051800D01*
X0174300Y0049300D01*
X0181800Y0041800D01*
X0189300Y0034300D01*
X0189300Y0009300D01*
X0184300Y0004300D01*
X0169300Y0004300D01*
X0161800Y0011800D01*
X0171800Y0011800D02*
X0156800Y0026800D01*
X0156800Y0049300D01*
X0154300Y0051800D01*
X0144300Y0051800D01*
X0139300Y0056800D02*
X0156800Y0056800D01*
X0159300Y0054300D01*
X0159300Y0044300D01*
X0161800Y0041800D01*
X0139300Y0056800D02*
X0134300Y0051800D01*
X0107300Y0059300D02*
X0106800Y0059300D01*
X0124300Y0076800D01*
X0124300Y0081800D01*
X0111800Y0091800D02*
X0091800Y0091800D01*
X0081800Y0081800D01*
X0079300Y0074300D02*
X0076800Y0071800D01*
X0076800Y0034300D01*
X0086800Y0024300D01*
X0119300Y0024300D01*
X0131800Y0011800D01*
X0094300Y0074300D02*
X0079300Y0074300D01*
X0094300Y0074300D02*
X0101800Y0081800D01*
X0141800Y0101800D02*
X0149300Y0101800D01*
X0141800Y0101800D02*
X0141800Y0111800D01*
X0129300Y0106800D02*
X0039300Y0106800D01*
X0036997Y0104497D01*
X0036938Y0104497D01*
X0026800Y0096800D02*
X0174300Y0096800D01*
X0189300Y0081800D01*
X0174300Y0081800D02*
X0164300Y0081800D01*
X0101800Y0111800D02*
X0091800Y0111800D01*
X0026800Y0096800D02*
X0019143Y0089143D01*
X0014103Y0089143D01*
D25*
X0129300Y0106800D03*
M02*
