G75*
%MOIN*%
%OFA0B0*%
%FSLAX25Y25*%
%IPPOS*%
%LPD*%
%AMOC8*
5,1,8,0,0,1.08239X$1,22.5*
%
%ADD10C,0.00300*%
%ADD11C,0.00600*%
%ADD12C,0.00400*%
%ADD13C,0.00500*%
%ADD14C,0.00900*%
%ADD15R,0.02000X0.08000*%
%ADD16R,0.02500X0.02000*%
D10*
X0061950Y0014450D02*
X0065153Y0014450D01*
X0065153Y0016051D01*
X0064619Y0016585D01*
X0063551Y0016585D01*
X0063018Y0016051D01*
X0063018Y0014450D01*
X0062484Y0017673D02*
X0061950Y0018207D01*
X0061950Y0019274D01*
X0062484Y0019808D01*
X0064619Y0019808D01*
X0065153Y0019274D01*
X0065153Y0018207D01*
X0064619Y0017673D01*
X0062484Y0017673D01*
X0061950Y0020895D02*
X0063018Y0021963D01*
X0061950Y0023031D01*
X0065153Y0023031D01*
X0065153Y0024118D02*
X0061950Y0024118D01*
X0061950Y0026253D01*
X0061950Y0027341D02*
X0065153Y0027341D01*
X0065153Y0028942D01*
X0064619Y0029476D01*
X0063551Y0029476D01*
X0063018Y0028942D01*
X0063018Y0027341D01*
X0063018Y0028409D02*
X0061950Y0029476D01*
X0065153Y0026253D02*
X0065153Y0024118D01*
X0063551Y0024118D02*
X0063551Y0025186D01*
X0061950Y0020895D02*
X0065153Y0020895D01*
X0121850Y0022200D02*
X0122918Y0022200D01*
X0122384Y0022200D02*
X0122384Y0025403D01*
X0122918Y0025403D01*
X0124532Y0025403D02*
X0124532Y0022200D01*
X0123999Y0022200D02*
X0125066Y0022200D01*
X0126154Y0023268D02*
X0128289Y0023268D01*
X0128289Y0023801D02*
X0127755Y0024335D01*
X0126688Y0024335D01*
X0126154Y0023801D01*
X0126154Y0023268D01*
X0126688Y0022200D02*
X0127755Y0022200D01*
X0128289Y0022734D01*
X0128289Y0023801D01*
X0129377Y0024335D02*
X0129377Y0022734D01*
X0129910Y0022200D01*
X0130444Y0022734D01*
X0130978Y0022200D01*
X0131512Y0022734D01*
X0131512Y0024335D01*
X0132593Y0024335D02*
X0133660Y0024335D01*
X0133126Y0024869D02*
X0133126Y0022734D01*
X0132593Y0022200D01*
X0134741Y0022200D02*
X0135809Y0022200D01*
X0135275Y0022200D02*
X0135275Y0024335D01*
X0135809Y0024335D01*
X0135275Y0025403D02*
X0135275Y0025937D01*
X0136896Y0023801D02*
X0137430Y0024335D01*
X0138498Y0024335D01*
X0139032Y0023801D01*
X0139032Y0022200D02*
X0139032Y0025403D01*
X0140119Y0025403D02*
X0140119Y0022200D01*
X0141187Y0023268D01*
X0142254Y0022200D01*
X0142254Y0025403D01*
X0142801Y0027450D02*
X0142268Y0027984D01*
X0142801Y0027450D02*
X0143869Y0027450D01*
X0144403Y0027984D01*
X0144403Y0030119D01*
X0143869Y0030653D01*
X0142801Y0030653D01*
X0142268Y0030119D01*
X0141180Y0030653D02*
X0139579Y0030653D01*
X0139045Y0030119D01*
X0139045Y0029585D01*
X0139579Y0029051D01*
X0141180Y0029051D01*
X0141180Y0027450D02*
X0141180Y0030653D01*
X0139579Y0029051D02*
X0139045Y0028518D01*
X0139045Y0027984D01*
X0139579Y0027450D01*
X0141180Y0027450D01*
X0145490Y0029051D02*
X0146024Y0028518D01*
X0147626Y0028518D01*
X0147626Y0027450D02*
X0147626Y0030653D01*
X0146024Y0030653D01*
X0145490Y0030119D01*
X0145490Y0029051D01*
X0145490Y0032700D02*
X0145490Y0035903D01*
X0146558Y0034835D01*
X0147626Y0035903D01*
X0147626Y0032700D01*
X0144403Y0033234D02*
X0143869Y0032700D01*
X0142801Y0032700D01*
X0142268Y0033234D01*
X0142268Y0034301D01*
X0142801Y0034835D01*
X0143869Y0034835D01*
X0144403Y0034301D01*
X0144403Y0033234D01*
X0141180Y0033234D02*
X0141180Y0034301D01*
X0140646Y0034835D01*
X0139045Y0034835D01*
X0139045Y0035903D02*
X0139045Y0032700D01*
X0140646Y0032700D01*
X0141180Y0033234D01*
X0137957Y0033234D02*
X0137957Y0034835D01*
X0135822Y0034835D02*
X0135822Y0032700D01*
X0137423Y0032700D01*
X0137957Y0033234D01*
X0134735Y0032700D02*
X0133667Y0032700D01*
X0134201Y0032700D02*
X0134201Y0035903D01*
X0134735Y0035903D01*
X0132052Y0034835D02*
X0130985Y0034835D01*
X0130451Y0034301D01*
X0130451Y0032700D01*
X0132052Y0032700D01*
X0132586Y0033234D01*
X0132052Y0033768D01*
X0130451Y0033768D01*
X0129363Y0033768D02*
X0128296Y0034835D01*
X0127762Y0034835D01*
X0129363Y0034835D02*
X0129363Y0032700D01*
X0125066Y0025403D02*
X0124532Y0025403D01*
X0132062Y0018551D02*
X0132062Y0016950D01*
X0132062Y0018551D02*
X0132596Y0019085D01*
X0134197Y0019085D01*
X0134197Y0016950D01*
X0135285Y0017484D02*
X0135285Y0018551D01*
X0135819Y0019085D01*
X0136886Y0019085D01*
X0137420Y0018551D01*
X0137420Y0017484D01*
X0136886Y0016950D01*
X0135819Y0016950D01*
X0135285Y0017484D01*
X0138508Y0016950D02*
X0140109Y0016950D01*
X0140643Y0017484D01*
X0140643Y0018551D01*
X0140109Y0019085D01*
X0138508Y0019085D01*
X0138508Y0020153D02*
X0138508Y0016950D01*
X0141730Y0016950D02*
X0141730Y0018551D01*
X0142264Y0019085D01*
X0143866Y0019085D01*
X0143866Y0016950D01*
X0144953Y0017484D02*
X0144953Y0018551D01*
X0145487Y0019085D01*
X0146555Y0019085D01*
X0147088Y0018551D01*
X0147088Y0017484D01*
X0146555Y0016950D01*
X0145487Y0016950D01*
X0144953Y0017484D01*
X0148176Y0016950D02*
X0150311Y0016950D01*
X0150311Y0020153D01*
X0150321Y0022200D02*
X0149787Y0022734D01*
X0149787Y0023801D01*
X0150321Y0024335D01*
X0151389Y0024335D01*
X0151923Y0023801D01*
X0151923Y0022734D01*
X0151389Y0022200D01*
X0150321Y0022200D01*
X0148700Y0022200D02*
X0148700Y0024335D01*
X0148166Y0024335D01*
X0147632Y0023801D01*
X0147098Y0024335D01*
X0146565Y0023801D01*
X0146565Y0022200D01*
X0147632Y0022200D02*
X0147632Y0023801D01*
X0153010Y0025403D02*
X0155145Y0025403D01*
X0154078Y0025403D02*
X0154078Y0022200D01*
X0157297Y0020153D02*
X0157297Y0016950D01*
X0157831Y0016950D02*
X0156763Y0016950D01*
X0155682Y0015882D02*
X0154615Y0016950D01*
X0155149Y0016950D01*
X0155149Y0017484D01*
X0154615Y0017484D01*
X0154615Y0016950D01*
X0157297Y0020153D02*
X0157831Y0020153D01*
X0159446Y0020153D02*
X0159446Y0016950D01*
X0159979Y0016950D02*
X0158912Y0016950D01*
X0161060Y0016950D02*
X0162128Y0016950D01*
X0161594Y0016950D02*
X0161594Y0019085D01*
X0162128Y0019085D01*
X0161594Y0020153D02*
X0161594Y0020687D01*
X0161591Y0022200D02*
X0161591Y0024335D01*
X0160523Y0025403D01*
X0159456Y0024335D01*
X0159456Y0022200D01*
X0159456Y0023801D02*
X0161591Y0023801D01*
X0162678Y0023268D02*
X0162678Y0022734D01*
X0163212Y0022200D01*
X0164280Y0022200D01*
X0164814Y0022734D01*
X0164280Y0023801D02*
X0163212Y0023801D01*
X0162678Y0023268D01*
X0162678Y0024869D02*
X0163212Y0025403D01*
X0164280Y0025403D01*
X0164814Y0024869D01*
X0164814Y0024335D01*
X0164280Y0023801D01*
X0165901Y0023801D02*
X0168036Y0023801D01*
X0169124Y0024869D02*
X0169124Y0025403D01*
X0169124Y0024869D02*
X0170191Y0023801D01*
X0170191Y0022200D01*
X0170191Y0023801D02*
X0171259Y0024869D01*
X0171259Y0025403D01*
X0172347Y0024869D02*
X0172347Y0024335D01*
X0172880Y0023801D01*
X0174482Y0023801D01*
X0175569Y0023801D02*
X0177705Y0023801D01*
X0178792Y0022734D02*
X0179326Y0022200D01*
X0180393Y0022200D01*
X0180927Y0022734D01*
X0180927Y0024869D01*
X0180393Y0025403D01*
X0179326Y0025403D01*
X0178792Y0024869D01*
X0178245Y0027450D02*
X0176644Y0027450D01*
X0175556Y0027450D02*
X0175556Y0030653D01*
X0176644Y0029585D02*
X0178245Y0029585D01*
X0178779Y0029051D01*
X0178779Y0027984D01*
X0178245Y0027450D01*
X0179860Y0027450D02*
X0180927Y0027450D01*
X0180393Y0027450D02*
X0180393Y0029585D01*
X0180927Y0029585D01*
X0180393Y0030653D02*
X0180393Y0031187D01*
X0180393Y0032700D02*
X0178792Y0032700D01*
X0178792Y0034835D01*
X0177705Y0034301D02*
X0177171Y0033768D01*
X0176103Y0033768D01*
X0175569Y0033234D01*
X0176103Y0032700D01*
X0177705Y0032700D01*
X0177705Y0034301D02*
X0177171Y0034835D01*
X0175569Y0034835D01*
X0174482Y0034835D02*
X0173948Y0034835D01*
X0173948Y0032700D01*
X0174482Y0032700D02*
X0173414Y0032700D01*
X0172333Y0033234D02*
X0172333Y0034301D01*
X0171799Y0034835D01*
X0170198Y0034835D01*
X0170198Y0032700D02*
X0171799Y0032700D01*
X0172333Y0033234D01*
X0173948Y0035903D02*
X0173948Y0036437D01*
X0180927Y0034835D02*
X0180927Y0033234D01*
X0180393Y0032700D01*
X0182015Y0032700D02*
X0182015Y0035903D01*
X0183082Y0034835D01*
X0184150Y0035903D01*
X0184150Y0032700D01*
X0184150Y0030653D02*
X0182549Y0030653D01*
X0182015Y0030119D01*
X0182015Y0029051D01*
X0182549Y0028518D01*
X0184150Y0028518D01*
X0184150Y0027450D02*
X0184150Y0030653D01*
X0183616Y0025403D02*
X0182549Y0025403D01*
X0182015Y0024869D01*
X0183616Y0025403D02*
X0184150Y0024869D01*
X0184150Y0022734D01*
X0183616Y0022200D01*
X0182549Y0022200D01*
X0182015Y0022734D01*
X0182015Y0020153D02*
X0182015Y0016950D01*
X0180927Y0017484D02*
X0180927Y0018551D01*
X0180393Y0019085D01*
X0179326Y0019085D01*
X0178792Y0018551D01*
X0178792Y0018018D01*
X0180927Y0018018D01*
X0180927Y0017484D02*
X0180393Y0016950D01*
X0179326Y0016950D01*
X0177705Y0016950D02*
X0177705Y0019085D01*
X0177705Y0018018D02*
X0176637Y0019085D01*
X0176103Y0019085D01*
X0175019Y0019085D02*
X0175019Y0016950D01*
X0175019Y0019085D02*
X0173418Y0019085D01*
X0172884Y0018551D01*
X0172884Y0016950D01*
X0171796Y0017484D02*
X0171796Y0018551D01*
X0171262Y0019085D01*
X0170195Y0019085D01*
X0169661Y0018551D01*
X0169661Y0018018D01*
X0171796Y0018018D01*
X0171796Y0017484D02*
X0171262Y0016950D01*
X0170195Y0016950D01*
X0165351Y0016950D02*
X0165351Y0020153D01*
X0165351Y0018551D02*
X0163215Y0018551D01*
X0163215Y0016950D02*
X0163215Y0020153D01*
X0159979Y0020153D02*
X0159446Y0020153D01*
X0159446Y0027450D02*
X0157844Y0027450D01*
X0157844Y0029051D01*
X0158378Y0029585D01*
X0159446Y0029585D01*
X0159446Y0028518D02*
X0157844Y0028518D01*
X0156757Y0029051D02*
X0156757Y0027984D01*
X0156223Y0027450D01*
X0154621Y0027450D01*
X0153534Y0027450D02*
X0153534Y0030653D01*
X0153003Y0031632D02*
X0152470Y0031632D01*
X0151936Y0032166D01*
X0151936Y0034835D01*
X0153537Y0034835D01*
X0154071Y0034301D01*
X0154071Y0033234D01*
X0153537Y0032700D01*
X0151936Y0032700D01*
X0155159Y0032700D02*
X0155159Y0034301D01*
X0155692Y0034835D01*
X0157294Y0034835D01*
X0157294Y0032700D01*
X0158375Y0032700D02*
X0159442Y0032700D01*
X0158908Y0032700D02*
X0158908Y0034835D01*
X0159442Y0034835D01*
X0158908Y0035903D02*
X0158908Y0036437D01*
X0160530Y0034301D02*
X0161064Y0034835D01*
X0162131Y0034835D01*
X0162665Y0034301D01*
X0162665Y0032700D02*
X0162665Y0035903D01*
X0163753Y0035903D02*
X0165888Y0035903D01*
X0164820Y0035903D02*
X0164820Y0032700D01*
X0163202Y0030653D02*
X0161601Y0030653D01*
X0161067Y0030119D01*
X0161067Y0029585D01*
X0161601Y0029051D01*
X0163202Y0029051D01*
X0163202Y0027450D02*
X0163202Y0030653D01*
X0161601Y0029051D02*
X0161067Y0028518D01*
X0161067Y0027984D01*
X0161601Y0027450D01*
X0163202Y0027450D01*
X0159979Y0027984D02*
X0159446Y0028518D01*
X0159979Y0027984D02*
X0159446Y0027450D01*
X0156757Y0029051D02*
X0156223Y0029585D01*
X0154621Y0029585D01*
X0153534Y0028518D02*
X0151933Y0029585D01*
X0153534Y0028518D02*
X0151933Y0027450D01*
X0160530Y0032700D02*
X0160530Y0034301D01*
X0167512Y0029051D02*
X0167512Y0027984D01*
X0168046Y0027450D01*
X0169648Y0027450D01*
X0169648Y0026382D02*
X0169648Y0029585D01*
X0168046Y0029585D01*
X0167512Y0029051D01*
X0170735Y0029585D02*
X0170735Y0027450D01*
X0172337Y0027450D01*
X0172870Y0027984D01*
X0172870Y0029585D01*
X0173955Y0029585D02*
X0175556Y0028518D01*
X0173955Y0027450D01*
X0174482Y0025403D02*
X0172880Y0025403D01*
X0172347Y0024869D01*
X0172880Y0023801D02*
X0172347Y0023268D01*
X0172347Y0022734D01*
X0172880Y0022200D01*
X0174482Y0022200D01*
X0174482Y0025403D01*
X0184150Y0020153D02*
X0184150Y0016950D01*
X0184150Y0018551D02*
X0182015Y0018551D01*
X0136896Y0022200D02*
X0136896Y0023801D01*
X0152801Y0109450D02*
X0154403Y0109450D01*
X0154403Y0112653D01*
X0152801Y0112653D01*
X0152268Y0112119D01*
X0152268Y0111585D01*
X0152801Y0111051D01*
X0154403Y0111051D01*
X0155490Y0109984D02*
X0156024Y0109450D01*
X0157092Y0109450D01*
X0157626Y0109984D01*
X0157626Y0112119D01*
X0157092Y0112653D01*
X0156024Y0112653D01*
X0155490Y0112119D01*
X0158713Y0112119D02*
X0158713Y0111051D01*
X0159247Y0110518D01*
X0160848Y0110518D01*
X0160848Y0109450D02*
X0160848Y0112653D01*
X0159247Y0112653D01*
X0158713Y0112119D01*
X0152801Y0111051D02*
X0152268Y0110518D01*
X0152268Y0109984D01*
X0152801Y0109450D01*
X0165159Y0109450D02*
X0167294Y0109450D01*
X0165159Y0111585D01*
X0165159Y0112119D01*
X0165692Y0112653D01*
X0166760Y0112653D01*
X0167294Y0112119D01*
X0171604Y0111051D02*
X0171604Y0109450D01*
X0171604Y0111051D02*
X0172138Y0111585D01*
X0173739Y0111585D01*
X0173739Y0109450D01*
X0174827Y0109984D02*
X0174827Y0111051D01*
X0175361Y0111585D01*
X0176428Y0111585D01*
X0176962Y0111051D01*
X0176962Y0109984D01*
X0176428Y0109450D01*
X0175361Y0109450D01*
X0174827Y0109984D01*
X0178043Y0109450D02*
X0179111Y0109450D01*
X0178577Y0109450D02*
X0178577Y0111585D01*
X0179111Y0111585D01*
X0180198Y0111585D02*
X0181799Y0111585D01*
X0182333Y0111051D01*
X0181799Y0110518D01*
X0180732Y0110518D01*
X0180198Y0109984D01*
X0180732Y0109450D01*
X0182333Y0109450D01*
X0183414Y0109450D02*
X0184482Y0109450D01*
X0183948Y0109450D02*
X0183948Y0111585D01*
X0184482Y0111585D01*
X0185569Y0111585D02*
X0186637Y0109450D01*
X0187705Y0111585D01*
X0188792Y0111051D02*
X0189326Y0111585D01*
X0190393Y0111585D01*
X0190927Y0111051D01*
X0190927Y0109984D01*
X0190393Y0109450D01*
X0189326Y0109450D01*
X0188792Y0110518D02*
X0190927Y0110518D01*
X0192015Y0111051D02*
X0192015Y0112119D01*
X0192549Y0112653D01*
X0194150Y0112653D01*
X0194150Y0109450D01*
X0194150Y0110518D02*
X0192549Y0110518D01*
X0192015Y0111051D01*
X0193082Y0110518D02*
X0192015Y0109450D01*
X0188792Y0110518D02*
X0188792Y0111051D01*
X0183948Y0112653D02*
X0183948Y0113187D01*
X0178577Y0113187D02*
X0178577Y0112653D01*
D11*
X0175800Y0106300D02*
X0174300Y0106300D01*
X0175800Y0106300D02*
X0175860Y0106298D01*
X0175921Y0106293D01*
X0175980Y0106284D01*
X0176039Y0106271D01*
X0176098Y0106255D01*
X0176155Y0106235D01*
X0176210Y0106212D01*
X0176265Y0106185D01*
X0176317Y0106156D01*
X0176368Y0106123D01*
X0176417Y0106087D01*
X0176463Y0106049D01*
X0176507Y0106007D01*
X0176549Y0105963D01*
X0176587Y0105917D01*
X0176623Y0105868D01*
X0176656Y0105817D01*
X0176685Y0105765D01*
X0176712Y0105710D01*
X0176735Y0105655D01*
X0176755Y0105598D01*
X0176771Y0105539D01*
X0176784Y0105480D01*
X0176793Y0105421D01*
X0176798Y0105360D01*
X0176800Y0105300D01*
X0176800Y0098300D02*
X0176798Y0098240D01*
X0176793Y0098179D01*
X0176784Y0098120D01*
X0176771Y0098061D01*
X0176755Y0098002D01*
X0176735Y0097945D01*
X0176712Y0097890D01*
X0176685Y0097835D01*
X0176656Y0097783D01*
X0176623Y0097732D01*
X0176587Y0097683D01*
X0176549Y0097637D01*
X0176507Y0097593D01*
X0176463Y0097551D01*
X0176417Y0097513D01*
X0176368Y0097477D01*
X0176317Y0097444D01*
X0176265Y0097415D01*
X0176210Y0097388D01*
X0176155Y0097365D01*
X0176098Y0097345D01*
X0176039Y0097329D01*
X0175980Y0097316D01*
X0175921Y0097307D01*
X0175860Y0097302D01*
X0175800Y0097300D01*
X0174300Y0097300D01*
X0171751Y0096233D02*
X0171838Y0096231D01*
X0171925Y0096225D01*
X0172012Y0096216D01*
X0172098Y0096203D01*
X0172184Y0096186D01*
X0172269Y0096165D01*
X0172352Y0096140D01*
X0172435Y0096112D01*
X0172516Y0096081D01*
X0172596Y0096046D01*
X0172674Y0096007D01*
X0172751Y0095965D01*
X0172826Y0095920D01*
X0172898Y0095871D01*
X0172969Y0095820D01*
X0173037Y0095765D01*
X0173102Y0095708D01*
X0173165Y0095647D01*
X0173226Y0095584D01*
X0173283Y0095519D01*
X0173338Y0095451D01*
X0173389Y0095380D01*
X0173438Y0095308D01*
X0173483Y0095233D01*
X0173525Y0095156D01*
X0173564Y0095078D01*
X0173599Y0094998D01*
X0173630Y0094917D01*
X0173658Y0094834D01*
X0173683Y0094751D01*
X0173704Y0094666D01*
X0173721Y0094580D01*
X0173734Y0094494D01*
X0173743Y0094407D01*
X0173749Y0094320D01*
X0173751Y0094233D01*
X0173902Y0089502D02*
X0173900Y0089415D01*
X0173894Y0089328D01*
X0173885Y0089241D01*
X0173872Y0089155D01*
X0173855Y0089069D01*
X0173834Y0088984D01*
X0173809Y0088901D01*
X0173781Y0088818D01*
X0173750Y0088737D01*
X0173715Y0088657D01*
X0173676Y0088579D01*
X0173634Y0088502D01*
X0173589Y0088427D01*
X0173540Y0088355D01*
X0173489Y0088284D01*
X0173434Y0088216D01*
X0173377Y0088151D01*
X0173316Y0088088D01*
X0173253Y0088027D01*
X0173188Y0087970D01*
X0173120Y0087915D01*
X0173049Y0087864D01*
X0172977Y0087815D01*
X0172902Y0087770D01*
X0172825Y0087728D01*
X0172747Y0087689D01*
X0172667Y0087654D01*
X0172586Y0087623D01*
X0172503Y0087595D01*
X0172420Y0087570D01*
X0172335Y0087549D01*
X0172249Y0087532D01*
X0172163Y0087519D01*
X0172076Y0087510D01*
X0171989Y0087504D01*
X0171902Y0087502D01*
X0170800Y0079300D02*
X0170740Y0079298D01*
X0170679Y0079293D01*
X0170620Y0079284D01*
X0170561Y0079271D01*
X0170502Y0079255D01*
X0170445Y0079235D01*
X0170390Y0079212D01*
X0170335Y0079185D01*
X0170283Y0079156D01*
X0170232Y0079123D01*
X0170183Y0079087D01*
X0170137Y0079049D01*
X0170093Y0079007D01*
X0170051Y0078963D01*
X0170013Y0078917D01*
X0169977Y0078868D01*
X0169944Y0078817D01*
X0169915Y0078765D01*
X0169888Y0078710D01*
X0169865Y0078655D01*
X0169845Y0078598D01*
X0169829Y0078539D01*
X0169816Y0078480D01*
X0169807Y0078421D01*
X0169802Y0078360D01*
X0169800Y0078300D01*
X0169800Y0076800D01*
X0168800Y0076800D02*
X0168800Y0078300D01*
X0168798Y0078360D01*
X0168793Y0078421D01*
X0168784Y0078480D01*
X0168771Y0078539D01*
X0168755Y0078598D01*
X0168735Y0078655D01*
X0168712Y0078710D01*
X0168685Y0078765D01*
X0168656Y0078817D01*
X0168623Y0078868D01*
X0168587Y0078917D01*
X0168549Y0078963D01*
X0168507Y0079007D01*
X0168463Y0079049D01*
X0168417Y0079087D01*
X0168368Y0079123D01*
X0168317Y0079156D01*
X0168265Y0079185D01*
X0168210Y0079212D01*
X0168155Y0079235D01*
X0168098Y0079255D01*
X0168039Y0079271D01*
X0167980Y0079284D01*
X0167921Y0079293D01*
X0167860Y0079298D01*
X0167800Y0079300D01*
X0160800Y0079300D02*
X0160740Y0079298D01*
X0160679Y0079293D01*
X0160620Y0079284D01*
X0160561Y0079271D01*
X0160502Y0079255D01*
X0160445Y0079235D01*
X0160390Y0079212D01*
X0160335Y0079185D01*
X0160283Y0079156D01*
X0160232Y0079123D01*
X0160183Y0079087D01*
X0160137Y0079049D01*
X0160093Y0079007D01*
X0160051Y0078963D01*
X0160013Y0078917D01*
X0159977Y0078868D01*
X0159944Y0078817D01*
X0159915Y0078765D01*
X0159888Y0078710D01*
X0159865Y0078655D01*
X0159845Y0078598D01*
X0159829Y0078539D01*
X0159816Y0078480D01*
X0159807Y0078421D01*
X0159802Y0078360D01*
X0159800Y0078300D01*
X0159800Y0076800D01*
X0158800Y0076800D02*
X0158800Y0078300D01*
X0158798Y0078360D01*
X0158793Y0078421D01*
X0158784Y0078480D01*
X0158771Y0078539D01*
X0158755Y0078598D01*
X0158735Y0078655D01*
X0158712Y0078710D01*
X0158685Y0078765D01*
X0158656Y0078817D01*
X0158623Y0078868D01*
X0158587Y0078917D01*
X0158549Y0078963D01*
X0158507Y0079007D01*
X0158463Y0079049D01*
X0158417Y0079087D01*
X0158368Y0079123D01*
X0158317Y0079156D01*
X0158265Y0079185D01*
X0158210Y0079212D01*
X0158155Y0079235D01*
X0158098Y0079255D01*
X0158039Y0079271D01*
X0157980Y0079284D01*
X0157921Y0079293D01*
X0157860Y0079298D01*
X0157800Y0079300D01*
X0150800Y0079300D02*
X0150740Y0079298D01*
X0150679Y0079293D01*
X0150620Y0079284D01*
X0150561Y0079271D01*
X0150502Y0079255D01*
X0150445Y0079235D01*
X0150390Y0079212D01*
X0150335Y0079185D01*
X0150283Y0079156D01*
X0150232Y0079123D01*
X0150183Y0079087D01*
X0150137Y0079049D01*
X0150093Y0079007D01*
X0150051Y0078963D01*
X0150013Y0078917D01*
X0149977Y0078868D01*
X0149944Y0078817D01*
X0149915Y0078765D01*
X0149888Y0078710D01*
X0149865Y0078655D01*
X0149845Y0078598D01*
X0149829Y0078539D01*
X0149816Y0078480D01*
X0149807Y0078421D01*
X0149802Y0078360D01*
X0149800Y0078300D01*
X0149800Y0076800D01*
X0148800Y0076800D02*
X0148800Y0078300D01*
X0148798Y0078360D01*
X0148793Y0078421D01*
X0148784Y0078480D01*
X0148771Y0078539D01*
X0148755Y0078598D01*
X0148735Y0078655D01*
X0148712Y0078710D01*
X0148685Y0078765D01*
X0148656Y0078817D01*
X0148623Y0078868D01*
X0148587Y0078917D01*
X0148549Y0078963D01*
X0148507Y0079007D01*
X0148463Y0079049D01*
X0148417Y0079087D01*
X0148368Y0079123D01*
X0148317Y0079156D01*
X0148265Y0079185D01*
X0148210Y0079212D01*
X0148155Y0079235D01*
X0148098Y0079255D01*
X0148039Y0079271D01*
X0147980Y0079284D01*
X0147921Y0079293D01*
X0147860Y0079298D01*
X0147800Y0079300D01*
X0140800Y0079300D02*
X0140740Y0079298D01*
X0140679Y0079293D01*
X0140620Y0079284D01*
X0140561Y0079271D01*
X0140502Y0079255D01*
X0140445Y0079235D01*
X0140390Y0079212D01*
X0140335Y0079185D01*
X0140283Y0079156D01*
X0140232Y0079123D01*
X0140183Y0079087D01*
X0140137Y0079049D01*
X0140093Y0079007D01*
X0140051Y0078963D01*
X0140013Y0078917D01*
X0139977Y0078868D01*
X0139944Y0078817D01*
X0139915Y0078765D01*
X0139888Y0078710D01*
X0139865Y0078655D01*
X0139845Y0078598D01*
X0139829Y0078539D01*
X0139816Y0078480D01*
X0139807Y0078421D01*
X0139802Y0078360D01*
X0139800Y0078300D01*
X0139800Y0076800D01*
X0138800Y0076800D02*
X0138800Y0078300D01*
X0138798Y0078360D01*
X0138793Y0078421D01*
X0138784Y0078480D01*
X0138771Y0078539D01*
X0138755Y0078598D01*
X0138735Y0078655D01*
X0138712Y0078710D01*
X0138685Y0078765D01*
X0138656Y0078817D01*
X0138623Y0078868D01*
X0138587Y0078917D01*
X0138549Y0078963D01*
X0138507Y0079007D01*
X0138463Y0079049D01*
X0138417Y0079087D01*
X0138368Y0079123D01*
X0138317Y0079156D01*
X0138265Y0079185D01*
X0138210Y0079212D01*
X0138155Y0079235D01*
X0138098Y0079255D01*
X0138039Y0079271D01*
X0137980Y0079284D01*
X0137921Y0079293D01*
X0137860Y0079298D01*
X0137800Y0079300D01*
X0130800Y0079300D02*
X0130740Y0079298D01*
X0130679Y0079293D01*
X0130620Y0079284D01*
X0130561Y0079271D01*
X0130502Y0079255D01*
X0130445Y0079235D01*
X0130390Y0079212D01*
X0130335Y0079185D01*
X0130283Y0079156D01*
X0130232Y0079123D01*
X0130183Y0079087D01*
X0130137Y0079049D01*
X0130093Y0079007D01*
X0130051Y0078963D01*
X0130013Y0078917D01*
X0129977Y0078868D01*
X0129944Y0078817D01*
X0129915Y0078765D01*
X0129888Y0078710D01*
X0129865Y0078655D01*
X0129845Y0078598D01*
X0129829Y0078539D01*
X0129816Y0078480D01*
X0129807Y0078421D01*
X0129802Y0078360D01*
X0129800Y0078300D01*
X0129800Y0076800D01*
X0128800Y0076800D02*
X0128800Y0078300D01*
X0128798Y0078360D01*
X0128793Y0078421D01*
X0128784Y0078480D01*
X0128771Y0078539D01*
X0128755Y0078598D01*
X0128735Y0078655D01*
X0128712Y0078710D01*
X0128685Y0078765D01*
X0128656Y0078817D01*
X0128623Y0078868D01*
X0128587Y0078917D01*
X0128549Y0078963D01*
X0128507Y0079007D01*
X0128463Y0079049D01*
X0128417Y0079087D01*
X0128368Y0079123D01*
X0128317Y0079156D01*
X0128265Y0079185D01*
X0128210Y0079212D01*
X0128155Y0079235D01*
X0128098Y0079255D01*
X0128039Y0079271D01*
X0127980Y0079284D01*
X0127921Y0079293D01*
X0127860Y0079298D01*
X0127800Y0079300D01*
X0120800Y0079300D02*
X0120740Y0079298D01*
X0120679Y0079293D01*
X0120620Y0079284D01*
X0120561Y0079271D01*
X0120502Y0079255D01*
X0120445Y0079235D01*
X0120390Y0079212D01*
X0120335Y0079185D01*
X0120283Y0079156D01*
X0120232Y0079123D01*
X0120183Y0079087D01*
X0120137Y0079049D01*
X0120093Y0079007D01*
X0120051Y0078963D01*
X0120013Y0078917D01*
X0119977Y0078868D01*
X0119944Y0078817D01*
X0119915Y0078765D01*
X0119888Y0078710D01*
X0119865Y0078655D01*
X0119845Y0078598D01*
X0119829Y0078539D01*
X0119816Y0078480D01*
X0119807Y0078421D01*
X0119802Y0078360D01*
X0119800Y0078300D01*
X0119800Y0076800D01*
X0106300Y0085300D02*
X0106300Y0086800D01*
X0106300Y0085300D02*
X0106298Y0085240D01*
X0106293Y0085179D01*
X0106284Y0085120D01*
X0106271Y0085061D01*
X0106255Y0085002D01*
X0106235Y0084945D01*
X0106212Y0084890D01*
X0106185Y0084835D01*
X0106156Y0084783D01*
X0106123Y0084732D01*
X0106087Y0084683D01*
X0106049Y0084637D01*
X0106007Y0084593D01*
X0105963Y0084551D01*
X0105917Y0084513D01*
X0105868Y0084477D01*
X0105817Y0084444D01*
X0105765Y0084415D01*
X0105710Y0084388D01*
X0105655Y0084365D01*
X0105598Y0084345D01*
X0105539Y0084329D01*
X0105480Y0084316D01*
X0105421Y0084307D01*
X0105360Y0084302D01*
X0105300Y0084300D01*
X0098300Y0084300D02*
X0098240Y0084302D01*
X0098179Y0084307D01*
X0098120Y0084316D01*
X0098061Y0084329D01*
X0098002Y0084345D01*
X0097945Y0084365D01*
X0097890Y0084388D01*
X0097835Y0084415D01*
X0097783Y0084444D01*
X0097732Y0084477D01*
X0097683Y0084513D01*
X0097637Y0084551D01*
X0097593Y0084593D01*
X0097551Y0084637D01*
X0097513Y0084683D01*
X0097477Y0084732D01*
X0097444Y0084783D01*
X0097415Y0084835D01*
X0097388Y0084890D01*
X0097365Y0084945D01*
X0097345Y0085002D01*
X0097329Y0085061D01*
X0097316Y0085120D01*
X0097307Y0085179D01*
X0097302Y0085240D01*
X0097300Y0085300D01*
X0097300Y0086800D01*
X0096300Y0086800D02*
X0096300Y0085300D01*
X0096298Y0085240D01*
X0096293Y0085179D01*
X0096284Y0085120D01*
X0096271Y0085061D01*
X0096255Y0085002D01*
X0096235Y0084945D01*
X0096212Y0084890D01*
X0096185Y0084835D01*
X0096156Y0084783D01*
X0096123Y0084732D01*
X0096087Y0084683D01*
X0096049Y0084637D01*
X0096007Y0084593D01*
X0095963Y0084551D01*
X0095917Y0084513D01*
X0095868Y0084477D01*
X0095817Y0084444D01*
X0095765Y0084415D01*
X0095710Y0084388D01*
X0095655Y0084365D01*
X0095598Y0084345D01*
X0095539Y0084329D01*
X0095480Y0084316D01*
X0095421Y0084307D01*
X0095360Y0084302D01*
X0095300Y0084300D01*
X0088300Y0084300D02*
X0088240Y0084302D01*
X0088179Y0084307D01*
X0088120Y0084316D01*
X0088061Y0084329D01*
X0088002Y0084345D01*
X0087945Y0084365D01*
X0087890Y0084388D01*
X0087835Y0084415D01*
X0087783Y0084444D01*
X0087732Y0084477D01*
X0087683Y0084513D01*
X0087637Y0084551D01*
X0087593Y0084593D01*
X0087551Y0084637D01*
X0087513Y0084683D01*
X0087477Y0084732D01*
X0087444Y0084783D01*
X0087415Y0084835D01*
X0087388Y0084890D01*
X0087365Y0084945D01*
X0087345Y0085002D01*
X0087329Y0085061D01*
X0087316Y0085120D01*
X0087307Y0085179D01*
X0087302Y0085240D01*
X0087300Y0085300D01*
X0087300Y0086800D01*
X0086300Y0086800D02*
X0086300Y0085300D01*
X0086298Y0085240D01*
X0086293Y0085179D01*
X0086284Y0085120D01*
X0086271Y0085061D01*
X0086255Y0085002D01*
X0086235Y0084945D01*
X0086212Y0084890D01*
X0086185Y0084835D01*
X0086156Y0084783D01*
X0086123Y0084732D01*
X0086087Y0084683D01*
X0086049Y0084637D01*
X0086007Y0084593D01*
X0085963Y0084551D01*
X0085917Y0084513D01*
X0085868Y0084477D01*
X0085817Y0084444D01*
X0085765Y0084415D01*
X0085710Y0084388D01*
X0085655Y0084365D01*
X0085598Y0084345D01*
X0085539Y0084329D01*
X0085480Y0084316D01*
X0085421Y0084307D01*
X0085360Y0084302D01*
X0085300Y0084300D01*
X0078300Y0084300D02*
X0078240Y0084302D01*
X0078179Y0084307D01*
X0078120Y0084316D01*
X0078061Y0084329D01*
X0078002Y0084345D01*
X0077945Y0084365D01*
X0077890Y0084388D01*
X0077835Y0084415D01*
X0077783Y0084444D01*
X0077732Y0084477D01*
X0077683Y0084513D01*
X0077637Y0084551D01*
X0077593Y0084593D01*
X0077551Y0084637D01*
X0077513Y0084683D01*
X0077477Y0084732D01*
X0077444Y0084783D01*
X0077415Y0084835D01*
X0077388Y0084890D01*
X0077365Y0084945D01*
X0077345Y0085002D01*
X0077329Y0085061D01*
X0077316Y0085120D01*
X0077307Y0085179D01*
X0077302Y0085240D01*
X0077300Y0085300D01*
X0077300Y0086800D01*
X0077300Y0106800D02*
X0077300Y0108300D01*
X0077302Y0108360D01*
X0077307Y0108421D01*
X0077316Y0108480D01*
X0077329Y0108539D01*
X0077345Y0108598D01*
X0077365Y0108655D01*
X0077388Y0108710D01*
X0077415Y0108765D01*
X0077444Y0108817D01*
X0077477Y0108868D01*
X0077513Y0108917D01*
X0077551Y0108963D01*
X0077593Y0109007D01*
X0077637Y0109049D01*
X0077683Y0109087D01*
X0077732Y0109123D01*
X0077783Y0109156D01*
X0077835Y0109185D01*
X0077890Y0109212D01*
X0077945Y0109235D01*
X0078002Y0109255D01*
X0078061Y0109271D01*
X0078120Y0109284D01*
X0078179Y0109293D01*
X0078240Y0109298D01*
X0078300Y0109300D01*
X0085300Y0109300D02*
X0085360Y0109298D01*
X0085421Y0109293D01*
X0085480Y0109284D01*
X0085539Y0109271D01*
X0085598Y0109255D01*
X0085655Y0109235D01*
X0085710Y0109212D01*
X0085765Y0109185D01*
X0085817Y0109156D01*
X0085868Y0109123D01*
X0085917Y0109087D01*
X0085963Y0109049D01*
X0086007Y0109007D01*
X0086049Y0108963D01*
X0086087Y0108917D01*
X0086123Y0108868D01*
X0086156Y0108817D01*
X0086185Y0108765D01*
X0086212Y0108710D01*
X0086235Y0108655D01*
X0086255Y0108598D01*
X0086271Y0108539D01*
X0086284Y0108480D01*
X0086293Y0108421D01*
X0086298Y0108360D01*
X0086300Y0108300D01*
X0086300Y0106800D01*
X0087300Y0106800D02*
X0087300Y0108300D01*
X0087302Y0108360D01*
X0087307Y0108421D01*
X0087316Y0108480D01*
X0087329Y0108539D01*
X0087345Y0108598D01*
X0087365Y0108655D01*
X0087388Y0108710D01*
X0087415Y0108765D01*
X0087444Y0108817D01*
X0087477Y0108868D01*
X0087513Y0108917D01*
X0087551Y0108963D01*
X0087593Y0109007D01*
X0087637Y0109049D01*
X0087683Y0109087D01*
X0087732Y0109123D01*
X0087783Y0109156D01*
X0087835Y0109185D01*
X0087890Y0109212D01*
X0087945Y0109235D01*
X0088002Y0109255D01*
X0088061Y0109271D01*
X0088120Y0109284D01*
X0088179Y0109293D01*
X0088240Y0109298D01*
X0088300Y0109300D01*
X0095300Y0109300D02*
X0095360Y0109298D01*
X0095421Y0109293D01*
X0095480Y0109284D01*
X0095539Y0109271D01*
X0095598Y0109255D01*
X0095655Y0109235D01*
X0095710Y0109212D01*
X0095765Y0109185D01*
X0095817Y0109156D01*
X0095868Y0109123D01*
X0095917Y0109087D01*
X0095963Y0109049D01*
X0096007Y0109007D01*
X0096049Y0108963D01*
X0096087Y0108917D01*
X0096123Y0108868D01*
X0096156Y0108817D01*
X0096185Y0108765D01*
X0096212Y0108710D01*
X0096235Y0108655D01*
X0096255Y0108598D01*
X0096271Y0108539D01*
X0096284Y0108480D01*
X0096293Y0108421D01*
X0096298Y0108360D01*
X0096300Y0108300D01*
X0096300Y0106800D01*
X0097300Y0106800D02*
X0097300Y0108300D01*
X0097302Y0108360D01*
X0097307Y0108421D01*
X0097316Y0108480D01*
X0097329Y0108539D01*
X0097345Y0108598D01*
X0097365Y0108655D01*
X0097388Y0108710D01*
X0097415Y0108765D01*
X0097444Y0108817D01*
X0097477Y0108868D01*
X0097513Y0108917D01*
X0097551Y0108963D01*
X0097593Y0109007D01*
X0097637Y0109049D01*
X0097683Y0109087D01*
X0097732Y0109123D01*
X0097783Y0109156D01*
X0097835Y0109185D01*
X0097890Y0109212D01*
X0097945Y0109235D01*
X0098002Y0109255D01*
X0098061Y0109271D01*
X0098120Y0109284D01*
X0098179Y0109293D01*
X0098240Y0109298D01*
X0098300Y0109300D01*
X0105300Y0109300D02*
X0105360Y0109298D01*
X0105421Y0109293D01*
X0105480Y0109284D01*
X0105539Y0109271D01*
X0105598Y0109255D01*
X0105655Y0109235D01*
X0105710Y0109212D01*
X0105765Y0109185D01*
X0105817Y0109156D01*
X0105868Y0109123D01*
X0105917Y0109087D01*
X0105963Y0109049D01*
X0106007Y0109007D01*
X0106049Y0108963D01*
X0106087Y0108917D01*
X0106123Y0108868D01*
X0106156Y0108817D01*
X0106185Y0108765D01*
X0106212Y0108710D01*
X0106235Y0108655D01*
X0106255Y0108598D01*
X0106271Y0108539D01*
X0106284Y0108480D01*
X0106293Y0108421D01*
X0106298Y0108360D01*
X0106300Y0108300D01*
X0106300Y0106800D01*
X0115300Y0096300D02*
X0116800Y0096300D01*
X0115300Y0096300D02*
X0115240Y0096298D01*
X0115179Y0096293D01*
X0115120Y0096284D01*
X0115061Y0096271D01*
X0115002Y0096255D01*
X0114945Y0096235D01*
X0114890Y0096212D01*
X0114835Y0096185D01*
X0114783Y0096156D01*
X0114732Y0096123D01*
X0114683Y0096087D01*
X0114637Y0096049D01*
X0114593Y0096007D01*
X0114551Y0095963D01*
X0114513Y0095917D01*
X0114477Y0095868D01*
X0114444Y0095817D01*
X0114415Y0095765D01*
X0114388Y0095710D01*
X0114365Y0095655D01*
X0114345Y0095598D01*
X0114329Y0095539D01*
X0114316Y0095480D01*
X0114307Y0095421D01*
X0114302Y0095360D01*
X0114300Y0095300D01*
X0114300Y0088300D02*
X0114302Y0088240D01*
X0114307Y0088179D01*
X0114316Y0088120D01*
X0114329Y0088061D01*
X0114345Y0088002D01*
X0114365Y0087945D01*
X0114388Y0087890D01*
X0114415Y0087835D01*
X0114444Y0087783D01*
X0114477Y0087732D01*
X0114513Y0087683D01*
X0114551Y0087637D01*
X0114593Y0087593D01*
X0114637Y0087551D01*
X0114683Y0087513D01*
X0114732Y0087477D01*
X0114783Y0087444D01*
X0114835Y0087415D01*
X0114890Y0087388D01*
X0114945Y0087365D01*
X0115002Y0087345D01*
X0115061Y0087329D01*
X0115120Y0087316D01*
X0115179Y0087307D01*
X0115240Y0087302D01*
X0115300Y0087300D01*
X0116800Y0087300D01*
X0136800Y0087300D02*
X0138300Y0087300D01*
X0138360Y0087302D01*
X0138421Y0087307D01*
X0138480Y0087316D01*
X0138539Y0087329D01*
X0138598Y0087345D01*
X0138655Y0087365D01*
X0138710Y0087388D01*
X0138765Y0087415D01*
X0138817Y0087444D01*
X0138868Y0087477D01*
X0138917Y0087513D01*
X0138963Y0087551D01*
X0139007Y0087593D01*
X0139049Y0087637D01*
X0139087Y0087683D01*
X0139123Y0087732D01*
X0139156Y0087783D01*
X0139185Y0087835D01*
X0139212Y0087890D01*
X0139235Y0087945D01*
X0139255Y0088002D01*
X0139271Y0088061D01*
X0139284Y0088120D01*
X0139293Y0088179D01*
X0139298Y0088240D01*
X0139300Y0088300D01*
X0139300Y0095300D02*
X0139298Y0095360D01*
X0139293Y0095421D01*
X0139284Y0095480D01*
X0139271Y0095539D01*
X0139255Y0095598D01*
X0139235Y0095655D01*
X0139212Y0095710D01*
X0139185Y0095765D01*
X0139156Y0095817D01*
X0139123Y0095868D01*
X0139087Y0095917D01*
X0139049Y0095963D01*
X0139007Y0096007D01*
X0138963Y0096049D01*
X0138917Y0096087D01*
X0138868Y0096123D01*
X0138817Y0096156D01*
X0138765Y0096185D01*
X0138710Y0096212D01*
X0138655Y0096235D01*
X0138598Y0096255D01*
X0138539Y0096271D01*
X0138480Y0096284D01*
X0138421Y0096293D01*
X0138360Y0096298D01*
X0138300Y0096300D01*
X0136800Y0096300D01*
X0149732Y0094131D02*
X0149734Y0094218D01*
X0149740Y0094305D01*
X0149749Y0094392D01*
X0149762Y0094478D01*
X0149779Y0094564D01*
X0149800Y0094649D01*
X0149825Y0094732D01*
X0149853Y0094815D01*
X0149884Y0094896D01*
X0149919Y0094976D01*
X0149958Y0095054D01*
X0150000Y0095131D01*
X0150045Y0095206D01*
X0150094Y0095278D01*
X0150145Y0095349D01*
X0150200Y0095417D01*
X0150257Y0095482D01*
X0150318Y0095545D01*
X0150381Y0095606D01*
X0150446Y0095663D01*
X0150514Y0095718D01*
X0150585Y0095769D01*
X0150657Y0095818D01*
X0150732Y0095863D01*
X0150809Y0095905D01*
X0150887Y0095944D01*
X0150967Y0095979D01*
X0151048Y0096010D01*
X0151131Y0096038D01*
X0151214Y0096063D01*
X0151299Y0096084D01*
X0151385Y0096101D01*
X0151471Y0096114D01*
X0151558Y0096123D01*
X0151645Y0096129D01*
X0151732Y0096131D01*
X0152800Y0097300D02*
X0154300Y0097300D01*
X0152800Y0097300D02*
X0152740Y0097302D01*
X0152679Y0097307D01*
X0152620Y0097316D01*
X0152561Y0097329D01*
X0152502Y0097345D01*
X0152445Y0097365D01*
X0152390Y0097388D01*
X0152335Y0097415D01*
X0152283Y0097444D01*
X0152232Y0097477D01*
X0152183Y0097513D01*
X0152137Y0097551D01*
X0152093Y0097593D01*
X0152051Y0097637D01*
X0152013Y0097683D01*
X0151977Y0097732D01*
X0151944Y0097783D01*
X0151915Y0097835D01*
X0151888Y0097890D01*
X0151865Y0097945D01*
X0151845Y0098002D01*
X0151829Y0098061D01*
X0151816Y0098120D01*
X0151807Y0098179D01*
X0151802Y0098240D01*
X0151800Y0098300D01*
X0151800Y0105300D02*
X0151802Y0105360D01*
X0151807Y0105421D01*
X0151816Y0105480D01*
X0151829Y0105539D01*
X0151845Y0105598D01*
X0151865Y0105655D01*
X0151888Y0105710D01*
X0151915Y0105765D01*
X0151944Y0105817D01*
X0151977Y0105868D01*
X0152013Y0105917D01*
X0152051Y0105963D01*
X0152093Y0106007D01*
X0152137Y0106049D01*
X0152183Y0106087D01*
X0152232Y0106123D01*
X0152283Y0106156D01*
X0152335Y0106185D01*
X0152390Y0106212D01*
X0152445Y0106235D01*
X0152502Y0106255D01*
X0152561Y0106271D01*
X0152620Y0106284D01*
X0152679Y0106293D01*
X0152740Y0106298D01*
X0152800Y0106300D01*
X0154300Y0106300D01*
X0149799Y0089435D02*
X0149801Y0089348D01*
X0149807Y0089261D01*
X0149816Y0089174D01*
X0149829Y0089088D01*
X0149846Y0089002D01*
X0149867Y0088917D01*
X0149892Y0088834D01*
X0149920Y0088751D01*
X0149951Y0088670D01*
X0149986Y0088590D01*
X0150025Y0088512D01*
X0150067Y0088435D01*
X0150112Y0088360D01*
X0150161Y0088288D01*
X0150212Y0088217D01*
X0150267Y0088149D01*
X0150324Y0088084D01*
X0150385Y0088021D01*
X0150448Y0087960D01*
X0150513Y0087903D01*
X0150581Y0087848D01*
X0150652Y0087797D01*
X0150724Y0087748D01*
X0150799Y0087703D01*
X0150876Y0087661D01*
X0150954Y0087622D01*
X0151034Y0087587D01*
X0151115Y0087556D01*
X0151198Y0087528D01*
X0151281Y0087503D01*
X0151366Y0087482D01*
X0151452Y0087465D01*
X0151538Y0087452D01*
X0151625Y0087443D01*
X0151712Y0087437D01*
X0151799Y0087435D01*
X0177800Y0079300D02*
X0177860Y0079298D01*
X0177921Y0079293D01*
X0177980Y0079284D01*
X0178039Y0079271D01*
X0178098Y0079255D01*
X0178155Y0079235D01*
X0178210Y0079212D01*
X0178265Y0079185D01*
X0178317Y0079156D01*
X0178368Y0079123D01*
X0178417Y0079087D01*
X0178463Y0079049D01*
X0178507Y0079007D01*
X0178549Y0078963D01*
X0178587Y0078917D01*
X0178623Y0078868D01*
X0178656Y0078817D01*
X0178685Y0078765D01*
X0178712Y0078710D01*
X0178735Y0078655D01*
X0178755Y0078598D01*
X0178771Y0078539D01*
X0178784Y0078480D01*
X0178793Y0078421D01*
X0178798Y0078360D01*
X0178800Y0078300D01*
X0178800Y0076800D01*
X0178800Y0056800D02*
X0178800Y0055300D01*
X0178798Y0055240D01*
X0178793Y0055179D01*
X0178784Y0055120D01*
X0178771Y0055061D01*
X0178755Y0055002D01*
X0178735Y0054945D01*
X0178712Y0054890D01*
X0178685Y0054835D01*
X0178656Y0054783D01*
X0178623Y0054732D01*
X0178587Y0054683D01*
X0178549Y0054637D01*
X0178507Y0054593D01*
X0178463Y0054551D01*
X0178417Y0054513D01*
X0178368Y0054477D01*
X0178317Y0054444D01*
X0178265Y0054415D01*
X0178210Y0054388D01*
X0178155Y0054365D01*
X0178098Y0054345D01*
X0178039Y0054329D01*
X0177980Y0054316D01*
X0177921Y0054307D01*
X0177860Y0054302D01*
X0177800Y0054300D01*
X0170800Y0054300D02*
X0170740Y0054302D01*
X0170679Y0054307D01*
X0170620Y0054316D01*
X0170561Y0054329D01*
X0170502Y0054345D01*
X0170445Y0054365D01*
X0170390Y0054388D01*
X0170335Y0054415D01*
X0170283Y0054444D01*
X0170232Y0054477D01*
X0170183Y0054513D01*
X0170137Y0054551D01*
X0170093Y0054593D01*
X0170051Y0054637D01*
X0170013Y0054683D01*
X0169977Y0054732D01*
X0169944Y0054783D01*
X0169915Y0054835D01*
X0169888Y0054890D01*
X0169865Y0054945D01*
X0169845Y0055002D01*
X0169829Y0055061D01*
X0169816Y0055120D01*
X0169807Y0055179D01*
X0169802Y0055240D01*
X0169800Y0055300D01*
X0169800Y0056800D01*
X0168800Y0056800D02*
X0168800Y0055300D01*
X0168798Y0055240D01*
X0168793Y0055179D01*
X0168784Y0055120D01*
X0168771Y0055061D01*
X0168755Y0055002D01*
X0168735Y0054945D01*
X0168712Y0054890D01*
X0168685Y0054835D01*
X0168656Y0054783D01*
X0168623Y0054732D01*
X0168587Y0054683D01*
X0168549Y0054637D01*
X0168507Y0054593D01*
X0168463Y0054551D01*
X0168417Y0054513D01*
X0168368Y0054477D01*
X0168317Y0054444D01*
X0168265Y0054415D01*
X0168210Y0054388D01*
X0168155Y0054365D01*
X0168098Y0054345D01*
X0168039Y0054329D01*
X0167980Y0054316D01*
X0167921Y0054307D01*
X0167860Y0054302D01*
X0167800Y0054300D01*
X0160800Y0054300D02*
X0160740Y0054302D01*
X0160679Y0054307D01*
X0160620Y0054316D01*
X0160561Y0054329D01*
X0160502Y0054345D01*
X0160445Y0054365D01*
X0160390Y0054388D01*
X0160335Y0054415D01*
X0160283Y0054444D01*
X0160232Y0054477D01*
X0160183Y0054513D01*
X0160137Y0054551D01*
X0160093Y0054593D01*
X0160051Y0054637D01*
X0160013Y0054683D01*
X0159977Y0054732D01*
X0159944Y0054783D01*
X0159915Y0054835D01*
X0159888Y0054890D01*
X0159865Y0054945D01*
X0159845Y0055002D01*
X0159829Y0055061D01*
X0159816Y0055120D01*
X0159807Y0055179D01*
X0159802Y0055240D01*
X0159800Y0055300D01*
X0159800Y0056800D01*
X0158800Y0056800D02*
X0158800Y0055300D01*
X0158798Y0055240D01*
X0158793Y0055179D01*
X0158784Y0055120D01*
X0158771Y0055061D01*
X0158755Y0055002D01*
X0158735Y0054945D01*
X0158712Y0054890D01*
X0158685Y0054835D01*
X0158656Y0054783D01*
X0158623Y0054732D01*
X0158587Y0054683D01*
X0158549Y0054637D01*
X0158507Y0054593D01*
X0158463Y0054551D01*
X0158417Y0054513D01*
X0158368Y0054477D01*
X0158317Y0054444D01*
X0158265Y0054415D01*
X0158210Y0054388D01*
X0158155Y0054365D01*
X0158098Y0054345D01*
X0158039Y0054329D01*
X0157980Y0054316D01*
X0157921Y0054307D01*
X0157860Y0054302D01*
X0157800Y0054300D01*
X0150800Y0054300D02*
X0150740Y0054302D01*
X0150679Y0054307D01*
X0150620Y0054316D01*
X0150561Y0054329D01*
X0150502Y0054345D01*
X0150445Y0054365D01*
X0150390Y0054388D01*
X0150335Y0054415D01*
X0150283Y0054444D01*
X0150232Y0054477D01*
X0150183Y0054513D01*
X0150137Y0054551D01*
X0150093Y0054593D01*
X0150051Y0054637D01*
X0150013Y0054683D01*
X0149977Y0054732D01*
X0149944Y0054783D01*
X0149915Y0054835D01*
X0149888Y0054890D01*
X0149865Y0054945D01*
X0149845Y0055002D01*
X0149829Y0055061D01*
X0149816Y0055120D01*
X0149807Y0055179D01*
X0149802Y0055240D01*
X0149800Y0055300D01*
X0149800Y0056800D01*
X0148800Y0056800D02*
X0148800Y0055300D01*
X0148798Y0055240D01*
X0148793Y0055179D01*
X0148784Y0055120D01*
X0148771Y0055061D01*
X0148755Y0055002D01*
X0148735Y0054945D01*
X0148712Y0054890D01*
X0148685Y0054835D01*
X0148656Y0054783D01*
X0148623Y0054732D01*
X0148587Y0054683D01*
X0148549Y0054637D01*
X0148507Y0054593D01*
X0148463Y0054551D01*
X0148417Y0054513D01*
X0148368Y0054477D01*
X0148317Y0054444D01*
X0148265Y0054415D01*
X0148210Y0054388D01*
X0148155Y0054365D01*
X0148098Y0054345D01*
X0148039Y0054329D01*
X0147980Y0054316D01*
X0147921Y0054307D01*
X0147860Y0054302D01*
X0147800Y0054300D01*
X0140800Y0054300D02*
X0140740Y0054302D01*
X0140679Y0054307D01*
X0140620Y0054316D01*
X0140561Y0054329D01*
X0140502Y0054345D01*
X0140445Y0054365D01*
X0140390Y0054388D01*
X0140335Y0054415D01*
X0140283Y0054444D01*
X0140232Y0054477D01*
X0140183Y0054513D01*
X0140137Y0054551D01*
X0140093Y0054593D01*
X0140051Y0054637D01*
X0140013Y0054683D01*
X0139977Y0054732D01*
X0139944Y0054783D01*
X0139915Y0054835D01*
X0139888Y0054890D01*
X0139865Y0054945D01*
X0139845Y0055002D01*
X0139829Y0055061D01*
X0139816Y0055120D01*
X0139807Y0055179D01*
X0139802Y0055240D01*
X0139800Y0055300D01*
X0139800Y0056800D01*
X0138800Y0056800D02*
X0138800Y0055300D01*
X0138798Y0055240D01*
X0138793Y0055179D01*
X0138784Y0055120D01*
X0138771Y0055061D01*
X0138755Y0055002D01*
X0138735Y0054945D01*
X0138712Y0054890D01*
X0138685Y0054835D01*
X0138656Y0054783D01*
X0138623Y0054732D01*
X0138587Y0054683D01*
X0138549Y0054637D01*
X0138507Y0054593D01*
X0138463Y0054551D01*
X0138417Y0054513D01*
X0138368Y0054477D01*
X0138317Y0054444D01*
X0138265Y0054415D01*
X0138210Y0054388D01*
X0138155Y0054365D01*
X0138098Y0054345D01*
X0138039Y0054329D01*
X0137980Y0054316D01*
X0137921Y0054307D01*
X0137860Y0054302D01*
X0137800Y0054300D01*
X0130800Y0054300D02*
X0130740Y0054302D01*
X0130679Y0054307D01*
X0130620Y0054316D01*
X0130561Y0054329D01*
X0130502Y0054345D01*
X0130445Y0054365D01*
X0130390Y0054388D01*
X0130335Y0054415D01*
X0130283Y0054444D01*
X0130232Y0054477D01*
X0130183Y0054513D01*
X0130137Y0054551D01*
X0130093Y0054593D01*
X0130051Y0054637D01*
X0130013Y0054683D01*
X0129977Y0054732D01*
X0129944Y0054783D01*
X0129915Y0054835D01*
X0129888Y0054890D01*
X0129865Y0054945D01*
X0129845Y0055002D01*
X0129829Y0055061D01*
X0129816Y0055120D01*
X0129807Y0055179D01*
X0129802Y0055240D01*
X0129800Y0055300D01*
X0129800Y0056800D01*
X0128800Y0056800D02*
X0128800Y0055300D01*
X0128798Y0055240D01*
X0128793Y0055179D01*
X0128784Y0055120D01*
X0128771Y0055061D01*
X0128755Y0055002D01*
X0128735Y0054945D01*
X0128712Y0054890D01*
X0128685Y0054835D01*
X0128656Y0054783D01*
X0128623Y0054732D01*
X0128587Y0054683D01*
X0128549Y0054637D01*
X0128507Y0054593D01*
X0128463Y0054551D01*
X0128417Y0054513D01*
X0128368Y0054477D01*
X0128317Y0054444D01*
X0128265Y0054415D01*
X0128210Y0054388D01*
X0128155Y0054365D01*
X0128098Y0054345D01*
X0128039Y0054329D01*
X0127980Y0054316D01*
X0127921Y0054307D01*
X0127860Y0054302D01*
X0127800Y0054300D01*
X0120800Y0054300D02*
X0120740Y0054302D01*
X0120679Y0054307D01*
X0120620Y0054316D01*
X0120561Y0054329D01*
X0120502Y0054345D01*
X0120445Y0054365D01*
X0120390Y0054388D01*
X0120335Y0054415D01*
X0120283Y0054444D01*
X0120232Y0054477D01*
X0120183Y0054513D01*
X0120137Y0054551D01*
X0120093Y0054593D01*
X0120051Y0054637D01*
X0120013Y0054683D01*
X0119977Y0054732D01*
X0119944Y0054783D01*
X0119915Y0054835D01*
X0119888Y0054890D01*
X0119865Y0054945D01*
X0119845Y0055002D01*
X0119829Y0055061D01*
X0119816Y0055120D01*
X0119807Y0055179D01*
X0119802Y0055240D01*
X0119800Y0055300D01*
X0119800Y0056800D01*
X0114098Y0041402D02*
X0114185Y0041400D01*
X0114272Y0041394D01*
X0114359Y0041385D01*
X0114445Y0041372D01*
X0114531Y0041355D01*
X0114616Y0041334D01*
X0114699Y0041309D01*
X0114782Y0041281D01*
X0114863Y0041250D01*
X0114943Y0041215D01*
X0115021Y0041176D01*
X0115098Y0041134D01*
X0115173Y0041089D01*
X0115245Y0041040D01*
X0115316Y0040989D01*
X0115384Y0040934D01*
X0115449Y0040877D01*
X0115512Y0040816D01*
X0115573Y0040753D01*
X0115630Y0040688D01*
X0115685Y0040620D01*
X0115736Y0040549D01*
X0115785Y0040477D01*
X0115830Y0040402D01*
X0115872Y0040325D01*
X0115911Y0040247D01*
X0115946Y0040167D01*
X0115977Y0040086D01*
X0116005Y0040003D01*
X0116030Y0039920D01*
X0116051Y0039835D01*
X0116068Y0039749D01*
X0116081Y0039663D01*
X0116090Y0039576D01*
X0116096Y0039489D01*
X0116098Y0039402D01*
X0116800Y0038300D02*
X0186800Y0038300D01*
X0186800Y0015300D01*
X0116800Y0015300D01*
X0116800Y0022800D01*
X0116926Y0022802D01*
X0117051Y0022808D01*
X0117176Y0022818D01*
X0117301Y0022832D01*
X0117426Y0022849D01*
X0117550Y0022871D01*
X0117673Y0022896D01*
X0117795Y0022926D01*
X0117916Y0022959D01*
X0118036Y0022996D01*
X0118155Y0023036D01*
X0118272Y0023081D01*
X0118389Y0023129D01*
X0118503Y0023181D01*
X0118616Y0023236D01*
X0118727Y0023295D01*
X0118836Y0023357D01*
X0118943Y0023423D01*
X0119048Y0023492D01*
X0119151Y0023564D01*
X0119252Y0023639D01*
X0119350Y0023718D01*
X0119445Y0023800D01*
X0119538Y0023884D01*
X0119628Y0023972D01*
X0119716Y0024062D01*
X0119800Y0024155D01*
X0119882Y0024250D01*
X0119961Y0024348D01*
X0120036Y0024449D01*
X0120108Y0024552D01*
X0120177Y0024657D01*
X0120243Y0024764D01*
X0120305Y0024873D01*
X0120364Y0024984D01*
X0120419Y0025097D01*
X0120471Y0025211D01*
X0120519Y0025328D01*
X0120564Y0025445D01*
X0120604Y0025564D01*
X0120641Y0025684D01*
X0120674Y0025805D01*
X0120704Y0025927D01*
X0120729Y0026050D01*
X0120751Y0026174D01*
X0120768Y0026299D01*
X0120782Y0026424D01*
X0120792Y0026549D01*
X0120798Y0026674D01*
X0120800Y0026800D01*
X0120798Y0026926D01*
X0120792Y0027051D01*
X0120782Y0027176D01*
X0120768Y0027301D01*
X0120751Y0027426D01*
X0120729Y0027550D01*
X0120704Y0027673D01*
X0120674Y0027795D01*
X0120641Y0027916D01*
X0120604Y0028036D01*
X0120564Y0028155D01*
X0120519Y0028272D01*
X0120471Y0028389D01*
X0120419Y0028503D01*
X0120364Y0028616D01*
X0120305Y0028727D01*
X0120243Y0028836D01*
X0120177Y0028943D01*
X0120108Y0029048D01*
X0120036Y0029151D01*
X0119961Y0029252D01*
X0119882Y0029350D01*
X0119800Y0029445D01*
X0119716Y0029538D01*
X0119628Y0029628D01*
X0119538Y0029716D01*
X0119445Y0029800D01*
X0119350Y0029882D01*
X0119252Y0029961D01*
X0119151Y0030036D01*
X0119048Y0030108D01*
X0118943Y0030177D01*
X0118836Y0030243D01*
X0118727Y0030305D01*
X0118616Y0030364D01*
X0118503Y0030419D01*
X0118389Y0030471D01*
X0118272Y0030519D01*
X0118155Y0030564D01*
X0118036Y0030604D01*
X0117916Y0030641D01*
X0117795Y0030674D01*
X0117673Y0030704D01*
X0117550Y0030729D01*
X0117426Y0030751D01*
X0117301Y0030768D01*
X0117176Y0030782D01*
X0117051Y0030792D01*
X0116926Y0030798D01*
X0116800Y0030800D01*
X0106131Y0034368D02*
X0106129Y0034455D01*
X0106123Y0034542D01*
X0106114Y0034629D01*
X0106101Y0034715D01*
X0106084Y0034801D01*
X0106063Y0034886D01*
X0106038Y0034969D01*
X0106010Y0035052D01*
X0105979Y0035133D01*
X0105944Y0035213D01*
X0105905Y0035291D01*
X0105863Y0035368D01*
X0105818Y0035443D01*
X0105769Y0035515D01*
X0105718Y0035586D01*
X0105663Y0035654D01*
X0105606Y0035719D01*
X0105545Y0035782D01*
X0105482Y0035843D01*
X0105417Y0035900D01*
X0105349Y0035955D01*
X0105278Y0036006D01*
X0105206Y0036055D01*
X0105131Y0036100D01*
X0105054Y0036142D01*
X0104976Y0036181D01*
X0104896Y0036216D01*
X0104815Y0036247D01*
X0104732Y0036275D01*
X0104649Y0036300D01*
X0104564Y0036321D01*
X0104478Y0036338D01*
X0104392Y0036351D01*
X0104305Y0036360D01*
X0104218Y0036366D01*
X0104131Y0036368D01*
X0099435Y0036301D02*
X0099348Y0036299D01*
X0099261Y0036293D01*
X0099174Y0036284D01*
X0099088Y0036271D01*
X0099002Y0036254D01*
X0098917Y0036233D01*
X0098834Y0036208D01*
X0098751Y0036180D01*
X0098670Y0036149D01*
X0098590Y0036114D01*
X0098512Y0036075D01*
X0098435Y0036033D01*
X0098360Y0035988D01*
X0098288Y0035939D01*
X0098217Y0035888D01*
X0098149Y0035833D01*
X0098084Y0035776D01*
X0098021Y0035715D01*
X0097960Y0035652D01*
X0097903Y0035587D01*
X0097848Y0035519D01*
X0097797Y0035448D01*
X0097748Y0035376D01*
X0097703Y0035301D01*
X0097661Y0035224D01*
X0097622Y0035146D01*
X0097587Y0035066D01*
X0097556Y0034985D01*
X0097528Y0034902D01*
X0097503Y0034819D01*
X0097482Y0034734D01*
X0097465Y0034648D01*
X0097452Y0034562D01*
X0097443Y0034475D01*
X0097437Y0034388D01*
X0097435Y0034301D01*
X0107367Y0039251D02*
X0107369Y0039338D01*
X0107375Y0039425D01*
X0107384Y0039512D01*
X0107397Y0039598D01*
X0107414Y0039684D01*
X0107435Y0039769D01*
X0107460Y0039852D01*
X0107488Y0039935D01*
X0107519Y0040016D01*
X0107554Y0040096D01*
X0107593Y0040174D01*
X0107635Y0040251D01*
X0107680Y0040326D01*
X0107729Y0040398D01*
X0107780Y0040469D01*
X0107835Y0040537D01*
X0107892Y0040602D01*
X0107953Y0040665D01*
X0108016Y0040726D01*
X0108081Y0040783D01*
X0108149Y0040838D01*
X0108220Y0040889D01*
X0108292Y0040938D01*
X0108367Y0040983D01*
X0108444Y0041025D01*
X0108522Y0041064D01*
X0108602Y0041099D01*
X0108683Y0041130D01*
X0108766Y0041158D01*
X0108849Y0041183D01*
X0108934Y0041204D01*
X0109020Y0041221D01*
X0109106Y0041234D01*
X0109193Y0041243D01*
X0109280Y0041249D01*
X0109367Y0041251D01*
X0107469Y0019232D02*
X0107471Y0019145D01*
X0107477Y0019058D01*
X0107486Y0018971D01*
X0107499Y0018885D01*
X0107516Y0018799D01*
X0107537Y0018714D01*
X0107562Y0018631D01*
X0107590Y0018548D01*
X0107621Y0018467D01*
X0107656Y0018387D01*
X0107695Y0018309D01*
X0107737Y0018232D01*
X0107782Y0018157D01*
X0107831Y0018085D01*
X0107882Y0018014D01*
X0107937Y0017946D01*
X0107994Y0017881D01*
X0108055Y0017818D01*
X0108118Y0017757D01*
X0108183Y0017700D01*
X0108251Y0017645D01*
X0108322Y0017594D01*
X0108394Y0017545D01*
X0108469Y0017500D01*
X0108546Y0017458D01*
X0108624Y0017419D01*
X0108704Y0017384D01*
X0108785Y0017353D01*
X0108868Y0017325D01*
X0108951Y0017300D01*
X0109036Y0017279D01*
X0109122Y0017262D01*
X0109208Y0017249D01*
X0109295Y0017240D01*
X0109382Y0017234D01*
X0109469Y0017232D01*
X0114165Y0017299D02*
X0114252Y0017301D01*
X0114339Y0017307D01*
X0114426Y0017316D01*
X0114512Y0017329D01*
X0114598Y0017346D01*
X0114683Y0017367D01*
X0114766Y0017392D01*
X0114849Y0017420D01*
X0114930Y0017451D01*
X0115010Y0017486D01*
X0115088Y0017525D01*
X0115165Y0017567D01*
X0115240Y0017612D01*
X0115312Y0017661D01*
X0115383Y0017712D01*
X0115451Y0017767D01*
X0115516Y0017824D01*
X0115579Y0017885D01*
X0115640Y0017948D01*
X0115697Y0018013D01*
X0115752Y0018081D01*
X0115803Y0018152D01*
X0115852Y0018224D01*
X0115897Y0018299D01*
X0115939Y0018376D01*
X0115978Y0018454D01*
X0116013Y0018534D01*
X0116044Y0018615D01*
X0116072Y0018698D01*
X0116097Y0018781D01*
X0116118Y0018866D01*
X0116135Y0018952D01*
X0116148Y0019038D01*
X0116157Y0019125D01*
X0116163Y0019212D01*
X0116165Y0019299D01*
X0106233Y0014349D02*
X0106231Y0014262D01*
X0106225Y0014175D01*
X0106216Y0014088D01*
X0106203Y0014002D01*
X0106186Y0013916D01*
X0106165Y0013831D01*
X0106140Y0013748D01*
X0106112Y0013665D01*
X0106081Y0013584D01*
X0106046Y0013504D01*
X0106007Y0013426D01*
X0105965Y0013349D01*
X0105920Y0013274D01*
X0105871Y0013202D01*
X0105820Y0013131D01*
X0105765Y0013063D01*
X0105708Y0012998D01*
X0105647Y0012935D01*
X0105584Y0012874D01*
X0105519Y0012817D01*
X0105451Y0012762D01*
X0105380Y0012711D01*
X0105308Y0012662D01*
X0105233Y0012617D01*
X0105156Y0012575D01*
X0105078Y0012536D01*
X0104998Y0012501D01*
X0104917Y0012470D01*
X0104834Y0012442D01*
X0104751Y0012417D01*
X0104666Y0012396D01*
X0104580Y0012379D01*
X0104494Y0012366D01*
X0104407Y0012357D01*
X0104320Y0012351D01*
X0104233Y0012349D01*
X0099502Y0012198D02*
X0099415Y0012200D01*
X0099328Y0012206D01*
X0099241Y0012215D01*
X0099155Y0012228D01*
X0099069Y0012245D01*
X0098984Y0012266D01*
X0098901Y0012291D01*
X0098818Y0012319D01*
X0098737Y0012350D01*
X0098657Y0012385D01*
X0098579Y0012424D01*
X0098502Y0012466D01*
X0098427Y0012511D01*
X0098355Y0012560D01*
X0098284Y0012611D01*
X0098216Y0012666D01*
X0098151Y0012723D01*
X0098088Y0012784D01*
X0098027Y0012847D01*
X0097970Y0012912D01*
X0097915Y0012980D01*
X0097864Y0013051D01*
X0097815Y0013123D01*
X0097770Y0013198D01*
X0097728Y0013275D01*
X0097689Y0013353D01*
X0097654Y0013433D01*
X0097623Y0013514D01*
X0097595Y0013597D01*
X0097570Y0013680D01*
X0097549Y0013765D01*
X0097532Y0013851D01*
X0097519Y0013937D01*
X0097510Y0014024D01*
X0097504Y0014111D01*
X0097502Y0014198D01*
X0059300Y0014300D02*
X0056800Y0011800D01*
X0059300Y0014300D02*
X0059300Y0029300D01*
X0056800Y0031800D01*
D12*
X0008604Y0007000D02*
X0004500Y0007000D01*
X0005868Y0007000D02*
X0005868Y0009052D01*
X0006552Y0009736D01*
X0007920Y0009736D01*
X0008604Y0009052D01*
X0008604Y0007000D01*
X0005868Y0008368D02*
X0004500Y0009736D01*
X0004500Y0011144D02*
X0004500Y0013879D01*
X0004500Y0015287D02*
X0004500Y0017339D01*
X0005184Y0018023D01*
X0007920Y0018023D01*
X0008604Y0017339D01*
X0008604Y0015287D01*
X0004500Y0015287D01*
X0006552Y0012511D02*
X0006552Y0011144D01*
X0008604Y0011144D02*
X0004500Y0011144D01*
X0008604Y0011144D02*
X0008604Y0013879D01*
X0008604Y0019431D02*
X0006552Y0022166D01*
X0004500Y0019431D01*
X0004500Y0023574D02*
X0008604Y0023574D01*
X0008604Y0025626D01*
X0007920Y0026310D01*
X0006552Y0026310D01*
X0005868Y0025626D01*
X0005868Y0023574D01*
X0005868Y0024942D02*
X0004500Y0026310D01*
X0004500Y0027718D02*
X0004500Y0030453D01*
X0004500Y0031861D02*
X0004500Y0033913D01*
X0005184Y0034597D01*
X0007920Y0034597D01*
X0008604Y0033913D01*
X0008604Y0031861D01*
X0004500Y0031861D01*
X0006552Y0029086D02*
X0006552Y0027718D01*
X0008604Y0027718D02*
X0004500Y0027718D01*
X0008604Y0027718D02*
X0008604Y0030453D01*
X0097972Y0030697D02*
X0099774Y0030697D01*
X0100374Y0030097D01*
X0100374Y0028295D01*
X0097972Y0028295D01*
X0098573Y0027014D02*
X0097972Y0026413D01*
X0097972Y0025212D01*
X0098573Y0024612D01*
X0100975Y0027014D01*
X0098573Y0027014D01*
X0100975Y0027014D02*
X0101575Y0026413D01*
X0101575Y0025212D01*
X0100975Y0024612D01*
X0098573Y0024612D01*
X0098573Y0023331D02*
X0097972Y0022730D01*
X0097972Y0021529D01*
X0098573Y0020929D01*
X0100975Y0023331D01*
X0098573Y0023331D01*
X0100975Y0023331D02*
X0101575Y0022730D01*
X0101575Y0021529D01*
X0100975Y0020929D01*
X0098573Y0020929D01*
X0097972Y0019648D02*
X0097972Y0017246D01*
X0097972Y0018447D02*
X0101575Y0018447D01*
X0100374Y0017246D01*
X0103185Y0017913D02*
X0103185Y0019114D01*
X0103786Y0019715D01*
X0104987Y0020996D02*
X0104987Y0023398D01*
X0106788Y0022798D02*
X0104987Y0020996D01*
X0106188Y0019715D02*
X0106788Y0019114D01*
X0106788Y0017913D01*
X0106188Y0017313D01*
X0103786Y0017313D01*
X0103185Y0017913D01*
X0112028Y0022022D02*
X0112028Y0024424D01*
X0112028Y0023223D02*
X0115631Y0023223D01*
X0114430Y0022022D01*
X0115030Y0025705D02*
X0112628Y0025705D01*
X0115030Y0028107D01*
X0112628Y0028107D01*
X0112028Y0027506D01*
X0112028Y0026305D01*
X0112628Y0025705D01*
X0115030Y0025705D02*
X0115631Y0026305D01*
X0115631Y0027506D01*
X0115030Y0028107D01*
X0115030Y0029388D02*
X0115631Y0029989D01*
X0115631Y0031190D01*
X0115030Y0031790D01*
X0112628Y0029388D01*
X0112028Y0029989D01*
X0112028Y0031190D01*
X0112628Y0031790D01*
X0115030Y0031790D01*
X0114430Y0033071D02*
X0114430Y0034873D01*
X0113829Y0035473D01*
X0112028Y0035473D01*
X0110418Y0035406D02*
X0110418Y0033004D01*
X0108616Y0033004D01*
X0109217Y0034205D01*
X0109217Y0034805D01*
X0108616Y0035406D01*
X0107415Y0035406D01*
X0106815Y0034805D01*
X0106815Y0033604D01*
X0107415Y0033004D01*
X0107415Y0031723D02*
X0106815Y0031122D01*
X0106815Y0029921D01*
X0107415Y0029321D01*
X0109817Y0029321D01*
X0110418Y0029921D01*
X0110418Y0031122D01*
X0109817Y0031723D01*
X0112028Y0033071D02*
X0114430Y0033071D01*
X0115030Y0029388D02*
X0112628Y0029388D01*
X0106788Y0022798D02*
X0103185Y0022798D01*
X0125512Y0057469D02*
X0128615Y0057469D01*
X0128615Y0059021D01*
X0128098Y0059538D01*
X0127064Y0059538D01*
X0126546Y0059021D01*
X0126546Y0057469D01*
X0126546Y0058504D02*
X0125512Y0059538D01*
X0125512Y0060692D02*
X0125512Y0062761D01*
X0125512Y0061726D02*
X0128615Y0061726D01*
X0127581Y0060692D01*
X0127064Y0063915D02*
X0126029Y0063915D01*
X0125512Y0064432D01*
X0125512Y0065466D01*
X0126029Y0065983D01*
X0126546Y0065983D01*
X0127064Y0065466D01*
X0127064Y0063915D01*
X0128098Y0064949D01*
X0128615Y0065983D01*
X0135512Y0062243D02*
X0135512Y0061209D01*
X0136029Y0060692D01*
X0137064Y0060692D02*
X0137581Y0061726D01*
X0137581Y0062243D01*
X0137064Y0062761D01*
X0136029Y0062761D01*
X0135512Y0062243D01*
X0137064Y0060692D02*
X0138615Y0060692D01*
X0138615Y0062761D01*
X0138098Y0059538D02*
X0137064Y0059538D01*
X0136546Y0059021D01*
X0136546Y0057469D01*
X0135512Y0057469D02*
X0138615Y0057469D01*
X0138615Y0059021D01*
X0138098Y0059538D01*
X0136546Y0058504D02*
X0135512Y0059538D01*
X0145512Y0059538D02*
X0146546Y0058504D01*
X0146546Y0059021D02*
X0146546Y0057469D01*
X0145512Y0057469D02*
X0148615Y0057469D01*
X0148615Y0059021D01*
X0148098Y0059538D01*
X0147064Y0059538D01*
X0146546Y0059021D01*
X0145512Y0060692D02*
X0145512Y0062761D01*
X0145512Y0061726D02*
X0148615Y0061726D01*
X0147581Y0060692D01*
X0147064Y0063915D02*
X0147064Y0065983D01*
X0148615Y0065466D02*
X0145512Y0065466D01*
X0147064Y0063915D02*
X0148615Y0065466D01*
X0155512Y0065983D02*
X0155512Y0063915D01*
X0157581Y0065983D01*
X0158098Y0065983D01*
X0158615Y0065466D01*
X0158615Y0064432D01*
X0158098Y0063915D01*
X0155512Y0062761D02*
X0155512Y0060692D01*
X0155512Y0061726D02*
X0158615Y0061726D01*
X0157581Y0060692D01*
X0158098Y0059538D02*
X0157064Y0059538D01*
X0156546Y0059021D01*
X0156546Y0057469D01*
X0155512Y0057469D02*
X0158615Y0057469D01*
X0158615Y0059021D01*
X0158098Y0059538D01*
X0156546Y0058504D02*
X0155512Y0059538D01*
X0165512Y0059538D02*
X0166546Y0058504D01*
X0166546Y0059021D02*
X0166546Y0057469D01*
X0165512Y0057469D02*
X0168615Y0057469D01*
X0168615Y0059021D01*
X0168098Y0059538D01*
X0167064Y0059538D01*
X0166546Y0059021D01*
X0166546Y0060692D02*
X0167064Y0061209D01*
X0167064Y0062243D01*
X0166546Y0062761D01*
X0166029Y0062761D01*
X0165512Y0062243D01*
X0165512Y0061209D01*
X0166029Y0060692D01*
X0166546Y0060692D01*
X0167064Y0061209D02*
X0167581Y0060692D01*
X0168098Y0060692D01*
X0168615Y0061209D01*
X0168615Y0062243D01*
X0168098Y0062761D01*
X0167581Y0062761D01*
X0167064Y0062243D01*
X0175512Y0061726D02*
X0178615Y0061726D01*
X0177581Y0060692D01*
X0178098Y0059538D02*
X0177064Y0059538D01*
X0176546Y0059021D01*
X0176546Y0057469D01*
X0175512Y0057469D02*
X0178615Y0057469D01*
X0178615Y0059021D01*
X0178098Y0059538D01*
X0176546Y0058504D02*
X0175512Y0059538D01*
X0175512Y0060692D02*
X0175512Y0062761D01*
X0176029Y0063915D02*
X0178098Y0065983D01*
X0176029Y0065983D01*
X0175512Y0065466D01*
X0175512Y0064432D01*
X0176029Y0063915D01*
X0178098Y0063915D01*
X0178615Y0064432D01*
X0178615Y0065466D01*
X0178098Y0065983D01*
X0168854Y0087972D02*
X0166452Y0087972D01*
X0167653Y0087972D02*
X0167653Y0091575D01*
X0168854Y0090374D01*
X0168187Y0093185D02*
X0166986Y0093185D01*
X0166385Y0093786D01*
X0165104Y0093786D02*
X0164503Y0093185D01*
X0163302Y0093185D01*
X0162702Y0093786D01*
X0162702Y0094386D01*
X0163302Y0094987D01*
X0163903Y0094987D01*
X0163302Y0094987D02*
X0162702Y0095587D01*
X0162702Y0096188D01*
X0163302Y0096788D01*
X0164503Y0096788D01*
X0165104Y0096188D01*
X0166385Y0096188D02*
X0166986Y0096788D01*
X0168187Y0096788D01*
X0168787Y0096188D01*
X0168787Y0093786D01*
X0168187Y0093185D01*
X0165171Y0090975D02*
X0164571Y0091575D01*
X0163370Y0091575D01*
X0162769Y0090975D01*
X0165171Y0088573D01*
X0164571Y0087972D01*
X0163370Y0087972D01*
X0162769Y0088573D01*
X0162769Y0090975D01*
X0161488Y0090975D02*
X0160888Y0091575D01*
X0159687Y0091575D01*
X0159086Y0090975D01*
X0161488Y0088573D01*
X0160888Y0087972D01*
X0159687Y0087972D01*
X0159086Y0088573D01*
X0159086Y0090975D01*
X0157805Y0090374D02*
X0156003Y0090374D01*
X0155403Y0089774D01*
X0155403Y0087972D01*
X0157805Y0087972D02*
X0157805Y0090374D01*
X0161488Y0090975D02*
X0161488Y0088573D01*
X0165171Y0088573D02*
X0165171Y0090975D01*
X0168339Y0103012D02*
X0170408Y0103012D01*
X0169374Y0103012D02*
X0169374Y0106115D01*
X0170408Y0105081D01*
X0171562Y0105598D02*
X0171562Y0104564D01*
X0172079Y0104046D01*
X0173631Y0104046D01*
X0173631Y0103012D02*
X0173631Y0106115D01*
X0172079Y0106115D01*
X0171562Y0105598D01*
X0172596Y0104046D02*
X0171562Y0103012D01*
X0135800Y0104800D02*
X0135800Y0098800D01*
X0135798Y0098740D01*
X0135793Y0098679D01*
X0135784Y0098620D01*
X0135771Y0098561D01*
X0135755Y0098502D01*
X0135735Y0098445D01*
X0135712Y0098390D01*
X0135685Y0098335D01*
X0135656Y0098283D01*
X0135623Y0098232D01*
X0135587Y0098183D01*
X0135549Y0098137D01*
X0135507Y0098093D01*
X0135463Y0098051D01*
X0135417Y0098013D01*
X0135368Y0097977D01*
X0135317Y0097944D01*
X0135265Y0097915D01*
X0135210Y0097888D01*
X0135155Y0097865D01*
X0135098Y0097845D01*
X0135039Y0097829D01*
X0134980Y0097816D01*
X0134921Y0097807D01*
X0134860Y0097802D01*
X0134800Y0097800D01*
X0118800Y0097800D01*
X0118740Y0097802D01*
X0118679Y0097807D01*
X0118620Y0097816D01*
X0118561Y0097829D01*
X0118502Y0097845D01*
X0118445Y0097865D01*
X0118390Y0097888D01*
X0118335Y0097915D01*
X0118283Y0097944D01*
X0118232Y0097977D01*
X0118183Y0098013D01*
X0118137Y0098051D01*
X0118093Y0098093D01*
X0118051Y0098137D01*
X0118013Y0098183D01*
X0117977Y0098232D01*
X0117944Y0098283D01*
X0117915Y0098335D01*
X0117888Y0098390D01*
X0117865Y0098445D01*
X0117845Y0098502D01*
X0117829Y0098561D01*
X0117816Y0098620D01*
X0117807Y0098679D01*
X0117802Y0098740D01*
X0117800Y0098800D01*
X0117800Y0104800D01*
X0117802Y0104860D01*
X0117807Y0104921D01*
X0117816Y0104980D01*
X0117829Y0105039D01*
X0117845Y0105098D01*
X0117865Y0105155D01*
X0117888Y0105210D01*
X0117915Y0105265D01*
X0117944Y0105317D01*
X0117977Y0105368D01*
X0118013Y0105417D01*
X0118051Y0105463D01*
X0118093Y0105507D01*
X0118137Y0105549D01*
X0118183Y0105587D01*
X0118232Y0105623D01*
X0118283Y0105656D01*
X0118335Y0105685D01*
X0118390Y0105712D01*
X0118445Y0105735D01*
X0118502Y0105755D01*
X0118561Y0105771D01*
X0118620Y0105784D01*
X0118679Y0105793D01*
X0118740Y0105798D01*
X0118800Y0105800D01*
X0134800Y0105800D01*
X0134860Y0105798D01*
X0134921Y0105793D01*
X0134980Y0105784D01*
X0135039Y0105771D01*
X0135098Y0105755D01*
X0135155Y0105735D01*
X0135210Y0105712D01*
X0135265Y0105685D01*
X0135317Y0105656D01*
X0135368Y0105623D01*
X0135417Y0105587D01*
X0135463Y0105549D01*
X0135507Y0105507D01*
X0135549Y0105463D01*
X0135587Y0105417D01*
X0135623Y0105368D01*
X0135656Y0105317D01*
X0135685Y0105265D01*
X0135712Y0105210D01*
X0135735Y0105155D01*
X0135755Y0105098D01*
X0135771Y0105039D01*
X0135784Y0104980D01*
X0135793Y0104921D01*
X0135798Y0104860D01*
X0135800Y0104800D01*
X0134800Y0107800D02*
X0118800Y0107800D01*
X0118740Y0107802D01*
X0118679Y0107807D01*
X0118620Y0107816D01*
X0118561Y0107829D01*
X0118502Y0107845D01*
X0118445Y0107865D01*
X0118390Y0107888D01*
X0118335Y0107915D01*
X0118283Y0107944D01*
X0118232Y0107977D01*
X0118183Y0108013D01*
X0118137Y0108051D01*
X0118093Y0108093D01*
X0118051Y0108137D01*
X0118013Y0108183D01*
X0117977Y0108232D01*
X0117944Y0108283D01*
X0117915Y0108335D01*
X0117888Y0108390D01*
X0117865Y0108445D01*
X0117845Y0108502D01*
X0117829Y0108561D01*
X0117816Y0108620D01*
X0117807Y0108679D01*
X0117802Y0108740D01*
X0117800Y0108800D01*
X0117800Y0114800D01*
X0117802Y0114860D01*
X0117807Y0114921D01*
X0117816Y0114980D01*
X0117829Y0115039D01*
X0117845Y0115098D01*
X0117865Y0115155D01*
X0117888Y0115210D01*
X0117915Y0115265D01*
X0117944Y0115317D01*
X0117977Y0115368D01*
X0118013Y0115417D01*
X0118051Y0115463D01*
X0118093Y0115507D01*
X0118137Y0115549D01*
X0118183Y0115587D01*
X0118232Y0115623D01*
X0118283Y0115656D01*
X0118335Y0115685D01*
X0118390Y0115712D01*
X0118445Y0115735D01*
X0118502Y0115755D01*
X0118561Y0115771D01*
X0118620Y0115784D01*
X0118679Y0115793D01*
X0118740Y0115798D01*
X0118800Y0115800D01*
X0134800Y0115800D01*
X0134860Y0115798D01*
X0134921Y0115793D01*
X0134980Y0115784D01*
X0135039Y0115771D01*
X0135098Y0115755D01*
X0135155Y0115735D01*
X0135210Y0115712D01*
X0135265Y0115685D01*
X0135317Y0115656D01*
X0135368Y0115623D01*
X0135417Y0115587D01*
X0135463Y0115549D01*
X0135507Y0115507D01*
X0135549Y0115463D01*
X0135587Y0115417D01*
X0135623Y0115368D01*
X0135656Y0115317D01*
X0135685Y0115265D01*
X0135712Y0115210D01*
X0135735Y0115155D01*
X0135755Y0115098D01*
X0135771Y0115039D01*
X0135784Y0114980D01*
X0135793Y0114921D01*
X0135798Y0114860D01*
X0135800Y0114800D01*
X0135800Y0108800D01*
X0135798Y0108740D01*
X0135793Y0108679D01*
X0135784Y0108620D01*
X0135771Y0108561D01*
X0135755Y0108502D01*
X0135735Y0108445D01*
X0135712Y0108390D01*
X0135685Y0108335D01*
X0135656Y0108283D01*
X0135623Y0108232D01*
X0135587Y0108183D01*
X0135549Y0108137D01*
X0135507Y0108093D01*
X0135463Y0108051D01*
X0135417Y0108013D01*
X0135368Y0107977D01*
X0135317Y0107944D01*
X0135265Y0107915D01*
X0135210Y0107888D01*
X0135155Y0107865D01*
X0135098Y0107845D01*
X0135039Y0107829D01*
X0134980Y0107816D01*
X0134921Y0107807D01*
X0134860Y0107802D01*
X0134800Y0107800D01*
X0131600Y0110000D02*
X0129798Y0110000D01*
X0129198Y0110601D01*
X0129198Y0113003D01*
X0129798Y0113603D01*
X0131600Y0113603D01*
X0131600Y0110000D01*
X0127917Y0110000D02*
X0125515Y0112402D01*
X0125515Y0113003D01*
X0126115Y0113603D01*
X0127316Y0113603D01*
X0127917Y0113003D01*
X0127917Y0110000D02*
X0125515Y0110000D01*
X0124082Y0103603D02*
X0124082Y0100000D01*
X0125283Y0100000D02*
X0122881Y0100000D01*
X0125283Y0102402D02*
X0124082Y0103603D01*
X0126564Y0103003D02*
X0127165Y0103603D01*
X0128966Y0103603D01*
X0128966Y0100000D01*
X0127165Y0100000D01*
X0126564Y0100601D01*
X0126564Y0103003D01*
X0123515Y0090590D02*
X0121964Y0090590D01*
X0121446Y0090073D01*
X0121446Y0089039D01*
X0121964Y0088522D01*
X0123515Y0088522D01*
X0123515Y0087488D02*
X0123515Y0090590D01*
X0122481Y0088522D02*
X0121446Y0087488D01*
X0120292Y0088005D02*
X0119775Y0087488D01*
X0118741Y0087488D01*
X0118224Y0088005D01*
X0118224Y0088522D01*
X0118741Y0089039D01*
X0119258Y0089039D01*
X0118741Y0089039D02*
X0118224Y0089556D01*
X0118224Y0090073D01*
X0118741Y0090590D01*
X0119775Y0090590D01*
X0120292Y0090073D01*
X0100590Y0100085D02*
X0100590Y0101636D01*
X0100073Y0102154D01*
X0099039Y0102154D01*
X0098522Y0101636D01*
X0098522Y0100085D01*
X0097488Y0100085D02*
X0100590Y0100085D01*
X0098522Y0101119D02*
X0097488Y0102154D01*
X0098005Y0103308D02*
X0097488Y0103825D01*
X0097488Y0104859D01*
X0098005Y0105376D01*
X0098522Y0105376D01*
X0099039Y0104859D01*
X0099039Y0103308D01*
X0098005Y0103308D01*
X0099039Y0103308D02*
X0100073Y0104342D01*
X0100590Y0105376D01*
X0090590Y0104859D02*
X0090590Y0103825D01*
X0090073Y0103308D01*
X0090073Y0102154D02*
X0089039Y0102154D01*
X0088522Y0101636D01*
X0088522Y0100085D01*
X0087488Y0100085D02*
X0090590Y0100085D01*
X0090590Y0101636D01*
X0090073Y0102154D01*
X0088522Y0101119D02*
X0087488Y0102154D01*
X0087488Y0103308D02*
X0089556Y0105376D01*
X0090073Y0105376D01*
X0090590Y0104859D01*
X0087488Y0105376D02*
X0087488Y0103308D01*
X0080590Y0104859D02*
X0079039Y0103308D01*
X0079039Y0105376D01*
X0077488Y0104859D02*
X0080590Y0104859D01*
X0080073Y0102154D02*
X0079039Y0102154D01*
X0078522Y0101636D01*
X0078522Y0100085D01*
X0077488Y0100085D02*
X0080590Y0100085D01*
X0080590Y0101636D01*
X0080073Y0102154D01*
X0078522Y0101119D02*
X0077488Y0102154D01*
D13*
X0081495Y0098048D02*
X0083497Y0096046D01*
X0082830Y0095379D02*
X0085499Y0098048D01*
X0085499Y0095379D02*
X0081495Y0095379D01*
X0081495Y0093904D02*
X0081495Y0091235D01*
X0084164Y0093904D01*
X0084832Y0093904D01*
X0085499Y0093237D01*
X0085499Y0091903D01*
X0084832Y0091235D01*
X0082163Y0089831D02*
X0081495Y0089831D01*
X0081495Y0089164D01*
X0082163Y0089164D01*
X0082163Y0089831D01*
X0081495Y0087689D02*
X0081495Y0085020D01*
X0084164Y0085020D02*
X0085499Y0086355D01*
X0081495Y0086355D01*
X0091495Y0087689D02*
X0091495Y0085020D01*
X0094164Y0087689D01*
X0094832Y0087689D01*
X0095499Y0087022D01*
X0095499Y0085687D01*
X0094832Y0085020D01*
X0101495Y0085020D02*
X0101495Y0087689D01*
X0101495Y0086355D02*
X0105499Y0086355D01*
X0104164Y0085020D01*
X0104832Y0089164D02*
X0102163Y0089164D01*
X0104832Y0091833D01*
X0102163Y0091833D01*
X0101495Y0091165D01*
X0101495Y0089831D01*
X0102163Y0089164D01*
X0104832Y0089164D02*
X0105499Y0089831D01*
X0105499Y0091165D01*
X0104832Y0091833D01*
X0105499Y0093307D02*
X0101495Y0093307D01*
X0102830Y0093307D02*
X0104164Y0095309D01*
X0102830Y0093307D02*
X0101495Y0095309D01*
X0095499Y0095309D02*
X0095499Y0093974D01*
X0094832Y0093307D01*
X0092163Y0093307D01*
X0094832Y0095976D01*
X0092163Y0095976D01*
X0091495Y0095309D01*
X0091495Y0093974D01*
X0092163Y0093307D01*
X0091495Y0091833D02*
X0091495Y0089164D01*
X0094164Y0091833D01*
X0094832Y0091833D01*
X0095499Y0091165D01*
X0095499Y0089831D01*
X0094832Y0089164D01*
X0095499Y0095309D02*
X0094832Y0095976D01*
X0095499Y0097451D02*
X0095499Y0099452D01*
X0094832Y0100120D01*
X0093497Y0100120D01*
X0092830Y0099452D01*
X0092830Y0097451D01*
X0092830Y0098785D02*
X0091495Y0100120D01*
X0091495Y0097451D02*
X0095499Y0097451D01*
X0124148Y0094164D02*
X0126149Y0092830D01*
X0124148Y0091495D01*
X0126149Y0091495D02*
X0126149Y0095499D01*
X0127624Y0094832D02*
X0130293Y0092163D01*
X0129626Y0091495D01*
X0128291Y0091495D01*
X0127624Y0092163D01*
X0127624Y0094832D01*
X0128291Y0095499D01*
X0129626Y0095499D01*
X0130293Y0094832D01*
X0130293Y0092163D01*
X0131767Y0092163D02*
X0132435Y0091495D01*
X0133769Y0091495D01*
X0134436Y0092163D01*
X0131767Y0094832D01*
X0131767Y0092163D01*
X0134436Y0092163D02*
X0134436Y0094832D01*
X0133769Y0095499D01*
X0132435Y0095499D01*
X0131767Y0094832D01*
X0135911Y0091495D02*
X0138580Y0091495D01*
X0137245Y0091495D02*
X0137245Y0095499D01*
X0138580Y0094164D01*
X0153471Y0098105D02*
X0155473Y0099439D01*
X0153471Y0100774D01*
X0155473Y0102108D02*
X0155473Y0098105D01*
X0156948Y0098105D02*
X0159617Y0098105D01*
X0158282Y0098105D02*
X0158282Y0102108D01*
X0159617Y0100774D01*
X0160605Y0077629D02*
X0161939Y0075627D01*
X0163274Y0077629D01*
X0164608Y0075627D02*
X0160605Y0075627D01*
X0161272Y0074152D02*
X0160605Y0073485D01*
X0160605Y0072151D01*
X0161272Y0071483D01*
X0163941Y0074152D01*
X0161272Y0074152D01*
X0163941Y0074152D02*
X0164608Y0073485D01*
X0164608Y0072151D01*
X0163941Y0071483D01*
X0161272Y0071483D01*
X0160605Y0070009D02*
X0160605Y0067340D01*
X0160605Y0068674D02*
X0164608Y0068674D01*
X0163274Y0067340D01*
X0170605Y0068007D02*
X0171272Y0067340D01*
X0170605Y0068007D02*
X0170605Y0069342D01*
X0171272Y0070009D01*
X0172606Y0070009D01*
X0173274Y0069342D01*
X0173274Y0068674D01*
X0172606Y0067340D01*
X0174608Y0067340D01*
X0174608Y0070009D01*
X0172606Y0071483D02*
X0172606Y0073485D01*
X0171939Y0074152D01*
X0171272Y0074152D01*
X0170605Y0073485D01*
X0170605Y0072151D01*
X0171272Y0071483D01*
X0172606Y0071483D01*
X0173941Y0072818D01*
X0174608Y0074152D01*
X0174608Y0075627D02*
X0170605Y0075627D01*
X0171939Y0075627D02*
X0170605Y0077629D01*
X0171939Y0075627D02*
X0173274Y0077629D01*
X0154608Y0075627D02*
X0150605Y0075627D01*
X0151939Y0075627D02*
X0150605Y0077629D01*
X0151939Y0075627D02*
X0153274Y0077629D01*
X0153274Y0074152D02*
X0153941Y0074152D01*
X0154608Y0073485D01*
X0154608Y0072151D01*
X0153941Y0071483D01*
X0151272Y0070079D02*
X0150605Y0070079D01*
X0150605Y0069412D01*
X0151272Y0069412D01*
X0151272Y0070079D01*
X0150605Y0071483D02*
X0153274Y0074152D01*
X0150605Y0074152D02*
X0150605Y0071483D01*
X0150605Y0067937D02*
X0150605Y0065268D01*
X0153274Y0067937D01*
X0153941Y0067937D01*
X0154608Y0067270D01*
X0154608Y0065935D01*
X0153941Y0065268D01*
X0144608Y0065935D02*
X0143941Y0065268D01*
X0144608Y0065935D02*
X0144608Y0067270D01*
X0143941Y0067937D01*
X0143274Y0067937D01*
X0140605Y0065268D01*
X0140605Y0067937D01*
X0140605Y0069412D02*
X0140605Y0070079D01*
X0141272Y0070079D01*
X0141272Y0069412D01*
X0140605Y0069412D01*
X0140605Y0071483D02*
X0143274Y0074152D01*
X0143941Y0074152D01*
X0144608Y0073485D01*
X0144608Y0072151D01*
X0143941Y0071483D01*
X0140605Y0071483D02*
X0140605Y0074152D01*
X0140605Y0075627D02*
X0144608Y0075627D01*
X0143274Y0077629D02*
X0141939Y0075627D01*
X0140605Y0077629D01*
X0133274Y0076938D02*
X0132606Y0077605D01*
X0130605Y0077605D01*
X0130605Y0076271D02*
X0132606Y0076271D01*
X0133274Y0076938D01*
X0132606Y0076271D02*
X0133274Y0075604D01*
X0133274Y0074936D01*
X0130605Y0074936D01*
X0130605Y0073462D02*
X0130605Y0070793D01*
X0130605Y0072127D02*
X0134608Y0072127D01*
X0133274Y0070793D01*
X0124608Y0071460D02*
X0124608Y0072795D01*
X0123941Y0073462D01*
X0121272Y0070793D01*
X0120605Y0071460D01*
X0120605Y0072795D01*
X0121272Y0073462D01*
X0123941Y0073462D01*
X0124608Y0074936D02*
X0124608Y0076938D01*
X0123941Y0077605D01*
X0122606Y0077605D01*
X0121939Y0076938D01*
X0121939Y0074936D01*
X0120605Y0074936D02*
X0124608Y0074936D01*
X0121939Y0076271D02*
X0120605Y0077605D01*
X0121272Y0070793D02*
X0123941Y0070793D01*
X0124608Y0071460D01*
X0123941Y0069318D02*
X0124608Y0068651D01*
X0124608Y0067316D01*
X0123941Y0066649D01*
X0123941Y0065175D02*
X0124608Y0064507D01*
X0124608Y0063173D01*
X0123941Y0062506D01*
X0123941Y0065175D02*
X0123274Y0065175D01*
X0120605Y0062506D01*
X0120605Y0065175D01*
X0120605Y0066649D02*
X0123274Y0069318D01*
X0123941Y0069318D01*
X0120605Y0069318D02*
X0120605Y0066649D01*
X0116800Y0038300D02*
X0116800Y0030800D01*
X0045513Y0010646D02*
X0045513Y0009395D01*
X0043011Y0009395D01*
X0043011Y0010646D01*
X0043428Y0011063D01*
X0045096Y0011063D01*
X0045513Y0010646D01*
X0045513Y0008301D02*
X0043011Y0008301D01*
X0045513Y0006633D01*
X0043011Y0006633D01*
X0043428Y0005538D02*
X0044262Y0005538D01*
X0044262Y0004704D01*
X0045096Y0003870D02*
X0043428Y0003870D01*
X0043011Y0004287D01*
X0043011Y0005121D01*
X0043428Y0005538D01*
X0045096Y0005538D02*
X0045513Y0005121D01*
X0045513Y0004287D01*
X0045096Y0003870D01*
X0035586Y0004180D02*
X0035169Y0003763D01*
X0033501Y0003763D01*
X0033084Y0004180D01*
X0033084Y0005014D01*
X0033501Y0005431D01*
X0034335Y0005431D01*
X0034335Y0004597D01*
X0035169Y0005431D02*
X0035586Y0005014D01*
X0035586Y0004180D01*
X0035586Y0006525D02*
X0033084Y0006525D01*
X0033084Y0008193D02*
X0035586Y0008193D01*
X0035586Y0009288D02*
X0033084Y0009288D01*
X0033084Y0010539D01*
X0033501Y0010956D01*
X0035169Y0010956D01*
X0035586Y0010539D01*
X0035586Y0009288D01*
X0033084Y0008193D02*
X0035586Y0006525D01*
X0025659Y0006418D02*
X0023157Y0008086D01*
X0025659Y0008086D01*
X0025659Y0009180D02*
X0023157Y0009180D01*
X0023157Y0010431D01*
X0023574Y0010848D01*
X0025242Y0010848D01*
X0025659Y0010431D01*
X0025659Y0009180D01*
X0025659Y0006418D02*
X0023157Y0006418D01*
X0023574Y0005324D02*
X0024408Y0005324D01*
X0024408Y0004490D01*
X0025242Y0005324D02*
X0025659Y0004907D01*
X0025659Y0004073D01*
X0025242Y0003655D01*
X0023574Y0003655D01*
X0023157Y0004073D01*
X0023157Y0004907D01*
X0023574Y0005324D01*
D14*
X0014301Y0006725D02*
X0014301Y0010128D01*
X0053859Y0009457D02*
X0057262Y0009457D01*
X0055561Y0007756D02*
X0055561Y0011159D01*
D15*
X0120300Y0101800D03*
X0133300Y0111800D03*
D16*
X0137050Y0111800D03*
X0137050Y0101800D03*
X0116550Y0101800D03*
X0116550Y0111800D03*
M02*
