G75*
%MOIN*%
%OFA0B0*%
%FSLAX25Y25*%
%IPPOS*%
%LPD*%
%AMOC8*
5,1,8,0,0,1.08239X$1,22.5*
%
%ADD10C,0.01100*%
%ADD11C,0.00400*%
%ADD12C,0.00800*%
%ADD13C,0.00300*%
%ADD14C,0.00600*%
%ADD15R,0.02000X0.10000*%
%ADD16R,0.07500X0.03000*%
%ADD17C,0.00500*%
D10*
X0188829Y0070764D02*
X0192766Y0070764D01*
X0190797Y0072732D02*
X0190797Y0068795D01*
X0190797Y0066287D02*
X0190797Y0062350D01*
D11*
X0194798Y0044961D02*
X0196600Y0042559D01*
X0195399Y0041278D02*
X0195399Y0038876D01*
X0195999Y0038876D02*
X0194798Y0038876D01*
X0194198Y0039477D01*
X0194198Y0040678D01*
X0194798Y0041278D01*
X0195399Y0041278D01*
X0196600Y0040678D02*
X0196600Y0039477D01*
X0195999Y0038876D01*
X0194198Y0037608D02*
X0194198Y0037008D01*
X0195399Y0035807D01*
X0196600Y0035807D02*
X0194198Y0035807D01*
X0194198Y0033952D02*
X0196600Y0033952D01*
X0196600Y0034552D02*
X0196600Y0033351D01*
X0195999Y0032070D02*
X0194198Y0032070D01*
X0194198Y0033351D02*
X0194198Y0033952D01*
X0192997Y0033952D02*
X0192396Y0033952D01*
X0195999Y0032070D02*
X0196600Y0031470D01*
X0195999Y0030869D01*
X0196600Y0030269D01*
X0195999Y0029668D01*
X0194198Y0029668D01*
X0194198Y0024704D02*
X0194198Y0022902D01*
X0194798Y0022302D01*
X0195999Y0022302D01*
X0196600Y0022902D01*
X0196600Y0024704D01*
X0192997Y0024704D01*
X0194798Y0021021D02*
X0196600Y0021021D01*
X0194798Y0021021D02*
X0194198Y0020420D01*
X0194198Y0018619D01*
X0196600Y0018619D01*
X0196600Y0017338D02*
X0194198Y0017338D01*
X0196600Y0017338D02*
X0196600Y0015536D01*
X0195999Y0014936D01*
X0194198Y0014936D01*
X0194798Y0013654D02*
X0194198Y0013054D01*
X0194198Y0011853D01*
X0194798Y0011252D01*
X0195999Y0011252D01*
X0196600Y0011853D01*
X0196600Y0013054D01*
X0195999Y0013654D01*
X0194798Y0013654D01*
X0194198Y0009985D02*
X0194198Y0009384D01*
X0195399Y0008183D01*
X0196600Y0008183D02*
X0194198Y0008183D01*
X0194798Y0006902D02*
X0194798Y0005701D01*
X0194798Y0006902D02*
X0195999Y0006902D01*
X0196600Y0006302D01*
X0196600Y0005101D01*
X0195999Y0004500D01*
X0193597Y0004500D01*
X0192997Y0005101D01*
X0192997Y0006302D01*
X0193597Y0006902D01*
X0192997Y0042559D02*
X0194798Y0044961D01*
X0194798Y0089500D02*
X0196600Y0091902D01*
X0196600Y0093183D02*
X0196600Y0095585D01*
X0196600Y0096866D02*
X0196600Y0098067D01*
X0196600Y0097467D02*
X0194198Y0097467D01*
X0194198Y0096866D01*
X0192997Y0097467D02*
X0192396Y0097467D01*
X0194198Y0099322D02*
X0196600Y0100523D01*
X0194198Y0101724D01*
X0194798Y0103005D02*
X0194198Y0103605D01*
X0194198Y0104806D01*
X0194798Y0105407D01*
X0195399Y0105407D01*
X0195399Y0103005D01*
X0195999Y0103005D02*
X0194798Y0103005D01*
X0195999Y0103005D02*
X0196600Y0103605D01*
X0196600Y0104806D01*
X0196600Y0093183D02*
X0192997Y0093183D01*
X0192997Y0091902D02*
X0194798Y0089500D01*
X0087504Y0042128D02*
X0085102Y0042128D01*
X0085102Y0038525D01*
X0087504Y0038525D01*
X0086303Y0040327D02*
X0085102Y0040327D01*
X0083821Y0039726D02*
X0083821Y0039126D01*
X0083220Y0038525D01*
X0082019Y0038525D01*
X0081419Y0039126D01*
X0080138Y0039126D02*
X0080138Y0042128D01*
X0081419Y0041528D02*
X0081419Y0040927D01*
X0082019Y0040327D01*
X0083220Y0040327D01*
X0083821Y0039726D01*
X0083821Y0041528D02*
X0083220Y0042128D01*
X0082019Y0042128D01*
X0081419Y0041528D01*
X0080138Y0039126D02*
X0079537Y0038525D01*
X0078336Y0038525D01*
X0077736Y0039126D01*
X0077736Y0042128D01*
X0076454Y0042128D02*
X0074052Y0042128D01*
X0074052Y0038525D01*
X0074052Y0040327D02*
X0075253Y0040327D01*
X0076402Y0012103D02*
X0074000Y0012103D01*
X0074000Y0008500D01*
X0074000Y0010302D02*
X0075201Y0010302D01*
X0077683Y0009101D02*
X0078284Y0008500D01*
X0079485Y0008500D01*
X0080085Y0009101D01*
X0080085Y0012103D01*
X0081366Y0011503D02*
X0081366Y0010902D01*
X0081967Y0010302D01*
X0083168Y0010302D01*
X0083768Y0009701D01*
X0083768Y0009101D01*
X0083168Y0008500D01*
X0081967Y0008500D01*
X0081366Y0009101D01*
X0081366Y0011503D02*
X0081967Y0012103D01*
X0083168Y0012103D01*
X0083768Y0011503D01*
X0085049Y0012103D02*
X0085049Y0008500D01*
X0087451Y0008500D01*
X0086250Y0010302D02*
X0085049Y0010302D01*
X0085049Y0012103D02*
X0087451Y0012103D01*
X0077683Y0012103D02*
X0077683Y0009101D01*
D12*
X0086300Y0017300D02*
X0086300Y0021300D01*
X0081957Y0024300D02*
X0081960Y0024542D01*
X0081969Y0024783D01*
X0081984Y0025024D01*
X0082004Y0025265D01*
X0082031Y0025505D01*
X0082064Y0025744D01*
X0082102Y0025983D01*
X0082146Y0026220D01*
X0082196Y0026457D01*
X0082252Y0026692D01*
X0082314Y0026925D01*
X0082381Y0027157D01*
X0082454Y0027388D01*
X0082532Y0027616D01*
X0082617Y0027842D01*
X0082706Y0028067D01*
X0082801Y0028289D01*
X0082902Y0028508D01*
X0083008Y0028726D01*
X0083119Y0028940D01*
X0083236Y0029152D01*
X0083357Y0029360D01*
X0083484Y0029566D01*
X0083616Y0029768D01*
X0083753Y0029968D01*
X0083894Y0030163D01*
X0084040Y0030356D01*
X0084191Y0030544D01*
X0084347Y0030729D01*
X0084507Y0030910D01*
X0084671Y0031087D01*
X0084840Y0031260D01*
X0085013Y0031429D01*
X0085190Y0031593D01*
X0085371Y0031753D01*
X0085556Y0031909D01*
X0085744Y0032060D01*
X0085937Y0032206D01*
X0086132Y0032347D01*
X0086332Y0032484D01*
X0086534Y0032616D01*
X0086740Y0032743D01*
X0086948Y0032864D01*
X0087160Y0032981D01*
X0087374Y0033092D01*
X0087592Y0033198D01*
X0087811Y0033299D01*
X0088033Y0033394D01*
X0088258Y0033483D01*
X0088484Y0033568D01*
X0088712Y0033646D01*
X0088943Y0033719D01*
X0089175Y0033786D01*
X0089408Y0033848D01*
X0089643Y0033904D01*
X0089880Y0033954D01*
X0090117Y0033998D01*
X0090356Y0034036D01*
X0090595Y0034069D01*
X0090835Y0034096D01*
X0091076Y0034116D01*
X0091317Y0034131D01*
X0091558Y0034140D01*
X0091800Y0034143D01*
X0092042Y0034140D01*
X0092283Y0034131D01*
X0092524Y0034116D01*
X0092765Y0034096D01*
X0093005Y0034069D01*
X0093244Y0034036D01*
X0093483Y0033998D01*
X0093720Y0033954D01*
X0093957Y0033904D01*
X0094192Y0033848D01*
X0094425Y0033786D01*
X0094657Y0033719D01*
X0094888Y0033646D01*
X0095116Y0033568D01*
X0095342Y0033483D01*
X0095567Y0033394D01*
X0095789Y0033299D01*
X0096008Y0033198D01*
X0096226Y0033092D01*
X0096440Y0032981D01*
X0096652Y0032864D01*
X0096860Y0032743D01*
X0097066Y0032616D01*
X0097268Y0032484D01*
X0097468Y0032347D01*
X0097663Y0032206D01*
X0097856Y0032060D01*
X0098044Y0031909D01*
X0098229Y0031753D01*
X0098410Y0031593D01*
X0098587Y0031429D01*
X0098760Y0031260D01*
X0098929Y0031087D01*
X0099093Y0030910D01*
X0099253Y0030729D01*
X0099409Y0030544D01*
X0099560Y0030356D01*
X0099706Y0030163D01*
X0099847Y0029968D01*
X0099984Y0029768D01*
X0100116Y0029566D01*
X0100243Y0029360D01*
X0100364Y0029152D01*
X0100481Y0028940D01*
X0100592Y0028726D01*
X0100698Y0028508D01*
X0100799Y0028289D01*
X0100894Y0028067D01*
X0100983Y0027842D01*
X0101068Y0027616D01*
X0101146Y0027388D01*
X0101219Y0027157D01*
X0101286Y0026925D01*
X0101348Y0026692D01*
X0101404Y0026457D01*
X0101454Y0026220D01*
X0101498Y0025983D01*
X0101536Y0025744D01*
X0101569Y0025505D01*
X0101596Y0025265D01*
X0101616Y0025024D01*
X0101631Y0024783D01*
X0101640Y0024542D01*
X0101643Y0024300D01*
X0101640Y0024058D01*
X0101631Y0023817D01*
X0101616Y0023576D01*
X0101596Y0023335D01*
X0101569Y0023095D01*
X0101536Y0022856D01*
X0101498Y0022617D01*
X0101454Y0022380D01*
X0101404Y0022143D01*
X0101348Y0021908D01*
X0101286Y0021675D01*
X0101219Y0021443D01*
X0101146Y0021212D01*
X0101068Y0020984D01*
X0100983Y0020758D01*
X0100894Y0020533D01*
X0100799Y0020311D01*
X0100698Y0020092D01*
X0100592Y0019874D01*
X0100481Y0019660D01*
X0100364Y0019448D01*
X0100243Y0019240D01*
X0100116Y0019034D01*
X0099984Y0018832D01*
X0099847Y0018632D01*
X0099706Y0018437D01*
X0099560Y0018244D01*
X0099409Y0018056D01*
X0099253Y0017871D01*
X0099093Y0017690D01*
X0098929Y0017513D01*
X0098760Y0017340D01*
X0098587Y0017171D01*
X0098410Y0017007D01*
X0098229Y0016847D01*
X0098044Y0016691D01*
X0097856Y0016540D01*
X0097663Y0016394D01*
X0097468Y0016253D01*
X0097268Y0016116D01*
X0097066Y0015984D01*
X0096860Y0015857D01*
X0096652Y0015736D01*
X0096440Y0015619D01*
X0096226Y0015508D01*
X0096008Y0015402D01*
X0095789Y0015301D01*
X0095567Y0015206D01*
X0095342Y0015117D01*
X0095116Y0015032D01*
X0094888Y0014954D01*
X0094657Y0014881D01*
X0094425Y0014814D01*
X0094192Y0014752D01*
X0093957Y0014696D01*
X0093720Y0014646D01*
X0093483Y0014602D01*
X0093244Y0014564D01*
X0093005Y0014531D01*
X0092765Y0014504D01*
X0092524Y0014484D01*
X0092283Y0014469D01*
X0092042Y0014460D01*
X0091800Y0014457D01*
X0091558Y0014460D01*
X0091317Y0014469D01*
X0091076Y0014484D01*
X0090835Y0014504D01*
X0090595Y0014531D01*
X0090356Y0014564D01*
X0090117Y0014602D01*
X0089880Y0014646D01*
X0089643Y0014696D01*
X0089408Y0014752D01*
X0089175Y0014814D01*
X0088943Y0014881D01*
X0088712Y0014954D01*
X0088484Y0015032D01*
X0088258Y0015117D01*
X0088033Y0015206D01*
X0087811Y0015301D01*
X0087592Y0015402D01*
X0087374Y0015508D01*
X0087160Y0015619D01*
X0086948Y0015736D01*
X0086740Y0015857D01*
X0086534Y0015984D01*
X0086332Y0016116D01*
X0086132Y0016253D01*
X0085937Y0016394D01*
X0085744Y0016540D01*
X0085556Y0016691D01*
X0085371Y0016847D01*
X0085190Y0017007D01*
X0085013Y0017171D01*
X0084840Y0017340D01*
X0084671Y0017513D01*
X0084507Y0017690D01*
X0084347Y0017871D01*
X0084191Y0018056D01*
X0084040Y0018244D01*
X0083894Y0018437D01*
X0083753Y0018632D01*
X0083616Y0018832D01*
X0083484Y0019034D01*
X0083357Y0019240D01*
X0083236Y0019448D01*
X0083119Y0019660D01*
X0083008Y0019874D01*
X0082902Y0020092D01*
X0082801Y0020311D01*
X0082706Y0020533D01*
X0082617Y0020758D01*
X0082532Y0020984D01*
X0082454Y0021212D01*
X0082381Y0021443D01*
X0082314Y0021675D01*
X0082252Y0021908D01*
X0082196Y0022143D01*
X0082146Y0022380D01*
X0082102Y0022617D01*
X0082064Y0022856D01*
X0082031Y0023095D01*
X0082004Y0023335D01*
X0081984Y0023576D01*
X0081969Y0023817D01*
X0081960Y0024058D01*
X0081957Y0024300D01*
X0059457Y0024300D02*
X0059460Y0024542D01*
X0059469Y0024783D01*
X0059484Y0025024D01*
X0059504Y0025265D01*
X0059531Y0025505D01*
X0059564Y0025744D01*
X0059602Y0025983D01*
X0059646Y0026220D01*
X0059696Y0026457D01*
X0059752Y0026692D01*
X0059814Y0026925D01*
X0059881Y0027157D01*
X0059954Y0027388D01*
X0060032Y0027616D01*
X0060117Y0027842D01*
X0060206Y0028067D01*
X0060301Y0028289D01*
X0060402Y0028508D01*
X0060508Y0028726D01*
X0060619Y0028940D01*
X0060736Y0029152D01*
X0060857Y0029360D01*
X0060984Y0029566D01*
X0061116Y0029768D01*
X0061253Y0029968D01*
X0061394Y0030163D01*
X0061540Y0030356D01*
X0061691Y0030544D01*
X0061847Y0030729D01*
X0062007Y0030910D01*
X0062171Y0031087D01*
X0062340Y0031260D01*
X0062513Y0031429D01*
X0062690Y0031593D01*
X0062871Y0031753D01*
X0063056Y0031909D01*
X0063244Y0032060D01*
X0063437Y0032206D01*
X0063632Y0032347D01*
X0063832Y0032484D01*
X0064034Y0032616D01*
X0064240Y0032743D01*
X0064448Y0032864D01*
X0064660Y0032981D01*
X0064874Y0033092D01*
X0065092Y0033198D01*
X0065311Y0033299D01*
X0065533Y0033394D01*
X0065758Y0033483D01*
X0065984Y0033568D01*
X0066212Y0033646D01*
X0066443Y0033719D01*
X0066675Y0033786D01*
X0066908Y0033848D01*
X0067143Y0033904D01*
X0067380Y0033954D01*
X0067617Y0033998D01*
X0067856Y0034036D01*
X0068095Y0034069D01*
X0068335Y0034096D01*
X0068576Y0034116D01*
X0068817Y0034131D01*
X0069058Y0034140D01*
X0069300Y0034143D01*
X0069542Y0034140D01*
X0069783Y0034131D01*
X0070024Y0034116D01*
X0070265Y0034096D01*
X0070505Y0034069D01*
X0070744Y0034036D01*
X0070983Y0033998D01*
X0071220Y0033954D01*
X0071457Y0033904D01*
X0071692Y0033848D01*
X0071925Y0033786D01*
X0072157Y0033719D01*
X0072388Y0033646D01*
X0072616Y0033568D01*
X0072842Y0033483D01*
X0073067Y0033394D01*
X0073289Y0033299D01*
X0073508Y0033198D01*
X0073726Y0033092D01*
X0073940Y0032981D01*
X0074152Y0032864D01*
X0074360Y0032743D01*
X0074566Y0032616D01*
X0074768Y0032484D01*
X0074968Y0032347D01*
X0075163Y0032206D01*
X0075356Y0032060D01*
X0075544Y0031909D01*
X0075729Y0031753D01*
X0075910Y0031593D01*
X0076087Y0031429D01*
X0076260Y0031260D01*
X0076429Y0031087D01*
X0076593Y0030910D01*
X0076753Y0030729D01*
X0076909Y0030544D01*
X0077060Y0030356D01*
X0077206Y0030163D01*
X0077347Y0029968D01*
X0077484Y0029768D01*
X0077616Y0029566D01*
X0077743Y0029360D01*
X0077864Y0029152D01*
X0077981Y0028940D01*
X0078092Y0028726D01*
X0078198Y0028508D01*
X0078299Y0028289D01*
X0078394Y0028067D01*
X0078483Y0027842D01*
X0078568Y0027616D01*
X0078646Y0027388D01*
X0078719Y0027157D01*
X0078786Y0026925D01*
X0078848Y0026692D01*
X0078904Y0026457D01*
X0078954Y0026220D01*
X0078998Y0025983D01*
X0079036Y0025744D01*
X0079069Y0025505D01*
X0079096Y0025265D01*
X0079116Y0025024D01*
X0079131Y0024783D01*
X0079140Y0024542D01*
X0079143Y0024300D01*
X0079140Y0024058D01*
X0079131Y0023817D01*
X0079116Y0023576D01*
X0079096Y0023335D01*
X0079069Y0023095D01*
X0079036Y0022856D01*
X0078998Y0022617D01*
X0078954Y0022380D01*
X0078904Y0022143D01*
X0078848Y0021908D01*
X0078786Y0021675D01*
X0078719Y0021443D01*
X0078646Y0021212D01*
X0078568Y0020984D01*
X0078483Y0020758D01*
X0078394Y0020533D01*
X0078299Y0020311D01*
X0078198Y0020092D01*
X0078092Y0019874D01*
X0077981Y0019660D01*
X0077864Y0019448D01*
X0077743Y0019240D01*
X0077616Y0019034D01*
X0077484Y0018832D01*
X0077347Y0018632D01*
X0077206Y0018437D01*
X0077060Y0018244D01*
X0076909Y0018056D01*
X0076753Y0017871D01*
X0076593Y0017690D01*
X0076429Y0017513D01*
X0076260Y0017340D01*
X0076087Y0017171D01*
X0075910Y0017007D01*
X0075729Y0016847D01*
X0075544Y0016691D01*
X0075356Y0016540D01*
X0075163Y0016394D01*
X0074968Y0016253D01*
X0074768Y0016116D01*
X0074566Y0015984D01*
X0074360Y0015857D01*
X0074152Y0015736D01*
X0073940Y0015619D01*
X0073726Y0015508D01*
X0073508Y0015402D01*
X0073289Y0015301D01*
X0073067Y0015206D01*
X0072842Y0015117D01*
X0072616Y0015032D01*
X0072388Y0014954D01*
X0072157Y0014881D01*
X0071925Y0014814D01*
X0071692Y0014752D01*
X0071457Y0014696D01*
X0071220Y0014646D01*
X0070983Y0014602D01*
X0070744Y0014564D01*
X0070505Y0014531D01*
X0070265Y0014504D01*
X0070024Y0014484D01*
X0069783Y0014469D01*
X0069542Y0014460D01*
X0069300Y0014457D01*
X0069058Y0014460D01*
X0068817Y0014469D01*
X0068576Y0014484D01*
X0068335Y0014504D01*
X0068095Y0014531D01*
X0067856Y0014564D01*
X0067617Y0014602D01*
X0067380Y0014646D01*
X0067143Y0014696D01*
X0066908Y0014752D01*
X0066675Y0014814D01*
X0066443Y0014881D01*
X0066212Y0014954D01*
X0065984Y0015032D01*
X0065758Y0015117D01*
X0065533Y0015206D01*
X0065311Y0015301D01*
X0065092Y0015402D01*
X0064874Y0015508D01*
X0064660Y0015619D01*
X0064448Y0015736D01*
X0064240Y0015857D01*
X0064034Y0015984D01*
X0063832Y0016116D01*
X0063632Y0016253D01*
X0063437Y0016394D01*
X0063244Y0016540D01*
X0063056Y0016691D01*
X0062871Y0016847D01*
X0062690Y0017007D01*
X0062513Y0017171D01*
X0062340Y0017340D01*
X0062171Y0017513D01*
X0062007Y0017690D01*
X0061847Y0017871D01*
X0061691Y0018056D01*
X0061540Y0018244D01*
X0061394Y0018437D01*
X0061253Y0018632D01*
X0061116Y0018832D01*
X0060984Y0019034D01*
X0060857Y0019240D01*
X0060736Y0019448D01*
X0060619Y0019660D01*
X0060508Y0019874D01*
X0060402Y0020092D01*
X0060301Y0020311D01*
X0060206Y0020533D01*
X0060117Y0020758D01*
X0060032Y0020984D01*
X0059954Y0021212D01*
X0059881Y0021443D01*
X0059814Y0021675D01*
X0059752Y0021908D01*
X0059696Y0022143D01*
X0059646Y0022380D01*
X0059602Y0022617D01*
X0059564Y0022856D01*
X0059531Y0023095D01*
X0059504Y0023335D01*
X0059484Y0023576D01*
X0059469Y0023817D01*
X0059460Y0024058D01*
X0059457Y0024300D01*
X0063800Y0021300D02*
X0063800Y0017300D01*
X0101800Y0046800D02*
X0104300Y0044300D01*
X0109300Y0044300D01*
X0111800Y0046800D01*
X0111800Y0051800D01*
X0109300Y0054300D01*
X0111800Y0056800D01*
X0111800Y0061800D01*
X0109300Y0064300D01*
X0111800Y0066800D01*
X0111800Y0071800D01*
X0109300Y0074300D01*
X0104300Y0074300D01*
X0101800Y0071800D01*
X0101800Y0066800D01*
X0104300Y0064300D01*
X0101800Y0061800D01*
X0101800Y0056800D01*
X0104300Y0054300D01*
X0101800Y0051800D01*
X0101800Y0046800D01*
X0086800Y0054300D02*
X0086800Y0059300D01*
X0084300Y0061800D01*
X0086800Y0064300D01*
X0086800Y0069300D01*
X0084300Y0071800D01*
X0079300Y0071800D01*
X0076800Y0069300D01*
X0076800Y0064300D01*
X0079300Y0061800D01*
X0076800Y0059300D01*
X0076800Y0054300D01*
X0079300Y0051800D01*
X0084300Y0051800D01*
X0086800Y0054300D01*
D13*
X0095947Y0029234D02*
X0096564Y0028617D01*
X0099650Y0028617D01*
X0099650Y0026785D02*
X0097181Y0026785D01*
X0097798Y0027999D02*
X0097798Y0029234D01*
X0099650Y0026785D02*
X0099650Y0024933D01*
X0099033Y0024316D01*
X0097181Y0024316D01*
X0096564Y0023102D02*
X0099033Y0020633D01*
X0099650Y0021250D01*
X0099650Y0022485D01*
X0099033Y0023102D01*
X0096564Y0023102D01*
X0095947Y0022485D01*
X0095947Y0021250D01*
X0096564Y0020633D01*
X0099033Y0020633D01*
X0099650Y0019419D02*
X0099650Y0016950D01*
X0099650Y0018184D02*
X0095947Y0018184D01*
X0097181Y0016950D01*
X0088150Y0023067D02*
X0088150Y0024302D01*
X0087533Y0024919D01*
X0088150Y0026133D02*
X0085681Y0028602D01*
X0085064Y0028602D01*
X0084447Y0027985D01*
X0084447Y0026750D01*
X0085064Y0026133D01*
X0085064Y0024919D02*
X0084447Y0024302D01*
X0084447Y0023067D01*
X0085064Y0022450D01*
X0087533Y0022450D01*
X0088150Y0023067D01*
X0088150Y0026133D02*
X0088150Y0028602D01*
X0077150Y0028617D02*
X0074064Y0028617D01*
X0073447Y0029234D01*
X0075298Y0029234D02*
X0075298Y0027999D01*
X0074681Y0026785D02*
X0077150Y0026785D01*
X0077150Y0024933D01*
X0076533Y0024316D01*
X0074681Y0024316D01*
X0074064Y0023102D02*
X0076533Y0020633D01*
X0077150Y0021250D01*
X0077150Y0022485D01*
X0076533Y0023102D01*
X0074064Y0023102D01*
X0073447Y0022485D01*
X0073447Y0021250D01*
X0074064Y0020633D01*
X0076533Y0020633D01*
X0077150Y0019419D02*
X0077150Y0016950D01*
X0077150Y0018184D02*
X0073447Y0018184D01*
X0074681Y0016950D01*
X0065150Y0022567D02*
X0065150Y0023802D01*
X0064533Y0024419D01*
X0065150Y0025633D02*
X0065150Y0028102D01*
X0065150Y0026868D02*
X0061447Y0026868D01*
X0062681Y0025633D01*
X0062064Y0024419D02*
X0061447Y0023802D01*
X0061447Y0022567D01*
X0062064Y0021950D01*
X0064533Y0021950D01*
X0065150Y0022567D01*
D14*
X0069300Y0014300D02*
X0094300Y0014300D01*
X0094387Y0014298D01*
X0094474Y0014292D01*
X0094561Y0014283D01*
X0094647Y0014270D01*
X0094733Y0014253D01*
X0094818Y0014232D01*
X0094901Y0014207D01*
X0094984Y0014179D01*
X0095065Y0014148D01*
X0095145Y0014113D01*
X0095223Y0014074D01*
X0095300Y0014032D01*
X0095375Y0013987D01*
X0095447Y0013938D01*
X0095518Y0013887D01*
X0095586Y0013832D01*
X0095651Y0013775D01*
X0095714Y0013714D01*
X0095775Y0013651D01*
X0095832Y0013586D01*
X0095887Y0013518D01*
X0095938Y0013447D01*
X0095987Y0013375D01*
X0096032Y0013300D01*
X0096074Y0013223D01*
X0096113Y0013145D01*
X0096148Y0013065D01*
X0096179Y0012984D01*
X0096207Y0012901D01*
X0096232Y0012818D01*
X0096253Y0012733D01*
X0096270Y0012647D01*
X0096283Y0012561D01*
X0096292Y0012474D01*
X0096298Y0012387D01*
X0096300Y0012300D01*
X0096300Y0006300D01*
X0094800Y0006300D01*
X0088800Y0006300D02*
X0074800Y0006300D01*
X0068800Y0006300D02*
X0067300Y0006300D01*
X0067300Y0012300D01*
X0067302Y0012387D01*
X0067308Y0012474D01*
X0067317Y0012561D01*
X0067330Y0012647D01*
X0067347Y0012733D01*
X0067368Y0012818D01*
X0067393Y0012901D01*
X0067421Y0012984D01*
X0067452Y0013065D01*
X0067487Y0013145D01*
X0067526Y0013223D01*
X0067568Y0013300D01*
X0067613Y0013375D01*
X0067662Y0013447D01*
X0067713Y0013518D01*
X0067768Y0013586D01*
X0067825Y0013651D01*
X0067886Y0013714D01*
X0067949Y0013775D01*
X0068014Y0013832D01*
X0068082Y0013887D01*
X0068153Y0013938D01*
X0068225Y0013987D01*
X0068300Y0014032D01*
X0068377Y0014074D01*
X0068455Y0014113D01*
X0068535Y0014148D01*
X0068616Y0014179D01*
X0068699Y0014207D01*
X0068782Y0014232D01*
X0068867Y0014253D01*
X0068953Y0014270D01*
X0069039Y0014283D01*
X0069126Y0014292D01*
X0069213Y0014298D01*
X0069300Y0014300D01*
X0039800Y0011800D02*
X0039800Y0001800D01*
X0023800Y0001800D01*
X0023800Y0011800D01*
X0039800Y0011800D01*
X0035800Y0009300D02*
X0031800Y0006800D01*
X0031800Y0004300D01*
X0031800Y0006800D02*
X0029300Y0006800D01*
X0031800Y0006800D02*
X0031800Y0009300D01*
X0031800Y0006800D02*
X0037800Y0006800D01*
X0035800Y0004300D02*
X0031800Y0006800D01*
X0035800Y0009300D02*
X0035800Y0004300D01*
X0042300Y0036800D02*
X0026300Y0036800D01*
X0026300Y0046800D01*
X0042300Y0046800D01*
X0042300Y0036800D01*
X0034300Y0039300D02*
X0034300Y0041800D01*
X0034300Y0044300D01*
X0034300Y0041800D02*
X0030300Y0039300D01*
X0030300Y0044300D01*
X0034300Y0041800D01*
X0028300Y0041800D01*
X0034300Y0041800D02*
X0036800Y0041800D01*
X0067300Y0042300D02*
X0067300Y0036300D01*
X0068800Y0036300D01*
X0074800Y0036300D02*
X0088800Y0036300D01*
X0094800Y0036300D02*
X0096300Y0036300D01*
X0096300Y0042300D01*
X0096298Y0042387D01*
X0096292Y0042474D01*
X0096283Y0042561D01*
X0096270Y0042647D01*
X0096253Y0042733D01*
X0096232Y0042818D01*
X0096207Y0042901D01*
X0096179Y0042984D01*
X0096148Y0043065D01*
X0096113Y0043145D01*
X0096074Y0043223D01*
X0096032Y0043300D01*
X0095987Y0043375D01*
X0095938Y0043447D01*
X0095887Y0043518D01*
X0095832Y0043586D01*
X0095775Y0043651D01*
X0095714Y0043714D01*
X0095651Y0043775D01*
X0095586Y0043832D01*
X0095518Y0043887D01*
X0095447Y0043938D01*
X0095375Y0043987D01*
X0095300Y0044032D01*
X0095223Y0044074D01*
X0095145Y0044113D01*
X0095065Y0044148D01*
X0094984Y0044179D01*
X0094901Y0044207D01*
X0094818Y0044232D01*
X0094733Y0044253D01*
X0094647Y0044270D01*
X0094561Y0044283D01*
X0094474Y0044292D01*
X0094387Y0044298D01*
X0094300Y0044300D01*
X0069300Y0044300D01*
X0069213Y0044298D01*
X0069126Y0044292D01*
X0069039Y0044283D01*
X0068953Y0044270D01*
X0068867Y0044253D01*
X0068782Y0044232D01*
X0068699Y0044207D01*
X0068616Y0044179D01*
X0068535Y0044148D01*
X0068455Y0044113D01*
X0068377Y0044074D01*
X0068300Y0044032D01*
X0068225Y0043987D01*
X0068153Y0043938D01*
X0068082Y0043887D01*
X0068014Y0043832D01*
X0067949Y0043775D01*
X0067886Y0043714D01*
X0067825Y0043651D01*
X0067768Y0043586D01*
X0067713Y0043518D01*
X0067662Y0043447D01*
X0067613Y0043375D01*
X0067568Y0043300D01*
X0067526Y0043223D01*
X0067487Y0043145D01*
X0067452Y0043065D01*
X0067421Y0042984D01*
X0067393Y0042901D01*
X0067368Y0042818D01*
X0067347Y0042733D01*
X0067330Y0042647D01*
X0067317Y0042561D01*
X0067308Y0042474D01*
X0067302Y0042387D01*
X0067300Y0042300D01*
D15*
X0039800Y0041800D03*
X0026300Y0006800D03*
D16*
X0020050Y0006800D03*
X0043550Y0006800D03*
X0046050Y0041800D03*
X0022550Y0041800D03*
D17*
X0025495Y0043867D02*
X0065930Y0043867D01*
X0066143Y0043870D01*
X0066355Y0043877D01*
X0066568Y0043890D01*
X0066780Y0043908D01*
X0066991Y0043931D01*
X0067202Y0043959D01*
X0067412Y0043993D01*
X0067621Y0044031D01*
X0067830Y0044074D01*
X0068037Y0044123D01*
X0068243Y0044176D01*
X0068447Y0044235D01*
X0068650Y0044298D01*
X0068852Y0044366D01*
X0069052Y0044439D01*
X0069250Y0044517D01*
X0069446Y0044599D01*
X0069640Y0044687D01*
X0069831Y0044779D01*
X0070021Y0044875D01*
X0070208Y0044976D01*
X0070393Y0045082D01*
X0070575Y0045192D01*
X0070754Y0045307D01*
X0070931Y0045425D01*
X0071104Y0045548D01*
X0071275Y0045675D01*
X0071442Y0045807D01*
X0071607Y0045942D01*
X0071767Y0046081D01*
X0071925Y0046224D01*
X0072079Y0046371D01*
X0072229Y0046521D01*
X0072376Y0046675D01*
X0072519Y0046833D01*
X0072658Y0046993D01*
X0072793Y0047158D01*
X0072925Y0047325D01*
X0073052Y0047496D01*
X0073175Y0047669D01*
X0073293Y0047846D01*
X0073408Y0048025D01*
X0073518Y0048207D01*
X0073624Y0048392D01*
X0073725Y0048579D01*
X0073821Y0048769D01*
X0073913Y0048960D01*
X0074001Y0049154D01*
X0074083Y0049350D01*
X0074161Y0049548D01*
X0074234Y0049748D01*
X0074302Y0049950D01*
X0074365Y0050153D01*
X0074424Y0050357D01*
X0074477Y0050563D01*
X0074526Y0050770D01*
X0074569Y0050979D01*
X0074607Y0051188D01*
X0074641Y0051398D01*
X0074669Y0051609D01*
X0074692Y0051820D01*
X0074710Y0052032D01*
X0074723Y0052245D01*
X0074730Y0052457D01*
X0074733Y0052670D01*
X0074733Y0105930D01*
X0074730Y0106143D01*
X0074723Y0106355D01*
X0074710Y0106568D01*
X0074692Y0106780D01*
X0074669Y0106991D01*
X0074641Y0107202D01*
X0074607Y0107412D01*
X0074569Y0107621D01*
X0074526Y0107830D01*
X0074477Y0108037D01*
X0074424Y0108243D01*
X0074365Y0108447D01*
X0074302Y0108650D01*
X0074234Y0108852D01*
X0074161Y0109052D01*
X0074083Y0109250D01*
X0074001Y0109446D01*
X0073913Y0109640D01*
X0073821Y0109831D01*
X0073725Y0110021D01*
X0073624Y0110208D01*
X0073518Y0110393D01*
X0073408Y0110575D01*
X0073293Y0110754D01*
X0073175Y0110931D01*
X0073052Y0111104D01*
X0072925Y0111275D01*
X0072793Y0111442D01*
X0072658Y0111607D01*
X0072519Y0111767D01*
X0072376Y0111925D01*
X0072229Y0112079D01*
X0072079Y0112229D01*
X0071925Y0112376D01*
X0071767Y0112519D01*
X0071607Y0112658D01*
X0071442Y0112793D01*
X0071275Y0112925D01*
X0071104Y0113052D01*
X0070931Y0113175D01*
X0070754Y0113293D01*
X0070575Y0113408D01*
X0070393Y0113518D01*
X0070208Y0113624D01*
X0070021Y0113725D01*
X0069831Y0113821D01*
X0069640Y0113913D01*
X0069446Y0114001D01*
X0069250Y0114083D01*
X0069052Y0114161D01*
X0068852Y0114234D01*
X0068650Y0114302D01*
X0068447Y0114365D01*
X0068243Y0114424D01*
X0068037Y0114477D01*
X0067830Y0114526D01*
X0067621Y0114569D01*
X0067412Y0114607D01*
X0067202Y0114641D01*
X0066991Y0114669D01*
X0066780Y0114692D01*
X0066568Y0114710D01*
X0066355Y0114723D01*
X0066143Y0114730D01*
X0065930Y0114733D01*
X0012670Y0114733D01*
X0012457Y0114730D01*
X0012245Y0114723D01*
X0012032Y0114710D01*
X0011820Y0114692D01*
X0011609Y0114669D01*
X0011398Y0114641D01*
X0011188Y0114607D01*
X0010979Y0114569D01*
X0010770Y0114526D01*
X0010563Y0114477D01*
X0010357Y0114424D01*
X0010153Y0114365D01*
X0009950Y0114302D01*
X0009748Y0114234D01*
X0009548Y0114161D01*
X0009350Y0114083D01*
X0009154Y0114001D01*
X0008960Y0113913D01*
X0008769Y0113821D01*
X0008579Y0113725D01*
X0008392Y0113624D01*
X0008207Y0113518D01*
X0008025Y0113408D01*
X0007846Y0113293D01*
X0007669Y0113175D01*
X0007496Y0113052D01*
X0007325Y0112925D01*
X0007158Y0112793D01*
X0006993Y0112658D01*
X0006833Y0112519D01*
X0006675Y0112376D01*
X0006521Y0112229D01*
X0006371Y0112079D01*
X0006224Y0111925D01*
X0006081Y0111767D01*
X0005942Y0111607D01*
X0005807Y0111442D01*
X0005675Y0111275D01*
X0005548Y0111104D01*
X0005425Y0110931D01*
X0005307Y0110754D01*
X0005192Y0110575D01*
X0005082Y0110393D01*
X0004976Y0110208D01*
X0004875Y0110021D01*
X0004779Y0109831D01*
X0004687Y0109640D01*
X0004599Y0109446D01*
X0004517Y0109250D01*
X0004439Y0109052D01*
X0004366Y0108852D01*
X0004298Y0108650D01*
X0004235Y0108447D01*
X0004176Y0108243D01*
X0004123Y0108037D01*
X0004074Y0107830D01*
X0004031Y0107621D01*
X0003993Y0107412D01*
X0003959Y0107202D01*
X0003931Y0106991D01*
X0003908Y0106780D01*
X0003890Y0106568D01*
X0003877Y0106355D01*
X0003870Y0106143D01*
X0003867Y0105930D01*
X0003867Y0064772D01*
X0003871Y0064476D01*
X0003881Y0064180D01*
X0003899Y0063884D01*
X0003923Y0063589D01*
X0003955Y0063294D01*
X0003994Y0063000D01*
X0004039Y0062707D01*
X0004092Y0062416D01*
X0004152Y0062126D01*
X0004218Y0061837D01*
X0004291Y0061550D01*
X0004371Y0061264D01*
X0004458Y0060981D01*
X0004552Y0060700D01*
X0004652Y0060421D01*
X0004759Y0060145D01*
X0004872Y0059871D01*
X0004992Y0059600D01*
X0005118Y0059332D01*
X0005251Y0059067D01*
X0005390Y0058805D01*
X0005535Y0058547D01*
X0005686Y0058292D01*
X0005843Y0058041D01*
X0006007Y0057794D01*
X0006176Y0057550D01*
X0006350Y0057311D01*
X0006531Y0057076D01*
X0006717Y0056845D01*
X0006908Y0056619D01*
X0007105Y0056397D01*
X0007307Y0056181D01*
X0007514Y0055969D01*
X0007513Y0055968D02*
X0015457Y0048025D01*
X0015458Y0048025D02*
X0015699Y0047789D01*
X0015947Y0047558D01*
X0016199Y0047334D01*
X0016457Y0047116D01*
X0016720Y0046904D01*
X0016988Y0046698D01*
X0017261Y0046499D01*
X0017539Y0046306D01*
X0017821Y0046120D01*
X0018107Y0045941D01*
X0018398Y0045769D01*
X0018692Y0045603D01*
X0018990Y0045445D01*
X0019293Y0045294D01*
X0019598Y0045150D01*
X0019907Y0045013D01*
X0020219Y0044884D01*
X0020534Y0044762D01*
X0020852Y0044648D01*
X0021173Y0044541D01*
X0021496Y0044442D01*
X0021821Y0044351D01*
X0022148Y0044267D01*
X0022478Y0044191D01*
X0022809Y0044124D01*
X0023141Y0044064D01*
X0023475Y0044011D01*
X0023810Y0043967D01*
X0024146Y0043931D01*
X0024482Y0043903D01*
X0024820Y0043883D01*
X0025157Y0043871D01*
X0025495Y0043867D01*
M02*
