G75*
%MOIN*%
%OFA0B0*%
%FSLAX25Y25*%
%IPPOS*%
%LPD*%
%AMOC8*
5,1,8,0,0,1.08239X$1,22.5*
%
%ADD10OC8,0.04800*%
%ADD11R,0.06500X0.06500*%
%ADD12C,0.06500*%
%ADD13C,0.06600*%
%ADD14C,0.04800*%
%ADD15C,0.11811*%
%ADD16OC8,0.07400*%
%ADD17C,0.07400*%
%ADD18C,0.13000*%
%ADD19R,0.04800X0.04800*%
%ADD20C,0.04800*%
%ADD21C,0.01600*%
%ADD22C,0.03200*%
%ADD23C,0.01200*%
%ADD24C,0.02500*%
D10*
X0071800Y0009300D03*
X0091800Y0009300D03*
X0101800Y0014300D03*
X0111800Y0019300D03*
X0101800Y0034300D03*
X0091800Y0039300D03*
X0071800Y0039300D03*
X0111800Y0039300D03*
X0124300Y0051800D03*
X0134300Y0051800D03*
X0144300Y0051800D03*
X0154300Y0051800D03*
X0164300Y0051800D03*
X0174300Y0051800D03*
X0174300Y0081800D03*
X0164300Y0081800D03*
X0154300Y0081800D03*
X0144300Y0081800D03*
X0134300Y0081800D03*
X0124300Y0081800D03*
X0111800Y0091800D03*
X0101800Y0081800D03*
X0091800Y0081800D03*
X0081800Y0081800D03*
X0081800Y0111800D03*
X0091800Y0111800D03*
X0101800Y0111800D03*
X0141800Y0091800D03*
X0151800Y0091800D03*
X0149300Y0101800D03*
X0171800Y0091800D03*
X0179300Y0101800D03*
D11*
X0091800Y0029300D03*
X0069300Y0029300D03*
D12*
X0069300Y0019300D03*
X0091800Y0019300D03*
D13*
X0054300Y0041800D03*
X0014300Y0041800D03*
X0011800Y0006800D03*
X0051800Y0006800D03*
D14*
X0121800Y0009400D02*
X0121800Y0014200D01*
X0131800Y0014200D02*
X0131800Y0009400D01*
X0141800Y0009400D02*
X0141800Y0014200D01*
X0151800Y0014200D02*
X0151800Y0009400D01*
X0161800Y0009400D02*
X0161800Y0014200D01*
X0171800Y0014200D02*
X0171800Y0009400D01*
X0181800Y0009400D02*
X0181800Y0014200D01*
X0181800Y0039400D02*
X0181800Y0044200D01*
X0171800Y0044200D02*
X0171800Y0039400D01*
X0161800Y0039400D02*
X0161800Y0044200D01*
X0151800Y0044200D02*
X0151800Y0039400D01*
X0141800Y0039400D02*
X0141800Y0044200D01*
X0131800Y0044200D02*
X0131800Y0039400D01*
X0121800Y0039400D02*
X0121800Y0044200D01*
D15*
X0064497Y0071032D02*
X0064497Y0082843D01*
X0042843Y0104497D02*
X0031032Y0104497D01*
X0014103Y0095048D02*
X0014103Y0083237D01*
X0017014Y0065366D02*
X0025366Y0057014D01*
X0043237Y0054103D02*
X0055048Y0054103D01*
D16*
X0044300Y0027300D03*
X0034300Y0026300D03*
X0024300Y0027300D03*
X0014300Y0026300D03*
X0024300Y0017300D03*
X0014300Y0016300D03*
X0034300Y0016300D03*
X0044300Y0017300D03*
X0054300Y0016300D03*
X0054300Y0026300D03*
D17*
X0081800Y0056100D03*
X0081800Y0067500D03*
X0106300Y0069300D03*
X0107300Y0059300D03*
X0106300Y0049300D03*
D18*
X0189300Y0051800D03*
X0189300Y0081800D03*
D19*
X0141800Y0111800D03*
X0111800Y0101800D03*
D20*
X0111800Y0111800D03*
X0141800Y0101800D03*
D21*
X0003650Y0114123D02*
X0003650Y0003650D01*
X0007785Y0003650D01*
X0007438Y0004127D01*
X0007074Y0004842D01*
X0006826Y0005606D01*
X0006700Y0006399D01*
X0006700Y0006500D01*
X0011500Y0006500D01*
X0011500Y0007100D01*
X0006700Y0007100D01*
X0006700Y0007201D01*
X0006826Y0007994D01*
X0007074Y0008758D01*
X0007438Y0009473D01*
X0007910Y0010122D01*
X0008478Y0010690D01*
X0009127Y0011162D01*
X0009842Y0011526D01*
X0010606Y0011774D01*
X0011399Y0011900D01*
X0011488Y0011900D01*
X0009200Y0014188D01*
X0009200Y0018412D01*
X0012088Y0021300D01*
X0009200Y0024188D01*
X0009200Y0028412D01*
X0012188Y0031400D01*
X0016412Y0031400D01*
X0018800Y0029012D01*
X0018800Y0029578D01*
X0022022Y0032800D01*
X0024100Y0032800D01*
X0024100Y0027500D01*
X0024500Y0027500D01*
X0024500Y0032800D01*
X0026578Y0032800D01*
X0029800Y0029578D01*
X0029800Y0029578D01*
X0032022Y0031800D01*
X0034100Y0031800D01*
X0034100Y0026500D01*
X0034500Y0026500D01*
X0034500Y0031800D01*
X0036578Y0031800D01*
X0038800Y0029578D01*
X0038800Y0029578D01*
X0042022Y0032800D01*
X0044100Y0032800D01*
X0044100Y0027500D01*
X0044500Y0027500D01*
X0044500Y0032800D01*
X0046578Y0032800D01*
X0049800Y0029578D01*
X0049800Y0029012D01*
X0052188Y0031400D01*
X0056412Y0031400D01*
X0059400Y0028412D01*
X0059400Y0024188D01*
X0056512Y0021300D01*
X0059400Y0018412D01*
X0059400Y0014188D01*
X0056412Y0011200D01*
X0053459Y0011200D01*
X0054462Y0010784D01*
X0055784Y0009462D01*
X0056500Y0007735D01*
X0056500Y0005865D01*
X0055784Y0004138D01*
X0055297Y0003650D01*
X0196210Y0003650D01*
X0196210Y0047171D01*
X0195554Y0046316D01*
X0194784Y0045546D01*
X0193921Y0044884D01*
X0192979Y0044340D01*
X0191974Y0043924D01*
X0190923Y0043642D01*
X0190100Y0043534D01*
X0190100Y0051000D01*
X0188500Y0051000D01*
X0188500Y0043534D01*
X0187677Y0043642D01*
X0186626Y0043924D01*
X0185621Y0044340D01*
X0185600Y0044352D01*
X0185600Y0038644D01*
X0185021Y0037247D01*
X0183953Y0036179D01*
X0182556Y0035600D01*
X0181044Y0035600D01*
X0179647Y0036179D01*
X0178579Y0037247D01*
X0178000Y0038644D01*
X0178000Y0044956D01*
X0178579Y0046353D01*
X0179647Y0047421D01*
X0181044Y0048000D01*
X0181910Y0048000D01*
X0181840Y0048121D01*
X0181424Y0049126D01*
X0181142Y0050177D01*
X0181034Y0051000D01*
X0188500Y0051000D01*
X0188500Y0052600D01*
X0188500Y0060066D01*
X0187677Y0059958D01*
X0186626Y0059676D01*
X0185621Y0059260D01*
X0184679Y0058716D01*
X0183816Y0058054D01*
X0183046Y0057284D01*
X0182384Y0056421D01*
X0181840Y0055479D01*
X0181424Y0054474D01*
X0181142Y0053423D01*
X0181034Y0052600D01*
X0188500Y0052600D01*
X0190100Y0052600D01*
X0190100Y0060066D01*
X0190923Y0059958D01*
X0191974Y0059676D01*
X0192979Y0059260D01*
X0193921Y0058716D01*
X0194784Y0058054D01*
X0195554Y0057284D01*
X0196210Y0056429D01*
X0196210Y0077838D01*
X0195997Y0077325D01*
X0193775Y0075103D01*
X0190871Y0073900D01*
X0187729Y0073900D01*
X0184825Y0075103D01*
X0182603Y0077325D01*
X0181400Y0080229D01*
X0181400Y0083371D01*
X0182603Y0086275D01*
X0184825Y0088497D01*
X0187729Y0089700D01*
X0190871Y0089700D01*
X0193775Y0088497D01*
X0195997Y0086275D01*
X0196210Y0085762D01*
X0196210Y0114123D01*
X0145600Y0114123D01*
X0145600Y0108820D01*
X0144780Y0108000D01*
X0138820Y0108000D01*
X0138000Y0108820D01*
X0138000Y0114123D01*
X0114851Y0114123D01*
X0115021Y0113953D01*
X0115600Y0112556D01*
X0115600Y0111044D01*
X0115021Y0109647D01*
X0113953Y0108579D01*
X0113800Y0108515D01*
X0113800Y0105600D01*
X0114780Y0105600D01*
X0115600Y0104780D01*
X0115600Y0098820D01*
X0114780Y0098000D01*
X0113800Y0098000D01*
X0113800Y0095174D01*
X0115600Y0093374D01*
X0115600Y0090226D01*
X0113800Y0088426D01*
X0113800Y0087628D01*
X0120128Y0081300D01*
X0120500Y0080928D01*
X0120500Y0083374D01*
X0122726Y0085600D01*
X0125874Y0085600D01*
X0127300Y0084174D01*
X0127300Y0105052D01*
X0127053Y0105299D01*
X0126650Y0106273D01*
X0126650Y0107327D01*
X0127053Y0108301D01*
X0127799Y0109047D01*
X0128773Y0109450D01*
X0129827Y0109450D01*
X0130801Y0109047D01*
X0131547Y0108301D01*
X0131950Y0107327D01*
X0131950Y0106273D01*
X0131547Y0105299D01*
X0131300Y0105052D01*
X0131300Y0084740D01*
X0132560Y0086000D01*
X0134300Y0086000D01*
X0134300Y0081800D01*
X0134300Y0081800D01*
X0134300Y0086000D01*
X0136040Y0086000D01*
X0137300Y0084740D01*
X0137300Y0090128D01*
X0138000Y0090828D01*
X0138000Y0093374D01*
X0139800Y0095174D01*
X0139800Y0098515D01*
X0139647Y0098579D01*
X0138579Y0099647D01*
X0138000Y0101044D01*
X0138000Y0102556D01*
X0138579Y0103953D01*
X0139647Y0105021D01*
X0141044Y0105600D01*
X0142556Y0105600D01*
X0143953Y0105021D01*
X0145021Y0103953D01*
X0145500Y0102797D01*
X0145500Y0103374D01*
X0147726Y0105600D01*
X0150874Y0105600D01*
X0153100Y0103374D01*
X0153100Y0100226D01*
X0150874Y0098000D01*
X0147726Y0098000D01*
X0145500Y0100226D01*
X0145500Y0100803D01*
X0145021Y0099647D01*
X0143953Y0098579D01*
X0143800Y0098515D01*
X0143800Y0095174D01*
X0145600Y0093374D01*
X0145600Y0090226D01*
X0143374Y0088000D01*
X0141300Y0088000D01*
X0141300Y0084174D01*
X0142726Y0085600D01*
X0145874Y0085600D01*
X0148100Y0083374D01*
X0148100Y0080226D01*
X0145874Y0078000D01*
X0142726Y0078000D01*
X0141300Y0079426D01*
X0141300Y0054174D01*
X0142726Y0055600D01*
X0145874Y0055600D01*
X0148100Y0053374D01*
X0148100Y0050226D01*
X0145874Y0048000D01*
X0143593Y0048000D01*
X0144001Y0047792D01*
X0144536Y0047404D01*
X0145004Y0046936D01*
X0145392Y0046401D01*
X0145692Y0045812D01*
X0145897Y0045184D01*
X0146000Y0044531D01*
X0146000Y0041800D01*
X0141800Y0041800D01*
X0141800Y0041800D01*
X0141800Y0041800D01*
X0141800Y0048400D01*
X0142131Y0048400D01*
X0142363Y0048363D01*
X0141300Y0049426D01*
X0141300Y0048472D01*
X0141183Y0048355D01*
X0141469Y0048400D01*
X0141800Y0048400D01*
X0141800Y0041800D01*
X0146000Y0041800D01*
X0146000Y0039069D01*
X0145897Y0038416D01*
X0145692Y0037788D01*
X0145392Y0037199D01*
X0145004Y0036664D01*
X0144536Y0036196D01*
X0144001Y0035808D01*
X0143412Y0035508D01*
X0142784Y0035303D01*
X0142131Y0035200D01*
X0141800Y0035200D01*
X0141800Y0041800D01*
X0141800Y0041800D01*
X0141800Y0041800D01*
X0137600Y0041800D01*
X0137600Y0044531D01*
X0137645Y0044817D01*
X0135600Y0042772D01*
X0135600Y0038644D01*
X0135021Y0037247D01*
X0133953Y0036179D01*
X0132556Y0035600D01*
X0131044Y0035600D01*
X0129647Y0036179D01*
X0128579Y0037247D01*
X0128000Y0038644D01*
X0128000Y0044956D01*
X0128579Y0046353D01*
X0129647Y0047421D01*
X0131044Y0048000D01*
X0132556Y0048000D01*
X0133953Y0047421D01*
X0134273Y0047101D01*
X0135172Y0048000D01*
X0132726Y0048000D01*
X0130500Y0050226D01*
X0130500Y0052772D01*
X0127300Y0055972D01*
X0127300Y0079426D01*
X0125874Y0078000D01*
X0122726Y0078000D01*
X0121300Y0079426D01*
X0121300Y0054174D01*
X0122726Y0055600D01*
X0125874Y0055600D01*
X0128100Y0053374D01*
X0128100Y0050226D01*
X0125874Y0048000D01*
X0122726Y0048000D01*
X0121300Y0049426D01*
X0121300Y0048000D01*
X0122556Y0048000D01*
X0123953Y0047421D01*
X0125021Y0046353D01*
X0125600Y0044956D01*
X0125600Y0038644D01*
X0125021Y0037247D01*
X0123953Y0036179D01*
X0122556Y0035600D01*
X0121044Y0035600D01*
X0119647Y0036179D01*
X0118800Y0037026D01*
X0118800Y0017628D01*
X0119327Y0017101D01*
X0119647Y0017421D01*
X0121044Y0018000D01*
X0122556Y0018000D01*
X0123953Y0017421D01*
X0125021Y0016353D01*
X0125600Y0014956D01*
X0125600Y0008644D01*
X0125021Y0007247D01*
X0123953Y0006179D01*
X0122556Y0005600D01*
X0121044Y0005600D01*
X0119647Y0006179D01*
X0118579Y0007247D01*
X0118000Y0008644D01*
X0118000Y0012772D01*
X0114800Y0015972D01*
X0114800Y0016926D01*
X0113374Y0015500D01*
X0110226Y0015500D01*
X0108000Y0017726D01*
X0108000Y0020874D01*
X0110226Y0023100D01*
X0113374Y0023100D01*
X0114800Y0021674D01*
X0114800Y0036360D01*
X0113540Y0035100D01*
X0111800Y0035100D01*
X0111800Y0039300D01*
X0111800Y0039300D01*
X0111800Y0043500D01*
X0113540Y0043500D01*
X0114800Y0042240D01*
X0114800Y0075972D01*
X0099800Y0090972D01*
X0099800Y0108426D01*
X0098000Y0110226D01*
X0098000Y0113374D01*
X0098749Y0114123D01*
X0094851Y0114123D01*
X0095600Y0113374D01*
X0095600Y0110226D01*
X0093374Y0108000D01*
X0090226Y0108000D01*
X0088000Y0110226D01*
X0088000Y0113374D01*
X0088749Y0114123D01*
X0084851Y0114123D01*
X0085600Y0113374D01*
X0085600Y0110226D01*
X0083800Y0108426D01*
X0083800Y0102628D01*
X0100828Y0085600D01*
X0103374Y0085600D01*
X0105600Y0083374D01*
X0105600Y0080226D01*
X0103374Y0078000D01*
X0100226Y0078000D01*
X0098000Y0080226D01*
X0098000Y0082772D01*
X0080972Y0099800D01*
X0079800Y0100972D01*
X0079800Y0108426D01*
X0078000Y0110226D01*
X0078000Y0113374D01*
X0078749Y0114123D01*
X0003650Y0114123D01*
X0003650Y0113696D02*
X0078322Y0113696D01*
X0078000Y0112097D02*
X0003650Y0112097D01*
X0003650Y0110499D02*
X0026703Y0110499D01*
X0026894Y0110690D02*
X0024839Y0108635D01*
X0023727Y0105950D01*
X0023727Y0103044D01*
X0024839Y0100359D01*
X0026894Y0098304D01*
X0029579Y0097191D01*
X0044296Y0097191D01*
X0046982Y0098304D01*
X0049037Y0100359D01*
X0050149Y0103044D01*
X0050149Y0105950D01*
X0049037Y0108635D01*
X0046982Y0110690D01*
X0044296Y0111802D01*
X0029579Y0111802D01*
X0026894Y0110690D01*
X0025104Y0108900D02*
X0003650Y0108900D01*
X0003650Y0107302D02*
X0024287Y0107302D01*
X0023727Y0105703D02*
X0003650Y0105703D01*
X0003650Y0104105D02*
X0023727Y0104105D01*
X0023949Y0102506D02*
X0003650Y0102506D01*
X0003650Y0100908D02*
X0009631Y0100908D01*
X0009965Y0101241D02*
X0007910Y0099186D01*
X0006798Y0096501D01*
X0006798Y0081784D01*
X0007910Y0079099D01*
X0009965Y0077044D01*
X0012650Y0075931D01*
X0015556Y0075931D01*
X0018241Y0077044D01*
X0020296Y0079099D01*
X0021409Y0081784D01*
X0021409Y0096501D01*
X0020296Y0099186D01*
X0018241Y0101241D01*
X0015556Y0102354D01*
X0012650Y0102354D01*
X0009965Y0101241D01*
X0008033Y0099309D02*
X0003650Y0099309D01*
X0003650Y0097711D02*
X0007299Y0097711D01*
X0006798Y0096112D02*
X0003650Y0096112D01*
X0003650Y0094514D02*
X0006798Y0094514D01*
X0006798Y0092915D02*
X0003650Y0092915D01*
X0003650Y0091317D02*
X0006798Y0091317D01*
X0006798Y0089718D02*
X0003650Y0089718D01*
X0003650Y0088120D02*
X0006798Y0088120D01*
X0006798Y0086521D02*
X0003650Y0086521D01*
X0003650Y0084923D02*
X0006798Y0084923D01*
X0006798Y0083324D02*
X0003650Y0083324D01*
X0003650Y0081726D02*
X0006822Y0081726D01*
X0007484Y0080127D02*
X0003650Y0080127D01*
X0003650Y0078529D02*
X0008480Y0078529D01*
X0010239Y0076930D02*
X0003650Y0076930D01*
X0003650Y0075332D02*
X0025457Y0075332D01*
X0025883Y0073742D02*
X0027778Y0070459D01*
X0030459Y0067778D01*
X0033742Y0065883D01*
X0037404Y0064902D01*
X0041196Y0064902D01*
X0044858Y0065883D01*
X0048141Y0067778D01*
X0050822Y0070459D01*
X0052717Y0073742D01*
X0053698Y0077404D01*
X0053698Y0081196D01*
X0052717Y0084858D01*
X0050822Y0088141D01*
X0048141Y0090822D01*
X0044858Y0092717D01*
X0041196Y0093698D01*
X0037404Y0093698D01*
X0033742Y0092717D01*
X0030459Y0090822D01*
X0027778Y0088141D01*
X0025883Y0084858D01*
X0024902Y0081196D01*
X0024902Y0077404D01*
X0025883Y0073742D01*
X0025888Y0073733D02*
X0003650Y0073733D01*
X0003650Y0072134D02*
X0013327Y0072134D01*
X0013599Y0072291D02*
X0012724Y0071786D01*
X0011922Y0071171D01*
X0011565Y0070814D01*
X0011208Y0070457D01*
X0010593Y0069656D01*
X0010088Y0068781D01*
X0009702Y0067848D01*
X0009440Y0066872D01*
X0009308Y0065871D01*
X0009308Y0064861D01*
X0009440Y0063859D01*
X0009702Y0062883D01*
X0010088Y0061950D01*
X0010593Y0061075D01*
X0011208Y0060274D01*
X0015741Y0055741D01*
X0020274Y0051208D01*
X0021075Y0050593D01*
X0021950Y0050088D01*
X0022883Y0049702D01*
X0023859Y0049440D01*
X0024861Y0049308D01*
X0025871Y0049308D01*
X0026872Y0049440D01*
X0027848Y0049702D01*
X0028781Y0050088D01*
X0029656Y0050593D01*
X0030457Y0051208D01*
X0030814Y0051565D01*
X0021190Y0061190D01*
X0026638Y0066638D01*
X0022105Y0071171D01*
X0021304Y0071786D01*
X0020429Y0072291D01*
X0019496Y0072678D01*
X0018520Y0072939D01*
X0017519Y0073071D01*
X0016509Y0073071D01*
X0015507Y0072939D01*
X0014532Y0072678D01*
X0013599Y0072291D01*
X0011565Y0070814D02*
X0021190Y0061190D01*
X0021190Y0061190D01*
X0026638Y0066638D01*
X0031171Y0062105D01*
X0031786Y0061304D01*
X0032291Y0060429D01*
X0032678Y0059496D01*
X0032939Y0058520D01*
X0033071Y0057519D01*
X0033071Y0056509D01*
X0032939Y0055507D01*
X0032678Y0054532D01*
X0032291Y0053599D01*
X0031786Y0052724D01*
X0031171Y0051922D01*
X0030814Y0051565D01*
X0021190Y0061190D01*
X0021190Y0061190D01*
X0021190Y0061190D01*
X0011565Y0070814D01*
X0011287Y0070536D02*
X0003650Y0070536D01*
X0003650Y0068937D02*
X0010179Y0068937D01*
X0009565Y0067339D02*
X0003650Y0067339D01*
X0003650Y0065740D02*
X0009308Y0065740D01*
X0009403Y0064142D02*
X0003650Y0064142D01*
X0003650Y0062543D02*
X0009843Y0062543D01*
X0010693Y0060945D02*
X0003650Y0060945D01*
X0003650Y0059346D02*
X0012136Y0059346D01*
X0013734Y0057748D02*
X0003650Y0057748D01*
X0003650Y0056149D02*
X0015333Y0056149D01*
X0015741Y0055741D02*
X0021190Y0061190D01*
X0015741Y0055741D01*
X0016149Y0056149D02*
X0016149Y0056149D01*
X0016931Y0054551D02*
X0003650Y0054551D01*
X0003650Y0052952D02*
X0018530Y0052952D01*
X0020128Y0051354D02*
X0003650Y0051354D01*
X0003650Y0049755D02*
X0022754Y0049755D01*
X0027977Y0049755D02*
X0037253Y0049755D01*
X0037044Y0049965D02*
X0039099Y0047910D01*
X0041784Y0046798D01*
X0056501Y0046798D01*
X0059186Y0047910D01*
X0061241Y0049965D01*
X0062354Y0052650D01*
X0062354Y0055556D01*
X0061241Y0058241D01*
X0059186Y0060296D01*
X0056501Y0061409D01*
X0041784Y0061409D01*
X0039099Y0060296D01*
X0037044Y0058241D01*
X0035931Y0055556D01*
X0035931Y0052650D01*
X0037044Y0049965D01*
X0036468Y0051354D02*
X0030603Y0051354D01*
X0029427Y0052952D02*
X0029427Y0052952D01*
X0027829Y0054551D02*
X0027829Y0054551D01*
X0026230Y0056149D02*
X0026230Y0056149D01*
X0024632Y0057748D02*
X0024632Y0057748D01*
X0023033Y0059346D02*
X0023033Y0059346D01*
X0021435Y0060945D02*
X0021434Y0060945D01*
X0021190Y0061190D02*
X0021190Y0061190D01*
X0020945Y0060945D02*
X0020945Y0060945D01*
X0019346Y0059346D02*
X0019346Y0059346D01*
X0017748Y0057748D02*
X0017748Y0057748D01*
X0019836Y0062543D02*
X0019836Y0062543D01*
X0018238Y0064142D02*
X0018237Y0064142D01*
X0016639Y0065740D02*
X0016639Y0065740D01*
X0015041Y0067339D02*
X0015040Y0067339D01*
X0013442Y0068937D02*
X0013442Y0068937D01*
X0011844Y0070536D02*
X0011843Y0070536D01*
X0020701Y0072134D02*
X0026811Y0072134D01*
X0027734Y0070536D02*
X0022741Y0070536D01*
X0024339Y0068937D02*
X0029300Y0068937D01*
X0031220Y0067339D02*
X0025938Y0067339D01*
X0025740Y0065740D02*
X0025741Y0065740D01*
X0027536Y0065740D02*
X0034274Y0065740D01*
X0030733Y0062543D02*
X0080439Y0062543D01*
X0080786Y0062400D02*
X0078911Y0063176D01*
X0077476Y0064611D01*
X0076700Y0066486D01*
X0076700Y0068514D01*
X0077476Y0070389D01*
X0078911Y0071824D01*
X0080786Y0072600D01*
X0082814Y0072600D01*
X0084689Y0071824D01*
X0086124Y0070389D01*
X0086900Y0068514D01*
X0086900Y0066486D01*
X0086124Y0064611D01*
X0084689Y0063176D01*
X0082814Y0062400D01*
X0080786Y0062400D01*
X0080786Y0061200D02*
X0078911Y0060424D01*
X0077476Y0058989D01*
X0076700Y0057114D01*
X0076700Y0055086D01*
X0077476Y0053211D01*
X0078911Y0051776D01*
X0080786Y0051000D01*
X0082814Y0051000D01*
X0084689Y0051776D01*
X0086124Y0053211D01*
X0086900Y0055086D01*
X0086900Y0057114D01*
X0086124Y0058989D01*
X0084689Y0060424D01*
X0082814Y0061200D01*
X0080786Y0061200D01*
X0080170Y0060945D02*
X0057621Y0060945D01*
X0060136Y0059346D02*
X0077834Y0059346D01*
X0076962Y0057748D02*
X0061446Y0057748D01*
X0062108Y0056149D02*
X0076700Y0056149D01*
X0076921Y0054551D02*
X0062354Y0054551D01*
X0062354Y0052952D02*
X0077735Y0052952D01*
X0079931Y0051354D02*
X0061817Y0051354D01*
X0061032Y0049755D02*
X0101200Y0049755D01*
X0101200Y0050314D02*
X0101200Y0048286D01*
X0101976Y0046411D01*
X0103411Y0044976D01*
X0105286Y0044200D01*
X0107314Y0044200D01*
X0109189Y0044976D01*
X0110624Y0046411D01*
X0111400Y0048286D01*
X0111400Y0050314D01*
X0110624Y0052189D01*
X0109189Y0053624D01*
X0107797Y0054200D01*
X0108314Y0054200D01*
X0110189Y0054976D01*
X0111624Y0056411D01*
X0112400Y0058286D01*
X0112400Y0060314D01*
X0111624Y0062189D01*
X0110189Y0063624D01*
X0108581Y0064290D01*
X0109183Y0064596D01*
X0109883Y0065105D01*
X0110495Y0065717D01*
X0111004Y0066417D01*
X0111397Y0067189D01*
X0111665Y0068012D01*
X0111800Y0068867D01*
X0111800Y0069100D01*
X0106500Y0069100D01*
X0106500Y0069500D01*
X0111800Y0069500D01*
X0111800Y0069733D01*
X0111665Y0070588D01*
X0111397Y0071411D01*
X0111004Y0072183D01*
X0110495Y0072883D01*
X0109883Y0073495D01*
X0109183Y0074004D01*
X0108411Y0074397D01*
X0107588Y0074665D01*
X0106733Y0074800D01*
X0106500Y0074800D01*
X0106500Y0069500D01*
X0106100Y0069500D01*
X0106100Y0074800D01*
X0105867Y0074800D01*
X0105012Y0074665D01*
X0104189Y0074397D01*
X0103417Y0074004D01*
X0102717Y0073495D01*
X0102105Y0072883D01*
X0101596Y0072183D01*
X0101203Y0071411D01*
X0100935Y0070588D01*
X0100800Y0069733D01*
X0100800Y0069500D01*
X0106100Y0069500D01*
X0106100Y0069100D01*
X0100800Y0069100D01*
X0100800Y0068867D01*
X0100935Y0068012D01*
X0101203Y0067189D01*
X0101596Y0066417D01*
X0102105Y0065717D01*
X0102717Y0065105D01*
X0103417Y0064596D01*
X0104189Y0064203D01*
X0105012Y0063935D01*
X0105122Y0063918D01*
X0104411Y0063624D01*
X0102976Y0062189D01*
X0102200Y0060314D01*
X0102200Y0058286D01*
X0102976Y0056411D01*
X0104411Y0054976D01*
X0105803Y0054400D01*
X0105286Y0054400D01*
X0104397Y0054032D01*
X0093800Y0064628D01*
X0093800Y0078426D01*
X0095600Y0080226D01*
X0095600Y0083374D01*
X0093374Y0085600D01*
X0090226Y0085600D01*
X0088000Y0083374D01*
X0088000Y0080226D01*
X0089800Y0078426D01*
X0089800Y0062972D01*
X0101568Y0051203D01*
X0101200Y0050314D01*
X0101418Y0051354D02*
X0083669Y0051354D01*
X0085865Y0052952D02*
X0099819Y0052952D01*
X0098221Y0054551D02*
X0086679Y0054551D01*
X0086900Y0056149D02*
X0096622Y0056149D01*
X0095024Y0057748D02*
X0086638Y0057748D01*
X0085766Y0059346D02*
X0093425Y0059346D01*
X0091827Y0060945D02*
X0083430Y0060945D01*
X0083161Y0062543D02*
X0090228Y0062543D01*
X0089800Y0064142D02*
X0085654Y0064142D01*
X0086591Y0065740D02*
X0089800Y0065740D01*
X0089800Y0067339D02*
X0086900Y0067339D01*
X0086725Y0068937D02*
X0089800Y0068937D01*
X0089800Y0070536D02*
X0085976Y0070536D01*
X0083938Y0072134D02*
X0089800Y0072134D01*
X0089800Y0073733D02*
X0071802Y0073733D01*
X0071802Y0072134D02*
X0079662Y0072134D01*
X0077623Y0070536D02*
X0071802Y0070536D01*
X0071802Y0069579D02*
X0070690Y0066894D01*
X0068635Y0064839D01*
X0065950Y0063727D01*
X0063044Y0063727D01*
X0060359Y0064839D01*
X0058304Y0066894D01*
X0057191Y0069579D01*
X0057191Y0084296D01*
X0058304Y0086982D01*
X0060359Y0089037D01*
X0063044Y0090149D01*
X0065950Y0090149D01*
X0068635Y0089037D01*
X0070690Y0086982D01*
X0071802Y0084296D01*
X0071802Y0069579D01*
X0071537Y0068937D02*
X0076875Y0068937D01*
X0076700Y0067339D02*
X0070874Y0067339D01*
X0069537Y0065740D02*
X0077009Y0065740D01*
X0077946Y0064142D02*
X0066952Y0064142D01*
X0062041Y0064142D02*
X0029135Y0064142D01*
X0031994Y0060945D02*
X0040664Y0060945D01*
X0038149Y0059346D02*
X0032718Y0059346D01*
X0033041Y0057748D02*
X0036839Y0057748D01*
X0036177Y0056149D02*
X0033024Y0056149D01*
X0032683Y0054551D02*
X0035931Y0054551D01*
X0035931Y0052952D02*
X0031918Y0052952D01*
X0038852Y0048157D02*
X0003650Y0048157D01*
X0003650Y0046558D02*
X0012441Y0046558D01*
X0012342Y0046526D02*
X0011627Y0046162D01*
X0010978Y0045690D01*
X0010410Y0045122D01*
X0009938Y0044473D01*
X0009574Y0043758D01*
X0009326Y0042994D01*
X0009200Y0042201D01*
X0009200Y0042100D01*
X0014000Y0042100D01*
X0014000Y0046900D01*
X0013899Y0046900D01*
X0013106Y0046774D01*
X0012342Y0046526D01*
X0014000Y0046558D02*
X0014600Y0046558D01*
X0014600Y0046900D02*
X0014701Y0046900D01*
X0015494Y0046774D01*
X0016258Y0046526D01*
X0016973Y0046162D01*
X0017622Y0045690D01*
X0018190Y0045122D01*
X0018662Y0044473D01*
X0019026Y0043758D01*
X0019274Y0042994D01*
X0019400Y0042201D01*
X0019400Y0042100D01*
X0014600Y0042100D01*
X0014600Y0041500D01*
X0019400Y0041500D01*
X0019400Y0041399D01*
X0019274Y0040606D01*
X0019026Y0039842D01*
X0018662Y0039127D01*
X0018190Y0038478D01*
X0017622Y0037910D01*
X0016973Y0037438D01*
X0016258Y0037074D01*
X0015494Y0036826D01*
X0014701Y0036700D01*
X0014600Y0036700D01*
X0014600Y0041500D01*
X0014000Y0041500D01*
X0014000Y0036700D01*
X0013899Y0036700D01*
X0013106Y0036826D01*
X0012342Y0037074D01*
X0011627Y0037438D01*
X0010978Y0037910D01*
X0010410Y0038478D01*
X0009938Y0039127D01*
X0009574Y0039842D01*
X0009326Y0040606D01*
X0009200Y0041399D01*
X0009200Y0041500D01*
X0014000Y0041500D01*
X0014000Y0042100D01*
X0014600Y0042100D01*
X0014600Y0046900D01*
X0016159Y0046558D02*
X0101915Y0046558D01*
X0103451Y0044960D02*
X0057787Y0044960D01*
X0058284Y0044462D02*
X0056962Y0045784D01*
X0055235Y0046500D01*
X0053365Y0046500D01*
X0051638Y0045784D01*
X0050316Y0044462D01*
X0049600Y0042735D01*
X0049600Y0040865D01*
X0050316Y0039138D01*
X0051638Y0037816D01*
X0053365Y0037100D01*
X0055235Y0037100D01*
X0056962Y0037816D01*
X0058284Y0039138D01*
X0059000Y0040865D01*
X0059000Y0042735D01*
X0058284Y0044462D01*
X0058741Y0043361D02*
X0109922Y0043361D01*
X0110060Y0043500D02*
X0107600Y0041040D01*
X0107600Y0039300D01*
X0111800Y0039300D01*
X0111800Y0039300D01*
X0111800Y0043500D01*
X0110060Y0043500D01*
X0109149Y0044960D02*
X0114800Y0044960D01*
X0114800Y0046558D02*
X0110685Y0046558D01*
X0111347Y0048157D02*
X0114800Y0048157D01*
X0114800Y0049755D02*
X0111400Y0049755D01*
X0110969Y0051354D02*
X0114800Y0051354D01*
X0114800Y0052952D02*
X0109860Y0052952D01*
X0109162Y0054551D02*
X0114800Y0054551D01*
X0114800Y0056149D02*
X0111362Y0056149D01*
X0112177Y0057748D02*
X0114800Y0057748D01*
X0114800Y0059346D02*
X0112400Y0059346D01*
X0112139Y0060945D02*
X0114800Y0060945D01*
X0114800Y0062543D02*
X0111269Y0062543D01*
X0108937Y0064142D02*
X0114800Y0064142D01*
X0114800Y0065740D02*
X0110512Y0065740D01*
X0111446Y0067339D02*
X0114800Y0067339D01*
X0114800Y0068937D02*
X0111800Y0068937D01*
X0111673Y0070536D02*
X0114800Y0070536D01*
X0114800Y0072134D02*
X0111029Y0072134D01*
X0109556Y0073733D02*
X0114800Y0073733D01*
X0114800Y0075332D02*
X0093800Y0075332D01*
X0093800Y0073733D02*
X0103044Y0073733D01*
X0101571Y0072134D02*
X0093800Y0072134D01*
X0093800Y0070536D02*
X0100927Y0070536D01*
X0100800Y0068937D02*
X0093800Y0068937D01*
X0093800Y0067339D02*
X0101154Y0067339D01*
X0102088Y0065740D02*
X0093800Y0065740D01*
X0094286Y0064142D02*
X0104377Y0064142D01*
X0103331Y0062543D02*
X0095885Y0062543D01*
X0097483Y0060945D02*
X0102461Y0060945D01*
X0102200Y0059346D02*
X0099082Y0059346D01*
X0100681Y0057748D02*
X0102423Y0057748D01*
X0102279Y0056149D02*
X0103238Y0056149D01*
X0103878Y0054551D02*
X0105438Y0054551D01*
X0101253Y0048157D02*
X0059433Y0048157D01*
X0050813Y0044960D02*
X0018308Y0044960D01*
X0019155Y0043361D02*
X0049859Y0043361D01*
X0049600Y0041763D02*
X0014600Y0041763D01*
X0014000Y0041763D02*
X0003650Y0041763D01*
X0003650Y0040164D02*
X0009469Y0040164D01*
X0010346Y0038566D02*
X0003650Y0038566D01*
X0003650Y0036967D02*
X0012670Y0036967D01*
X0014000Y0036967D02*
X0014600Y0036967D01*
X0015930Y0036967D02*
X0068759Y0036967D01*
X0068000Y0037726D02*
X0070226Y0035500D01*
X0073374Y0035500D01*
X0075600Y0037726D01*
X0075600Y0040874D01*
X0073374Y0043100D01*
X0070226Y0043100D01*
X0068000Y0040874D01*
X0068000Y0037726D01*
X0068000Y0038566D02*
X0057713Y0038566D01*
X0058710Y0040164D02*
X0068000Y0040164D01*
X0068889Y0041763D02*
X0059000Y0041763D01*
X0050887Y0038566D02*
X0018254Y0038566D01*
X0019131Y0040164D02*
X0049890Y0040164D01*
X0047206Y0032172D02*
X0064650Y0032172D01*
X0064650Y0033130D02*
X0064650Y0025470D01*
X0065470Y0024650D01*
X0073130Y0024650D01*
X0073950Y0025470D01*
X0073950Y0027207D01*
X0083043Y0036300D01*
X0089426Y0036300D01*
X0090226Y0035500D01*
X0093374Y0035500D01*
X0095600Y0037726D01*
X0095600Y0040874D01*
X0093374Y0043100D01*
X0090226Y0043100D01*
X0089426Y0042300D01*
X0081203Y0042300D01*
X0080101Y0041843D01*
X0079257Y0040999D01*
X0072207Y0033950D01*
X0065470Y0033950D01*
X0064650Y0033130D01*
X0065290Y0033770D02*
X0003650Y0033770D01*
X0003650Y0035369D02*
X0073626Y0035369D01*
X0074841Y0036967D02*
X0075225Y0036967D01*
X0075600Y0038566D02*
X0076823Y0038566D01*
X0075600Y0040164D02*
X0078422Y0040164D01*
X0080020Y0041763D02*
X0074711Y0041763D01*
X0082111Y0035369D02*
X0098000Y0035369D01*
X0098000Y0035874D02*
X0098000Y0032726D01*
X0100226Y0030500D01*
X0103374Y0030500D01*
X0105600Y0032726D01*
X0105600Y0035874D01*
X0103374Y0038100D01*
X0100226Y0038100D01*
X0098000Y0035874D01*
X0099093Y0036967D02*
X0094841Y0036967D01*
X0095600Y0038566D02*
X0107600Y0038566D01*
X0107600Y0039300D02*
X0107600Y0037560D01*
X0110060Y0035100D01*
X0111800Y0035100D01*
X0111800Y0039300D01*
X0111800Y0039300D01*
X0107600Y0039300D01*
X0107600Y0040164D02*
X0095600Y0040164D01*
X0094711Y0041763D02*
X0108323Y0041763D01*
X0111800Y0041763D02*
X0111800Y0041763D01*
X0111800Y0040164D02*
X0111800Y0040164D01*
X0111800Y0038566D02*
X0111800Y0038566D01*
X0111800Y0036967D02*
X0111800Y0036967D01*
X0111800Y0035369D02*
X0111800Y0035369D01*
X0113808Y0035369D02*
X0114800Y0035369D01*
X0114800Y0033770D02*
X0105600Y0033770D01*
X0105600Y0035369D02*
X0109792Y0035369D01*
X0108193Y0036967D02*
X0104507Y0036967D01*
X0098000Y0033770D02*
X0096375Y0033770D01*
X0096490Y0033655D02*
X0096155Y0033990D01*
X0095745Y0034227D01*
X0095287Y0034350D01*
X0091800Y0034350D01*
X0091800Y0029300D01*
X0091800Y0029300D01*
X0096850Y0029300D01*
X0096850Y0032787D01*
X0096727Y0033245D01*
X0096490Y0033655D01*
X0096850Y0032172D02*
X0098554Y0032172D01*
X0100153Y0030573D02*
X0096850Y0030573D01*
X0096850Y0029300D02*
X0091800Y0029300D01*
X0091800Y0029300D01*
X0091800Y0034350D01*
X0088313Y0034350D01*
X0087855Y0034227D01*
X0087445Y0033990D01*
X0087110Y0033655D01*
X0086873Y0033245D01*
X0086750Y0032787D01*
X0086750Y0029300D01*
X0091800Y0029300D01*
X0091800Y0024250D01*
X0095287Y0024250D01*
X0095745Y0024373D01*
X0096155Y0024610D01*
X0096490Y0024945D01*
X0096727Y0025355D01*
X0096850Y0025813D01*
X0096850Y0029300D01*
X0096850Y0028975D02*
X0114800Y0028975D01*
X0114800Y0030573D02*
X0103447Y0030573D01*
X0105046Y0032172D02*
X0114800Y0032172D01*
X0118800Y0032172D02*
X0196210Y0032172D01*
X0196210Y0030573D02*
X0118800Y0030573D01*
X0118800Y0028975D02*
X0196210Y0028975D01*
X0196210Y0027376D02*
X0118800Y0027376D01*
X0118800Y0025778D02*
X0196210Y0025778D01*
X0196210Y0024179D02*
X0118800Y0024179D01*
X0118800Y0022581D02*
X0196210Y0022581D01*
X0196210Y0020982D02*
X0118800Y0020982D01*
X0118800Y0019384D02*
X0196210Y0019384D01*
X0196210Y0017785D02*
X0183075Y0017785D01*
X0182556Y0018000D02*
X0181044Y0018000D01*
X0179647Y0017421D01*
X0178579Y0016353D01*
X0178000Y0014956D01*
X0178000Y0008644D01*
X0178579Y0007247D01*
X0179647Y0006179D01*
X0181044Y0005600D01*
X0182556Y0005600D01*
X0183953Y0006179D01*
X0185021Y0007247D01*
X0185600Y0008644D01*
X0185600Y0014956D01*
X0185021Y0016353D01*
X0183953Y0017421D01*
X0182556Y0018000D01*
X0180525Y0017785D02*
X0173075Y0017785D01*
X0172556Y0018000D02*
X0171044Y0018000D01*
X0169647Y0017421D01*
X0168579Y0016353D01*
X0168000Y0014956D01*
X0168000Y0008644D01*
X0168579Y0007247D01*
X0169647Y0006179D01*
X0171044Y0005600D01*
X0172556Y0005600D01*
X0173953Y0006179D01*
X0175021Y0007247D01*
X0175600Y0008644D01*
X0175600Y0014956D01*
X0175021Y0016353D01*
X0173953Y0017421D01*
X0172556Y0018000D01*
X0170525Y0017785D02*
X0163075Y0017785D01*
X0162556Y0018000D02*
X0161044Y0018000D01*
X0159647Y0017421D01*
X0158579Y0016353D01*
X0158000Y0014956D01*
X0158000Y0008644D01*
X0158579Y0007247D01*
X0159647Y0006179D01*
X0161044Y0005600D01*
X0162556Y0005600D01*
X0163953Y0006179D01*
X0165021Y0007247D01*
X0165600Y0008644D01*
X0165600Y0014956D01*
X0165021Y0016353D01*
X0163953Y0017421D01*
X0162556Y0018000D01*
X0160525Y0017785D02*
X0153075Y0017785D01*
X0152556Y0018000D02*
X0151044Y0018000D01*
X0149647Y0017421D01*
X0148579Y0016353D01*
X0148000Y0014956D01*
X0148000Y0008644D01*
X0148579Y0007247D01*
X0149647Y0006179D01*
X0151044Y0005600D01*
X0152556Y0005600D01*
X0153953Y0006179D01*
X0155021Y0007247D01*
X0155600Y0008644D01*
X0155600Y0014956D01*
X0155021Y0016353D01*
X0153953Y0017421D01*
X0152556Y0018000D01*
X0150525Y0017785D02*
X0144011Y0017785D01*
X0144001Y0017792D02*
X0143412Y0018092D01*
X0142784Y0018297D01*
X0142131Y0018400D01*
X0141800Y0018400D01*
X0141800Y0011800D01*
X0141800Y0011800D01*
X0146000Y0011800D01*
X0146000Y0014531D01*
X0145897Y0015184D01*
X0145692Y0015812D01*
X0145392Y0016401D01*
X0145004Y0016936D01*
X0144536Y0017404D01*
X0144001Y0017792D01*
X0145502Y0016187D02*
X0148510Y0016187D01*
X0148000Y0014588D02*
X0145991Y0014588D01*
X0146000Y0012990D02*
X0148000Y0012990D01*
X0148000Y0011391D02*
X0146000Y0011391D01*
X0146000Y0011800D02*
X0141800Y0011800D01*
X0141800Y0011800D01*
X0141800Y0011800D01*
X0137600Y0011800D01*
X0137600Y0014531D01*
X0137703Y0015184D01*
X0137908Y0015812D01*
X0138208Y0016401D01*
X0138596Y0016936D01*
X0139064Y0017404D01*
X0139599Y0017792D01*
X0140188Y0018092D01*
X0140816Y0018297D01*
X0141469Y0018400D01*
X0141800Y0018400D01*
X0141800Y0011800D01*
X0141800Y0005200D01*
X0142131Y0005200D01*
X0142784Y0005303D01*
X0143412Y0005508D01*
X0144001Y0005808D01*
X0144536Y0006196D01*
X0145004Y0006664D01*
X0145392Y0007199D01*
X0145692Y0007788D01*
X0145897Y0008416D01*
X0146000Y0009069D01*
X0146000Y0011800D01*
X0146000Y0009793D02*
X0148000Y0009793D01*
X0148186Y0008194D02*
X0145824Y0008194D01*
X0144935Y0006596D02*
X0149230Y0006596D01*
X0154370Y0006596D02*
X0159230Y0006596D01*
X0158186Y0008194D02*
X0155414Y0008194D01*
X0155600Y0009793D02*
X0158000Y0009793D01*
X0158000Y0011391D02*
X0155600Y0011391D01*
X0155600Y0012990D02*
X0158000Y0012990D01*
X0158000Y0014588D02*
X0155600Y0014588D01*
X0155090Y0016187D02*
X0158510Y0016187D01*
X0165090Y0016187D02*
X0168510Y0016187D01*
X0168000Y0014588D02*
X0165600Y0014588D01*
X0165600Y0012990D02*
X0168000Y0012990D01*
X0168000Y0011391D02*
X0165600Y0011391D01*
X0165600Y0009793D02*
X0168000Y0009793D01*
X0168186Y0008194D02*
X0165414Y0008194D01*
X0164370Y0006596D02*
X0169230Y0006596D01*
X0174370Y0006596D02*
X0179230Y0006596D01*
X0178186Y0008194D02*
X0175414Y0008194D01*
X0175600Y0009793D02*
X0178000Y0009793D01*
X0178000Y0011391D02*
X0175600Y0011391D01*
X0175600Y0012990D02*
X0178000Y0012990D01*
X0178000Y0014588D02*
X0175600Y0014588D01*
X0175090Y0016187D02*
X0178510Y0016187D01*
X0185090Y0016187D02*
X0196210Y0016187D01*
X0196210Y0014588D02*
X0185600Y0014588D01*
X0185600Y0012990D02*
X0196210Y0012990D01*
X0196210Y0011391D02*
X0185600Y0011391D01*
X0185600Y0009793D02*
X0196210Y0009793D01*
X0196210Y0008194D02*
X0185414Y0008194D01*
X0184370Y0006596D02*
X0196210Y0006596D01*
X0196210Y0004997D02*
X0056140Y0004997D01*
X0056500Y0006596D02*
X0069130Y0006596D01*
X0070226Y0005500D02*
X0068000Y0007726D01*
X0068000Y0010874D01*
X0070226Y0013100D01*
X0073374Y0013100D01*
X0075600Y0010874D01*
X0075600Y0007726D01*
X0073374Y0005500D01*
X0070226Y0005500D01*
X0068000Y0008194D02*
X0056310Y0008194D01*
X0055454Y0009793D02*
X0068000Y0009793D01*
X0068517Y0011391D02*
X0056604Y0011391D01*
X0058202Y0012990D02*
X0070116Y0012990D01*
X0069697Y0014250D02*
X0070483Y0014374D01*
X0071239Y0014620D01*
X0071947Y0014981D01*
X0072590Y0015448D01*
X0073152Y0016010D01*
X0073619Y0016653D01*
X0073980Y0017361D01*
X0074226Y0018117D01*
X0074350Y0018903D01*
X0074350Y0019300D01*
X0074350Y0019697D01*
X0074226Y0020483D01*
X0073980Y0021239D01*
X0073619Y0021947D01*
X0073152Y0022590D01*
X0072590Y0023152D01*
X0071947Y0023619D01*
X0071239Y0023980D01*
X0070483Y0024226D01*
X0069697Y0024350D01*
X0069300Y0024350D01*
X0069300Y0019300D01*
X0069300Y0019300D01*
X0074350Y0019300D01*
X0069300Y0019300D01*
X0069300Y0019300D01*
X0069300Y0019300D01*
X0064250Y0019300D01*
X0064250Y0019697D01*
X0064374Y0020483D01*
X0064620Y0021239D01*
X0064981Y0021947D01*
X0065448Y0022590D01*
X0066010Y0023152D01*
X0066653Y0023619D01*
X0067361Y0023980D01*
X0068117Y0024226D01*
X0068903Y0024350D01*
X0069300Y0024350D01*
X0069300Y0019300D01*
X0069300Y0014250D01*
X0069697Y0014250D01*
X0069300Y0014250D02*
X0069300Y0019300D01*
X0069300Y0019300D01*
X0064250Y0019300D01*
X0064250Y0018903D01*
X0064374Y0018117D01*
X0064620Y0017361D01*
X0064981Y0016653D01*
X0065448Y0016010D01*
X0066010Y0015448D01*
X0066653Y0014981D01*
X0067361Y0014620D01*
X0068117Y0014374D01*
X0068903Y0014250D01*
X0069300Y0014250D01*
X0069300Y0014588D02*
X0069300Y0014588D01*
X0069300Y0016187D02*
X0069300Y0016187D01*
X0069300Y0017785D02*
X0069300Y0017785D01*
X0069300Y0019384D02*
X0069300Y0019384D01*
X0069300Y0020982D02*
X0069300Y0020982D01*
X0069300Y0022581D02*
X0069300Y0022581D01*
X0069300Y0024179D02*
X0069300Y0024179D01*
X0067974Y0024179D02*
X0059392Y0024179D01*
X0059400Y0025778D02*
X0064650Y0025778D01*
X0064650Y0027376D02*
X0059400Y0027376D01*
X0058838Y0028975D02*
X0064650Y0028975D01*
X0064650Y0030573D02*
X0057239Y0030573D01*
X0051361Y0030573D02*
X0048805Y0030573D01*
X0044500Y0030573D02*
X0044100Y0030573D01*
X0044100Y0028975D02*
X0044500Y0028975D01*
X0044500Y0027100D02*
X0044100Y0027100D01*
X0044100Y0022800D01*
X0044100Y0017500D01*
X0044500Y0017500D01*
X0044500Y0027100D01*
X0044500Y0025778D02*
X0044100Y0025778D01*
X0044100Y0024179D02*
X0044500Y0024179D01*
X0044500Y0022581D02*
X0044100Y0022581D01*
X0044100Y0020982D02*
X0044500Y0020982D01*
X0044500Y0019384D02*
X0044100Y0019384D01*
X0044100Y0017785D02*
X0044500Y0017785D01*
X0044500Y0017100D02*
X0044500Y0011800D01*
X0046578Y0011800D01*
X0049200Y0014422D01*
X0049200Y0014188D01*
X0051888Y0011500D01*
X0050865Y0011500D01*
X0049138Y0010784D01*
X0047816Y0009462D01*
X0047100Y0007735D01*
X0047100Y0005865D01*
X0047816Y0004138D01*
X0048303Y0003650D01*
X0015815Y0003650D01*
X0016162Y0004127D01*
X0016526Y0004842D01*
X0016774Y0005606D01*
X0016900Y0006399D01*
X0016900Y0006500D01*
X0012100Y0006500D01*
X0012100Y0007100D01*
X0016900Y0007100D01*
X0016900Y0007201D01*
X0016774Y0007994D01*
X0016526Y0008758D01*
X0016162Y0009473D01*
X0015690Y0010122D01*
X0015122Y0010690D01*
X0014473Y0011162D01*
X0014398Y0011200D01*
X0016412Y0011200D01*
X0019400Y0014188D01*
X0019400Y0014422D01*
X0022022Y0011800D01*
X0024100Y0011800D01*
X0024100Y0017100D01*
X0024500Y0017100D01*
X0024500Y0011800D01*
X0026578Y0011800D01*
X0028800Y0014022D01*
X0028800Y0014022D01*
X0032022Y0010800D01*
X0034100Y0010800D01*
X0034100Y0016100D01*
X0034500Y0016100D01*
X0034500Y0010800D01*
X0036578Y0010800D01*
X0039800Y0014022D01*
X0042022Y0011800D01*
X0044100Y0011800D01*
X0044100Y0017100D01*
X0044500Y0017100D01*
X0044500Y0016187D02*
X0044100Y0016187D01*
X0044100Y0014588D02*
X0044500Y0014588D01*
X0044500Y0012990D02*
X0044100Y0012990D01*
X0040832Y0012990D02*
X0038768Y0012990D01*
X0039800Y0014022D02*
X0039800Y0014022D01*
X0037169Y0011391D02*
X0050602Y0011391D01*
X0050398Y0012990D02*
X0047768Y0012990D01*
X0048146Y0009793D02*
X0015930Y0009793D01*
X0016604Y0011391D02*
X0031431Y0011391D01*
X0029832Y0012990D02*
X0027768Y0012990D01*
X0024500Y0012990D02*
X0024100Y0012990D01*
X0020832Y0012990D02*
X0018202Y0012990D01*
X0024100Y0014588D02*
X0024500Y0014588D01*
X0024500Y0016187D02*
X0024100Y0016187D01*
X0024100Y0017500D02*
X0024100Y0021800D01*
X0024100Y0027100D01*
X0024500Y0027100D01*
X0024500Y0017500D01*
X0024100Y0017500D01*
X0024100Y0017785D02*
X0024500Y0017785D01*
X0024500Y0019384D02*
X0024100Y0019384D01*
X0024100Y0020982D02*
X0024500Y0020982D01*
X0024500Y0022581D02*
X0024100Y0022581D01*
X0024100Y0024179D02*
X0024500Y0024179D01*
X0024500Y0025778D02*
X0024100Y0025778D01*
X0024100Y0028975D02*
X0024500Y0028975D01*
X0024500Y0030573D02*
X0024100Y0030573D01*
X0024100Y0032172D02*
X0024500Y0032172D01*
X0027206Y0032172D02*
X0041394Y0032172D01*
X0039795Y0030573D02*
X0037805Y0030573D01*
X0034500Y0030573D02*
X0034100Y0030573D01*
X0034100Y0028975D02*
X0034500Y0028975D01*
X0034500Y0027376D02*
X0034100Y0027376D01*
X0034100Y0026100D02*
X0034500Y0026100D01*
X0034500Y0016500D01*
X0034100Y0016500D01*
X0034100Y0021800D01*
X0034100Y0026100D01*
X0034100Y0025778D02*
X0034500Y0025778D01*
X0034500Y0024179D02*
X0034100Y0024179D01*
X0034100Y0022581D02*
X0034500Y0022581D01*
X0034500Y0020982D02*
X0034100Y0020982D01*
X0034100Y0019384D02*
X0034500Y0019384D01*
X0034500Y0017785D02*
X0034100Y0017785D01*
X0034100Y0014588D02*
X0034500Y0014588D01*
X0034500Y0012990D02*
X0034100Y0012990D01*
X0034100Y0011391D02*
X0034500Y0011391D01*
X0047290Y0008194D02*
X0016709Y0008194D01*
X0016577Y0004997D02*
X0047460Y0004997D01*
X0047100Y0006596D02*
X0012100Y0006596D01*
X0011500Y0006596D02*
X0003650Y0006596D01*
X0003650Y0008194D02*
X0006891Y0008194D01*
X0007670Y0009793D02*
X0003650Y0009793D01*
X0003650Y0011391D02*
X0009577Y0011391D01*
X0010398Y0012990D02*
X0003650Y0012990D01*
X0003650Y0014588D02*
X0009200Y0014588D01*
X0009200Y0016187D02*
X0003650Y0016187D01*
X0003650Y0017785D02*
X0009200Y0017785D01*
X0010171Y0019384D02*
X0003650Y0019384D01*
X0003650Y0020982D02*
X0011770Y0020982D01*
X0010807Y0022581D02*
X0003650Y0022581D01*
X0003650Y0024179D02*
X0009208Y0024179D01*
X0009200Y0025778D02*
X0003650Y0025778D01*
X0003650Y0027376D02*
X0009200Y0027376D01*
X0009762Y0028975D02*
X0003650Y0028975D01*
X0003650Y0030573D02*
X0011361Y0030573D01*
X0017239Y0030573D02*
X0019795Y0030573D01*
X0021394Y0032172D02*
X0003650Y0032172D01*
X0014000Y0038566D02*
X0014600Y0038566D01*
X0014600Y0040164D02*
X0014000Y0040164D01*
X0014000Y0043361D02*
X0014600Y0043361D01*
X0014600Y0044960D02*
X0014000Y0044960D01*
X0010292Y0044960D02*
X0003650Y0044960D01*
X0003650Y0043361D02*
X0009445Y0043361D01*
X0028805Y0030573D02*
X0030795Y0030573D01*
X0044100Y0032172D02*
X0044500Y0032172D01*
X0057793Y0022581D02*
X0065441Y0022581D01*
X0064537Y0020982D02*
X0056830Y0020982D01*
X0058429Y0019384D02*
X0064250Y0019384D01*
X0064482Y0017785D02*
X0059400Y0017785D01*
X0059400Y0016187D02*
X0065320Y0016187D01*
X0067460Y0014588D02*
X0059400Y0014588D01*
X0071140Y0014588D02*
X0097600Y0014588D01*
X0097600Y0014300D02*
X0101800Y0014300D01*
X0101800Y0014300D01*
X0101800Y0018500D01*
X0103540Y0018500D01*
X0106000Y0016040D01*
X0106000Y0014300D01*
X0101800Y0014300D01*
X0101800Y0014300D01*
X0101800Y0014300D01*
X0101800Y0018500D01*
X0100060Y0018500D01*
X0097600Y0016040D01*
X0097600Y0014300D01*
X0097600Y0012560D01*
X0100060Y0010100D01*
X0101800Y0010100D01*
X0103540Y0010100D01*
X0106000Y0012560D01*
X0106000Y0014300D01*
X0101800Y0014300D01*
X0101800Y0010100D01*
X0101800Y0014300D01*
X0101800Y0014300D01*
X0097600Y0014300D01*
X0097600Y0012990D02*
X0093484Y0012990D01*
X0093374Y0013100D02*
X0090226Y0013100D01*
X0088000Y0010874D01*
X0088000Y0007726D01*
X0090226Y0005500D01*
X0093374Y0005500D01*
X0095600Y0007726D01*
X0095600Y0010874D01*
X0093374Y0013100D01*
X0095083Y0011391D02*
X0098769Y0011391D01*
X0101800Y0011391D02*
X0101800Y0011391D01*
X0101800Y0012990D02*
X0101800Y0012990D01*
X0101800Y0014588D02*
X0101800Y0014588D01*
X0101800Y0016187D02*
X0101800Y0016187D01*
X0101800Y0017785D02*
X0101800Y0017785D01*
X0104255Y0017785D02*
X0108000Y0017785D01*
X0109539Y0016187D02*
X0105853Y0016187D01*
X0106000Y0014588D02*
X0116183Y0014588D01*
X0114800Y0016187D02*
X0114061Y0016187D01*
X0118800Y0017785D02*
X0120525Y0017785D01*
X0123075Y0017785D02*
X0130525Y0017785D01*
X0131044Y0018000D02*
X0129647Y0017421D01*
X0128579Y0016353D01*
X0128000Y0014956D01*
X0128000Y0008644D01*
X0128579Y0007247D01*
X0129647Y0006179D01*
X0131044Y0005600D01*
X0132556Y0005600D01*
X0133953Y0006179D01*
X0135021Y0007247D01*
X0135600Y0008644D01*
X0135600Y0014956D01*
X0135021Y0016353D01*
X0133953Y0017421D01*
X0132556Y0018000D01*
X0131044Y0018000D01*
X0133075Y0017785D02*
X0139589Y0017785D01*
X0138098Y0016187D02*
X0135090Y0016187D01*
X0135600Y0014588D02*
X0137609Y0014588D01*
X0137600Y0012990D02*
X0135600Y0012990D01*
X0135600Y0011391D02*
X0137600Y0011391D01*
X0137600Y0011800D02*
X0137600Y0009069D01*
X0137703Y0008416D01*
X0137908Y0007788D01*
X0138208Y0007199D01*
X0138596Y0006664D01*
X0139064Y0006196D01*
X0139599Y0005808D01*
X0140188Y0005508D01*
X0140816Y0005303D01*
X0141469Y0005200D01*
X0141800Y0005200D01*
X0141800Y0011800D01*
X0141800Y0011800D01*
X0137600Y0011800D01*
X0137600Y0009793D02*
X0135600Y0009793D01*
X0135414Y0008194D02*
X0137776Y0008194D01*
X0138665Y0006596D02*
X0134370Y0006596D01*
X0129230Y0006596D02*
X0124370Y0006596D01*
X0125414Y0008194D02*
X0128186Y0008194D01*
X0128000Y0009793D02*
X0125600Y0009793D01*
X0125600Y0011391D02*
X0128000Y0011391D01*
X0128000Y0012990D02*
X0125600Y0012990D01*
X0125600Y0014588D02*
X0128000Y0014588D01*
X0128510Y0016187D02*
X0125090Y0016187D01*
X0117782Y0012990D02*
X0106000Y0012990D01*
X0104831Y0011391D02*
X0118000Y0011391D01*
X0118000Y0009793D02*
X0095600Y0009793D01*
X0095600Y0008194D02*
X0118186Y0008194D01*
X0119230Y0006596D02*
X0094470Y0006596D01*
X0089130Y0006596D02*
X0074470Y0006596D01*
X0075600Y0008194D02*
X0088000Y0008194D01*
X0088000Y0009793D02*
X0075600Y0009793D01*
X0075083Y0011391D02*
X0088517Y0011391D01*
X0090116Y0012990D02*
X0073484Y0012990D01*
X0073280Y0016187D02*
X0088337Y0016187D01*
X0087858Y0016666D02*
X0089166Y0015358D01*
X0090875Y0014650D01*
X0092725Y0014650D01*
X0094434Y0015358D01*
X0095742Y0016666D01*
X0096450Y0018375D01*
X0096450Y0020225D01*
X0095742Y0021934D01*
X0094434Y0023242D01*
X0092725Y0023950D01*
X0090875Y0023950D01*
X0089166Y0023242D01*
X0087858Y0021934D01*
X0087150Y0020225D01*
X0087150Y0018375D01*
X0087858Y0016666D01*
X0087394Y0017785D02*
X0074118Y0017785D01*
X0074350Y0019384D02*
X0087150Y0019384D01*
X0087464Y0020982D02*
X0074063Y0020982D01*
X0073159Y0022581D02*
X0088505Y0022581D01*
X0088313Y0024250D02*
X0091800Y0024250D01*
X0091800Y0029300D01*
X0091800Y0029300D01*
X0091800Y0029300D01*
X0086750Y0029300D01*
X0086750Y0025813D01*
X0086873Y0025355D01*
X0087110Y0024945D01*
X0087445Y0024610D01*
X0087855Y0024373D01*
X0088313Y0024250D01*
X0086759Y0025778D02*
X0073950Y0025778D01*
X0074119Y0027376D02*
X0086750Y0027376D01*
X0086750Y0028975D02*
X0075717Y0028975D01*
X0077316Y0030573D02*
X0086750Y0030573D01*
X0086750Y0032172D02*
X0078914Y0032172D01*
X0080513Y0033770D02*
X0087225Y0033770D01*
X0091800Y0033770D02*
X0091800Y0033770D01*
X0091800Y0032172D02*
X0091800Y0032172D01*
X0091800Y0030573D02*
X0091800Y0030573D01*
X0091800Y0028975D02*
X0091800Y0028975D01*
X0091800Y0027376D02*
X0091800Y0027376D01*
X0091800Y0025778D02*
X0091800Y0025778D01*
X0095095Y0022581D02*
X0109707Y0022581D01*
X0108108Y0020982D02*
X0096136Y0020982D01*
X0096450Y0019384D02*
X0108000Y0019384D01*
X0113893Y0022581D02*
X0114800Y0022581D01*
X0114800Y0024179D02*
X0070626Y0024179D01*
X0095263Y0016187D02*
X0097747Y0016187D01*
X0096206Y0017785D02*
X0099345Y0017785D01*
X0096841Y0025778D02*
X0114800Y0025778D01*
X0114800Y0027376D02*
X0096850Y0027376D01*
X0118800Y0033770D02*
X0196210Y0033770D01*
X0196210Y0035369D02*
X0142985Y0035369D01*
X0141800Y0035369D02*
X0141800Y0035369D01*
X0141800Y0035200D02*
X0141800Y0041800D01*
X0137600Y0041800D01*
X0137600Y0039069D01*
X0137703Y0038416D01*
X0137908Y0037788D01*
X0138208Y0037199D01*
X0138596Y0036664D01*
X0139064Y0036196D01*
X0139599Y0035808D01*
X0140188Y0035508D01*
X0140816Y0035303D01*
X0141469Y0035200D01*
X0141800Y0035200D01*
X0140615Y0035369D02*
X0118800Y0035369D01*
X0118800Y0036967D02*
X0118859Y0036967D01*
X0124741Y0036967D02*
X0128859Y0036967D01*
X0128032Y0038566D02*
X0125568Y0038566D01*
X0125600Y0040164D02*
X0128000Y0040164D01*
X0128000Y0041763D02*
X0125600Y0041763D01*
X0125600Y0043361D02*
X0128000Y0043361D01*
X0128002Y0044960D02*
X0125598Y0044960D01*
X0124816Y0046558D02*
X0128784Y0046558D01*
X0126031Y0048157D02*
X0132569Y0048157D01*
X0130971Y0049755D02*
X0127629Y0049755D01*
X0128100Y0051354D02*
X0130500Y0051354D01*
X0130319Y0052952D02*
X0128100Y0052952D01*
X0128721Y0054551D02*
X0126923Y0054551D01*
X0127300Y0056149D02*
X0121300Y0056149D01*
X0121300Y0054551D02*
X0121677Y0054551D01*
X0121300Y0057748D02*
X0127300Y0057748D01*
X0127300Y0059346D02*
X0121300Y0059346D01*
X0121300Y0060945D02*
X0127300Y0060945D01*
X0127300Y0062543D02*
X0121300Y0062543D01*
X0121300Y0064142D02*
X0127300Y0064142D01*
X0127300Y0065740D02*
X0121300Y0065740D01*
X0121300Y0067339D02*
X0127300Y0067339D01*
X0127300Y0068937D02*
X0121300Y0068937D01*
X0121300Y0070536D02*
X0127300Y0070536D01*
X0127300Y0072134D02*
X0121300Y0072134D01*
X0121300Y0073733D02*
X0127300Y0073733D01*
X0127300Y0075332D02*
X0121300Y0075332D01*
X0121300Y0076930D02*
X0127300Y0076930D01*
X0127300Y0078529D02*
X0126403Y0078529D01*
X0122197Y0078529D02*
X0121300Y0078529D01*
X0120500Y0081726D02*
X0119703Y0081726D01*
X0120500Y0083324D02*
X0118104Y0083324D01*
X0116506Y0084923D02*
X0122049Y0084923D01*
X0126551Y0084923D02*
X0127300Y0084923D01*
X0127300Y0086521D02*
X0114907Y0086521D01*
X0113800Y0088120D02*
X0127300Y0088120D01*
X0127300Y0089718D02*
X0115092Y0089718D01*
X0115600Y0091317D02*
X0127300Y0091317D01*
X0127300Y0092915D02*
X0115600Y0092915D01*
X0114460Y0094514D02*
X0127300Y0094514D01*
X0127300Y0096112D02*
X0113800Y0096112D01*
X0113800Y0097711D02*
X0127300Y0097711D01*
X0127300Y0099309D02*
X0115600Y0099309D01*
X0115600Y0100908D02*
X0127300Y0100908D01*
X0127300Y0102506D02*
X0115600Y0102506D01*
X0115600Y0104105D02*
X0127300Y0104105D01*
X0126886Y0105703D02*
X0113800Y0105703D01*
X0113800Y0107302D02*
X0126650Y0107302D01*
X0127653Y0108900D02*
X0114274Y0108900D01*
X0115374Y0110499D02*
X0138000Y0110499D01*
X0138000Y0112097D02*
X0115600Y0112097D01*
X0115128Y0113696D02*
X0138000Y0113696D01*
X0138000Y0108900D02*
X0130947Y0108900D01*
X0131950Y0107302D02*
X0196210Y0107302D01*
X0196210Y0108900D02*
X0145600Y0108900D01*
X0145600Y0110499D02*
X0196210Y0110499D01*
X0196210Y0112097D02*
X0145600Y0112097D01*
X0145600Y0113696D02*
X0196210Y0113696D01*
X0196210Y0105703D02*
X0131714Y0105703D01*
X0131300Y0104105D02*
X0138731Y0104105D01*
X0138000Y0102506D02*
X0131300Y0102506D01*
X0131300Y0100908D02*
X0138056Y0100908D01*
X0138917Y0099309D02*
X0131300Y0099309D01*
X0131300Y0097711D02*
X0139800Y0097711D01*
X0139800Y0096112D02*
X0131300Y0096112D01*
X0131300Y0094514D02*
X0139140Y0094514D01*
X0138000Y0092915D02*
X0131300Y0092915D01*
X0131300Y0091317D02*
X0138000Y0091317D01*
X0137300Y0089718D02*
X0131300Y0089718D01*
X0131300Y0088120D02*
X0137300Y0088120D01*
X0137300Y0086521D02*
X0131300Y0086521D01*
X0131300Y0084923D02*
X0131483Y0084923D01*
X0134300Y0084923D02*
X0134300Y0084923D01*
X0134300Y0083324D02*
X0134300Y0083324D01*
X0134300Y0081800D02*
X0134300Y0077600D01*
X0136040Y0077600D01*
X0137300Y0078860D01*
X0137300Y0054174D01*
X0135874Y0055600D01*
X0133328Y0055600D01*
X0131300Y0057628D01*
X0131300Y0078860D01*
X0132560Y0077600D01*
X0134300Y0077600D01*
X0134300Y0081800D01*
X0134300Y0081800D01*
X0134300Y0081726D02*
X0134300Y0081726D01*
X0134300Y0080127D02*
X0134300Y0080127D01*
X0134300Y0078529D02*
X0134300Y0078529D01*
X0136968Y0078529D02*
X0137300Y0078529D01*
X0137300Y0076930D02*
X0131300Y0076930D01*
X0131300Y0078529D02*
X0131632Y0078529D01*
X0131300Y0075332D02*
X0137300Y0075332D01*
X0137300Y0073733D02*
X0131300Y0073733D01*
X0131300Y0072134D02*
X0137300Y0072134D01*
X0137300Y0070536D02*
X0131300Y0070536D01*
X0131300Y0068937D02*
X0137300Y0068937D01*
X0137300Y0067339D02*
X0131300Y0067339D01*
X0131300Y0065740D02*
X0137300Y0065740D01*
X0137300Y0064142D02*
X0131300Y0064142D01*
X0131300Y0062543D02*
X0137300Y0062543D01*
X0137300Y0060945D02*
X0131300Y0060945D01*
X0131300Y0059346D02*
X0137300Y0059346D01*
X0137300Y0057748D02*
X0131300Y0057748D01*
X0132779Y0056149D02*
X0137300Y0056149D01*
X0137300Y0054551D02*
X0136923Y0054551D01*
X0141300Y0054551D02*
X0141677Y0054551D01*
X0141300Y0056149D02*
X0167300Y0056149D01*
X0166040Y0056000D02*
X0167300Y0054740D01*
X0167300Y0077628D01*
X0168472Y0078800D01*
X0170500Y0080828D01*
X0170500Y0083374D01*
X0172726Y0085600D01*
X0175874Y0085600D01*
X0178100Y0083374D01*
X0178100Y0080226D01*
X0175874Y0078000D01*
X0173328Y0078000D01*
X0171300Y0075972D01*
X0171300Y0054174D01*
X0172726Y0055600D01*
X0175874Y0055600D01*
X0178100Y0053374D01*
X0178100Y0050226D01*
X0175874Y0048000D01*
X0172726Y0048000D01*
X0171300Y0049426D01*
X0171300Y0048000D01*
X0172556Y0048000D01*
X0173953Y0047421D01*
X0175021Y0046353D01*
X0175600Y0044956D01*
X0175600Y0038644D01*
X0175021Y0037247D01*
X0173953Y0036179D01*
X0172556Y0035600D01*
X0171044Y0035600D01*
X0169647Y0036179D01*
X0168579Y0037247D01*
X0168000Y0038644D01*
X0168000Y0042772D01*
X0167300Y0043472D01*
X0167300Y0048860D01*
X0166040Y0047600D01*
X0164300Y0047600D01*
X0164300Y0051800D01*
X0164300Y0051800D01*
X0164300Y0056000D01*
X0166040Y0056000D01*
X0164300Y0056000D02*
X0162560Y0056000D01*
X0160100Y0053540D01*
X0160100Y0051800D01*
X0164300Y0051800D01*
X0164300Y0051800D01*
X0164300Y0051800D01*
X0164300Y0056000D01*
X0164300Y0054551D02*
X0164300Y0054551D01*
X0164300Y0052952D02*
X0164300Y0052952D01*
X0164300Y0051800D02*
X0160100Y0051800D01*
X0160100Y0050060D01*
X0162160Y0048000D01*
X0161044Y0048000D01*
X0159647Y0047421D01*
X0158579Y0046353D01*
X0158000Y0044956D01*
X0158000Y0038644D01*
X0158579Y0037247D01*
X0159647Y0036179D01*
X0161044Y0035600D01*
X0162556Y0035600D01*
X0163953Y0036179D01*
X0165021Y0037247D01*
X0165600Y0038644D01*
X0165600Y0044956D01*
X0165021Y0046353D01*
X0163953Y0047421D01*
X0163522Y0047600D01*
X0164300Y0047600D01*
X0164300Y0051800D01*
X0164300Y0051354D02*
X0164300Y0051354D01*
X0164300Y0049755D02*
X0164300Y0049755D01*
X0164300Y0048157D02*
X0164300Y0048157D01*
X0166597Y0048157D02*
X0167300Y0048157D01*
X0171300Y0048157D02*
X0172569Y0048157D01*
X0174816Y0046558D02*
X0178784Y0046558D01*
X0178002Y0044960D02*
X0175598Y0044960D01*
X0175600Y0043361D02*
X0178000Y0043361D01*
X0178000Y0041763D02*
X0175600Y0041763D01*
X0175600Y0040164D02*
X0178000Y0040164D01*
X0178032Y0038566D02*
X0175568Y0038566D01*
X0174741Y0036967D02*
X0178859Y0036967D01*
X0184741Y0036967D02*
X0196210Y0036967D01*
X0196210Y0038566D02*
X0185568Y0038566D01*
X0185600Y0040164D02*
X0196210Y0040164D01*
X0196210Y0041763D02*
X0185600Y0041763D01*
X0185600Y0043361D02*
X0196210Y0043361D01*
X0196210Y0044960D02*
X0194020Y0044960D01*
X0195740Y0046558D02*
X0196210Y0046558D01*
X0190100Y0046558D02*
X0188500Y0046558D01*
X0188500Y0044960D02*
X0190100Y0044960D01*
X0190100Y0048157D02*
X0188500Y0048157D01*
X0188500Y0049755D02*
X0190100Y0049755D01*
X0188500Y0051354D02*
X0178100Y0051354D01*
X0177629Y0049755D02*
X0181255Y0049755D01*
X0181825Y0048157D02*
X0176031Y0048157D01*
X0178100Y0052952D02*
X0181080Y0052952D01*
X0181456Y0054551D02*
X0176923Y0054551D01*
X0171677Y0054551D02*
X0171300Y0054551D01*
X0171300Y0056149D02*
X0182227Y0056149D01*
X0183510Y0057748D02*
X0171300Y0057748D01*
X0171300Y0059346D02*
X0185830Y0059346D01*
X0188500Y0059346D02*
X0190100Y0059346D01*
X0190100Y0057748D02*
X0188500Y0057748D01*
X0188500Y0056149D02*
X0190100Y0056149D01*
X0190100Y0054551D02*
X0188500Y0054551D01*
X0188500Y0052952D02*
X0190100Y0052952D01*
X0195090Y0057748D02*
X0196210Y0057748D01*
X0196210Y0059346D02*
X0192770Y0059346D01*
X0196210Y0060945D02*
X0171300Y0060945D01*
X0167300Y0060945D02*
X0141300Y0060945D01*
X0141300Y0059346D02*
X0167300Y0059346D01*
X0167300Y0057748D02*
X0141300Y0057748D01*
X0146923Y0054551D02*
X0151677Y0054551D01*
X0152726Y0055600D02*
X0150500Y0053374D01*
X0150500Y0050226D01*
X0152726Y0048000D01*
X0155874Y0048000D01*
X0158100Y0050226D01*
X0158100Y0053374D01*
X0155874Y0055600D01*
X0152726Y0055600D01*
X0150500Y0052952D02*
X0148100Y0052952D01*
X0148100Y0051354D02*
X0150500Y0051354D01*
X0150971Y0049755D02*
X0147629Y0049755D01*
X0146031Y0048157D02*
X0152569Y0048157D01*
X0152556Y0048000D02*
X0151044Y0048000D01*
X0149647Y0047421D01*
X0148579Y0046353D01*
X0148000Y0044956D01*
X0148000Y0038644D01*
X0148579Y0037247D01*
X0149647Y0036179D01*
X0151044Y0035600D01*
X0152556Y0035600D01*
X0153953Y0036179D01*
X0155021Y0037247D01*
X0155600Y0038644D01*
X0155600Y0044956D01*
X0155021Y0046353D01*
X0153953Y0047421D01*
X0152556Y0048000D01*
X0154816Y0046558D02*
X0158784Y0046558D01*
X0158002Y0044960D02*
X0155598Y0044960D01*
X0155600Y0043361D02*
X0158000Y0043361D01*
X0158000Y0041763D02*
X0155600Y0041763D01*
X0155600Y0040164D02*
X0158000Y0040164D01*
X0158032Y0038566D02*
X0155568Y0038566D01*
X0154741Y0036967D02*
X0158859Y0036967D01*
X0164741Y0036967D02*
X0168859Y0036967D01*
X0168032Y0038566D02*
X0165568Y0038566D01*
X0165600Y0040164D02*
X0168000Y0040164D01*
X0168000Y0041763D02*
X0165600Y0041763D01*
X0165600Y0043361D02*
X0167410Y0043361D01*
X0167300Y0044960D02*
X0165598Y0044960D01*
X0164816Y0046558D02*
X0167300Y0046558D01*
X0162003Y0048157D02*
X0156031Y0048157D01*
X0157629Y0049755D02*
X0160405Y0049755D01*
X0160100Y0051354D02*
X0158100Y0051354D01*
X0158100Y0052952D02*
X0160100Y0052952D01*
X0161111Y0054551D02*
X0156923Y0054551D01*
X0148784Y0046558D02*
X0145278Y0046558D01*
X0145932Y0044960D02*
X0148002Y0044960D01*
X0148000Y0043361D02*
X0146000Y0043361D01*
X0146000Y0041763D02*
X0148000Y0041763D01*
X0148000Y0040164D02*
X0146000Y0040164D01*
X0145920Y0038566D02*
X0148032Y0038566D01*
X0148859Y0036967D02*
X0145224Y0036967D01*
X0141800Y0036967D02*
X0141800Y0036967D01*
X0141800Y0038566D02*
X0141800Y0038566D01*
X0141800Y0040164D02*
X0141800Y0040164D01*
X0141800Y0041763D02*
X0141800Y0041763D01*
X0141800Y0043361D02*
X0141800Y0043361D01*
X0141800Y0044960D02*
X0141800Y0044960D01*
X0141800Y0046558D02*
X0141800Y0046558D01*
X0141800Y0048157D02*
X0141800Y0048157D01*
X0137600Y0043361D02*
X0136190Y0043361D01*
X0135600Y0041763D02*
X0137600Y0041763D01*
X0137600Y0040164D02*
X0135600Y0040164D01*
X0135568Y0038566D02*
X0137680Y0038566D01*
X0138376Y0036967D02*
X0134741Y0036967D01*
X0122569Y0048157D02*
X0121300Y0048157D01*
X0114800Y0043361D02*
X0113678Y0043361D01*
X0111800Y0043361D02*
X0111800Y0043361D01*
X0141300Y0062543D02*
X0167300Y0062543D01*
X0167300Y0064142D02*
X0141300Y0064142D01*
X0141300Y0065740D02*
X0167300Y0065740D01*
X0171300Y0065740D02*
X0196210Y0065740D01*
X0196210Y0064142D02*
X0171300Y0064142D01*
X0171300Y0062543D02*
X0196210Y0062543D01*
X0196210Y0067339D02*
X0171300Y0067339D01*
X0171300Y0068937D02*
X0196210Y0068937D01*
X0196210Y0070536D02*
X0171300Y0070536D01*
X0167300Y0070536D02*
X0141300Y0070536D01*
X0141300Y0068937D02*
X0167300Y0068937D01*
X0167300Y0067339D02*
X0141300Y0067339D01*
X0141300Y0072134D02*
X0167300Y0072134D01*
X0167300Y0073733D02*
X0141300Y0073733D01*
X0141300Y0075332D02*
X0167300Y0075332D01*
X0171300Y0075332D02*
X0184596Y0075332D01*
X0182998Y0076930D02*
X0172258Y0076930D01*
X0169799Y0080127D02*
X0168001Y0080127D01*
X0168100Y0080226D02*
X0165874Y0078000D01*
X0162726Y0078000D01*
X0160500Y0080226D01*
X0160500Y0083374D01*
X0162726Y0085600D01*
X0165874Y0085600D01*
X0168100Y0083374D01*
X0168100Y0080226D01*
X0168200Y0078529D02*
X0166403Y0078529D01*
X0167300Y0076930D02*
X0141300Y0076930D01*
X0141300Y0078529D02*
X0142197Y0078529D01*
X0146403Y0078529D02*
X0151632Y0078529D01*
X0152560Y0077600D02*
X0150100Y0080060D01*
X0150100Y0081800D01*
X0154300Y0081800D01*
X0154300Y0081800D01*
X0154300Y0086000D01*
X0156040Y0086000D01*
X0158500Y0083540D01*
X0158500Y0081800D01*
X0154300Y0081800D01*
X0154300Y0081800D01*
X0154300Y0081800D01*
X0154300Y0086000D01*
X0152560Y0086000D01*
X0150100Y0083540D01*
X0150100Y0081800D01*
X0154300Y0081800D01*
X0158500Y0081800D01*
X0158500Y0080060D01*
X0156040Y0077600D01*
X0154300Y0077600D01*
X0154300Y0081800D01*
X0154300Y0081800D01*
X0154300Y0077600D01*
X0152560Y0077600D01*
X0154300Y0078529D02*
X0154300Y0078529D01*
X0154300Y0080127D02*
X0154300Y0080127D01*
X0156968Y0078529D02*
X0162197Y0078529D01*
X0160599Y0080127D02*
X0158500Y0080127D01*
X0158500Y0081726D02*
X0160500Y0081726D01*
X0160500Y0083324D02*
X0158500Y0083324D01*
X0157117Y0084923D02*
X0162049Y0084923D01*
X0166551Y0084923D02*
X0172049Y0084923D01*
X0170500Y0083324D02*
X0168100Y0083324D01*
X0168100Y0081726D02*
X0170500Y0081726D01*
X0176403Y0078529D02*
X0182104Y0078529D01*
X0181442Y0080127D02*
X0178001Y0080127D01*
X0178100Y0081726D02*
X0181400Y0081726D01*
X0181400Y0083324D02*
X0178100Y0083324D01*
X0176551Y0084923D02*
X0182043Y0084923D01*
X0182849Y0086521D02*
X0141300Y0086521D01*
X0143494Y0088120D02*
X0150106Y0088120D01*
X0150226Y0088000D02*
X0153374Y0088000D01*
X0155600Y0090226D01*
X0155600Y0093374D01*
X0153374Y0095600D01*
X0150226Y0095600D01*
X0148000Y0093374D01*
X0148000Y0090226D01*
X0150226Y0088000D01*
X0148508Y0089718D02*
X0145092Y0089718D01*
X0145600Y0091317D02*
X0148000Y0091317D01*
X0148000Y0092915D02*
X0145600Y0092915D01*
X0144460Y0094514D02*
X0149140Y0094514D01*
X0154460Y0094514D02*
X0169140Y0094514D01*
X0170226Y0095600D02*
X0168000Y0093374D01*
X0168000Y0090226D01*
X0170226Y0088000D01*
X0173374Y0088000D01*
X0175600Y0090226D01*
X0175600Y0093374D01*
X0174651Y0094323D01*
X0178328Y0098000D01*
X0180874Y0098000D01*
X0183100Y0100226D01*
X0183100Y0103374D01*
X0180874Y0105600D01*
X0177726Y0105600D01*
X0175500Y0103374D01*
X0175500Y0100828D01*
X0170272Y0095600D01*
X0170226Y0095600D01*
X0170784Y0096112D02*
X0143800Y0096112D01*
X0143800Y0097711D02*
X0172382Y0097711D01*
X0173981Y0099309D02*
X0152183Y0099309D01*
X0153100Y0100908D02*
X0175500Y0100908D01*
X0175500Y0102506D02*
X0153100Y0102506D01*
X0152369Y0104105D02*
X0176231Y0104105D01*
X0182369Y0104105D02*
X0196210Y0104105D01*
X0196210Y0102506D02*
X0183100Y0102506D01*
X0183100Y0100908D02*
X0196210Y0100908D01*
X0196210Y0099309D02*
X0182183Y0099309D01*
X0178039Y0097711D02*
X0196210Y0097711D01*
X0196210Y0096112D02*
X0176441Y0096112D01*
X0174842Y0094514D02*
X0196210Y0094514D01*
X0196210Y0092915D02*
X0175600Y0092915D01*
X0175600Y0091317D02*
X0196210Y0091317D01*
X0196210Y0089718D02*
X0175092Y0089718D01*
X0173494Y0088120D02*
X0184447Y0088120D01*
X0194153Y0088120D02*
X0196210Y0088120D01*
X0196210Y0086521D02*
X0195751Y0086521D01*
X0195602Y0076930D02*
X0196210Y0076930D01*
X0196210Y0075332D02*
X0194004Y0075332D01*
X0196210Y0073733D02*
X0171300Y0073733D01*
X0171300Y0072134D02*
X0196210Y0072134D01*
X0170106Y0088120D02*
X0153494Y0088120D01*
X0155092Y0089718D02*
X0168508Y0089718D01*
X0168000Y0091317D02*
X0155600Y0091317D01*
X0155600Y0092915D02*
X0168000Y0092915D01*
X0154300Y0084923D02*
X0154300Y0084923D01*
X0154300Y0083324D02*
X0154300Y0083324D01*
X0154300Y0081726D02*
X0154300Y0081726D01*
X0150100Y0081726D02*
X0148100Y0081726D01*
X0148100Y0083324D02*
X0150100Y0083324D01*
X0151483Y0084923D02*
X0146551Y0084923D01*
X0142049Y0084923D02*
X0141300Y0084923D01*
X0137300Y0084923D02*
X0137117Y0084923D01*
X0148001Y0080127D02*
X0150100Y0080127D01*
X0146417Y0099309D02*
X0144683Y0099309D01*
X0144869Y0104105D02*
X0146231Y0104105D01*
X0109046Y0081726D02*
X0105600Y0081726D01*
X0105600Y0083324D02*
X0107447Y0083324D01*
X0105849Y0084923D02*
X0104051Y0084923D01*
X0104250Y0086521D02*
X0099907Y0086521D01*
X0098309Y0088120D02*
X0102652Y0088120D01*
X0101053Y0089718D02*
X0096710Y0089718D01*
X0095112Y0091317D02*
X0099800Y0091317D01*
X0099800Y0092915D02*
X0093513Y0092915D01*
X0091915Y0094514D02*
X0099800Y0094514D01*
X0099800Y0096112D02*
X0090316Y0096112D01*
X0088718Y0097711D02*
X0099800Y0097711D01*
X0099800Y0099309D02*
X0087119Y0099309D01*
X0085521Y0100908D02*
X0099800Y0100908D01*
X0099800Y0102506D02*
X0083922Y0102506D01*
X0083800Y0104105D02*
X0099800Y0104105D01*
X0099800Y0105703D02*
X0083800Y0105703D01*
X0083800Y0107302D02*
X0099800Y0107302D01*
X0099326Y0108900D02*
X0094274Y0108900D01*
X0095600Y0110499D02*
X0098000Y0110499D01*
X0098000Y0112097D02*
X0095600Y0112097D01*
X0095278Y0113696D02*
X0098322Y0113696D01*
X0089326Y0108900D02*
X0084274Y0108900D01*
X0085600Y0110499D02*
X0088000Y0110499D01*
X0088000Y0112097D02*
X0085600Y0112097D01*
X0085278Y0113696D02*
X0088322Y0113696D01*
X0079326Y0108900D02*
X0048771Y0108900D01*
X0049589Y0107302D02*
X0079800Y0107302D01*
X0079800Y0105703D02*
X0050149Y0105703D01*
X0050149Y0104105D02*
X0079800Y0104105D01*
X0079800Y0102506D02*
X0049926Y0102506D01*
X0049264Y0100908D02*
X0079864Y0100908D01*
X0081462Y0099309D02*
X0047987Y0099309D01*
X0045550Y0097711D02*
X0083061Y0097711D01*
X0084659Y0096112D02*
X0021409Y0096112D01*
X0020908Y0097711D02*
X0028325Y0097711D01*
X0025888Y0099309D02*
X0020174Y0099309D01*
X0018575Y0100908D02*
X0024612Y0100908D01*
X0021409Y0094514D02*
X0086258Y0094514D01*
X0087856Y0092915D02*
X0044119Y0092915D01*
X0047283Y0091317D02*
X0089455Y0091317D01*
X0091053Y0089718D02*
X0066990Y0089718D01*
X0069552Y0088120D02*
X0092652Y0088120D01*
X0094250Y0086521D02*
X0070881Y0086521D01*
X0071543Y0084923D02*
X0079549Y0084923D01*
X0080226Y0085600D02*
X0078000Y0083374D01*
X0078000Y0080226D01*
X0080226Y0078000D01*
X0083374Y0078000D01*
X0085600Y0080226D01*
X0085600Y0083374D01*
X0083374Y0085600D01*
X0080226Y0085600D01*
X0078000Y0083324D02*
X0071802Y0083324D01*
X0071802Y0081726D02*
X0078000Y0081726D01*
X0078099Y0080127D02*
X0071802Y0080127D01*
X0071802Y0078529D02*
X0079697Y0078529D01*
X0083903Y0078529D02*
X0089697Y0078529D01*
X0089800Y0076930D02*
X0071802Y0076930D01*
X0071802Y0075332D02*
X0089800Y0075332D01*
X0093800Y0076930D02*
X0113842Y0076930D01*
X0112243Y0078529D02*
X0103903Y0078529D01*
X0105501Y0080127D02*
X0110645Y0080127D01*
X0106500Y0073733D02*
X0106100Y0073733D01*
X0106100Y0072134D02*
X0106500Y0072134D01*
X0106500Y0070536D02*
X0106100Y0070536D01*
X0099697Y0078529D02*
X0093903Y0078529D01*
X0095501Y0080127D02*
X0098099Y0080127D01*
X0098000Y0081726D02*
X0095600Y0081726D01*
X0095600Y0083324D02*
X0097447Y0083324D01*
X0095849Y0084923D02*
X0094051Y0084923D01*
X0089549Y0084923D02*
X0084051Y0084923D01*
X0085600Y0083324D02*
X0088000Y0083324D01*
X0088000Y0081726D02*
X0085600Y0081726D01*
X0085501Y0080127D02*
X0088099Y0080127D01*
X0062004Y0089718D02*
X0049244Y0089718D01*
X0050834Y0088120D02*
X0059442Y0088120D01*
X0058113Y0086521D02*
X0051757Y0086521D01*
X0052680Y0084923D02*
X0057451Y0084923D01*
X0057191Y0083324D02*
X0053128Y0083324D01*
X0053556Y0081726D02*
X0057191Y0081726D01*
X0057191Y0080127D02*
X0053698Y0080127D01*
X0053698Y0078529D02*
X0057191Y0078529D01*
X0057191Y0076930D02*
X0053571Y0076930D01*
X0053143Y0075332D02*
X0057191Y0075332D01*
X0057191Y0073733D02*
X0052712Y0073733D01*
X0051789Y0072134D02*
X0057191Y0072134D01*
X0057191Y0070536D02*
X0050866Y0070536D01*
X0049300Y0068937D02*
X0057457Y0068937D01*
X0058119Y0067339D02*
X0047380Y0067339D01*
X0044326Y0065740D02*
X0059457Y0065740D01*
X0025029Y0076930D02*
X0017967Y0076930D01*
X0019726Y0078529D02*
X0024902Y0078529D01*
X0024902Y0080127D02*
X0020722Y0080127D01*
X0021384Y0081726D02*
X0025044Y0081726D01*
X0025472Y0083324D02*
X0021409Y0083324D01*
X0021409Y0084923D02*
X0025920Y0084923D01*
X0026843Y0086521D02*
X0021409Y0086521D01*
X0021409Y0088120D02*
X0027766Y0088120D01*
X0029356Y0089718D02*
X0021409Y0089718D01*
X0021409Y0091317D02*
X0031317Y0091317D01*
X0034481Y0092915D02*
X0021409Y0092915D01*
X0047173Y0110499D02*
X0078000Y0110499D01*
X0024142Y0064142D02*
X0024142Y0064142D01*
X0022544Y0062543D02*
X0022543Y0062543D01*
X0007023Y0004997D02*
X0003650Y0004997D01*
X0141800Y0006596D02*
X0141800Y0006596D01*
X0141800Y0008194D02*
X0141800Y0008194D01*
X0141800Y0009793D02*
X0141800Y0009793D01*
X0141800Y0011391D02*
X0141800Y0011391D01*
X0141800Y0012990D02*
X0141800Y0012990D01*
X0141800Y0014588D02*
X0141800Y0014588D01*
X0141800Y0016187D02*
X0141800Y0016187D01*
X0141800Y0017785D02*
X0141800Y0017785D01*
D22*
X0091800Y0039300D02*
X0081800Y0039300D01*
X0071800Y0029300D01*
X0069300Y0029300D01*
D23*
X0091800Y0063800D02*
X0106300Y0049300D01*
X0119300Y0044300D02*
X0121800Y0041800D01*
X0119300Y0044300D02*
X0119300Y0079300D01*
X0111800Y0086800D01*
X0111800Y0091800D01*
X0111800Y0101800D01*
X0111800Y0111800D01*
X0101800Y0111800D02*
X0101800Y0091800D01*
X0116800Y0076800D01*
X0116800Y0016800D01*
X0121800Y0011800D01*
X0131800Y0041800D02*
X0139300Y0049300D01*
X0139300Y0089300D01*
X0141800Y0091800D01*
X0141800Y0101800D01*
X0129300Y0106800D02*
X0129300Y0056800D01*
X0134300Y0051800D01*
X0169300Y0044300D02*
X0171800Y0041800D01*
X0169300Y0044300D02*
X0169300Y0076800D01*
X0174300Y0081800D01*
X0171800Y0091800D02*
X0171800Y0094300D01*
X0179300Y0101800D01*
X0101800Y0081800D02*
X0081800Y0101800D01*
X0081800Y0111800D01*
X0091800Y0081800D02*
X0091800Y0063800D01*
D24*
X0129300Y0106800D03*
M02*
