%
M48
M72
T01C0.0130
T02C0.0177
T03C0.0276
T04C0.0320
T05C0.0400
T06C0.0440
T07C0.0787
T08C0.2520
%
T01
X12930Y10680
T02
X6450Y7694
X4914Y5410
X2119Y6119
X1410Y8914
X3694Y10450
T03
X6930Y2930
X6930Y1930
X9180Y1930
X9180Y2930
T04
X10180Y3430
X9180Y3930
X7180Y3930
X11180Y3930
X12180Y4180
X13180Y4180
X14180Y4180
X15180Y4180
X16180Y4180
X17180Y4180
X18180Y4180
X17430Y5180
X16430Y5180
X15430Y5180
X14430Y5180
X13430Y5180
X12430Y5180
X12430Y8180
X13430Y8180
X14430Y8180
X15430Y8180
X16430Y8180
X17430Y8180
X17180Y9180
X17930Y10180
X15180Y9180
X14180Y9180
X14180Y10180
X14930Y10180
X14180Y11180
X11180Y11180
X10180Y11180
X9180Y11180
X8180Y11180
X11180Y10180
X11180Y9180
X10180Y8180
X9180Y8180
X8180Y8180
X11180Y1930
X10180Y1430
X9180Y930
X7180Y930
X12180Y1180
X13180Y1180
X14180Y1180
X15180Y1180
X16180Y1180
X17180Y1180
X18180Y1180
T05
X10630Y4930
X10730Y5930
X10630Y6930
X8180Y6750
X8180Y5610
X4430Y2730
X3430Y2630
X2430Y2730
X1430Y2630
X2430Y1730
X1430Y1630
X3430Y1630
X4430Y1730
X5430Y1630
X5430Y2630
T06
X1180Y680
X5180Y680
X5430Y4180
X1430Y4180
T07
X18930Y5180
X18930Y8180
T08
X3930Y7930
M30
