G75*
%MOIN*%
%OFA0B0*%
%FSLAX25Y25*%
%IPPOS*%
%LPD*%
%AMOC8*
5,1,8,0,0,1.08239X$1,22.5*
%
%ADD10C,0.00000*%
%ADD11C,0.00010*%
%ADD12C,0.00200*%
%ADD13C,0.12598*%
%ADD14C,0.00100*%
%ADD15C,0.00300*%
%ADD16C,0.72441*%
D10*
X0011100Y0007600D02*
X0517006Y0007600D01*
X0517006Y0125710D01*
X0011100Y0125710D01*
X0011100Y0007600D01*
X0160332Y0071655D02*
X0160334Y0071848D01*
X0160341Y0072041D01*
X0160353Y0072234D01*
X0160370Y0072427D01*
X0160391Y0072619D01*
X0160417Y0072810D01*
X0160448Y0073001D01*
X0160483Y0073191D01*
X0160523Y0073380D01*
X0160568Y0073568D01*
X0160617Y0073755D01*
X0160671Y0073941D01*
X0160729Y0074125D01*
X0160792Y0074308D01*
X0160860Y0074489D01*
X0160931Y0074668D01*
X0161008Y0074846D01*
X0161088Y0075022D01*
X0161173Y0075195D01*
X0161262Y0075367D01*
X0161355Y0075536D01*
X0161452Y0075703D01*
X0161554Y0075868D01*
X0161659Y0076030D01*
X0161768Y0076189D01*
X0161882Y0076346D01*
X0161999Y0076499D01*
X0162119Y0076650D01*
X0162244Y0076798D01*
X0162372Y0076943D01*
X0162503Y0077084D01*
X0162638Y0077223D01*
X0162777Y0077358D01*
X0162918Y0077489D01*
X0163063Y0077617D01*
X0163211Y0077742D01*
X0163362Y0077862D01*
X0163515Y0077979D01*
X0163672Y0078093D01*
X0163831Y0078202D01*
X0163993Y0078307D01*
X0164158Y0078409D01*
X0164325Y0078506D01*
X0164494Y0078599D01*
X0164666Y0078688D01*
X0164839Y0078773D01*
X0165015Y0078853D01*
X0165193Y0078930D01*
X0165372Y0079001D01*
X0165553Y0079069D01*
X0165736Y0079132D01*
X0165920Y0079190D01*
X0166106Y0079244D01*
X0166293Y0079293D01*
X0166481Y0079338D01*
X0166670Y0079378D01*
X0166860Y0079413D01*
X0167051Y0079444D01*
X0167242Y0079470D01*
X0167434Y0079491D01*
X0167627Y0079508D01*
X0167820Y0079520D01*
X0168013Y0079527D01*
X0168206Y0079529D01*
X0168399Y0079527D01*
X0168592Y0079520D01*
X0168785Y0079508D01*
X0168978Y0079491D01*
X0169170Y0079470D01*
X0169361Y0079444D01*
X0169552Y0079413D01*
X0169742Y0079378D01*
X0169931Y0079338D01*
X0170119Y0079293D01*
X0170306Y0079244D01*
X0170492Y0079190D01*
X0170676Y0079132D01*
X0170859Y0079069D01*
X0171040Y0079001D01*
X0171219Y0078930D01*
X0171397Y0078853D01*
X0171573Y0078773D01*
X0171746Y0078688D01*
X0171918Y0078599D01*
X0172087Y0078506D01*
X0172254Y0078409D01*
X0172419Y0078307D01*
X0172581Y0078202D01*
X0172740Y0078093D01*
X0172897Y0077979D01*
X0173050Y0077862D01*
X0173201Y0077742D01*
X0173349Y0077617D01*
X0173494Y0077489D01*
X0173635Y0077358D01*
X0173774Y0077223D01*
X0173909Y0077084D01*
X0174040Y0076943D01*
X0174168Y0076798D01*
X0174293Y0076650D01*
X0174413Y0076499D01*
X0174530Y0076346D01*
X0174644Y0076189D01*
X0174753Y0076030D01*
X0174858Y0075868D01*
X0174960Y0075703D01*
X0175057Y0075536D01*
X0175150Y0075367D01*
X0175239Y0075195D01*
X0175324Y0075022D01*
X0175404Y0074846D01*
X0175481Y0074668D01*
X0175552Y0074489D01*
X0175620Y0074308D01*
X0175683Y0074125D01*
X0175741Y0073941D01*
X0175795Y0073755D01*
X0175844Y0073568D01*
X0175889Y0073380D01*
X0175929Y0073191D01*
X0175964Y0073001D01*
X0175995Y0072810D01*
X0176021Y0072619D01*
X0176042Y0072427D01*
X0176059Y0072234D01*
X0176071Y0072041D01*
X0176078Y0071848D01*
X0176080Y0071655D01*
X0176078Y0071462D01*
X0176071Y0071269D01*
X0176059Y0071076D01*
X0176042Y0070883D01*
X0176021Y0070691D01*
X0175995Y0070500D01*
X0175964Y0070309D01*
X0175929Y0070119D01*
X0175889Y0069930D01*
X0175844Y0069742D01*
X0175795Y0069555D01*
X0175741Y0069369D01*
X0175683Y0069185D01*
X0175620Y0069002D01*
X0175552Y0068821D01*
X0175481Y0068642D01*
X0175404Y0068464D01*
X0175324Y0068288D01*
X0175239Y0068115D01*
X0175150Y0067943D01*
X0175057Y0067774D01*
X0174960Y0067607D01*
X0174858Y0067442D01*
X0174753Y0067280D01*
X0174644Y0067121D01*
X0174530Y0066964D01*
X0174413Y0066811D01*
X0174293Y0066660D01*
X0174168Y0066512D01*
X0174040Y0066367D01*
X0173909Y0066226D01*
X0173774Y0066087D01*
X0173635Y0065952D01*
X0173494Y0065821D01*
X0173349Y0065693D01*
X0173201Y0065568D01*
X0173050Y0065448D01*
X0172897Y0065331D01*
X0172740Y0065217D01*
X0172581Y0065108D01*
X0172419Y0065003D01*
X0172254Y0064901D01*
X0172087Y0064804D01*
X0171918Y0064711D01*
X0171746Y0064622D01*
X0171573Y0064537D01*
X0171397Y0064457D01*
X0171219Y0064380D01*
X0171040Y0064309D01*
X0170859Y0064241D01*
X0170676Y0064178D01*
X0170492Y0064120D01*
X0170306Y0064066D01*
X0170119Y0064017D01*
X0169931Y0063972D01*
X0169742Y0063932D01*
X0169552Y0063897D01*
X0169361Y0063866D01*
X0169170Y0063840D01*
X0168978Y0063819D01*
X0168785Y0063802D01*
X0168592Y0063790D01*
X0168399Y0063783D01*
X0168206Y0063781D01*
X0168013Y0063783D01*
X0167820Y0063790D01*
X0167627Y0063802D01*
X0167434Y0063819D01*
X0167242Y0063840D01*
X0167051Y0063866D01*
X0166860Y0063897D01*
X0166670Y0063932D01*
X0166481Y0063972D01*
X0166293Y0064017D01*
X0166106Y0064066D01*
X0165920Y0064120D01*
X0165736Y0064178D01*
X0165553Y0064241D01*
X0165372Y0064309D01*
X0165193Y0064380D01*
X0165015Y0064457D01*
X0164839Y0064537D01*
X0164666Y0064622D01*
X0164494Y0064711D01*
X0164325Y0064804D01*
X0164158Y0064901D01*
X0163993Y0065003D01*
X0163831Y0065108D01*
X0163672Y0065217D01*
X0163515Y0065331D01*
X0163362Y0065448D01*
X0163211Y0065568D01*
X0163063Y0065693D01*
X0162918Y0065821D01*
X0162777Y0065952D01*
X0162638Y0066087D01*
X0162503Y0066226D01*
X0162372Y0066367D01*
X0162244Y0066512D01*
X0162119Y0066660D01*
X0161999Y0066811D01*
X0161882Y0066964D01*
X0161768Y0067121D01*
X0161659Y0067280D01*
X0161554Y0067442D01*
X0161452Y0067607D01*
X0161355Y0067774D01*
X0161262Y0067943D01*
X0161173Y0068115D01*
X0161088Y0068288D01*
X0161008Y0068464D01*
X0160931Y0068642D01*
X0160860Y0068821D01*
X0160792Y0069002D01*
X0160729Y0069185D01*
X0160671Y0069369D01*
X0160617Y0069555D01*
X0160568Y0069742D01*
X0160523Y0069930D01*
X0160483Y0070119D01*
X0160448Y0070309D01*
X0160417Y0070500D01*
X0160391Y0070691D01*
X0160370Y0070883D01*
X0160353Y0071076D01*
X0160341Y0071269D01*
X0160334Y0071462D01*
X0160332Y0071655D01*
X0461120Y0071655D02*
X0461122Y0071848D01*
X0461129Y0072041D01*
X0461141Y0072234D01*
X0461158Y0072427D01*
X0461179Y0072619D01*
X0461205Y0072810D01*
X0461236Y0073001D01*
X0461271Y0073191D01*
X0461311Y0073380D01*
X0461356Y0073568D01*
X0461405Y0073755D01*
X0461459Y0073941D01*
X0461517Y0074125D01*
X0461580Y0074308D01*
X0461648Y0074489D01*
X0461719Y0074668D01*
X0461796Y0074846D01*
X0461876Y0075022D01*
X0461961Y0075195D01*
X0462050Y0075367D01*
X0462143Y0075536D01*
X0462240Y0075703D01*
X0462342Y0075868D01*
X0462447Y0076030D01*
X0462556Y0076189D01*
X0462670Y0076346D01*
X0462787Y0076499D01*
X0462907Y0076650D01*
X0463032Y0076798D01*
X0463160Y0076943D01*
X0463291Y0077084D01*
X0463426Y0077223D01*
X0463565Y0077358D01*
X0463706Y0077489D01*
X0463851Y0077617D01*
X0463999Y0077742D01*
X0464150Y0077862D01*
X0464303Y0077979D01*
X0464460Y0078093D01*
X0464619Y0078202D01*
X0464781Y0078307D01*
X0464946Y0078409D01*
X0465113Y0078506D01*
X0465282Y0078599D01*
X0465454Y0078688D01*
X0465627Y0078773D01*
X0465803Y0078853D01*
X0465981Y0078930D01*
X0466160Y0079001D01*
X0466341Y0079069D01*
X0466524Y0079132D01*
X0466708Y0079190D01*
X0466894Y0079244D01*
X0467081Y0079293D01*
X0467269Y0079338D01*
X0467458Y0079378D01*
X0467648Y0079413D01*
X0467839Y0079444D01*
X0468030Y0079470D01*
X0468222Y0079491D01*
X0468415Y0079508D01*
X0468608Y0079520D01*
X0468801Y0079527D01*
X0468994Y0079529D01*
X0469187Y0079527D01*
X0469380Y0079520D01*
X0469573Y0079508D01*
X0469766Y0079491D01*
X0469958Y0079470D01*
X0470149Y0079444D01*
X0470340Y0079413D01*
X0470530Y0079378D01*
X0470719Y0079338D01*
X0470907Y0079293D01*
X0471094Y0079244D01*
X0471280Y0079190D01*
X0471464Y0079132D01*
X0471647Y0079069D01*
X0471828Y0079001D01*
X0472007Y0078930D01*
X0472185Y0078853D01*
X0472361Y0078773D01*
X0472534Y0078688D01*
X0472706Y0078599D01*
X0472875Y0078506D01*
X0473042Y0078409D01*
X0473207Y0078307D01*
X0473369Y0078202D01*
X0473528Y0078093D01*
X0473685Y0077979D01*
X0473838Y0077862D01*
X0473989Y0077742D01*
X0474137Y0077617D01*
X0474282Y0077489D01*
X0474423Y0077358D01*
X0474562Y0077223D01*
X0474697Y0077084D01*
X0474828Y0076943D01*
X0474956Y0076798D01*
X0475081Y0076650D01*
X0475201Y0076499D01*
X0475318Y0076346D01*
X0475432Y0076189D01*
X0475541Y0076030D01*
X0475646Y0075868D01*
X0475748Y0075703D01*
X0475845Y0075536D01*
X0475938Y0075367D01*
X0476027Y0075195D01*
X0476112Y0075022D01*
X0476192Y0074846D01*
X0476269Y0074668D01*
X0476340Y0074489D01*
X0476408Y0074308D01*
X0476471Y0074125D01*
X0476529Y0073941D01*
X0476583Y0073755D01*
X0476632Y0073568D01*
X0476677Y0073380D01*
X0476717Y0073191D01*
X0476752Y0073001D01*
X0476783Y0072810D01*
X0476809Y0072619D01*
X0476830Y0072427D01*
X0476847Y0072234D01*
X0476859Y0072041D01*
X0476866Y0071848D01*
X0476868Y0071655D01*
X0476866Y0071462D01*
X0476859Y0071269D01*
X0476847Y0071076D01*
X0476830Y0070883D01*
X0476809Y0070691D01*
X0476783Y0070500D01*
X0476752Y0070309D01*
X0476717Y0070119D01*
X0476677Y0069930D01*
X0476632Y0069742D01*
X0476583Y0069555D01*
X0476529Y0069369D01*
X0476471Y0069185D01*
X0476408Y0069002D01*
X0476340Y0068821D01*
X0476269Y0068642D01*
X0476192Y0068464D01*
X0476112Y0068288D01*
X0476027Y0068115D01*
X0475938Y0067943D01*
X0475845Y0067774D01*
X0475748Y0067607D01*
X0475646Y0067442D01*
X0475541Y0067280D01*
X0475432Y0067121D01*
X0475318Y0066964D01*
X0475201Y0066811D01*
X0475081Y0066660D01*
X0474956Y0066512D01*
X0474828Y0066367D01*
X0474697Y0066226D01*
X0474562Y0066087D01*
X0474423Y0065952D01*
X0474282Y0065821D01*
X0474137Y0065693D01*
X0473989Y0065568D01*
X0473838Y0065448D01*
X0473685Y0065331D01*
X0473528Y0065217D01*
X0473369Y0065108D01*
X0473207Y0065003D01*
X0473042Y0064901D01*
X0472875Y0064804D01*
X0472706Y0064711D01*
X0472534Y0064622D01*
X0472361Y0064537D01*
X0472185Y0064457D01*
X0472007Y0064380D01*
X0471828Y0064309D01*
X0471647Y0064241D01*
X0471464Y0064178D01*
X0471280Y0064120D01*
X0471094Y0064066D01*
X0470907Y0064017D01*
X0470719Y0063972D01*
X0470530Y0063932D01*
X0470340Y0063897D01*
X0470149Y0063866D01*
X0469958Y0063840D01*
X0469766Y0063819D01*
X0469573Y0063802D01*
X0469380Y0063790D01*
X0469187Y0063783D01*
X0468994Y0063781D01*
X0468801Y0063783D01*
X0468608Y0063790D01*
X0468415Y0063802D01*
X0468222Y0063819D01*
X0468030Y0063840D01*
X0467839Y0063866D01*
X0467648Y0063897D01*
X0467458Y0063932D01*
X0467269Y0063972D01*
X0467081Y0064017D01*
X0466894Y0064066D01*
X0466708Y0064120D01*
X0466524Y0064178D01*
X0466341Y0064241D01*
X0466160Y0064309D01*
X0465981Y0064380D01*
X0465803Y0064457D01*
X0465627Y0064537D01*
X0465454Y0064622D01*
X0465282Y0064711D01*
X0465113Y0064804D01*
X0464946Y0064901D01*
X0464781Y0065003D01*
X0464619Y0065108D01*
X0464460Y0065217D01*
X0464303Y0065331D01*
X0464150Y0065448D01*
X0463999Y0065568D01*
X0463851Y0065693D01*
X0463706Y0065821D01*
X0463565Y0065952D01*
X0463426Y0066087D01*
X0463291Y0066226D01*
X0463160Y0066367D01*
X0463032Y0066512D01*
X0462907Y0066660D01*
X0462787Y0066811D01*
X0462670Y0066964D01*
X0462556Y0067121D01*
X0462447Y0067280D01*
X0462342Y0067442D01*
X0462240Y0067607D01*
X0462143Y0067774D01*
X0462050Y0067943D01*
X0461961Y0068115D01*
X0461876Y0068288D01*
X0461796Y0068464D01*
X0461719Y0068642D01*
X0461648Y0068821D01*
X0461580Y0069002D01*
X0461517Y0069185D01*
X0461459Y0069369D01*
X0461405Y0069555D01*
X0461356Y0069742D01*
X0461311Y0069930D01*
X0461271Y0070119D01*
X0461236Y0070309D01*
X0461205Y0070500D01*
X0461179Y0070691D01*
X0461158Y0070883D01*
X0461141Y0071076D01*
X0461129Y0071269D01*
X0461122Y0071462D01*
X0461120Y0071655D01*
D11*
X0498895Y0091183D02*
X0498895Y0101183D01*
X0498897Y0101341D01*
X0498903Y0101499D01*
X0498913Y0101657D01*
X0498927Y0101815D01*
X0498945Y0101972D01*
X0498966Y0102129D01*
X0498992Y0102285D01*
X0499022Y0102441D01*
X0499055Y0102596D01*
X0499093Y0102749D01*
X0499134Y0102902D01*
X0499179Y0103054D01*
X0499228Y0103205D01*
X0499281Y0103354D01*
X0499337Y0103502D01*
X0499397Y0103648D01*
X0499461Y0103793D01*
X0499529Y0103936D01*
X0499600Y0104078D01*
X0499674Y0104218D01*
X0499752Y0104355D01*
X0499834Y0104491D01*
X0499918Y0104625D01*
X0500007Y0104756D01*
X0500098Y0104885D01*
X0500193Y0105012D01*
X0500290Y0105137D01*
X0500391Y0105259D01*
X0500495Y0105378D01*
X0500602Y0105495D01*
X0500712Y0105609D01*
X0500825Y0105720D01*
X0500940Y0105829D01*
X0501058Y0105934D01*
X0501179Y0106036D01*
X0501302Y0106136D01*
X0501428Y0106232D01*
X0501556Y0106325D01*
X0501686Y0106415D01*
X0501819Y0106501D01*
X0501954Y0106585D01*
X0502090Y0106664D01*
X0502229Y0106741D01*
X0502370Y0106813D01*
X0502512Y0106883D01*
X0502656Y0106948D01*
X0502802Y0107010D01*
X0502949Y0107068D01*
X0503098Y0107123D01*
X0503248Y0107174D01*
X0503399Y0107221D01*
X0503551Y0107264D01*
X0503704Y0107303D01*
X0503859Y0107339D01*
X0504014Y0107370D01*
X0504170Y0107398D01*
X0504326Y0107422D01*
X0504483Y0107442D01*
X0504641Y0107458D01*
X0504798Y0107470D01*
X0504957Y0107478D01*
X0505115Y0107482D01*
X0505273Y0107482D01*
X0505431Y0107478D01*
X0505590Y0107470D01*
X0505747Y0107458D01*
X0505905Y0107442D01*
X0506062Y0107422D01*
X0506218Y0107398D01*
X0506374Y0107370D01*
X0506529Y0107339D01*
X0506684Y0107303D01*
X0506837Y0107264D01*
X0506989Y0107221D01*
X0507140Y0107174D01*
X0507290Y0107123D01*
X0507439Y0107068D01*
X0507586Y0107010D01*
X0507732Y0106948D01*
X0507876Y0106883D01*
X0508018Y0106813D01*
X0508159Y0106741D01*
X0508298Y0106664D01*
X0508434Y0106585D01*
X0508569Y0106501D01*
X0508702Y0106415D01*
X0508832Y0106325D01*
X0508960Y0106232D01*
X0509086Y0106136D01*
X0509209Y0106036D01*
X0509330Y0105934D01*
X0509448Y0105829D01*
X0509563Y0105720D01*
X0509676Y0105609D01*
X0509786Y0105495D01*
X0509893Y0105378D01*
X0509997Y0105259D01*
X0510098Y0105137D01*
X0510195Y0105012D01*
X0510290Y0104885D01*
X0510381Y0104756D01*
X0510470Y0104625D01*
X0510554Y0104491D01*
X0510636Y0104355D01*
X0510714Y0104218D01*
X0510788Y0104078D01*
X0510859Y0103936D01*
X0510927Y0103793D01*
X0510991Y0103648D01*
X0511051Y0103502D01*
X0511107Y0103354D01*
X0511160Y0103205D01*
X0511209Y0103054D01*
X0511254Y0102902D01*
X0511295Y0102749D01*
X0511333Y0102596D01*
X0511366Y0102441D01*
X0511396Y0102285D01*
X0511422Y0102129D01*
X0511443Y0101972D01*
X0511461Y0101815D01*
X0511475Y0101657D01*
X0511485Y0101499D01*
X0511491Y0101341D01*
X0511493Y0101183D01*
X0511494Y0101183D02*
X0511494Y0091183D01*
X0511493Y0091183D02*
X0511491Y0091025D01*
X0511485Y0090867D01*
X0511475Y0090709D01*
X0511461Y0090551D01*
X0511443Y0090394D01*
X0511422Y0090237D01*
X0511396Y0090081D01*
X0511366Y0089925D01*
X0511333Y0089770D01*
X0511295Y0089617D01*
X0511254Y0089464D01*
X0511209Y0089312D01*
X0511160Y0089161D01*
X0511107Y0089012D01*
X0511051Y0088864D01*
X0510991Y0088718D01*
X0510927Y0088573D01*
X0510859Y0088430D01*
X0510788Y0088288D01*
X0510714Y0088148D01*
X0510636Y0088011D01*
X0510554Y0087875D01*
X0510470Y0087741D01*
X0510381Y0087610D01*
X0510290Y0087481D01*
X0510195Y0087354D01*
X0510098Y0087229D01*
X0509997Y0087107D01*
X0509893Y0086988D01*
X0509786Y0086871D01*
X0509676Y0086757D01*
X0509563Y0086646D01*
X0509448Y0086537D01*
X0509330Y0086432D01*
X0509209Y0086330D01*
X0509086Y0086230D01*
X0508960Y0086134D01*
X0508832Y0086041D01*
X0508702Y0085951D01*
X0508569Y0085865D01*
X0508434Y0085781D01*
X0508298Y0085702D01*
X0508159Y0085625D01*
X0508018Y0085553D01*
X0507876Y0085483D01*
X0507732Y0085418D01*
X0507586Y0085356D01*
X0507439Y0085298D01*
X0507290Y0085243D01*
X0507140Y0085192D01*
X0506989Y0085145D01*
X0506837Y0085102D01*
X0506684Y0085063D01*
X0506529Y0085027D01*
X0506374Y0084996D01*
X0506218Y0084968D01*
X0506062Y0084944D01*
X0505905Y0084924D01*
X0505747Y0084908D01*
X0505590Y0084896D01*
X0505431Y0084888D01*
X0505273Y0084884D01*
X0505115Y0084884D01*
X0504957Y0084888D01*
X0504798Y0084896D01*
X0504641Y0084908D01*
X0504483Y0084924D01*
X0504326Y0084944D01*
X0504170Y0084968D01*
X0504014Y0084996D01*
X0503859Y0085027D01*
X0503704Y0085063D01*
X0503551Y0085102D01*
X0503399Y0085145D01*
X0503248Y0085192D01*
X0503098Y0085243D01*
X0502949Y0085298D01*
X0502802Y0085356D01*
X0502656Y0085418D01*
X0502512Y0085483D01*
X0502370Y0085553D01*
X0502229Y0085625D01*
X0502090Y0085702D01*
X0501954Y0085781D01*
X0501819Y0085865D01*
X0501686Y0085951D01*
X0501556Y0086041D01*
X0501428Y0086134D01*
X0501302Y0086230D01*
X0501179Y0086330D01*
X0501058Y0086432D01*
X0500940Y0086537D01*
X0500825Y0086646D01*
X0500712Y0086757D01*
X0500602Y0086871D01*
X0500495Y0086988D01*
X0500391Y0087107D01*
X0500290Y0087229D01*
X0500193Y0087354D01*
X0500098Y0087481D01*
X0500007Y0087610D01*
X0499918Y0087741D01*
X0499834Y0087875D01*
X0499752Y0088011D01*
X0499674Y0088148D01*
X0499600Y0088288D01*
X0499529Y0088430D01*
X0499461Y0088573D01*
X0499397Y0088718D01*
X0499337Y0088864D01*
X0499281Y0089012D01*
X0499228Y0089161D01*
X0499179Y0089312D01*
X0499134Y0089464D01*
X0499093Y0089617D01*
X0499055Y0089770D01*
X0499022Y0089925D01*
X0498992Y0090081D01*
X0498966Y0090237D01*
X0498945Y0090394D01*
X0498927Y0090551D01*
X0498913Y0090709D01*
X0498903Y0090867D01*
X0498897Y0091025D01*
X0498895Y0091183D01*
X0498895Y0042128D02*
X0498895Y0032128D01*
X0498897Y0031970D01*
X0498903Y0031812D01*
X0498913Y0031654D01*
X0498927Y0031496D01*
X0498945Y0031339D01*
X0498966Y0031182D01*
X0498992Y0031026D01*
X0499022Y0030870D01*
X0499055Y0030715D01*
X0499093Y0030562D01*
X0499134Y0030409D01*
X0499179Y0030257D01*
X0499228Y0030106D01*
X0499281Y0029957D01*
X0499337Y0029809D01*
X0499397Y0029663D01*
X0499461Y0029518D01*
X0499529Y0029375D01*
X0499600Y0029233D01*
X0499674Y0029093D01*
X0499752Y0028956D01*
X0499834Y0028820D01*
X0499918Y0028686D01*
X0500007Y0028555D01*
X0500098Y0028426D01*
X0500193Y0028299D01*
X0500290Y0028174D01*
X0500391Y0028052D01*
X0500495Y0027933D01*
X0500602Y0027816D01*
X0500712Y0027702D01*
X0500825Y0027591D01*
X0500940Y0027482D01*
X0501058Y0027377D01*
X0501179Y0027275D01*
X0501302Y0027175D01*
X0501428Y0027079D01*
X0501556Y0026986D01*
X0501686Y0026896D01*
X0501819Y0026810D01*
X0501954Y0026726D01*
X0502090Y0026647D01*
X0502229Y0026570D01*
X0502370Y0026498D01*
X0502512Y0026428D01*
X0502656Y0026363D01*
X0502802Y0026301D01*
X0502949Y0026243D01*
X0503098Y0026188D01*
X0503248Y0026137D01*
X0503399Y0026090D01*
X0503551Y0026047D01*
X0503704Y0026008D01*
X0503859Y0025972D01*
X0504014Y0025941D01*
X0504170Y0025913D01*
X0504326Y0025889D01*
X0504483Y0025869D01*
X0504641Y0025853D01*
X0504798Y0025841D01*
X0504957Y0025833D01*
X0505115Y0025829D01*
X0505273Y0025829D01*
X0505431Y0025833D01*
X0505590Y0025841D01*
X0505747Y0025853D01*
X0505905Y0025869D01*
X0506062Y0025889D01*
X0506218Y0025913D01*
X0506374Y0025941D01*
X0506529Y0025972D01*
X0506684Y0026008D01*
X0506837Y0026047D01*
X0506989Y0026090D01*
X0507140Y0026137D01*
X0507290Y0026188D01*
X0507439Y0026243D01*
X0507586Y0026301D01*
X0507732Y0026363D01*
X0507876Y0026428D01*
X0508018Y0026498D01*
X0508159Y0026570D01*
X0508298Y0026647D01*
X0508434Y0026726D01*
X0508569Y0026810D01*
X0508702Y0026896D01*
X0508832Y0026986D01*
X0508960Y0027079D01*
X0509086Y0027175D01*
X0509209Y0027275D01*
X0509330Y0027377D01*
X0509448Y0027482D01*
X0509563Y0027591D01*
X0509676Y0027702D01*
X0509786Y0027816D01*
X0509893Y0027933D01*
X0509997Y0028052D01*
X0510098Y0028174D01*
X0510195Y0028299D01*
X0510290Y0028426D01*
X0510381Y0028555D01*
X0510470Y0028686D01*
X0510554Y0028820D01*
X0510636Y0028956D01*
X0510714Y0029093D01*
X0510788Y0029233D01*
X0510859Y0029375D01*
X0510927Y0029518D01*
X0510991Y0029663D01*
X0511051Y0029809D01*
X0511107Y0029957D01*
X0511160Y0030106D01*
X0511209Y0030257D01*
X0511254Y0030409D01*
X0511295Y0030562D01*
X0511333Y0030715D01*
X0511366Y0030870D01*
X0511396Y0031026D01*
X0511422Y0031182D01*
X0511443Y0031339D01*
X0511461Y0031496D01*
X0511475Y0031654D01*
X0511485Y0031812D01*
X0511491Y0031970D01*
X0511493Y0032128D01*
X0511494Y0032128D02*
X0511494Y0042128D01*
X0511493Y0042128D02*
X0511491Y0042286D01*
X0511485Y0042444D01*
X0511475Y0042602D01*
X0511461Y0042760D01*
X0511443Y0042917D01*
X0511422Y0043074D01*
X0511396Y0043230D01*
X0511366Y0043386D01*
X0511333Y0043541D01*
X0511295Y0043694D01*
X0511254Y0043847D01*
X0511209Y0043999D01*
X0511160Y0044150D01*
X0511107Y0044299D01*
X0511051Y0044447D01*
X0510991Y0044593D01*
X0510927Y0044738D01*
X0510859Y0044881D01*
X0510788Y0045023D01*
X0510714Y0045163D01*
X0510636Y0045300D01*
X0510554Y0045436D01*
X0510470Y0045570D01*
X0510381Y0045701D01*
X0510290Y0045830D01*
X0510195Y0045957D01*
X0510098Y0046082D01*
X0509997Y0046204D01*
X0509893Y0046323D01*
X0509786Y0046440D01*
X0509676Y0046554D01*
X0509563Y0046665D01*
X0509448Y0046774D01*
X0509330Y0046879D01*
X0509209Y0046981D01*
X0509086Y0047081D01*
X0508960Y0047177D01*
X0508832Y0047270D01*
X0508702Y0047360D01*
X0508569Y0047446D01*
X0508434Y0047530D01*
X0508298Y0047609D01*
X0508159Y0047686D01*
X0508018Y0047758D01*
X0507876Y0047828D01*
X0507732Y0047893D01*
X0507586Y0047955D01*
X0507439Y0048013D01*
X0507290Y0048068D01*
X0507140Y0048119D01*
X0506989Y0048166D01*
X0506837Y0048209D01*
X0506684Y0048248D01*
X0506529Y0048284D01*
X0506374Y0048315D01*
X0506218Y0048343D01*
X0506062Y0048367D01*
X0505905Y0048387D01*
X0505747Y0048403D01*
X0505590Y0048415D01*
X0505431Y0048423D01*
X0505273Y0048427D01*
X0505115Y0048427D01*
X0504957Y0048423D01*
X0504798Y0048415D01*
X0504641Y0048403D01*
X0504483Y0048387D01*
X0504326Y0048367D01*
X0504170Y0048343D01*
X0504014Y0048315D01*
X0503859Y0048284D01*
X0503704Y0048248D01*
X0503551Y0048209D01*
X0503399Y0048166D01*
X0503248Y0048119D01*
X0503098Y0048068D01*
X0502949Y0048013D01*
X0502802Y0047955D01*
X0502656Y0047893D01*
X0502512Y0047828D01*
X0502370Y0047758D01*
X0502229Y0047686D01*
X0502090Y0047609D01*
X0501954Y0047530D01*
X0501819Y0047446D01*
X0501686Y0047360D01*
X0501556Y0047270D01*
X0501428Y0047177D01*
X0501302Y0047081D01*
X0501179Y0046981D01*
X0501058Y0046879D01*
X0500940Y0046774D01*
X0500825Y0046665D01*
X0500712Y0046554D01*
X0500602Y0046440D01*
X0500495Y0046323D01*
X0500391Y0046204D01*
X0500290Y0046082D01*
X0500193Y0045957D01*
X0500098Y0045830D01*
X0500007Y0045701D01*
X0499918Y0045570D01*
X0499834Y0045436D01*
X0499752Y0045300D01*
X0499674Y0045163D01*
X0499600Y0045023D01*
X0499529Y0044881D01*
X0499461Y0044738D01*
X0499397Y0044593D01*
X0499337Y0044447D01*
X0499281Y0044299D01*
X0499228Y0044150D01*
X0499179Y0043999D01*
X0499134Y0043847D01*
X0499093Y0043694D01*
X0499055Y0043541D01*
X0499022Y0043386D01*
X0498992Y0043230D01*
X0498966Y0043074D01*
X0498945Y0042917D01*
X0498927Y0042760D01*
X0498913Y0042602D01*
X0498903Y0042444D01*
X0498897Y0042286D01*
X0498895Y0042128D01*
X0029210Y0042128D02*
X0029210Y0032128D01*
X0029208Y0031970D01*
X0029202Y0031812D01*
X0029192Y0031654D01*
X0029178Y0031496D01*
X0029160Y0031339D01*
X0029139Y0031182D01*
X0029113Y0031026D01*
X0029083Y0030870D01*
X0029050Y0030715D01*
X0029012Y0030562D01*
X0028971Y0030409D01*
X0028926Y0030257D01*
X0028877Y0030106D01*
X0028824Y0029957D01*
X0028768Y0029809D01*
X0028708Y0029663D01*
X0028644Y0029518D01*
X0028576Y0029375D01*
X0028505Y0029233D01*
X0028431Y0029093D01*
X0028353Y0028956D01*
X0028271Y0028820D01*
X0028187Y0028686D01*
X0028098Y0028555D01*
X0028007Y0028426D01*
X0027912Y0028299D01*
X0027815Y0028174D01*
X0027714Y0028052D01*
X0027610Y0027933D01*
X0027503Y0027816D01*
X0027393Y0027702D01*
X0027280Y0027591D01*
X0027165Y0027482D01*
X0027047Y0027377D01*
X0026926Y0027275D01*
X0026803Y0027175D01*
X0026677Y0027079D01*
X0026549Y0026986D01*
X0026419Y0026896D01*
X0026286Y0026810D01*
X0026151Y0026726D01*
X0026015Y0026647D01*
X0025876Y0026570D01*
X0025735Y0026498D01*
X0025593Y0026428D01*
X0025449Y0026363D01*
X0025303Y0026301D01*
X0025156Y0026243D01*
X0025007Y0026188D01*
X0024857Y0026137D01*
X0024706Y0026090D01*
X0024554Y0026047D01*
X0024401Y0026008D01*
X0024246Y0025972D01*
X0024091Y0025941D01*
X0023935Y0025913D01*
X0023779Y0025889D01*
X0023622Y0025869D01*
X0023464Y0025853D01*
X0023307Y0025841D01*
X0023148Y0025833D01*
X0022990Y0025829D01*
X0022832Y0025829D01*
X0022674Y0025833D01*
X0022515Y0025841D01*
X0022358Y0025853D01*
X0022200Y0025869D01*
X0022043Y0025889D01*
X0021887Y0025913D01*
X0021731Y0025941D01*
X0021576Y0025972D01*
X0021421Y0026008D01*
X0021268Y0026047D01*
X0021116Y0026090D01*
X0020965Y0026137D01*
X0020815Y0026188D01*
X0020666Y0026243D01*
X0020519Y0026301D01*
X0020373Y0026363D01*
X0020229Y0026428D01*
X0020087Y0026498D01*
X0019946Y0026570D01*
X0019807Y0026647D01*
X0019671Y0026726D01*
X0019536Y0026810D01*
X0019403Y0026896D01*
X0019273Y0026986D01*
X0019145Y0027079D01*
X0019019Y0027175D01*
X0018896Y0027275D01*
X0018775Y0027377D01*
X0018657Y0027482D01*
X0018542Y0027591D01*
X0018429Y0027702D01*
X0018319Y0027816D01*
X0018212Y0027933D01*
X0018108Y0028052D01*
X0018007Y0028174D01*
X0017910Y0028299D01*
X0017815Y0028426D01*
X0017724Y0028555D01*
X0017635Y0028686D01*
X0017551Y0028820D01*
X0017469Y0028956D01*
X0017391Y0029093D01*
X0017317Y0029233D01*
X0017246Y0029375D01*
X0017178Y0029518D01*
X0017114Y0029663D01*
X0017054Y0029809D01*
X0016998Y0029957D01*
X0016945Y0030106D01*
X0016896Y0030257D01*
X0016851Y0030409D01*
X0016810Y0030562D01*
X0016772Y0030715D01*
X0016739Y0030870D01*
X0016709Y0031026D01*
X0016683Y0031182D01*
X0016662Y0031339D01*
X0016644Y0031496D01*
X0016630Y0031654D01*
X0016620Y0031812D01*
X0016614Y0031970D01*
X0016612Y0032128D01*
X0016612Y0042128D01*
X0016614Y0042286D01*
X0016620Y0042444D01*
X0016630Y0042602D01*
X0016644Y0042760D01*
X0016662Y0042917D01*
X0016683Y0043074D01*
X0016709Y0043230D01*
X0016739Y0043386D01*
X0016772Y0043541D01*
X0016810Y0043694D01*
X0016851Y0043847D01*
X0016896Y0043999D01*
X0016945Y0044150D01*
X0016998Y0044299D01*
X0017054Y0044447D01*
X0017114Y0044593D01*
X0017178Y0044738D01*
X0017246Y0044881D01*
X0017317Y0045023D01*
X0017391Y0045163D01*
X0017469Y0045300D01*
X0017551Y0045436D01*
X0017635Y0045570D01*
X0017724Y0045701D01*
X0017815Y0045830D01*
X0017910Y0045957D01*
X0018007Y0046082D01*
X0018108Y0046204D01*
X0018212Y0046323D01*
X0018319Y0046440D01*
X0018429Y0046554D01*
X0018542Y0046665D01*
X0018657Y0046774D01*
X0018775Y0046879D01*
X0018896Y0046981D01*
X0019019Y0047081D01*
X0019145Y0047177D01*
X0019273Y0047270D01*
X0019403Y0047360D01*
X0019536Y0047446D01*
X0019671Y0047530D01*
X0019807Y0047609D01*
X0019946Y0047686D01*
X0020087Y0047758D01*
X0020229Y0047828D01*
X0020373Y0047893D01*
X0020519Y0047955D01*
X0020666Y0048013D01*
X0020815Y0048068D01*
X0020965Y0048119D01*
X0021116Y0048166D01*
X0021268Y0048209D01*
X0021421Y0048248D01*
X0021576Y0048284D01*
X0021731Y0048315D01*
X0021887Y0048343D01*
X0022043Y0048367D01*
X0022200Y0048387D01*
X0022358Y0048403D01*
X0022515Y0048415D01*
X0022674Y0048423D01*
X0022832Y0048427D01*
X0022990Y0048427D01*
X0023148Y0048423D01*
X0023307Y0048415D01*
X0023464Y0048403D01*
X0023622Y0048387D01*
X0023779Y0048367D01*
X0023935Y0048343D01*
X0024091Y0048315D01*
X0024246Y0048284D01*
X0024401Y0048248D01*
X0024554Y0048209D01*
X0024706Y0048166D01*
X0024857Y0048119D01*
X0025007Y0048068D01*
X0025156Y0048013D01*
X0025303Y0047955D01*
X0025449Y0047893D01*
X0025593Y0047828D01*
X0025735Y0047758D01*
X0025876Y0047686D01*
X0026015Y0047609D01*
X0026151Y0047530D01*
X0026286Y0047446D01*
X0026419Y0047360D01*
X0026549Y0047270D01*
X0026677Y0047177D01*
X0026803Y0047081D01*
X0026926Y0046981D01*
X0027047Y0046879D01*
X0027165Y0046774D01*
X0027280Y0046665D01*
X0027393Y0046554D01*
X0027503Y0046440D01*
X0027610Y0046323D01*
X0027714Y0046204D01*
X0027815Y0046082D01*
X0027912Y0045957D01*
X0028007Y0045830D01*
X0028098Y0045701D01*
X0028187Y0045570D01*
X0028271Y0045436D01*
X0028353Y0045300D01*
X0028431Y0045163D01*
X0028505Y0045023D01*
X0028576Y0044881D01*
X0028644Y0044738D01*
X0028708Y0044593D01*
X0028768Y0044447D01*
X0028824Y0044299D01*
X0028877Y0044150D01*
X0028926Y0043999D01*
X0028971Y0043847D01*
X0029012Y0043694D01*
X0029050Y0043541D01*
X0029083Y0043386D01*
X0029113Y0043230D01*
X0029139Y0043074D01*
X0029160Y0042917D01*
X0029178Y0042760D01*
X0029192Y0042602D01*
X0029202Y0042444D01*
X0029208Y0042286D01*
X0029210Y0042128D01*
X0029210Y0091183D02*
X0029210Y0101183D01*
X0029208Y0101341D01*
X0029202Y0101499D01*
X0029192Y0101657D01*
X0029178Y0101815D01*
X0029160Y0101972D01*
X0029139Y0102129D01*
X0029113Y0102285D01*
X0029083Y0102441D01*
X0029050Y0102596D01*
X0029012Y0102749D01*
X0028971Y0102902D01*
X0028926Y0103054D01*
X0028877Y0103205D01*
X0028824Y0103354D01*
X0028768Y0103502D01*
X0028708Y0103648D01*
X0028644Y0103793D01*
X0028576Y0103936D01*
X0028505Y0104078D01*
X0028431Y0104218D01*
X0028353Y0104355D01*
X0028271Y0104491D01*
X0028187Y0104625D01*
X0028098Y0104756D01*
X0028007Y0104885D01*
X0027912Y0105012D01*
X0027815Y0105137D01*
X0027714Y0105259D01*
X0027610Y0105378D01*
X0027503Y0105495D01*
X0027393Y0105609D01*
X0027280Y0105720D01*
X0027165Y0105829D01*
X0027047Y0105934D01*
X0026926Y0106036D01*
X0026803Y0106136D01*
X0026677Y0106232D01*
X0026549Y0106325D01*
X0026419Y0106415D01*
X0026286Y0106501D01*
X0026151Y0106585D01*
X0026015Y0106664D01*
X0025876Y0106741D01*
X0025735Y0106813D01*
X0025593Y0106883D01*
X0025449Y0106948D01*
X0025303Y0107010D01*
X0025156Y0107068D01*
X0025007Y0107123D01*
X0024857Y0107174D01*
X0024706Y0107221D01*
X0024554Y0107264D01*
X0024401Y0107303D01*
X0024246Y0107339D01*
X0024091Y0107370D01*
X0023935Y0107398D01*
X0023779Y0107422D01*
X0023622Y0107442D01*
X0023464Y0107458D01*
X0023307Y0107470D01*
X0023148Y0107478D01*
X0022990Y0107482D01*
X0022832Y0107482D01*
X0022674Y0107478D01*
X0022515Y0107470D01*
X0022358Y0107458D01*
X0022200Y0107442D01*
X0022043Y0107422D01*
X0021887Y0107398D01*
X0021731Y0107370D01*
X0021576Y0107339D01*
X0021421Y0107303D01*
X0021268Y0107264D01*
X0021116Y0107221D01*
X0020965Y0107174D01*
X0020815Y0107123D01*
X0020666Y0107068D01*
X0020519Y0107010D01*
X0020373Y0106948D01*
X0020229Y0106883D01*
X0020087Y0106813D01*
X0019946Y0106741D01*
X0019807Y0106664D01*
X0019671Y0106585D01*
X0019536Y0106501D01*
X0019403Y0106415D01*
X0019273Y0106325D01*
X0019145Y0106232D01*
X0019019Y0106136D01*
X0018896Y0106036D01*
X0018775Y0105934D01*
X0018657Y0105829D01*
X0018542Y0105720D01*
X0018429Y0105609D01*
X0018319Y0105495D01*
X0018212Y0105378D01*
X0018108Y0105259D01*
X0018007Y0105137D01*
X0017910Y0105012D01*
X0017815Y0104885D01*
X0017724Y0104756D01*
X0017635Y0104625D01*
X0017551Y0104491D01*
X0017469Y0104355D01*
X0017391Y0104218D01*
X0017317Y0104078D01*
X0017246Y0103936D01*
X0017178Y0103793D01*
X0017114Y0103648D01*
X0017054Y0103502D01*
X0016998Y0103354D01*
X0016945Y0103205D01*
X0016896Y0103054D01*
X0016851Y0102902D01*
X0016810Y0102749D01*
X0016772Y0102596D01*
X0016739Y0102441D01*
X0016709Y0102285D01*
X0016683Y0102129D01*
X0016662Y0101972D01*
X0016644Y0101815D01*
X0016630Y0101657D01*
X0016620Y0101499D01*
X0016614Y0101341D01*
X0016612Y0101183D01*
X0016612Y0091183D01*
X0016614Y0091025D01*
X0016620Y0090867D01*
X0016630Y0090709D01*
X0016644Y0090551D01*
X0016662Y0090394D01*
X0016683Y0090237D01*
X0016709Y0090081D01*
X0016739Y0089925D01*
X0016772Y0089770D01*
X0016810Y0089617D01*
X0016851Y0089464D01*
X0016896Y0089312D01*
X0016945Y0089161D01*
X0016998Y0089012D01*
X0017054Y0088864D01*
X0017114Y0088718D01*
X0017178Y0088573D01*
X0017246Y0088430D01*
X0017317Y0088288D01*
X0017391Y0088148D01*
X0017469Y0088011D01*
X0017551Y0087875D01*
X0017635Y0087741D01*
X0017724Y0087610D01*
X0017815Y0087481D01*
X0017910Y0087354D01*
X0018007Y0087229D01*
X0018108Y0087107D01*
X0018212Y0086988D01*
X0018319Y0086871D01*
X0018429Y0086757D01*
X0018542Y0086646D01*
X0018657Y0086537D01*
X0018775Y0086432D01*
X0018896Y0086330D01*
X0019019Y0086230D01*
X0019145Y0086134D01*
X0019273Y0086041D01*
X0019403Y0085951D01*
X0019536Y0085865D01*
X0019671Y0085781D01*
X0019807Y0085702D01*
X0019946Y0085625D01*
X0020087Y0085553D01*
X0020229Y0085483D01*
X0020373Y0085418D01*
X0020519Y0085356D01*
X0020666Y0085298D01*
X0020815Y0085243D01*
X0020965Y0085192D01*
X0021116Y0085145D01*
X0021268Y0085102D01*
X0021421Y0085063D01*
X0021576Y0085027D01*
X0021731Y0084996D01*
X0021887Y0084968D01*
X0022043Y0084944D01*
X0022200Y0084924D01*
X0022358Y0084908D01*
X0022515Y0084896D01*
X0022674Y0084888D01*
X0022832Y0084884D01*
X0022990Y0084884D01*
X0023148Y0084888D01*
X0023307Y0084896D01*
X0023464Y0084908D01*
X0023622Y0084924D01*
X0023779Y0084944D01*
X0023935Y0084968D01*
X0024091Y0084996D01*
X0024246Y0085027D01*
X0024401Y0085063D01*
X0024554Y0085102D01*
X0024706Y0085145D01*
X0024857Y0085192D01*
X0025007Y0085243D01*
X0025156Y0085298D01*
X0025303Y0085356D01*
X0025449Y0085418D01*
X0025593Y0085483D01*
X0025735Y0085553D01*
X0025876Y0085625D01*
X0026015Y0085702D01*
X0026151Y0085781D01*
X0026286Y0085865D01*
X0026419Y0085951D01*
X0026549Y0086041D01*
X0026677Y0086134D01*
X0026803Y0086230D01*
X0026926Y0086330D01*
X0027047Y0086432D01*
X0027165Y0086537D01*
X0027280Y0086646D01*
X0027393Y0086757D01*
X0027503Y0086871D01*
X0027610Y0086988D01*
X0027714Y0087107D01*
X0027815Y0087229D01*
X0027912Y0087354D01*
X0028007Y0087481D01*
X0028098Y0087610D01*
X0028187Y0087741D01*
X0028271Y0087875D01*
X0028353Y0088011D01*
X0028431Y0088148D01*
X0028505Y0088288D01*
X0028576Y0088430D01*
X0028644Y0088573D01*
X0028708Y0088718D01*
X0028768Y0088864D01*
X0028824Y0089012D01*
X0028877Y0089161D01*
X0028926Y0089312D01*
X0028971Y0089464D01*
X0029012Y0089617D01*
X0029050Y0089770D01*
X0029083Y0089925D01*
X0029113Y0090081D01*
X0029139Y0090237D01*
X0029160Y0090394D01*
X0029178Y0090551D01*
X0029192Y0090709D01*
X0029202Y0090867D01*
X0029208Y0091025D01*
X0029210Y0091183D01*
D12*
X0024311Y0090778D02*
X0024311Y0089844D01*
X0023844Y0089377D01*
X0021509Y0089377D01*
X0021976Y0088483D02*
X0021509Y0088016D01*
X0021509Y0087081D01*
X0021976Y0086614D01*
X0023844Y0086614D01*
X0024311Y0087081D01*
X0024311Y0088016D01*
X0023844Y0088483D01*
X0024311Y0090778D02*
X0023844Y0091245D01*
X0021509Y0091245D01*
X0021509Y0092139D02*
X0021509Y0094007D01*
X0021509Y0093073D02*
X0024311Y0093073D01*
X0023844Y0097664D02*
X0024311Y0098131D01*
X0024311Y0099065D01*
X0023844Y0099532D01*
X0021976Y0099532D01*
X0021509Y0099065D01*
X0021509Y0098131D01*
X0021976Y0097664D01*
X0023844Y0097664D01*
X0023844Y0100426D02*
X0024311Y0100893D01*
X0024311Y0101827D01*
X0023844Y0102294D01*
X0021509Y0102294D01*
X0021509Y0103189D02*
X0021509Y0105057D01*
X0021509Y0104123D02*
X0024311Y0104123D01*
X0023844Y0100426D02*
X0021509Y0100426D01*
X0021509Y0046002D02*
X0021509Y0044133D01*
X0021509Y0043239D02*
X0023844Y0043239D01*
X0024311Y0042772D01*
X0024311Y0041838D01*
X0023844Y0041371D01*
X0021509Y0041371D01*
X0021976Y0040477D02*
X0021509Y0040010D01*
X0021509Y0039076D01*
X0021976Y0038609D01*
X0023844Y0038609D01*
X0024311Y0039076D01*
X0024311Y0040010D01*
X0023844Y0040477D01*
X0021976Y0040477D01*
X0021509Y0034952D02*
X0021509Y0033084D01*
X0021509Y0032190D02*
X0023844Y0032190D01*
X0024311Y0031723D01*
X0024311Y0030789D01*
X0023844Y0030322D01*
X0021509Y0030322D01*
X0021976Y0029428D02*
X0021509Y0028960D01*
X0021509Y0028026D01*
X0021976Y0027559D01*
X0023844Y0027559D01*
X0024311Y0028026D01*
X0024311Y0028960D01*
X0023844Y0029428D01*
X0024311Y0034018D02*
X0021509Y0034018D01*
X0021509Y0045068D02*
X0024311Y0045068D01*
X0503792Y0045068D02*
X0506594Y0045068D01*
X0503792Y0044133D02*
X0503792Y0046002D01*
X0503792Y0043239D02*
X0506127Y0043239D01*
X0506594Y0042772D01*
X0506594Y0041838D01*
X0506127Y0041371D01*
X0503792Y0041371D01*
X0504259Y0040477D02*
X0503792Y0040010D01*
X0503792Y0039076D01*
X0504259Y0038609D01*
X0506127Y0038609D01*
X0506594Y0039076D01*
X0506594Y0040010D01*
X0506127Y0040477D01*
X0504259Y0040477D01*
X0503792Y0034952D02*
X0503792Y0033084D01*
X0503792Y0032190D02*
X0506127Y0032190D01*
X0506594Y0031723D01*
X0506594Y0030789D01*
X0506127Y0030322D01*
X0503792Y0030322D01*
X0504259Y0029428D02*
X0503792Y0028960D01*
X0503792Y0028026D01*
X0504259Y0027559D01*
X0506127Y0027559D01*
X0506594Y0028026D01*
X0506594Y0028960D01*
X0506127Y0029428D01*
X0506594Y0034018D02*
X0503792Y0034018D01*
X0504259Y0086614D02*
X0503792Y0087081D01*
X0503792Y0088016D01*
X0504259Y0088483D01*
X0503792Y0089377D02*
X0506127Y0089377D01*
X0506594Y0089844D01*
X0506594Y0090778D01*
X0506127Y0091245D01*
X0503792Y0091245D01*
X0503792Y0092139D02*
X0503792Y0094007D01*
X0503792Y0093073D02*
X0506594Y0093073D01*
X0506127Y0088483D02*
X0506594Y0088016D01*
X0506594Y0087081D01*
X0506127Y0086614D01*
X0504259Y0086614D01*
X0504259Y0097664D02*
X0503792Y0098131D01*
X0503792Y0099065D01*
X0504259Y0099532D01*
X0506127Y0099532D01*
X0506594Y0099065D01*
X0506594Y0098131D01*
X0506127Y0097664D01*
X0504259Y0097664D01*
X0503792Y0100426D02*
X0506127Y0100426D01*
X0506594Y0100893D01*
X0506594Y0101827D01*
X0506127Y0102294D01*
X0503792Y0102294D01*
X0503792Y0103189D02*
X0503792Y0105057D01*
X0503792Y0104123D02*
X0506594Y0104123D01*
D13*
X0505194Y0101183D02*
X0505194Y0091183D01*
X0505194Y0042128D02*
X0505194Y0032128D01*
X0022911Y0032128D02*
X0022911Y0042128D01*
X0022911Y0091183D02*
X0022911Y0101183D01*
D14*
X0217102Y0107876D02*
X0420098Y0107876D01*
X0458364Y0071655D02*
X0458344Y0070764D01*
X0458303Y0069874D01*
X0458240Y0068985D01*
X0458155Y0068098D01*
X0458049Y0067214D01*
X0457921Y0066332D01*
X0457772Y0065453D01*
X0457602Y0064579D01*
X0457410Y0063709D01*
X0457197Y0062843D01*
X0456964Y0061984D01*
X0456709Y0061130D01*
X0456434Y0060282D01*
X0456138Y0059442D01*
X0455822Y0058609D01*
X0455485Y0057784D01*
X0455129Y0056967D01*
X0454753Y0056159D01*
X0454357Y0055361D01*
X0453942Y0054573D01*
X0453509Y0053794D01*
X0453056Y0053027D01*
X0452584Y0052271D01*
X0452095Y0051527D01*
X0451587Y0050794D01*
X0451062Y0050074D01*
X0450520Y0049368D01*
X0449960Y0048674D01*
X0449384Y0047995D01*
X0448791Y0047330D01*
X0448182Y0046679D01*
X0447558Y0046043D01*
X0446918Y0045423D01*
X0446264Y0044818D01*
X0445595Y0044230D01*
X0444912Y0043658D01*
X0444215Y0043102D01*
X0443505Y0042564D01*
X0442782Y0042044D01*
X0442046Y0041541D01*
X0441299Y0041056D01*
X0440540Y0040589D01*
X0439770Y0040141D01*
X0438989Y0039712D01*
X0438198Y0039302D01*
X0437397Y0038911D01*
X0436587Y0038540D01*
X0435768Y0038189D01*
X0434941Y0037858D01*
X0434106Y0037547D01*
X0433264Y0037256D01*
X0432414Y0036987D01*
X0431559Y0036737D01*
X0430698Y0036509D01*
X0429831Y0036302D01*
X0428960Y0036115D01*
X0428084Y0035950D01*
X0427205Y0035807D01*
X0426322Y0035685D01*
X0425437Y0035584D01*
X0424550Y0035505D01*
X0423661Y0035447D01*
X0422770Y0035411D01*
X0421879Y0035397D01*
X0420988Y0035405D01*
X0420098Y0035434D01*
X0420098Y0035435D02*
X0217102Y0035435D01*
X0178836Y0071655D02*
X0178856Y0072546D01*
X0178897Y0073436D01*
X0178960Y0074325D01*
X0179045Y0075212D01*
X0179151Y0076096D01*
X0179279Y0076978D01*
X0179428Y0077857D01*
X0179598Y0078731D01*
X0179790Y0079601D01*
X0180003Y0080467D01*
X0180236Y0081326D01*
X0180491Y0082180D01*
X0180766Y0083028D01*
X0181062Y0083868D01*
X0181378Y0084701D01*
X0181715Y0085526D01*
X0182071Y0086343D01*
X0182447Y0087151D01*
X0182843Y0087949D01*
X0183258Y0088737D01*
X0183691Y0089516D01*
X0184144Y0090283D01*
X0184616Y0091039D01*
X0185105Y0091783D01*
X0185613Y0092516D01*
X0186138Y0093236D01*
X0186680Y0093942D01*
X0187240Y0094636D01*
X0187816Y0095315D01*
X0188409Y0095980D01*
X0189018Y0096631D01*
X0189642Y0097267D01*
X0190282Y0097887D01*
X0190936Y0098492D01*
X0191605Y0099080D01*
X0192288Y0099652D01*
X0192985Y0100208D01*
X0193695Y0100746D01*
X0194418Y0101266D01*
X0195154Y0101769D01*
X0195901Y0102254D01*
X0196660Y0102721D01*
X0197430Y0103169D01*
X0198211Y0103598D01*
X0199002Y0104008D01*
X0199803Y0104399D01*
X0200613Y0104770D01*
X0201432Y0105121D01*
X0202259Y0105452D01*
X0203094Y0105763D01*
X0203936Y0106054D01*
X0204786Y0106323D01*
X0205641Y0106573D01*
X0206502Y0106801D01*
X0207369Y0107008D01*
X0208240Y0107195D01*
X0209116Y0107360D01*
X0209995Y0107503D01*
X0210878Y0107625D01*
X0211763Y0107726D01*
X0212650Y0107805D01*
X0213539Y0107863D01*
X0214430Y0107899D01*
X0215321Y0107913D01*
X0216212Y0107905D01*
X0217102Y0107876D01*
X0178836Y0071655D02*
X0178856Y0070764D01*
X0178897Y0069874D01*
X0178960Y0068985D01*
X0179045Y0068098D01*
X0179151Y0067214D01*
X0179279Y0066332D01*
X0179428Y0065453D01*
X0179598Y0064579D01*
X0179790Y0063709D01*
X0180003Y0062843D01*
X0180236Y0061984D01*
X0180491Y0061130D01*
X0180766Y0060282D01*
X0181062Y0059442D01*
X0181378Y0058609D01*
X0181715Y0057784D01*
X0182071Y0056967D01*
X0182447Y0056159D01*
X0182843Y0055361D01*
X0183258Y0054573D01*
X0183691Y0053794D01*
X0184144Y0053027D01*
X0184616Y0052271D01*
X0185105Y0051527D01*
X0185613Y0050794D01*
X0186138Y0050074D01*
X0186680Y0049368D01*
X0187240Y0048674D01*
X0187816Y0047995D01*
X0188409Y0047330D01*
X0189018Y0046679D01*
X0189642Y0046043D01*
X0190282Y0045423D01*
X0190936Y0044818D01*
X0191605Y0044230D01*
X0192288Y0043658D01*
X0192985Y0043102D01*
X0193695Y0042564D01*
X0194418Y0042044D01*
X0195154Y0041541D01*
X0195901Y0041056D01*
X0196660Y0040589D01*
X0197430Y0040141D01*
X0198211Y0039712D01*
X0199002Y0039302D01*
X0199803Y0038911D01*
X0200613Y0038540D01*
X0201432Y0038189D01*
X0202259Y0037858D01*
X0203094Y0037547D01*
X0203936Y0037256D01*
X0204786Y0036987D01*
X0205641Y0036737D01*
X0206502Y0036509D01*
X0207369Y0036302D01*
X0208240Y0036115D01*
X0209116Y0035950D01*
X0209995Y0035807D01*
X0210878Y0035685D01*
X0211763Y0035584D01*
X0212650Y0035505D01*
X0213539Y0035447D01*
X0214430Y0035411D01*
X0215321Y0035397D01*
X0216212Y0035405D01*
X0217102Y0035434D01*
X0420098Y0107876D02*
X0420988Y0107905D01*
X0421879Y0107913D01*
X0422770Y0107899D01*
X0423661Y0107863D01*
X0424550Y0107805D01*
X0425437Y0107726D01*
X0426322Y0107625D01*
X0427205Y0107503D01*
X0428084Y0107360D01*
X0428960Y0107195D01*
X0429831Y0107008D01*
X0430698Y0106801D01*
X0431559Y0106573D01*
X0432414Y0106323D01*
X0433264Y0106054D01*
X0434106Y0105763D01*
X0434941Y0105452D01*
X0435768Y0105121D01*
X0436587Y0104770D01*
X0437397Y0104399D01*
X0438198Y0104008D01*
X0438989Y0103598D01*
X0439770Y0103169D01*
X0440540Y0102721D01*
X0441299Y0102254D01*
X0442046Y0101769D01*
X0442782Y0101266D01*
X0443505Y0100746D01*
X0444215Y0100208D01*
X0444912Y0099652D01*
X0445595Y0099080D01*
X0446264Y0098492D01*
X0446918Y0097887D01*
X0447558Y0097267D01*
X0448182Y0096631D01*
X0448791Y0095980D01*
X0449384Y0095315D01*
X0449960Y0094636D01*
X0450520Y0093942D01*
X0451062Y0093236D01*
X0451587Y0092516D01*
X0452095Y0091783D01*
X0452584Y0091039D01*
X0453056Y0090283D01*
X0453509Y0089516D01*
X0453942Y0088737D01*
X0454357Y0087949D01*
X0454753Y0087151D01*
X0455129Y0086343D01*
X0455485Y0085526D01*
X0455822Y0084701D01*
X0456138Y0083868D01*
X0456434Y0083028D01*
X0456709Y0082180D01*
X0456964Y0081326D01*
X0457197Y0080467D01*
X0457410Y0079601D01*
X0457602Y0078731D01*
X0457772Y0077857D01*
X0457921Y0076978D01*
X0458049Y0076096D01*
X0458155Y0075212D01*
X0458240Y0074325D01*
X0458303Y0073436D01*
X0458344Y0072546D01*
X0458364Y0071655D01*
D15*
X0388349Y0081526D02*
X0371868Y0081526D01*
X0365329Y0081526D02*
X0365329Y0060925D01*
X0361209Y0056805D01*
X0352969Y0056805D01*
X0348848Y0060925D01*
X0348848Y0081526D01*
X0342309Y0077406D02*
X0338189Y0081526D01*
X0329949Y0081526D01*
X0325829Y0077406D01*
X0325829Y0060925D01*
X0329949Y0056805D01*
X0338189Y0056805D01*
X0342309Y0060925D01*
X0342309Y0077406D01*
X0380108Y0081526D02*
X0380108Y0056805D01*
X0296270Y0081526D02*
X0279789Y0081526D01*
X0288030Y0081526D02*
X0288030Y0056805D01*
X0273250Y0060925D02*
X0273250Y0081526D01*
X0256770Y0081526D02*
X0256770Y0060925D01*
X0260890Y0056805D01*
X0269130Y0056805D01*
X0273250Y0060925D01*
X0250231Y0060925D02*
X0246111Y0056805D01*
X0237870Y0056805D01*
X0233750Y0060925D01*
X0233750Y0077406D01*
X0237870Y0081526D01*
X0246111Y0081526D01*
X0250231Y0077406D01*
D16*
X0215057Y0071655D02*
X0422143Y0071655D01*
M02*
