G75*
%MOIN*%
%OFA0B0*%
%FSLAX25Y25*%
%IPPOS*%
%LPD*%
%AMOC8*
5,1,8,0,0,1.08239X$1,22.5*
%
%ADD10OC8,0.04800*%
%ADD11R,0.06500X0.06500*%
%ADD12C,0.06500*%
%ADD13C,0.06600*%
%ADD14C,0.04800*%
%ADD15C,0.11811*%
%ADD16OC8,0.07400*%
%ADD17C,0.07400*%
%ADD18C,0.13000*%
%ADD19R,0.04800X0.04800*%
%ADD20C,0.04800*%
%ADD21C,0.01600*%
%ADD22C,0.03169*%
D10*
X0066800Y0006800D03*
X0086800Y0006800D03*
X0101800Y0009300D03*
X0111800Y0009300D03*
X0111800Y0029300D03*
X0101800Y0029300D03*
X0086800Y0036800D03*
X0066800Y0036800D03*
X0094300Y0051800D03*
X0116800Y0064300D03*
X0136800Y0064300D03*
X0144300Y0059300D03*
X0154300Y0059300D03*
X0164300Y0069300D03*
X0194300Y0059300D03*
X0191800Y0041800D03*
X0191800Y0011800D03*
X0134300Y0079300D03*
X0124300Y0079300D03*
X0114300Y0081800D03*
X0104300Y0081800D03*
X0094300Y0081800D03*
X0081800Y0081800D03*
X0124300Y0109300D03*
X0134300Y0109300D03*
X0114300Y0111800D03*
X0104300Y0111800D03*
X0081800Y0111800D03*
X0144300Y0089300D03*
X0154300Y0089300D03*
X0164300Y0089300D03*
X0194300Y0089300D03*
D11*
X0089300Y0026800D03*
X0069300Y0026800D03*
D12*
X0069300Y0016800D03*
X0089300Y0016800D03*
D13*
X0054300Y0006800D03*
X0014300Y0006800D03*
X0014300Y0036800D03*
X0054300Y0036800D03*
D14*
X0121800Y0039400D02*
X0121800Y0044200D01*
X0131800Y0044200D02*
X0131800Y0039400D01*
X0141800Y0039400D02*
X0141800Y0044200D01*
X0151800Y0044200D02*
X0151800Y0039400D01*
X0161800Y0039400D02*
X0161800Y0044200D01*
X0171800Y0044200D02*
X0171800Y0039400D01*
X0181800Y0039400D02*
X0181800Y0044200D01*
X0181800Y0014200D02*
X0181800Y0009400D01*
X0171800Y0009400D02*
X0171800Y0014200D01*
X0161800Y0014200D02*
X0161800Y0009400D01*
X0151800Y0009400D02*
X0151800Y0014200D01*
X0141800Y0014200D02*
X0141800Y0009400D01*
X0131800Y0009400D02*
X0131800Y0014200D01*
X0121800Y0014200D02*
X0121800Y0009400D01*
D15*
X0055048Y0054103D02*
X0043237Y0054103D01*
X0025366Y0057014D02*
X0017014Y0065366D01*
X0014103Y0083237D02*
X0014103Y0095048D01*
X0031032Y0104497D02*
X0042843Y0104497D01*
X0064497Y0082843D02*
X0064497Y0071032D01*
D16*
X0044300Y0027300D03*
X0034300Y0026300D03*
X0024300Y0027300D03*
X0014300Y0026300D03*
X0024300Y0017300D03*
X0034300Y0016300D03*
X0044300Y0017300D03*
X0054300Y0016300D03*
X0054300Y0026300D03*
X0014300Y0016300D03*
D17*
X0081800Y0056100D03*
X0081800Y0067500D03*
X0106300Y0069300D03*
X0107300Y0059300D03*
X0106300Y0049300D03*
D18*
X0159300Y0108050D03*
X0188050Y0108050D03*
D19*
X0184300Y0089300D03*
X0174300Y0059300D03*
D20*
X0184300Y0059300D03*
X0174300Y0089300D03*
D21*
X0003650Y0114123D02*
X0003650Y0003650D01*
X0010285Y0003650D01*
X0009938Y0004127D01*
X0009574Y0004842D01*
X0009326Y0005606D01*
X0009200Y0006399D01*
X0009200Y0006500D01*
X0014000Y0006500D01*
X0014000Y0007100D01*
X0009200Y0007100D01*
X0009200Y0007201D01*
X0009326Y0007994D01*
X0009574Y0008758D01*
X0009938Y0009473D01*
X0010410Y0010122D01*
X0010978Y0010690D01*
X0011627Y0011162D01*
X0012024Y0011364D01*
X0009200Y0014188D01*
X0009200Y0018412D01*
X0012088Y0021300D01*
X0009200Y0024188D01*
X0009200Y0028412D01*
X0012188Y0031400D01*
X0016412Y0031400D01*
X0018800Y0029012D01*
X0018800Y0029578D01*
X0022022Y0032800D01*
X0024100Y0032800D01*
X0024100Y0027500D01*
X0024500Y0027500D01*
X0024500Y0032800D01*
X0026578Y0032800D01*
X0029800Y0029578D01*
X0029800Y0029578D01*
X0032022Y0031800D01*
X0034100Y0031800D01*
X0034100Y0026500D01*
X0034500Y0026500D01*
X0034500Y0031800D01*
X0036578Y0031800D01*
X0038800Y0029578D01*
X0038800Y0029578D01*
X0042022Y0032800D01*
X0044100Y0032800D01*
X0044100Y0027500D01*
X0044500Y0027500D01*
X0044500Y0032800D01*
X0046578Y0032800D01*
X0049800Y0029578D01*
X0049800Y0029012D01*
X0052188Y0031400D01*
X0056412Y0031400D01*
X0059400Y0028412D01*
X0059400Y0024188D01*
X0056512Y0021300D01*
X0059400Y0018412D01*
X0059400Y0014188D01*
X0056412Y0011200D01*
X0055959Y0011200D01*
X0056962Y0010784D01*
X0058284Y0009462D01*
X0059000Y0007735D01*
X0059000Y0005865D01*
X0058284Y0004138D01*
X0057797Y0003650D01*
X0064576Y0003650D01*
X0063000Y0005226D01*
X0063000Y0008374D01*
X0065226Y0010600D01*
X0068374Y0010600D01*
X0070600Y0008374D01*
X0070600Y0005226D01*
X0069024Y0003650D01*
X0084576Y0003650D01*
X0083000Y0005226D01*
X0083000Y0008374D01*
X0085226Y0010600D01*
X0088374Y0010600D01*
X0090600Y0008374D01*
X0090600Y0005226D01*
X0089024Y0003650D01*
X0196210Y0003650D01*
X0196210Y0055836D01*
X0195874Y0055500D01*
X0192726Y0055500D01*
X0190500Y0057726D01*
X0190500Y0060874D01*
X0192726Y0063100D01*
X0195874Y0063100D01*
X0196210Y0062764D01*
X0196210Y0085836D01*
X0195874Y0085500D01*
X0192726Y0085500D01*
X0190500Y0087726D01*
X0190500Y0090874D01*
X0192726Y0093100D01*
X0195874Y0093100D01*
X0196210Y0092764D01*
X0196210Y0106442D01*
X0196208Y0106427D01*
X0195926Y0105376D01*
X0195510Y0104371D01*
X0194966Y0103429D01*
X0194304Y0102566D01*
X0193534Y0101796D01*
X0192671Y0101134D01*
X0191729Y0100590D01*
X0190724Y0100174D01*
X0189673Y0099892D01*
X0188850Y0099784D01*
X0188850Y0107250D01*
X0187250Y0107250D01*
X0187250Y0099784D01*
X0186427Y0099892D01*
X0185376Y0100174D01*
X0184371Y0100590D01*
X0183429Y0101134D01*
X0182566Y0101796D01*
X0181796Y0102566D01*
X0181134Y0103429D01*
X0180590Y0104371D01*
X0180174Y0105376D01*
X0179892Y0106427D01*
X0179784Y0107250D01*
X0187250Y0107250D01*
X0187250Y0108850D01*
X0179784Y0108850D01*
X0179892Y0109673D01*
X0180174Y0110724D01*
X0180590Y0111729D01*
X0181134Y0112671D01*
X0181796Y0113534D01*
X0182385Y0114123D01*
X0164399Y0114123D01*
X0165997Y0112525D01*
X0167200Y0109621D01*
X0167200Y0106479D01*
X0165997Y0103575D01*
X0163775Y0101353D01*
X0160871Y0100150D01*
X0157729Y0100150D01*
X0154825Y0101353D01*
X0152603Y0103575D01*
X0151400Y0106479D01*
X0151400Y0109621D01*
X0152603Y0112525D01*
X0154201Y0114123D01*
X0117916Y0114123D01*
X0118500Y0113540D01*
X0118500Y0111800D01*
X0114300Y0111800D01*
X0114300Y0111800D01*
X0118500Y0111800D01*
X0118500Y0110060D01*
X0116040Y0107600D01*
X0114300Y0107600D01*
X0114300Y0111800D01*
X0114300Y0111800D01*
X0114300Y0111800D01*
X0110100Y0111800D01*
X0110100Y0113540D01*
X0110684Y0114123D01*
X0107351Y0114123D01*
X0108100Y0113374D01*
X0108100Y0110226D01*
X0106500Y0108626D01*
X0106500Y0088389D01*
X0103711Y0085600D01*
X0105874Y0085600D01*
X0108100Y0083374D01*
X0108100Y0080226D01*
X0106874Y0079000D01*
X0110211Y0079000D01*
X0117711Y0071500D01*
X0119000Y0070211D01*
X0119000Y0067474D01*
X0120600Y0065874D01*
X0120600Y0063611D01*
X0122711Y0061500D01*
X0124000Y0060211D01*
X0124000Y0047374D01*
X0125021Y0046353D01*
X0125600Y0044956D01*
X0125600Y0038644D01*
X0125021Y0037247D01*
X0124000Y0036226D01*
X0124000Y0030211D01*
X0132711Y0021500D01*
X0136134Y0021500D01*
X0136338Y0021636D01*
X0137018Y0021500D01*
X0137711Y0021500D01*
X0137885Y0021327D01*
X0138125Y0021279D01*
X0138510Y0020702D01*
X0139000Y0020211D01*
X0139000Y0019966D01*
X0140469Y0017762D01*
X0141044Y0018000D01*
X0142556Y0018000D01*
X0143953Y0017421D01*
X0145021Y0016353D01*
X0145600Y0014956D01*
X0145600Y0008644D01*
X0145021Y0007247D01*
X0143953Y0006179D01*
X0142556Y0005600D01*
X0141044Y0005600D01*
X0139647Y0006179D01*
X0138579Y0007247D01*
X0138000Y0008644D01*
X0138000Y0013534D01*
X0135623Y0017100D01*
X0134274Y0017100D01*
X0135021Y0016353D01*
X0135600Y0014956D01*
X0135600Y0008644D01*
X0135021Y0007247D01*
X0133953Y0006179D01*
X0132556Y0005600D01*
X0131044Y0005600D01*
X0129647Y0006179D01*
X0128579Y0007247D01*
X0128000Y0008644D01*
X0128000Y0014956D01*
X0128010Y0014979D01*
X0118389Y0024600D01*
X0117100Y0025889D01*
X0117100Y0034639D01*
X0112139Y0039600D01*
X0103389Y0039600D01*
X0099173Y0043816D01*
X0098706Y0043816D01*
X0097610Y0044270D01*
X0096770Y0045110D01*
X0096500Y0045762D01*
X0096500Y0027711D01*
X0102711Y0021500D01*
X0112711Y0021500D01*
X0114000Y0020211D01*
X0118368Y0015844D01*
X0118579Y0016353D01*
X0119647Y0017421D01*
X0121044Y0018000D01*
X0122556Y0018000D01*
X0123953Y0017421D01*
X0125021Y0016353D01*
X0125600Y0014956D01*
X0125600Y0008644D01*
X0125021Y0007247D01*
X0123953Y0006179D01*
X0122556Y0005600D01*
X0121044Y0005600D01*
X0119647Y0006179D01*
X0118579Y0007247D01*
X0118000Y0008644D01*
X0118000Y0009989D01*
X0110889Y0017100D01*
X0100889Y0017100D01*
X0094350Y0023639D01*
X0094350Y0023313D01*
X0094227Y0022855D01*
X0093990Y0022445D01*
X0093655Y0022110D01*
X0093245Y0021873D01*
X0092787Y0021750D01*
X0089300Y0021750D01*
X0089300Y0026800D01*
X0089300Y0026800D01*
X0089300Y0031850D01*
X0092100Y0031850D01*
X0092100Y0048626D01*
X0090500Y0050226D01*
X0090500Y0053374D01*
X0092726Y0055600D01*
X0095874Y0055600D01*
X0098100Y0053374D01*
X0098100Y0050226D01*
X0096500Y0048626D01*
X0096500Y0047838D01*
X0096770Y0048490D01*
X0097610Y0049330D01*
X0098706Y0049784D01*
X0099894Y0049784D01*
X0100990Y0049330D01*
X0101200Y0049120D01*
X0101200Y0050314D01*
X0101976Y0052189D01*
X0103411Y0053624D01*
X0105286Y0054400D01*
X0105803Y0054400D01*
X0104411Y0054976D01*
X0102976Y0056411D01*
X0102200Y0058286D01*
X0102200Y0060314D01*
X0102976Y0062189D01*
X0104411Y0063624D01*
X0105122Y0063918D01*
X0105012Y0063935D01*
X0104189Y0064203D01*
X0103417Y0064596D01*
X0102717Y0065105D01*
X0102105Y0065717D01*
X0101596Y0066417D01*
X0101203Y0067189D01*
X0100935Y0068012D01*
X0100800Y0068867D01*
X0100800Y0069100D01*
X0106100Y0069100D01*
X0106100Y0069500D01*
X0100800Y0069500D01*
X0100800Y0069733D01*
X0100935Y0070588D01*
X0101203Y0071411D01*
X0101596Y0072183D01*
X0102105Y0072883D01*
X0102717Y0073495D01*
X0103417Y0074004D01*
X0104189Y0074397D01*
X0104813Y0074600D01*
X0100889Y0074600D01*
X0099600Y0075889D01*
X0097100Y0078389D01*
X0097100Y0079226D01*
X0095874Y0078000D01*
X0092726Y0078000D01*
X0090500Y0080226D01*
X0090500Y0083374D01*
X0092726Y0085600D01*
X0095874Y0085600D01*
X0097100Y0084374D01*
X0097100Y0085211D01*
X0098389Y0086500D01*
X0102100Y0090211D01*
X0102100Y0108626D01*
X0100500Y0110226D01*
X0100500Y0113374D01*
X0101249Y0114123D01*
X0085416Y0114123D01*
X0086000Y0113540D01*
X0086000Y0111800D01*
X0081800Y0111800D01*
X0081800Y0111800D01*
X0086000Y0111800D01*
X0086000Y0110060D01*
X0083540Y0107600D01*
X0081800Y0107600D01*
X0081800Y0111800D01*
X0081800Y0111800D01*
X0081800Y0111800D01*
X0077600Y0111800D01*
X0077600Y0113540D01*
X0078184Y0114123D01*
X0003650Y0114123D01*
X0003650Y0113696D02*
X0077756Y0113696D01*
X0077600Y0112097D02*
X0003650Y0112097D01*
X0003650Y0110499D02*
X0026703Y0110499D01*
X0026894Y0110690D02*
X0024839Y0108635D01*
X0023727Y0105950D01*
X0023727Y0103044D01*
X0024839Y0100359D01*
X0026894Y0098304D01*
X0029579Y0097191D01*
X0044296Y0097191D01*
X0046982Y0098304D01*
X0049037Y0100359D01*
X0050149Y0103044D01*
X0050149Y0105950D01*
X0049037Y0108635D01*
X0046982Y0110690D01*
X0044296Y0111802D01*
X0029579Y0111802D01*
X0026894Y0110690D01*
X0025104Y0108900D02*
X0003650Y0108900D01*
X0003650Y0107302D02*
X0024287Y0107302D01*
X0023727Y0105703D02*
X0003650Y0105703D01*
X0003650Y0104105D02*
X0023727Y0104105D01*
X0023949Y0102506D02*
X0003650Y0102506D01*
X0003650Y0100908D02*
X0009631Y0100908D01*
X0009965Y0101241D02*
X0007910Y0099186D01*
X0006798Y0096501D01*
X0006798Y0081784D01*
X0007910Y0079099D01*
X0009965Y0077044D01*
X0012650Y0075931D01*
X0015556Y0075931D01*
X0018241Y0077044D01*
X0020296Y0079099D01*
X0021409Y0081784D01*
X0021409Y0096501D01*
X0020296Y0099186D01*
X0018241Y0101241D01*
X0015556Y0102354D01*
X0012650Y0102354D01*
X0009965Y0101241D01*
X0008033Y0099309D02*
X0003650Y0099309D01*
X0003650Y0097711D02*
X0007299Y0097711D01*
X0006798Y0096112D02*
X0003650Y0096112D01*
X0003650Y0094514D02*
X0006798Y0094514D01*
X0006798Y0092915D02*
X0003650Y0092915D01*
X0003650Y0091317D02*
X0006798Y0091317D01*
X0006798Y0089718D02*
X0003650Y0089718D01*
X0003650Y0088120D02*
X0006798Y0088120D01*
X0006798Y0086521D02*
X0003650Y0086521D01*
X0003650Y0084923D02*
X0006798Y0084923D01*
X0006798Y0083324D02*
X0003650Y0083324D01*
X0003650Y0081726D02*
X0006822Y0081726D01*
X0007484Y0080127D02*
X0003650Y0080127D01*
X0003650Y0078529D02*
X0008480Y0078529D01*
X0010239Y0076930D02*
X0003650Y0076930D01*
X0003650Y0075332D02*
X0025457Y0075332D01*
X0025883Y0073742D02*
X0027778Y0070459D01*
X0030459Y0067778D01*
X0033742Y0065883D01*
X0037404Y0064902D01*
X0041196Y0064902D01*
X0044858Y0065883D01*
X0048141Y0067778D01*
X0050822Y0070459D01*
X0052717Y0073742D01*
X0053698Y0077404D01*
X0053698Y0081196D01*
X0052717Y0084858D01*
X0050822Y0088141D01*
X0048141Y0090822D01*
X0044858Y0092717D01*
X0041196Y0093698D01*
X0037404Y0093698D01*
X0033742Y0092717D01*
X0030459Y0090822D01*
X0027778Y0088141D01*
X0025883Y0084858D01*
X0024902Y0081196D01*
X0024902Y0077404D01*
X0025883Y0073742D01*
X0025888Y0073733D02*
X0003650Y0073733D01*
X0003650Y0072134D02*
X0013327Y0072134D01*
X0013599Y0072291D02*
X0012724Y0071786D01*
X0011922Y0071171D01*
X0011565Y0070814D01*
X0011208Y0070457D01*
X0010593Y0069656D01*
X0010088Y0068781D01*
X0009702Y0067848D01*
X0009440Y0066872D01*
X0009308Y0065871D01*
X0009308Y0064861D01*
X0009440Y0063859D01*
X0009702Y0062883D01*
X0010088Y0061950D01*
X0010593Y0061075D01*
X0011208Y0060274D01*
X0015741Y0055741D01*
X0020274Y0051208D01*
X0021075Y0050593D01*
X0021950Y0050088D01*
X0022883Y0049702D01*
X0023859Y0049440D01*
X0024861Y0049308D01*
X0025871Y0049308D01*
X0026872Y0049440D01*
X0027848Y0049702D01*
X0028781Y0050088D01*
X0029656Y0050593D01*
X0030457Y0051208D01*
X0030814Y0051565D01*
X0021190Y0061190D01*
X0026638Y0066638D01*
X0022105Y0071171D01*
X0021304Y0071786D01*
X0020429Y0072291D01*
X0019496Y0072678D01*
X0018520Y0072939D01*
X0017519Y0073071D01*
X0016509Y0073071D01*
X0015507Y0072939D01*
X0014532Y0072678D01*
X0013599Y0072291D01*
X0011565Y0070814D02*
X0021190Y0061190D01*
X0021190Y0061190D01*
X0026638Y0066638D01*
X0031171Y0062105D01*
X0031786Y0061304D01*
X0032291Y0060429D01*
X0032678Y0059496D01*
X0032939Y0058520D01*
X0033071Y0057519D01*
X0033071Y0056509D01*
X0032939Y0055507D01*
X0032678Y0054532D01*
X0032291Y0053599D01*
X0031786Y0052724D01*
X0031171Y0051922D01*
X0030814Y0051565D01*
X0021190Y0061190D01*
X0021190Y0061190D01*
X0021190Y0061190D01*
X0011565Y0070814D01*
X0011287Y0070536D02*
X0003650Y0070536D01*
X0003650Y0068937D02*
X0010179Y0068937D01*
X0009565Y0067339D02*
X0003650Y0067339D01*
X0003650Y0065740D02*
X0009308Y0065740D01*
X0009403Y0064142D02*
X0003650Y0064142D01*
X0003650Y0062543D02*
X0009843Y0062543D01*
X0010693Y0060945D02*
X0003650Y0060945D01*
X0003650Y0059346D02*
X0012136Y0059346D01*
X0013734Y0057748D02*
X0003650Y0057748D01*
X0003650Y0056149D02*
X0015333Y0056149D01*
X0015741Y0055741D02*
X0021190Y0061190D01*
X0015741Y0055741D01*
X0016149Y0056149D02*
X0016149Y0056149D01*
X0016931Y0054551D02*
X0003650Y0054551D01*
X0003650Y0052952D02*
X0018530Y0052952D01*
X0020128Y0051354D02*
X0003650Y0051354D01*
X0003650Y0049755D02*
X0022754Y0049755D01*
X0027977Y0049755D02*
X0037253Y0049755D01*
X0037044Y0049965D02*
X0039099Y0047910D01*
X0041784Y0046798D01*
X0056501Y0046798D01*
X0059186Y0047910D01*
X0061241Y0049965D01*
X0062354Y0052650D01*
X0062354Y0055556D01*
X0061241Y0058241D01*
X0059186Y0060296D01*
X0056501Y0061409D01*
X0041784Y0061409D01*
X0039099Y0060296D01*
X0037044Y0058241D01*
X0035931Y0055556D01*
X0035931Y0052650D01*
X0037044Y0049965D01*
X0036468Y0051354D02*
X0030603Y0051354D01*
X0029427Y0052952D02*
X0029427Y0052952D01*
X0027829Y0054551D02*
X0027829Y0054551D01*
X0026230Y0056149D02*
X0026230Y0056149D01*
X0024632Y0057748D02*
X0024632Y0057748D01*
X0023033Y0059346D02*
X0023033Y0059346D01*
X0021435Y0060945D02*
X0021434Y0060945D01*
X0021190Y0061190D02*
X0021190Y0061190D01*
X0020945Y0060945D02*
X0020945Y0060945D01*
X0019346Y0059346D02*
X0019346Y0059346D01*
X0017748Y0057748D02*
X0017748Y0057748D01*
X0019836Y0062543D02*
X0019836Y0062543D01*
X0018238Y0064142D02*
X0018237Y0064142D01*
X0016639Y0065740D02*
X0016639Y0065740D01*
X0015041Y0067339D02*
X0015040Y0067339D01*
X0013442Y0068937D02*
X0013442Y0068937D01*
X0011844Y0070536D02*
X0011843Y0070536D01*
X0020701Y0072134D02*
X0026811Y0072134D01*
X0027734Y0070536D02*
X0022741Y0070536D01*
X0024339Y0068937D02*
X0029300Y0068937D01*
X0031220Y0067339D02*
X0025938Y0067339D01*
X0025740Y0065740D02*
X0025741Y0065740D01*
X0027536Y0065740D02*
X0034274Y0065740D01*
X0030733Y0062543D02*
X0080439Y0062543D01*
X0080786Y0062400D02*
X0078911Y0063176D01*
X0077476Y0064611D01*
X0076700Y0066486D01*
X0076700Y0068514D01*
X0077476Y0070389D01*
X0078911Y0071824D01*
X0080786Y0072600D01*
X0082814Y0072600D01*
X0084689Y0071824D01*
X0086124Y0070389D01*
X0086900Y0068514D01*
X0086900Y0066486D01*
X0086124Y0064611D01*
X0084689Y0063176D01*
X0082814Y0062400D01*
X0080786Y0062400D01*
X0080786Y0061200D02*
X0078911Y0060424D01*
X0077476Y0058989D01*
X0076700Y0057114D01*
X0076700Y0055086D01*
X0077476Y0053211D01*
X0078911Y0051776D01*
X0080786Y0051000D01*
X0082814Y0051000D01*
X0084689Y0051776D01*
X0086124Y0053211D01*
X0086900Y0055086D01*
X0086900Y0057114D01*
X0086124Y0058989D01*
X0084689Y0060424D01*
X0082814Y0061200D01*
X0080786Y0061200D01*
X0080170Y0060945D02*
X0057621Y0060945D01*
X0060136Y0059346D02*
X0077834Y0059346D01*
X0076962Y0057748D02*
X0061446Y0057748D01*
X0062108Y0056149D02*
X0076700Y0056149D01*
X0076921Y0054551D02*
X0062354Y0054551D01*
X0062354Y0052952D02*
X0077735Y0052952D01*
X0079931Y0051354D02*
X0061817Y0051354D01*
X0061032Y0049755D02*
X0090971Y0049755D01*
X0090500Y0051354D02*
X0083669Y0051354D01*
X0085865Y0052952D02*
X0090500Y0052952D01*
X0091677Y0054551D02*
X0086679Y0054551D01*
X0086900Y0056149D02*
X0103238Y0056149D01*
X0105438Y0054551D02*
X0096923Y0054551D01*
X0098100Y0052952D02*
X0102740Y0052952D01*
X0101631Y0051354D02*
X0098100Y0051354D01*
X0097629Y0049755D02*
X0098637Y0049755D01*
X0099963Y0049755D02*
X0101200Y0049755D01*
X0099300Y0046800D02*
X0104300Y0041800D01*
X0113050Y0041800D01*
X0119300Y0035550D01*
X0119300Y0026800D01*
X0131800Y0014300D01*
X0131800Y0011800D01*
X0135600Y0011391D02*
X0138000Y0011391D01*
X0138000Y0009793D02*
X0135600Y0009793D01*
X0135414Y0008194D02*
X0138186Y0008194D01*
X0139230Y0006596D02*
X0134370Y0006596D01*
X0129230Y0006596D02*
X0124370Y0006596D01*
X0125414Y0008194D02*
X0128186Y0008194D01*
X0128000Y0009793D02*
X0125600Y0009793D01*
X0125600Y0011391D02*
X0128000Y0011391D01*
X0128000Y0012990D02*
X0125600Y0012990D01*
X0125600Y0014588D02*
X0128000Y0014588D01*
X0126802Y0016187D02*
X0125090Y0016187D01*
X0125204Y0017785D02*
X0123075Y0017785D01*
X0120525Y0017785D02*
X0116426Y0017785D01*
X0118025Y0016187D02*
X0118510Y0016187D01*
X0113401Y0014588D02*
X0093417Y0014588D01*
X0093242Y0014166D02*
X0093950Y0015875D01*
X0093950Y0017725D01*
X0093242Y0019434D01*
X0091934Y0020742D01*
X0090225Y0021450D01*
X0088375Y0021450D01*
X0086666Y0020742D01*
X0085358Y0019434D01*
X0084650Y0017725D01*
X0084650Y0015875D01*
X0085358Y0014166D01*
X0086666Y0012858D01*
X0088375Y0012150D01*
X0090225Y0012150D01*
X0091934Y0012858D01*
X0093242Y0014166D01*
X0092066Y0012990D02*
X0099550Y0012990D01*
X0100060Y0013500D02*
X0097600Y0011040D01*
X0097600Y0009300D01*
X0101800Y0009300D01*
X0101800Y0009300D01*
X0101800Y0013500D01*
X0103540Y0013500D01*
X0106000Y0011040D01*
X0106000Y0009300D01*
X0101800Y0009300D01*
X0101800Y0009300D01*
X0101800Y0009300D01*
X0101800Y0013500D01*
X0100060Y0013500D01*
X0101800Y0012990D02*
X0101800Y0012990D01*
X0101800Y0011391D02*
X0101800Y0011391D01*
X0101800Y0009793D02*
X0101800Y0009793D01*
X0101800Y0009300D02*
X0097600Y0009300D01*
X0097600Y0007560D01*
X0100060Y0005100D01*
X0101800Y0005100D01*
X0103540Y0005100D01*
X0106000Y0007560D01*
X0106000Y0009300D01*
X0101800Y0009300D01*
X0101800Y0005100D01*
X0101800Y0009300D01*
X0101800Y0009300D01*
X0101800Y0008194D02*
X0101800Y0008194D01*
X0101800Y0006596D02*
X0101800Y0006596D01*
X0105035Y0006596D02*
X0109130Y0006596D01*
X0110226Y0005500D02*
X0108000Y0007726D01*
X0108000Y0010874D01*
X0110226Y0013100D01*
X0113374Y0013100D01*
X0115600Y0010874D01*
X0115600Y0007726D01*
X0113374Y0005500D01*
X0110226Y0005500D01*
X0108000Y0008194D02*
X0106000Y0008194D01*
X0106000Y0009793D02*
X0108000Y0009793D01*
X0108517Y0011391D02*
X0105649Y0011391D01*
X0104050Y0012990D02*
X0110116Y0012990D01*
X0113484Y0012990D02*
X0114999Y0012990D01*
X0115083Y0011391D02*
X0116598Y0011391D01*
X0115600Y0009793D02*
X0118000Y0009793D01*
X0119300Y0011800D02*
X0111800Y0019300D01*
X0101800Y0019300D01*
X0094300Y0026800D01*
X0094300Y0051800D01*
X0092100Y0048157D02*
X0059433Y0048157D01*
X0056962Y0040784D02*
X0055235Y0041500D01*
X0053365Y0041500D01*
X0051638Y0040784D01*
X0050316Y0039462D01*
X0049600Y0037735D01*
X0049600Y0035865D01*
X0050316Y0034138D01*
X0051638Y0032816D01*
X0053365Y0032100D01*
X0055235Y0032100D01*
X0056962Y0032816D01*
X0058284Y0034138D01*
X0059000Y0035865D01*
X0059000Y0037735D01*
X0058284Y0039462D01*
X0056962Y0040784D01*
X0057583Y0040164D02*
X0064790Y0040164D01*
X0065226Y0040600D02*
X0063000Y0038374D01*
X0063000Y0035226D01*
X0065226Y0033000D01*
X0068374Y0033000D01*
X0070600Y0035226D01*
X0070600Y0038374D01*
X0068374Y0040600D01*
X0065226Y0040600D01*
X0063192Y0038566D02*
X0058656Y0038566D01*
X0059000Y0036967D02*
X0063000Y0036967D01*
X0063000Y0035369D02*
X0058794Y0035369D01*
X0057917Y0033770D02*
X0064456Y0033770D01*
X0065470Y0031450D02*
X0064650Y0030630D01*
X0064650Y0022970D01*
X0065470Y0022150D01*
X0073130Y0022150D01*
X0073950Y0022970D01*
X0073950Y0030630D01*
X0073130Y0031450D01*
X0065470Y0031450D01*
X0064650Y0030573D02*
X0057239Y0030573D01*
X0058838Y0028975D02*
X0064650Y0028975D01*
X0064650Y0027376D02*
X0059400Y0027376D01*
X0059400Y0025778D02*
X0064650Y0025778D01*
X0064650Y0024179D02*
X0059392Y0024179D01*
X0057793Y0022581D02*
X0065039Y0022581D01*
X0066465Y0020982D02*
X0056830Y0020982D01*
X0058429Y0019384D02*
X0064949Y0019384D01*
X0064981Y0019447D02*
X0064620Y0018739D01*
X0064374Y0017983D01*
X0064250Y0017197D01*
X0064250Y0016800D01*
X0069300Y0016800D01*
X0069300Y0016800D01*
X0069300Y0021850D01*
X0069697Y0021850D01*
X0070483Y0021726D01*
X0071239Y0021480D01*
X0071947Y0021119D01*
X0072590Y0020652D01*
X0073152Y0020090D01*
X0073619Y0019447D01*
X0073980Y0018739D01*
X0074226Y0017983D01*
X0074350Y0017197D01*
X0074350Y0016800D01*
X0069300Y0016800D01*
X0069300Y0016800D01*
X0069300Y0016800D01*
X0069300Y0021850D01*
X0068903Y0021850D01*
X0068117Y0021726D01*
X0067361Y0021480D01*
X0066653Y0021119D01*
X0066010Y0020652D01*
X0065448Y0020090D01*
X0064981Y0019447D01*
X0064343Y0017785D02*
X0059400Y0017785D01*
X0059400Y0016187D02*
X0064284Y0016187D01*
X0064250Y0016403D02*
X0064374Y0015617D01*
X0064620Y0014861D01*
X0064981Y0014153D01*
X0065448Y0013510D01*
X0066010Y0012948D01*
X0066653Y0012481D01*
X0067361Y0012120D01*
X0068117Y0011874D01*
X0068903Y0011750D01*
X0069300Y0011750D01*
X0069697Y0011750D01*
X0070483Y0011874D01*
X0071239Y0012120D01*
X0071947Y0012481D01*
X0072590Y0012948D01*
X0073152Y0013510D01*
X0073619Y0014153D01*
X0073980Y0014861D01*
X0074226Y0015617D01*
X0074350Y0016403D01*
X0074350Y0016800D01*
X0069300Y0016800D01*
X0069300Y0011750D01*
X0069300Y0016800D01*
X0069300Y0016800D01*
X0064250Y0016800D01*
X0064250Y0016403D01*
X0064759Y0014588D02*
X0059400Y0014588D01*
X0058202Y0012990D02*
X0065969Y0012990D01*
X0069300Y0012990D02*
X0069300Y0012990D01*
X0072631Y0012990D02*
X0086534Y0012990D01*
X0085183Y0014588D02*
X0073841Y0014588D01*
X0074316Y0016187D02*
X0084650Y0016187D01*
X0084675Y0017785D02*
X0074257Y0017785D01*
X0073651Y0019384D02*
X0085337Y0019384D01*
X0087246Y0020982D02*
X0072135Y0020982D01*
X0073561Y0022581D02*
X0084531Y0022581D01*
X0084610Y0022445D02*
X0084945Y0022110D01*
X0085355Y0021873D01*
X0085813Y0021750D01*
X0089300Y0021750D01*
X0089300Y0026800D01*
X0089300Y0026800D01*
X0089300Y0026800D01*
X0084250Y0026800D01*
X0084250Y0030287D01*
X0084373Y0030745D01*
X0084610Y0031155D01*
X0084945Y0031490D01*
X0085355Y0031727D01*
X0085813Y0031850D01*
X0089300Y0031850D01*
X0089300Y0026800D01*
X0084250Y0026800D01*
X0084250Y0023313D01*
X0084373Y0022855D01*
X0084610Y0022445D01*
X0084250Y0024179D02*
X0073950Y0024179D01*
X0073950Y0025778D02*
X0084250Y0025778D01*
X0084250Y0027376D02*
X0073950Y0027376D01*
X0073950Y0028975D02*
X0084250Y0028975D01*
X0084327Y0030573D02*
X0073950Y0030573D01*
X0069144Y0033770D02*
X0084456Y0033770D01*
X0085226Y0033000D02*
X0083000Y0035226D01*
X0083000Y0038374D01*
X0085226Y0040600D01*
X0088374Y0040600D01*
X0090600Y0038374D01*
X0090600Y0035226D01*
X0088374Y0033000D01*
X0085226Y0033000D01*
X0083000Y0035369D02*
X0070600Y0035369D01*
X0070600Y0036967D02*
X0083000Y0036967D01*
X0083192Y0038566D02*
X0070408Y0038566D01*
X0068810Y0040164D02*
X0084790Y0040164D01*
X0088810Y0040164D02*
X0092100Y0040164D01*
X0092100Y0038566D02*
X0090408Y0038566D01*
X0090600Y0036967D02*
X0092100Y0036967D01*
X0092100Y0035369D02*
X0090600Y0035369D01*
X0089144Y0033770D02*
X0092100Y0033770D01*
X0092100Y0032172D02*
X0055408Y0032172D01*
X0053192Y0032172D02*
X0047206Y0032172D01*
X0048805Y0030573D02*
X0051361Y0030573D01*
X0050683Y0033770D02*
X0018403Y0033770D01*
X0018190Y0033478D02*
X0018662Y0034127D01*
X0019026Y0034842D01*
X0019274Y0035606D01*
X0019400Y0036399D01*
X0019400Y0036500D01*
X0014600Y0036500D01*
X0014600Y0037100D01*
X0019400Y0037100D01*
X0019400Y0037201D01*
X0019274Y0037994D01*
X0019026Y0038758D01*
X0018662Y0039473D01*
X0018190Y0040122D01*
X0017622Y0040690D01*
X0016973Y0041162D01*
X0016258Y0041526D01*
X0015494Y0041774D01*
X0014701Y0041900D01*
X0014600Y0041900D01*
X0014600Y0037100D01*
X0014000Y0037100D01*
X0014000Y0041900D01*
X0013899Y0041900D01*
X0013106Y0041774D01*
X0012342Y0041526D01*
X0011627Y0041162D01*
X0010978Y0040690D01*
X0010410Y0040122D01*
X0009938Y0039473D01*
X0009574Y0038758D01*
X0009326Y0037994D01*
X0009200Y0037201D01*
X0009200Y0037100D01*
X0014000Y0037100D01*
X0014000Y0036500D01*
X0014600Y0036500D01*
X0014600Y0031700D01*
X0014701Y0031700D01*
X0015494Y0031826D01*
X0016258Y0032074D01*
X0016973Y0032438D01*
X0017622Y0032910D01*
X0018190Y0033478D01*
X0016450Y0032172D02*
X0021394Y0032172D01*
X0019795Y0030573D02*
X0017239Y0030573D01*
X0014600Y0032172D02*
X0014000Y0032172D01*
X0014000Y0031700D02*
X0014000Y0036500D01*
X0009200Y0036500D01*
X0009200Y0036399D01*
X0009326Y0035606D01*
X0009574Y0034842D01*
X0009938Y0034127D01*
X0010410Y0033478D01*
X0010978Y0032910D01*
X0011627Y0032438D01*
X0012342Y0032074D01*
X0013106Y0031826D01*
X0013899Y0031700D01*
X0014000Y0031700D01*
X0012150Y0032172D02*
X0003650Y0032172D01*
X0003650Y0030573D02*
X0011361Y0030573D01*
X0009762Y0028975D02*
X0003650Y0028975D01*
X0003650Y0027376D02*
X0009200Y0027376D01*
X0009200Y0025778D02*
X0003650Y0025778D01*
X0003650Y0024179D02*
X0009208Y0024179D01*
X0010807Y0022581D02*
X0003650Y0022581D01*
X0003650Y0020982D02*
X0011770Y0020982D01*
X0010171Y0019384D02*
X0003650Y0019384D01*
X0003650Y0017785D02*
X0009200Y0017785D01*
X0009200Y0016187D02*
X0003650Y0016187D01*
X0003650Y0014588D02*
X0009200Y0014588D01*
X0010398Y0012990D02*
X0003650Y0012990D01*
X0003650Y0011391D02*
X0011996Y0011391D01*
X0010170Y0009793D02*
X0003650Y0009793D01*
X0003650Y0008194D02*
X0009391Y0008194D01*
X0009523Y0004997D02*
X0003650Y0004997D01*
X0003650Y0006596D02*
X0014000Y0006596D01*
X0014600Y0006596D02*
X0049600Y0006596D01*
X0049600Y0005865D02*
X0050316Y0004138D01*
X0050803Y0003650D01*
X0018315Y0003650D01*
X0018662Y0004127D01*
X0019026Y0004842D01*
X0019274Y0005606D01*
X0019400Y0006399D01*
X0019400Y0006500D01*
X0014600Y0006500D01*
X0014600Y0007100D01*
X0019400Y0007100D01*
X0019400Y0007201D01*
X0019274Y0007994D01*
X0019026Y0008758D01*
X0018662Y0009473D01*
X0018190Y0010122D01*
X0017622Y0010690D01*
X0016973Y0011162D01*
X0016576Y0011364D01*
X0019400Y0014188D01*
X0019400Y0014422D01*
X0022022Y0011800D01*
X0024100Y0011800D01*
X0024100Y0017100D01*
X0024500Y0017100D01*
X0024500Y0011800D01*
X0026578Y0011800D01*
X0028800Y0014022D01*
X0028800Y0014022D01*
X0032022Y0010800D01*
X0034100Y0010800D01*
X0034100Y0016100D01*
X0034500Y0016100D01*
X0034500Y0010800D01*
X0036578Y0010800D01*
X0039800Y0014022D01*
X0042022Y0011800D01*
X0044100Y0011800D01*
X0044100Y0017100D01*
X0044500Y0017100D01*
X0044500Y0011800D01*
X0046578Y0011800D01*
X0049200Y0014422D01*
X0049200Y0014188D01*
X0052188Y0011200D01*
X0052641Y0011200D01*
X0051638Y0010784D01*
X0050316Y0009462D01*
X0049600Y0007735D01*
X0049600Y0005865D01*
X0049960Y0004997D02*
X0019077Y0004997D01*
X0019209Y0008194D02*
X0049790Y0008194D01*
X0050646Y0009793D02*
X0018430Y0009793D01*
X0016604Y0011391D02*
X0031431Y0011391D01*
X0029832Y0012990D02*
X0027768Y0012990D01*
X0024500Y0012990D02*
X0024100Y0012990D01*
X0020832Y0012990D02*
X0018202Y0012990D01*
X0024100Y0014588D02*
X0024500Y0014588D01*
X0024500Y0016187D02*
X0024100Y0016187D01*
X0024100Y0017500D02*
X0024100Y0021800D01*
X0024100Y0027100D01*
X0024500Y0027100D01*
X0024500Y0017500D01*
X0024100Y0017500D01*
X0024100Y0017785D02*
X0024500Y0017785D01*
X0024500Y0019384D02*
X0024100Y0019384D01*
X0024100Y0020982D02*
X0024500Y0020982D01*
X0024500Y0022581D02*
X0024100Y0022581D01*
X0024100Y0024179D02*
X0024500Y0024179D01*
X0024500Y0025778D02*
X0024100Y0025778D01*
X0024100Y0028975D02*
X0024500Y0028975D01*
X0024500Y0030573D02*
X0024100Y0030573D01*
X0024100Y0032172D02*
X0024500Y0032172D01*
X0027206Y0032172D02*
X0041394Y0032172D01*
X0039795Y0030573D02*
X0037805Y0030573D01*
X0034500Y0030573D02*
X0034100Y0030573D01*
X0034100Y0028975D02*
X0034500Y0028975D01*
X0034500Y0027376D02*
X0034100Y0027376D01*
X0034100Y0026100D02*
X0034500Y0026100D01*
X0034500Y0016500D01*
X0034100Y0016500D01*
X0034100Y0021800D01*
X0034100Y0026100D01*
X0034100Y0025778D02*
X0034500Y0025778D01*
X0034500Y0024179D02*
X0034100Y0024179D01*
X0034100Y0022581D02*
X0034500Y0022581D01*
X0034500Y0020982D02*
X0034100Y0020982D01*
X0034100Y0019384D02*
X0034500Y0019384D01*
X0034500Y0017785D02*
X0034100Y0017785D01*
X0034100Y0014588D02*
X0034500Y0014588D01*
X0034500Y0012990D02*
X0034100Y0012990D01*
X0034100Y0011391D02*
X0034500Y0011391D01*
X0037169Y0011391D02*
X0051996Y0011391D01*
X0050398Y0012990D02*
X0047768Y0012990D01*
X0044500Y0012990D02*
X0044100Y0012990D01*
X0040832Y0012990D02*
X0038768Y0012990D01*
X0039800Y0014022D02*
X0039800Y0014022D01*
X0044100Y0014588D02*
X0044500Y0014588D01*
X0044500Y0016187D02*
X0044100Y0016187D01*
X0044100Y0017500D02*
X0044100Y0022800D01*
X0044100Y0027100D01*
X0044500Y0027100D01*
X0044500Y0017500D01*
X0044100Y0017500D01*
X0044100Y0017785D02*
X0044500Y0017785D01*
X0044500Y0019384D02*
X0044100Y0019384D01*
X0044100Y0020982D02*
X0044500Y0020982D01*
X0044500Y0022581D02*
X0044100Y0022581D01*
X0044100Y0024179D02*
X0044500Y0024179D01*
X0044500Y0025778D02*
X0044100Y0025778D01*
X0044100Y0028975D02*
X0044500Y0028975D01*
X0044500Y0030573D02*
X0044100Y0030573D01*
X0044100Y0032172D02*
X0044500Y0032172D01*
X0049806Y0035369D02*
X0019197Y0035369D01*
X0014600Y0035369D02*
X0014000Y0035369D01*
X0014000Y0036967D02*
X0003650Y0036967D01*
X0003650Y0035369D02*
X0009403Y0035369D01*
X0010197Y0033770D02*
X0003650Y0033770D01*
X0003650Y0038566D02*
X0009511Y0038566D01*
X0010452Y0040164D02*
X0003650Y0040164D01*
X0003650Y0041763D02*
X0013070Y0041763D01*
X0014000Y0041763D02*
X0014600Y0041763D01*
X0015530Y0041763D02*
X0092100Y0041763D01*
X0092100Y0043361D02*
X0003650Y0043361D01*
X0003650Y0044960D02*
X0092100Y0044960D01*
X0092100Y0046558D02*
X0003650Y0046558D01*
X0003650Y0048157D02*
X0038852Y0048157D01*
X0035931Y0052952D02*
X0031918Y0052952D01*
X0032683Y0054551D02*
X0035931Y0054551D01*
X0036177Y0056149D02*
X0033024Y0056149D01*
X0033041Y0057748D02*
X0036839Y0057748D01*
X0038149Y0059346D02*
X0032718Y0059346D01*
X0031994Y0060945D02*
X0040664Y0060945D01*
X0044326Y0065740D02*
X0059457Y0065740D01*
X0060359Y0064839D02*
X0063044Y0063727D01*
X0065950Y0063727D01*
X0068635Y0064839D01*
X0070690Y0066894D01*
X0071802Y0069579D01*
X0071802Y0084296D01*
X0070690Y0086982D01*
X0068635Y0089037D01*
X0065950Y0090149D01*
X0063044Y0090149D01*
X0060359Y0089037D01*
X0058304Y0086982D01*
X0057191Y0084296D01*
X0057191Y0069579D01*
X0058304Y0066894D01*
X0060359Y0064839D01*
X0062041Y0064142D02*
X0029135Y0064142D01*
X0024142Y0064142D02*
X0024142Y0064142D01*
X0022544Y0062543D02*
X0022543Y0062543D01*
X0025029Y0076930D02*
X0017967Y0076930D01*
X0019726Y0078529D02*
X0024902Y0078529D01*
X0024902Y0080127D02*
X0020722Y0080127D01*
X0021384Y0081726D02*
X0025044Y0081726D01*
X0025472Y0083324D02*
X0021409Y0083324D01*
X0021409Y0084923D02*
X0025920Y0084923D01*
X0026843Y0086521D02*
X0021409Y0086521D01*
X0021409Y0088120D02*
X0027766Y0088120D01*
X0029356Y0089718D02*
X0021409Y0089718D01*
X0021409Y0091317D02*
X0031317Y0091317D01*
X0034481Y0092915D02*
X0021409Y0092915D01*
X0021409Y0094514D02*
X0102100Y0094514D01*
X0102100Y0092915D02*
X0044119Y0092915D01*
X0047283Y0091317D02*
X0102100Y0091317D01*
X0101607Y0089718D02*
X0066990Y0089718D01*
X0069552Y0088120D02*
X0100008Y0088120D01*
X0098410Y0086521D02*
X0070881Y0086521D01*
X0071543Y0084923D02*
X0079549Y0084923D01*
X0080226Y0085600D02*
X0078000Y0083374D01*
X0078000Y0080226D01*
X0080226Y0078000D01*
X0083374Y0078000D01*
X0085600Y0080226D01*
X0085600Y0083374D01*
X0083374Y0085600D01*
X0080226Y0085600D01*
X0078000Y0083324D02*
X0071802Y0083324D01*
X0071802Y0081726D02*
X0078000Y0081726D01*
X0078099Y0080127D02*
X0071802Y0080127D01*
X0071802Y0078529D02*
X0079697Y0078529D01*
X0083903Y0078529D02*
X0092197Y0078529D01*
X0090599Y0080127D02*
X0085501Y0080127D01*
X0085600Y0081726D02*
X0090500Y0081726D01*
X0090500Y0083324D02*
X0085600Y0083324D01*
X0084051Y0084923D02*
X0092049Y0084923D01*
X0096551Y0084923D02*
X0097100Y0084923D01*
X0099300Y0084300D02*
X0099300Y0079300D01*
X0101800Y0076800D01*
X0109300Y0076800D01*
X0116800Y0069300D01*
X0116800Y0064300D01*
X0121800Y0059300D01*
X0121800Y0041800D01*
X0121800Y0029300D01*
X0131800Y0019300D01*
X0136800Y0019300D01*
X0141800Y0011800D01*
X0145600Y0011391D02*
X0148000Y0011391D01*
X0148000Y0009793D02*
X0145600Y0009793D01*
X0148000Y0008644D02*
X0148579Y0007247D01*
X0149647Y0006179D01*
X0151044Y0005600D01*
X0152556Y0005600D01*
X0153953Y0006179D01*
X0155021Y0007247D01*
X0155600Y0008644D01*
X0155600Y0014956D01*
X0155021Y0016353D01*
X0153953Y0017421D01*
X0152556Y0018000D01*
X0151044Y0018000D01*
X0149647Y0017421D01*
X0148579Y0016353D01*
X0148000Y0014956D01*
X0148000Y0008644D01*
X0148186Y0008194D02*
X0145414Y0008194D01*
X0144370Y0006596D02*
X0149230Y0006596D01*
X0154370Y0006596D02*
X0158665Y0006596D01*
X0158596Y0006664D02*
X0159064Y0006196D01*
X0159599Y0005808D01*
X0160188Y0005508D01*
X0160816Y0005303D01*
X0161469Y0005200D01*
X0161800Y0005200D01*
X0162131Y0005200D01*
X0162784Y0005303D01*
X0163412Y0005508D01*
X0164001Y0005808D01*
X0164536Y0006196D01*
X0165004Y0006664D01*
X0165392Y0007199D01*
X0165692Y0007788D01*
X0165897Y0008416D01*
X0166000Y0009069D01*
X0166000Y0011800D01*
X0166000Y0014531D01*
X0165897Y0015184D01*
X0165692Y0015812D01*
X0165392Y0016401D01*
X0165004Y0016936D01*
X0164536Y0017404D01*
X0164001Y0017792D01*
X0163412Y0018092D01*
X0162784Y0018297D01*
X0162131Y0018400D01*
X0161800Y0018400D01*
X0161800Y0011800D01*
X0161800Y0011800D01*
X0166000Y0011800D01*
X0161800Y0011800D01*
X0161800Y0011800D01*
X0161800Y0011800D01*
X0157600Y0011800D01*
X0157600Y0014531D01*
X0157703Y0015184D01*
X0157908Y0015812D01*
X0158208Y0016401D01*
X0158596Y0016936D01*
X0159064Y0017404D01*
X0159599Y0017792D01*
X0160188Y0018092D01*
X0160816Y0018297D01*
X0161469Y0018400D01*
X0161800Y0018400D01*
X0161800Y0011800D01*
X0161800Y0005200D01*
X0161800Y0011800D01*
X0161800Y0011800D01*
X0157600Y0011800D01*
X0157600Y0009069D01*
X0157703Y0008416D01*
X0157908Y0007788D01*
X0158208Y0007199D01*
X0158596Y0006664D01*
X0157776Y0008194D02*
X0155414Y0008194D01*
X0155600Y0009793D02*
X0157600Y0009793D01*
X0157600Y0011391D02*
X0155600Y0011391D01*
X0155600Y0012990D02*
X0157600Y0012990D01*
X0157609Y0014588D02*
X0155600Y0014588D01*
X0155090Y0016187D02*
X0158098Y0016187D01*
X0159589Y0017785D02*
X0153075Y0017785D01*
X0150525Y0017785D02*
X0143075Y0017785D01*
X0140525Y0017785D02*
X0140454Y0017785D01*
X0139388Y0019384D02*
X0196210Y0019384D01*
X0196210Y0020982D02*
X0138323Y0020982D01*
X0131631Y0022581D02*
X0196210Y0022581D01*
X0196210Y0024179D02*
X0130032Y0024179D01*
X0128434Y0025778D02*
X0196210Y0025778D01*
X0196210Y0027376D02*
X0126835Y0027376D01*
X0125237Y0028975D02*
X0196210Y0028975D01*
X0196210Y0030573D02*
X0124000Y0030573D01*
X0124000Y0032172D02*
X0196210Y0032172D01*
X0196210Y0033770D02*
X0124000Y0033770D01*
X0124000Y0035369D02*
X0160615Y0035369D01*
X0160816Y0035303D02*
X0161469Y0035200D01*
X0161800Y0035200D01*
X0162131Y0035200D01*
X0162784Y0035303D01*
X0163412Y0035508D01*
X0164001Y0035808D01*
X0164536Y0036196D01*
X0165004Y0036664D01*
X0165392Y0037199D01*
X0165692Y0037788D01*
X0165897Y0038416D01*
X0166000Y0039069D01*
X0166000Y0041800D01*
X0166000Y0044531D01*
X0165897Y0045184D01*
X0165692Y0045812D01*
X0165392Y0046401D01*
X0165004Y0046936D01*
X0164536Y0047404D01*
X0164001Y0047792D01*
X0163412Y0048092D01*
X0162784Y0048297D01*
X0162131Y0048400D01*
X0161800Y0048400D01*
X0161800Y0041800D01*
X0161800Y0041800D01*
X0166000Y0041800D01*
X0161800Y0041800D01*
X0161800Y0041800D01*
X0161800Y0041800D01*
X0157600Y0041800D01*
X0157600Y0044531D01*
X0157703Y0045184D01*
X0157908Y0045812D01*
X0158208Y0046401D01*
X0158596Y0046936D01*
X0159064Y0047404D01*
X0159599Y0047792D01*
X0160188Y0048092D01*
X0160816Y0048297D01*
X0161469Y0048400D01*
X0161800Y0048400D01*
X0161800Y0041800D01*
X0161800Y0035200D01*
X0161800Y0041800D01*
X0161800Y0041800D01*
X0157600Y0041800D01*
X0157600Y0039069D01*
X0157703Y0038416D01*
X0157908Y0037788D01*
X0158208Y0037199D01*
X0158596Y0036664D01*
X0159064Y0036196D01*
X0159599Y0035808D01*
X0160188Y0035508D01*
X0160816Y0035303D01*
X0161800Y0035369D02*
X0161800Y0035369D01*
X0162985Y0035369D02*
X0196210Y0035369D01*
X0196210Y0036967D02*
X0184741Y0036967D01*
X0185021Y0037247D02*
X0183953Y0036179D01*
X0182556Y0035600D01*
X0181044Y0035600D01*
X0179647Y0036179D01*
X0178579Y0037247D01*
X0178000Y0038644D01*
X0178000Y0044956D01*
X0178579Y0046353D01*
X0179647Y0047421D01*
X0181044Y0048000D01*
X0182556Y0048000D01*
X0183953Y0047421D01*
X0185021Y0046353D01*
X0185600Y0044956D01*
X0185600Y0038644D01*
X0185021Y0037247D01*
X0185568Y0038566D02*
X0189660Y0038566D01*
X0190226Y0038000D02*
X0188000Y0040226D01*
X0188000Y0043374D01*
X0190226Y0045600D01*
X0193374Y0045600D01*
X0195600Y0043374D01*
X0195600Y0040226D01*
X0193374Y0038000D01*
X0190226Y0038000D01*
X0188062Y0040164D02*
X0185600Y0040164D01*
X0185600Y0041763D02*
X0188000Y0041763D01*
X0188000Y0043361D02*
X0185600Y0043361D01*
X0185598Y0044960D02*
X0189586Y0044960D01*
X0184816Y0046558D02*
X0196210Y0046558D01*
X0196210Y0044960D02*
X0194014Y0044960D01*
X0195600Y0043361D02*
X0196210Y0043361D01*
X0196210Y0041763D02*
X0195600Y0041763D01*
X0195538Y0040164D02*
X0196210Y0040164D01*
X0196210Y0038566D02*
X0193940Y0038566D01*
X0196210Y0048157D02*
X0163214Y0048157D01*
X0161800Y0048157D02*
X0161800Y0048157D01*
X0160386Y0048157D02*
X0134000Y0048157D01*
X0134000Y0047374D02*
X0134000Y0061726D01*
X0135226Y0060500D01*
X0138374Y0060500D01*
X0140600Y0062726D01*
X0140600Y0065874D01*
X0138374Y0068100D01*
X0135226Y0068100D01*
X0133169Y0066043D01*
X0132711Y0066500D01*
X0123711Y0075500D01*
X0125874Y0075500D01*
X0128100Y0077726D01*
X0128100Y0080874D01*
X0125874Y0083100D01*
X0122726Y0083100D01*
X0120500Y0080874D01*
X0120500Y0078711D01*
X0118100Y0081111D01*
X0118100Y0083374D01*
X0115874Y0085600D01*
X0112726Y0085600D01*
X0110500Y0083374D01*
X0110500Y0080226D01*
X0112726Y0078000D01*
X0114989Y0078000D01*
X0129600Y0063389D01*
X0129600Y0047374D01*
X0128579Y0046353D01*
X0128000Y0044956D01*
X0128000Y0038644D01*
X0128579Y0037247D01*
X0129647Y0036179D01*
X0131044Y0035600D01*
X0132556Y0035600D01*
X0133953Y0036179D01*
X0135021Y0037247D01*
X0135600Y0038644D01*
X0135600Y0044956D01*
X0135021Y0046353D01*
X0134000Y0047374D01*
X0134816Y0046558D02*
X0138784Y0046558D01*
X0138579Y0046353D02*
X0138000Y0044956D01*
X0138000Y0038644D01*
X0138579Y0037247D01*
X0139647Y0036179D01*
X0141044Y0035600D01*
X0142556Y0035600D01*
X0143953Y0036179D01*
X0145021Y0037247D01*
X0145600Y0038644D01*
X0145600Y0044956D01*
X0145021Y0046353D01*
X0143953Y0047421D01*
X0142556Y0048000D01*
X0141044Y0048000D01*
X0139647Y0047421D01*
X0138579Y0046353D01*
X0138002Y0044960D02*
X0135598Y0044960D01*
X0135600Y0043361D02*
X0138000Y0043361D01*
X0138000Y0041763D02*
X0135600Y0041763D01*
X0135600Y0040164D02*
X0138000Y0040164D01*
X0138032Y0038566D02*
X0135568Y0038566D01*
X0134741Y0036967D02*
X0138859Y0036967D01*
X0144741Y0036967D02*
X0148859Y0036967D01*
X0148579Y0037247D02*
X0149647Y0036179D01*
X0151044Y0035600D01*
X0152556Y0035600D01*
X0153953Y0036179D01*
X0155021Y0037247D01*
X0155600Y0038644D01*
X0155600Y0044956D01*
X0155021Y0046353D01*
X0153953Y0047421D01*
X0152556Y0048000D01*
X0151044Y0048000D01*
X0149647Y0047421D01*
X0148579Y0046353D01*
X0148000Y0044956D01*
X0148000Y0038644D01*
X0148579Y0037247D01*
X0148032Y0038566D02*
X0145568Y0038566D01*
X0145600Y0040164D02*
X0148000Y0040164D01*
X0148000Y0041763D02*
X0145600Y0041763D01*
X0145600Y0043361D02*
X0148000Y0043361D01*
X0148002Y0044960D02*
X0145598Y0044960D01*
X0144816Y0046558D02*
X0148784Y0046558D01*
X0154816Y0046558D02*
X0158322Y0046558D01*
X0157668Y0044960D02*
X0155598Y0044960D01*
X0155600Y0043361D02*
X0157600Y0043361D01*
X0157600Y0041763D02*
X0155600Y0041763D01*
X0155600Y0040164D02*
X0157600Y0040164D01*
X0157680Y0038566D02*
X0155568Y0038566D01*
X0154741Y0036967D02*
X0158376Y0036967D01*
X0161800Y0036967D02*
X0161800Y0036967D01*
X0165224Y0036967D02*
X0168859Y0036967D01*
X0168579Y0037247D02*
X0169647Y0036179D01*
X0171044Y0035600D01*
X0172556Y0035600D01*
X0173953Y0036179D01*
X0175021Y0037247D01*
X0175600Y0038644D01*
X0175600Y0044956D01*
X0175021Y0046353D01*
X0173953Y0047421D01*
X0172556Y0048000D01*
X0171044Y0048000D01*
X0169647Y0047421D01*
X0168579Y0046353D01*
X0168000Y0044956D01*
X0168000Y0038644D01*
X0168579Y0037247D01*
X0168032Y0038566D02*
X0165920Y0038566D01*
X0166000Y0040164D02*
X0168000Y0040164D01*
X0168000Y0041763D02*
X0166000Y0041763D01*
X0166000Y0043361D02*
X0168000Y0043361D01*
X0168002Y0044960D02*
X0165932Y0044960D01*
X0165278Y0046558D02*
X0168784Y0046558D01*
X0174816Y0046558D02*
X0178784Y0046558D01*
X0178002Y0044960D02*
X0175598Y0044960D01*
X0175600Y0043361D02*
X0178000Y0043361D01*
X0178000Y0041763D02*
X0175600Y0041763D01*
X0175600Y0040164D02*
X0178000Y0040164D01*
X0178032Y0038566D02*
X0175568Y0038566D01*
X0174741Y0036967D02*
X0178859Y0036967D01*
X0161800Y0038566D02*
X0161800Y0038566D01*
X0161800Y0040164D02*
X0161800Y0040164D01*
X0161800Y0041763D02*
X0161800Y0041763D01*
X0161800Y0043361D02*
X0161800Y0043361D01*
X0161800Y0044960D02*
X0161800Y0044960D01*
X0161800Y0046558D02*
X0161800Y0046558D01*
X0155874Y0055500D02*
X0152726Y0055500D01*
X0150500Y0057726D01*
X0150500Y0060874D01*
X0152726Y0063100D01*
X0155874Y0063100D01*
X0158100Y0060874D01*
X0158100Y0057726D01*
X0155874Y0055500D01*
X0156523Y0056149D02*
X0170671Y0056149D01*
X0170500Y0056320D02*
X0171320Y0055500D01*
X0177280Y0055500D01*
X0178100Y0056320D01*
X0178100Y0062280D01*
X0177280Y0063100D01*
X0171320Y0063100D01*
X0170500Y0062280D01*
X0170500Y0056320D01*
X0170500Y0057748D02*
X0158100Y0057748D01*
X0158100Y0059346D02*
X0170500Y0059346D01*
X0170500Y0060945D02*
X0158029Y0060945D01*
X0156431Y0062543D02*
X0170764Y0062543D01*
X0166114Y0065740D02*
X0196210Y0065740D01*
X0196210Y0064142D02*
X0140600Y0064142D01*
X0140600Y0065740D02*
X0162486Y0065740D01*
X0162726Y0065500D02*
X0165874Y0065500D01*
X0168100Y0067726D01*
X0168100Y0070874D01*
X0165874Y0073100D01*
X0162726Y0073100D01*
X0160500Y0070874D01*
X0160500Y0067726D01*
X0162726Y0065500D01*
X0160887Y0067339D02*
X0139135Y0067339D01*
X0134465Y0067339D02*
X0131872Y0067339D01*
X0130274Y0068937D02*
X0160500Y0068937D01*
X0160500Y0070536D02*
X0128675Y0070536D01*
X0127077Y0072134D02*
X0161760Y0072134D01*
X0166839Y0072134D02*
X0196210Y0072134D01*
X0196210Y0073733D02*
X0125478Y0073733D01*
X0123880Y0075332D02*
X0196210Y0075332D01*
X0196210Y0076930D02*
X0137304Y0076930D01*
X0138100Y0077726D02*
X0135874Y0075500D01*
X0132726Y0075500D01*
X0130500Y0077726D01*
X0130500Y0080874D01*
X0132726Y0083100D01*
X0135874Y0083100D01*
X0138100Y0080874D01*
X0138100Y0077726D01*
X0138100Y0078529D02*
X0196210Y0078529D01*
X0196210Y0080127D02*
X0138100Y0080127D01*
X0137248Y0081726D02*
X0196210Y0081726D01*
X0196210Y0083324D02*
X0118100Y0083324D01*
X0118100Y0081726D02*
X0121352Y0081726D01*
X0120500Y0080127D02*
X0119084Y0080127D01*
X0116059Y0076930D02*
X0112281Y0076930D01*
X0112197Y0078529D02*
X0110683Y0078529D01*
X0110599Y0080127D02*
X0108001Y0080127D01*
X0108100Y0081726D02*
X0110500Y0081726D01*
X0110500Y0083324D02*
X0108100Y0083324D01*
X0106551Y0084923D02*
X0112049Y0084923D01*
X0114300Y0081800D02*
X0131800Y0064300D01*
X0131800Y0041800D01*
X0128000Y0041763D02*
X0125600Y0041763D01*
X0125600Y0040164D02*
X0128000Y0040164D01*
X0128032Y0038566D02*
X0125568Y0038566D01*
X0124741Y0036967D02*
X0128859Y0036967D01*
X0118000Y0039961D02*
X0115250Y0042711D01*
X0113961Y0044000D01*
X0105211Y0044000D01*
X0104817Y0044394D01*
X0105286Y0044200D01*
X0107314Y0044200D01*
X0109189Y0044976D01*
X0110624Y0046411D01*
X0111400Y0048286D01*
X0111400Y0050314D01*
X0110624Y0052189D01*
X0109189Y0053624D01*
X0107797Y0054200D01*
X0108314Y0054200D01*
X0110189Y0054976D01*
X0111624Y0056411D01*
X0112400Y0058286D01*
X0112400Y0060314D01*
X0111624Y0062189D01*
X0110189Y0063624D01*
X0108581Y0064290D01*
X0109183Y0064596D01*
X0109883Y0065105D01*
X0110495Y0065717D01*
X0111004Y0066417D01*
X0111397Y0067189D01*
X0111665Y0068012D01*
X0111800Y0068867D01*
X0111800Y0069100D01*
X0106500Y0069100D01*
X0106500Y0069500D01*
X0111800Y0069500D01*
X0111800Y0069733D01*
X0111665Y0070588D01*
X0111397Y0071411D01*
X0111210Y0071779D01*
X0114600Y0068389D01*
X0114600Y0067474D01*
X0113000Y0065874D01*
X0113000Y0062726D01*
X0115226Y0060500D01*
X0117489Y0060500D01*
X0119600Y0058389D01*
X0119600Y0047374D01*
X0118579Y0046353D01*
X0118000Y0044956D01*
X0118000Y0039961D01*
X0118000Y0040164D02*
X0117797Y0040164D01*
X0118000Y0041763D02*
X0116198Y0041763D01*
X0114600Y0043361D02*
X0118000Y0043361D01*
X0118002Y0044960D02*
X0109149Y0044960D01*
X0110685Y0046558D02*
X0118784Y0046558D01*
X0119600Y0048157D02*
X0111347Y0048157D01*
X0111400Y0049755D02*
X0119600Y0049755D01*
X0119600Y0051354D02*
X0110969Y0051354D01*
X0109860Y0052952D02*
X0119600Y0052952D01*
X0119600Y0054551D02*
X0109162Y0054551D01*
X0111362Y0056149D02*
X0119600Y0056149D01*
X0119600Y0057748D02*
X0112177Y0057748D01*
X0112400Y0059346D02*
X0118642Y0059346D01*
X0114781Y0060945D02*
X0112139Y0060945D01*
X0111269Y0062543D02*
X0113183Y0062543D01*
X0113000Y0064142D02*
X0108937Y0064142D01*
X0110512Y0065740D02*
X0113000Y0065740D01*
X0114465Y0067339D02*
X0111446Y0067339D01*
X0111800Y0068937D02*
X0114051Y0068937D01*
X0112453Y0070536D02*
X0111673Y0070536D01*
X0115478Y0073733D02*
X0119256Y0073733D01*
X0120854Y0072134D02*
X0117077Y0072134D01*
X0118675Y0070536D02*
X0122453Y0070536D01*
X0124051Y0068937D02*
X0119000Y0068937D01*
X0119135Y0067339D02*
X0125650Y0067339D01*
X0127248Y0065740D02*
X0120600Y0065740D01*
X0120600Y0064142D02*
X0128847Y0064142D01*
X0129600Y0062543D02*
X0121668Y0062543D01*
X0123266Y0060945D02*
X0129600Y0060945D01*
X0129600Y0059346D02*
X0124000Y0059346D01*
X0124000Y0057748D02*
X0129600Y0057748D01*
X0129600Y0056149D02*
X0124000Y0056149D01*
X0124000Y0054551D02*
X0129600Y0054551D01*
X0129600Y0052952D02*
X0124000Y0052952D01*
X0124000Y0051354D02*
X0129600Y0051354D01*
X0129600Y0049755D02*
X0124000Y0049755D01*
X0124000Y0048157D02*
X0129600Y0048157D01*
X0128784Y0046558D02*
X0124816Y0046558D01*
X0125598Y0044960D02*
X0128002Y0044960D01*
X0128000Y0043361D02*
X0125600Y0043361D01*
X0134000Y0049755D02*
X0196210Y0049755D01*
X0196210Y0051354D02*
X0134000Y0051354D01*
X0134000Y0052952D02*
X0196210Y0052952D01*
X0196210Y0054551D02*
X0134000Y0054551D01*
X0134000Y0056149D02*
X0142077Y0056149D01*
X0142726Y0055500D02*
X0145874Y0055500D01*
X0148100Y0057726D01*
X0148100Y0060874D01*
X0145874Y0063100D01*
X0142726Y0063100D01*
X0140500Y0060874D01*
X0140500Y0057726D01*
X0142726Y0055500D01*
X0140500Y0057748D02*
X0134000Y0057748D01*
X0134000Y0059346D02*
X0140500Y0059346D01*
X0140571Y0060945D02*
X0138819Y0060945D01*
X0140417Y0062543D02*
X0142169Y0062543D01*
X0146431Y0062543D02*
X0152169Y0062543D01*
X0150571Y0060945D02*
X0148029Y0060945D01*
X0148100Y0059346D02*
X0150500Y0059346D01*
X0150500Y0057748D02*
X0148100Y0057748D01*
X0146523Y0056149D02*
X0152077Y0056149D01*
X0134781Y0060945D02*
X0134000Y0060945D01*
X0117657Y0075332D02*
X0113880Y0075332D01*
X0103044Y0073733D02*
X0071802Y0073733D01*
X0071802Y0072134D02*
X0079662Y0072134D01*
X0077623Y0070536D02*
X0071802Y0070536D01*
X0071537Y0068937D02*
X0076875Y0068937D01*
X0076700Y0067339D02*
X0070874Y0067339D01*
X0069537Y0065740D02*
X0077009Y0065740D01*
X0077946Y0064142D02*
X0066952Y0064142D01*
X0058119Y0067339D02*
X0047380Y0067339D01*
X0049300Y0068937D02*
X0057457Y0068937D01*
X0057191Y0070536D02*
X0050866Y0070536D01*
X0051789Y0072134D02*
X0057191Y0072134D01*
X0057191Y0073733D02*
X0052712Y0073733D01*
X0053143Y0075332D02*
X0057191Y0075332D01*
X0057191Y0076930D02*
X0053571Y0076930D01*
X0053698Y0078529D02*
X0057191Y0078529D01*
X0057191Y0080127D02*
X0053698Y0080127D01*
X0053556Y0081726D02*
X0057191Y0081726D01*
X0057191Y0083324D02*
X0053128Y0083324D01*
X0052680Y0084923D02*
X0057451Y0084923D01*
X0058113Y0086521D02*
X0051757Y0086521D01*
X0050834Y0088120D02*
X0059442Y0088120D01*
X0062004Y0089718D02*
X0049244Y0089718D01*
X0045550Y0097711D02*
X0102100Y0097711D01*
X0102100Y0099309D02*
X0047987Y0099309D01*
X0049264Y0100908D02*
X0102100Y0100908D01*
X0102100Y0102506D02*
X0049926Y0102506D01*
X0050149Y0104105D02*
X0102100Y0104105D01*
X0102100Y0105703D02*
X0050149Y0105703D01*
X0049589Y0107302D02*
X0102100Y0107302D01*
X0101826Y0108900D02*
X0084840Y0108900D01*
X0086000Y0110499D02*
X0100500Y0110499D01*
X0100500Y0112097D02*
X0086000Y0112097D01*
X0085844Y0113696D02*
X0100822Y0113696D01*
X0104300Y0111800D02*
X0104300Y0089300D01*
X0099300Y0084300D01*
X0104632Y0086521D02*
X0141705Y0086521D01*
X0142726Y0085500D02*
X0140500Y0087726D01*
X0140500Y0090874D01*
X0142726Y0093100D01*
X0145874Y0093100D01*
X0148100Y0090874D01*
X0148100Y0087726D01*
X0145874Y0085500D01*
X0142726Y0085500D01*
X0140500Y0088120D02*
X0106231Y0088120D01*
X0106500Y0089718D02*
X0140500Y0089718D01*
X0140943Y0091317D02*
X0106500Y0091317D01*
X0106500Y0092915D02*
X0142541Y0092915D01*
X0146059Y0092915D02*
X0152541Y0092915D01*
X0152726Y0093100D02*
X0150500Y0090874D01*
X0150500Y0087726D01*
X0152726Y0085500D01*
X0155874Y0085500D01*
X0158100Y0087726D01*
X0158100Y0090874D01*
X0155874Y0093100D01*
X0152726Y0093100D01*
X0150943Y0091317D02*
X0147657Y0091317D01*
X0148100Y0089718D02*
X0150500Y0089718D01*
X0150500Y0088120D02*
X0148100Y0088120D01*
X0146895Y0086521D02*
X0151705Y0086521D01*
X0156895Y0086521D02*
X0161705Y0086521D01*
X0162726Y0085500D02*
X0160500Y0087726D01*
X0160500Y0090874D01*
X0162726Y0093100D01*
X0165874Y0093100D01*
X0168100Y0090874D01*
X0168100Y0087726D01*
X0165874Y0085500D01*
X0162726Y0085500D01*
X0160500Y0088120D02*
X0158100Y0088120D01*
X0158100Y0089718D02*
X0160500Y0089718D01*
X0160943Y0091317D02*
X0157657Y0091317D01*
X0156059Y0092915D02*
X0162541Y0092915D01*
X0166059Y0092915D02*
X0173098Y0092915D01*
X0173544Y0093100D02*
X0172147Y0092521D01*
X0171079Y0091453D01*
X0170500Y0090056D01*
X0170500Y0088544D01*
X0171079Y0087147D01*
X0172147Y0086079D01*
X0173544Y0085500D01*
X0175056Y0085500D01*
X0176453Y0086079D01*
X0177521Y0087147D01*
X0178100Y0088544D01*
X0178100Y0090056D01*
X0177521Y0091453D01*
X0176453Y0092521D01*
X0175056Y0093100D01*
X0173544Y0093100D01*
X0175502Y0092915D02*
X0181135Y0092915D01*
X0181320Y0093100D02*
X0180500Y0092280D01*
X0180500Y0086320D01*
X0181320Y0085500D01*
X0187280Y0085500D01*
X0188100Y0086320D01*
X0188100Y0092280D01*
X0187280Y0093100D01*
X0181320Y0093100D01*
X0180500Y0091317D02*
X0177578Y0091317D01*
X0178100Y0089718D02*
X0180500Y0089718D01*
X0180500Y0088120D02*
X0177924Y0088120D01*
X0176895Y0086521D02*
X0180500Y0086521D01*
X0188100Y0086521D02*
X0191705Y0086521D01*
X0190500Y0088120D02*
X0188100Y0088120D01*
X0188100Y0089718D02*
X0190500Y0089718D01*
X0190943Y0091317D02*
X0188100Y0091317D01*
X0187465Y0092915D02*
X0192541Y0092915D01*
X0196059Y0092915D02*
X0196210Y0092915D01*
X0196210Y0094514D02*
X0106500Y0094514D01*
X0106500Y0096112D02*
X0196210Y0096112D01*
X0196210Y0097711D02*
X0106500Y0097711D01*
X0106500Y0099309D02*
X0196210Y0099309D01*
X0196210Y0100908D02*
X0192279Y0100908D01*
X0194244Y0102506D02*
X0196210Y0102506D01*
X0196210Y0104105D02*
X0195356Y0104105D01*
X0196014Y0105703D02*
X0196210Y0105703D01*
X0188850Y0105703D02*
X0187250Y0105703D01*
X0187250Y0107302D02*
X0167200Y0107302D01*
X0167200Y0108900D02*
X0179790Y0108900D01*
X0180113Y0110499D02*
X0166837Y0110499D01*
X0166174Y0112097D02*
X0180803Y0112097D01*
X0181958Y0113696D02*
X0164826Y0113696D01*
X0153774Y0113696D02*
X0118344Y0113696D01*
X0118500Y0112097D02*
X0121723Y0112097D01*
X0122726Y0113100D02*
X0120500Y0110874D01*
X0120500Y0107726D01*
X0122726Y0105500D01*
X0125874Y0105500D01*
X0128100Y0107726D01*
X0128100Y0110874D01*
X0125874Y0113100D01*
X0122726Y0113100D01*
X0120500Y0110499D02*
X0118500Y0110499D01*
X0117340Y0108900D02*
X0120500Y0108900D01*
X0120924Y0107302D02*
X0106500Y0107302D01*
X0106500Y0105703D02*
X0122523Y0105703D01*
X0126077Y0105703D02*
X0131957Y0105703D01*
X0132560Y0105100D02*
X0130100Y0107560D01*
X0130100Y0109300D01*
X0134300Y0109300D01*
X0134300Y0109300D01*
X0134300Y0113500D01*
X0136040Y0113500D01*
X0138500Y0111040D01*
X0138500Y0109300D01*
X0134300Y0109300D01*
X0134300Y0109300D01*
X0134300Y0109300D01*
X0134300Y0113500D01*
X0132560Y0113500D01*
X0130100Y0111040D01*
X0130100Y0109300D01*
X0134300Y0109300D01*
X0138500Y0109300D01*
X0138500Y0107560D01*
X0136040Y0105100D01*
X0134300Y0105100D01*
X0134300Y0109300D01*
X0134300Y0109300D01*
X0134300Y0105100D01*
X0132560Y0105100D01*
X0134300Y0105703D02*
X0134300Y0105703D01*
X0134300Y0107302D02*
X0134300Y0107302D01*
X0134300Y0108900D02*
X0134300Y0108900D01*
X0134300Y0110499D02*
X0134300Y0110499D01*
X0134300Y0112097D02*
X0134300Y0112097D01*
X0137442Y0112097D02*
X0152426Y0112097D01*
X0151763Y0110499D02*
X0138500Y0110499D01*
X0138500Y0108900D02*
X0151400Y0108900D01*
X0151400Y0107302D02*
X0138241Y0107302D01*
X0136643Y0105703D02*
X0151721Y0105703D01*
X0152383Y0104105D02*
X0106500Y0104105D01*
X0106500Y0102506D02*
X0153671Y0102506D01*
X0155899Y0100908D02*
X0106500Y0100908D01*
X0102100Y0096112D02*
X0021409Y0096112D01*
X0020908Y0097711D02*
X0028325Y0097711D01*
X0025888Y0099309D02*
X0020174Y0099309D01*
X0018575Y0100908D02*
X0024612Y0100908D01*
X0047173Y0110499D02*
X0077600Y0110499D01*
X0077600Y0110060D02*
X0080060Y0107600D01*
X0081800Y0107600D01*
X0081800Y0111800D01*
X0077600Y0111800D01*
X0077600Y0110060D01*
X0078760Y0108900D02*
X0048771Y0108900D01*
X0081800Y0108900D02*
X0081800Y0108900D01*
X0081800Y0110499D02*
X0081800Y0110499D01*
X0106774Y0108900D02*
X0111260Y0108900D01*
X0110100Y0110060D02*
X0112560Y0107600D01*
X0114300Y0107600D01*
X0114300Y0111800D01*
X0110100Y0111800D01*
X0110100Y0110060D01*
X0110100Y0110499D02*
X0108100Y0110499D01*
X0108100Y0112097D02*
X0110100Y0112097D01*
X0110256Y0113696D02*
X0107778Y0113696D01*
X0114300Y0110499D02*
X0114300Y0110499D01*
X0114300Y0108900D02*
X0114300Y0108900D01*
X0126877Y0112097D02*
X0131158Y0112097D01*
X0130100Y0110499D02*
X0128100Y0110499D01*
X0128100Y0108900D02*
X0130100Y0108900D01*
X0130359Y0107302D02*
X0127676Y0107302D01*
X0162701Y0100908D02*
X0183821Y0100908D01*
X0181856Y0102506D02*
X0164928Y0102506D01*
X0166217Y0104105D02*
X0180744Y0104105D01*
X0180086Y0105703D02*
X0166879Y0105703D01*
X0187250Y0104105D02*
X0188850Y0104105D01*
X0188850Y0102506D02*
X0187250Y0102506D01*
X0187250Y0100908D02*
X0188850Y0100908D01*
X0171022Y0091317D02*
X0167657Y0091317D01*
X0168100Y0089718D02*
X0170500Y0089718D01*
X0170676Y0088120D02*
X0168100Y0088120D01*
X0166895Y0086521D02*
X0171705Y0086521D01*
X0196210Y0084923D02*
X0116551Y0084923D01*
X0127248Y0081726D02*
X0131352Y0081726D01*
X0130500Y0080127D02*
X0128100Y0080127D01*
X0128100Y0078529D02*
X0130500Y0078529D01*
X0131296Y0076930D02*
X0127304Y0076930D01*
X0104377Y0064142D02*
X0085654Y0064142D01*
X0086591Y0065740D02*
X0102088Y0065740D01*
X0101154Y0067339D02*
X0086900Y0067339D01*
X0086725Y0068937D02*
X0100800Y0068937D01*
X0100927Y0070536D02*
X0085976Y0070536D01*
X0083938Y0072134D02*
X0101571Y0072134D01*
X0100157Y0075332D02*
X0071802Y0075332D01*
X0071802Y0076930D02*
X0098559Y0076930D01*
X0097100Y0078529D02*
X0096403Y0078529D01*
X0103331Y0062543D02*
X0083161Y0062543D01*
X0083430Y0060945D02*
X0102461Y0060945D01*
X0102200Y0059346D02*
X0085766Y0059346D01*
X0086638Y0057748D02*
X0102423Y0057748D01*
X0096632Y0048157D02*
X0096500Y0048157D01*
X0096500Y0044960D02*
X0096920Y0044960D01*
X0096500Y0043361D02*
X0099627Y0043361D01*
X0101226Y0041763D02*
X0096500Y0041763D01*
X0096500Y0040164D02*
X0102824Y0040164D01*
X0096500Y0038566D02*
X0113173Y0038566D01*
X0114771Y0036967D02*
X0096500Y0036967D01*
X0096500Y0035369D02*
X0116370Y0035369D01*
X0117100Y0033770D02*
X0096500Y0033770D01*
X0096500Y0032172D02*
X0099298Y0032172D01*
X0100226Y0033100D02*
X0098000Y0030874D01*
X0098000Y0027726D01*
X0100226Y0025500D01*
X0103374Y0025500D01*
X0105600Y0027726D01*
X0105600Y0030874D01*
X0103374Y0033100D01*
X0100226Y0033100D01*
X0098000Y0030573D02*
X0096500Y0030573D01*
X0096500Y0028975D02*
X0098000Y0028975D01*
X0098350Y0027376D02*
X0096835Y0027376D01*
X0098434Y0025778D02*
X0099948Y0025778D01*
X0100032Y0024179D02*
X0118810Y0024179D01*
X0117211Y0025778D02*
X0114217Y0025778D01*
X0113540Y0025100D02*
X0111800Y0025100D01*
X0111800Y0029300D01*
X0111800Y0029300D01*
X0111800Y0033500D01*
X0113540Y0033500D01*
X0116000Y0031040D01*
X0116000Y0029300D01*
X0111800Y0029300D01*
X0111800Y0029300D01*
X0111800Y0029300D01*
X0107600Y0029300D01*
X0107600Y0031040D01*
X0110060Y0033500D01*
X0111800Y0033500D01*
X0111800Y0029300D01*
X0116000Y0029300D01*
X0116000Y0027560D01*
X0113540Y0025100D01*
X0111800Y0025100D02*
X0111800Y0029300D01*
X0111800Y0029300D01*
X0107600Y0029300D01*
X0107600Y0027560D01*
X0110060Y0025100D01*
X0111800Y0025100D01*
X0111800Y0025778D02*
X0111800Y0025778D01*
X0111800Y0027376D02*
X0111800Y0027376D01*
X0109383Y0025778D02*
X0103652Y0025778D01*
X0105250Y0027376D02*
X0107784Y0027376D01*
X0107600Y0028975D02*
X0105600Y0028975D01*
X0105600Y0030573D02*
X0107600Y0030573D01*
X0108732Y0032172D02*
X0104302Y0032172D01*
X0111800Y0032172D02*
X0111800Y0032172D01*
X0111800Y0030573D02*
X0111800Y0030573D01*
X0111800Y0028975D02*
X0111800Y0028975D01*
X0116000Y0028975D02*
X0117100Y0028975D01*
X0117100Y0030573D02*
X0116000Y0030573D01*
X0117100Y0032172D02*
X0114868Y0032172D01*
X0115816Y0027376D02*
X0117100Y0027376D01*
X0120408Y0022581D02*
X0101631Y0022581D01*
X0098605Y0019384D02*
X0093263Y0019384D01*
X0091354Y0020982D02*
X0097007Y0020982D01*
X0095408Y0022581D02*
X0094069Y0022581D01*
X0089300Y0022581D02*
X0089300Y0022581D01*
X0089300Y0024179D02*
X0089300Y0024179D01*
X0089300Y0025778D02*
X0089300Y0025778D01*
X0089300Y0027376D02*
X0089300Y0027376D01*
X0089300Y0028975D02*
X0089300Y0028975D01*
X0089300Y0030573D02*
X0089300Y0030573D01*
X0069300Y0020982D02*
X0069300Y0020982D01*
X0069300Y0019384D02*
X0069300Y0019384D01*
X0069300Y0017785D02*
X0069300Y0017785D01*
X0069300Y0016187D02*
X0069300Y0016187D01*
X0069300Y0014588D02*
X0069300Y0014588D01*
X0069181Y0009793D02*
X0084419Y0009793D01*
X0083000Y0008194D02*
X0070600Y0008194D01*
X0070600Y0006596D02*
X0083000Y0006596D01*
X0083229Y0004997D02*
X0070371Y0004997D01*
X0063229Y0004997D02*
X0058640Y0004997D01*
X0059000Y0006596D02*
X0063000Y0006596D01*
X0063000Y0008194D02*
X0058810Y0008194D01*
X0057954Y0009793D02*
X0064419Y0009793D01*
X0056604Y0011391D02*
X0097951Y0011391D01*
X0097600Y0009793D02*
X0089181Y0009793D01*
X0090600Y0008194D02*
X0097600Y0008194D01*
X0098565Y0006596D02*
X0090600Y0006596D01*
X0090371Y0004997D02*
X0196210Y0004997D01*
X0196210Y0006596D02*
X0184370Y0006596D01*
X0183953Y0006179D02*
X0185021Y0007247D01*
X0185600Y0008644D01*
X0185600Y0009600D01*
X0188626Y0009600D01*
X0190226Y0008000D01*
X0193374Y0008000D01*
X0195600Y0010226D01*
X0195600Y0013374D01*
X0193374Y0015600D01*
X0190226Y0015600D01*
X0188626Y0014000D01*
X0185600Y0014000D01*
X0185600Y0014956D01*
X0185021Y0016353D01*
X0183953Y0017421D01*
X0182556Y0018000D01*
X0181044Y0018000D01*
X0179647Y0017421D01*
X0178579Y0016353D01*
X0178000Y0014956D01*
X0178000Y0008644D01*
X0178579Y0007247D01*
X0179647Y0006179D01*
X0181044Y0005600D01*
X0182556Y0005600D01*
X0183953Y0006179D01*
X0185414Y0008194D02*
X0190032Y0008194D01*
X0193568Y0008194D02*
X0196210Y0008194D01*
X0196210Y0009793D02*
X0195167Y0009793D01*
X0195600Y0011391D02*
X0196210Y0011391D01*
X0196210Y0012990D02*
X0195600Y0012990D01*
X0191800Y0011800D02*
X0181800Y0011800D01*
X0178000Y0011391D02*
X0175600Y0011391D01*
X0175600Y0009793D02*
X0178000Y0009793D01*
X0175600Y0008644D02*
X0175021Y0007247D01*
X0173953Y0006179D01*
X0172556Y0005600D01*
X0171044Y0005600D01*
X0169647Y0006179D01*
X0168579Y0007247D01*
X0168000Y0008644D01*
X0168000Y0014956D01*
X0168579Y0016353D01*
X0169647Y0017421D01*
X0171044Y0018000D01*
X0172556Y0018000D01*
X0173953Y0017421D01*
X0175021Y0016353D01*
X0175600Y0014956D01*
X0175600Y0008644D01*
X0175414Y0008194D02*
X0178186Y0008194D01*
X0179230Y0006596D02*
X0174370Y0006596D01*
X0169230Y0006596D02*
X0164935Y0006596D01*
X0165824Y0008194D02*
X0168186Y0008194D01*
X0168000Y0009793D02*
X0166000Y0009793D01*
X0166000Y0011391D02*
X0168000Y0011391D01*
X0168000Y0012990D02*
X0166000Y0012990D01*
X0165991Y0014588D02*
X0168000Y0014588D01*
X0168510Y0016187D02*
X0165502Y0016187D01*
X0164011Y0017785D02*
X0170525Y0017785D01*
X0173075Y0017785D02*
X0180525Y0017785D01*
X0183075Y0017785D02*
X0196210Y0017785D01*
X0196210Y0016187D02*
X0185090Y0016187D01*
X0185600Y0014588D02*
X0189214Y0014588D01*
X0194386Y0014588D02*
X0196210Y0014588D01*
X0178510Y0016187D02*
X0175090Y0016187D01*
X0175600Y0014588D02*
X0178000Y0014588D01*
X0178000Y0012990D02*
X0175600Y0012990D01*
X0161800Y0012990D02*
X0161800Y0012990D01*
X0161800Y0011391D02*
X0161800Y0011391D01*
X0161800Y0009793D02*
X0161800Y0009793D01*
X0161800Y0008194D02*
X0161800Y0008194D01*
X0161800Y0006596D02*
X0161800Y0006596D01*
X0161800Y0014588D02*
X0161800Y0014588D01*
X0161800Y0016187D02*
X0161800Y0016187D01*
X0161800Y0017785D02*
X0161800Y0017785D01*
X0148510Y0016187D02*
X0145090Y0016187D01*
X0145600Y0014588D02*
X0148000Y0014588D01*
X0148000Y0012990D02*
X0145600Y0012990D01*
X0138000Y0012990D02*
X0135600Y0012990D01*
X0135600Y0014588D02*
X0137297Y0014588D01*
X0136232Y0016187D02*
X0135090Y0016187D01*
X0123605Y0019384D02*
X0114828Y0019384D01*
X0113229Y0020982D02*
X0122007Y0020982D01*
X0111802Y0016187D02*
X0093950Y0016187D01*
X0093925Y0017785D02*
X0100204Y0017785D01*
X0115600Y0008194D02*
X0118186Y0008194D01*
X0119230Y0006596D02*
X0114470Y0006596D01*
X0119300Y0011800D02*
X0121800Y0011800D01*
X0051017Y0040164D02*
X0018148Y0040164D01*
X0019089Y0038566D02*
X0049944Y0038566D01*
X0049600Y0036967D02*
X0014600Y0036967D01*
X0014600Y0038566D02*
X0014000Y0038566D01*
X0014000Y0040164D02*
X0014600Y0040164D01*
X0014600Y0033770D02*
X0014000Y0033770D01*
X0028805Y0030573D02*
X0030795Y0030573D01*
X0167713Y0067339D02*
X0196210Y0067339D01*
X0196210Y0068937D02*
X0168100Y0068937D01*
X0168100Y0070536D02*
X0196210Y0070536D01*
X0192169Y0062543D02*
X0186400Y0062543D01*
X0186453Y0062521D02*
X0185056Y0063100D01*
X0183544Y0063100D01*
X0182147Y0062521D01*
X0181079Y0061453D01*
X0180500Y0060056D01*
X0180500Y0058544D01*
X0181079Y0057147D01*
X0182147Y0056079D01*
X0183544Y0055500D01*
X0185056Y0055500D01*
X0186453Y0056079D01*
X0187521Y0057147D01*
X0188100Y0058544D01*
X0188100Y0060056D01*
X0187521Y0061453D01*
X0186453Y0062521D01*
X0187732Y0060945D02*
X0190571Y0060945D01*
X0190500Y0059346D02*
X0188100Y0059346D01*
X0187770Y0057748D02*
X0190500Y0057748D01*
X0192077Y0056149D02*
X0186523Y0056149D01*
X0182077Y0056149D02*
X0177929Y0056149D01*
X0178100Y0057748D02*
X0180830Y0057748D01*
X0180500Y0059346D02*
X0178100Y0059346D01*
X0178100Y0060945D02*
X0180868Y0060945D01*
X0182200Y0062543D02*
X0177836Y0062543D01*
D22*
X0099300Y0046800D03*
M02*
