%
M48
M72
T01C0.0320
T02C0.0394
T03C0.0400
T04C0.0433
T05C0.0827
%
T01
X12930Y1555
X14180Y1805
X14180Y2805
X12930Y3555
T02
X10405Y7305
X9405Y7305
X8405Y7305
T03
X11430Y6805
X11430Y5805
X11430Y7805
X5930Y4430
X5930Y1930
T04
X1511Y3180
X4858Y3180
X6039Y3180
X7174Y3430
X7174Y2446
X7174Y4414
X8211Y10180
X11558Y10180
X12739Y10180
T05
X9930Y5202
X9930Y1658
M30
