G75*
%MOIN*%
%OFA0B0*%
%FSLAX25Y25*%
%IPPOS*%
%LPD*%
%AMOC8*
5,1,8,0,0,1.08239X$1,22.5*
%
%ADD10C,0.06496*%
%ADD11R,0.06600X0.06600*%
%ADD12OC8,0.06600*%
%ADD13R,0.12268X0.12268*%
%ADD14C,0.05906*%
%ADD15OC8,0.04800*%
%ADD16C,0.07400*%
%ADD17C,0.01600*%
D10*
X0015115Y0031800D03*
X0048580Y0031800D03*
X0060391Y0031800D03*
X0082115Y0101800D03*
X0115580Y0101800D03*
X0127391Y0101800D03*
D11*
X0071741Y0044143D03*
D12*
X0071741Y0034300D03*
X0071741Y0024457D03*
D13*
X0099300Y0016583D03*
X0099300Y0052017D03*
D14*
X0104050Y0073050D03*
X0094050Y0073050D03*
X0084050Y0073050D03*
D15*
X0129300Y0035550D03*
X0141800Y0028050D03*
X0141800Y0018050D03*
X0129300Y0015550D03*
D16*
X0114300Y0058050D03*
X0114300Y0068050D03*
X0114300Y0078050D03*
X0059300Y0044300D03*
X0059300Y0019300D03*
D17*
X0021800Y0019300D02*
X0014300Y0024300D01*
X0014300Y0031800D01*
X0015115Y0031800D01*
X0021800Y0019300D02*
X0059300Y0019300D01*
X0065550Y0021800D02*
X0069300Y0018050D01*
X0078050Y0018050D01*
X0085550Y0025550D01*
X0119300Y0025550D01*
X0129300Y0015550D01*
X0136800Y0028050D02*
X0129300Y0035550D01*
X0136800Y0028050D02*
X0141800Y0028050D01*
X0114300Y0046800D02*
X0114300Y0058050D01*
X0109300Y0064300D02*
X0096800Y0064300D01*
X0076800Y0044300D01*
X0071898Y0044300D01*
X0071741Y0044143D01*
X0071643Y0044143D01*
X0065550Y0038050D01*
X0065550Y0021800D01*
X0071741Y0024457D02*
X0071741Y0034300D01*
X0089300Y0034300D01*
X0096800Y0041800D01*
X0109300Y0041800D01*
X0114300Y0046800D01*
X0109300Y0064300D02*
X0113050Y0068050D01*
X0114300Y0068050D01*
X0114300Y0069300D01*
X0101800Y0081800D01*
X0089300Y0081800D01*
X0084050Y0076550D01*
X0084050Y0073050D01*
X0089300Y0086800D02*
X0105550Y0086800D01*
X0114300Y0078050D01*
X0089300Y0086800D02*
X0082115Y0093985D01*
X0082115Y0101800D01*
M02*
