G75*
%MOIN*%
%OFA0B0*%
%FSLAX25Y25*%
%IPPOS*%
%LPD*%
%AMOC8*
5,1,8,0,0,1.08239X$1,22.5*
%
%ADD10C,0.00000*%
%ADD11C,0.00010*%
%ADD12C,0.00200*%
%ADD13C,0.12598*%
%ADD14C,0.00100*%
%ADD15C,0.00300*%
%ADD16C,0.70866*%
D10*
X0037600Y0007600D02*
X0543506Y0007600D01*
X0543506Y0125710D01*
X0037600Y0125710D01*
X0037600Y0007600D01*
X0186832Y0071655D02*
X0186834Y0071848D01*
X0186841Y0072041D01*
X0186853Y0072234D01*
X0186870Y0072427D01*
X0186891Y0072619D01*
X0186917Y0072810D01*
X0186948Y0073001D01*
X0186983Y0073191D01*
X0187023Y0073380D01*
X0187068Y0073568D01*
X0187117Y0073755D01*
X0187171Y0073941D01*
X0187229Y0074125D01*
X0187292Y0074308D01*
X0187360Y0074489D01*
X0187431Y0074668D01*
X0187508Y0074846D01*
X0187588Y0075022D01*
X0187673Y0075195D01*
X0187762Y0075367D01*
X0187855Y0075536D01*
X0187952Y0075703D01*
X0188054Y0075868D01*
X0188159Y0076030D01*
X0188268Y0076189D01*
X0188382Y0076346D01*
X0188499Y0076499D01*
X0188619Y0076650D01*
X0188744Y0076798D01*
X0188872Y0076943D01*
X0189003Y0077084D01*
X0189138Y0077223D01*
X0189277Y0077358D01*
X0189418Y0077489D01*
X0189563Y0077617D01*
X0189711Y0077742D01*
X0189862Y0077862D01*
X0190015Y0077979D01*
X0190172Y0078093D01*
X0190331Y0078202D01*
X0190493Y0078307D01*
X0190658Y0078409D01*
X0190825Y0078506D01*
X0190994Y0078599D01*
X0191166Y0078688D01*
X0191339Y0078773D01*
X0191515Y0078853D01*
X0191693Y0078930D01*
X0191872Y0079001D01*
X0192053Y0079069D01*
X0192236Y0079132D01*
X0192420Y0079190D01*
X0192606Y0079244D01*
X0192793Y0079293D01*
X0192981Y0079338D01*
X0193170Y0079378D01*
X0193360Y0079413D01*
X0193551Y0079444D01*
X0193742Y0079470D01*
X0193934Y0079491D01*
X0194127Y0079508D01*
X0194320Y0079520D01*
X0194513Y0079527D01*
X0194706Y0079529D01*
X0194899Y0079527D01*
X0195092Y0079520D01*
X0195285Y0079508D01*
X0195478Y0079491D01*
X0195670Y0079470D01*
X0195861Y0079444D01*
X0196052Y0079413D01*
X0196242Y0079378D01*
X0196431Y0079338D01*
X0196619Y0079293D01*
X0196806Y0079244D01*
X0196992Y0079190D01*
X0197176Y0079132D01*
X0197359Y0079069D01*
X0197540Y0079001D01*
X0197719Y0078930D01*
X0197897Y0078853D01*
X0198073Y0078773D01*
X0198246Y0078688D01*
X0198418Y0078599D01*
X0198587Y0078506D01*
X0198754Y0078409D01*
X0198919Y0078307D01*
X0199081Y0078202D01*
X0199240Y0078093D01*
X0199397Y0077979D01*
X0199550Y0077862D01*
X0199701Y0077742D01*
X0199849Y0077617D01*
X0199994Y0077489D01*
X0200135Y0077358D01*
X0200274Y0077223D01*
X0200409Y0077084D01*
X0200540Y0076943D01*
X0200668Y0076798D01*
X0200793Y0076650D01*
X0200913Y0076499D01*
X0201030Y0076346D01*
X0201144Y0076189D01*
X0201253Y0076030D01*
X0201358Y0075868D01*
X0201460Y0075703D01*
X0201557Y0075536D01*
X0201650Y0075367D01*
X0201739Y0075195D01*
X0201824Y0075022D01*
X0201904Y0074846D01*
X0201981Y0074668D01*
X0202052Y0074489D01*
X0202120Y0074308D01*
X0202183Y0074125D01*
X0202241Y0073941D01*
X0202295Y0073755D01*
X0202344Y0073568D01*
X0202389Y0073380D01*
X0202429Y0073191D01*
X0202464Y0073001D01*
X0202495Y0072810D01*
X0202521Y0072619D01*
X0202542Y0072427D01*
X0202559Y0072234D01*
X0202571Y0072041D01*
X0202578Y0071848D01*
X0202580Y0071655D01*
X0202578Y0071462D01*
X0202571Y0071269D01*
X0202559Y0071076D01*
X0202542Y0070883D01*
X0202521Y0070691D01*
X0202495Y0070500D01*
X0202464Y0070309D01*
X0202429Y0070119D01*
X0202389Y0069930D01*
X0202344Y0069742D01*
X0202295Y0069555D01*
X0202241Y0069369D01*
X0202183Y0069185D01*
X0202120Y0069002D01*
X0202052Y0068821D01*
X0201981Y0068642D01*
X0201904Y0068464D01*
X0201824Y0068288D01*
X0201739Y0068115D01*
X0201650Y0067943D01*
X0201557Y0067774D01*
X0201460Y0067607D01*
X0201358Y0067442D01*
X0201253Y0067280D01*
X0201144Y0067121D01*
X0201030Y0066964D01*
X0200913Y0066811D01*
X0200793Y0066660D01*
X0200668Y0066512D01*
X0200540Y0066367D01*
X0200409Y0066226D01*
X0200274Y0066087D01*
X0200135Y0065952D01*
X0199994Y0065821D01*
X0199849Y0065693D01*
X0199701Y0065568D01*
X0199550Y0065448D01*
X0199397Y0065331D01*
X0199240Y0065217D01*
X0199081Y0065108D01*
X0198919Y0065003D01*
X0198754Y0064901D01*
X0198587Y0064804D01*
X0198418Y0064711D01*
X0198246Y0064622D01*
X0198073Y0064537D01*
X0197897Y0064457D01*
X0197719Y0064380D01*
X0197540Y0064309D01*
X0197359Y0064241D01*
X0197176Y0064178D01*
X0196992Y0064120D01*
X0196806Y0064066D01*
X0196619Y0064017D01*
X0196431Y0063972D01*
X0196242Y0063932D01*
X0196052Y0063897D01*
X0195861Y0063866D01*
X0195670Y0063840D01*
X0195478Y0063819D01*
X0195285Y0063802D01*
X0195092Y0063790D01*
X0194899Y0063783D01*
X0194706Y0063781D01*
X0194513Y0063783D01*
X0194320Y0063790D01*
X0194127Y0063802D01*
X0193934Y0063819D01*
X0193742Y0063840D01*
X0193551Y0063866D01*
X0193360Y0063897D01*
X0193170Y0063932D01*
X0192981Y0063972D01*
X0192793Y0064017D01*
X0192606Y0064066D01*
X0192420Y0064120D01*
X0192236Y0064178D01*
X0192053Y0064241D01*
X0191872Y0064309D01*
X0191693Y0064380D01*
X0191515Y0064457D01*
X0191339Y0064537D01*
X0191166Y0064622D01*
X0190994Y0064711D01*
X0190825Y0064804D01*
X0190658Y0064901D01*
X0190493Y0065003D01*
X0190331Y0065108D01*
X0190172Y0065217D01*
X0190015Y0065331D01*
X0189862Y0065448D01*
X0189711Y0065568D01*
X0189563Y0065693D01*
X0189418Y0065821D01*
X0189277Y0065952D01*
X0189138Y0066087D01*
X0189003Y0066226D01*
X0188872Y0066367D01*
X0188744Y0066512D01*
X0188619Y0066660D01*
X0188499Y0066811D01*
X0188382Y0066964D01*
X0188268Y0067121D01*
X0188159Y0067280D01*
X0188054Y0067442D01*
X0187952Y0067607D01*
X0187855Y0067774D01*
X0187762Y0067943D01*
X0187673Y0068115D01*
X0187588Y0068288D01*
X0187508Y0068464D01*
X0187431Y0068642D01*
X0187360Y0068821D01*
X0187292Y0069002D01*
X0187229Y0069185D01*
X0187171Y0069369D01*
X0187117Y0069555D01*
X0187068Y0069742D01*
X0187023Y0069930D01*
X0186983Y0070119D01*
X0186948Y0070309D01*
X0186917Y0070500D01*
X0186891Y0070691D01*
X0186870Y0070883D01*
X0186853Y0071076D01*
X0186841Y0071269D01*
X0186834Y0071462D01*
X0186832Y0071655D01*
X0487620Y0071655D02*
X0487622Y0071848D01*
X0487629Y0072041D01*
X0487641Y0072234D01*
X0487658Y0072427D01*
X0487679Y0072619D01*
X0487705Y0072810D01*
X0487736Y0073001D01*
X0487771Y0073191D01*
X0487811Y0073380D01*
X0487856Y0073568D01*
X0487905Y0073755D01*
X0487959Y0073941D01*
X0488017Y0074125D01*
X0488080Y0074308D01*
X0488148Y0074489D01*
X0488219Y0074668D01*
X0488296Y0074846D01*
X0488376Y0075022D01*
X0488461Y0075195D01*
X0488550Y0075367D01*
X0488643Y0075536D01*
X0488740Y0075703D01*
X0488842Y0075868D01*
X0488947Y0076030D01*
X0489056Y0076189D01*
X0489170Y0076346D01*
X0489287Y0076499D01*
X0489407Y0076650D01*
X0489532Y0076798D01*
X0489660Y0076943D01*
X0489791Y0077084D01*
X0489926Y0077223D01*
X0490065Y0077358D01*
X0490206Y0077489D01*
X0490351Y0077617D01*
X0490499Y0077742D01*
X0490650Y0077862D01*
X0490803Y0077979D01*
X0490960Y0078093D01*
X0491119Y0078202D01*
X0491281Y0078307D01*
X0491446Y0078409D01*
X0491613Y0078506D01*
X0491782Y0078599D01*
X0491954Y0078688D01*
X0492127Y0078773D01*
X0492303Y0078853D01*
X0492481Y0078930D01*
X0492660Y0079001D01*
X0492841Y0079069D01*
X0493024Y0079132D01*
X0493208Y0079190D01*
X0493394Y0079244D01*
X0493581Y0079293D01*
X0493769Y0079338D01*
X0493958Y0079378D01*
X0494148Y0079413D01*
X0494339Y0079444D01*
X0494530Y0079470D01*
X0494722Y0079491D01*
X0494915Y0079508D01*
X0495108Y0079520D01*
X0495301Y0079527D01*
X0495494Y0079529D01*
X0495687Y0079527D01*
X0495880Y0079520D01*
X0496073Y0079508D01*
X0496266Y0079491D01*
X0496458Y0079470D01*
X0496649Y0079444D01*
X0496840Y0079413D01*
X0497030Y0079378D01*
X0497219Y0079338D01*
X0497407Y0079293D01*
X0497594Y0079244D01*
X0497780Y0079190D01*
X0497964Y0079132D01*
X0498147Y0079069D01*
X0498328Y0079001D01*
X0498507Y0078930D01*
X0498685Y0078853D01*
X0498861Y0078773D01*
X0499034Y0078688D01*
X0499206Y0078599D01*
X0499375Y0078506D01*
X0499542Y0078409D01*
X0499707Y0078307D01*
X0499869Y0078202D01*
X0500028Y0078093D01*
X0500185Y0077979D01*
X0500338Y0077862D01*
X0500489Y0077742D01*
X0500637Y0077617D01*
X0500782Y0077489D01*
X0500923Y0077358D01*
X0501062Y0077223D01*
X0501197Y0077084D01*
X0501328Y0076943D01*
X0501456Y0076798D01*
X0501581Y0076650D01*
X0501701Y0076499D01*
X0501818Y0076346D01*
X0501932Y0076189D01*
X0502041Y0076030D01*
X0502146Y0075868D01*
X0502248Y0075703D01*
X0502345Y0075536D01*
X0502438Y0075367D01*
X0502527Y0075195D01*
X0502612Y0075022D01*
X0502692Y0074846D01*
X0502769Y0074668D01*
X0502840Y0074489D01*
X0502908Y0074308D01*
X0502971Y0074125D01*
X0503029Y0073941D01*
X0503083Y0073755D01*
X0503132Y0073568D01*
X0503177Y0073380D01*
X0503217Y0073191D01*
X0503252Y0073001D01*
X0503283Y0072810D01*
X0503309Y0072619D01*
X0503330Y0072427D01*
X0503347Y0072234D01*
X0503359Y0072041D01*
X0503366Y0071848D01*
X0503368Y0071655D01*
X0503366Y0071462D01*
X0503359Y0071269D01*
X0503347Y0071076D01*
X0503330Y0070883D01*
X0503309Y0070691D01*
X0503283Y0070500D01*
X0503252Y0070309D01*
X0503217Y0070119D01*
X0503177Y0069930D01*
X0503132Y0069742D01*
X0503083Y0069555D01*
X0503029Y0069369D01*
X0502971Y0069185D01*
X0502908Y0069002D01*
X0502840Y0068821D01*
X0502769Y0068642D01*
X0502692Y0068464D01*
X0502612Y0068288D01*
X0502527Y0068115D01*
X0502438Y0067943D01*
X0502345Y0067774D01*
X0502248Y0067607D01*
X0502146Y0067442D01*
X0502041Y0067280D01*
X0501932Y0067121D01*
X0501818Y0066964D01*
X0501701Y0066811D01*
X0501581Y0066660D01*
X0501456Y0066512D01*
X0501328Y0066367D01*
X0501197Y0066226D01*
X0501062Y0066087D01*
X0500923Y0065952D01*
X0500782Y0065821D01*
X0500637Y0065693D01*
X0500489Y0065568D01*
X0500338Y0065448D01*
X0500185Y0065331D01*
X0500028Y0065217D01*
X0499869Y0065108D01*
X0499707Y0065003D01*
X0499542Y0064901D01*
X0499375Y0064804D01*
X0499206Y0064711D01*
X0499034Y0064622D01*
X0498861Y0064537D01*
X0498685Y0064457D01*
X0498507Y0064380D01*
X0498328Y0064309D01*
X0498147Y0064241D01*
X0497964Y0064178D01*
X0497780Y0064120D01*
X0497594Y0064066D01*
X0497407Y0064017D01*
X0497219Y0063972D01*
X0497030Y0063932D01*
X0496840Y0063897D01*
X0496649Y0063866D01*
X0496458Y0063840D01*
X0496266Y0063819D01*
X0496073Y0063802D01*
X0495880Y0063790D01*
X0495687Y0063783D01*
X0495494Y0063781D01*
X0495301Y0063783D01*
X0495108Y0063790D01*
X0494915Y0063802D01*
X0494722Y0063819D01*
X0494530Y0063840D01*
X0494339Y0063866D01*
X0494148Y0063897D01*
X0493958Y0063932D01*
X0493769Y0063972D01*
X0493581Y0064017D01*
X0493394Y0064066D01*
X0493208Y0064120D01*
X0493024Y0064178D01*
X0492841Y0064241D01*
X0492660Y0064309D01*
X0492481Y0064380D01*
X0492303Y0064457D01*
X0492127Y0064537D01*
X0491954Y0064622D01*
X0491782Y0064711D01*
X0491613Y0064804D01*
X0491446Y0064901D01*
X0491281Y0065003D01*
X0491119Y0065108D01*
X0490960Y0065217D01*
X0490803Y0065331D01*
X0490650Y0065448D01*
X0490499Y0065568D01*
X0490351Y0065693D01*
X0490206Y0065821D01*
X0490065Y0065952D01*
X0489926Y0066087D01*
X0489791Y0066226D01*
X0489660Y0066367D01*
X0489532Y0066512D01*
X0489407Y0066660D01*
X0489287Y0066811D01*
X0489170Y0066964D01*
X0489056Y0067121D01*
X0488947Y0067280D01*
X0488842Y0067442D01*
X0488740Y0067607D01*
X0488643Y0067774D01*
X0488550Y0067943D01*
X0488461Y0068115D01*
X0488376Y0068288D01*
X0488296Y0068464D01*
X0488219Y0068642D01*
X0488148Y0068821D01*
X0488080Y0069002D01*
X0488017Y0069185D01*
X0487959Y0069369D01*
X0487905Y0069555D01*
X0487856Y0069742D01*
X0487811Y0069930D01*
X0487771Y0070119D01*
X0487736Y0070309D01*
X0487705Y0070500D01*
X0487679Y0070691D01*
X0487658Y0070883D01*
X0487641Y0071076D01*
X0487629Y0071269D01*
X0487622Y0071462D01*
X0487620Y0071655D01*
D11*
X0525395Y0091183D02*
X0525395Y0101183D01*
X0525397Y0101341D01*
X0525403Y0101499D01*
X0525413Y0101657D01*
X0525427Y0101815D01*
X0525445Y0101972D01*
X0525466Y0102129D01*
X0525492Y0102285D01*
X0525522Y0102441D01*
X0525555Y0102596D01*
X0525593Y0102749D01*
X0525634Y0102902D01*
X0525679Y0103054D01*
X0525728Y0103205D01*
X0525781Y0103354D01*
X0525837Y0103502D01*
X0525897Y0103648D01*
X0525961Y0103793D01*
X0526029Y0103936D01*
X0526100Y0104078D01*
X0526174Y0104218D01*
X0526252Y0104355D01*
X0526334Y0104491D01*
X0526418Y0104625D01*
X0526507Y0104756D01*
X0526598Y0104885D01*
X0526693Y0105012D01*
X0526790Y0105137D01*
X0526891Y0105259D01*
X0526995Y0105378D01*
X0527102Y0105495D01*
X0527212Y0105609D01*
X0527325Y0105720D01*
X0527440Y0105829D01*
X0527558Y0105934D01*
X0527679Y0106036D01*
X0527802Y0106136D01*
X0527928Y0106232D01*
X0528056Y0106325D01*
X0528186Y0106415D01*
X0528319Y0106501D01*
X0528454Y0106585D01*
X0528590Y0106664D01*
X0528729Y0106741D01*
X0528870Y0106813D01*
X0529012Y0106883D01*
X0529156Y0106948D01*
X0529302Y0107010D01*
X0529449Y0107068D01*
X0529598Y0107123D01*
X0529748Y0107174D01*
X0529899Y0107221D01*
X0530051Y0107264D01*
X0530204Y0107303D01*
X0530359Y0107339D01*
X0530514Y0107370D01*
X0530670Y0107398D01*
X0530826Y0107422D01*
X0530983Y0107442D01*
X0531141Y0107458D01*
X0531298Y0107470D01*
X0531457Y0107478D01*
X0531615Y0107482D01*
X0531773Y0107482D01*
X0531931Y0107478D01*
X0532090Y0107470D01*
X0532247Y0107458D01*
X0532405Y0107442D01*
X0532562Y0107422D01*
X0532718Y0107398D01*
X0532874Y0107370D01*
X0533029Y0107339D01*
X0533184Y0107303D01*
X0533337Y0107264D01*
X0533489Y0107221D01*
X0533640Y0107174D01*
X0533790Y0107123D01*
X0533939Y0107068D01*
X0534086Y0107010D01*
X0534232Y0106948D01*
X0534376Y0106883D01*
X0534518Y0106813D01*
X0534659Y0106741D01*
X0534798Y0106664D01*
X0534934Y0106585D01*
X0535069Y0106501D01*
X0535202Y0106415D01*
X0535332Y0106325D01*
X0535460Y0106232D01*
X0535586Y0106136D01*
X0535709Y0106036D01*
X0535830Y0105934D01*
X0535948Y0105829D01*
X0536063Y0105720D01*
X0536176Y0105609D01*
X0536286Y0105495D01*
X0536393Y0105378D01*
X0536497Y0105259D01*
X0536598Y0105137D01*
X0536695Y0105012D01*
X0536790Y0104885D01*
X0536881Y0104756D01*
X0536970Y0104625D01*
X0537054Y0104491D01*
X0537136Y0104355D01*
X0537214Y0104218D01*
X0537288Y0104078D01*
X0537359Y0103936D01*
X0537427Y0103793D01*
X0537491Y0103648D01*
X0537551Y0103502D01*
X0537607Y0103354D01*
X0537660Y0103205D01*
X0537709Y0103054D01*
X0537754Y0102902D01*
X0537795Y0102749D01*
X0537833Y0102596D01*
X0537866Y0102441D01*
X0537896Y0102285D01*
X0537922Y0102129D01*
X0537943Y0101972D01*
X0537961Y0101815D01*
X0537975Y0101657D01*
X0537985Y0101499D01*
X0537991Y0101341D01*
X0537993Y0101183D01*
X0537994Y0101183D02*
X0537994Y0091183D01*
X0537993Y0091183D02*
X0537991Y0091025D01*
X0537985Y0090867D01*
X0537975Y0090709D01*
X0537961Y0090551D01*
X0537943Y0090394D01*
X0537922Y0090237D01*
X0537896Y0090081D01*
X0537866Y0089925D01*
X0537833Y0089770D01*
X0537795Y0089617D01*
X0537754Y0089464D01*
X0537709Y0089312D01*
X0537660Y0089161D01*
X0537607Y0089012D01*
X0537551Y0088864D01*
X0537491Y0088718D01*
X0537427Y0088573D01*
X0537359Y0088430D01*
X0537288Y0088288D01*
X0537214Y0088148D01*
X0537136Y0088011D01*
X0537054Y0087875D01*
X0536970Y0087741D01*
X0536881Y0087610D01*
X0536790Y0087481D01*
X0536695Y0087354D01*
X0536598Y0087229D01*
X0536497Y0087107D01*
X0536393Y0086988D01*
X0536286Y0086871D01*
X0536176Y0086757D01*
X0536063Y0086646D01*
X0535948Y0086537D01*
X0535830Y0086432D01*
X0535709Y0086330D01*
X0535586Y0086230D01*
X0535460Y0086134D01*
X0535332Y0086041D01*
X0535202Y0085951D01*
X0535069Y0085865D01*
X0534934Y0085781D01*
X0534798Y0085702D01*
X0534659Y0085625D01*
X0534518Y0085553D01*
X0534376Y0085483D01*
X0534232Y0085418D01*
X0534086Y0085356D01*
X0533939Y0085298D01*
X0533790Y0085243D01*
X0533640Y0085192D01*
X0533489Y0085145D01*
X0533337Y0085102D01*
X0533184Y0085063D01*
X0533029Y0085027D01*
X0532874Y0084996D01*
X0532718Y0084968D01*
X0532562Y0084944D01*
X0532405Y0084924D01*
X0532247Y0084908D01*
X0532090Y0084896D01*
X0531931Y0084888D01*
X0531773Y0084884D01*
X0531615Y0084884D01*
X0531457Y0084888D01*
X0531298Y0084896D01*
X0531141Y0084908D01*
X0530983Y0084924D01*
X0530826Y0084944D01*
X0530670Y0084968D01*
X0530514Y0084996D01*
X0530359Y0085027D01*
X0530204Y0085063D01*
X0530051Y0085102D01*
X0529899Y0085145D01*
X0529748Y0085192D01*
X0529598Y0085243D01*
X0529449Y0085298D01*
X0529302Y0085356D01*
X0529156Y0085418D01*
X0529012Y0085483D01*
X0528870Y0085553D01*
X0528729Y0085625D01*
X0528590Y0085702D01*
X0528454Y0085781D01*
X0528319Y0085865D01*
X0528186Y0085951D01*
X0528056Y0086041D01*
X0527928Y0086134D01*
X0527802Y0086230D01*
X0527679Y0086330D01*
X0527558Y0086432D01*
X0527440Y0086537D01*
X0527325Y0086646D01*
X0527212Y0086757D01*
X0527102Y0086871D01*
X0526995Y0086988D01*
X0526891Y0087107D01*
X0526790Y0087229D01*
X0526693Y0087354D01*
X0526598Y0087481D01*
X0526507Y0087610D01*
X0526418Y0087741D01*
X0526334Y0087875D01*
X0526252Y0088011D01*
X0526174Y0088148D01*
X0526100Y0088288D01*
X0526029Y0088430D01*
X0525961Y0088573D01*
X0525897Y0088718D01*
X0525837Y0088864D01*
X0525781Y0089012D01*
X0525728Y0089161D01*
X0525679Y0089312D01*
X0525634Y0089464D01*
X0525593Y0089617D01*
X0525555Y0089770D01*
X0525522Y0089925D01*
X0525492Y0090081D01*
X0525466Y0090237D01*
X0525445Y0090394D01*
X0525427Y0090551D01*
X0525413Y0090709D01*
X0525403Y0090867D01*
X0525397Y0091025D01*
X0525395Y0091183D01*
X0525395Y0042128D02*
X0525395Y0032128D01*
X0525397Y0031970D01*
X0525403Y0031812D01*
X0525413Y0031654D01*
X0525427Y0031496D01*
X0525445Y0031339D01*
X0525466Y0031182D01*
X0525492Y0031026D01*
X0525522Y0030870D01*
X0525555Y0030715D01*
X0525593Y0030562D01*
X0525634Y0030409D01*
X0525679Y0030257D01*
X0525728Y0030106D01*
X0525781Y0029957D01*
X0525837Y0029809D01*
X0525897Y0029663D01*
X0525961Y0029518D01*
X0526029Y0029375D01*
X0526100Y0029233D01*
X0526174Y0029093D01*
X0526252Y0028956D01*
X0526334Y0028820D01*
X0526418Y0028686D01*
X0526507Y0028555D01*
X0526598Y0028426D01*
X0526693Y0028299D01*
X0526790Y0028174D01*
X0526891Y0028052D01*
X0526995Y0027933D01*
X0527102Y0027816D01*
X0527212Y0027702D01*
X0527325Y0027591D01*
X0527440Y0027482D01*
X0527558Y0027377D01*
X0527679Y0027275D01*
X0527802Y0027175D01*
X0527928Y0027079D01*
X0528056Y0026986D01*
X0528186Y0026896D01*
X0528319Y0026810D01*
X0528454Y0026726D01*
X0528590Y0026647D01*
X0528729Y0026570D01*
X0528870Y0026498D01*
X0529012Y0026428D01*
X0529156Y0026363D01*
X0529302Y0026301D01*
X0529449Y0026243D01*
X0529598Y0026188D01*
X0529748Y0026137D01*
X0529899Y0026090D01*
X0530051Y0026047D01*
X0530204Y0026008D01*
X0530359Y0025972D01*
X0530514Y0025941D01*
X0530670Y0025913D01*
X0530826Y0025889D01*
X0530983Y0025869D01*
X0531141Y0025853D01*
X0531298Y0025841D01*
X0531457Y0025833D01*
X0531615Y0025829D01*
X0531773Y0025829D01*
X0531931Y0025833D01*
X0532090Y0025841D01*
X0532247Y0025853D01*
X0532405Y0025869D01*
X0532562Y0025889D01*
X0532718Y0025913D01*
X0532874Y0025941D01*
X0533029Y0025972D01*
X0533184Y0026008D01*
X0533337Y0026047D01*
X0533489Y0026090D01*
X0533640Y0026137D01*
X0533790Y0026188D01*
X0533939Y0026243D01*
X0534086Y0026301D01*
X0534232Y0026363D01*
X0534376Y0026428D01*
X0534518Y0026498D01*
X0534659Y0026570D01*
X0534798Y0026647D01*
X0534934Y0026726D01*
X0535069Y0026810D01*
X0535202Y0026896D01*
X0535332Y0026986D01*
X0535460Y0027079D01*
X0535586Y0027175D01*
X0535709Y0027275D01*
X0535830Y0027377D01*
X0535948Y0027482D01*
X0536063Y0027591D01*
X0536176Y0027702D01*
X0536286Y0027816D01*
X0536393Y0027933D01*
X0536497Y0028052D01*
X0536598Y0028174D01*
X0536695Y0028299D01*
X0536790Y0028426D01*
X0536881Y0028555D01*
X0536970Y0028686D01*
X0537054Y0028820D01*
X0537136Y0028956D01*
X0537214Y0029093D01*
X0537288Y0029233D01*
X0537359Y0029375D01*
X0537427Y0029518D01*
X0537491Y0029663D01*
X0537551Y0029809D01*
X0537607Y0029957D01*
X0537660Y0030106D01*
X0537709Y0030257D01*
X0537754Y0030409D01*
X0537795Y0030562D01*
X0537833Y0030715D01*
X0537866Y0030870D01*
X0537896Y0031026D01*
X0537922Y0031182D01*
X0537943Y0031339D01*
X0537961Y0031496D01*
X0537975Y0031654D01*
X0537985Y0031812D01*
X0537991Y0031970D01*
X0537993Y0032128D01*
X0537994Y0032128D02*
X0537994Y0042128D01*
X0537993Y0042128D02*
X0537991Y0042286D01*
X0537985Y0042444D01*
X0537975Y0042602D01*
X0537961Y0042760D01*
X0537943Y0042917D01*
X0537922Y0043074D01*
X0537896Y0043230D01*
X0537866Y0043386D01*
X0537833Y0043541D01*
X0537795Y0043694D01*
X0537754Y0043847D01*
X0537709Y0043999D01*
X0537660Y0044150D01*
X0537607Y0044299D01*
X0537551Y0044447D01*
X0537491Y0044593D01*
X0537427Y0044738D01*
X0537359Y0044881D01*
X0537288Y0045023D01*
X0537214Y0045163D01*
X0537136Y0045300D01*
X0537054Y0045436D01*
X0536970Y0045570D01*
X0536881Y0045701D01*
X0536790Y0045830D01*
X0536695Y0045957D01*
X0536598Y0046082D01*
X0536497Y0046204D01*
X0536393Y0046323D01*
X0536286Y0046440D01*
X0536176Y0046554D01*
X0536063Y0046665D01*
X0535948Y0046774D01*
X0535830Y0046879D01*
X0535709Y0046981D01*
X0535586Y0047081D01*
X0535460Y0047177D01*
X0535332Y0047270D01*
X0535202Y0047360D01*
X0535069Y0047446D01*
X0534934Y0047530D01*
X0534798Y0047609D01*
X0534659Y0047686D01*
X0534518Y0047758D01*
X0534376Y0047828D01*
X0534232Y0047893D01*
X0534086Y0047955D01*
X0533939Y0048013D01*
X0533790Y0048068D01*
X0533640Y0048119D01*
X0533489Y0048166D01*
X0533337Y0048209D01*
X0533184Y0048248D01*
X0533029Y0048284D01*
X0532874Y0048315D01*
X0532718Y0048343D01*
X0532562Y0048367D01*
X0532405Y0048387D01*
X0532247Y0048403D01*
X0532090Y0048415D01*
X0531931Y0048423D01*
X0531773Y0048427D01*
X0531615Y0048427D01*
X0531457Y0048423D01*
X0531298Y0048415D01*
X0531141Y0048403D01*
X0530983Y0048387D01*
X0530826Y0048367D01*
X0530670Y0048343D01*
X0530514Y0048315D01*
X0530359Y0048284D01*
X0530204Y0048248D01*
X0530051Y0048209D01*
X0529899Y0048166D01*
X0529748Y0048119D01*
X0529598Y0048068D01*
X0529449Y0048013D01*
X0529302Y0047955D01*
X0529156Y0047893D01*
X0529012Y0047828D01*
X0528870Y0047758D01*
X0528729Y0047686D01*
X0528590Y0047609D01*
X0528454Y0047530D01*
X0528319Y0047446D01*
X0528186Y0047360D01*
X0528056Y0047270D01*
X0527928Y0047177D01*
X0527802Y0047081D01*
X0527679Y0046981D01*
X0527558Y0046879D01*
X0527440Y0046774D01*
X0527325Y0046665D01*
X0527212Y0046554D01*
X0527102Y0046440D01*
X0526995Y0046323D01*
X0526891Y0046204D01*
X0526790Y0046082D01*
X0526693Y0045957D01*
X0526598Y0045830D01*
X0526507Y0045701D01*
X0526418Y0045570D01*
X0526334Y0045436D01*
X0526252Y0045300D01*
X0526174Y0045163D01*
X0526100Y0045023D01*
X0526029Y0044881D01*
X0525961Y0044738D01*
X0525897Y0044593D01*
X0525837Y0044447D01*
X0525781Y0044299D01*
X0525728Y0044150D01*
X0525679Y0043999D01*
X0525634Y0043847D01*
X0525593Y0043694D01*
X0525555Y0043541D01*
X0525522Y0043386D01*
X0525492Y0043230D01*
X0525466Y0043074D01*
X0525445Y0042917D01*
X0525427Y0042760D01*
X0525413Y0042602D01*
X0525403Y0042444D01*
X0525397Y0042286D01*
X0525395Y0042128D01*
X0055710Y0042128D02*
X0055710Y0032128D01*
X0055708Y0031970D01*
X0055702Y0031812D01*
X0055692Y0031654D01*
X0055678Y0031496D01*
X0055660Y0031339D01*
X0055639Y0031182D01*
X0055613Y0031026D01*
X0055583Y0030870D01*
X0055550Y0030715D01*
X0055512Y0030562D01*
X0055471Y0030409D01*
X0055426Y0030257D01*
X0055377Y0030106D01*
X0055324Y0029957D01*
X0055268Y0029809D01*
X0055208Y0029663D01*
X0055144Y0029518D01*
X0055076Y0029375D01*
X0055005Y0029233D01*
X0054931Y0029093D01*
X0054853Y0028956D01*
X0054771Y0028820D01*
X0054687Y0028686D01*
X0054598Y0028555D01*
X0054507Y0028426D01*
X0054412Y0028299D01*
X0054315Y0028174D01*
X0054214Y0028052D01*
X0054110Y0027933D01*
X0054003Y0027816D01*
X0053893Y0027702D01*
X0053780Y0027591D01*
X0053665Y0027482D01*
X0053547Y0027377D01*
X0053426Y0027275D01*
X0053303Y0027175D01*
X0053177Y0027079D01*
X0053049Y0026986D01*
X0052919Y0026896D01*
X0052786Y0026810D01*
X0052651Y0026726D01*
X0052515Y0026647D01*
X0052376Y0026570D01*
X0052235Y0026498D01*
X0052093Y0026428D01*
X0051949Y0026363D01*
X0051803Y0026301D01*
X0051656Y0026243D01*
X0051507Y0026188D01*
X0051357Y0026137D01*
X0051206Y0026090D01*
X0051054Y0026047D01*
X0050901Y0026008D01*
X0050746Y0025972D01*
X0050591Y0025941D01*
X0050435Y0025913D01*
X0050279Y0025889D01*
X0050122Y0025869D01*
X0049964Y0025853D01*
X0049807Y0025841D01*
X0049648Y0025833D01*
X0049490Y0025829D01*
X0049332Y0025829D01*
X0049174Y0025833D01*
X0049015Y0025841D01*
X0048858Y0025853D01*
X0048700Y0025869D01*
X0048543Y0025889D01*
X0048387Y0025913D01*
X0048231Y0025941D01*
X0048076Y0025972D01*
X0047921Y0026008D01*
X0047768Y0026047D01*
X0047616Y0026090D01*
X0047465Y0026137D01*
X0047315Y0026188D01*
X0047166Y0026243D01*
X0047019Y0026301D01*
X0046873Y0026363D01*
X0046729Y0026428D01*
X0046587Y0026498D01*
X0046446Y0026570D01*
X0046307Y0026647D01*
X0046171Y0026726D01*
X0046036Y0026810D01*
X0045903Y0026896D01*
X0045773Y0026986D01*
X0045645Y0027079D01*
X0045519Y0027175D01*
X0045396Y0027275D01*
X0045275Y0027377D01*
X0045157Y0027482D01*
X0045042Y0027591D01*
X0044929Y0027702D01*
X0044819Y0027816D01*
X0044712Y0027933D01*
X0044608Y0028052D01*
X0044507Y0028174D01*
X0044410Y0028299D01*
X0044315Y0028426D01*
X0044224Y0028555D01*
X0044135Y0028686D01*
X0044051Y0028820D01*
X0043969Y0028956D01*
X0043891Y0029093D01*
X0043817Y0029233D01*
X0043746Y0029375D01*
X0043678Y0029518D01*
X0043614Y0029663D01*
X0043554Y0029809D01*
X0043498Y0029957D01*
X0043445Y0030106D01*
X0043396Y0030257D01*
X0043351Y0030409D01*
X0043310Y0030562D01*
X0043272Y0030715D01*
X0043239Y0030870D01*
X0043209Y0031026D01*
X0043183Y0031182D01*
X0043162Y0031339D01*
X0043144Y0031496D01*
X0043130Y0031654D01*
X0043120Y0031812D01*
X0043114Y0031970D01*
X0043112Y0032128D01*
X0043112Y0042128D01*
X0043114Y0042286D01*
X0043120Y0042444D01*
X0043130Y0042602D01*
X0043144Y0042760D01*
X0043162Y0042917D01*
X0043183Y0043074D01*
X0043209Y0043230D01*
X0043239Y0043386D01*
X0043272Y0043541D01*
X0043310Y0043694D01*
X0043351Y0043847D01*
X0043396Y0043999D01*
X0043445Y0044150D01*
X0043498Y0044299D01*
X0043554Y0044447D01*
X0043614Y0044593D01*
X0043678Y0044738D01*
X0043746Y0044881D01*
X0043817Y0045023D01*
X0043891Y0045163D01*
X0043969Y0045300D01*
X0044051Y0045436D01*
X0044135Y0045570D01*
X0044224Y0045701D01*
X0044315Y0045830D01*
X0044410Y0045957D01*
X0044507Y0046082D01*
X0044608Y0046204D01*
X0044712Y0046323D01*
X0044819Y0046440D01*
X0044929Y0046554D01*
X0045042Y0046665D01*
X0045157Y0046774D01*
X0045275Y0046879D01*
X0045396Y0046981D01*
X0045519Y0047081D01*
X0045645Y0047177D01*
X0045773Y0047270D01*
X0045903Y0047360D01*
X0046036Y0047446D01*
X0046171Y0047530D01*
X0046307Y0047609D01*
X0046446Y0047686D01*
X0046587Y0047758D01*
X0046729Y0047828D01*
X0046873Y0047893D01*
X0047019Y0047955D01*
X0047166Y0048013D01*
X0047315Y0048068D01*
X0047465Y0048119D01*
X0047616Y0048166D01*
X0047768Y0048209D01*
X0047921Y0048248D01*
X0048076Y0048284D01*
X0048231Y0048315D01*
X0048387Y0048343D01*
X0048543Y0048367D01*
X0048700Y0048387D01*
X0048858Y0048403D01*
X0049015Y0048415D01*
X0049174Y0048423D01*
X0049332Y0048427D01*
X0049490Y0048427D01*
X0049648Y0048423D01*
X0049807Y0048415D01*
X0049964Y0048403D01*
X0050122Y0048387D01*
X0050279Y0048367D01*
X0050435Y0048343D01*
X0050591Y0048315D01*
X0050746Y0048284D01*
X0050901Y0048248D01*
X0051054Y0048209D01*
X0051206Y0048166D01*
X0051357Y0048119D01*
X0051507Y0048068D01*
X0051656Y0048013D01*
X0051803Y0047955D01*
X0051949Y0047893D01*
X0052093Y0047828D01*
X0052235Y0047758D01*
X0052376Y0047686D01*
X0052515Y0047609D01*
X0052651Y0047530D01*
X0052786Y0047446D01*
X0052919Y0047360D01*
X0053049Y0047270D01*
X0053177Y0047177D01*
X0053303Y0047081D01*
X0053426Y0046981D01*
X0053547Y0046879D01*
X0053665Y0046774D01*
X0053780Y0046665D01*
X0053893Y0046554D01*
X0054003Y0046440D01*
X0054110Y0046323D01*
X0054214Y0046204D01*
X0054315Y0046082D01*
X0054412Y0045957D01*
X0054507Y0045830D01*
X0054598Y0045701D01*
X0054687Y0045570D01*
X0054771Y0045436D01*
X0054853Y0045300D01*
X0054931Y0045163D01*
X0055005Y0045023D01*
X0055076Y0044881D01*
X0055144Y0044738D01*
X0055208Y0044593D01*
X0055268Y0044447D01*
X0055324Y0044299D01*
X0055377Y0044150D01*
X0055426Y0043999D01*
X0055471Y0043847D01*
X0055512Y0043694D01*
X0055550Y0043541D01*
X0055583Y0043386D01*
X0055613Y0043230D01*
X0055639Y0043074D01*
X0055660Y0042917D01*
X0055678Y0042760D01*
X0055692Y0042602D01*
X0055702Y0042444D01*
X0055708Y0042286D01*
X0055710Y0042128D01*
X0055710Y0091183D02*
X0055710Y0101183D01*
X0055708Y0101341D01*
X0055702Y0101499D01*
X0055692Y0101657D01*
X0055678Y0101815D01*
X0055660Y0101972D01*
X0055639Y0102129D01*
X0055613Y0102285D01*
X0055583Y0102441D01*
X0055550Y0102596D01*
X0055512Y0102749D01*
X0055471Y0102902D01*
X0055426Y0103054D01*
X0055377Y0103205D01*
X0055324Y0103354D01*
X0055268Y0103502D01*
X0055208Y0103648D01*
X0055144Y0103793D01*
X0055076Y0103936D01*
X0055005Y0104078D01*
X0054931Y0104218D01*
X0054853Y0104355D01*
X0054771Y0104491D01*
X0054687Y0104625D01*
X0054598Y0104756D01*
X0054507Y0104885D01*
X0054412Y0105012D01*
X0054315Y0105137D01*
X0054214Y0105259D01*
X0054110Y0105378D01*
X0054003Y0105495D01*
X0053893Y0105609D01*
X0053780Y0105720D01*
X0053665Y0105829D01*
X0053547Y0105934D01*
X0053426Y0106036D01*
X0053303Y0106136D01*
X0053177Y0106232D01*
X0053049Y0106325D01*
X0052919Y0106415D01*
X0052786Y0106501D01*
X0052651Y0106585D01*
X0052515Y0106664D01*
X0052376Y0106741D01*
X0052235Y0106813D01*
X0052093Y0106883D01*
X0051949Y0106948D01*
X0051803Y0107010D01*
X0051656Y0107068D01*
X0051507Y0107123D01*
X0051357Y0107174D01*
X0051206Y0107221D01*
X0051054Y0107264D01*
X0050901Y0107303D01*
X0050746Y0107339D01*
X0050591Y0107370D01*
X0050435Y0107398D01*
X0050279Y0107422D01*
X0050122Y0107442D01*
X0049964Y0107458D01*
X0049807Y0107470D01*
X0049648Y0107478D01*
X0049490Y0107482D01*
X0049332Y0107482D01*
X0049174Y0107478D01*
X0049015Y0107470D01*
X0048858Y0107458D01*
X0048700Y0107442D01*
X0048543Y0107422D01*
X0048387Y0107398D01*
X0048231Y0107370D01*
X0048076Y0107339D01*
X0047921Y0107303D01*
X0047768Y0107264D01*
X0047616Y0107221D01*
X0047465Y0107174D01*
X0047315Y0107123D01*
X0047166Y0107068D01*
X0047019Y0107010D01*
X0046873Y0106948D01*
X0046729Y0106883D01*
X0046587Y0106813D01*
X0046446Y0106741D01*
X0046307Y0106664D01*
X0046171Y0106585D01*
X0046036Y0106501D01*
X0045903Y0106415D01*
X0045773Y0106325D01*
X0045645Y0106232D01*
X0045519Y0106136D01*
X0045396Y0106036D01*
X0045275Y0105934D01*
X0045157Y0105829D01*
X0045042Y0105720D01*
X0044929Y0105609D01*
X0044819Y0105495D01*
X0044712Y0105378D01*
X0044608Y0105259D01*
X0044507Y0105137D01*
X0044410Y0105012D01*
X0044315Y0104885D01*
X0044224Y0104756D01*
X0044135Y0104625D01*
X0044051Y0104491D01*
X0043969Y0104355D01*
X0043891Y0104218D01*
X0043817Y0104078D01*
X0043746Y0103936D01*
X0043678Y0103793D01*
X0043614Y0103648D01*
X0043554Y0103502D01*
X0043498Y0103354D01*
X0043445Y0103205D01*
X0043396Y0103054D01*
X0043351Y0102902D01*
X0043310Y0102749D01*
X0043272Y0102596D01*
X0043239Y0102441D01*
X0043209Y0102285D01*
X0043183Y0102129D01*
X0043162Y0101972D01*
X0043144Y0101815D01*
X0043130Y0101657D01*
X0043120Y0101499D01*
X0043114Y0101341D01*
X0043112Y0101183D01*
X0043112Y0091183D01*
X0043114Y0091025D01*
X0043120Y0090867D01*
X0043130Y0090709D01*
X0043144Y0090551D01*
X0043162Y0090394D01*
X0043183Y0090237D01*
X0043209Y0090081D01*
X0043239Y0089925D01*
X0043272Y0089770D01*
X0043310Y0089617D01*
X0043351Y0089464D01*
X0043396Y0089312D01*
X0043445Y0089161D01*
X0043498Y0089012D01*
X0043554Y0088864D01*
X0043614Y0088718D01*
X0043678Y0088573D01*
X0043746Y0088430D01*
X0043817Y0088288D01*
X0043891Y0088148D01*
X0043969Y0088011D01*
X0044051Y0087875D01*
X0044135Y0087741D01*
X0044224Y0087610D01*
X0044315Y0087481D01*
X0044410Y0087354D01*
X0044507Y0087229D01*
X0044608Y0087107D01*
X0044712Y0086988D01*
X0044819Y0086871D01*
X0044929Y0086757D01*
X0045042Y0086646D01*
X0045157Y0086537D01*
X0045275Y0086432D01*
X0045396Y0086330D01*
X0045519Y0086230D01*
X0045645Y0086134D01*
X0045773Y0086041D01*
X0045903Y0085951D01*
X0046036Y0085865D01*
X0046171Y0085781D01*
X0046307Y0085702D01*
X0046446Y0085625D01*
X0046587Y0085553D01*
X0046729Y0085483D01*
X0046873Y0085418D01*
X0047019Y0085356D01*
X0047166Y0085298D01*
X0047315Y0085243D01*
X0047465Y0085192D01*
X0047616Y0085145D01*
X0047768Y0085102D01*
X0047921Y0085063D01*
X0048076Y0085027D01*
X0048231Y0084996D01*
X0048387Y0084968D01*
X0048543Y0084944D01*
X0048700Y0084924D01*
X0048858Y0084908D01*
X0049015Y0084896D01*
X0049174Y0084888D01*
X0049332Y0084884D01*
X0049490Y0084884D01*
X0049648Y0084888D01*
X0049807Y0084896D01*
X0049964Y0084908D01*
X0050122Y0084924D01*
X0050279Y0084944D01*
X0050435Y0084968D01*
X0050591Y0084996D01*
X0050746Y0085027D01*
X0050901Y0085063D01*
X0051054Y0085102D01*
X0051206Y0085145D01*
X0051357Y0085192D01*
X0051507Y0085243D01*
X0051656Y0085298D01*
X0051803Y0085356D01*
X0051949Y0085418D01*
X0052093Y0085483D01*
X0052235Y0085553D01*
X0052376Y0085625D01*
X0052515Y0085702D01*
X0052651Y0085781D01*
X0052786Y0085865D01*
X0052919Y0085951D01*
X0053049Y0086041D01*
X0053177Y0086134D01*
X0053303Y0086230D01*
X0053426Y0086330D01*
X0053547Y0086432D01*
X0053665Y0086537D01*
X0053780Y0086646D01*
X0053893Y0086757D01*
X0054003Y0086871D01*
X0054110Y0086988D01*
X0054214Y0087107D01*
X0054315Y0087229D01*
X0054412Y0087354D01*
X0054507Y0087481D01*
X0054598Y0087610D01*
X0054687Y0087741D01*
X0054771Y0087875D01*
X0054853Y0088011D01*
X0054931Y0088148D01*
X0055005Y0088288D01*
X0055076Y0088430D01*
X0055144Y0088573D01*
X0055208Y0088718D01*
X0055268Y0088864D01*
X0055324Y0089012D01*
X0055377Y0089161D01*
X0055426Y0089312D01*
X0055471Y0089464D01*
X0055512Y0089617D01*
X0055550Y0089770D01*
X0055583Y0089925D01*
X0055613Y0090081D01*
X0055639Y0090237D01*
X0055660Y0090394D01*
X0055678Y0090551D01*
X0055692Y0090709D01*
X0055702Y0090867D01*
X0055708Y0091025D01*
X0055710Y0091183D01*
D12*
X0050811Y0090778D02*
X0050344Y0091245D01*
X0048009Y0091245D01*
X0048009Y0092139D02*
X0048009Y0094007D01*
X0048009Y0093073D02*
X0050811Y0093073D01*
X0050811Y0090778D02*
X0050811Y0089844D01*
X0050344Y0089377D01*
X0048009Y0089377D01*
X0048476Y0088483D02*
X0048009Y0088016D01*
X0048009Y0087081D01*
X0048476Y0086614D01*
X0050344Y0086614D01*
X0050811Y0087081D01*
X0050811Y0088016D01*
X0050344Y0088483D01*
X0050344Y0097664D02*
X0050811Y0098131D01*
X0050811Y0099065D01*
X0050344Y0099532D01*
X0048476Y0099532D01*
X0048009Y0099065D01*
X0048009Y0098131D01*
X0048476Y0097664D01*
X0050344Y0097664D01*
X0050344Y0100426D02*
X0050811Y0100893D01*
X0050811Y0101827D01*
X0050344Y0102294D01*
X0048009Y0102294D01*
X0048009Y0103189D02*
X0048009Y0105057D01*
X0048009Y0104123D02*
X0050811Y0104123D01*
X0050344Y0100426D02*
X0048009Y0100426D01*
X0048009Y0046002D02*
X0048009Y0044133D01*
X0048009Y0043239D02*
X0050344Y0043239D01*
X0050811Y0042772D01*
X0050811Y0041838D01*
X0050344Y0041371D01*
X0048009Y0041371D01*
X0048476Y0040477D02*
X0048009Y0040010D01*
X0048009Y0039076D01*
X0048476Y0038609D01*
X0050344Y0038609D01*
X0050811Y0039076D01*
X0050811Y0040010D01*
X0050344Y0040477D01*
X0048476Y0040477D01*
X0048009Y0045068D02*
X0050811Y0045068D01*
X0048009Y0034952D02*
X0048009Y0033084D01*
X0048009Y0032190D02*
X0050344Y0032190D01*
X0050811Y0031723D01*
X0050811Y0030789D01*
X0050344Y0030322D01*
X0048009Y0030322D01*
X0048476Y0029428D02*
X0048009Y0028960D01*
X0048009Y0028026D01*
X0048476Y0027559D01*
X0050344Y0027559D01*
X0050811Y0028026D01*
X0050811Y0028960D01*
X0050344Y0029428D01*
X0050811Y0034018D02*
X0048009Y0034018D01*
X0530292Y0034018D02*
X0533094Y0034018D01*
X0532627Y0032190D02*
X0530292Y0032190D01*
X0530292Y0033084D02*
X0530292Y0034952D01*
X0532627Y0032190D02*
X0533094Y0031723D01*
X0533094Y0030789D01*
X0532627Y0030322D01*
X0530292Y0030322D01*
X0530759Y0029428D02*
X0530292Y0028960D01*
X0530292Y0028026D01*
X0530759Y0027559D01*
X0532627Y0027559D01*
X0533094Y0028026D01*
X0533094Y0028960D01*
X0532627Y0029428D01*
X0532627Y0038609D02*
X0533094Y0039076D01*
X0533094Y0040010D01*
X0532627Y0040477D01*
X0530759Y0040477D01*
X0530292Y0040010D01*
X0530292Y0039076D01*
X0530759Y0038609D01*
X0532627Y0038609D01*
X0532627Y0041371D02*
X0533094Y0041838D01*
X0533094Y0042772D01*
X0532627Y0043239D01*
X0530292Y0043239D01*
X0530292Y0044133D02*
X0530292Y0046002D01*
X0530292Y0045068D02*
X0533094Y0045068D01*
X0532627Y0041371D02*
X0530292Y0041371D01*
X0530759Y0086614D02*
X0532627Y0086614D01*
X0533094Y0087081D01*
X0533094Y0088016D01*
X0532627Y0088483D01*
X0532627Y0089377D02*
X0533094Y0089844D01*
X0533094Y0090778D01*
X0532627Y0091245D01*
X0530292Y0091245D01*
X0530292Y0092139D02*
X0530292Y0094007D01*
X0530292Y0093073D02*
X0533094Y0093073D01*
X0532627Y0089377D02*
X0530292Y0089377D01*
X0530759Y0088483D02*
X0530292Y0088016D01*
X0530292Y0087081D01*
X0530759Y0086614D01*
X0530759Y0097664D02*
X0532627Y0097664D01*
X0533094Y0098131D01*
X0533094Y0099065D01*
X0532627Y0099532D01*
X0530759Y0099532D01*
X0530292Y0099065D01*
X0530292Y0098131D01*
X0530759Y0097664D01*
X0530292Y0100426D02*
X0532627Y0100426D01*
X0533094Y0100893D01*
X0533094Y0101827D01*
X0532627Y0102294D01*
X0530292Y0102294D01*
X0530292Y0103189D02*
X0530292Y0105057D01*
X0530292Y0104123D02*
X0533094Y0104123D01*
D13*
X0531694Y0101183D02*
X0531694Y0091183D01*
X0531694Y0042128D02*
X0531694Y0032128D01*
X0049411Y0032128D02*
X0049411Y0042128D01*
X0049411Y0091183D02*
X0049411Y0101183D01*
D14*
X0243602Y0107088D02*
X0446598Y0107088D01*
X0482895Y0071655D02*
X0482874Y0070788D01*
X0482833Y0069923D01*
X0482770Y0069058D01*
X0482686Y0068195D01*
X0482582Y0067335D01*
X0482457Y0066477D01*
X0482311Y0065623D01*
X0482144Y0064772D01*
X0481957Y0063926D01*
X0481750Y0063084D01*
X0481522Y0062248D01*
X0481274Y0061417D01*
X0481006Y0060593D01*
X0480719Y0059775D01*
X0480411Y0058965D01*
X0480085Y0058162D01*
X0479739Y0057367D01*
X0479373Y0056581D01*
X0478989Y0055804D01*
X0478586Y0055037D01*
X0478165Y0054279D01*
X0477726Y0053532D01*
X0477268Y0052796D01*
X0476793Y0052071D01*
X0476301Y0051357D01*
X0475792Y0050656D01*
X0475265Y0049967D01*
X0474723Y0049292D01*
X0474164Y0048629D01*
X0473589Y0047980D01*
X0472999Y0047346D01*
X0472393Y0046725D01*
X0471773Y0046120D01*
X0471138Y0045530D01*
X0470490Y0044955D01*
X0469827Y0044396D01*
X0469151Y0043853D01*
X0468463Y0043327D01*
X0467762Y0042817D01*
X0467048Y0042325D01*
X0466323Y0041850D01*
X0465587Y0041392D01*
X0464840Y0040953D01*
X0464082Y0040532D01*
X0463315Y0040129D01*
X0462538Y0039745D01*
X0461752Y0039379D01*
X0460957Y0039033D01*
X0460154Y0038706D01*
X0459344Y0038399D01*
X0458526Y0038111D01*
X0457702Y0037843D01*
X0456871Y0037596D01*
X0456035Y0037368D01*
X0455194Y0037160D01*
X0454347Y0036973D01*
X0453497Y0036807D01*
X0452642Y0036661D01*
X0451785Y0036536D01*
X0450924Y0036431D01*
X0450061Y0036347D01*
X0449197Y0036285D01*
X0448331Y0036243D01*
X0447465Y0036222D01*
X0446598Y0036222D01*
X0243602Y0036222D01*
X0207305Y0071655D02*
X0207326Y0072535D01*
X0207369Y0073414D01*
X0207434Y0074292D01*
X0207520Y0075169D01*
X0207627Y0076042D01*
X0207756Y0076913D01*
X0207907Y0077780D01*
X0208078Y0078644D01*
X0208271Y0079503D01*
X0208484Y0080357D01*
X0208719Y0081205D01*
X0208974Y0082048D01*
X0209250Y0082884D01*
X0209547Y0083713D01*
X0209863Y0084534D01*
X0210200Y0085347D01*
X0210557Y0086152D01*
X0210933Y0086948D01*
X0211328Y0087735D01*
X0211743Y0088511D01*
X0212177Y0089277D01*
X0212629Y0090032D01*
X0213100Y0090776D01*
X0213589Y0091508D01*
X0214096Y0092228D01*
X0214620Y0092935D01*
X0215162Y0093629D01*
X0215720Y0094310D01*
X0216295Y0094977D01*
X0216886Y0095629D01*
X0217493Y0096267D01*
X0218115Y0096889D01*
X0218752Y0097496D01*
X0219404Y0098088D01*
X0220071Y0098663D01*
X0220751Y0099221D01*
X0221445Y0099763D01*
X0222152Y0100288D01*
X0222872Y0100795D01*
X0223604Y0101284D01*
X0224347Y0101755D01*
X0225102Y0102208D01*
X0225868Y0102642D01*
X0226644Y0103057D01*
X0227431Y0103453D01*
X0228226Y0103830D01*
X0229031Y0104187D01*
X0229844Y0104524D01*
X0230665Y0104841D01*
X0231494Y0105137D01*
X0232330Y0105414D01*
X0233172Y0105669D01*
X0234021Y0105904D01*
X0234875Y0106119D01*
X0235734Y0106312D01*
X0236597Y0106484D01*
X0237464Y0106634D01*
X0238335Y0106764D01*
X0239209Y0106872D01*
X0240085Y0106958D01*
X0240963Y0107023D01*
X0241842Y0107066D01*
X0242722Y0107088D01*
X0243602Y0107088D01*
X0207305Y0071655D02*
X0207326Y0070775D01*
X0207369Y0069896D01*
X0207434Y0069018D01*
X0207520Y0068141D01*
X0207627Y0067268D01*
X0207756Y0066397D01*
X0207907Y0065530D01*
X0208078Y0064666D01*
X0208271Y0063807D01*
X0208484Y0062953D01*
X0208719Y0062105D01*
X0208974Y0061262D01*
X0209250Y0060426D01*
X0209547Y0059597D01*
X0209863Y0058776D01*
X0210200Y0057963D01*
X0210557Y0057158D01*
X0210933Y0056362D01*
X0211328Y0055575D01*
X0211743Y0054799D01*
X0212177Y0054033D01*
X0212629Y0053278D01*
X0213100Y0052534D01*
X0213589Y0051802D01*
X0214096Y0051082D01*
X0214620Y0050375D01*
X0215162Y0049681D01*
X0215720Y0049000D01*
X0216295Y0048333D01*
X0216886Y0047681D01*
X0217493Y0047043D01*
X0218115Y0046421D01*
X0218752Y0045814D01*
X0219404Y0045222D01*
X0220071Y0044647D01*
X0220751Y0044089D01*
X0221445Y0043547D01*
X0222152Y0043022D01*
X0222872Y0042515D01*
X0223604Y0042026D01*
X0224347Y0041555D01*
X0225102Y0041102D01*
X0225868Y0040668D01*
X0226644Y0040253D01*
X0227431Y0039857D01*
X0228226Y0039480D01*
X0229031Y0039123D01*
X0229844Y0038786D01*
X0230665Y0038469D01*
X0231494Y0038173D01*
X0232330Y0037896D01*
X0233172Y0037641D01*
X0234021Y0037406D01*
X0234875Y0037191D01*
X0235734Y0036998D01*
X0236597Y0036826D01*
X0237464Y0036676D01*
X0238335Y0036546D01*
X0239209Y0036438D01*
X0240085Y0036352D01*
X0240963Y0036287D01*
X0241842Y0036244D01*
X0242722Y0036222D01*
X0243602Y0036222D01*
X0446598Y0107088D02*
X0447465Y0107088D01*
X0448331Y0107067D01*
X0449197Y0107025D01*
X0450061Y0106963D01*
X0450924Y0106879D01*
X0451785Y0106774D01*
X0452642Y0106649D01*
X0453497Y0106503D01*
X0454347Y0106337D01*
X0455194Y0106150D01*
X0456035Y0105942D01*
X0456871Y0105714D01*
X0457702Y0105467D01*
X0458526Y0105199D01*
X0459344Y0104911D01*
X0460154Y0104604D01*
X0460957Y0104277D01*
X0461752Y0103931D01*
X0462538Y0103565D01*
X0463315Y0103181D01*
X0464082Y0102778D01*
X0464840Y0102357D01*
X0465587Y0101918D01*
X0466323Y0101460D01*
X0467048Y0100985D01*
X0467762Y0100493D01*
X0468463Y0099983D01*
X0469151Y0099457D01*
X0469827Y0098914D01*
X0470490Y0098355D01*
X0471138Y0097780D01*
X0471773Y0097190D01*
X0472393Y0096585D01*
X0472999Y0095964D01*
X0473589Y0095330D01*
X0474164Y0094681D01*
X0474723Y0094018D01*
X0475265Y0093343D01*
X0475792Y0092654D01*
X0476301Y0091953D01*
X0476793Y0091239D01*
X0477268Y0090514D01*
X0477726Y0089778D01*
X0478165Y0089031D01*
X0478586Y0088273D01*
X0478989Y0087506D01*
X0479373Y0086729D01*
X0479739Y0085943D01*
X0480085Y0085148D01*
X0480411Y0084345D01*
X0480719Y0083535D01*
X0481006Y0082717D01*
X0481274Y0081893D01*
X0481522Y0081062D01*
X0481750Y0080226D01*
X0481957Y0079384D01*
X0482144Y0078538D01*
X0482311Y0077687D01*
X0482457Y0076833D01*
X0482582Y0075975D01*
X0482686Y0075115D01*
X0482770Y0074252D01*
X0482833Y0073387D01*
X0482874Y0072522D01*
X0482895Y0071655D01*
D15*
X0414849Y0081526D02*
X0398368Y0081526D01*
X0391829Y0081526D02*
X0391829Y0060925D01*
X0387709Y0056805D01*
X0379469Y0056805D01*
X0375348Y0060925D01*
X0375348Y0081526D01*
X0368809Y0077406D02*
X0364689Y0081526D01*
X0356449Y0081526D01*
X0352329Y0077406D01*
X0352329Y0060925D01*
X0356449Y0056805D01*
X0364689Y0056805D01*
X0368809Y0060925D01*
X0368809Y0077406D01*
X0406608Y0081526D02*
X0406608Y0056805D01*
X0322770Y0081526D02*
X0306289Y0081526D01*
X0299750Y0081526D02*
X0299750Y0060925D01*
X0295630Y0056805D01*
X0287390Y0056805D01*
X0283270Y0060925D01*
X0283270Y0081526D01*
X0276731Y0077406D02*
X0272611Y0081526D01*
X0264370Y0081526D01*
X0260250Y0077406D01*
X0260250Y0060925D01*
X0264370Y0056805D01*
X0272611Y0056805D01*
X0276731Y0060925D01*
X0314530Y0056805D02*
X0314530Y0081526D01*
D16*
X0242738Y0071655D02*
X0447462Y0071655D01*
M02*
