%
M48
M72
T01C0.0177
T02C0.0197
T03C0.0276
T04C0.0320
T05C0.0400
T06C0.0440
T07C0.0787
T08C0.2520
%
T01
X4914Y5410
X2119Y6119
X6450Y7694
X3694Y10450
X1410Y8914
T02
X9930Y4680
T03
X8930Y2680
X8930Y1680
X6930Y1680
X6930Y2680
T04
X6680Y3680
X8680Y3680
X10180Y2930
X11180Y2930
X12180Y4180
X13180Y4180
X14180Y4180
X15180Y4180
X16180Y4180
X17180Y4180
X18180Y4180
X19180Y4180
X19430Y5930
X18430Y5930
X17430Y5930
X16430Y6930
X15430Y5930
X14430Y5930
X13680Y6430
X11680Y6430
X9430Y5180
X12430Y7930
X13430Y7930
X14430Y8930
X15430Y8930
X16430Y8930
X17430Y8930
X18430Y8930
X19430Y8930
X13430Y10930
X12430Y10930
X11430Y11180
X10430Y11180
X8180Y11180
X8180Y8180
X9430Y8180
X10430Y8180
X11430Y8180
X12180Y1180
X13180Y1180
X14180Y1180
X15180Y1180
X16180Y1180
X17180Y1180
X18180Y1180
X19180Y1180
X11180Y930
X10180Y930
X8680Y680
X6680Y680
T05
X5430Y1630
X4430Y1730
X3430Y1630
X2430Y1730
X1430Y1630
X1430Y2630
X2430Y2730
X3430Y2630
X4430Y2730
X5430Y2630
X8180Y5610
X8180Y6750
X10630Y6930
X10730Y5930
X10630Y4930
T06
X1430Y680
X5430Y680
X5430Y3680
X1430Y3680
T07
X15930Y10805
X18805Y10805
T08
X3930Y7930
M30
