G75*
%MOIN*%
%OFA0B0*%
%FSLAX25Y25*%
%IPPOS*%
%LPD*%
%AMOC8*
5,1,8,0,0,1.08239X$1,22.5*
%
%ADD10OC8,0.04800*%
%ADD11R,0.06500X0.06500*%
%ADD12C,0.06500*%
%ADD13C,0.06600*%
%ADD14C,0.04800*%
%ADD15C,0.11811*%
%ADD16OC8,0.07400*%
%ADD17C,0.07400*%
%ADD18C,0.13000*%
%ADD19R,0.04800X0.04800*%
%ADD20C,0.04800*%
%ADD21C,0.02400*%
%ADD22C,0.01600*%
%ADD23C,0.03169*%
%ADD24C,0.04000*%
D10*
X0066800Y0006800D03*
X0086800Y0006800D03*
X0101800Y0009300D03*
X0111800Y0009300D03*
X0111800Y0029300D03*
X0101800Y0029300D03*
X0086800Y0036800D03*
X0066800Y0036800D03*
X0094300Y0051800D03*
X0116800Y0064300D03*
X0136800Y0064300D03*
X0144300Y0059300D03*
X0154300Y0059300D03*
X0164300Y0069300D03*
X0194300Y0059300D03*
X0191800Y0041800D03*
X0191800Y0011800D03*
X0134300Y0079300D03*
X0124300Y0079300D03*
X0114300Y0081800D03*
X0104300Y0081800D03*
X0094300Y0081800D03*
X0081800Y0081800D03*
X0124300Y0109300D03*
X0134300Y0109300D03*
X0114300Y0111800D03*
X0104300Y0111800D03*
X0081800Y0111800D03*
X0144300Y0089300D03*
X0154300Y0089300D03*
X0164300Y0089300D03*
X0194300Y0089300D03*
D11*
X0089300Y0026800D03*
X0069300Y0026800D03*
D12*
X0069300Y0016800D03*
X0089300Y0016800D03*
D13*
X0014300Y0006800D03*
X0054300Y0006800D03*
X0054300Y0036800D03*
X0014300Y0036800D03*
D14*
X0121800Y0039400D02*
X0121800Y0044200D01*
X0131800Y0044200D02*
X0131800Y0039400D01*
X0141800Y0039400D02*
X0141800Y0044200D01*
X0151800Y0044200D02*
X0151800Y0039400D01*
X0161800Y0039400D02*
X0161800Y0044200D01*
X0171800Y0044200D02*
X0171800Y0039400D01*
X0181800Y0039400D02*
X0181800Y0044200D01*
X0181800Y0014200D02*
X0181800Y0009400D01*
X0171800Y0009400D02*
X0171800Y0014200D01*
X0161800Y0014200D02*
X0161800Y0009400D01*
X0151800Y0009400D02*
X0151800Y0014200D01*
X0141800Y0014200D02*
X0141800Y0009400D01*
X0131800Y0009400D02*
X0131800Y0014200D01*
X0121800Y0014200D02*
X0121800Y0009400D01*
D15*
X0055048Y0054103D02*
X0043237Y0054103D01*
X0025366Y0057014D02*
X0017014Y0065366D01*
X0014103Y0083237D02*
X0014103Y0095048D01*
X0031032Y0104497D02*
X0042843Y0104497D01*
X0064497Y0082843D02*
X0064497Y0071032D01*
D16*
X0044300Y0027300D03*
X0034300Y0026300D03*
X0024300Y0027300D03*
X0014300Y0026300D03*
X0024300Y0017300D03*
X0034300Y0016300D03*
X0044300Y0017300D03*
X0054300Y0016300D03*
X0054300Y0026300D03*
X0014300Y0016300D03*
D17*
X0081800Y0056100D03*
X0081800Y0067500D03*
X0106300Y0069300D03*
X0107300Y0059300D03*
X0106300Y0049300D03*
D18*
X0159300Y0108050D03*
X0188050Y0108050D03*
D19*
X0184300Y0089300D03*
X0174300Y0059300D03*
D20*
X0184300Y0059300D03*
X0174300Y0089300D03*
D21*
X0151800Y0041800D02*
X0134300Y0024300D01*
X0106800Y0024300D01*
X0101800Y0029300D01*
X0096800Y0029300D01*
X0089300Y0036800D01*
X0086800Y0036800D01*
X0076800Y0026800D01*
X0069300Y0026800D01*
X0086800Y0014300D02*
X0089300Y0016800D01*
X0104300Y0016800D01*
X0111800Y0009300D01*
X0116800Y0004300D01*
X0124300Y0004300D01*
X0144300Y0004300D01*
X0151800Y0011800D01*
X0086800Y0014300D02*
X0086800Y0006800D01*
D22*
X0104300Y0034300D02*
X0096800Y0041800D01*
X0079300Y0041800D01*
X0071800Y0049300D01*
X0071800Y0071800D01*
X0081800Y0081800D01*
X0054103Y0104497D01*
X0036938Y0104497D01*
X0019300Y0111800D02*
X0014300Y0106800D01*
X0014300Y0089339D01*
X0014103Y0089143D01*
X0019300Y0111800D02*
X0074300Y0111800D01*
X0079300Y0106800D01*
X0116800Y0106800D01*
X0120800Y0113800D01*
X0153550Y0113800D01*
X0159300Y0108050D01*
X0154300Y0089300D02*
X0154300Y0081800D01*
X0164300Y0071800D01*
X0164300Y0069300D01*
X0174300Y0059300D01*
X0174300Y0044300D01*
X0171800Y0041800D01*
X0181800Y0041800D02*
X0189300Y0049300D01*
X0189300Y0084300D01*
X0184300Y0089300D01*
X0174300Y0089300D01*
X0164300Y0089300D01*
X0144300Y0089300D02*
X0144300Y0081800D01*
X0166800Y0059300D01*
X0166800Y0026800D01*
X0181800Y0011800D01*
X0186800Y0006800D02*
X0186800Y0036800D01*
X0191800Y0041800D01*
X0194300Y0044300D01*
X0194300Y0059300D01*
X0184300Y0059300D02*
X0174300Y0059300D01*
X0154300Y0059300D02*
X0149300Y0064300D01*
X0136800Y0064300D01*
X0144300Y0059300D02*
X0141800Y0054300D01*
X0111800Y0054300D01*
X0106800Y0049300D01*
X0106300Y0049300D01*
X0099300Y0046800D02*
X0099300Y0056800D01*
X0089300Y0066800D01*
X0089300Y0084300D01*
X0091800Y0086800D01*
X0116800Y0086800D01*
X0124300Y0079300D01*
X0134300Y0079300D01*
X0119300Y0091800D02*
X0124300Y0096800D01*
X0124300Y0109300D01*
X0119300Y0091800D02*
X0091800Y0091800D01*
X0086800Y0086800D01*
X0086800Y0076800D01*
X0081800Y0071800D01*
X0081800Y0067500D01*
X0094300Y0072300D02*
X0107300Y0059300D01*
X0094300Y0051800D02*
X0090000Y0056100D01*
X0081800Y0056100D01*
X0094300Y0072300D02*
X0094300Y0081800D01*
X0104300Y0081800D02*
X0114300Y0081800D01*
X0141800Y0041800D02*
X0141800Y0039300D01*
X0136800Y0034300D01*
X0104300Y0034300D01*
X0171800Y0011800D02*
X0171800Y0006800D01*
X0174300Y0004300D01*
X0184300Y0004300D01*
X0186800Y0006800D01*
X0184300Y0089300D02*
X0194300Y0089300D01*
D23*
X0099300Y0046800D03*
D24*
X0066800Y0036800D02*
X0054300Y0036800D01*
X0054300Y0026300D01*
X0054300Y0016300D01*
X0054300Y0006800D02*
X0023800Y0006800D01*
X0014300Y0016300D01*
X0014300Y0026300D01*
X0054300Y0006800D02*
X0066800Y0006800D01*
M02*
